<svg width="32" height="32" viewBox="0 0 32 32" fill="none" xmlns="http://www.w3.org/2000/svg">
<path fill-rule="evenodd" clip-rule="evenodd" d="M13.9821 5.48551C14.8813 3.93582 17.1192 3.93582 18.0184 5.48551L20.7722 10.2313C21.0261 10.6688 21.4648 10.9673 21.9649 11.0428L26.5378 11.7335C28.5311 12.0346 29.2303 14.5513 27.6779 15.8375L24.346 18.5979C23.8784 18.9853 23.6585 19.5965 23.7721 20.1931L24.7054 25.0944C25.071 27.0143 23.0555 28.506 21.3261 27.5954L16.7768 25.2C16.2907 24.9441 15.7098 24.9441 15.2238 25.2L10.6744 27.5954C8.94503 28.506 6.92953 27.0143 7.29512 25.0944L8.22843 20.1931C8.34203 19.5965 8.12214 18.9853 7.65449 18.5979L4.32262 15.8375C2.77024 14.5513 3.46944 12.0346 5.46277 11.7335L10.0356 11.0428C10.5357 10.9673 10.9744 10.6688 11.2283 10.2313L13.9821 5.48551ZM16.2886 6.48928C16.1601 6.2679 15.8404 6.2679 15.712 6.48928L12.9581 11.2351C12.3997 12.1975 11.4345 12.8542 10.3343 13.0204L5.76146 13.7111C5.4767 13.7541 5.37681 14.1136 5.59858 14.2973L8.93045 17.0578C9.95929 17.9102 10.4431 19.2547 10.1931 20.5672L9.25982 25.4685C9.20759 25.7427 9.49552 25.9559 9.74257 25.8258L14.292 23.4303C15.3612 22.8673 16.6393 22.8673 17.7086 23.4303L22.258 25.8258C22.505 25.9559 22.7929 25.7428 22.7407 25.4685L21.8074 20.5672C21.5575 19.2547 22.0412 17.9102 23.0701 17.0578L26.4019 14.2973C26.6237 14.1136 26.5238 13.7541 26.2391 13.7111L21.6662 13.0204C20.566 12.8542 19.6008 12.1975 19.0424 11.2351L16.2886 6.48928Z" fill="#6963EF"/>
</svg>
