<svg width="6" height="17" viewBox="0 0 6 17" fill="none" xmlns="http://www.w3.org/2000/svg">
<path d="M3 0.708008C4.24264 0.708008 5.25 1.6594 5.25 2.83301C5.25 4.00661 4.24264 4.95801 3 4.95801C1.75736 4.95801 0.75 4.00661 0.75 2.83301C0.75 1.6594 1.75736 0.708008 3 0.708008Z" fill="#222222"/>
<path d="M3 12.0415C4.24264 12.0415 5.25 12.9929 5.25 14.1665C5.25 15.3401 4.24264 16.2915 3 16.2915C1.75736 16.2915 0.75 15.3401 0.75 14.1665C0.75 12.9929 1.75736 12.0415 3 12.0415Z" fill="#222222"/>
<path d="M3 6.375C4.24264 6.375 5.25 7.32639 5.25 8.5C5.25 9.67361 4.24264 10.625 3 10.625C1.75736 10.625 0.75 9.67361 0.75 8.5C0.75 7.32639 1.75736 6.375 3 6.375Z" fill="#222222"/>
</svg>
