<svg width="608" height="65" viewBox="0 0 608 65" fill="none" xmlns="http://www.w3.org/2000/svg">
<path d="M0 19C0 8.50659 8.50659 0 19 0H589C599.493 0 608 8.50659 608 19V65H0V19Z" fill="#ECEBEB"/>
<path d="M513.31 45.7273V53H512.429V46.6506H512.386L510.611 47.8295V46.9347L512.429 45.7273H513.31ZM518.54 48.973V49.7543H515.359V48.973H518.54ZM522.274 53.0994C521.857 53.0994 521.482 53.0166 521.148 52.8509C520.814 52.6851 520.547 52.4579 520.345 52.169C520.144 51.8802 520.034 51.5511 520.015 51.1818H520.867C520.901 51.5109 521.05 51.7831 521.315 51.9986C521.582 52.2116 521.902 52.3182 522.274 52.3182C522.572 52.3182 522.837 52.2483 523.069 52.1087C523.303 51.969 523.487 51.7772 523.619 51.5334C523.754 51.2872 523.822 51.009 523.822 50.6989C523.822 50.3816 523.752 50.0987 523.612 49.8501C523.475 49.5992 523.286 49.4015 523.044 49.2571C522.803 49.1127 522.527 49.0393 522.217 49.0369C521.994 49.0346 521.766 49.0689 521.531 49.1399C521.297 49.2086 521.104 49.2973 520.953 49.4062L520.129 49.3068L520.569 45.7273H524.347V46.5085H521.308L521.052 48.6534H521.095C521.244 48.535 521.431 48.4368 521.656 48.3587C521.881 48.2805 522.115 48.2415 522.359 48.2415C522.804 48.2415 523.2 48.348 523.548 48.5611C523.899 48.7718 524.173 49.0606 524.372 49.4276C524.574 49.7945 524.674 50.2135 524.674 50.6847C524.674 51.1487 524.57 51.563 524.362 51.9276C524.156 52.2898 523.872 52.5762 523.509 52.7869C523.147 52.9953 522.735 53.0994 522.274 53.0994ZM528.457 53.0994C527.922 53.0994 527.466 52.9538 527.09 52.6626C526.713 52.3691 526.426 51.9441 526.227 51.3878C526.028 50.8291 525.929 50.1544 525.929 49.3636C525.929 48.5777 526.028 47.9065 526.227 47.3501C526.428 46.7914 526.717 46.3653 527.093 46.0717C527.472 45.7758 527.927 45.6278 528.457 45.6278C528.987 45.6278 529.441 45.7758 529.817 46.0717C530.196 46.3653 530.485 46.7914 530.684 47.3501C530.885 47.9065 530.985 48.5777 530.985 49.3636C530.985 50.1544 530.886 50.8291 530.687 51.3878C530.488 51.9441 530.201 52.3691 529.824 52.6626C529.448 52.9538 528.992 53.0994 528.457 53.0994ZM528.457 52.3182C528.987 52.3182 529.399 52.0625 529.693 51.5511C529.986 51.0398 530.133 50.3106 530.133 49.3636C530.133 48.7339 530.066 48.1977 529.931 47.755C529.798 47.3123 529.606 46.9749 529.355 46.7429C529.107 46.5109 528.807 46.3949 528.457 46.3949C527.931 46.3949 527.521 46.6541 527.225 47.1726C526.929 47.6887 526.781 48.419 526.781 49.3636C526.781 49.9934 526.847 50.5284 526.98 50.9688C527.112 51.4091 527.303 51.7441 527.551 51.9737C527.802 52.2034 528.104 52.3182 528.457 52.3182ZM537.377 53.1136C536.885 53.1136 536.453 52.9964 536.081 52.7621C535.712 52.5277 535.423 52.1998 535.215 51.7784C535.009 51.357 534.906 50.8646 534.906 50.3011C534.906 49.733 535.009 49.237 535.215 48.8132C535.423 48.3894 535.712 48.0604 536.081 47.826C536.453 47.5916 536.885 47.4744 537.377 47.4744C537.87 47.4744 538.301 47.5916 538.67 47.826C539.042 48.0604 539.331 48.3894 539.537 48.8132C539.745 49.237 539.849 49.733 539.849 50.3011C539.849 50.8646 539.745 51.357 539.537 51.7784C539.331 52.1998 539.042 52.5277 538.67 52.7621C538.301 52.9964 537.87 53.1136 537.377 53.1136ZM537.377 52.3608C537.752 52.3608 538.059 52.2649 538.301 52.0732C538.542 51.8814 538.721 51.6293 538.837 51.3168C538.953 51.0043 539.011 50.6657 539.011 50.3011C539.011 49.9366 538.953 49.5968 538.837 49.282C538.721 48.9671 538.542 48.7126 538.301 48.5185C538.059 48.3243 537.752 48.2273 537.377 48.2273C537.003 48.2273 536.696 48.3243 536.454 48.5185C536.213 48.7126 536.034 48.9671 535.918 49.282C535.802 49.5968 535.744 49.9366 535.744 50.3011C535.744 50.6657 535.802 51.0043 535.918 51.3168C536.034 51.6293 536.213 51.8814 536.454 52.0732C536.696 52.2649 537.003 52.3608 537.377 52.3608ZM543.557 47.5455V48.2557H540.617V47.5455H543.557ZM541.498 53V46.7926C541.498 46.4801 541.571 46.2197 541.718 46.0114C541.865 45.803 542.055 45.6468 542.29 45.5426C542.524 45.4384 542.771 45.3864 543.032 45.3864C543.238 45.3864 543.406 45.4029 543.536 45.4361C543.666 45.4692 543.763 45.5 543.827 45.5284L543.586 46.2528C543.543 46.2386 543.484 46.2209 543.408 46.1996C543.335 46.1783 543.238 46.1676 543.117 46.1676C542.84 46.1676 542.64 46.2375 542.517 46.3771C542.396 46.5168 542.336 46.7216 542.336 46.9915V53H541.498ZM550.087 45.7273V53H549.206V46.6506H549.164L547.388 47.8295V46.9347L549.206 45.7273H550.087ZM553.013 52.0057L552.956 52.3892C552.916 52.6591 552.855 52.9479 552.772 53.2557C552.691 53.5634 552.607 53.8535 552.52 54.1257C552.432 54.398 552.36 54.6146 552.303 54.7756H551.664C551.694 54.6241 551.735 54.424 551.784 54.1754C551.834 53.9268 551.884 53.6487 551.934 53.3409C551.986 53.0355 552.028 52.723 552.061 52.4034L552.104 52.0057H553.013ZM556.736 53.0994C556.267 53.0994 555.849 53.0189 555.482 52.858C555.117 52.697 554.827 52.4732 554.612 52.1868C554.399 51.898 554.283 51.563 554.264 51.1818H555.159C555.178 51.4162 555.258 51.6186 555.4 51.7891C555.542 51.9571 555.728 52.0874 555.958 52.1797C556.188 52.272 556.442 52.3182 556.721 52.3182C557.034 52.3182 557.311 52.2637 557.552 52.1548C557.794 52.0459 557.983 51.8944 558.121 51.7003C558.258 51.5062 558.327 51.2812 558.327 51.0256C558.327 50.758 558.26 50.5225 558.128 50.3189C557.995 50.1129 557.801 49.9519 557.545 49.8359C557.29 49.7199 556.977 49.6619 556.608 49.6619H556.025V48.8807H556.608C556.897 48.8807 557.15 48.8286 557.368 48.7244C557.588 48.6203 557.76 48.4735 557.883 48.2841C558.008 48.0947 558.071 47.8722 558.071 47.6165C558.071 47.3703 558.016 47.156 557.907 46.9737C557.799 46.7914 557.645 46.6494 557.446 46.5476C557.249 46.4458 557.017 46.3949 556.75 46.3949C556.499 46.3949 556.262 46.4411 556.04 46.5334C555.819 46.6233 555.64 46.7547 555.5 46.9276C555.36 47.098 555.284 47.304 555.273 47.5455H554.42C554.434 47.1643 554.549 46.8305 554.765 46.544C554.98 46.2552 555.262 46.0303 555.61 45.8693C555.96 45.7083 556.345 45.6278 556.764 45.6278C557.214 45.6278 557.6 45.719 557.922 45.9013C558.244 46.0812 558.491 46.3191 558.664 46.6151C558.837 46.911 558.923 47.2306 558.923 47.5739C558.923 47.9834 558.815 48.3326 558.6 48.6214C558.387 48.9103 558.097 49.1103 557.73 49.2216V49.2784C558.189 49.3542 558.548 49.5495 558.806 49.8643C559.064 50.1768 559.193 50.5639 559.193 51.0256C559.193 51.4209 559.085 51.776 558.87 52.0909C558.657 52.4034 558.366 52.6496 557.996 52.8295C557.627 53.0095 557.207 53.0994 556.736 53.0994ZM563.018 53.0994C562.483 53.0994 562.027 52.9538 561.65 52.6626C561.274 52.3691 560.986 51.9441 560.787 51.3878C560.589 50.8291 560.489 50.1544 560.489 49.3636C560.489 48.5777 560.589 47.9065 560.787 47.3501C560.989 46.7914 561.278 46.3653 561.654 46.0717C562.033 45.7758 562.487 45.6278 563.018 45.6278C563.548 45.6278 564.001 45.7758 564.378 46.0717C564.756 46.3653 565.045 46.7914 565.244 47.3501C565.445 47.9065 565.546 48.5777 565.546 49.3636C565.546 50.1544 565.447 50.8291 565.248 51.3878C565.049 51.9441 564.761 52.3691 564.385 52.6626C564.008 52.9538 563.553 53.0994 563.018 53.0994ZM563.018 52.3182C563.548 52.3182 563.96 52.0625 564.253 51.5511C564.547 51.0398 564.694 50.3106 564.694 49.3636C564.694 48.7339 564.626 48.1977 564.491 47.755C564.359 47.3123 564.167 46.9749 563.916 46.7429C563.667 46.5109 563.368 46.3949 563.018 46.3949C562.492 46.3949 562.081 46.6541 561.785 47.1726C561.489 47.6887 561.341 48.419 561.341 49.3636C561.341 49.9934 561.408 50.5284 561.54 50.9688C561.673 51.4091 561.863 51.7441 562.112 51.9737C562.363 52.2034 562.665 52.3182 563.018 52.3182ZM569.268 53.0994C568.733 53.0994 568.277 52.9538 567.9 52.6626C567.524 52.3691 567.236 51.9441 567.037 51.3878C566.839 50.8291 566.739 50.1544 566.739 49.3636C566.739 48.5777 566.839 47.9065 567.037 47.3501C567.239 46.7914 567.528 46.3653 567.904 46.0717C568.283 45.7758 568.737 45.6278 569.268 45.6278C569.798 45.6278 570.251 45.7758 570.628 46.0717C571.006 46.3653 571.295 46.7914 571.494 47.3501C571.695 47.9065 571.796 48.5777 571.796 49.3636C571.796 50.1544 571.697 50.8291 571.498 51.3878C571.299 51.9441 571.011 52.3691 570.635 52.6626C570.258 52.9538 569.803 53.0994 569.268 53.0994ZM569.268 52.3182C569.798 52.3182 570.21 52.0625 570.503 51.5511C570.797 51.0398 570.944 50.3106 570.944 49.3636C570.944 48.7339 570.876 48.1977 570.741 47.755C570.609 47.3123 570.417 46.9749 570.166 46.7429C569.917 46.5109 569.618 46.3949 569.268 46.3949C568.742 46.3949 568.331 46.6541 568.035 47.1726C567.739 47.6887 567.591 48.419 567.591 49.3636C567.591 49.9934 567.658 50.5284 567.79 50.9688C567.923 51.4091 568.113 51.7441 568.362 51.9737C568.613 52.2034 568.915 52.3182 569.268 52.3182Z" fill="#898989"/>
<path d="M40.7841 45.2727H41.8409V51.0511C41.8409 51.6477 41.7003 52.1804 41.419 52.6491C41.1406 53.1151 40.7472 53.483 40.2386 53.7528C39.7301 54.0199 39.1335 54.1534 38.4489 54.1534C37.7642 54.1534 37.1676 54.0199 36.6591 53.7528C36.1506 53.483 35.7557 53.1151 35.4744 52.6491C35.196 52.1804 35.0568 51.6477 35.0568 51.0511V45.2727H36.1136V50.9659C36.1136 51.392 36.2074 51.7713 36.3949 52.1037C36.5824 52.4332 36.8494 52.6932 37.196 52.8835C37.5455 53.071 37.9631 53.1648 38.4489 53.1648C38.9347 53.1648 39.3523 53.071 39.7017 52.8835C40.0511 52.6932 40.3182 52.4332 40.5028 52.1037C40.6903 51.7713 40.7841 51.392 40.7841 50.9659V45.2727ZM44.8207 50.0625V54H43.815V47.4545H44.7866V48.4773H44.8718C45.0252 48.1449 45.2582 47.8778 45.5707 47.6761C45.8832 47.4716 46.2866 47.3693 46.7809 47.3693C47.2241 47.3693 47.6119 47.4602 47.9442 47.642C48.2766 47.821 48.5352 48.0938 48.7198 48.4602C48.9045 48.8239 48.9968 49.2841 48.9968 49.8409V54H47.9911V49.9091C47.9911 49.3949 47.8576 48.9943 47.5906 48.7074C47.3235 48.4176 46.957 48.2727 46.4911 48.2727C46.1701 48.2727 45.8832 48.3423 45.6303 48.4815C45.3803 48.6207 45.1829 48.8239 45.038 49.0909C44.8931 49.358 44.8207 49.6818 44.8207 50.0625ZM50.8345 54V47.4545H51.8061V48.4432H51.8743C51.9936 48.1193 52.2095 47.8565 52.522 47.6548C52.8345 47.4531 53.1868 47.3523 53.5788 47.3523C53.6527 47.3523 53.745 47.3537 53.8558 47.3565C53.9666 47.3594 54.0504 47.3636 54.1072 47.3693V48.392C54.0732 48.3835 53.995 48.3707 53.8729 48.3537C53.7536 48.3338 53.6271 48.3239 53.4936 48.3239C53.1754 48.3239 52.8913 48.3906 52.6413 48.5241C52.3942 48.6548 52.1982 48.8366 52.0533 49.0696C51.9112 49.2997 51.8402 49.5625 51.8402 49.858V54H50.8345ZM57.8445 54.1364C57.2138 54.1364 56.6697 53.9972 56.2124 53.7188C55.7578 53.4375 55.407 53.0455 55.1598 52.5426C54.9155 52.0369 54.7933 51.4489 54.7933 50.7784C54.7933 50.108 54.9155 49.517 55.1598 49.0057C55.407 48.4915 55.7507 48.0909 56.1911 47.804C56.6342 47.5142 57.1513 47.3693 57.7422 47.3693C58.0831 47.3693 58.4197 47.4261 58.7521 47.5398C59.0845 47.6534 59.3871 47.8381 59.6598 48.0938C59.9325 48.3466 60.1499 48.6818 60.3118 49.0994C60.4737 49.517 60.5547 50.0312 60.5547 50.642V51.0682H55.5092V50.1989H59.532C59.532 49.8295 59.4581 49.5 59.3104 49.2102C59.1655 48.9205 58.9581 48.6918 58.6882 48.5241C58.4212 48.3565 58.1058 48.2727 57.7422 48.2727C57.3416 48.2727 56.995 48.3722 56.7024 48.571C56.4126 48.767 56.1896 49.0227 56.0334 49.3381C55.8771 49.6534 55.799 49.9915 55.799 50.3523V50.9318C55.799 51.4261 55.8842 51.8452 56.0547 52.1889C56.228 52.5298 56.468 52.7898 56.7749 52.9688C57.0817 53.1449 57.4382 53.233 57.8445 53.233C58.1087 53.233 58.3473 53.196 58.5604 53.1222C58.7763 53.0455 58.9624 52.9318 59.1186 52.7812C59.2749 52.6278 59.3956 52.4375 59.4808 52.2102L60.4524 52.483C60.3501 52.8125 60.1783 53.1023 59.9368 53.3523C59.6953 53.5994 59.397 53.7926 59.0419 53.9318C58.6868 54.0682 58.2876 54.1364 57.8445 54.1364ZM64.0107 54.1534C63.5959 54.1534 63.2195 54.0753 62.8814 53.919C62.5433 53.7599 62.2749 53.5312 62.076 53.233C61.8771 52.9318 61.7777 52.5682 61.7777 52.142C61.7777 51.767 61.8516 51.4631 61.9993 51.2301C62.147 50.9943 62.3445 50.8097 62.5916 50.6761C62.8388 50.5426 63.1115 50.4432 63.4098 50.3778C63.7109 50.3097 64.0135 50.2557 64.3175 50.2159C64.7152 50.1648 65.0376 50.1264 65.2848 50.1009C65.5348 50.0724 65.7166 50.0256 65.8303 49.9602C65.9467 49.8949 66.005 49.7812 66.005 49.6193V49.5852C66.005 49.1648 65.8899 48.8381 65.6598 48.6051C65.4325 48.3722 65.0874 48.2557 64.6243 48.2557C64.1442 48.2557 63.7678 48.3608 63.495 48.571C63.2223 48.7812 63.0305 49.0057 62.9197 49.2443L61.9652 48.9034C62.1357 48.5057 62.3629 48.196 62.647 47.9744C62.9339 47.75 63.2464 47.5937 63.5845 47.5057C63.9254 47.4148 64.2607 47.3693 64.5902 47.3693C64.8004 47.3693 65.0419 47.3949 65.3146 47.446C65.5902 47.4943 65.8558 47.5952 66.1115 47.7486C66.37 47.902 66.5845 48.1335 66.755 48.4432C66.9254 48.7528 67.0107 49.1676 67.0107 49.6875V54H66.005V53.1136H65.9538C65.8857 53.2557 65.772 53.4077 65.6129 53.5696C65.4538 53.7315 65.2422 53.8693 64.978 53.983C64.7138 54.0966 64.3913 54.1534 64.0107 54.1534ZM64.1641 53.25C64.5618 53.25 64.897 53.1719 65.1697 53.0156C65.4453 52.8594 65.6527 52.6577 65.7919 52.4105C65.9339 52.1634 66.005 51.9034 66.005 51.6307V50.7102C65.9624 50.7614 65.8686 50.8082 65.7237 50.8509C65.5817 50.8906 65.4169 50.9261 65.2294 50.9574C65.0447 50.9858 64.8643 51.0114 64.6882 51.0341C64.5149 51.054 64.3743 51.071 64.2663 51.0852C64.005 51.1193 63.7607 51.1747 63.5334 51.2514C63.3089 51.3253 63.1271 51.4375 62.9879 51.5881C62.8516 51.7358 62.7834 51.9375 62.7834 52.1932C62.7834 52.5426 62.9126 52.8068 63.1712 52.9858C63.4325 53.1619 63.7635 53.25 64.1641 53.25ZM71.3178 54.1364C70.7724 54.1364 70.2908 53.9986 69.8732 53.723C69.4556 53.4446 69.1289 53.0526 68.8931 52.5469C68.6573 52.0384 68.5394 51.4375 68.5394 50.7443C68.5394 50.0568 68.6573 49.4602 68.8931 48.9545C69.1289 48.4489 69.457 48.0582 69.8775 47.7827C70.2979 47.5071 70.7837 47.3693 71.3349 47.3693C71.761 47.3693 72.0977 47.4403 72.3448 47.5824C72.5948 47.7216 72.7852 47.8807 72.9158 48.0597C73.0494 48.2358 73.1531 48.3807 73.2269 48.4943H73.3121V45.2727H74.3178V54H73.3462V52.9943H73.2269C73.1531 53.1136 73.0479 53.2642 72.9116 53.446C72.7752 53.625 72.5806 53.7855 72.3278 53.9276C72.0749 54.0668 71.7383 54.1364 71.3178 54.1364ZM71.4542 53.233C71.8576 53.233 72.1985 53.1278 72.4769 52.9176C72.7553 52.7045 72.967 52.4105 73.1119 52.0355C73.2567 51.6577 73.3292 51.2216 73.3292 50.7273C73.3292 50.2386 73.2582 49.8111 73.1161 49.4446C72.9741 49.0753 72.7638 48.7884 72.4854 48.5838C72.207 48.3764 71.8633 48.2727 71.4542 48.2727C71.0281 48.2727 70.6729 48.3821 70.3888 48.6009C70.1076 48.8168 69.896 49.1108 69.7539 49.483C69.6147 49.8523 69.5451 50.267 69.5451 50.7273C69.5451 51.1932 69.6161 51.6165 69.7582 51.9972C69.9031 52.375 70.1161 52.6761 70.3974 52.9006C70.6815 53.1222 71.0337 53.233 71.4542 53.233Z" fill="black"/>
<path d="M77.5 12.75L78.2071 13.4571L78.9142 12.75L78.2071 12.0429L77.5 12.75ZM75.2071 16.4571L78.2071 13.4571L76.7929 12.0429L73.7929 15.0429L75.2071 16.4571ZM78.2071 12.0429L75.2071 9.04289L73.7929 10.4571L76.7929 13.4571L78.2071 12.0429Z" fill="#33363F"/>
<path d="M80.5466 15.375C81.1245 16.3759 81.3559 17.5394 81.2051 18.6853C81.0542 19.8311 80.5295 20.8951 79.7123 21.7123C78.8951 22.5295 77.8311 23.0542 76.6853 23.2051C75.5394 23.3559 74.3759 23.1245 73.375 22.5466C72.3741 21.9688 71.5919 21.0768 71.1496 20.0091C70.7074 18.9414 70.6298 17.7575 70.9289 16.6412C71.228 15.5249 71.8871 14.5384 72.804 13.8349C73.7209 13.1313 74.8443 12.75 76 12.75" stroke="#33363F" stroke-width="2" stroke-linecap="round"/>
<rect x="9.7" y="10.7" width="14.6" height="14.6" rx="1.3" fill="#ECEBEB" stroke="black" stroke-width="1.4"/>
<rect x="9.7" y="10.7" width="14.6" height="14.6" rx="1.3" fill="#ECEBEB" stroke="black" stroke-width="1.4"/>
<path d="M34.8079 20.7695L31.0935 16.3121C30.6592 15.7911 31.0298 15 31.708 15L38.292 15C38.9702 15 39.3408 15.7911 38.9065 16.3121L35.1921 20.7695C35.0921 20.8895 34.9079 20.8895 34.8079 20.7695Z" fill="#222222"/>
<path d="M116 10.7083C117.243 10.7083 118.25 11.6597 118.25 12.8333C118.25 14.0069 117.243 14.9583 116 14.9583C114.757 14.9583 113.75 14.0069 113.75 12.8333C113.75 11.6597 114.757 10.7083 116 10.7083Z" fill="#222222"/>
<path d="M116 22.0417C117.243 22.0417 118.25 22.9931 118.25 24.1667C118.25 25.3403 117.243 26.2917 116 26.2917C114.757 26.2917 113.75 25.3403 113.75 24.1667C113.75 22.9931 114.757 22.0417 116 22.0417Z" fill="#222222"/>
<path d="M116 16.375C117.243 16.375 118.25 17.3264 118.25 18.5C118.25 19.6736 117.243 20.625 116 20.625C114.757 20.625 113.75 19.6736 113.75 18.5C113.75 17.3264 114.757 16.375 116 16.375Z" fill="#222222"/>
<path d="M116 16.3752C117.243 16.3752 118.25 17.3265 118.25 18.5002C118.25 19.6738 117.243 20.6252 116 20.6252C114.757 20.6252 113.75 19.6738 113.75 18.5002C113.75 17.3265 114.757 16.3752 116 16.3752Z" fill="#222222"/>
<path d="M116 16.3752C117.243 16.3752 118.25 17.3265 118.25 18.5002C118.25 19.6738 117.243 20.6252 116 20.6252C114.757 20.6252 113.75 19.6738 113.75 18.5002C113.75 17.3265 114.757 16.3752 116 16.3752Z" fill="#222222"/>
<path d="M589 40.7083C590.243 40.7083 591.25 41.6597 591.25 42.8333C591.25 44.0069 590.243 44.9583 589 44.9583C587.757 44.9583 586.75 44.0069 586.75 42.8333C586.75 41.6597 587.757 40.7083 589 40.7083Z" fill="#222222"/>
<path d="M589 52.0417C590.243 52.0417 591.25 52.9931 591.25 54.1667C591.25 55.3403 590.243 56.2917 589 56.2917C587.757 56.2917 586.75 55.3403 586.75 54.1667C586.75 52.9931 587.757 52.0417 589 52.0417Z" fill="#222222"/>
<path d="M589 46.375C590.243 46.375 591.25 47.3264 591.25 48.5C591.25 49.6736 590.243 50.625 589 50.625C587.757 50.625 586.75 49.6736 586.75 48.5C586.75 47.3264 587.757 46.375 589 46.375Z" fill="#222222"/>
</svg>
