<svg width="608" height="39" viewBox="0 0 608 39" fill="none" xmlns="http://www.w3.org/2000/svg">
<rect width="608" height="39" fill="#ECEBEB"/>
<rect x="9.7" y="15.7" width="12.6" height="12.6" rx="1.3" fill="#ECEBEB" stroke="black" stroke-width="1.4"/>
<path d="M44.5235 17.9155C45.1069 16.4611 45.3986 15.7339 45.9002 15.7339C46.4018 15.7339 46.6935 16.4611 47.2769 17.9155L47.3041 17.9832C47.6337 18.8049 47.7985 19.2157 48.1344 19.4654C48.4702 19.7151 48.9111 19.7546 49.7929 19.8336L49.9523 19.8479C51.3954 19.9771 52.117 20.0417 52.2714 20.5008C52.4258 20.9599 51.8899 21.4474 50.8182 22.4225L50.4605 22.7479C49.918 23.2415 49.6467 23.4883 49.5203 23.8118C49.4967 23.8721 49.4771 23.9339 49.4616 23.9968C49.3785 24.334 49.4579 24.6921 49.6168 25.4081L49.6662 25.631C49.9582 26.947 50.1042 27.605 49.8493 27.8888C49.7541 27.9948 49.6303 28.0712 49.4927 28.1087C49.1247 28.2091 48.6022 27.7834 47.5573 26.9319C46.8711 26.3727 46.528 26.0932 46.1341 26.0303C45.9792 26.0055 45.8213 26.0055 45.6664 26.0303C45.2725 26.0932 44.9294 26.3727 44.2432 26.9319C43.1982 27.7834 42.6757 28.2091 42.3077 28.1087C42.1702 28.0712 42.0464 27.9948 41.9512 27.8888C41.6963 27.605 41.8423 26.947 42.1342 25.631L42.1837 25.4081C42.3426 24.6921 42.422 24.334 42.3389 23.9968C42.3234 23.9339 42.3038 23.8721 42.2802 23.8118C42.1538 23.4883 41.8825 23.2415 41.34 22.7479L40.9823 22.4225C39.9105 21.4474 39.3747 20.9599 39.5291 20.5008C39.6835 20.0417 40.405 19.9771 41.8482 19.8479L42.0076 19.8336C42.8894 19.7546 43.3302 19.7151 43.6661 19.4654C44.002 19.2157 44.1668 18.8049 44.4964 17.9832L44.5235 17.9155Z" stroke="#33363F" stroke-width="2"/>
<path d="M67.7585 27V18.2727H73.5369V19.794H69.6037V21.8736H73.1534V23.3949H69.6037V27H67.7585ZM78.5312 24.2131V20.4545H80.3466V27H78.6037V25.8111H78.5355C78.3878 26.1946 78.142 26.5028 77.7983 26.7358C77.4574 26.9687 77.0412 27.0852 76.5497 27.0852C76.1122 27.0852 75.7273 26.9858 75.3949 26.7869C75.0625 26.5881 74.8026 26.3054 74.6151 25.9389C74.4304 25.5724 74.3366 25.1335 74.3338 24.6222V20.4545H76.1491V24.2983C76.152 24.6847 76.2557 24.9901 76.4602 25.2145C76.6648 25.4389 76.9389 25.5511 77.2827 25.5511C77.5014 25.5511 77.706 25.5014 77.8963 25.402C78.0866 25.2997 78.2401 25.1491 78.3565 24.9503C78.4759 24.7514 78.5341 24.5057 78.5312 24.2131ZM85.2802 20.4545V21.8182H81.3384V20.4545H85.2802ZM82.2333 18.8864H84.0487V24.9886C84.0487 25.1562 84.0742 25.2869 84.1254 25.3807C84.1765 25.4716 84.2475 25.5355 84.3384 25.5724C84.4322 25.6094 84.5401 25.6278 84.6623 25.6278C84.7475 25.6278 84.8327 25.6207 84.918 25.6065C85.0032 25.5895 85.0685 25.5767 85.114 25.5682L85.3995 26.919C85.3086 26.9474 85.1808 26.9801 85.016 27.017C84.8512 27.0568 84.6509 27.081 84.4151 27.0895C83.9776 27.1065 83.5941 27.0483 83.2646 26.9148C82.9379 26.7812 82.6836 26.5739 82.5018 26.2926C82.32 26.0114 82.2305 25.6562 82.2333 25.2273V18.8864ZM90.6602 24.2131V20.4545H92.4755V27H90.7326V25.8111H90.6644C90.5167 26.1946 90.271 26.5028 89.9272 26.7358C89.5863 26.9687 89.1701 27.0852 88.6786 27.0852C88.2411 27.0852 87.8562 26.9858 87.5238 26.7869C87.1914 26.5881 86.9315 26.3054 86.744 25.9389C86.5593 25.5724 86.4656 25.1335 86.4627 24.6222V20.4545H88.2781V24.2983C88.2809 24.6847 88.3846 24.9901 88.5891 25.2145C88.7937 25.4389 89.0678 25.5511 89.4116 25.5511C89.6303 25.5511 89.8349 25.5014 90.0252 25.402C90.2156 25.2997 90.369 25.1491 90.4854 24.9503C90.6048 24.7514 90.663 24.5057 90.6602 24.2131ZM93.9276 27V20.4545H95.6875V21.5966H95.7557C95.875 21.1903 96.0753 20.8835 96.3565 20.6761C96.6378 20.4659 96.9616 20.3608 97.3281 20.3608C97.419 20.3608 97.517 20.3665 97.6222 20.3778C97.7273 20.3892 97.8196 20.4048 97.8991 20.4247V22.0355C97.8139 22.0099 97.696 21.9872 97.5455 21.9673C97.3949 21.9474 97.2571 21.9375 97.1321 21.9375C96.8651 21.9375 96.6264 21.9957 96.4162 22.1122C96.2088 22.2259 96.044 22.3849 95.9219 22.5895C95.8026 22.794 95.7429 23.0298 95.7429 23.2969V27H93.9276ZM101.516 27.1278C100.843 27.1278 100.263 26.9915 99.7773 26.7188C99.2944 26.4432 98.9222 26.054 98.6609 25.5511C98.3995 25.0455 98.2688 24.4474 98.2688 23.7571C98.2688 23.0838 98.3995 22.4929 98.6609 21.9844C98.9222 21.4759 99.2901 21.0795 99.7646 20.7955C100.242 20.5114 100.801 20.3693 101.444 20.3693C101.875 20.3693 102.277 20.4389 102.65 20.5781C103.025 20.7145 103.351 20.9205 103.63 21.196C103.911 21.4716 104.13 21.8182 104.286 22.2358C104.442 22.6506 104.52 23.1364 104.52 23.6932V24.1918H98.9933V23.0668H102.811C102.811 22.8054 102.755 22.5739 102.641 22.3722C102.527 22.1705 102.37 22.0128 102.168 21.8991C101.969 21.7827 101.738 21.7244 101.473 21.7244C101.198 21.7244 100.953 21.7884 100.74 21.9162C100.53 22.0412 100.365 22.2102 100.246 22.4233C100.127 22.6335 100.066 22.8679 100.063 23.1264V24.196C100.063 24.5199 100.123 24.7997 100.242 25.0355C100.364 25.2713 100.536 25.4531 100.757 25.581C100.979 25.7088 101.242 25.7727 101.546 25.7727C101.748 25.7727 101.932 25.7443 102.1 25.6875C102.267 25.6307 102.411 25.5455 102.53 25.4318C102.65 25.3182 102.74 25.179 102.803 25.0142L104.482 25.125C104.397 25.5284 104.222 25.8807 103.958 26.1818C103.696 26.4801 103.358 26.7131 102.944 26.8807C102.532 27.0455 102.056 27.1278 101.516 27.1278ZM105.739 27V18.2727H111.517V19.794H107.584V21.8736H111.134V23.3949H107.584V27H105.739ZM115.201 27.1278C114.539 27.1278 113.967 26.9872 113.484 26.706C113.004 26.4219 112.633 26.027 112.372 25.5213C112.11 25.0128 111.98 24.4233 111.98 23.7528C111.98 23.0767 112.11 22.4858 112.372 21.9801C112.633 21.4716 113.004 21.0767 113.484 20.7955C113.967 20.5114 114.539 20.3693 115.201 20.3693C115.863 20.3693 116.434 20.5114 116.914 20.7955C117.397 21.0767 117.77 21.4716 118.031 21.9801C118.292 22.4858 118.423 23.0767 118.423 23.7528C118.423 24.4233 118.292 25.0128 118.031 25.5213C117.77 26.027 117.397 26.4219 116.914 26.706C116.434 26.9872 115.863 27.1278 115.201 27.1278ZM115.21 25.7216C115.511 25.7216 115.762 25.6364 115.964 25.4659C116.166 25.2926 116.318 25.0568 116.42 24.7585C116.525 24.4602 116.578 24.1207 116.578 23.7401C116.578 23.3594 116.525 23.0199 116.42 22.7216C116.318 22.4233 116.166 22.1875 115.964 22.0142C115.762 21.8409 115.511 21.7543 115.21 21.7543C114.906 21.7543 114.65 21.8409 114.443 22.0142C114.238 22.1875 114.083 22.4233 113.978 22.7216C113.876 23.0199 113.825 23.3594 113.825 23.7401C113.825 24.1207 113.876 24.4602 113.978 24.7585C114.083 25.0568 114.238 25.2926 114.443 25.4659C114.65 25.6364 114.906 25.7216 115.21 25.7216ZM119.603 27V20.4545H121.363V21.5966H121.431C121.551 21.1903 121.751 20.8835 122.032 20.6761C122.314 20.4659 122.637 20.3608 123.004 20.3608C123.095 20.3608 123.193 20.3665 123.298 20.3778C123.403 20.3892 123.495 20.4048 123.575 20.4247V22.0355C123.49 22.0099 123.372 21.9872 123.221 21.9673C123.071 21.9474 122.933 21.9375 122.808 21.9375C122.541 21.9375 122.302 21.9957 122.092 22.1122C121.885 22.2259 121.72 22.3849 121.598 22.5895C121.478 22.794 121.419 23.0298 121.419 23.2969V27H119.603ZM127.166 27.1278C126.496 27.1278 125.919 26.9858 125.436 26.7017C124.956 26.4148 124.587 26.017 124.328 25.5085C124.072 25 123.945 24.4148 123.945 23.7528C123.945 23.0824 124.074 22.4943 124.332 21.9886C124.594 21.4801 124.964 21.0838 125.445 20.7997C125.925 20.5128 126.496 20.3693 127.158 20.3693C127.729 20.3693 128.229 20.473 128.658 20.6804C129.087 20.8878 129.426 21.179 129.676 21.554C129.926 21.929 130.064 22.3693 130.089 22.875H128.376C128.328 22.5483 128.2 22.2855 127.993 22.0866C127.788 21.8849 127.52 21.7841 127.188 21.7841C126.906 21.7841 126.661 21.8608 126.45 22.0142C126.243 22.1648 126.081 22.3849 125.964 22.6747C125.848 22.9645 125.79 23.3153 125.79 23.7273C125.79 24.1449 125.847 24.5 125.96 24.7926C126.077 25.0852 126.24 25.3082 126.45 25.4616C126.661 25.6151 126.906 25.6918 127.188 25.6918C127.395 25.6918 127.581 25.6491 127.746 25.5639C127.913 25.4787 128.051 25.3551 128.159 25.1932C128.27 25.0284 128.342 24.831 128.376 24.6009H130.089C130.061 25.1009 129.925 25.5412 129.68 25.9219C129.439 26.2997 129.105 26.5952 128.679 26.8082C128.253 27.0213 127.749 27.1278 127.166 27.1278ZM134.235 27.1278C133.561 27.1278 132.982 26.9915 132.496 26.7188C132.013 26.4432 131.641 26.054 131.38 25.5511C131.118 25.0455 130.988 24.4474 130.988 23.7571C130.988 23.0838 131.118 22.4929 131.38 21.9844C131.641 21.4759 132.009 21.0795 132.483 20.7955C132.961 20.5114 133.52 20.3693 134.162 20.3693C134.594 20.3693 134.996 20.4389 135.368 20.5781C135.743 20.7145 136.07 20.9205 136.348 21.196C136.63 21.4716 136.848 21.8182 137.005 22.2358C137.161 22.6506 137.239 23.1364 137.239 23.6932V24.1918H131.712V23.0668H135.53C135.53 22.8054 135.473 22.5739 135.36 22.3722C135.246 22.1705 135.088 22.0128 134.887 21.8991C134.688 21.7827 134.456 21.7244 134.192 21.7244C133.917 21.7244 133.672 21.7884 133.459 21.9162C133.249 22.0412 133.084 22.2102 132.965 22.4233C132.846 22.6335 132.784 22.8679 132.782 23.1264V24.196C132.782 24.5199 132.841 24.7997 132.961 25.0355C133.083 25.2713 133.255 25.4531 133.476 25.581C133.698 25.7088 133.961 25.7727 134.265 25.7727C134.466 25.7727 134.651 25.7443 134.819 25.6875C134.986 25.6307 135.13 25.5455 135.249 25.4318C135.368 25.3182 135.459 25.179 135.522 25.0142L137.201 25.125C137.115 25.5284 136.941 25.8807 136.676 26.1818C136.415 26.4801 136.077 26.7131 135.662 26.8807C135.25 27.0455 134.775 27.1278 134.235 27.1278Z" fill="black"/>
<path d="M156.759 27V18.2727H160.202C160.861 18.2727 161.423 18.3906 161.889 18.6264C162.358 18.8594 162.714 19.1903 162.959 19.6193C163.206 20.0455 163.33 20.5469 163.33 21.1236C163.33 21.7031 163.205 22.2017 162.955 22.6193C162.705 23.0341 162.342 23.3523 161.868 23.5739C161.396 23.7955 160.825 23.9062 160.155 23.9062H157.849V22.4233H159.857C160.209 22.4233 160.501 22.375 160.734 22.2784C160.967 22.1818 161.141 22.0369 161.254 21.8438C161.371 21.6506 161.429 21.4105 161.429 21.1236C161.429 20.8338 161.371 20.5895 161.254 20.3906C161.141 20.1918 160.966 20.0412 160.73 19.9389C160.497 19.8338 160.203 19.7812 159.848 19.7812H158.604V27H156.759ZM161.472 23.0284L163.641 27H161.604L159.482 23.0284H161.472ZM167.477 27.1278C166.804 27.1278 166.224 26.9915 165.738 26.7188C165.255 26.4432 164.883 26.054 164.622 25.5511C164.36 25.0455 164.23 24.4474 164.23 23.7571C164.23 23.0838 164.36 22.4929 164.622 21.9844C164.883 21.4759 165.251 21.0795 165.725 20.7955C166.203 20.5114 166.762 20.3693 167.404 20.3693C167.836 20.3693 168.238 20.4389 168.61 20.5781C168.985 20.7145 169.312 20.9205 169.591 21.196C169.872 21.4716 170.091 21.8182 170.247 22.2358C170.403 22.6506 170.481 23.1364 170.481 23.6932V24.1918H164.954V23.0668H168.772C168.772 22.8054 168.716 22.5739 168.602 22.3722C168.488 22.1705 168.331 22.0128 168.129 21.8991C167.93 21.7827 167.699 21.7244 167.434 21.7244C167.159 21.7244 166.914 21.7884 166.701 21.9162C166.491 22.0412 166.326 22.2102 166.207 22.4233C166.088 22.6335 166.027 22.8679 166.024 23.1264V24.196C166.024 24.5199 166.083 24.7997 166.203 25.0355C166.325 25.2713 166.497 25.4531 166.718 25.581C166.94 25.7088 167.203 25.7727 167.507 25.7727C167.708 25.7727 167.893 25.7443 168.061 25.6875C168.228 25.6307 168.372 25.5455 168.491 25.4318C168.61 25.3182 168.701 25.179 168.764 25.0142L170.443 25.125C170.358 25.5284 170.183 25.8807 169.919 26.1818C169.657 26.4801 169.319 26.7131 168.904 26.8807C168.493 27.0455 168.017 27.1278 167.477 27.1278ZM175.991 29.4545V25.9517H175.936C175.85 26.1335 175.73 26.3139 175.574 26.4929C175.42 26.669 175.22 26.8153 174.973 26.9318C174.728 27.0483 174.43 27.1065 174.078 27.1065C173.581 27.1065 173.13 26.9787 172.727 26.723C172.326 26.4645 172.008 26.0852 171.772 25.5852C171.539 25.0824 171.423 24.4659 171.423 23.7358C171.423 22.9858 171.544 22.3622 171.785 21.8651C172.027 21.3651 172.348 20.9915 172.748 20.7443C173.152 20.4943 173.593 20.3693 174.074 20.3693C174.44 20.3693 174.745 20.4318 174.99 20.5568C175.237 20.679 175.436 20.8324 175.586 21.017C175.74 21.1989 175.856 21.3778 175.936 21.554H176.012V20.4545H177.802V29.4545H175.991ZM174.653 25.6619C174.946 25.6619 175.193 25.5824 175.395 25.4233C175.599 25.2614 175.755 25.0355 175.863 24.7457C175.974 24.456 176.029 24.1165 176.029 23.7273C176.029 23.3381 175.975 23 175.868 22.7131C175.76 22.4261 175.603 22.2045 175.399 22.0483C175.194 21.892 174.946 21.8139 174.653 21.8139C174.355 21.8139 174.103 21.8949 173.899 22.0568C173.694 22.2187 173.539 22.4432 173.434 22.7301C173.329 23.017 173.277 23.3494 173.277 23.7273C173.277 24.108 173.329 24.4446 173.434 24.7372C173.542 25.027 173.697 25.2543 173.899 25.419C174.103 25.581 174.355 25.6619 174.653 25.6619ZM183.457 24.2131V20.4545H185.272V27H183.529V25.8111H183.461C183.314 26.1946 183.068 26.5028 182.724 26.7358C182.383 26.9687 181.967 27.0852 181.475 27.0852C181.038 27.0852 180.653 26.9858 180.321 26.7869C179.988 26.5881 179.728 26.3054 179.541 25.9389C179.356 25.5724 179.262 25.1335 179.26 24.6222V20.4545H181.075V24.2983C181.078 24.6847 181.181 24.9901 181.386 25.2145C181.591 25.4389 181.865 25.5511 182.208 25.5511C182.427 25.5511 182.632 25.5014 182.822 25.402C183.012 25.2997 183.166 25.1491 183.282 24.9503C183.402 24.7514 183.46 24.5057 183.457 24.2131ZM189.707 27.1278C189.034 27.1278 188.455 26.9915 187.969 26.7188C187.486 26.4432 187.114 26.054 186.852 25.5511C186.591 25.0455 186.46 24.4474 186.46 23.7571C186.46 23.0838 186.591 22.4929 186.852 21.9844C187.114 21.4759 187.482 21.0795 187.956 20.7955C188.433 20.5114 188.993 20.3693 189.635 20.3693C190.067 20.3693 190.469 20.4389 190.841 20.5781C191.216 20.7145 191.543 20.9205 191.821 21.196C192.102 21.4716 192.321 21.8182 192.477 22.2358C192.634 22.6506 192.712 23.1364 192.712 23.6932V24.1918H187.185V23.0668H191.003C191.003 22.8054 190.946 22.5739 190.832 22.3722C190.719 22.1705 190.561 22.0128 190.359 21.8991C190.161 21.7827 189.929 21.7244 189.665 21.7244C189.389 21.7244 189.145 21.7884 188.932 21.9162C188.722 22.0412 188.557 22.2102 188.438 22.4233C188.318 22.6335 188.257 22.8679 188.254 23.1264V24.196C188.254 24.5199 188.314 24.7997 188.433 25.0355C188.555 25.2713 188.727 25.4531 188.949 25.581C189.17 25.7088 189.433 25.7727 189.737 25.7727C189.939 25.7727 190.124 25.7443 190.291 25.6875C190.459 25.6307 190.602 25.5455 190.722 25.4318C190.841 25.3182 190.932 25.179 190.994 25.0142L192.673 25.125C192.588 25.5284 192.413 25.8807 192.149 26.1818C191.888 26.4801 191.55 26.7131 191.135 26.8807C190.723 27.0455 190.247 27.1278 189.707 27.1278ZM199.342 22.321L197.68 22.4233C197.652 22.2812 197.591 22.1534 197.497 22.0398C197.403 21.9233 197.28 21.831 197.126 21.7628C196.976 21.6918 196.795 21.6562 196.585 21.6562C196.304 21.6562 196.067 21.7159 195.874 21.8352C195.68 21.9517 195.584 22.108 195.584 22.304C195.584 22.4602 195.646 22.5923 195.771 22.7003C195.896 22.8082 196.111 22.8949 196.415 22.9602L197.599 23.1989C198.236 23.3295 198.71 23.5398 199.023 23.8295C199.335 24.1193 199.491 24.5 199.491 24.9716C199.491 25.4006 199.365 25.777 199.112 26.1009C198.862 26.4247 198.518 26.6776 198.081 26.8594C197.646 27.0384 197.145 27.1278 196.577 27.1278C195.71 27.1278 195.02 26.9474 194.506 26.5866C193.994 26.223 193.695 25.7287 193.607 25.1037L195.392 25.0099C195.446 25.2741 195.577 25.4759 195.784 25.6151C195.991 25.7514 196.257 25.8196 196.581 25.8196C196.899 25.8196 197.155 25.7585 197.348 25.6364C197.544 25.5114 197.643 25.3509 197.646 25.1548C197.643 24.9901 197.574 24.8551 197.438 24.75C197.301 24.642 197.091 24.5597 196.807 24.5028L195.673 24.277C195.034 24.1491 194.558 23.9276 194.246 23.6122C193.936 23.2969 193.781 22.8949 193.781 22.4062C193.781 21.9858 193.895 21.6236 194.122 21.3196C194.352 21.0156 194.675 20.7812 195.089 20.6165C195.507 20.4517 195.996 20.3693 196.555 20.3693C197.382 20.3693 198.033 20.544 198.507 20.8935C198.984 21.2429 199.263 21.7187 199.342 22.321ZM204.116 20.4545V21.8182H200.174V20.4545H204.116ZM201.069 18.8864H202.885V24.9886C202.885 25.1562 202.91 25.2869 202.961 25.3807C203.012 25.4716 203.083 25.5355 203.174 25.5724C203.268 25.6094 203.376 25.6278 203.498 25.6278C203.583 25.6278 203.669 25.6207 203.754 25.6065C203.839 25.5895 203.904 25.5767 203.95 25.5682L204.235 26.919C204.145 26.9474 204.017 26.9801 203.852 27.017C203.687 27.0568 203.487 27.081 203.251 27.0895C202.814 27.1065 202.43 27.0483 202.1 26.9148C201.774 26.7812 201.52 26.5739 201.338 26.2926C201.156 26.0114 201.066 25.6562 201.069 25.2273V18.8864ZM205.299 27V20.4545H207.114V27H205.299ZM206.211 19.6108C205.941 19.6108 205.709 19.5213 205.516 19.3423C205.326 19.1605 205.23 18.9432 205.23 18.6903C205.23 18.4403 205.326 18.2259 205.516 18.0469C205.709 17.8651 205.941 17.7741 206.211 17.7741C206.48 17.7741 206.711 17.8651 206.901 18.0469C207.094 18.2259 207.191 18.4403 207.191 18.6903C207.191 18.9432 207.094 19.1605 206.901 19.3423C206.711 19.5213 206.48 19.6108 206.211 19.6108ZM210.384 23.2159V27H208.568V20.4545H210.298V21.6094H210.375C210.52 21.2287 210.763 20.9276 211.104 20.706C211.445 20.4815 211.858 20.3693 212.344 20.3693C212.798 20.3693 213.195 20.4688 213.533 20.6676C213.871 20.8665 214.134 21.1506 214.321 21.5199C214.509 21.8864 214.602 22.3239 214.602 22.8324V27H212.787V23.1562C212.79 22.7557 212.688 22.4432 212.48 22.2188C212.273 21.9915 211.987 21.8778 211.624 21.8778C211.379 21.8778 211.163 21.9304 210.976 22.0355C210.791 22.1406 210.646 22.294 210.541 22.4957C210.439 22.6946 210.386 22.9347 210.384 23.2159ZM218.982 29.5909C218.394 29.5909 217.89 29.5099 217.469 29.348C217.051 29.1889 216.719 28.9716 216.472 28.696C216.225 28.4205 216.064 28.1108 215.99 27.767L217.669 27.5412C217.721 27.6719 217.801 27.794 217.912 27.9077C218.023 28.0213 218.169 28.1122 218.351 28.1804C218.536 28.2514 218.76 28.2869 219.025 28.2869C219.419 28.2869 219.745 28.1903 220 27.9972C220.259 27.8068 220.388 27.4872 220.388 27.0384V25.8409H220.311C220.232 26.0227 220.113 26.1946 219.953 26.3565C219.794 26.5185 219.59 26.6506 219.34 26.7528C219.09 26.8551 218.792 26.9062 218.445 26.9062C217.953 26.9062 217.506 26.7926 217.103 26.5653C216.702 26.3352 216.382 25.9844 216.144 25.5128C215.908 25.0384 215.79 24.4389 215.79 23.7145C215.79 22.973 215.911 22.3537 216.152 21.8565C216.394 21.3594 216.715 20.9872 217.115 20.7401C217.519 20.4929 217.961 20.3693 218.441 20.3693C218.807 20.3693 219.114 20.4318 219.361 20.5568C219.608 20.679 219.807 20.8324 219.958 21.017C220.111 21.1989 220.229 21.3778 220.311 21.554H220.38V20.4545H222.182V27.0639C222.182 27.6207 222.046 28.0866 221.773 28.4616C221.5 28.8366 221.123 29.1179 220.64 29.3054C220.159 29.4957 219.607 29.5909 218.982 29.5909ZM219.02 25.5426C219.313 25.5426 219.56 25.4702 219.762 25.3253C219.966 25.1776 220.123 24.9673 220.23 24.6946C220.341 24.419 220.397 24.0895 220.397 23.706C220.397 23.3224 220.343 22.9901 220.235 22.7088C220.127 22.4247 219.971 22.2045 219.766 22.0483C219.561 21.892 219.313 21.8139 219.02 21.8139C218.722 21.8139 218.471 21.8949 218.266 22.0568C218.061 22.2159 217.907 22.4375 217.801 22.7216C217.696 23.0057 217.644 23.3338 217.644 23.706C217.644 24.0838 217.696 24.4105 217.801 24.6861C217.909 24.9588 218.064 25.1705 218.266 25.321C218.471 25.4687 218.722 25.5426 219.02 25.5426ZM228.271 27.1236C227.853 27.1236 227.481 27.0511 227.154 26.9062C226.827 26.7585 226.569 26.5412 226.379 26.2543C226.191 25.9645 226.097 25.6037 226.097 25.1719C226.097 24.8082 226.164 24.5028 226.298 24.2557C226.431 24.0085 226.613 23.8097 226.843 23.6591C227.073 23.5085 227.335 23.3949 227.627 23.3182C227.923 23.2415 228.232 23.1875 228.556 23.1562C228.937 23.1165 229.244 23.0795 229.477 23.0455C229.71 23.0085 229.879 22.9545 229.984 22.8835C230.089 22.8125 230.141 22.7074 230.141 22.5682V22.5426C230.141 22.2727 230.056 22.0639 229.886 21.9162C229.718 21.7685 229.479 21.6946 229.17 21.6946C228.843 21.6946 228.583 21.767 228.39 21.9119C228.197 22.054 228.069 22.233 228.006 22.4489L226.327 22.3125C226.413 21.9148 226.58 21.571 226.83 21.2812C227.08 20.9886 227.403 20.7642 227.798 20.608C228.195 20.4489 228.656 20.3693 229.178 20.3693C229.542 20.3693 229.89 20.4119 230.222 20.4972C230.558 20.5824 230.854 20.7145 231.113 20.8935C231.374 21.0724 231.58 21.3026 231.731 21.5838C231.881 21.8622 231.957 22.196 231.957 22.5852V27H230.235V26.0923H230.184C230.079 26.2969 229.938 26.4773 229.762 26.6335C229.586 26.7869 229.374 26.9077 229.127 26.9957C228.88 27.081 228.594 27.1236 228.271 27.1236ZM228.79 25.8707C229.058 25.8707 229.293 25.8182 229.498 25.7131C229.702 25.6051 229.863 25.4602 229.979 25.2784C230.096 25.0966 230.154 24.8906 230.154 24.6605V23.9659C230.097 24.0028 230.019 24.0369 229.92 24.0682C229.823 24.0966 229.714 24.1236 229.592 24.1491C229.469 24.1719 229.347 24.1932 229.225 24.2131C229.103 24.2301 228.992 24.2457 228.893 24.2599C228.68 24.2912 228.494 24.3409 228.335 24.4091C228.175 24.4773 228.052 24.5696 227.964 24.6861C227.876 24.7997 227.832 24.9418 227.832 25.1122C227.832 25.3594 227.921 25.5483 228.1 25.679C228.282 25.8068 228.512 25.8707 228.79 25.8707ZM238.811 22.321L237.149 22.4233C237.121 22.2812 237.06 22.1534 236.966 22.0398C236.872 21.9233 236.749 21.831 236.595 21.7628C236.445 21.6918 236.264 21.6562 236.054 21.6562C235.773 21.6562 235.536 21.7159 235.342 21.8352C235.149 21.9517 235.053 22.108 235.053 22.304C235.053 22.4602 235.115 22.5923 235.24 22.7003C235.365 22.8082 235.58 22.8949 235.884 22.9602L237.068 23.1989C237.705 23.3295 238.179 23.5398 238.491 23.8295C238.804 24.1193 238.96 24.5 238.96 24.9716C238.96 25.4006 238.834 25.777 238.581 26.1009C238.331 26.4247 237.987 26.6776 237.55 26.8594C237.115 27.0384 236.614 27.1278 236.045 27.1278C235.179 27.1278 234.489 26.9474 233.974 26.5866C233.463 26.223 233.163 25.7287 233.075 25.1037L234.861 25.0099C234.915 25.2741 235.045 25.4759 235.253 25.6151C235.46 25.7514 235.726 25.8196 236.05 25.8196C236.368 25.8196 236.624 25.7585 236.817 25.6364C237.013 25.5114 237.112 25.3509 237.115 25.1548C237.112 24.9901 237.043 24.8551 236.906 24.75C236.77 24.642 236.56 24.5597 236.276 24.5028L235.142 24.277C234.503 24.1491 234.027 23.9276 233.714 23.6122C233.405 23.2969 233.25 22.8949 233.25 22.4062C233.25 21.9858 233.364 21.6236 233.591 21.3196C233.821 21.0156 234.143 20.7812 234.558 20.6165C234.976 20.4517 235.464 20.3693 236.024 20.3693C236.851 20.3693 237.501 20.544 237.976 20.8935C238.453 21.2429 238.732 21.7187 238.811 22.321ZM245.549 22.321L243.887 22.4233C243.859 22.2812 243.798 22.1534 243.704 22.0398C243.61 21.9233 243.487 21.831 243.333 21.7628C243.183 21.6918 243.002 21.6562 242.792 21.6562C242.511 21.6562 242.274 21.7159 242.081 21.8352C241.887 21.9517 241.791 22.108 241.791 22.304C241.791 22.4602 241.853 22.5923 241.978 22.7003C242.103 22.8082 242.318 22.8949 242.622 22.9602L243.806 23.1989C244.443 23.3295 244.917 23.5398 245.23 23.8295C245.542 24.1193 245.699 24.5 245.699 24.9716C245.699 25.4006 245.572 25.777 245.319 26.1009C245.069 26.4247 244.725 26.6776 244.288 26.8594C243.853 27.0384 243.352 27.1278 242.784 27.1278C241.917 27.1278 241.227 26.9474 240.713 26.5866C240.201 26.223 239.902 25.7287 239.814 25.1037L241.599 25.0099C241.653 25.2741 241.784 25.4759 241.991 25.6151C242.199 25.7514 242.464 25.8196 242.788 25.8196C243.106 25.8196 243.362 25.7585 243.555 25.6364C243.751 25.5114 243.85 25.3509 243.853 25.1548C243.85 24.9901 243.781 24.8551 243.645 24.75C243.508 24.642 243.298 24.5597 243.014 24.5028L241.88 24.277C241.241 24.1491 240.765 23.9276 240.453 23.6122C240.143 23.2969 239.988 22.8949 239.988 22.4062C239.988 21.9858 240.102 21.6236 240.329 21.3196C240.559 21.0156 240.882 20.7812 241.297 20.6165C241.714 20.4517 242.203 20.3693 242.762 20.3693C243.589 20.3693 244.24 20.544 244.714 20.8935C245.191 21.2429 245.47 21.7187 245.549 22.321ZM246.842 27V20.4545H248.657V27H246.842ZM247.754 19.6108C247.484 19.6108 247.252 19.5213 247.059 19.3423C246.869 19.1605 246.773 18.9432 246.773 18.6903C246.773 18.4403 246.869 18.2259 247.059 18.0469C247.252 17.8651 247.484 17.7741 247.754 17.7741C248.023 17.7741 248.254 17.8651 248.444 18.0469C248.637 18.2259 248.734 18.4403 248.734 18.6903C248.734 18.9432 248.637 19.1605 248.444 19.3423C248.254 19.5213 248.023 19.6108 247.754 19.6108ZM255.557 22.321L253.895 22.4233C253.867 22.2812 253.806 22.1534 253.712 22.0398C253.618 21.9233 253.495 21.831 253.341 21.7628C253.191 21.6918 253.01 21.6562 252.8 21.6562C252.519 21.6562 252.282 21.7159 252.088 21.8352C251.895 21.9517 251.799 22.108 251.799 22.304C251.799 22.4602 251.861 22.5923 251.986 22.7003C252.111 22.8082 252.326 22.8949 252.63 22.9602L253.814 23.1989C254.451 23.3295 254.925 23.5398 255.238 23.8295C255.55 24.1193 255.706 24.5 255.706 24.9716C255.706 25.4006 255.58 25.777 255.327 26.1009C255.077 26.4247 254.733 26.6776 254.296 26.8594C253.861 27.0384 253.36 27.1278 252.792 27.1278C251.925 27.1278 251.235 26.9474 250.721 26.5866C250.209 26.223 249.909 25.7287 249.821 25.1037L251.607 25.0099C251.661 25.2741 251.792 25.4759 251.999 25.6151C252.206 25.7514 252.472 25.8196 252.796 25.8196C253.114 25.8196 253.37 25.7585 253.563 25.6364C253.759 25.5114 253.858 25.3509 253.861 25.1548C253.858 24.9901 253.789 24.8551 253.652 24.75C253.516 24.642 253.306 24.5597 253.022 24.5028L251.888 24.277C251.249 24.1491 250.773 23.9276 250.461 23.6122C250.151 23.2969 249.996 22.8949 249.996 22.4062C249.996 21.9858 250.11 21.6236 250.337 21.3196C250.567 21.0156 250.89 20.7812 251.304 20.6165C251.722 20.4517 252.211 20.3693 252.77 20.3693C253.597 20.3693 254.248 20.544 254.722 20.8935C255.199 21.2429 255.478 21.7187 255.557 22.321ZM260.331 20.4545V21.8182H256.389V20.4545H260.331ZM257.284 18.8864H259.099V24.9886C259.099 25.1562 259.125 25.2869 259.176 25.3807C259.227 25.4716 259.298 25.5355 259.389 25.5724C259.483 25.6094 259.591 25.6278 259.713 25.6278C259.798 25.6278 259.884 25.6207 259.969 25.6065C260.054 25.5895 260.119 25.5767 260.165 25.5682L260.45 26.919C260.359 26.9474 260.232 26.9801 260.067 27.017C259.902 27.0568 259.702 27.081 259.466 27.0895C259.028 27.1065 258.645 27.0483 258.315 26.9148C257.989 26.7812 257.734 26.5739 257.553 26.2926C257.371 26.0114 257.281 25.6562 257.284 25.2273V18.8864ZM263.38 27.1236C262.962 27.1236 262.59 27.0511 262.263 26.9062C261.937 26.7585 261.678 26.5412 261.488 26.2543C261.3 25.9645 261.207 25.6037 261.207 25.1719C261.207 24.8082 261.273 24.5028 261.407 24.2557C261.54 24.0085 261.722 23.8097 261.952 23.6591C262.183 23.5085 262.444 23.3949 262.737 23.3182C263.032 23.2415 263.342 23.1875 263.665 23.1562C264.046 23.1165 264.353 23.0795 264.586 23.0455C264.819 23.0085 264.988 22.9545 265.093 22.8835C265.198 22.8125 265.251 22.7074 265.251 22.5682V22.5426C265.251 22.2727 265.165 22.0639 264.995 21.9162C264.827 21.7685 264.589 21.6946 264.279 21.6946C263.952 21.6946 263.692 21.767 263.499 21.9119C263.306 22.054 263.178 22.233 263.116 22.4489L261.437 22.3125C261.522 21.9148 261.69 21.571 261.94 21.2812C262.19 20.9886 262.512 20.7642 262.907 20.608C263.305 20.4489 263.765 20.3693 264.288 20.3693C264.651 20.3693 264.999 20.4119 265.332 20.4972C265.667 20.5824 265.964 20.7145 266.222 20.8935C266.484 21.0724 266.69 21.3026 266.84 21.5838C266.991 21.8622 267.066 22.196 267.066 22.5852V27H265.344V26.0923H265.293C265.188 26.2969 265.048 26.4773 264.871 26.6335C264.695 26.7869 264.484 26.9077 264.237 26.9957C263.989 27.081 263.704 27.1236 263.38 27.1236ZM263.9 25.8707C264.167 25.8707 264.403 25.8182 264.607 25.7131C264.812 25.6051 264.972 25.4602 265.089 25.2784C265.205 25.0966 265.263 24.8906 265.263 24.6605V23.9659C265.207 24.0028 265.129 24.0369 265.029 24.0682C264.933 24.0966 264.823 24.1236 264.701 24.1491C264.579 24.1719 264.457 24.1932 264.335 24.2131C264.212 24.2301 264.102 24.2457 264.002 24.2599C263.789 24.2912 263.603 24.3409 263.444 24.4091C263.285 24.4773 263.161 24.5696 263.073 24.6861C262.985 24.7997 262.941 24.9418 262.941 25.1122C262.941 25.3594 263.031 25.5483 263.21 25.679C263.391 25.8068 263.621 25.8707 263.9 25.8707ZM270.29 23.2159V27H268.474V20.4545H270.205V21.6094H270.281C270.426 21.2287 270.669 20.9276 271.01 20.706C271.351 20.4815 271.764 20.3693 272.25 20.3693C272.705 20.3693 273.101 20.4688 273.439 20.6676C273.777 20.8665 274.04 21.1506 274.227 21.5199C274.415 21.8864 274.509 22.3239 274.509 22.8324V27H272.693V23.1562C272.696 22.7557 272.594 22.4432 272.386 22.2188C272.179 21.9915 271.893 21.8778 271.53 21.8778C271.286 21.8778 271.07 21.9304 270.882 22.0355C270.697 22.1406 270.553 22.294 270.447 22.4957C270.345 22.6946 270.293 22.9347 270.29 23.2159ZM278.897 27.1278C278.226 27.1278 277.65 26.9858 277.167 26.7017C276.686 26.4148 276.317 26.017 276.059 25.5085C275.803 25 275.675 24.4148 275.675 23.7528C275.675 23.0824 275.804 22.4943 276.063 21.9886C276.324 21.4801 276.695 21.0838 277.175 20.7997C277.655 20.5128 278.226 20.3693 278.888 20.3693C279.459 20.3693 279.959 20.473 280.388 20.6804C280.817 20.8878 281.157 21.179 281.407 21.554C281.657 21.929 281.794 22.3693 281.82 22.875H280.107C280.059 22.5483 279.931 22.2855 279.723 22.0866C279.519 21.8849 279.25 21.7841 278.918 21.7841C278.637 21.7841 278.391 21.8608 278.181 22.0142C277.973 22.1648 277.811 22.3849 277.695 22.6747C277.578 22.9645 277.52 23.3153 277.52 23.7273C277.52 24.1449 277.577 24.5 277.691 24.7926C277.807 25.0852 277.971 25.3082 278.181 25.4616C278.391 25.6151 278.637 25.6918 278.918 25.6918C279.125 25.6918 279.311 25.6491 279.476 25.5639C279.644 25.4787 279.782 25.3551 279.89 25.1932C280 25.0284 280.073 24.831 280.107 24.6009H281.82C281.792 25.1009 281.655 25.5412 281.411 25.9219C281.169 26.2997 280.836 26.5952 280.409 26.8082C279.983 27.0213 279.479 27.1278 278.897 27.1278ZM285.965 27.1278C285.292 27.1278 284.712 26.9915 284.227 26.7188C283.744 26.4432 283.371 26.054 283.11 25.5511C282.849 25.0455 282.718 24.4474 282.718 23.7571C282.718 23.0838 282.849 22.4929 283.11 21.9844C283.371 21.4759 283.739 21.0795 284.214 20.7955C284.691 20.5114 285.251 20.3693 285.893 20.3693C286.325 20.3693 286.727 20.4389 287.099 20.5781C287.474 20.7145 287.8 20.9205 288.079 21.196C288.36 21.4716 288.579 21.8182 288.735 22.2358C288.891 22.6506 288.969 23.1364 288.969 23.6932V24.1918H283.442V23.0668H287.261C287.261 22.8054 287.204 22.5739 287.09 22.3722C286.977 22.1705 286.819 22.0128 286.617 21.8991C286.418 21.7827 286.187 21.7244 285.923 21.7244C285.647 21.7244 285.403 21.7884 285.19 21.9162C284.979 22.0412 284.815 22.2102 284.695 22.4233C284.576 22.6335 284.515 22.8679 284.512 23.1264V24.196C284.512 24.5199 284.572 24.7997 284.691 25.0355C284.813 25.2713 284.985 25.4531 285.207 25.581C285.428 25.7088 285.691 25.7727 285.995 25.7727C286.197 25.7727 286.381 25.7443 286.549 25.6875C286.717 25.6307 286.86 25.5455 286.979 25.4318C287.099 25.3182 287.19 25.179 287.252 25.0142L288.931 25.125C288.846 25.5284 288.671 25.8807 288.407 26.1818C288.146 26.4801 287.808 26.7131 287.393 26.8807C286.981 27.0455 286.505 27.1278 285.965 27.1278ZM292.931 27V20.4545H294.747V27H292.931ZM293.843 19.6108C293.574 19.6108 293.342 19.5213 293.149 19.3423C292.958 19.1605 292.863 18.9432 292.863 18.6903C292.863 18.4403 292.958 18.2259 293.149 18.0469C293.342 17.8651 293.574 17.7741 293.843 17.7741C294.113 17.7741 294.343 17.8651 294.534 18.0469C294.727 18.2259 294.824 18.4403 294.824 18.6903C294.824 18.9432 294.727 19.1605 294.534 19.3423C294.343 19.5213 294.113 19.6108 293.843 19.6108ZM298.016 23.2159V27H296.201V20.4545H297.931V21.6094H298.008C298.153 21.2287 298.396 20.9276 298.737 20.706C299.077 20.4815 299.491 20.3693 299.977 20.3693C300.431 20.3693 300.827 20.4688 301.165 20.6676C301.504 20.8665 301.766 21.1506 301.954 21.5199C302.141 21.8864 302.235 22.3239 302.235 22.8324V27H300.42V23.1562C300.423 22.7557 300.32 22.4432 300.113 22.2188C299.906 21.9915 299.62 21.8778 299.256 21.8778C299.012 21.8778 298.796 21.9304 298.609 22.0355C298.424 22.1406 298.279 22.294 298.174 22.4957C298.072 22.6946 298.019 22.9347 298.016 23.2159ZM308.259 18.2727V27H306.443V18.2727H308.259ZM312.67 27.1278C312.008 27.1278 311.436 26.9872 310.953 26.706C310.473 26.4219 310.102 26.027 309.841 25.5213C309.579 25.0128 309.449 24.4233 309.449 23.7528C309.449 23.0767 309.579 22.4858 309.841 21.9801C310.102 21.4716 310.473 21.0767 310.953 20.7955C311.436 20.5114 312.008 20.3693 312.67 20.3693C313.332 20.3693 313.903 20.5114 314.383 20.7955C314.866 21.0767 315.238 21.4716 315.5 21.9801C315.761 22.4858 315.892 23.0767 315.892 23.7528C315.892 24.4233 315.761 25.0128 315.5 25.5213C315.238 26.027 314.866 26.4219 314.383 26.706C313.903 26.9872 313.332 27.1278 312.67 27.1278ZM312.679 25.7216C312.98 25.7216 313.231 25.6364 313.433 25.4659C313.635 25.2926 313.787 25.0568 313.889 24.7585C313.994 24.4602 314.047 24.1207 314.047 23.7401C314.047 23.3594 313.994 23.0199 313.889 22.7216C313.787 22.4233 313.635 22.1875 313.433 22.0142C313.231 21.8409 312.98 21.7543 312.679 21.7543C312.375 21.7543 312.119 21.8409 311.912 22.0142C311.707 22.1875 311.552 22.4233 311.447 22.7216C311.345 23.0199 311.294 23.3594 311.294 23.7401C311.294 24.1207 311.345 24.4602 311.447 24.7585C311.552 25.0568 311.707 25.2926 311.912 25.4659C312.119 25.6364 312.375 25.7216 312.679 25.7216ZM320.021 29.5909C319.433 29.5909 318.929 29.5099 318.508 29.348C318.091 29.1889 317.758 28.9716 317.511 28.696C317.264 28.4205 317.103 28.1108 317.029 27.767L318.708 27.5412C318.76 27.6719 318.841 27.794 318.951 27.9077C319.062 28.0213 319.208 28.1122 319.39 28.1804C319.575 28.2514 319.799 28.2869 320.064 28.2869C320.458 28.2869 320.784 28.1903 321.039 27.9972C321.298 27.8068 321.427 27.4872 321.427 27.0384V25.8409H321.35C321.271 26.0227 321.152 26.1946 320.993 26.3565C320.833 26.5185 320.629 26.6506 320.379 26.7528C320.129 26.8551 319.831 26.9062 319.484 26.9062C318.993 26.9062 318.545 26.7926 318.142 26.5653C317.741 26.3352 317.422 25.9844 317.183 25.5128C316.947 25.0384 316.829 24.4389 316.829 23.7145C316.829 22.973 316.95 22.3537 317.191 21.8565C317.433 21.3594 317.754 20.9872 318.154 20.7401C318.558 20.4929 319 20.3693 319.48 20.3693C319.846 20.3693 320.153 20.4318 320.4 20.5568C320.647 20.679 320.846 20.8324 320.997 21.017C321.15 21.1989 321.268 21.3778 321.35 21.554H321.419V20.4545H323.221V27.0639C323.221 27.6207 323.085 28.0866 322.812 28.4616C322.539 28.8366 322.162 29.1179 321.679 29.3054C321.199 29.4957 320.646 29.5909 320.021 29.5909ZM320.059 25.5426C320.352 25.5426 320.599 25.4702 320.801 25.3253C321.005 25.1776 321.162 24.9673 321.27 24.6946C321.38 24.419 321.436 24.0895 321.436 23.706C321.436 23.3224 321.382 22.9901 321.274 22.7088C321.166 22.4247 321.01 22.2045 320.805 22.0483C320.6 21.892 320.352 21.8139 320.059 21.8139C319.761 21.8139 319.51 21.8949 319.305 22.0568C319.1 22.2159 318.946 22.4375 318.841 22.7216C318.735 23.0057 318.683 23.3338 318.683 23.706C318.683 24.0838 318.735 24.4105 318.841 24.6861C318.949 24.9588 319.103 25.1705 319.305 25.321C319.51 25.4687 319.761 25.5426 320.059 25.5426ZM327.615 29.5909C327.027 29.5909 326.522 29.5099 326.102 29.348C325.684 29.1889 325.352 28.9716 325.105 28.696C324.858 28.4205 324.697 28.1108 324.623 27.767L326.302 27.5412C326.353 27.6719 326.434 27.794 326.545 27.9077C326.656 28.0213 326.802 28.1122 326.984 28.1804C327.169 28.2514 327.393 28.2869 327.657 28.2869C328.052 28.2869 328.377 28.1903 328.633 27.9972C328.892 27.8068 329.021 27.4872 329.021 27.0384V25.8409H328.944C328.865 26.0227 328.745 26.1946 328.586 26.3565C328.427 26.5185 328.223 26.6506 327.973 26.7528C327.723 26.8551 327.424 26.9062 327.078 26.9062C326.586 26.9062 326.139 26.7926 325.735 26.5653C325.335 26.3352 325.015 25.9844 324.777 25.5128C324.541 25.0384 324.423 24.4389 324.423 23.7145C324.423 22.973 324.544 22.3537 324.785 21.8565C325.027 21.3594 325.348 20.9872 325.748 20.7401C326.152 20.4929 326.593 20.3693 327.074 20.3693C327.44 20.3693 327.747 20.4318 327.994 20.5568C328.241 20.679 328.44 20.8324 328.591 21.017C328.744 21.1989 328.862 21.3778 328.944 21.554H329.012V20.4545H330.815V27.0639C330.815 27.6207 330.679 28.0866 330.406 28.4616C330.133 28.8366 329.755 29.1179 329.272 29.3054C328.792 29.4957 328.24 29.5909 327.615 29.5909ZM327.653 25.5426C327.946 25.5426 328.193 25.4702 328.395 25.3253C328.599 25.1776 328.755 24.9673 328.863 24.6946C328.974 24.419 329.029 24.0895 329.029 23.706C329.029 23.3224 328.975 22.9901 328.868 22.7088C328.76 22.4247 328.603 22.2045 328.399 22.0483C328.194 21.892 327.946 21.8139 327.653 21.8139C327.355 21.8139 327.103 21.8949 326.899 22.0568C326.694 22.2159 326.539 22.4375 326.434 22.7216C326.329 23.0057 326.277 23.3338 326.277 23.706C326.277 24.0838 326.329 24.4105 326.434 24.6861C326.542 24.9588 326.697 25.1705 326.899 25.321C327.103 25.4687 327.355 25.5426 327.653 25.5426ZM332.26 27V20.4545H334.075V27H332.26ZM333.172 19.6108C332.902 19.6108 332.67 19.5213 332.477 19.3423C332.287 19.1605 332.191 18.9432 332.191 18.6903C332.191 18.4403 332.287 18.2259 332.477 18.0469C332.67 17.8651 332.902 17.7741 333.172 17.7741C333.441 17.7741 333.672 17.8651 333.862 18.0469C334.055 18.2259 334.152 18.4403 334.152 18.6903C334.152 18.9432 334.055 19.1605 333.862 19.3423C333.672 19.5213 333.441 19.6108 333.172 19.6108ZM337.344 23.2159V27H335.529V20.4545H337.259V21.6094H337.336C337.481 21.2287 337.724 20.9276 338.065 20.706C338.406 20.4815 338.819 20.3693 339.305 20.3693C339.759 20.3693 340.156 20.4688 340.494 20.6676C340.832 20.8665 341.094 21.1506 341.282 21.5199C341.469 21.8864 341.563 22.3239 341.563 22.8324V27H339.748V23.1562C339.751 22.7557 339.648 22.4432 339.441 22.2188C339.234 21.9915 338.948 21.8778 338.585 21.8778C338.34 21.8778 338.124 21.9304 337.937 22.0355C337.752 22.1406 337.607 22.294 337.502 22.4957C337.4 22.6946 337.347 22.9347 337.344 23.2159ZM345.943 29.5909C345.355 29.5909 344.85 29.5099 344.43 29.348C344.012 29.1889 343.68 28.9716 343.433 28.696C343.186 28.4205 343.025 28.1108 342.951 27.767L344.63 27.5412C344.681 27.6719 344.762 27.794 344.873 27.9077C344.984 28.0213 345.13 28.1122 345.312 28.1804C345.497 28.2514 345.721 28.2869 345.985 28.2869C346.38 28.2869 346.706 28.1903 346.961 27.9972C347.22 27.8068 347.349 27.4872 347.349 27.0384V25.8409H347.272C347.193 26.0227 347.074 26.1946 346.914 26.3565C346.755 26.5185 346.551 26.6506 346.301 26.7528C346.051 26.8551 345.752 26.9062 345.406 26.9062C344.914 26.9062 344.467 26.7926 344.064 26.5653C343.663 26.3352 343.343 25.9844 343.105 25.5128C342.869 25.0384 342.751 24.4389 342.751 23.7145C342.751 22.973 342.872 22.3537 343.113 21.8565C343.355 21.3594 343.676 20.9872 344.076 20.7401C344.48 20.4929 344.922 20.3693 345.402 20.3693C345.768 20.3693 346.075 20.4318 346.322 20.5568C346.569 20.679 346.768 20.8324 346.919 21.017C347.072 21.1989 347.19 21.3778 347.272 21.554H347.341V20.4545H349.143V27.0639C349.143 27.6207 349.007 28.0866 348.734 28.4616C348.461 28.8366 348.083 29.1179 347.6 29.3054C347.12 29.4957 346.568 29.5909 345.943 29.5909ZM345.981 25.5426C346.274 25.5426 346.521 25.4702 346.723 25.3253C346.927 25.1776 347.083 24.9673 347.191 24.6946C347.302 24.419 347.358 24.0895 347.358 23.706C347.358 23.3224 347.304 22.9901 347.196 22.7088C347.088 22.4247 346.931 22.2045 346.727 22.0483C346.522 21.892 346.274 21.8139 345.981 21.8139C345.683 21.8139 345.431 21.8949 345.227 22.0568C345.022 22.2159 344.868 22.4375 344.762 22.7216C344.657 23.0057 344.605 23.3338 344.605 23.706C344.605 24.0838 344.657 24.4105 344.762 24.6861C344.87 24.9588 345.025 25.1705 345.227 25.321C345.431 25.4687 345.683 25.5426 345.981 25.5426ZM353.365 27V20.4545H355.18V27H353.365ZM354.277 19.6108C354.007 19.6108 353.776 19.5213 353.582 19.3423C353.392 19.1605 353.297 18.9432 353.297 18.6903C353.297 18.4403 353.392 18.2259 353.582 18.0469C353.776 17.8651 354.007 17.7741 354.277 17.7741C354.547 17.7741 354.777 17.8651 354.967 18.0469C355.161 18.2259 355.257 18.4403 355.257 18.6903C355.257 18.9432 355.161 19.1605 354.967 19.3423C354.777 19.5213 354.547 19.6108 354.277 19.6108ZM358.45 23.2159V27H356.635V20.4545H358.365V21.6094H358.441C358.586 21.2287 358.829 20.9276 359.17 20.706C359.511 20.4815 359.924 20.3693 360.41 20.3693C360.865 20.3693 361.261 20.4688 361.599 20.6676C361.937 20.8665 362.2 21.1506 362.387 21.5199C362.575 21.8864 362.669 22.3239 362.669 22.8324V27H360.853V23.1562C360.856 22.7557 360.754 22.4432 360.547 22.2188C360.339 21.9915 360.054 21.8778 359.69 21.8778C359.446 21.8778 359.23 21.9304 359.042 22.0355C358.858 22.1406 358.713 22.294 358.608 22.4957C358.505 22.6946 358.453 22.9347 358.45 23.2159ZM367.581 20.4545V21.8182H363.639V20.4545H367.581ZM364.534 18.8864H366.349V24.9886C366.349 25.1562 366.375 25.2869 366.426 25.3807C366.477 25.4716 366.548 25.5355 366.639 25.5724C366.733 25.6094 366.841 25.6278 366.963 25.6278C367.048 25.6278 367.134 25.6207 367.219 25.6065C367.304 25.5895 367.369 25.5767 367.415 25.5682L367.7 26.919C367.609 26.9474 367.482 26.9801 367.317 27.017C367.152 27.0568 366.952 27.081 366.716 27.0895C366.278 27.1065 365.895 27.0483 365.565 26.9148C365.239 26.7812 364.984 26.5739 364.803 26.2926C364.621 26.0114 364.531 25.6562 364.534 25.2273V18.8864ZM371.651 27.1278C370.989 27.1278 370.416 26.9872 369.933 26.706C369.453 26.4219 369.082 26.027 368.821 25.5213C368.56 25.0128 368.429 24.4233 368.429 23.7528C368.429 23.0767 368.56 22.4858 368.821 21.9801C369.082 21.4716 369.453 21.0767 369.933 20.7955C370.416 20.5114 370.989 20.3693 371.651 20.3693C372.312 20.3693 372.884 20.5114 373.364 20.7955C373.847 21.0767 374.219 21.4716 374.48 21.9801C374.741 22.4858 374.872 23.0767 374.872 23.7528C374.872 24.4233 374.741 25.0128 374.48 25.5213C374.219 26.027 373.847 26.4219 373.364 26.706C372.884 26.9872 372.312 27.1278 371.651 27.1278ZM371.659 25.7216C371.96 25.7216 372.212 25.6364 372.413 25.4659C372.615 25.2926 372.767 25.0568 372.869 24.7585C372.974 24.4602 373.027 24.1207 373.027 23.7401C373.027 23.3594 372.974 23.0199 372.869 22.7216C372.767 22.4233 372.615 22.1875 372.413 22.0142C372.212 21.8409 371.96 21.7543 371.659 21.7543C371.355 21.7543 371.099 21.8409 370.892 22.0142C370.688 22.1875 370.533 22.4233 370.428 22.7216C370.325 23.0199 370.274 23.3594 370.274 23.7401C370.274 24.1207 370.325 24.4602 370.428 24.7585C370.533 25.0568 370.688 25.2926 370.892 25.4659C371.099 25.6364 371.355 25.7216 371.659 25.7216ZM380.121 27L378.34 20.4545H380.176L381.191 24.8523H381.25L382.307 20.4545H384.11L385.184 24.8267H385.239L386.236 20.4545H388.069L386.292 27H384.37L383.245 22.8835H383.164L382.039 27H380.121ZM391.83 27.1278C391.168 27.1278 390.596 26.9872 390.113 26.706C389.633 26.4219 389.262 26.027 389.001 25.5213C388.739 25.0128 388.609 24.4233 388.609 23.7528C388.609 23.0767 388.739 22.4858 389.001 21.9801C389.262 21.4716 389.633 21.0767 390.113 20.7955C390.596 20.5114 391.168 20.3693 391.83 20.3693C392.492 20.3693 393.063 20.5114 393.543 20.7955C394.026 21.0767 394.398 21.4716 394.66 21.9801C394.921 22.4858 395.052 23.0767 395.052 23.7528C395.052 24.4233 394.921 25.0128 394.66 25.5213C394.398 26.027 394.026 26.4219 393.543 26.706C393.063 26.9872 392.492 27.1278 391.83 27.1278ZM391.839 25.7216C392.14 25.7216 392.391 25.6364 392.593 25.4659C392.795 25.2926 392.947 25.0568 393.049 24.7585C393.154 24.4602 393.207 24.1207 393.207 23.7401C393.207 23.3594 393.154 23.0199 393.049 22.7216C392.947 22.4233 392.795 22.1875 392.593 22.0142C392.391 21.8409 392.14 21.7543 391.839 21.7543C391.535 21.7543 391.279 21.8409 391.072 22.0142C390.867 22.1875 390.712 22.4233 390.607 22.7216C390.505 23.0199 390.454 23.3594 390.454 23.7401C390.454 24.1207 390.505 24.4602 390.607 24.7585C390.712 25.0568 390.867 25.2926 391.072 25.4659C391.279 25.6364 391.535 25.7216 391.839 25.7216ZM396.232 27V20.4545H397.992V21.5966H398.06C398.18 21.1903 398.38 20.8835 398.661 20.6761C398.942 20.4659 399.266 20.3608 399.633 20.3608C399.724 20.3608 399.822 20.3665 399.927 20.3778C400.032 20.3892 400.124 20.4048 400.204 20.4247V22.0355C400.119 22.0099 400.001 21.9872 399.85 21.9673C399.7 21.9474 399.562 21.9375 399.437 21.9375C399.17 21.9375 398.931 21.9957 398.721 22.1122C398.513 22.2259 398.349 22.3849 398.227 22.5895C398.107 22.794 398.048 23.0298 398.048 23.2969V27H396.232ZM402.787 25.1165L402.792 22.9389H403.056L405.152 20.4545H407.236L404.419 23.7443H403.989L402.787 25.1165ZM401.142 27V18.2727H402.958V27H401.142ZM405.233 27L403.307 24.1491L404.517 22.8665L407.36 27H405.233ZM412.719 18.2727V27H410.904V18.2727H412.719ZM416.04 27.1236C415.623 27.1236 415.25 27.0511 414.924 26.9062C414.597 26.7585 414.338 26.5412 414.148 26.2543C413.961 25.9645 413.867 25.6037 413.867 25.1719C413.867 24.8082 413.934 24.5028 414.067 24.2557C414.201 24.0085 414.382 23.8097 414.613 23.6591C414.843 23.5085 415.104 23.3949 415.397 23.3182C415.692 23.2415 416.002 23.1875 416.326 23.1562C416.706 23.1165 417.013 23.0795 417.246 23.0455C417.479 23.0085 417.648 22.9545 417.753 22.8835C417.858 22.8125 417.911 22.7074 417.911 22.5682V22.5426C417.911 22.2727 417.826 22.0639 417.655 21.9162C417.488 21.7685 417.249 21.6946 416.939 21.6946C416.613 21.6946 416.353 21.767 416.159 21.9119C415.966 22.054 415.838 22.233 415.776 22.4489L414.097 22.3125C414.182 21.9148 414.35 21.571 414.6 21.2812C414.85 20.9886 415.172 20.7642 415.567 20.608C415.965 20.4489 416.425 20.3693 416.948 20.3693C417.311 20.3693 417.659 20.4119 417.992 20.4972C418.327 20.5824 418.624 20.7145 418.882 20.8935C419.144 21.0724 419.35 21.3026 419.5 21.5838C419.651 21.8622 419.726 22.196 419.726 22.5852V27H418.005V26.0923H417.953C417.848 26.2969 417.708 26.4773 417.532 26.6335C417.355 26.7869 417.144 26.9077 416.897 26.9957C416.65 27.081 416.364 27.1236 416.04 27.1236ZM416.56 25.8707C416.827 25.8707 417.063 25.8182 417.267 25.7131C417.472 25.6051 417.632 25.4602 417.749 25.2784C417.865 25.0966 417.924 24.8906 417.924 24.6605V23.9659C417.867 24.0028 417.789 24.0369 417.689 24.0682C417.593 24.0966 417.483 24.1236 417.361 24.1491C417.239 24.1719 417.117 24.1932 416.995 24.2131C416.873 24.2301 416.762 24.2457 416.662 24.2599C416.449 24.2912 416.263 24.3409 416.104 24.4091C415.945 24.4773 415.821 24.5696 415.733 24.6861C415.645 24.7997 415.601 24.9418 415.601 25.1122C415.601 25.3594 415.691 25.5483 415.87 25.679C416.051 25.8068 416.282 25.8707 416.56 25.8707ZM421.135 29.4545V20.4545H422.924V21.554H423.005C423.085 21.3778 423.2 21.1989 423.35 21.017C423.504 20.8324 423.703 20.679 423.947 20.5568C424.194 20.4318 424.501 20.3693 424.868 20.3693C425.345 20.3693 425.785 20.4943 426.189 20.7443C426.592 20.9915 426.914 21.3651 427.156 21.8651C427.397 22.3622 427.518 22.9858 427.518 23.7358C427.518 24.4659 427.4 25.0824 427.164 25.5852C426.931 26.0852 426.613 26.4645 426.21 26.723C425.809 26.9787 425.36 27.1065 424.863 27.1065C424.511 27.1065 424.211 27.0483 423.964 26.9318C423.72 26.8153 423.52 26.669 423.363 26.4929C423.207 26.3139 423.088 26.1335 423.005 25.9517H422.95V29.4545H421.135ZM422.912 23.7273C422.912 24.1165 422.966 24.456 423.074 24.7457C423.181 25.0355 423.338 25.2614 423.542 25.4233C423.747 25.5824 423.995 25.6619 424.288 25.6619C424.583 25.6619 424.833 25.581 425.038 25.419C425.243 25.2543 425.397 25.027 425.502 24.7372C425.61 24.4446 425.664 24.108 425.664 23.7273C425.664 23.3494 425.612 23.017 425.507 22.7301C425.402 22.4432 425.247 22.2187 425.042 22.0568C424.838 21.8949 424.586 21.8139 424.288 21.8139C423.993 21.8139 423.743 21.892 423.538 22.0483C423.336 22.2045 423.181 22.4261 423.074 22.7131C422.966 23 422.912 23.3381 422.912 23.7273ZM432.21 20.4545V21.8182H428.268V20.4545H432.21ZM429.163 18.8864H430.978V24.9886C430.978 25.1562 431.004 25.2869 431.055 25.3807C431.106 25.4716 431.177 25.5355 431.268 25.5724C431.362 25.6094 431.47 25.6278 431.592 25.6278C431.677 25.6278 431.762 25.6207 431.848 25.6065C431.933 25.5895 431.998 25.5767 432.044 25.5682L432.329 26.919C432.238 26.9474 432.11 26.9801 431.946 27.017C431.781 27.0568 431.581 27.081 431.345 27.0895C430.907 27.1065 430.524 27.0483 430.194 26.9148C429.868 26.7812 429.613 26.5739 429.431 26.2926C429.25 26.0114 429.16 25.6562 429.163 25.2273V18.8864ZM436.279 27.1278C435.618 27.1278 435.045 26.9872 434.562 26.706C434.082 26.4219 433.711 26.027 433.45 25.5213C433.189 25.0128 433.058 24.4233 433.058 23.7528C433.058 23.0767 433.189 22.4858 433.45 21.9801C433.711 21.4716 434.082 21.0767 434.562 20.7955C435.045 20.5114 435.618 20.3693 436.279 20.3693C436.941 20.3693 437.512 20.5114 437.993 20.7955C438.475 21.0767 438.848 21.4716 439.109 21.9801C439.37 22.4858 439.501 23.0767 439.501 23.7528C439.501 24.4233 439.37 25.0128 439.109 25.5213C438.848 26.027 438.475 26.4219 437.993 26.706C437.512 26.9872 436.941 27.1278 436.279 27.1278ZM436.288 25.7216C436.589 25.7216 436.841 25.6364 437.042 25.4659C437.244 25.2926 437.396 25.0568 437.498 24.7585C437.603 24.4602 437.656 24.1207 437.656 23.7401C437.656 23.3594 437.603 23.0199 437.498 22.7216C437.396 22.4233 437.244 22.1875 437.042 22.0142C436.841 21.8409 436.589 21.7543 436.288 21.7543C435.984 21.7543 435.728 21.8409 435.521 22.0142C435.316 22.1875 435.162 22.4233 435.056 22.7216C434.954 23.0199 434.903 23.3594 434.903 23.7401C434.903 24.1207 434.954 24.4602 435.056 24.7585C435.162 25.0568 435.316 25.2926 435.521 25.4659C435.728 25.6364 435.984 25.7216 436.288 25.7216ZM440.681 29.4545V20.4545H442.471V21.554H442.552C442.632 21.3778 442.747 21.1989 442.897 21.017C443.051 20.8324 443.25 20.679 443.494 20.5568C443.741 20.4318 444.048 20.3693 444.414 20.3693C444.892 20.3693 445.332 20.4943 445.735 20.7443C446.139 20.9915 446.461 21.3651 446.703 21.8651C446.944 22.3622 447.065 22.9858 447.065 23.7358C447.065 24.4659 446.947 25.0824 446.711 25.5852C446.478 26.0852 446.16 26.4645 445.757 26.723C445.356 26.9787 444.907 27.1065 444.41 27.1065C444.058 27.1065 443.758 27.0483 443.511 26.9318C443.267 26.8153 443.066 26.669 442.91 26.4929C442.754 26.3139 442.635 26.1335 442.552 25.9517H442.497V29.4545H440.681ZM442.458 23.7273C442.458 24.1165 442.512 24.456 442.62 24.7457C442.728 25.0355 442.885 25.2614 443.089 25.4233C443.294 25.5824 443.542 25.6619 443.835 25.6619C444.13 25.6619 444.38 25.581 444.585 25.419C444.789 25.2543 444.944 25.027 445.049 24.7372C445.157 24.4446 445.211 24.108 445.211 23.7273C445.211 23.3494 445.159 23.017 445.054 22.7301C444.949 22.4432 444.794 22.2187 444.589 22.0568C444.385 21.8949 444.133 21.8139 443.835 21.8139C443.539 21.8139 443.289 21.892 443.085 22.0483C442.883 22.2045 442.728 22.4261 442.62 22.7131C442.512 23 442.458 23.3381 442.458 23.7273Z" fill="black"/>
<path d="M562.263 26H560.286L563.298 17.2727H565.676L568.685 26H566.707L564.521 19.267H564.453L562.263 26ZM562.139 22.5696H566.81V24.0099H562.139V22.5696ZM573.898 23.2131V19.4545H575.714V26H573.971V24.8111H573.903C573.755 25.1946 573.509 25.5028 573.165 25.7358C572.825 25.9687 572.408 26.0852 571.917 26.0852C571.479 26.0852 571.094 25.9858 570.762 25.7869C570.43 25.5881 570.17 25.3054 569.982 24.9389C569.798 24.5724 569.704 24.1335 569.701 23.6222V19.4545H571.516V23.2983C571.519 23.6847 571.623 23.9901 571.827 24.2145C572.032 24.4389 572.306 24.5511 572.65 24.5511C572.869 24.5511 573.073 24.5014 573.263 24.402C573.454 24.2997 573.607 24.1491 573.724 23.9503C573.843 23.7514 573.901 23.5057 573.898 23.2131ZM580.115 28.5909C579.527 28.5909 579.022 28.5099 578.602 28.348C578.184 28.1889 577.852 27.9716 577.605 27.696C577.358 27.4205 577.197 27.1108 577.123 26.767L578.802 26.5412C578.853 26.6719 578.934 26.794 579.045 26.9077C579.156 27.0213 579.302 27.1122 579.484 27.1804C579.669 27.2514 579.893 27.2869 580.157 27.2869C580.552 27.2869 580.877 27.1903 581.133 26.9972C581.392 26.8068 581.521 26.4872 581.521 26.0384V24.8409H581.444C581.365 25.0227 581.245 25.1946 581.086 25.3565C580.927 25.5185 580.723 25.6506 580.473 25.7528C580.223 25.8551 579.924 25.9062 579.578 25.9062C579.086 25.9062 578.639 25.7926 578.235 25.5653C577.835 25.3352 577.515 24.9844 577.277 24.5128C577.041 24.0384 576.923 23.4389 576.923 22.7145C576.923 21.973 577.044 21.3537 577.285 20.8565C577.527 20.3594 577.848 19.9872 578.248 19.7401C578.652 19.4929 579.093 19.3693 579.574 19.3693C579.94 19.3693 580.247 19.4318 580.494 19.5568C580.741 19.679 580.94 19.8324 581.091 20.017C581.244 20.1989 581.362 20.3778 581.444 20.554H581.512V19.4545H583.315V26.0639C583.315 26.6207 583.179 27.0866 582.906 27.4616C582.633 27.8366 582.255 28.1179 581.772 28.3054C581.292 28.4957 580.74 28.5909 580.115 28.5909ZM580.153 24.5426C580.446 24.5426 580.693 24.4702 580.895 24.3253C581.099 24.1776 581.255 23.9673 581.363 23.6946C581.474 23.419 581.529 23.0895 581.529 22.706C581.529 22.3224 581.475 21.9901 581.368 21.7088C581.26 21.4247 581.103 21.2045 580.899 21.0483C580.694 20.892 580.446 20.8139 580.153 20.8139C579.855 20.8139 579.603 20.8949 579.399 21.0568C579.194 21.2159 579.039 21.4375 578.934 21.7216C578.829 22.0057 578.777 22.3338 578.777 22.706C578.777 23.0838 578.829 23.4105 578.934 23.6861C579.042 23.9588 579.197 24.1705 579.399 24.321C579.603 24.4687 579.855 24.5426 580.153 24.5426ZM591.317 17.2727V26H589.472V19.0241H589.42L587.422 20.277V18.6406L589.582 17.2727H591.317ZM596.647 26.1193C595.99 26.1193 595.407 26.0128 594.895 25.7997C594.387 25.5838 593.988 25.2898 593.698 24.9176C593.408 24.5455 593.263 24.1236 593.263 23.652C593.263 23.2884 593.346 22.9545 593.51 22.6506C593.678 22.3438 593.905 22.0895 594.192 21.8878C594.479 21.6832 594.8 21.5526 595.155 21.4957V21.4361C594.689 21.3423 594.311 21.1165 594.022 20.7585C593.732 20.3977 593.587 19.9787 593.587 19.5014C593.587 19.0497 593.719 18.6477 593.983 18.2955C594.248 17.9403 594.61 17.6619 595.07 17.4602C595.533 17.2557 596.059 17.1534 596.647 17.1534C597.235 17.1534 597.759 17.2557 598.219 17.4602C598.682 17.6648 599.046 17.9446 599.31 18.2997C599.574 18.652 599.708 19.0526 599.711 19.5014C599.708 19.9815 599.56 20.4006 599.267 20.7585C598.975 21.1165 598.6 21.3423 598.142 21.4361V21.4957C598.492 21.5526 598.809 21.6832 599.093 21.8878C599.38 22.0895 599.607 22.3438 599.775 22.6506C599.945 22.9545 600.032 23.2884 600.034 23.652C600.032 24.1236 599.885 24.5455 599.596 24.9176C599.306 25.2898 598.905 25.5838 598.394 25.7997C597.885 26.0128 597.303 26.1193 596.647 26.1193ZM596.647 24.7642C596.939 24.7642 597.195 24.7116 597.414 24.6065C597.632 24.4986 597.803 24.3509 597.925 24.1634C598.05 23.973 598.113 23.7543 598.113 23.5071C598.113 23.2543 598.049 23.0312 597.921 22.8381C597.793 22.642 597.62 22.4886 597.401 22.3778C597.182 22.2642 596.931 22.2074 596.647 22.2074C596.365 22.2074 596.114 22.2642 595.892 22.3778C595.671 22.4886 595.496 22.642 595.368 22.8381C595.243 23.0312 595.181 23.2543 595.181 23.5071C595.181 23.7543 595.242 23.973 595.364 24.1634C595.486 24.3509 595.658 24.4986 595.88 24.6065C596.101 24.7116 596.357 24.7642 596.647 24.7642ZM596.647 20.8651C596.891 20.8651 597.108 20.8153 597.299 20.7159C597.489 20.6165 597.638 20.4787 597.746 20.3026C597.854 20.1264 597.908 19.9233 597.908 19.6932C597.908 19.4659 597.854 19.267 597.746 19.0966C597.638 18.9233 597.49 18.7884 597.303 18.6918C597.115 18.5923 596.897 18.5426 596.647 18.5426C596.4 18.5426 596.181 18.5923 595.99 18.6918C595.8 18.7884 595.651 18.9233 595.543 19.0966C595.438 19.267 595.385 19.4659 595.385 19.6932C595.385 19.9233 595.439 20.1264 595.547 20.3026C595.655 20.4787 595.804 20.6165 595.995 20.7159C596.185 20.8153 596.402 20.8651 596.647 20.8651Z" fill="black"/>
<line y1="38.5" x2="608" y2="38.5" stroke="#BBBBBB"/>
</svg>
