<svg width="143" height="143" viewBox="0 0 143 143" fill="none" xmlns="http://www.w3.org/2000/svg">
<path d="M59.5294 56.4657C67.4168 55.5842 75.5831 55.5842 83.4705 56.4657C85.0459 56.6418 86.2773 57.8916 86.4515 59.3811C87.3932 67.4329 87.3932 75.5671 86.4515 83.6189C86.2773 85.1084 85.0459 86.3583 83.4705 86.5343C75.5831 87.4159 67.4168 87.4159 59.5294 86.5343C57.954 86.3583 56.7226 85.1084 56.5484 83.6189C55.6067 75.5671 55.6067 67.4329 56.5484 59.3811C56.7226 57.8916 57.954 56.6418 59.5294 56.4657Z" fill="black"/>
<path fill-rule="evenodd" clip-rule="evenodd" d="M93.375 0.40625C96.3953 0.40625 98.8438 2.85469 98.8438 5.875V27.2141C107.327 28.8962 114.079 35.5978 115.674 44.1562H137.125C140.145 44.1562 142.594 46.6047 142.594 49.625C142.594 52.6453 140.145 55.0938 137.125 55.0938H116.795C117.064 58.7357 117.243 62.3827 117.332 66.0312H129.833C132.854 66.0312 135.302 68.4797 135.302 71.5C135.302 74.5203 132.854 76.9688 129.833 76.9688H117.332C117.243 80.6173 117.064 84.2643 116.795 87.9062H137.125C140.145 87.9062 142.594 90.3547 142.594 93.375C142.594 96.3953 140.145 98.8438 137.125 98.8438H115.674C114.079 107.402 107.327 114.104 98.8438 115.786V137.125C98.8438 140.145 96.3953 142.594 93.375 142.594C90.3547 142.594 87.9062 140.145 87.9062 137.125V116.896C84.2733 117.153 80.6238 117.325 76.9688 117.41V129.833C76.9688 132.854 74.5203 135.302 71.5 135.302C68.4797 135.302 66.0312 132.854 66.0312 129.833V117.41C62.3762 117.325 58.7267 117.153 55.0938 116.896V137.125C55.0938 140.145 52.6453 142.594 49.625 142.594C46.6047 142.594 44.1562 140.145 44.1562 137.125V115.786C35.6733 114.104 28.9206 107.402 27.3261 98.8438H5.875C2.85469 98.8438 0.40625 96.3953 0.40625 93.375C0.40625 90.3547 2.85469 87.9062 5.875 87.9062H26.2047C25.9363 84.2643 25.7574 80.6173 25.668 76.9688H13.1667C10.1464 76.9688 7.69792 74.5203 7.69792 71.5C7.69792 68.4797 10.1464 66.0312 13.1667 66.0312H25.668C25.7574 62.3827 25.9363 58.7357 26.2047 55.0938H5.875C2.85469 55.0938 0.40625 52.6453 0.40625 49.625C0.40625 46.6047 2.85469 44.1562 5.875 44.1562H27.3261C28.9206 35.5978 35.6733 28.8962 44.1562 27.2141V5.875C44.1562 2.85469 46.6047 0.40625 49.625 0.40625C52.6453 0.40625 55.0938 2.85469 55.0938 5.875V26.1039C58.7267 25.8467 62.3762 25.6753 66.0312 25.5897V13.1667C66.0312 10.1464 68.4797 7.69792 71.5 7.69792C74.5203 7.69792 76.9688 10.1464 76.9688 13.1667V25.5897C80.6238 25.6753 84.2733 25.8467 87.9062 26.1039V5.875C87.9062 2.85469 90.3547 0.40625 93.375 0.40625ZM84.6854 45.5959C75.9905 44.6241 67.0094 44.6241 58.3145 45.5959C51.7666 46.3277 46.4603 51.4815 45.685 58.1105C44.6445 67.0065 44.6445 75.9935 45.685 84.8895C46.4603 91.5186 51.7666 96.6723 58.3146 97.4042C67.0094 98.3759 75.9905 98.3759 84.6854 97.4042C91.2333 96.6723 96.5396 91.5186 97.315 84.8895C98.3554 75.9935 98.3554 67.0065 97.315 58.1105C96.5396 51.4815 91.2333 46.3277 84.6854 45.5959Z" fill="black"/>
</svg>
