<svg width="25" height="25" viewBox="0 0 25 25" fill="none" xmlns="http://www.w3.org/2000/svg">
<path d="M12.4888 1.04482e-06C5.58873 -0.00278913 0 5.58315 0 12.4777C0 17.9297 3.49609 22.5642 8.36496 24.2662C9.02065 24.4308 8.9202 23.9648 8.9202 23.6468V21.4844C5.13393 21.928 4.98047 19.4224 4.72656 19.0039C4.21317 18.1278 2.99944 17.9046 3.36217 17.4861C4.22433 17.0424 5.10324 17.5977 6.12165 19.1016C6.85826 20.1925 8.2952 20.0084 9.02344 19.827C9.18248 19.1713 9.52288 18.5854 9.99163 18.1306C6.06864 17.4275 4.43359 15.0335 4.43359 12.1875C4.43359 10.8064 4.88839 9.53683 5.78125 8.51284C5.21205 6.82478 5.83426 5.37947 5.91797 5.16462C7.53906 5.01953 9.22433 6.32534 9.35547 6.42857C10.2762 6.18025 11.3281 6.04911 12.5056 6.04911C13.6886 6.04911 14.7433 6.18583 15.6724 6.43694C15.9877 6.19699 17.5502 5.07534 19.0569 5.21206C19.1378 5.4269 19.7461 6.83873 19.2104 8.50447C20.1144 9.53125 20.5748 10.8119 20.5748 12.1959C20.5748 15.0474 18.9286 17.4442 14.9944 18.1362C15.3314 18.4676 15.599 18.8628 15.7815 19.2987C15.964 19.7347 16.0578 20.2026 16.0575 20.6752V23.8142C16.0798 24.0653 16.0575 24.3136 16.476 24.3136C21.4174 22.6479 24.9749 17.9799 24.9749 12.4805C24.9749 5.58315 19.3834 1.04482e-06 12.4888 1.04482e-06Z" fill="#D9D9D9"/>
</svg>
