<svg width="1044" height="782" viewBox="0 0 1044 782" fill="none" xmlns="http://www.w3.org/2000/svg">
<g id="Hero Image">
<rect id="Rectangle 1" width="1042.26" height="782" rx="30" fill="#D3CFE2"/>
<g id="Background">
<g id="Background Object / Cloud / 1">
<g id="Group 3">
<path id="Fill 1" fill-rule="evenodd" clip-rule="evenodd" d="M421.945 146.529H202.209C202.209 146.529 222.91 116.338 239.928 115.866C260.239 115.302 269.385 137.636 288.889 137.636C308.398 137.636 321.459 83.006 357.568 83.006C396.114 83.006 421.945 146.529 421.945 146.529" fill="#ECF6FF"/>
</g>
</g>
<g id="Background Object / Tree / 2">
<g id="Group 14">
<path id="Fill 1_2" fill-rule="evenodd" clip-rule="evenodd" d="M523.895 429.874C521.526 422.778 508.535 423.98 508.534 404.193C508.53 374.4 549.561 377.8 551.98 355.353C554.4 332.905 528.034 333.441 527.218 314.508C526.402 295.574 546.45 256.506 576.868 256.506C600.853 256.506 580.987 286.651 600.344 300.132C619.701 313.612 641.809 296.342 652.75 317.54C667.822 346.74 629.283 381.808 633.085 404.193C636.887 426.578 659.48 421.285 660.171 445.88C660.863 470.476 628.044 474.805 631.136 495.895C633.085 509.19 653.855 504.751 654.944 530.966C655.867 553.162 584.506 580.626 530.901 535.46C477.295 490.293 532.941 456.958 523.895 429.874" fill="#CCE3FF"/>
<path id="Stroke 4" d="M582.977 376.112V594.246" stroke="#ECF6FF" stroke-width="8" stroke-linecap="square"/>
<path id="Stroke 6" d="M584.1 523.807L612.13 495.778" stroke="#ECF6FF" stroke-width="8" stroke-linecap="square"/>
<path id="Stroke 8" d="M584.475 443.966L598.724 429.717" stroke="#ECF6FF" stroke-width="8" stroke-linecap="square"/>
<path id="Stroke 10" d="M581.479 475.689L559.128 453.338" stroke="#ECF6FF" stroke-width="8" stroke-linecap="square"/>
<path id="Stroke 12" d="M581.995 406.679L571.135 395.82" stroke="#ECF6FF" stroke-width="8" stroke-linecap="square"/>
</g>
</g>
<g id="Background Object / Tree / 5">
<g id="Group 12">
<path id="Fill 1_3" fill-rule="evenodd" clip-rule="evenodd" d="M303.021 459.781C303.021 502.672 275.03 526.6 238.573 526.6C202.115 526.6 174.124 502.672 174.124 459.781C174.124 369.476 215.259 265.368 238.573 265.368C261.887 265.368 303.021 369.476 303.021 459.781" fill="#CCE3FF"/>
<path id="Stroke 4_2" d="M238.573 395.984V593.95" stroke="#ECF6FF" stroke-width="8" stroke-linecap="square"/>
<path id="Stroke 6_2" d="M239.343 500.856L262.154 478.046" stroke="#ECF6FF" stroke-width="8" stroke-linecap="square"/>
<path id="Stroke 8_2" d="M236.663 457.395L217.998 438.729" stroke="#ECF6FF" stroke-width="8" stroke-linecap="square"/>
<path id="Stroke 10_2" d="M239.697 428.155L253.946 413.906" stroke="#ECF6FF" stroke-width="8" stroke-linecap="square"/>
</g>
</g>
<g id="Background Object / Tree / 3">
<g id="Group 12_2">
<path id="Fill 1_4" fill-rule="evenodd" clip-rule="evenodd" d="M534.58 440.322C534.58 489.582 494.685 529.514 445.471 529.514C396.258 529.514 356.362 489.582 356.362 440.322C356.362 391.063 396.258 351.131 445.471 351.131C494.685 351.131 534.58 391.063 534.58 440.322" fill="#ECF6FF"/>
<path id="Stroke 4_3" d="M445.471 414.545V596.976" stroke="#B6D4FF" stroke-width="8"/>
<path id="Stroke 6_3" d="M445.471 499.132L465.308 479.277" stroke="#B6D4FF" stroke-width="8"/>
<path id="Stroke 8_3" d="M446.22 439.534L456.434 429.311" stroke="#B6D4FF" stroke-width="8"/>
<path id="Stroke 10_3" d="M445.471 469.51L426.46 450.482" stroke="#B6D4FF" stroke-width="8"/>
</g>
</g>
<g id="Background Object / Streetlight / 2">
<g id="Group 13">
<path id="Fill 1_5" fill-rule="evenodd" clip-rule="evenodd" d="M750.036 111.693H744.084C741.221 111.693 738.899 114.014 738.899 116.878V546.136H755.221V116.878C755.221 114.014 752.9 111.693 750.036 111.693" fill="#D7EBFF"/>
<path id="Fill 3" fill-rule="evenodd" clip-rule="evenodd" d="M734.004 585.621H760.117V541.35H734.004V585.621Z" fill="#CCE3FF"/>
<path id="Fill 5" fill-rule="evenodd" clip-rule="evenodd" d="M726.916 690.875H767.204V561.491H726.916V690.875Z" fill="#D7EBFF"/>
<path id="Fill 6" fill-rule="evenodd" clip-rule="evenodd" d="M763.853 673.735H730.268C723.48 673.735 717.978 679.237 717.978 686.025V691.425H776.142V686.025C776.142 679.237 770.64 673.735 763.853 673.735" fill="#CCE3FF"/>
<path id="Fill 7" fill-rule="evenodd" clip-rule="evenodd" d="M767.201 560.274H726.92C723.581 560.274 720.874 562.98 720.874 566.319V567.063C720.874 570.402 723.581 573.108 726.92 573.108H767.201C770.54 573.108 773.246 570.402 773.246 567.063V566.319C773.246 562.98 770.54 560.274 767.201 560.274" fill="#CCE3FF"/>
<path id="Fill 8" fill-rule="evenodd" clip-rule="evenodd" d="M747.06 88.6223V88.6223C741.059 88.6223 736.195 93.4872 736.195 99.4879V100.827C736.195 106.828 741.059 111.693 747.06 111.693C753.062 111.693 757.926 106.828 757.926 100.827V99.4879C757.926 93.4872 753.062 88.6223 747.06 88.6223" fill="#CCE3FF"/>
<path id="Fill 9" fill-rule="evenodd" clip-rule="evenodd" d="M763.124 215.334H730.996C727.658 215.334 724.951 218.04 724.951 221.379V222.123C724.951 225.462 727.658 228.168 730.996 228.168H763.124C766.462 228.168 769.169 225.462 769.169 222.123V221.379C769.169 218.04 766.462 215.334 763.124 215.334" fill="#CCE3FF"/>
<path id="Fill 10" fill-rule="evenodd" clip-rule="evenodd" d="M758.738 228.168H735.382C733.191 228.168 731.414 229.945 731.414 232.137V232.626C731.414 234.817 733.191 236.594 735.382 236.594H758.738C760.93 236.594 762.706 234.817 762.706 232.626V232.137C762.706 229.945 760.93 228.168 758.738 228.168" fill="#CCE3FF"/>
<path id="Fill 11" fill-rule="evenodd" clip-rule="evenodd" d="M777.91 130.29L760.265 215.333H733.864L716.21 130.29H777.91Z" fill="#ECF6FF"/>
<path id="Fill 12" fill-rule="evenodd" clip-rule="evenodd" d="M783.268 134.797L775.531 119.575H718.589L710.853 134.797H783.268Z" fill="#CCE3FF"/>
</g>
</g>
</g>
<g id="Person / Man / 2">
<g id="Man / Head / 1">
<g id="Group 25">
<g id="Face color">
<path id="Face" d="M386.306 301.998L385.768 283.469C385.768 283.469 408.313 285.262 413.136 282.76C413.136 282.76 419.029 252.43 412 235.634L411.857 234.98L364.283 229.422L361.323 256.357C359.72 251.637 346.788 246.613 343.33 253.374C335.838 268.023 362.627 277.886 362.627 277.886L359.907 302.221" fill="#E576C6"/>
</g>
<path id="Fill 4" opacity="0.400274" fill-rule="evenodd" clip-rule="evenodd" d="M385.769 283.469L370.567 280.214L385.696 290.421L385.769 283.469Z" fill="black"/>
<path id="Fill 6_2" fill-rule="evenodd" clip-rule="evenodd" d="M398.308 253.19L403.561 266.017L397.266 266.097L398.308 253.19Z" fill="#2437A8"/>
<path id="Fill 8_2" fill-rule="evenodd" clip-rule="evenodd" d="M392.319 256.835C392.632 258.562 391.483 260.215 389.754 260.528C388.024 260.841 386.369 259.693 386.056 257.967C385.743 256.239 386.891 254.586 388.621 254.273C390.351 253.961 392.006 255.108 392.319 256.835" fill="#0D0B6D"/>
<path id="Fill 10_2" fill-rule="evenodd" clip-rule="evenodd" d="M408.841 256.835C409.154 258.562 408.005 260.215 406.276 260.528C404.546 260.841 402.891 259.693 402.578 257.967C402.265 256.239 403.413 254.586 405.143 254.273C406.873 253.961 408.528 255.108 408.841 256.835" fill="#0D0B6D"/>
<g id="Group 15">
<path id="Fill 12_2" fill-rule="evenodd" clip-rule="evenodd" d="M391.776 269.729C391.776 269.729 393.977 273.292 398.335 272.99Z" fill="white"/>
<path id="Stroke 14" d="M391.776 269.729C391.776 269.729 393.977 273.292 398.335 272.99" stroke="#252535" stroke-width="4"/>
</g>
<path id="Path" fill-rule="evenodd" clip-rule="evenodd" d="M361.61 256.644C358.058 252.966 354.192 251.407 351.846 250.76L352.294 241.477L374.642 237.585C373.102 247.941 367.12 253.592 361.61 256.644Z" fill="#434343"/>
<path id="Fill 18" fill-rule="evenodd" clip-rule="evenodd" d="M413.319 239.256C411.305 237.343 398.183 236.75 382.408 237.964C378.74 238.246 375.222 238.601 371.969 239.013C361.217 240.362 353.305 242.281 352.018 243.968C350.589 222.885 363.517 210.329 380.444 209.161C391.548 208.394 401.619 212.722 407.647 221.74C410.732 226.361 412.762 232.219 413.319 239.256" fill="#393954"/>
<path id="Fill 22" fill-rule="evenodd" clip-rule="evenodd" d="M413.573 239.673H413.568C413.546 239.527 413.46 239.386 413.319 239.256C411.306 237.343 398.183 236.75 382.409 237.963C378.739 238.246 375.222 238.601 371.97 239.013C376.596 234.623 385.06 227.682 395.044 224.567C399.314 223.235 403.643 222.264 407.647 221.74C417.367 220.453 425.164 221.773 425.554 226.813C426.057 233.37 415.251 238.861 413.573 239.673" fill="#161629"/>
</g>
</g>
<g id="Man / Legs / 1">
<g id="Group 21">
<g id="Shoes">
<path id="Shoes_2" fill-rule="evenodd" clip-rule="evenodd" d="M276.198 635.007L292.843 619.755L287.061 604.328L251.436 630.758L280.294 681.092C280.294 681.092 281.222 668.584 279.713 654.728C278.671 645.156 276.198 635.007 276.198 635.007ZM435.417 668.746L431.615 656.501L415.519 657.351L428.916 690.98L480.373 661.193C465.103 656.574 435.417 668.746 435.417 668.746Z" fill="#0D0B6D"/>
</g>
<g id="Legs skin">
<path id="Skin" fill-rule="evenodd" clip-rule="evenodd" d="M288.647 623.642L286.818 604.313L266.313 619.818L276.198 635.008L288.647 623.642ZM432.285 658.57L416.371 660.003L422.246 674.235L435.417 668.746L432.285 658.57Z" fill="#E576C6"/>
</g>
<g id="Pants">
<path id="Pants_2" d="M351.424 477.044L330.289 408.311H384.53L413.081 408.311C413.134 425.124 411.154 452.817 400.672 484.35L433.952 641.1C434.366 643.068 433.666 645.034 432.246 646.306L437.303 664.262L416.633 670.279L411.71 653.547L411.581 653.589C408.65 654.557 405.495 652.931 404.593 649.994L371.712 543.054C368.004 548.52 363.963 553.976 359.572 559.394C331.766 593.695 314.436 612.194 305.523 621.094C302.342 624.277 297.392 624.432 294.035 621.832L281.325 632.297L268.705 614.938L281.266 604.594C279.253 601.366 279.584 597.169 282.157 594.304C294.964 580.014 331.006 536.374 351.424 477.044L351.424 477.044Z" fill="#19141E"/>
<mask id="mask0_2_3" style="mask-type:alpha" maskUnits="userSpaceOnUse" x="268" y="408" width="170" height="263">
<path id="Pants_3" d="M351.424 477.044L330.289 408.311H384.53L413.081 408.311C413.134 425.124 411.154 452.817 400.672 484.35L433.952 641.1C434.366 643.068 433.666 645.034 432.246 646.306L437.303 664.262L416.633 670.279L411.71 653.547L411.581 653.589C408.65 654.557 405.495 652.931 404.593 649.994L371.712 543.054C368.004 548.52 363.963 553.976 359.572 559.394C331.766 593.695 314.436 612.194 305.523 621.094C302.342 624.277 297.392 624.432 294.035 621.832L281.325 632.297L268.705 614.938L281.266 604.594C279.253 601.366 279.584 597.169 282.157 594.304C294.964 580.014 331.006 536.374 351.424 477.044L351.424 477.044Z" fill="white"/>
</mask>
<g mask="url(#mask0_2_3)">
</g>
</g>
<g id="Overlay">
<path id="Path_2" opacity="0.0987491" fill-rule="evenodd" clip-rule="evenodd" d="M411.71 653.547L411.581 653.589C408.65 654.557 405.495 652.931 404.593 649.994L371.712 543.053L351.425 477.045L330.289 408.311H384.53L400.672 484.35L433.952 641.1C434.366 643.068 433.666 645.034 432.246 646.306L437.303 664.262L416.634 670.279L411.71 653.547V653.547Z" fill="white"/>
</g>
<g id="Pants line">
<path id="Pants line_2" d="M422.797 649.39L414.091 652.48L379.159 531.364L357.609 456.646L343.67 408.311H361.338L364.444 420.501L388.379 514.382L422.797 649.39Z" fill="#EFEFEF"/>
</g>
</g>
</g>
<g id="Man / Body / 5">
<g id="Group 36">
<g id="Skin color">
<path id="Mask" fill-rule="evenodd" clip-rule="evenodd" d="M355.369 298.495C356.81 301.014 363.133 310.327 378.117 311.208C392.59 312.052 391.517 304.389 390.762 301.827C390.424 301.734 390.084 301.641 389.743 301.546C386.56 300.665 383.173 299.727 378.534 299.247C365.87 297.935 364.876 297.839 355.369 298.495ZM470.084 339.121C463.196 352.646 439.017 397.042 421.78 389.961C408.874 384.658 393.424 340.701 393.424 340.701L418.538 325.754L429.823 355.962L452.866 330.929C452.084 325.969 451.457 319.484 453.017 317.199C455.672 313.308 469.108 301.32 469.108 301.32L471.554 321.631L471.981 319.919C471.981 319.823 472.004 319.72 472.052 319.609L472.067 319.576L473.056 315.613C472.641 315.404 472.471 315.105 472.65 314.692C472.796 314.356 473.114 313.988 473.558 313.602L476.935 300.07C476.935 300.07 478.043 300.563 479.668 301.301C482.281 300.763 491.745 307.196 491.888 307.294L491.89 307.295C493.817 308.54 489.234 329.11 485.511 332.932C482.863 335.65 474.622 337.994 470.084 339.121ZM316.224 430.849L317.762 433.769C317.762 433.769 319.155 436.155 320.612 440.32C321.151 441.859 321.408 443.178 321.677 444.559C322.136 446.914 322.63 449.451 324.617 453.574C328.197 460.999 321.795 457.938 319.499 454.696C318.745 453.631 318.344 452.408 317.96 451.235C317.431 449.622 316.933 448.102 315.588 447.214C315.521 447.322 315.446 447.433 315.365 447.554C314.508 448.83 312.945 451.159 312.039 460.946C311.861 462.868 312.732 469.101 312.732 469.101C312.733 469.24 312.736 469.39 312.739 469.549C312.773 471.529 312.832 474.907 310.864 475.457C310.337 475.605 309.651 475.022 309.651 475.022C309.651 475.022 309.857 477.459 307.685 477.944C306.83 478.135 305.133 472.873 305.133 472.873C305.133 472.873 304.875 475.545 303.252 475.842C302.794 475.926 297.378 460.681 297.378 460.681L297.704 464.124L298.423 467.651C298.423 467.651 298.364 469.549 296.84 469.885C296.234 470.018 295.072 466.852 293.983 463.127C292.289 457.331 292.324 452.975 292.822 448.644C292.943 447.593 293.029 446.683 293.108 445.847C293.421 442.516 293.624 440.363 295.486 435.233C295.765 434.465 296.139 433.584 296.556 432.678C295.278 421.643 291.676 389.344 292.117 379.428C292.652 367.4 305.395 340.701 305.395 340.701L331.266 355.164L317.007 381.146L316.224 430.849Z" fill="#E576C6"/>
</g>
<g id="T-Shirt">
<path id="T-Shirt_2" fill-rule="evenodd" clip-rule="evenodd" d="M330.486 408.618H413.485L416.526 357.387L431.094 348.896L420.887 325.432L420.798 325.449C420.372 324.596 419.906 323.711 419.395 322.792C413.061 311.382 402.226 304.948 390.762 301.827C390.576 301.776 390.501 301.74 390.493 301.752C390.471 301.782 390.868 302.117 390.982 303.287C391.141 304.923 390.625 307.143 390.081 307.818C388.799 309.409 386.864 310.313 386.085 310.525C385.306 310.737 384.688 310.861 384 310.998C383.517 311.094 380.77 311.297 380.296 311.273C376.388 311.069 374.472 310.888 372.011 310.303C371.14 310.097 370.239 309.861 369.17 309.411C368.969 309.327 368.75 309.236 368.515 309.14C367.36 308.665 365.821 308.033 364.259 307.16C362.607 306.237 360.923 305.019 359.704 303.775C359.586 303.655 359.472 303.538 359.36 303.425C358.08 302.121 357.207 301.232 356.602 300.34C356.193 299.736 356.038 299.535 355.948 299.417C355.893 299.346 355.861 299.305 355.811 299.223C355.676 299.006 355.561 298.815 355.528 298.687C355.492 298.549 355.619 298.49 355.615 298.476C355.612 298.468 355.555 298.477 355.369 298.495C349.527 299.072 343.248 300.58 336.402 303.775C315.226 313.653 302.85 338.47 302.85 338.47L329.094 358.095L330.486 408.618Z" fill="#5E93D1"/>
</g>
<path id="Stroke 16" opacity="0.200521" d="M329.093 358.092L335.75 362.597L351.753 344.016" stroke="black" stroke-width="5"/>
<path id="Phone" d="M481.079 325.248L479.92 330.92H461.141L469.999 285.758H488.778C488.291 288.24 487.144 294.085 485.338 303.294L481.646 301.587L480.496 301.269L479.59 301.32L479.198 301.587V302.685L483.212 308.442L480.141 309.776L475.417 312.247L474.052 313.19L473.523 313.678L473.091 314.064L472.816 314.395L472.65 314.692L472.579 315.076L472.65 315.247L472.732 315.377L472.852 315.496L474.4 316.041L477.933 315.076H481.424L476.764 316.041L473.694 317.873L472.65 318.854L472.061 319.575V320.234L473.091 320.697L479.59 319.953L477.438 321.12L476.012 322.002L474.705 322.675L473.694 323.975V324.617L474.052 324.994L474.959 325.476H476.344H479.132L481.079 325.248Z" fill="#5E93D1"/>
<path id="Fill 23" fill-rule="evenodd" clip-rule="evenodd" d="M461.139 330.92H458.031L466.889 285.758H469.996L461.139 330.92Z" fill="#020101"/>
<path id="Fill 34" fill-rule="evenodd" clip-rule="evenodd" d="M473.23 291.002C472.971 292.321 472.201 293.282 471.511 293.147C470.822 293.013 470.473 291.835 470.733 290.516C470.993 289.196 471.762 288.236 472.452 288.37C473.142 288.505 473.49 289.683 473.23 291.002" fill="#020101"/>
</g>
</g>
</g>
</g>
</svg>
