<svg width="1544" height="928" viewBox="0 0 1544 928" fill="none" xmlns="http://www.w3.org/2000/svg">
<g id="Illustration 3">
<rect id="Rectangle 1" x="112" width="1324" height="928" rx="30" fill="#D3CFE2"/>
<g id="Background">
<g id="Background Object / Sofa / 2">
<g id="Group 24">
<path id="Fill 1" fill-rule="evenodd" clip-rule="evenodd" d="M587.273 678.845H232.908C225.373 678.845 218.933 673.422 217.651 665.998L194.13 529.859C192.494 520.394 199.782 511.74 209.386 511.74H563.752C571.285 511.74 577.726 517.163 579.008 524.587L602.53 660.726C604.165 670.19 596.878 678.845 587.273 678.845Z" fill="#B6D4FF"/>
<path id="Fill 3" fill-rule="evenodd" clip-rule="evenodd" d="M621.141 678.845H268.304C260.77 678.845 254.329 673.422 253.047 665.998L229.526 529.859C227.891 520.394 235.178 511.74 244.783 511.74H597.62C605.154 511.74 611.594 517.163 612.877 524.587L636.398 660.726C638.033 670.19 630.746 678.845 621.141 678.845Z" fill="#DCEEFF"/>
<path id="Fill 5" fill-rule="evenodd" clip-rule="evenodd" d="M381.667 678.845H233.562C226 678.845 219.87 672.715 219.87 665.153V633.599C219.87 626.038 226 619.908 233.562 619.908H381.667C389.229 619.908 395.358 626.038 395.358 633.599V665.153C395.358 672.715 389.229 678.845 381.667 678.845Z" fill="#B6D4FF"/>
<path id="Stroke 7" d="M251.159 678.844V710.112" stroke="#CCE3FF" stroke-width="10"/>
<path id="Stroke 9" d="M361.042 678.844V710.112" stroke="#CCE3FF" stroke-width="10"/>
<path id="Stroke 11" d="M655.288 678.844V710.112" stroke="#CCE3FF" stroke-width="10"/>
<path id="Stroke 13" d="M765.171 678.844V710.112" stroke="#CCE3FF" stroke-width="10"/>
<path id="Fill 15" fill-rule="evenodd" clip-rule="evenodd" d="M780.642 678.845H346.122C335.714 678.845 327.277 670.408 327.277 660V638.752C327.277 628.345 335.714 619.908 346.122 619.908H780.642C791.05 619.908 799.488 628.345 799.488 638.752V660C799.488 670.408 791.05 678.845 780.642 678.845Z" fill="#CCE3FF"/>
<path id="Fill 18" fill-rule="evenodd" clip-rule="evenodd" d="M368.629 619.908H323.688C314.862 619.908 307.263 613.68 305.53 605.026L298.513 569.994C296.217 558.533 304.983 547.838 316.671 547.838H361.612C370.438 547.838 378.037 554.066 379.77 562.72L386.787 597.752C389.083 609.212 380.317 619.908 368.629 619.908Z" fill="#B6D4FF"/>
<path id="Fill 20" fill-rule="evenodd" clip-rule="evenodd" d="M625.286 619.908H580.344C571.519 619.908 563.919 613.68 562.186 605.026L555.169 569.994C552.874 558.533 561.639 547.838 573.327 547.838H618.269C627.094 547.838 634.693 554.066 636.426 562.72L643.443 597.752C645.739 609.212 636.974 619.908 625.286 619.908Z" fill="#B6D4FF"/>
<path id="Fill 22" fill-rule="evenodd" clip-rule="evenodd" d="M431.664 619.908H386.723C377.897 619.908 370.298 613.68 368.565 605.026L361.548 569.994C359.252 558.533 368.018 547.838 379.706 547.838H424.647C433.473 547.838 441.072 554.066 442.805 562.72L449.822 597.752C452.118 609.212 443.352 619.908 431.664 619.908Z" fill="#CCE3FF"/>
</g>
</g>
<g id="Background Object / Pluteus / 1">
<g id="Group 23">
<path id="Fill 1_2" fill-rule="evenodd" clip-rule="evenodd" d="M1222.65 146.822L1216.39 209.315H1134.23L1140.49 146.822H1222.65Z" fill="#DCEEFF"/>
<path id="Stroke 2" fill-rule="evenodd" clip-rule="evenodd" d="M1222.65 146.822L1216.39 209.315H1134.23L1140.49 146.822H1222.65Z" stroke="#DCEEFF" stroke-width="5"/>
<path id="Fill 4" fill-rule="evenodd" clip-rule="evenodd" d="M1220.81 146.822L1214.55 209.315H1130.86L1137.12 146.822H1220.81Z" fill="white"/>
<path id="Stroke 5" fill-rule="evenodd" clip-rule="evenodd" d="M1220.81 146.822L1214.55 209.315H1130.86L1137.12 146.822H1220.81Z" stroke="#DCEEFF" stroke-width="5"/>
<path id="Fill 7" fill-rule="evenodd" clip-rule="evenodd" d="M1203.16 159.082L1199.36 197.056H1148.51L1152.31 159.082H1203.16Z" fill="#CCE3FF"/>
<path id="Fill 8" fill-rule="evenodd" clip-rule="evenodd" d="M1049.6 211.011H1060.76V167.396H1049.6V211.011Z" fill="#DCEEFF"/>
<path id="Fill 9" fill-rule="evenodd" clip-rule="evenodd" d="M1038.43 211.011H1049.6V167.396H1038.43V211.011Z" fill="#CCE3FF"/>
<path id="Fill 10" fill-rule="evenodd" clip-rule="evenodd" d="M1060.76 211.011H1071.93V167.396H1060.76V211.011Z" fill="#CCE3FF"/>
<path id="Fill 11" fill-rule="evenodd" clip-rule="evenodd" d="M1101.11 211.011H1071.93V167.396H1101.11C1102.81 167.396 1104.19 168.777 1104.19 170.481V207.927C1104.19 209.63 1102.81 211.011 1101.11 211.011Z" fill="#B6D4FF"/>
<path id="Fill 13" fill-rule="evenodd" clip-rule="evenodd" d="M1076.71 178.069H1099.41V173.75H1076.71V178.069Z" fill="#CCE3FF"/>
<path id="Fill 15_2" fill-rule="evenodd" clip-rule="evenodd" d="M1081.77 184.731H1094.35V180.413H1081.77V184.731Z" fill="#CCE3FF"/>
<path id="Fill 16" fill-rule="evenodd" clip-rule="evenodd" d="M986.428 221.703H1240.96V211.011H986.428V221.703Z" fill="#DCEEFF"/>
<path id="Fill 17" fill-rule="evenodd" clip-rule="evenodd" d="M1240.96 221.703H1282.83V211.011H1240.96V221.703Z" fill="#CCE3FF"/>
<path id="Fill 18_2" fill-rule="evenodd" clip-rule="evenodd" d="M1048.46 221.703L1068.34 252.888V221.703H1048.46Z" fill="#B6D4FF"/>
<path id="Fill 19" fill-rule="evenodd" clip-rule="evenodd" d="M1037.46 221.703L1057.34 252.888H1068.34L1048.46 221.703H1037.46Z" fill="#CCE3FF"/>
<path id="Fill 20_2" fill-rule="evenodd" clip-rule="evenodd" d="M1194.25 221.703L1214.13 252.888V221.703H1194.25Z" fill="#B6D4FF"/>
<path id="Fill 21" fill-rule="evenodd" clip-rule="evenodd" d="M1183.25 221.703L1203.13 252.888H1214.13L1194.25 221.703H1183.25Z" fill="#CCE3FF"/>
</g>
</g>
<g id="Background Object / Chair / 5">
<g id="Group 14">
<path id="Fill 1_3" fill-rule="evenodd" clip-rule="evenodd" d="M1213.58 666.214L1231.74 708.911H1239.97L1229.05 664.121L1213.58 666.214Z" fill="#B6D4FF"/>
<path id="Fill 2" fill-rule="evenodd" clip-rule="evenodd" d="M1120.8 666.214L1138.96 708.911H1147.2L1136.27 664.121L1120.8 666.214Z" fill="#B6D4FF"/>
<path id="Fill 3_2" fill-rule="evenodd" clip-rule="evenodd" d="M982.217 708.912H990.453L1008.61 666.214L993.144 664.121L982.217 708.912Z" fill="#B6D4FF"/>
<path id="Fill 4_2" fill-rule="evenodd" clip-rule="evenodd" d="M1075 708.912H1083.23L1101.39 666.214L1085.92 664.121L1075 708.912Z" fill="#B6D4FF"/>
<path id="Fill 5_2" fill-rule="evenodd" clip-rule="evenodd" d="M992.345 566.29V669.675L1099.75 669.905L1117.41 567.636L992.345 566.29ZM1000.52 574.562L1107.72 575.715L1092.87 661.707L1000.52 661.51V574.562Z" fill="#B6D4FF"/>
<path id="Fill 6" fill-rule="evenodd" clip-rule="evenodd" d="M1133.29 502.742L1104.42 669.905H1230.37L1259.24 502.742H1133.29Z" fill="#CCE3FF"/>
<path id="Fill 7_2" fill-rule="evenodd" clip-rule="evenodd" d="M1099.42 502.742L1070.55 669.905H1194.97L1223.84 502.742H1099.42Z" fill="#DCEEFF"/>
<path id="Fill 8_2" fill-rule="evenodd" clip-rule="evenodd" d="M1068.57 669.905H1216.68C1224.24 669.905 1230.37 663.773 1230.37 656.209V624.643C1230.37 617.079 1224.24 610.947 1216.68 610.947H1068.57C1061.01 610.947 1054.88 617.079 1054.88 624.643V656.209C1054.88 663.773 1061.01 669.905 1068.57 669.905Z" fill="#CCE3FF"/>
<path id="Fill 10_2" fill-rule="evenodd" clip-rule="evenodd" d="M991.789 669.905H1122.96V610.947H991.789V669.905Z" fill="#DCEEFF"/>
<path id="Fill 12" fill-rule="evenodd" clip-rule="evenodd" d="M1122.96 566.29V669.675L1230.37 669.905L1248.03 567.636L1122.96 566.29ZM1131.14 574.562L1238.33 575.715L1223.48 661.707L1131.14 661.51V574.562Z" fill="#B6D4FF"/>
</g>
</g>
<g id="Background Object / Picture / 6">
<g id="Group 8">
<path id="Fill 1_4" fill-rule="evenodd" clip-rule="evenodd" d="M814.264 240.491H860.047V187.121H814.264V240.491Z" fill="#DCEEFF"/>
<path id="Stroke 2_2" fill-rule="evenodd" clip-rule="evenodd" d="M814.264 240.491H860.047V187.121H814.264V240.491Z" stroke="#DCEEFF" stroke-width="5"/>
<path id="Fill 4_3" fill-rule="evenodd" clip-rule="evenodd" d="M811.096 240.491H857.732V187.121H811.096V240.491Z" fill="white"/>
<path id="Stroke 5_2" fill-rule="evenodd" clip-rule="evenodd" d="M811.096 240.491H857.732V187.121H811.096V240.491Z" stroke="#DCEEFF" stroke-width="5"/>
<path id="Fill 7_3" fill-rule="evenodd" clip-rule="evenodd" d="M822.135 226.603H844.544V200.912H822.135V226.603Z" fill="#CCE3FF"/>
</g>
</g>
<g id="Background Object / Flower / 3">
<g id="Group 16">
<path id="Fill 1_5" fill-rule="evenodd" clip-rule="evenodd" d="M1353.95 525.437C1353.95 525.437 1317.06 606.897 1312.65 695.466C1312.65 695.466 1333.3 605.712 1353.95 525.437Z" fill="#DCEEFF"/>
<path id="Fill 3_3" fill-rule="evenodd" clip-rule="evenodd" d="M1287.94 588.038C1287.94 588.038 1314.5 588.729 1318.54 677.298C1318.54 677.298 1307.21 610.452 1287.94 588.038Z" fill="#DCEEFF"/>
<path id="Fill 5_3" fill-rule="evenodd" clip-rule="evenodd" d="M1315.06 498.891C1315.06 498.891 1330.56 592.598 1315.3 687.95C1315.3 687.95 1316.21 588.361 1315.06 498.891Z" fill="#DCEEFF"/>
<path id="Fill 8_3" fill-rule="evenodd" clip-rule="evenodd" d="M1335.97 713.025H1297.63C1297.34 713.025 1297.05 713.02 1296.77 713.009C1279.29 712.356 1269.56 690.235 1279.46 674.277L1288.24 660.121H1345.35L1354.14 674.277C1364.04 690.235 1354.31 712.356 1336.83 713.009C1336.54 713.02 1336.26 713.025 1335.97 713.025Z" fill="#ECF6FF"/>
<path id="Stroke 11_2" d="M1275.5 692.678H1358.1" stroke="#B6D4FF" stroke-width="9"/>
<path id="Stroke 14" d="M1277.42 678.997H1356.45" stroke="#B6D4FF" stroke-width="9"/>
</g>
</g>
<g id="Background Object / Picture / 5">
<g id="Group 8_2">
<path id="Fill 1_6" fill-rule="evenodd" clip-rule="evenodd" d="M745.818 171.146H863.154V71.637H745.818V171.146Z" fill="#DCEEFF"/>
<path id="Stroke 2_3" fill-rule="evenodd" clip-rule="evenodd" d="M745.818 171.146H863.154V71.637H745.818V171.146Z" stroke="#DCEEFF" stroke-width="5"/>
<path id="Fill 4_4" fill-rule="evenodd" clip-rule="evenodd" d="M738.919 171.28H856.254V71.7709H738.919V171.28Z" fill="white"/>
<path id="Stroke 5_3" fill-rule="evenodd" clip-rule="evenodd" d="M738.919 171.28H856.254V71.7709H738.919V171.28Z" stroke="#DCEEFF" stroke-width="5"/>
<path id="Fill 7_4" fill-rule="evenodd" clip-rule="evenodd" d="M758.904 150.721H834.598V92.0614H758.904V150.721Z" fill="#DCEEFF"/>
</g>
</g>
<g id="Background Object / Pluteus / 2">
<g id="Group 21">
<path id="Fill 1_7" fill-rule="evenodd" clip-rule="evenodd" d="M171.714 253.88C173.807 271.444 188.756 285.07 206.885 285.07C225.014 285.07 239.964 271.444 242.056 253.88H171.714Z" fill="#ECF6FF"/>
<g id="Group 5">
<path id="Fill 3_4" fill-rule="evenodd" clip-rule="evenodd" d="M307.883 232.533C309.975 250.096 324.925 263.722 343.054 263.722C361.183 263.722 376.132 250.096 378.225 232.533H307.883Z" fill="#ECF6FF"/>
</g>
<path id="Fill 6_2" fill-rule="evenodd" clip-rule="evenodd" d="M307.883 253.88C309.975 271.444 324.925 285.07 343.054 285.07C361.183 285.07 376.132 271.444 378.225 253.88H307.883Z" fill="#ECF6FF"/>
<path id="Fill 8_4" fill-rule="evenodd" clip-rule="evenodd" d="M285.812 258.827H257.094L264.827 284.263H278.079L285.812 258.827Z" fill="#DCEEFF"/>
<path id="Fill 10_3" fill-rule="evenodd" clip-rule="evenodd" d="M424.985 258.827H396.268L404 284.263H417.253L424.985 258.827Z" fill="#DCEEFF"/>
<path id="Fill 12_2" fill-rule="evenodd" clip-rule="evenodd" d="M285.812 242.216H257.094L264.827 267.654H278.079L285.812 242.216Z" fill="#DCEEFF"/>
<path id="Fill 14" fill-rule="evenodd" clip-rule="evenodd" d="M448.705 290.322H194.171V279.63H448.705V290.322Z" fill="#DCEEFF"/>
<path id="Fill 16_2" fill-rule="evenodd" clip-rule="evenodd" d="M194.171 290.322H152.298V279.63H194.171V290.322Z" fill="#CCE3FF"/>
<path id="Fill 17_2" fill-rule="evenodd" clip-rule="evenodd" d="M386.667 290.322L366.79 321.507V290.322H386.667Z" fill="#B6D4FF"/>
<path id="Fill 18_3" fill-rule="evenodd" clip-rule="evenodd" d="M397.667 290.322L377.79 321.507H366.79L386.668 290.322H397.667Z" fill="#CCE3FF"/>
<path id="Fill 19_2" fill-rule="evenodd" clip-rule="evenodd" d="M240.883 290.322L221.005 321.507V290.322H240.883Z" fill="#B6D4FF"/>
<path id="Fill 20_3" fill-rule="evenodd" clip-rule="evenodd" d="M251.883 290.322L232.005 321.507H221.006L240.883 290.322H251.883Z" fill="#CCE3FF"/>
</g>
</g>
</g>
<g id="Person / Robot / 3">
<g id="Robot / Legs / 2">
<g id="Group 13">
<g id="Legs color">
<path id="Legs" fill-rule="evenodd" clip-rule="evenodd" d="M480.401 603.378H470.884V569.485C470.884 564.434 466.816 560.34 461.798 560.34H432.472C427.455 560.34 423.388 564.434 423.388 569.485V602.443H415.021C412.051 602.443 409.643 604.867 409.643 607.857V717.805C409.643 720.795 412.051 723.218 415.021 723.218H432.03C435.001 723.218 437.408 720.795 437.408 717.805C437.408 714.815 435.001 712.392 432.03 712.392H420.4V688.709C423.587 683.809 427.594 680.89 431.947 680.89C442.336 680.89 450.758 697.516 450.758 718.026C450.758 738.536 442.336 755.163 431.947 755.163C422.446 755.163 414.59 741.255 413.317 723.189C411.139 722.497 409.56 720.447 409.56 718.026V656.333C399.84 670.104 393.509 692.605 393.509 718.026C393.509 759.937 410.718 793.912 431.947 793.912C432.458 793.912 432.966 793.892 433.472 793.853H461.817C462.322 793.892 462.831 793.912 463.341 793.912C484.571 793.912 501.78 759.937 501.78 718.026C501.78 692.649 495.47 670.182 485.779 656.404V608.791C485.779 605.801 483.371 603.378 480.401 603.378ZM470.884 620.613V614.204H475.023V645.709C471.339 643.392 467.414 642.141 463.341 642.141L463.221 642.141H432.067L431.947 642.141C427.924 642.141 424.045 643.361 420.4 645.625V613.27H423.388V620.613C423.388 625.664 427.455 629.758 432.472 629.758H461.798C466.816 629.758 470.884 625.664 470.884 620.613Z" fill="#6CA1FF"/>
</g>
<path id="Path" fill-rule="evenodd" clip-rule="evenodd" d="M413.412 722.971C413.92 723.132 414.461 723.218 415.021 723.218H432.03C435 723.218 437.408 720.795 437.408 717.805C437.408 714.815 435 712.391 432.03 712.391H420.4V688.597C423.602 683.611 427.645 680.636 432.039 680.636C442.429 680.636 450.85 697.262 450.85 717.772C450.85 738.282 442.429 754.908 432.039 754.908C422.545 754.908 414.693 741.02 413.412 722.971L413.412 722.971Z" fill="#19141E"/>
<path id="Fill 10_4" fill-rule="evenodd" clip-rule="evenodd" d="M423.229 595.316H470.726V578.942H423.229V595.316Z" fill="#19141E"/>
<g id="Overlay">
<path id="Shape" opacity="0.395764" fill-rule="evenodd" clip-rule="evenodd" d="M475.383 645.756C475.222 645.648 475.059 645.538 474.893 645.429V614.473H470.596V603.646H480.271C483.241 603.646 485.649 606.07 485.649 609.06C485.735 629.836 485.778 645.457 485.779 655.925C485.483 655.533 485.184 655.149 484.883 654.774C484.655 654.458 484.432 654.148 484.227 653.925C484.174 653.868 484.122 653.811 484.072 653.756C494.881 667.186 502.064 690.95 502.064 718.026C502.064 759.937 484.855 793.912 463.625 793.912C463.115 793.912 462.607 793.892 462.101 793.853H433.756C454.278 792.273 470.67 758.929 470.67 718.026C470.67 676.195 453.525 642.269 432.351 642.141L463.505 642.141C463.545 642.141 463.585 642.141 463.625 642.141C467.726 642.141 471.677 643.409 475.383 645.756ZM481.672 651.007C481.96 651.31 482.245 651.62 482.529 651.936C482.276 651.641 482.006 651.341 481.672 651.007ZM420.4 712.392H432.03C435.001 712.392 437.408 714.815 437.408 717.805C437.408 720.795 435.001 723.218 432.03 723.218H415.021C412.051 723.218 409.643 720.795 409.643 717.805V607.857C409.643 604.867 412.051 602.443 415.021 602.443H432.03C435.001 602.443 437.408 604.867 437.408 607.857C437.408 610.846 435.001 613.27 432.03 613.27H420.4V712.392Z" fill="black"/>
</g>
</g>
</g>
<g id="Robot / Body / 1">
<g id="Group 24_2">
<path id="Stroke 1" d="M369.958 669.435L357.282 655.689L375.659 632.072L397.722 651.212L389.765 668.017" stroke="#19141E" stroke-width="15"/>
<path id="Stroke 3" d="M507.611 668.302L496.248 653.453L516.712 631.619L536.928 652.7L527.465 668.705" stroke="#19141E" stroke-width="15"/>
<path id="Stroke 5_4" d="M516.938 569.185L507.829 502.398" stroke="#19141E" stroke-width="27" stroke-linecap="round"/>
<path id="Stroke 13_2" d="M371.45 567.151L381.053 500.433" stroke="#19141E" stroke-width="27" stroke-linecap="round"/>
<path id="Fill 17_3" fill-rule="evenodd" clip-rule="evenodd" d="M478.783 529.918H452.849C448.984 529.918 445.852 526.785 445.852 522.921V496.987C445.852 493.123 448.984 489.99 452.849 489.99H478.783C482.647 489.99 485.779 493.123 485.779 496.987V522.921C485.779 526.785 482.647 529.918 478.783 529.918Z" fill="#19141E"/>
<path id="Fill 18_4" fill-rule="evenodd" clip-rule="evenodd" d="M472.166 529.918H452.849C448.984 529.918 445.852 526.785 445.852 522.921V496.987C445.852 493.123 448.984 489.99 452.849 489.99H472.166C476.03 489.99 479.163 493.123 479.163 496.987V522.921C479.163 526.785 476.03 529.918 472.166 529.918Z" fill="#405FD3"/>
<g id="Body color">
<path id="Body" fill-rule="evenodd" clip-rule="evenodd" d="M382.112 521.77C381.93 521.775 381.747 521.777 381.564 521.777C369.509 521.777 359.737 512.004 359.737 499.949C359.737 487.894 369.509 478.121 381.564 478.121C384.139 478.121 386.61 478.567 388.903 479.386C399.659 460.033 420.311 446.937 444.022 446.937C466.64 446.937 486.475 458.853 497.592 476.749C499.796 476 502.159 475.594 504.617 475.594C516.672 475.594 526.445 485.367 526.445 497.422C526.445 508.887 517.605 518.288 506.369 519.18C501.905 549.609 475.692 572.971 444.022 572.971C413.258 572.971 387.643 550.925 382.112 521.77ZM344.092 582.043C343.43 573.173 350.085 565.445 358.955 564.783L381.241 563.121C390.111 562.459 397.839 569.113 398.5 577.983L402.291 628.782C402.952 637.653 396.298 645.38 387.428 646.042L365.142 647.705C356.271 648.367 348.544 641.712 347.883 632.842L344.092 582.043ZM505.625 562.029C496.73 561.981 489.48 569.154 489.434 578.049L489.162 628.988C489.115 637.883 496.287 645.132 505.182 645.179L527.529 645.299C536.424 645.346 543.674 638.173 543.721 629.278L543.992 578.339C544.04 569.445 536.867 562.196 527.972 562.147L505.625 562.029Z" fill="#6CA1FF"/>
</g>
<path id="Fill 11_2" fill-rule="evenodd" clip-rule="evenodd" d="M419.959 451.749H468.086V435.833H419.959V451.749Z" fill="#19141E"/>
<path id="Path_2" fill-rule="evenodd" clip-rule="evenodd" d="M472.166 529.918C476.03 529.918 479.163 526.785 479.163 522.921V496.987C479.163 493.123 476.03 489.99 472.166 489.99H478.783C482.646 489.99 485.779 493.123 485.779 496.987V522.921C485.779 526.785 482.646 529.918 478.783 529.918H472.166Z" fill="#19141E"/>
<g id="Overlay_2">
<path id="Shape_2" opacity="0.401762" d="M362.643 580.329L371.615 579.623V579.623L362.643 580.329ZM352.964 572.064L352.257 563.091H352.257L352.964 572.064ZM366.644 631.142L375.616 630.436L366.644 631.142ZM358.378 640.821L357.671 631.849H357.671L358.378 640.821ZM348.699 632.555L339.727 633.262L348.699 632.555ZM344.698 581.742L335.726 582.449V582.449L344.698 581.742ZM372.56 579.482L381.532 578.775V578.775L372.56 579.482ZM362.881 571.216L362.175 562.244L362.881 571.216ZM376.561 630.295L385.533 629.589L376.561 630.295ZM368.295 639.974L367.589 631.001H367.589L368.295 639.974ZM358.617 631.708L349.644 632.414L358.617 631.708ZM354.615 580.895L345.643 581.601L345.643 581.601L354.615 580.895ZM371.615 579.623C370.834 569.712 362.168 562.311 352.257 563.091L353.67 581.036V581.036L371.615 579.623ZM375.616 630.436L371.615 579.623L353.67 581.036L357.671 631.849L375.616 630.436ZM359.084 649.793C368.995 649.013 376.396 640.346 375.616 630.436L357.671 631.849H357.671L359.084 649.793ZM339.727 633.262C340.507 643.172 349.174 650.574 359.084 649.793L357.671 631.849H357.671L339.727 633.262ZM335.726 582.449L339.727 633.262L357.671 631.849L353.67 581.036L335.726 582.449ZM352.257 563.091C342.347 563.872 334.946 572.538 335.726 582.449L353.67 581.036L353.67 581.036L352.257 563.091ZM381.532 578.775C380.752 568.865 372.085 561.464 362.175 562.244L363.588 580.188V580.188L381.532 578.775ZM385.533 629.589L381.532 578.775L363.588 580.188L367.589 631.001L385.533 629.589ZM369.002 648.946C378.912 648.166 386.314 639.499 385.533 629.589L367.589 631.001H367.589L369.002 648.946ZM349.644 632.414C350.425 642.325 359.091 649.726 369.002 648.946L367.589 631.001H367.589L349.644 632.414ZM345.643 581.601L349.644 632.414L367.589 631.001L363.588 580.188L345.643 581.601ZM362.175 562.244C352.264 563.024 344.863 571.691 345.643 581.601L363.588 580.188L363.588 580.188L362.175 562.244Z" fill="black"/>
<path id="Shape_3" opacity="0.397763" fill-rule="evenodd" clip-rule="evenodd" d="M472.192 529.894H452.874C449.01 529.894 445.877 526.761 445.877 522.897V496.963C445.877 493.099 449.01 489.966 452.874 489.966H472.192C476.056 489.966 479.188 493.099 479.188 496.963V522.897C479.188 526.761 476.056 529.894 472.192 529.894ZM456.179 507.924C458.978 507.924 461.248 505.654 461.248 502.854C461.248 500.055 458.978 497.786 456.179 497.786C453.379 497.786 451.11 500.055 451.11 502.854C451.11 505.654 453.379 507.924 456.179 507.924ZM470.584 507.924C473.383 507.924 475.653 505.654 475.653 502.854C475.653 500.055 473.383 497.786 470.584 497.786C467.784 497.786 465.515 500.055 465.515 502.854C465.515 505.654 467.784 507.924 470.584 507.924ZM456.179 522.574C458.978 522.574 461.248 520.305 461.248 517.505C461.248 514.706 458.978 512.436 456.179 512.436C453.379 512.436 451.11 514.706 451.11 517.505C451.11 520.305 453.379 522.574 456.179 522.574Z" fill="black"/>
<path id="Fill 14_2" opacity="0.404204" fill-rule="evenodd" clip-rule="evenodd" d="M359.084 499.765C359.084 511.819 368.856 521.592 380.911 521.592C392.966 521.592 402.739 511.819 402.739 499.765C402.739 487.71 392.966 477.937 380.911 477.937C368.856 477.937 359.084 487.71 359.084 499.765Z" fill="black"/>
<path id="Fill 16_3" opacity="0.398763" fill-rule="evenodd" clip-rule="evenodd" d="M489.876 578.164L489.605 629.103C489.558 637.998 496.73 645.247 505.625 645.295L527.972 645.414C536.867 645.461 544.117 638.289 544.164 629.393L544.435 578.455C544.482 569.56 537.31 562.311 528.415 562.263L506.068 562.144C497.173 562.097 489.923 569.269 489.876 578.164Z" fill="black"/>
<path id="Path_3" opacity="0.397856" fill-rule="evenodd" clip-rule="evenodd" d="M497.424 476.987C499.629 476.238 501.992 475.832 504.45 475.832C516.505 475.832 526.278 485.605 526.278 497.659C526.278 509.125 517.437 518.525 506.201 519.417C506.643 516.406 506.872 513.326 506.872 510.192C506.872 498.007 503.413 486.629 497.424 476.987H497.424Z" fill="black"/>
<path id="Fill 19_3" opacity="0.598121" fill-rule="evenodd" clip-rule="evenodd" d="M456.179 522.57C458.978 522.57 461.248 520.3 461.248 517.5C461.248 514.701 458.978 512.432 456.179 512.432C453.379 512.432 451.11 514.701 451.11 517.5C451.11 520.3 453.379 522.57 456.179 522.57Z" fill="black"/>
</g>
</g>
</g>
<g id="Robot / Head / 1">
<g id="Group 15">
<path id="Stroke 1_2" d="M431.699 360.301C431.699 360.301 442.202 367.248 443.357 379.266" stroke="#19141E" stroke-width="5" stroke-linecap="round"/>
<g id="Face color">
<path id="Face" fill-rule="evenodd" clip-rule="evenodd" d="M430.706 365.506C434.206 365.506 437.044 362.668 437.044 359.167C437.044 355.667 434.206 352.829 430.706 352.829C427.205 352.829 424.367 355.667 424.367 359.167C424.367 362.668 427.205 365.506 430.706 365.506ZM400.511 410.842H432.316V436.029H450.576V410.842H480.71C487.615 410.842 493.266 405.191 493.266 398.286V389.821C493.266 382.915 487.615 377.265 480.71 377.265H400.511C393.605 377.265 387.955 382.915 387.955 389.821V398.286C387.955 405.191 393.605 410.842 400.511 410.842Z" fill="#6CA1FF"/>
</g>
<g id="Overlay_3">
<path id="Fill 5_4" opacity="0.399042" fill-rule="evenodd" clip-rule="evenodd" d="M432.316 436.029H450.576V410.767H432.316V436.029Z" fill="black"/>
</g>
<path id="Fill 7_5" opacity="0.400367" fill-rule="evenodd" clip-rule="evenodd" d="M432.316 427.859L450.576 421.844V410.666H432.316V427.859Z" fill="black"/>
<path id="Fill 9_2" fill-rule="evenodd" clip-rule="evenodd" d="M400.51 410.842C393.605 410.842 387.955 405.191 387.955 398.286V389.821C387.955 382.915 393.605 377.265 400.51 377.265C407.416 377.265 413.066 382.915 413.066 389.821V398.286C413.066 405.191 407.416 410.842 400.51 410.842Z" fill="#19141E"/>
<path id="Fill 10_5" fill-rule="evenodd" clip-rule="evenodd" d="M420.203 394.054C420.203 399.37 424.513 403.68 429.83 403.68C435.147 403.68 439.457 399.37 439.457 394.054C439.457 388.736 435.147 384.426 429.83 384.426C424.513 384.426 420.203 388.736 420.203 394.054Z" fill="white"/>
<path id="Fill 11_3" fill-rule="evenodd" clip-rule="evenodd" d="M426.654 392.701C426.654 395.143 428.634 397.123 431.077 397.123C433.52 397.123 435.5 395.143 435.5 392.701C435.5 390.258 433.52 388.278 431.077 388.278C428.634 388.278 426.654 390.258 426.654 392.701Z" fill="#19141E"/>
<path id="Fill 12_3" fill-rule="evenodd" clip-rule="evenodd" d="M467.148 394.054C467.148 399.37 471.459 403.68 476.776 403.68C482.093 403.68 486.403 399.37 486.403 394.054C486.403 388.736 482.093 384.426 476.776 384.426C471.459 384.426 467.148 388.736 467.148 394.054Z" fill="white"/>
<path id="Fill 13_2" fill-rule="evenodd" clip-rule="evenodd" d="M473.6 392.701C473.6 395.143 475.58 397.123 478.023 397.123C480.465 397.123 482.445 395.143 482.445 392.701C482.445 390.258 480.465 388.278 478.023 388.278C475.58 388.278 473.6 390.258 473.6 392.701Z" fill="#19141E"/>
<path id="Fill 14_3" fill-rule="evenodd" clip-rule="evenodd" d="M451.103 387.455L459.713 393.989L451.103 400.652" fill="#19141E"/>
</g>
</g>
</g>
<g id="Person / Woman / 8">
<g id="Girl / Head / 1">
<g id="Group 27">
<path id="Hair" d="M1080.21 329.644C1080.2 330.036 1080.2 330.429 1080.2 330.822C1080.2 331.106 1080.2 331.382 1080.2 331.666L1080.2 331.666L1080.18 340.737L1080.08 407.397L1169.76 407.531L1169.88 331.799L1169.77 331.799C1169.84 330.763 1169.88 329.717 1169.88 328.663C1169.9 318.494 1166.53 309.111 1160.83 301.58C1171.21 298.916 1178.88 289.506 1178.9 278.297C1178.92 265.001 1168.16 254.206 1154.86 254.186C1141.57 254.167 1130.77 264.929 1130.75 278.225C1130.75 280.293 1131.01 282.301 1131.49 284.217C1129.41 283.916 1127.28 283.759 1125.11 283.756C1100.34 283.718 1080.24 303.764 1080.2 328.529C1080.2 328.902 1080.2 329.274 1080.21 329.644Z" fill="#19141E"/>
<g id="Face color_2">
<path id="Face_2" d="M1125.41 328.534C1124.67 328.766 1123.91 328.965 1123.12 329.128C1122.49 329.263 1121.84 329.371 1121.18 329.453C1120.12 329.595 1119.02 329.661 1117.91 329.66C1110.85 329.649 1104.69 326.801 1101.4 322.573C1101.22 323.247 1101.02 323.91 1100.8 324.56C1100.68 324.891 1100.56 325.234 1100.42 325.564C1099.53 327.789 1098.36 329.851 1096.94 331.69C1094.96 334.249 1092.5 336.381 1089.72 337.936C1090.97 346.882 1094.04 358.914 1101.25 363.713C1105.22 366.354 1112.44 366.679 1118.58 366.324L1120 383.791C1120 383.791 1129.98 379.436 1135.69 376.212C1136.68 375.659 1137.53 375.135 1138.19 374.672C1138.08 373.644 1137.83 371.25 1137.52 368.26V368.248C1136.95 362.865 1136.18 355.545 1135.68 350.721C1139.05 345.615 1148.22 344.466 1148.23 337.284C1148.23 335.131 1146.97 331.408 1142.33 331.402C1136.1 331.39 1136.98 338.86 1136.98 338.86C1133.45 340.235 1129.25 334.887 1125.41 328.534Z" fill="#E576C6"/>
</g>
<path id="Fill 11_4" fill-rule="evenodd" clip-rule="evenodd" d="M1101.68 341.102L1097.22 351.892L1102.39 351.789L1101.68 341.102Z" fill="#405FD3"/>
<path id="Fill 13_3" fill-rule="evenodd" clip-rule="evenodd" d="M1106.41 341.569C1106.53 343.725 1107.79 345.404 1109.25 345.321C1110.7 345.237 1111.79 343.422 1111.68 341.266C1111.57 339.11 1110.3 337.431 1108.85 337.515C1107.39 337.598 1106.3 339.414 1106.41 341.569Z" fill="#0D0B6D"/>
<path id="Fill 15_3" fill-rule="evenodd" clip-rule="evenodd" d="M1092.77 341.225C1092.88 343.38 1094.15 345.06 1095.6 344.977C1097.05 344.893 1098.14 343.077 1098.03 340.922C1097.92 338.766 1096.65 337.086 1095.2 337.17C1093.75 337.254 1092.66 339.069 1092.77 341.225Z" fill="#0D0B6D"/>
<path id="Stroke 21" d="M1103.66 356.957C1103.66 356.957 1107.02 358.043 1110.39 354.294" stroke="#1C295E" stroke-width="3"/>
<path id="Fill 23" opacity="0.401344" fill-rule="evenodd" clip-rule="evenodd" d="M1118.59 366.322C1118.59 366.322 1126.36 366.552 1129.68 364.741L1119 371.446L1118.59 366.322Z" fill="black"/>
</g>
</g>
<g id="Girl / Body / 2">
<g id="Group 23_2">
<g id="Skin color">
<path id="Skin" fill-rule="evenodd" clip-rule="evenodd" d="M1115.94 375.605C1116.95 374.714 1117.6 374.251 1117.6 374.251L1139.74 373.107C1139.74 373.107 1137.86 378.042 1135.86 384.292C1131.91 396.646 1122.55 399.423 1114.39 399.409C1106.78 399.397 1104.19 392.171 1109.14 383.796C1111.43 379.927 1114.2 377.136 1115.94 375.605ZM1185.43 503.068L1182.2 516.55C1182.2 516.55 1181.95 519.617 1182.11 523.174L1182.13 523.649C1182.28 526.934 1182.38 529.136 1180.84 534.5C1179.71 538.415 1185.1 536.485 1186.35 534.204C1186.81 533.363 1187.03 531.7 1187.26 529.972C1187.67 526.872 1188.12 523.562 1190.01 524.4C1192.97 525.705 1195.18 534.272 1195.91 542.567C1196.03 543.871 1197.15 544.779 1197.89 545.046C1199.1 545.48 1199.89 540.16 1199.89 540.16C1199.89 540.16 1200.76 541.856 1202.4 540.846C1202.98 540.488 1204.28 536.753 1204.28 536.753C1204.28 536.753 1205.44 534.834 1205.89 532.82C1206.69 529.262 1206.77 522.868 1206.21 521.076C1204.95 517.001 1202.54 510.265 1200.17 506.419C1200.26 495.716 1200.44 453.644 1197.44 445.881C1194.01 436.971 1187.78 425.025 1187.78 425.025L1169.33 437.362L1179.23 453.388L1185.43 503.068ZM1098.21 464.442C1099.44 454.632 1098.33 441.965 1098.33 441.965L1082.56 432.576L1078.57 455.925L1062.31 506.953C1059.12 510.706 1055.11 515.51 1054.54 516.634C1053.57 518.541 1051.77 527.983 1051.86 529.848C1051.94 531.713 1057.54 540.095 1057.54 540.095C1061.01 539.245 1058.74 534.916 1058.74 534.916C1058.74 534.916 1061.85 537.546 1063.15 537.501C1075.32 537.086 1074.67 530.922 1074.38 530.15C1073.73 528.417 1070.48 530.399 1070.48 530.399C1070.48 530.399 1076.85 517.485 1075.18 508.606C1080.36 500.185 1097.22 472.273 1098.21 464.442Z" fill="#E576C6"/>
</g>
<path id="Stroke 6" opacity="0.146833" d="M1068 513.483C1068 513.483 1066.29 519.936 1060.43 521.947C1058.38 522.65 1058.89 530.95 1053.86 529.957" stroke="black" stroke-width="3"/>
<g id="T-shirt">
<path id="T-shirt_2" fill-rule="evenodd" clip-rule="evenodd" d="M1135.86 384.292C1137.71 378.492 1139.47 373.825 1139.71 373.183C1146.03 373.155 1152.69 374.149 1159.78 378.715C1169.4 384.904 1183.83 404.354 1194.17 423.218L1162.58 441.846L1157.49 434.123C1157.49 434.123 1152.37 440.986 1150.95 450.182C1149.86 457.214 1150.41 462.928 1150.41 462.928H1099.81L1095.54 443.831L1076.31 436.89C1077.69 419.856 1085.68 391.364 1096.25 381.457C1101.79 376.254 1107.79 375.046 1117.41 374.395C1116.46 375.105 1112.33 378.404 1109.14 383.796C1104.19 392.171 1106.78 399.397 1114.39 399.409C1122.55 399.423 1131.91 396.646 1135.86 384.292ZM1136.72 373.263L1135.69 373.316C1136.03 373.297 1136.38 373.279 1136.72 373.263Z" fill="#72A065"/>
</g>
<path id="Stroke 15" opacity="0.204148" d="M1099.57 463.312C1097.64 438.805 1084.88 433.022 1094.5 405.539" stroke="black" stroke-width="4"/>
<path id="Path_4" opacity="0.195638" d="M1115.31 374.544C1115.31 374.549 1115.3 374.554 1115.3 374.56C1113.8 375.911 1111.87 377.881 1110.48 379.688C1109.62 380.8 1108.82 381.966 1108.1 383.184C1102.76 392.212 1105.65 400.598 1114.39 400.612C1125.31 400.63 1133.4 395.935 1137 384.658C1137.87 381.938 1138.78 379.268 1139.68 376.761C1139.99 375.884 1140.28 375.091 1140.54 374.395C1140.63 374.151 1140.71 373.938 1140.78 373.756C1140.82 373.647 1140.9 373.219 1140.91 373.182H1139.71C1139.38 373.182 1138.51 373.052 1138.4 373.279C1138.05 373.961 1137.73 375.065 1137.42 375.951C1136.51 378.482 1135.59 381.177 1134.71 383.926C1131.46 394.095 1124.35 398.223 1114.4 398.206C1107.8 398.195 1105.68 392.016 1110.17 384.408C1110.84 383.278 1111.58 382.195 1112.38 381.159C1113.69 379.472 1115.08 377.992 1116.48 376.733C1116.97 376.294 1117.42 375.915 1117.82 375.597C1118.03 375.431 1119.03 374.504 1119.3 374.266L1115.31 374.544Z" fill="black"/>
<path id="Stroke 21_2" opacity="0.204148" d="M1144.52 418.17L1156.24 435.929" stroke="black" stroke-width="4"/>
</g>
</g>
<g id="Girl / Legs / 2">
<g id="Group 15_2">
<g id="Shoes color">
<path id="Shoes" fill-rule="evenodd" clip-rule="evenodd" d="M1224.57 733.715L1209.59 718.604L1214.79 703.318L1246.27 729.506L1224.93 778.782C1224.93 778.782 1223.04 765.273 1223.14 751.476C1223.2 741.944 1224.57 733.715 1224.57 733.715ZM1043.61 770.386L1046.98 757.457L1062.35 758.037L1050.26 794.195L1002.33 763.898C1016.79 758.752 1043.61 770.386 1043.61 770.386Z" fill="#0D0B6D"/>
</g>
<g id="Skin color_2">
<path id="Skin_2" fill-rule="evenodd" clip-rule="evenodd" d="M1213.36 722.455L1215.01 703.304L1233.46 718.666L1224.57 733.716L1213.36 722.455ZM1046.39 759.642L1061.59 760.837L1056.28 775.893L1043.61 770.386L1046.39 759.642Z" fill="#E576C6"/>
</g>
<g id="Pants">
<path id="Pants_2" d="M1099.95 525.687C1096.89 539.112 1093.24 555.015 1088.89 573.793C1060.58 696.106 1042.59 763.605 1042.59 763.605L1045.16 764.387L1045.17 764.393L1058.83 768.56L1058.86 768.566L1069.82 771.91C1069.82 771.91 1102.73 693.528 1129.68 620.848C1134.92 630.978 1140.98 641.125 1147.98 651.119C1184.49 703.248 1217.33 736.612 1217.33 736.612L1220.9 730.033L1220.91 730.027L1228.99 715.133L1229.06 715.002L1232.59 708.5C1232.59 708.5 1178.85 651.569 1156.46 542.538C1160.62 528.401 1163.37 516.837 1164.07 509.256C1166.11 486.887 1151.64 466.8 1148.64 462.9H1113.98L1097.84 462.9C1097.49 465.727 1095.08 490.752 1099.95 525.687L1099.95 525.687Z" fill="#19141E"/>
</g>
<g id="Overlay_4">
<path id="Fill 12_4" opacity="0.145182" fill-rule="evenodd" clip-rule="evenodd" d="M1042.59 763.605L1045.16 764.387L1045.17 764.393L1058.83 768.56L1058.86 768.566L1069.82 771.91C1069.82 771.91 1102.73 693.528 1129.68 620.848C1140.33 592.125 1150.06 564.291 1156.46 542.538C1160.62 528.401 1163.37 516.837 1164.07 509.256C1166.11 486.887 1151.64 466.8 1148.64 462.9H1113.98C1112.24 471.056 1108.26 489.282 1099.95 525.687C1096.89 539.112 1093.24 555.015 1088.89 573.793C1060.58 696.106 1042.59 763.605 1042.59 763.605Z" fill="white"/>
</g>
</g>
</g>
</g>
<g id="Person / Robot / 4">
<g id="Robot / Legs / 2_2">
<g id="Group 35">
<path id="Stroke 1_3" d="M711.232 640.029L703.404 712.589" stroke="#19141E" stroke-width="23" stroke-linecap="round"/>
<path id="Stroke 2_4" d="M650.004 640.029L642.176 712.589" stroke="#19141E" stroke-width="23" stroke-linecap="round"/>
<path id="Stroke 3_2" d="M700.109 509.951L710.941 630.158" stroke="#19141E" stroke-width="23" stroke-linecap="round"/>
<path id="Stroke 8" d="M644.205 509.04C644.224 505.22 647.316 502.139 651.111 502.158C654.907 502.177 657.968 505.289 657.949 509.11L657.351 629.012C657.332 632.832 654.24 635.914 650.445 635.894C646.65 635.875 643.588 632.763 643.607 628.943L644.205 509.04Z" fill="#19141E"/>
<g id="Legs color_2">
<path id="Legs_2" fill-rule="evenodd" clip-rule="evenodd" d="M636.454 505.027C636.475 511.259 639.506 516.808 644.149 520.276L644.205 509.04C644.224 505.22 647.316 502.139 651.111 502.158C654.907 502.177 657.968 505.289 657.949 509.11L657.874 524.016L698.274 523.879C708.689 523.844 717.183 515.237 717.148 504.754C717.113 494.27 708.563 485.721 698.146 485.756L655.329 485.901C644.913 485.936 636.419 494.542 636.454 505.027ZM676.814 762.269L675.325 776.038C672.183 769.482 666.203 764.562 658.989 762.895L667.277 686.068C667.707 682.08 664.845 678.501 660.883 678.068L630.263 674.718C626.296 674.285 622.74 677.166 622.31 681.154L613.561 762.269L610.932 786.575L610.143 793.901H740.964V786.575C740.958 775.033 732.962 765.373 722.242 762.895L730.53 686.068C730.961 682.08 728.098 678.501 724.136 678.068L693.517 674.718C689.549 674.285 685.993 677.166 685.563 681.154L676.814 762.269ZM665.893 633.907C665.893 643.458 658.2 651.201 648.711 651.201C639.222 651.201 631.529 643.458 631.529 633.907C631.529 624.355 639.222 616.613 648.711 616.613C658.2 616.613 665.893 624.355 665.893 633.907ZM711.893 651.201C721.382 651.201 729.075 643.458 729.075 633.907C729.075 624.355 721.382 616.613 711.893 616.613C702.403 616.613 694.71 624.355 694.71 633.907C694.71 643.458 702.403 651.201 711.893 651.201Z" fill="#6CA1FF"/>
</g>
<path id="Path_5" opacity="0.397182" fill-rule="evenodd" clip-rule="evenodd" d="M677.665 786.521C677.663 782.745 676.806 779.171 675.279 775.984L676.768 762.215L685.517 681.1C685.947 677.112 689.503 674.231 693.47 674.664L724.09 678.014C728.052 678.447 730.914 682.026 730.484 686.014L722.196 762.841C732.916 765.319 740.912 774.979 740.918 786.521V793.847H610.143L610.932 786.521H677.665Z" fill="black"/>
<path id="Fill 23_2" opacity="0.401204" fill-rule="evenodd" clip-rule="evenodd" d="M729.065 633.872C729.065 643.424 721.371 651.167 711.883 651.167C702.393 651.167 694.7 643.424 694.7 633.872C694.7 624.321 702.393 616.578 711.883 616.578C721.371 616.578 729.065 624.321 729.065 633.872Z" fill="black"/>
<path id="Shape_4" opacity="0.596656" fill-rule="evenodd" clip-rule="evenodd" d="M637.361 691.045C637.361 693.804 635.139 696.04 632.398 696.04C629.657 696.04 627.434 693.804 627.434 691.045C627.434 688.286 629.657 686.049 632.398 686.049C635.139 686.049 637.361 688.286 637.361 691.045ZM635.606 707.336C635.606 710.095 633.385 712.332 630.644 712.332C627.903 712.332 625.68 710.095 625.68 707.336C625.68 704.577 627.903 702.34 630.644 702.34C633.385 702.34 635.606 704.577 635.606 707.336Z" fill="black"/>
<path id="Fill 25" opacity="0.396019" fill-rule="evenodd" clip-rule="evenodd" d="M632.165 769.009C632.165 772.639 629.242 775.581 625.636 775.581C622.03 775.581 619.107 772.639 619.107 769.009C619.107 765.379 622.03 762.437 625.636 762.437C629.242 762.437 632.165 765.379 632.165 769.009Z" fill="black"/>
</g>
</g>
<g id="Robot / Body / 1_2">
<g id="Group 18">
<path id="Stroke 1_4" d="M716.867 472.901L743.833 531.131" stroke="#19141E" stroke-width="16" stroke-linecap="round"/>
<path id="Fill 8_5" fill-rule="evenodd" clip-rule="evenodd" d="M664.155 485.756H685.069V468.915H664.155V485.756Z" fill="#19141E"/>
<path id="Stroke 12" d="M615.505 537.158L621.29 473.675" stroke="#19141E" stroke-width="16" stroke-linecap="round"/>
<g id="Body color_2">
<path id="Body_2" fill-rule="evenodd" clip-rule="evenodd" d="M637.989 469.658L637.575 470.478C633.875 477.79 624.868 480.747 617.556 477.048L616.324 476.425C609.012 472.726 606.056 463.718 609.754 456.406L630.68 415.037C633.495 409.471 639.387 406.429 645.265 406.924C648.043 405.786 651.079 405.157 654.254 405.157H694.97C700.691 405.157 705.96 407.197 710.084 410.586C715.521 411.791 720.084 416.008 721.418 421.77L731.883 466.935C733.732 474.917 728.713 482.961 720.731 484.811L719.386 485.122C711.783 486.884 704.124 482.415 701.814 475.089C699.644 475.743 697.346 476.095 694.97 476.095H654.254C647.985 476.095 642.261 473.646 637.989 469.658ZM749.402 556.009L742.671 562.017C742.364 561.672 741.878 561.091 741.272 560.303C740.281 559.016 739.293 557.59 738.366 556.054C735.864 551.905 734.238 547.706 733.953 543.537C733.571 537.93 735.728 532.946 740.652 529.353C745.58 525.757 750.716 525.448 755.112 528.279C758.246 530.298 760.661 533.647 762.649 537.957C763.652 540.134 764.482 542.432 765.159 544.726C765.395 545.526 765.596 546.272 765.763 546.947C765.867 547.365 765.938 547.677 765.978 547.865L757.152 549.736C757.133 549.644 757.084 549.431 757.006 549.115C756.869 548.565 756.703 547.947 756.506 547.279C755.944 545.375 755.257 543.475 754.455 541.734C753.121 538.84 751.623 536.764 750.226 535.864C749.064 535.116 747.97 535.182 745.97 536.641C743.63 538.349 742.777 540.319 742.955 542.923C743.125 545.422 744.265 548.365 746.092 551.394C746.831 552.62 747.628 553.769 748.422 554.801C748.696 555.158 748.949 555.472 749.171 555.738C749.228 555.806 749.275 555.862 749.313 555.906C749.357 555.958 749.387 555.992 749.402 556.009ZM597.307 560.694L606.314 560.162C606.312 560.139 606.309 560.059 606.304 559.926C606.274 558.964 606.292 557.729 606.397 556.333C606.549 554.324 606.857 552.363 607.349 550.57C608.807 545.248 611.318 542.677 615.646 542.847C619.375 542.994 620.303 544.72 619.628 549.572C619.364 551.466 618.813 553.562 618.059 555.719C617.662 556.852 617.236 557.926 616.811 558.9C616.664 559.237 616.53 559.535 616.41 559.79C616.343 559.932 616.3 560.023 616.284 560.055L624.365 564.068C624.521 563.752 624.771 563.22 625.082 562.504C625.592 561.335 626.099 560.056 626.574 558.699C627.512 556.022 628.209 553.369 628.564 550.816C629.134 546.717 628.807 543.097 627.187 540.083C625.106 536.213 621.215 534.038 616.002 533.832C606.744 533.467 601.095 539.251 598.647 548.186C597.494 552.393 597.173 556.653 597.287 560.215C597.294 560.43 597.301 560.591 597.307 560.694Z" fill="#6CA1FF"/>
</g>
<path id="Fill 11_5" fill-rule="evenodd" clip-rule="evenodd" d="M675.075 452.844H695.062C699.033 452.844 702.28 449.596 702.28 445.627V433.906C702.28 429.936 699.033 426.688 695.062 426.688H675.075C671.105 426.688 667.857 429.936 667.857 433.906V445.627C667.857 449.596 671.105 452.844 675.075 452.844Z" fill="#19141E"/>
<g id="Overlay_5">
<path id="Shape_5" opacity="0.399182" fill-rule="evenodd" clip-rule="evenodd" d="M630.617 415.127C634.315 407.815 643.324 404.859 650.636 408.557L651.867 409.18C659.179 412.879 662.136 421.887 658.437 429.199L637.512 470.569C633.813 477.881 624.805 480.837 617.493 477.139L616.261 476.515C608.949 472.817 605.993 463.809 609.692 456.496L630.617 415.127ZM713.895 476.211C711.637 474.827 710.637 472.17 711.254 469.731C708.62 472.164 705.441 474.015 701.928 475.074C704.237 482.401 711.896 486.869 719.499 485.108L720.845 484.796C728.827 482.946 733.845 474.902 731.996 466.92L721.531 421.755C720.197 415.993 715.634 411.776 710.197 410.571C715.537 414.959 718.958 421.608 718.958 429.017V452.206C718.958 457.209 717.398 461.865 714.742 465.712C716.423 465.025 718.398 465.12 720.065 466.142C722.846 467.846 723.719 471.481 722.015 474.262C720.311 477.042 716.676 477.915 713.895 476.211ZM742.567 561.694L749.298 555.686C749.27 555.656 749.191 555.564 749.067 555.416C748.845 555.149 748.592 554.835 748.318 554.478C747.524 553.447 746.727 552.297 745.988 551.071C744.161 548.042 743.021 545.099 742.85 542.6C742.673 539.996 743.525 538.026 745.865 536.319C747.866 534.859 748.96 534.793 750.122 535.542C751.519 536.442 753.016 538.517 754.351 541.412C755.153 543.152 755.84 545.052 756.401 546.956C756.599 547.624 756.765 548.243 756.901 548.792C756.98 549.109 757.028 549.322 757.048 549.413L765.874 547.542C765.834 547.354 765.763 547.042 765.659 546.624C765.492 545.95 765.291 545.204 765.055 544.403C764.378 542.109 763.548 539.811 762.544 537.635C760.557 533.324 758.142 529.976 755.008 527.957C750.612 525.125 745.475 525.435 740.547 529.03C735.624 532.623 733.467 537.608 733.849 543.214C734.133 547.384 735.76 551.582 738.262 555.731C739.188 557.267 740.176 558.693 741.167 559.981C741.773 560.768 742.259 561.35 742.567 561.694ZM625.954 456.606C629.076 457.549 630.841 460.845 629.899 463.966C628.956 467.088 625.66 468.853 622.538 467.911C619.417 466.967 617.651 463.672 618.594 460.551C619.537 457.428 622.833 455.663 625.954 456.606ZM649.535 425.146C650.478 422.024 648.712 418.729 645.59 417.785C642.469 416.842 639.173 418.608 638.23 421.73C637.287 424.851 639.053 428.146 642.175 429.09C645.296 430.033 648.592 428.267 649.535 425.146ZM597.312 560.753L606.318 560.221C606.317 560.198 606.313 560.118 606.309 559.985C606.278 559.023 606.297 557.788 606.402 556.392C606.553 554.383 606.862 552.422 607.353 550.629C608.811 545.307 611.323 542.736 615.651 542.906C619.38 543.053 620.308 544.779 619.633 549.631C619.369 551.525 618.818 553.621 618.063 555.777C617.667 556.911 617.24 557.985 616.816 558.959C616.669 559.296 616.534 559.594 616.415 559.849C616.348 559.991 616.304 560.081 616.288 560.114L624.369 564.126C624.526 563.811 624.775 563.279 625.087 562.563C625.596 561.394 626.104 560.115 626.579 558.758C627.516 556.08 628.213 553.428 628.569 550.875C629.139 546.776 628.812 543.156 627.191 540.142C625.111 536.272 621.22 534.097 616.006 533.891C606.748 533.526 601.1 539.31 598.652 548.245C597.499 552.452 597.178 556.712 597.292 560.273C597.298 560.489 597.306 560.65 597.312 560.753Z" fill="black"/>
</g>
<g id="Overlay parts">
<path id="Shape_6" opacity="0.601772" fill-rule="evenodd" clip-rule="evenodd" d="M629.88 463.953C628.937 467.075 625.642 468.84 622.52 467.898C619.399 466.954 617.633 463.659 618.576 460.537C619.519 457.415 622.814 455.65 625.936 456.593C629.058 457.536 630.823 460.832 629.88 463.953ZM649.517 425.133C648.574 428.254 645.278 430.02 642.156 429.077C639.035 428.133 637.269 424.838 638.212 421.717C639.155 418.595 642.451 416.829 645.572 417.772C648.694 418.716 650.46 422.011 649.517 425.133ZM722.01 474.297C720.306 477.077 716.671 477.95 713.89 476.246C711.11 474.542 710.237 470.907 711.941 468.126C713.644 465.346 717.28 464.473 720.06 466.177C722.841 467.881 723.714 471.516 722.01 474.297Z" fill="black"/>
</g>
</g>
</g>
<g id="Robot / Head / 1_2">
<g id="Group 24_3">
<path id="Stroke 1_5" d="M715.143 366.139V324.128" stroke="#19141E" stroke-width="7"/>
<path id="Fill 5_5" fill-rule="evenodd" clip-rule="evenodd" d="M718.923 383.97H701.552V358.078H718.923C726.043 358.078 731.869 363.903 731.869 371.024C731.869 378.144 726.043 383.97 718.923 383.97Z" fill="#19141E"/>
<g id="Face color_3">
<path id="Face_3" fill-rule="evenodd" clip-rule="evenodd" d="M705.829 315.885C706.43 311.276 710.371 307.718 715.143 307.718C720.33 307.718 724.535 311.923 724.535 317.111C724.535 322.299 720.33 326.505 715.143 326.505C711.349 326.505 708.08 324.255 706.597 321.017L700.047 316.005L691.133 322.825L682.226 316.005L673.316 322.825L664.409 316.005L655.5 322.825L650.582 319.06C649.685 323.313 645.911 326.505 641.392 326.505C636.204 326.505 631.999 322.299 631.999 317.111C631.999 311.923 636.204 307.718 641.392 307.718C645.621 307.718 649.197 310.513 650.374 314.356L655.5 318.28L664.409 311.46L673.316 318.28L682.226 311.46L691.134 318.28L700.047 311.461L705.829 315.885ZM711.75 403.103H644.137C638.754 403.103 634.39 398.739 634.39 393.356V348.692C634.39 343.309 638.754 338.945 644.137 338.945H711.75C717.133 338.945 721.497 343.309 721.497 348.692V393.356C721.497 398.739 717.133 403.103 711.75 403.103ZM650.439 411.944H705.448C707.889 411.944 709.868 409.965 709.868 407.523C709.868 405.082 707.889 403.103 705.448 403.103H650.439C647.998 403.103 646.018 405.082 646.018 407.523C646.018 409.965 647.998 411.944 650.439 411.944Z" fill="#6CA1FF"/>
</g>
<g id="Overlay_6">
<path id="Stroke 21_3" opacity="0.404367" d="M664.409 316.005L655.5 322.825L650.582 319.096L650.351 314.34L655.5 318.28L664.409 311.46L673.316 318.28L682.226 311.46L691.134 318.28L700.047 311.461L705.75 316.005L706.698 321.047L700.047 316.005L691.133 322.825L682.226 316.005L673.316 322.825L664.409 316.005Z" fill="black"/>
<path id="Fill 9_3" opacity="0.395624" fill-rule="evenodd" clip-rule="evenodd" d="M705.448 411.944H650.439C647.998 411.944 646.018 409.965 646.018 407.523C646.018 405.082 647.998 403.103 650.439 403.103H705.448C707.889 403.103 709.868 405.082 709.868 407.523C709.868 409.965 707.889 411.944 705.448 411.944Z" fill="black"/>
</g>
<path id="Fill 11_6" fill-rule="evenodd" clip-rule="evenodd" d="M631.268 383.97H648.638V358.078H631.268C624.147 358.078 618.322 363.903 618.322 371.024C618.322 378.144 624.147 383.97 631.268 383.97Z" fill="#19141E"/>
<path id="Fill 14_4" fill-rule="evenodd" clip-rule="evenodd" d="M715.143 371.024C715.143 380.924 708.731 388.95 700.822 388.95C692.913 388.95 686.502 380.924 686.502 371.024C686.502 361.123 692.913 353.097 700.822 353.097C708.731 353.097 715.143 361.123 715.143 371.024Z" fill="#19141E"/>
<path id="Fill 16_4" fill-rule="evenodd" clip-rule="evenodd" d="M694.093 388.95H700.822V353.097H694.093V388.95Z" fill="#19141E"/>
<path id="Fill 18_5" fill-rule="evenodd" clip-rule="evenodd" d="M708.413 371.024C708.413 380.924 702.002 388.95 694.092 388.95C686.183 388.95 679.772 380.924 679.772 371.024C679.772 361.123 686.183 353.097 694.092 353.097C702.002 353.097 708.413 361.123 708.413 371.024Z" fill="white"/>
<path id="Fill 19_4" fill-rule="evenodd" clip-rule="evenodd" d="M701.424 369.821C701.424 373.306 699.167 376.132 696.383 376.132C693.598 376.132 691.342 373.306 691.342 369.821C691.342 366.336 693.598 363.51 696.383 363.51C699.167 363.51 701.424 366.336 701.424 369.821Z" fill="#19141E"/>
<path id="Stroke 20" d="M641.392 366.139V326.063" stroke="#19141E" stroke-width="7"/>
</g>
</g>
</g>
</g>
</svg>
