<svg width="56" height="48" viewBox="0 0 56 48" fill="none" xmlns="http://www.w3.org/2000/svg">
<path d="M52.2282 35.1455C49.482 33.6319 46.135 34.038 43.88 35.9331L40.4554 34.0441V24.7101C40.4554 23.7441 39.9127 22.8458 39.0339 22.3659L30.2464 17.5481V13.4195C33.1023 12.4966 35.157 9.92467 35.157 6.89127C35.157 3.08261 31.9199 0 27.9202 0C23.9206 0 20.6834 3.08261 20.6834 6.89127C20.6834 9.92467 22.7382 12.4966 25.5941 13.4195V17.5481L16.8066 22.3659C15.9278 22.8458 15.3851 23.7441 15.3851 24.7101V34.038L11.9605 35.9269C9.70547 34.0318 6.35199 33.6257 3.61234 35.1393C0.155478 37.0468 -1.0205 41.2554 0.963158 44.5472C2.95328 47.839 7.35351 48.9711 10.7975 47.0699C13.5436 45.5562 14.8488 42.5782 14.2608 39.7602L17.4075 38.0189L26.4923 43.0028C26.9317 43.2427 27.4227 43.3658 27.9138 43.3658C28.4049 43.3658 28.8959 43.2427 29.3353 43.0028L38.4136 38.0251L41.5603 39.7663C40.9723 42.5782 42.284 45.5624 45.0237 47.076C48.4676 48.9773 52.8743 47.8513 54.858 44.5533C56.8481 41.2554 55.6721 37.0468 52.2282 35.1455ZM8.74272 43.6611C8.39176 43.8547 8.00407 43.9803 7.60196 44.0306C7.19984 44.0809 6.79125 44.055 6.39969 43.9543C6.00814 43.8537 5.64135 43.6803 5.32045 43.4441C4.99955 43.208 4.73086 42.9137 4.52987 42.5782C3.67696 41.1692 4.18095 39.3603 5.66062 38.5481C6.01157 38.3545 6.39927 38.229 6.80138 38.1786C7.2035 38.1283 7.61209 38.1542 8.00365 38.2549C8.3952 38.3555 8.76199 38.5289 9.08289 38.7651C9.40379 39.0013 9.67247 39.2955 9.87347 39.631C10.7264 41.04 10.2224 42.849 8.74272 43.6611ZM24.8123 6.89127C24.8289 6.11842 25.1629 5.38254 25.7427 4.84155C26.3226 4.30055 27.102 3.99755 27.9138 3.99755C28.7256 3.99755 29.505 4.30055 30.0848 4.84155C30.6647 5.38254 30.9987 6.11842 31.0153 6.89127C30.9987 7.66413 30.6647 8.4 30.0848 8.941C29.505 9.48199 28.7256 9.785 27.9138 9.785C27.102 9.785 26.3226 9.48199 25.7427 8.941C25.1629 8.4 24.8289 7.66413 24.8123 6.89127ZM35.7967 34.3456L27.9138 38.6711L20.0308 34.3456V25.7069L27.9138 21.3814L35.7967 25.7069V34.3456ZM51.2977 42.5844C50.4448 43.9934 48.5581 44.4795 47.0849 43.6673C45.6116 42.8551 45.1012 41.0462 45.9541 39.6371C46.807 38.2281 48.6938 37.742 50.167 38.5542C51.6466 39.3664 52.1506 41.1692 51.2977 42.5844Z" fill="#BEBAE0"/>
</svg>
