<svg xmlns="http://www.w3.org/2000/svg" viewBox="0 0 475.95 344.88"><defs><style>.cls-1{fill:#f8f6f9;}.cls-2{fill:#f8f7f8;}.cls-3{fill:#fdfefe;}.cls-4{fill:#fefefe;}.cls-5{fill:#f5f3f6;}.cls-6{fill:#e9eae9;}.cls-7{fill:#f7f7f7;}.cls-8{fill:#e0dfe1;}.cls-9{fill:#f0f2f1;}.cls-10{fill:#f2f1f2;}.cls-11{fill:#a39eda;}.cls-12{fill:#e5e5e3;}.cls-13{fill:#eaeceb;}.cls-14{fill:#f4f7f4;}.cls-15{fill:#e9e7ea;}.cls-16{fill:#edebed;}.cls-17{fill:#dce1db;}.cls-18{fill:#aebea2;}.cls-19{fill:#acbca1;}.cls-20{fill:#a8b89e;}.cls-21{fill:#aaba9e;}.cls-22{fill:#552c17;}.cls-23{fill:#c5bfbb;}.cls-24{fill:#572c18;}</style></defs><g id="Layer_2" data-name="Layer 2"><g id="Layer_1-2" data-name="Layer 1"><path class="cls-1" d="M162.72,22.58c1,2.19,2.17,4.33,3,6.59a66.35,66.35,0,0,1,3,9.55c1.36,6.69,2.41,13.44,3.56,20.17,1.74,10.18,3.59,20.34,8.91,29.38,1.52,2.57,3.38,4.92,5.08,7.38l.67-.28a37.31,37.31,0,0,0,.31-4c-.27-10.13-.6-20.27-.9-30.4,0-.5,0-1,0-1.49a85.49,85.49,0,0,0,9.3,2.67c5.17.89,10.44,1.2,15.63,2,9.59,1.53,19.27,1.56,28.92,1.74,12,.23,24,.1,36.06,0,4.09,0,8.18-.3,12.26-.56,3.29-.22,6.59-.48,9.85-.92,6.89-.93,13.8-1.82,20.63-3.11,2.19-.41,4.78-.67,6.33-2.88l.2.75c0,.26,0,.51,0,.77l-.06,1.47-.09,7.87c0,.25,0,.5,0,.75q-.18,6.54-.34,13.09a35.75,35.75,0,0,0-3.45-1c-.76-.15-1.83-.32-2.31.08a9.56,9.56,0,0,0-2.33,3c-.61,1.19-.68,2.68-1.34,3.83a17.09,17.09,0,0,0-1.94,10.92,10.4,10.4,0,0,0,2,4.85c2.28,2.88,5.44,3.39,8.9,1.92-.11,6.91-.39,13.81-.3,20.72.1,8.32.2,16.67.9,25,.66,7.84,2.11,15.62,3.22,23.42a19.21,19.21,0,0,1-1.47,3.58c-2.93,4.4-3.55,9.53-4,14.51-.62,6.42,2,12.15,5.46,17.39a10.33,10.33,0,0,0,2,1.79c.11,5.13.24,10.26.32,15.39,0,1.47-.08,2.94-.13,4.41l-.78,1.84-16.29,2.56c-4.05.63-8.08,1.36-12.14,1.89-6.6.86-13.21,1.63-19.83,2.38s-13.22,1.88-19.85,2c-8.67.18-17.36.56-26.05-.5a104.48,104.48,0,0,1-19-3.62A75.43,75.43,0,0,1,196.46,230a62.1,62.1,0,0,1-15-14.08l-5.71-7.7.51-7.45c.16-1.87.32-3.73.47-5.6l.24-1.91a15.26,15.26,0,0,0,.35-1.63q1.11-9.83,2.19-19.67.24-3.41.5-6.79.22-2.78.47-5.55c.2-.34.55-.67.6-1,.89-6.87,1.74-13.74,2.61-20.61.05-.43.2-.85.23-1.28q.39-4.71.74-9.42c0-.13-.21-.27-.38-.5l-1.13.52c-1.59.76-3.11,1.86-4.78,2.24-3.75.85-7.1-.41-10.11-2.73-5.16-4-7.17-9.85-9.2-15.71-1.37-4-2.7-7.95-4.11-11.9-.18-.52-.74-.9-1.12-1.34L153.51,96l.15-17.59-.06-12.43c.08-9.05-.45-18-3.6-26.62a32,32,0,0,0-9.87-14.25c-2.12-1.71-4.7-2.84-7.08-4.2a11.33,11.33,0,0,0-1.43-.6V19.7a35.79,35.79,0,0,1,4.18-.8,24.25,24.25,0,0,1,5.32.07A15,15,0,0,1,145,20.39c1.12.51,1.78.35,2.27-.88,1.06-2.7,2.29-5.33,3.33-8,.43-1.13,1.07-1.36,1.92-.72,1.37,1,2.64,2.16,4,3.25Z"/><path class="cls-2" d="M186.52,57.41c-.14-1.24-.6-2.54-.37-3.7,1.13-5.66,4.72-9.79,8.64-13.67a43.43,43.43,0,0,1,4.29-4.29,77.53,77.53,0,0,1,8.34-5.45,123.93,123.93,0,0,1,13.51-7.06,91.88,91.88,0,0,1,14.31-4.33c4.57-1.07,9.27-1.55,13.92-2.29a26.48,26.48,0,0,0,.09,4.46c.12.7,1,1.76,1.57,1.79,3.17.16,6.35.1,9.53,0a1.89,1.89,0,0,0,2.09-2.35c-.13-1.29,0-2.61,0-3.91A93.28,93.28,0,0,1,306,31.46C311.46,35,316.52,39,320.5,44.14a36.47,36.47,0,0,1,4.61,8.2c.6,1.45.09,3.37.09,5.08a16.16,16.16,0,0,1-2.65,1.14c-4,.93-7.93,2.13-12,2.57-10.86,1.18-21.75,2.64-32.66,2.87-16.58.34-33.18.6-49.78-.52-9.26-.62-18.5-.93-27.7-2.54C195.68,60.1,190.93,59.53,186.52,57.41Z"/><path class="cls-3" d="M204.27,293.92l-1.44-14.17,1.37.44c3.2,1,6.35,2.26,9.63,2.81,4.92.82,9.93,1.24,14.92,1.64,8.61.68,17.24,1.64,25.87,1.71,13.05.09,26.12.68,39.16-.28q10.5-.76,21-1.55a37.33,37.33,0,0,0,4.36-.53c3.88-.73,7.73-1.55,11.6-2.32,1.17-.23,1.9.42,1.48,1.34-.64,1.42-1.38,2.81-2.08,4.2a4.09,4.09,0,0,0-1,.71c-1.23,1.67-2.33,3.47-3.64,5.08-3.44,4.17-6.79,8.45-10.5,12.35a94,94,0,0,1-10.77,9.79,82.3,82.3,0,0,1-11.7,7.39c-5,2.6-10.17,4.75-15.3,7-2.78,1.25-5.56,2.51-8.43,3.53-3,1.08-6.17,1.91-9.27,2.82a17.67,17.67,0,0,1-1.79.34c-1.7.3-3.39.58-5.07.95-.25.05-.4.56-.6.86l-13.8-4.2-4.53-2.12-2.15-1.25-1.74-1-2.21-1-2.23-2q-2.62-2.28-5.23-4.58l-3.18-3.3a12.9,12.9,0,0,0-.81-1.22,54.65,54.65,0,0,1-9.8-18C205.76,297.51,205,295.73,204.27,293.92Z"/><path class="cls-4" d="M161.42,204.93l-.09,2.19c-.07,1.25-.15,2.49-.22,3.73-.06.65-.11,1.29-.17,1.94,0,.34,0,.68-.05,1l-.43,1.17-.65,3.38c-1,5.26-3.36,10-5.69,14.77-2,4.09-5.12,7.32-7.69,11l-.81.76c-1.42,1.26-2.87,2.49-4.25,3.78-3.78,3.54-8.3,5.86-12.82,8.19a9.24,9.24,0,0,0-1.32,1c-.92.28-1.84.56-2.77.82l-13.27,3.82c-.59-.58-1.1-1.47-1.8-1.68C104.26,259.21,99,258,94,256.28a157.34,157.34,0,0,1-14.72-6.11c-3.59-1.67-6.85-4.1-10.49-5.62s-6.27-4.22-9.44-6.25a36.8,36.8,0,0,1-5.43-4.4A98.27,98.27,0,0,1,46.1,226c-3.05-3.6-5.74-7.52-8.66-11.24A30.07,30.07,0,0,0,34.59,212c-.5-1.26-1-2.52-1.49-3.78-.2-.53-.35-1.08-.52-1.62a6.06,6.06,0,0,1,2-.37c2.71.47,5.37,1.25,8.09,1.57,6.49.75,13,1.44,19.51,1.9,6,.43,12.06.74,18.09.74,14.64,0,29.27-.2,43.91-.34a10.75,10.75,0,0,0,1.27-.16c5.22-.52,10.45-.91,15.64-1.59,4.62-.61,9.2-1.61,13.82-2.29C157.09,205.71,159.08,204.23,161.42,204.93Z"/><path class="cls-5" d="M475.67,194.7a52.7,52.7,0,0,1-.68,15.55,49.37,49.37,0,0,1-10,21c-.7.9-1.47,1.73-2.21,2.59l-1.28.83c-2.22,1.51-4.37,3.17-6.69,4.52-8.35,4.83-17.47,6.63-27,6.75-11.4.13-22.29-1.85-32-8.36-1.43-1-2.82-2-4.22-2.93l-7.44-9.23-2.33-4.17a.81.81,0,0,0-.15-.31c-.21-.65-.38-1.31-.63-1.93a51.33,51.33,0,0,1-3.42-24.28,8.84,8.84,0,0,1,1.54-.08c4.5.55,8.84,2.05,13.46,2.11,5.54.08,11.07.62,16.6,1,.67,0,1.34.2,2,.22,4.7.14,9.4.29,14.09.35,3.06,0,6.12-.12,9.18-.11,4.5,0,9,.28,13.51.09,3.08-.12,6.13-.88,9.2-1.26,4.52-.55,9.06-1,13.59-1.54C472.44,195.32,474.05,195,475.67,194.7Z"/><path class="cls-6" d="M340.28,182.75q-1.27,2.25-2.53,4.5l-.3.66c-1,2.56-2.27,5.06-2.76,7.71a24.45,24.45,0,0,0,.09,7.44c.29,2.31,1.19,4.52,1.6,6.82a2.52,2.52,0,0,1-2.08,3.05,25.48,25.48,0,0,1-3.92.26,10.33,10.33,0,0,1-2-1.79c-3.5-5.24-6.08-11-5.46-17.39.48-5,1.1-10.11,4-14.51a19.21,19.21,0,0,0,1.47-3.58,4.92,4.92,0,0,0,1.34-.72c.73-.75,1.3-1.66,2-2.41,9.48-9.92,19-19.76,28.42-29.74q7.43-7.89,14.43-16.18A38.34,38.34,0,0,0,383,109.65c1.69-8.05.65-15.51-4.89-21.87-4.4-5.06-9.92-7.23-16.49-5.71-4.75,1.09-8.71,3.87-12.4,7-7.77,6.58-15.7,12.91-24.67,17.75-3.46,1.47-6.62,1-8.9-1.92a10.4,10.4,0,0,1-2-4.85,17.09,17.09,0,0,1,1.94-10.92c.66-1.15.73-2.64,1.34-3.83a9.56,9.56,0,0,1,2.33-3c.48-.4,1.55-.23,2.31-.08a35.75,35.75,0,0,1,3.45,1,11.32,11.32,0,0,0,6.44-2.54c5.19-4,10.64-7.71,16-11.54.05,1.35,1,1.52,1.95,1.32,1.88-.4,3.72-1,5.6-1.44a50.93,50.93,0,0,1,7.28-1.44,33.61,33.61,0,0,1,7.29.35,37.94,37.94,0,0,1,7.77,1.78c2.06.76,3.84,2.29,5.79,3.37a16.55,16.55,0,0,1,6.51,7.09c.91,1.71,2.51,3,3.8,4.56.12.54.22,1.1.37,1.63.84,3,2.28,5.9,2.41,8.9a79.28,79.28,0,0,1-.84,14.43c-.56,4-2.93,7.41-4.95,10.86-.49.84-.62,1.93-1.22,2.64-1.75,2.08-3.59,4.09-5.5,6-3,3.06-6.28,5.92-9.2,9.08-4.61,5-9.15,10-13.44,15.28-1,1.27-2.38,3-1.82,5.11-.88.92-1.8,1.81-2.65,2.77-2.62,3-5.22,6-7.83,8.94l-.59.54q-3.32,5-6.64,10C341.11,181.52,340.69,182.13,340.28,182.75Z"/><path class="cls-7" d="M378.33,191c-.12-.87-.23-1.75-.34-2.62.15-.58.3-1.16.46-1.74,4.52-8.3,11.84-13.29,19.91-17.38a60.53,60.53,0,0,1,23.75-6.46c0,.44,0,.88,0,1.31,0,2.51.41,2.9,2.91,2.93,1.28,0,2.57,0,3.86,0,1.6-.06,2.73-.6,2.47-2.59a4.46,4.46,0,0,1,.41-1.57c8.91.29,17.2,3.11,25,7.13,6.21,3.18,11.89,7.31,16.07,13.2,1.66,2.35,2.77,4.82,2.24,7.8H474l-2.21,1.49h-2.2l-1.85,1.11-8.46.39-2.95.74c-5.05.38-10.1,1-15.15,1.06-9.42.08-18.85,0-28.26-.39-6.14-.28-12.37.5-18.41-1.3-.28-.09-.61,0-.91,0-3-.39-6.05-.65-9-1.22A61.9,61.9,0,0,1,378.33,191Z"/><path class="cls-8" d="M175.72,208.2l5.71,7.7a62.1,62.1,0,0,0,15,14.08,75.43,75.43,0,0,0,20.17,9.58,104.48,104.48,0,0,0,19,3.62c8.69,1.06,17.38.68,26.05.5,6.63-.14,13.24-1.27,19.85-2s13.23-1.52,19.83-2.38c4.06-.53,8.09-1.26,12.14-1.89l16.29-2.56a30.78,30.78,0,0,1-3.66,4.33c-7.26,6-15.73,9.62-24.54,12.38a137.17,137.17,0,0,1-38.39,6c-11.38.22-22.79,0-34.15-.66a99.7,99.7,0,0,1-35.27-8.24c-7.76-3.46-15.55-7.05-19.38-15.62,0-2-.07-4-.1-6,0-.63.07-1.25.1-1.88.09-1.13.18-2.25.26-3.37q.26-3.75.49-7.5c0-.5,0-1,0-1.49V212c.09-.5.17-1,.26-1.51Z"/><path class="cls-9" d="M34.59,212a30.07,30.07,0,0,1,2.85,2.79c2.92,3.72,5.61,7.64,8.66,11.24a98.27,98.27,0,0,0,7.79,7.89,36.8,36.8,0,0,0,5.43,4.4c3.17,2,5.85,4.75,9.44,6.25s6.9,3.95,10.49,5.62A157.34,157.34,0,0,0,94,256.28c5,1.75,10.29,2.93,15.42,4.47.7.21,1.21,1.1,1.8,1.68-.59.14-1.18.32-1.78.42a85.7,85.7,0,0,1-34.1-1c-4.45-1.07-8.76-2.73-13.13-4.11l-5.12-2.41-2.83-1.5-2.71-2.16-1.48-3c.23-2.22-1.25-3.58-2.61-4.83-2.26-2.08-4.71-3.93-8-3.76-.18-.38-.35-.78-.57-1.15-1.78-3.09-3.73-6.11-5.32-9.3a66,66,0,0,1-2.63-7.09c1-1.12.38-2.21.09-3.4s-1.57-2.25-.07-3.4C33.8,215.7,34.53,215,34.59,212Z"/><path class="cls-10" d="M252,338.06c.2-.3.35-.81.6-.86,1.68-.37,3.37-.65,5.07-.95a17.67,17.67,0,0,0,1.79-.34c3.1-.91,6.23-1.74,9.27-2.82,2.87-1,5.65-2.28,8.43-3.53,5.13-2.28,10.33-4.43,15.3-7a82.3,82.3,0,0,0,11.7-7.39A94,94,0,0,0,315,305.35c3.71-3.9,7.06-8.18,10.5-12.35,1.31-1.61,2.41-3.41,3.64-5.08a4.09,4.09,0,0,1,1-.71c-.27,2.17.33,3.87,2.36,4.92.3.15.4.68.59,1-.27,2.07-.58,4.14-.77,6.21,0,.29.51.63.79.95a49.43,49.43,0,0,1-8,15.35c-2.5,1.27-5,2.47-7.48,3.85a5.29,5.29,0,0,0-3,4.76l-1.74,3.24c-3.27,1.9-6.53,3.78-9.78,5.7-.18.1-.24.4-.36.62a15.87,15.87,0,0,0-2.85.61,77.55,77.55,0,0,1-24.15,5.32A82.5,82.5,0,0,1,252,338.06Z"/><path class="cls-11" d="M174.4,233c3.83,8.57,11.62,12.16,19.38,15.62a99.7,99.7,0,0,0,35.27,8.24c11.36.64,22.77.88,34.15.66a137.17,137.17,0,0,0,38.39-6c8.81-2.76,17.28-6.4,24.54-12.38a30.78,30.78,0,0,0,3.66-4.33l.78-1.84,2.44.36a13.61,13.61,0,0,0,1.17,2c1.51,1.78,1.66,3.06.35,5-2.11,3.18-5.21,5.2-8.39,7.05a44,44,0,0,1-7.2,3.53c-5.92,2.13-11.86,4.24-17.9,5.94a147.52,147.52,0,0,1-16.47,3.63c-6.51,1.06-13.09,1.79-19.66,2.32a128.3,128.3,0,0,1-15.06.34c-7.09-.25-14.17-.79-21.23-1.43-4.79-.43-9.56-1.18-14.32-1.92a47.09,47.09,0,0,1-5.26-1.43,12.53,12.53,0,0,1-1.25-.18l-9.42-2.44-7.74-3-1.82-.41-2-.81-4.18-1.84c-1.49-.88-3-1.74-4.45-2.66-2.85-1.78-5.77-3.46-7.71-6.38-1.52-2.29-1.4-4,.58-5.89a21.43,21.43,0,0,1,2.34-1.77Z"/><path class="cls-12" d="M333.08,293.16c-.19-.35-.29-.88-.59-1-2-1.05-2.63-2.75-2.36-4.92.7-1.39,1.44-2.78,2.08-4.2.42-.92-.31-1.57-1.48-1.34-3.87.77-7.72,1.59-11.6,2.32a37.33,37.33,0,0,1-4.36.53q-10.49.8-21,1.55c-13,1-26.11.37-39.16.28-8.63-.07-17.26-1-25.87-1.71-5-.4-10-.82-14.92-1.64-3.28-.55-6.43-1.85-9.63-2.81l-1.37-.44.75-2.47,1.21-.85,1.68-.48.73-.34.74-.1.73-.28,4.42-1.14,7.84-1.29c6.95-.52,13.9-1.08,20.86-1.57,2.75-.2,5.5-.34,8.25-.38,8.7-.15,17.4-.52,26.09-.3q17,.43,33.92,1.71c6.82.51,13.58,1.75,20.36,2.74a16.28,16.28,0,0,1,3.68,1.13c1.87.76,3,2,2.69,4.3-.17,1.18-.12,2.38,1.06,3.14-.15.19-.28.52-.45.55-2.74.41-3.07,2.58-3.45,4.76C333.7,290.32,333.37,291.74,333.08,293.16ZM328.62,279c.1-.38.38-1,.27-1.1a4.42,4.42,0,0,0-1.66-.73c-4.09-.67-8.17-1.55-12.29-1.86-8.85-.67-17.71-1.43-26.57-1.45-17.09,0-34.18.29-51.26.69-6.17.15-12.33.87-18.47,1.49a44.43,44.43,0,0,0-7.18,1.48c-1.43.39-1.43,1-.27,1.86a13.52,13.52,0,0,0,2.45.74c7.11.79,14.22,1.81,21.35,2.23a580.2,580.2,0,0,0,78.23-.5c4.45-.34,8.87-1.12,13.29-1.78A8.08,8.08,0,0,0,328.62,279Z"/><path class="cls-12" d="M34.59,212c-.06,3-.79,3.72-3.69,3.75-.1-3.34-.29-6.63-4.15-7.94l.1-.67a15.11,15.11,0,0,0,1-2.49A15.47,15.47,0,0,0,28,201.9l.88-1.06a.18.18,0,0,0,.2,0l2.27-1.18,2.14-.39,4.46-1,5.1-.61,2.58-.39,8.1-.95,4.79-.41,7.73-.46,2.6-.22,17.28-.48h18.39l17.28.49,1.49.19,1.11.05,16.94,1.44,5.5.77,10.31,2c1,.4,2.05.77,3,1.22,1.88.87,1.32,2.54,1.24,4.05-2.34-.7-4.33.78-6.52,1.11-4.62.68-9.2,1.68-13.82,2.29-5.19.68-10.42,1.07-15.64,1.59a10.75,10.75,0,0,1-1.27.16c-14.64.14-29.27.34-43.91.34-6,0-12.07-.31-18.09-.74-6.51-.46-13-1.15-19.51-1.9-2.72-.32-5.38-1.1-8.09-1.57a6.06,6.06,0,0,0-2,.37c.17.54.32,1.09.52,1.62C33.58,209.46,34.09,210.72,34.59,212Zm1.54-8.27a25.94,25.94,0,0,0,3.4.76c10.12.89,20.23,2.27,30.36,2.46,18.23.34,36.49.13,54.73-.2,9.53-.17,19.09-.71,28.43-3l1.08-1.07c-.37-.35-.68-.88-1.12-1a18.28,18.28,0,0,0-4-1.15c-6.25-.7-12.51-1.48-18.78-1.86-7.81-.47-15.65-.8-23.47-.77q-21.1.08-42.22.71c-7.07.21-14.14.89-21.19,1.55a48,48,0,0,0-7.14,1.6c-.4.1-.7.6-1,.92Z"/><path class="cls-13" d="M153.8,97.83c.38.44.94.82,1.12,1.34,1.41,4,2.74,7.93,4.11,11.9,2,5.86,4,11.74,9.2,15.71,3,2.32,6.36,3.58,10.11,2.73,1.67-.38,3.19-1.48,4.78-2.24l1.13-.52c.17.23.39.37.38.5q-.34,4.71-.74,9.42c0,.43-.18.85-.23,1.28-.87,6.87-1.72,13.74-2.61,20.61-.05.37-.4.7-.6,1l-1.94-1.94L173.33,154a44.19,44.19,0,0,1-8.39-7.6L162.35,143l-.72-1-4.06-8a.51.51,0,0,0-.06-.25l-1-3.44-.81-2.92a7.69,7.69,0,0,0,.09-1.43c-.54-4.39-1.11-8.78-1.67-13.17-.06-.62-.13-1.24-.19-1.86-.07-2.13-.14-4.25-.2-6.38s-.17-4.48-.25-6.72A1.08,1.08,0,0,1,153.8,97.83Z"/><path class="cls-14" d="M333.08,293.16c.29-1.42.62-2.84.86-4.28.38-2.18.71-4.35,3.45-4.76.17,0,.3-.36.45-.55h.76l.33.27c2.79-.16,5.58-.33,8.37-.47a18.7,18.7,0,0,1,2,.1,6.14,6.14,0,0,0,1.64,1.12c4.5,1.21,8,3.34,9.9,8.12,2.66,6.83-.27,12.67-5,16.6a13.1,13.1,0,0,1-4.45,2.47c-3.56,1.08-7.26,1.69-10.81,2.82-1.75.55-3.29,1.82-4.93,2.77-4.7,1.33-9.42,2.65-13.62,5.3-2.17,1.38-4.21,2.9-4.85,5.64-2.17-.5-2.37-2.23-2.45-4a5.29,5.29,0,0,1,3-4.76c2.44-1.38,5-2.58,7.48-3.85,1.77-.4,3.56-.71,5.31-1.21,5-1.41,9.93-2.75,14.81-4.38,4.4-1.48,8.23-3.86,10.2-8.48,2.36-5.53-1.19-11.22-7.05-11-4,.16-8,.75-12,1.25-.41.05-.91.68-1.07,1.15-.79,2.42-1.49,4.87-2.21,7.31-.28-.32-.82-.66-.79-.95C332.5,297.3,332.81,295.23,333.08,293.16Z"/><path class="cls-14" d="M26.75,207.79c3.86,1.31,4.05,4.6,4.15,7.94-1.5,1.15-.2,2.32.07,3.4s.94,2.28-.09,3.4c-.49-1.66-.92-3.35-1.51-5-.22-.59-.76-1.43-1.24-1.5-4.18-.56-8.37-1.17-12.57-1.38a7,7,0,0,0-7.08,7c-.13,5,2.62,8.35,6.7,10.51a49.7,49.7,0,0,0,8.53,3.35c5.19,1.62,10.46,3,15.69,4.49,3.32-.17,5.77,1.68,8,3.76,1.36,1.25,2.84,2.61,2.61,4.83-.32,1.33-.09,3.08-2.23,3l-2.17-2.28c-4.25-4.71-10.12-6-15.81-7.57a4.3,4.3,0,0,0-.74-.79c-3.06-1.92-6.47-2.76-9.92-3.63S12,235.77,9,233.43c-3.77-3-6.58-6.75-6.39-11.89.22-5.94,4.72-12,11.11-12.68.75-.08,1.4-1.1,2.1-1.68l2.94-.06,1,.37.78.26Z"/><path class="cls-15" d="M186.52,57.41c4.41,2.12,9.16,2.69,13.92,3.53,9.2,1.61,18.44,1.92,27.7,2.54,16.6,1.12,33.2.86,49.78.52,10.91-.23,21.8-1.69,32.66-2.87,4-.44,8-1.64,12-2.57a16.16,16.16,0,0,0,2.65-1.14l.39.3c-.08.27-.17.54-.25.81-1.55,2.21-4.14,2.47-6.33,2.88-6.83,1.29-13.74,2.18-20.63,3.11-3.26.44-6.56.7-9.85.92-4.08.26-8.17.53-12.26.56-12,.07-24,.2-36.06,0-9.65-.18-19.33-.21-28.92-1.74-5.19-.83-10.46-1.14-15.63-2a85.49,85.49,0,0,1-9.3-2.67C186.41,58.82,186.46,58.12,186.52,57.41Z"/><path class="cls-16" d="M469.63,192.53h2.2c1.09,0,2-.24,2.21-1.49h1.08c.18,1.23.36,2.45.55,3.68-1.62.28-3.23.62-4.85.82-4.53.54-9.07,1-13.59,1.54-3.07.38-6.12,1.14-9.2,1.26-4.5.19-9-.08-13.51-.09-3.06,0-6.12.15-9.18.11-4.69-.06-9.39-.21-14.09-.35-.66,0-1.33-.18-2-.22-5.53-.35-11.06-.89-16.6-1-4.62-.06-9-1.56-13.46-2.11a8.84,8.84,0,0,0-1.54.08c.23-1.24.45-2.49.68-3.74a61.9,61.9,0,0,0,6.28,1.89c3,.57,6,.83,9,1.22.3,0,.63-.09.91,0,6,1.8,12.27,1,18.41,1.3,9.41.43,18.84.47,28.26.39,5,0,10.1-.68,15.15-1.06l2.95-.74,8.46-.39Z"/><path class="cls-14" d="M249.47,16.26a9.14,9.14,0,0,0-.73-2.06c-3.57-5.43-1.6-11.74,4.39-14a4.44,4.44,0,0,0,.49-.24l5.11.14c1.54,1.06,3.65,1.79,4.48,3.26a9.16,9.16,0,0,1,1.13,7.66c-.6,1.67-1.47,3.23-2.22,4.85a5.55,5.55,0,0,0-1.72.4,8,8,0,0,1-8.74.3A6.14,6.14,0,0,0,249.47,16.26Z"/><path class="cls-11" d="M391.62,234.69c1.4,1,2.79,2,4.22,2.93,9.73,6.51,20.62,8.49,32,8.36,9.49-.12,18.61-1.92,27-6.75,2.32-1.35,4.47-3,6.69-4.52,1.86,2.06,1.92,2.7-.19,4.51a59.06,59.06,0,0,1-4.95,3.45c-4.85,1.61-9.63,3.5-14.56,4.76a57.86,57.86,0,0,1-18,1.17,97.56,97.56,0,0,1-15.55-2c-4.48-1-8.75-3-13.05-4.74a11,11,0,0,1-3.13-2.2C389.92,237.76,389.9,237,391.62,234.69Z"/><path class="cls-9" d="M393.43,84.74c-1.29-1.51-2.89-2.85-3.8-4.56a16.55,16.55,0,0,0-6.51-7.09c-1.95-1.08-3.73-2.61-5.79-3.37a37.94,37.94,0,0,0-7.77-1.78,33.61,33.61,0,0,0-7.29-.35A50.93,50.93,0,0,0,355,69c-1.88.43-3.72,1-5.6,1.44-.94.2-1.9,0-1.95-1.32,3.76-1.56,7.43-3.47,11.31-4.61,7.71-2.29,15.23-1.25,22.37,2.48a3,3,0,0,0,.53.16c.62.48,1.24,1,1.87,1.43,2.05,1.51,4.16,2.93,6.14,4.53s3.55,3.16,5.31,4.75c.15.15.29.31.44.47l5,6.75c-2,.94-3-1.11-4.48-1.67l-2.23-.86Z"/><path class="cls-9" d="M15.84,207.18c-.7.58-1.35,1.6-2.1,1.68-6.39.72-10.89,6.74-11.11,12.68-.19,5.14,2.62,8.89,6.39,11.89,3,2.34,6.63,3.07,10.15,4S26,239.1,29.09,241a4.3,4.3,0,0,1,.74.79l-9.56-1-.77-.6L17.3,240l-3.69-1-6.53-2.37L1.53,232l-.39-2.1L0,225.84c.53-3.17.88-6.39,1.67-9.49.39-1.53,1.58-2.85,2.41-4.27L7,209.73l2.59-1.22,3.39-1.36Z"/><path class="cls-9" d="M335.59,317.38c1.64-.95,3.18-2.22,4.93-2.77,3.55-1.13,7.25-1.74,10.81-2.82a13.1,13.1,0,0,0,4.45-2.47c4.76-3.93,7.69-9.77,5-16.6-1.87-4.78-5.4-6.91-9.9-8.12a6.14,6.14,0,0,1-1.64-1.12c7.16-.46,12.29,4.19,14,10.87a35,35,0,0,1,1.07,6c.38,4.89-2.17,8.34-5.74,11.19a6.55,6.55,0,0,0-.63.66l-1,.48c-5.75,3-12.1,3.5-18.34,4.42C337.65,317.25,336.62,317.29,335.59,317.38Z"/><path class="cls-14" d="M422.27,162.18a24.31,24.31,0,0,1-1.58-4.85,5.9,5.9,0,0,1,3.22-5.74c2.86-1.16,5.7-.63,7.48,1.6a15.24,15.24,0,0,1,1.49,3c0,.25,0,.5,0,.75-.14.87-.27,1.75-.4,2.62l-.9,1.48c-1.69,1.72-3.66,2.73-6.09,2.21A26.72,26.72,0,0,1,422.27,162.18Z"/><path class="cls-6" d="M249.47,16.26a6.14,6.14,0,0,1,2.19.35,8,8,0,0,0,8.74-.3,5.55,5.55,0,0,1,1.72-.4c.1.24.19.48.29.73,0,1.3-.1,2.62,0,3.91a1.89,1.89,0,0,1-2.09,2.35c-3.18.07-6.36.13-9.53,0-.58,0-1.45-1.09-1.57-1.79a26.48,26.48,0,0,1-.09-4.46Z"/><path class="cls-6" d="M422.27,162.18a26.72,26.72,0,0,0,3.23,1.1c2.43.52,4.4-.49,6.09-2.21.06.61.13,1.21.2,1.82a4.46,4.46,0,0,0-.41,1.57c.26,2-.87,2.53-2.47,2.59-1.29,0-2.58,0-3.86,0-2.5,0-2.87-.42-2.91-2.93,0-.43,0-.87,0-1.31C422.16,162.62,422.22,162.4,422.27,162.18Z"/><path class="cls-17" d="M47.81,251.66c2.14.08,1.91-1.67,2.23-3l1.48,3a5.22,5.22,0,0,1-.08,1.82c-.31.78-.76,1.83-1.39,2s-1.47-.56-2.23-.9l-.39-1.49C47.56,252.66,47.68,252.16,47.81,251.66Z"/><path class="cls-18" d="M68.84,195.19l-2.6.22Z"/><path class="cls-18" d="M31.34,199.66l-2.27,1.18Z"/><path class="cls-18" d="M28.87,200.84,28,201.9l-.82-1.41Z"/><path class="cls-19" d="M262.43,344.88l3.3,0Z"/><path class="cls-20" d="M325.46,61.52l.06-1.47Z"/><path class="cls-18" d="M175.46,210.49c-.09.51-.17,1-.26,1.51C175.29,211.5,175.37,211,175.46,210.49Z"/><path class="cls-18" d="M123.28,195.39l-1.49-.19Z"/><path class="cls-18" d="M175.2,212.73c0,.49,0,1,0,1.49C175.17,213.72,175.18,213.22,175.2,212.73Z"/><path class="cls-18" d="M19.82,207.49l-1-.37Z"/><path class="cls-18" d="M160.89,213.81c0-.34,0-.68.05-1C160.92,213.13,160.91,213.47,160.89,213.81Z"/><path class="cls-18" d="M204.79,276.43l-1.21.85Z"/><path class="cls-18" d="M207.2,275.61l-.73.34Z"/><path class="cls-18" d="M208.67,275.23l-.73.28Z"/><path class="cls-18" d="M19.5,240.19l.77.6Z"/><path class="cls-21" d="M357.73,163l-1.1,1.12Z"/><path class="cls-21" d="M398.74,146.45c0,.24,0,.48.05.72l-.43,0,.09-.71Z"/><path class="cls-21" d="M356.63,164.08l-1.1,1.12Z"/><path class="cls-22" d="M328.62,279a8.08,8.08,0,0,1-2.11,1.07c-4.42.66-8.84,1.44-13.29,1.78a580.2,580.2,0,0,1-78.23.5c-7.13-.42-14.24-1.44-21.35-2.23a13.52,13.52,0,0,1-2.45-.74,12.3,12.3,0,0,1,2.38-.73c4.32-.47,8.65-1,13-1.22,10.28-.44,20.58-.67,30.87-1l-1.89,1.15,0,.57,7.65,1.94h0c.27.36.47.92.82,1,1.68.58,5.7-1.27,6.44-2.93a3.57,3.57,0,0,0,.19-1.09c-2.82-1.64-4.17,1-6,2.29l-.24-.45c.44-.67.87-1.33,1.2-1.82l-5.4-.72c2,0,3.92-.11,5.88-.1C287,276.4,307.86,276.11,328.62,279Z"/><path class="cls-23" d="M257.43,276.44c-10.29.32-20.59.55-30.87,1-4.34.18-8.67.75-13,1.22a12.3,12.3,0,0,0-2.38.73c-1.16-.9-1.16-1.47.27-1.86a44.43,44.43,0,0,1,7.18-1.48c6.14-.62,12.3-1.34,18.47-1.49,17.08-.4,34.17-.73,51.26-.69,8.86,0,17.72.78,26.57,1.45,4.12.31,8.2,1.19,12.29,1.86a4.42,4.42,0,0,1,1.66.73c.11.07-.17.72-.27,1.1-20.76-2.89-41.66-2.6-62.53-2.67-2,0-3.92.07-5.88.1Z"/><path class="cls-24" d="M153.05,203.73c-9.34,2.29-18.9,2.83-28.43,3-18.24.33-36.5.54-54.73.2-10.13-.19-20.24-1.57-30.36-2.46a25.94,25.94,0,0,1-3.4-.76c.28-.24.54-.64.85-.7a34.74,34.74,0,0,1,4.72-.72c12-.64,24.09-1.62,36.15-1.71,18.31-.14,36.64.21,55,.63,6.41.15,12.8,1.12,19.2,1.76C152.37,203,152.7,203.47,153.05,203.73Z"/><path class="cls-24" d="M257.43,276.44h2.78l5.4.72c-.33.49-.76,1.15-1.2,1.82l.24.45c1.78-1.33,3.13-3.93,6-2.29a3.57,3.57,0,0,1-.19,1.09c-.74,1.66-4.76,3.51-6.44,2.93-.35-.12-.55-.68-.82-1l.49-.29-.21-.21-.29.49-7.65-1.94,0-.57Z"/><path class="cls-22" d="M263.14,280.1l.29-.49.21.21-.49.29Z"/></g></g></svg>