<svg xmlns="http://www.w3.org/2000/svg" viewBox="0 0 622.12 466.6"><defs><style>.cls-1{fill:#bccbb2;}.cls-2{fill:#f8f6f9;}.cls-3{fill:#f8f7f8;}.cls-4{fill:#fdfefe;}.cls-5{fill:#fefefe;}.cls-6{fill:#f5f3f6;}.cls-7{fill:#e9eae9;}.cls-8{fill:#f7f7f7;}.cls-9{fill:#e0dfe1;}.cls-10{fill:#f0f2f1;}.cls-11{fill:#f2f1f2;}.cls-12{fill:#a39eda;}.cls-13{fill:#e5e5e3;}.cls-14{fill:#eaeceb;}.cls-15{fill:#f4f7f4;}.cls-16{fill:#e9e7ea;}.cls-17{fill:#edebed;}.cls-18{fill:#dce1db;}.cls-19{fill:#aebea2;}.cls-20{fill:#acbca1;}.cls-21{fill:#a8b89e;}.cls-22{fill:#f3f5f4;}.cls-23{fill:#aaba9e;}.cls-24{fill:#552c17;}.cls-25{fill:#c5bfbb;}.cls-26{fill:#572c18;}</style></defs><g id="Layer_2" data-name="Layer 2"><g id="Layer_1-2" data-name="Layer 1"><path class="cls-1" d="M.38,0,0,.37Z"/><path class="cls-2" d="M300.49,148c1,2.17,2.23,4.28,3.08,6.52a64.9,64.9,0,0,1,3.05,9.44c1.4,6.61,2.48,13.28,3.66,19.94,1.79,10.06,3.69,20.1,9.15,29,1.55,2.54,3.46,4.87,5.21,7.3l.69-.27a36.79,36.79,0,0,0,.32-3.91c-.28-10-.61-20-.92-30.05,0-.5,0-1,0-1.48a90.22,90.22,0,0,0,9.55,2.64c5.32.88,10.73,1.19,16.05,2,9.85,1.51,19.79,1.54,29.7,1.72,12.34.23,24.68.1,37,0,4.19,0,8.39-.29,12.58-.56,3.38-.21,6.77-.47,10.12-.91,7.08-.92,14.17-1.79,21.18-3.07,2.24-.41,4.91-.66,6.5-2.84l.2.74c0,.25,0,.5,0,.76,0,.48,0,1,0,1.45,0,2.59-.07,5.19-.1,7.78,0,.25,0,.49,0,.74q-.18,6.47-.35,12.94c-1.18-.35-2.34-.78-3.54-1-.78-.14-1.88-.31-2.38.08a9.62,9.62,0,0,0-2.39,3c-.62,1.18-.7,2.64-1.37,3.78a16.29,16.29,0,0,0-2,10.8,10,10,0,0,0,2.07,4.8c2.34,2.84,5.58,3.35,9.14,1.9-.12,6.82-.4,13.65-.31,20.47.11,8.23.2,16.49.92,24.68.69,7.75,2.17,15.44,3.31,23.15a18.4,18.4,0,0,1-1.51,3.55c-3,4.34-3.64,9.41-4.14,14.34-.63,6.34,2,12,5.61,17.19a10.57,10.57,0,0,0,2.08,1.77c.12,5.07.25,10.14.34,15.21,0,1.45-.09,2.91-.14,4.37l-.8,1.81-16.73,2.53c-4.16.63-8.3,1.35-12.47,1.87-6.77.86-13.56,1.61-20.35,2.35s-13.58,1.86-20.39,2c-8.9.18-17.82.56-26.75-.49a111.44,111.44,0,0,1-19.5-3.58A78.64,78.64,0,0,1,335.14,353a62.93,62.93,0,0,1-15.44-13.92q-2.93-3.79-5.86-7.6c.18-2.46.35-4.91.53-7.37l.48-5.54.24-1.89a14.82,14.82,0,0,0,.37-1.6q1.13-9.72,2.24-19.45.26-3.36.52-6.72c.15-1.82.31-3.65.47-5.48.22-.34.57-.66.62-1,.92-6.79,1.79-13.58,2.68-20.38.06-.42.21-.84.24-1.26q.4-4.65.76-9.31c0-.12-.21-.27-.39-.49-.39.17-.78.33-1.16.51-1.64.75-3.19,1.84-4.91,2.21-3.85.84-7.28-.41-10.37-2.7-5.3-3.92-7.37-9.73-9.45-15.53-1.41-3.92-2.78-7.86-4.23-11.76-.19-.51-.75-.89-1.15-1.33l-.3-1.85q.09-8.7.16-17.4l-.06-12.28c.08-9-.46-17.81-3.7-26.31a31.61,31.61,0,0,0-10.13-14.1,55.63,55.63,0,0,0-7.27-4.15,14.54,14.54,0,0,0-1.47-.59v-.55a35.5,35.5,0,0,1,4.29-.79,26.2,26.2,0,0,1,5.46.06,16.52,16.52,0,0,1,4,1.41c1.14.5,1.83.34,2.32-.87,1.1-2.67,2.36-5.27,3.43-7.95.44-1.12,1.09-1.34,2-.71,1.4,1,2.71,2.14,4.06,3.22Z"/><path class="cls-3" d="M324.93,182.41c-.15-1.23-.62-2.51-.38-3.66,1.16-5.6,4.85-9.68,8.88-13.52a43.84,43.84,0,0,1,4.39-4.24,82.64,82.64,0,0,1,8.57-5.38,126.68,126.68,0,0,1,13.87-7,98.74,98.74,0,0,1,14.7-4.29c4.69-1.05,9.52-1.53,14.29-2.26a24.9,24.9,0,0,0,.09,4.41c.12.69,1,1.74,1.61,1.77,3.26.16,6.53.1,9.79,0,1.43,0,2.31-.68,2.14-2.32a38.41,38.41,0,0,1,0-3.87,98.18,98.18,0,0,1,44.77,14.66c5.58,3.48,10.78,7.41,14.87,12.52a36,36,0,0,1,4.73,8.11c.62,1.43.1,3.34.09,5a16.4,16.4,0,0,1-2.72,1.12,106.63,106.63,0,0,1-12.28,2.54c-11.16,1.18-22.34,2.62-33.54,2.84-17,.34-34.07.59-51.11-.51-9.51-.62-19-.92-28.44-2.52C334.33,185.07,329.46,184.5,324.93,182.41Z"/><path class="cls-4" d="M343.16,416.22q-.75-7-1.49-14c.47.14.94.3,1.41.43,3.29,1,6.53,2.23,9.89,2.78,5.06.82,10.2,1.23,15.32,1.62,8.85.68,17.7,1.63,26.56,1.69,13.4.09,26.82.68,40.22-.27,7.18-.51,14.37-1,21.55-1.54a42.08,42.08,0,0,0,4.48-.52c4-.72,7.93-1.53,11.9-2.29,1.2-.23,1.95.42,1.53,1.32-.67,1.41-1.43,2.77-2.14,4.16a4,4,0,0,0-1.05.69c-1.28,1.66-2.4,3.44-3.75,5-3.53,4.13-7,8.36-10.78,12.22a94.21,94.21,0,0,1-11.06,9.67,83.84,83.84,0,0,1-12,7.31c-5.1,2.57-10.44,4.69-15.71,6.95-2.85,1.23-5.71,2.48-8.65,3.49-3.13,1.07-6.34,1.89-9.52,2.79-.6.17-1.23.22-1.85.33-1.73.3-3.48.57-5.2.94-.26.05-.41.56-.61.85L378,455.7l-4.64-2.09-2.22-1.24-1.78-1-2.27-1-2.29-2-5.37-4.53-3.26-3.26a13,13,0,0,0-.84-1.21,53.6,53.6,0,0,1-10.06-17.81C344.68,419.76,343.87,418,343.16,416.22Z"/><path class="cls-5" d="M299.16,328.24l-.09,2.17c-.08,1.23-.15,2.46-.23,3.69-.06.64-.12,1.27-.17,1.91l-.06,1-.43,1.16-.68,3.34c-1.06,5.2-3.44,9.9-5.84,14.6-2.06,4-5.25,7.24-7.89,10.84l-.83.76c-1.46,1.24-2.95,2.46-4.37,3.74-3.88,3.49-8.53,5.78-13.17,8.09a10.29,10.29,0,0,0-1.35.95c-.94.27-1.89.55-2.84.81l-13.62,3.77c-.62-.57-1.13-1.45-1.86-1.65-5.26-1.53-10.64-2.69-15.83-4.42s-10.17-3.83-15.12-6.05c-3.68-1.65-7-4-10.76-5.55s-6.44-4.17-9.7-6.17a39.14,39.14,0,0,1-5.58-4.36,99.76,99.76,0,0,1-8-7.8c-3.13-3.56-5.9-7.43-8.9-11.11a30.66,30.66,0,0,0-2.92-2.76c-.51-1.24-1-2.48-1.53-3.74-.21-.52-.36-1.07-.53-1.6a6.29,6.29,0,0,1,2-.36c2.77.46,5.51,1.24,8.3,1.55,6.66.74,13.34,1.42,20,1.88,6.18.42,12.38.73,18.57.73,15,0,30.06-.2,45.09-.33.44,0,.87-.12,1.31-.16,5.35-.52,10.72-.9,16-1.58,4.75-.6,9.45-1.59,14.2-2.26C294.71,329,296.75,327.55,299.16,328.24Z"/><path class="cls-6" d="M621.82,318.13a49.9,49.9,0,0,1-.69,15.37,48.13,48.13,0,0,1-10.26,20.81c-.72.88-1.51,1.7-2.27,2.55-.43.28-.87.55-1.31.82-2.29,1.5-4.49,3.14-6.87,4.47-8.57,4.78-17.94,6.56-27.68,6.67-11.71.13-22.89-1.82-32.89-8.26-1.46-.94-2.88-1.93-4.33-2.9l-7.63-9.12-2.4-4.13a.71.71,0,0,0-.15-.3c-.22-.64-.39-1.29-.65-1.91a49.08,49.08,0,0,1-3.51-24,9.35,9.35,0,0,1,1.58-.08c4.63.54,9.08,2,13.82,2.09,5.69.08,11.37.61,17,1,.69,0,1.37.19,2.06.21,4.82.14,9.64.29,14.46.35,3.14,0,6.28-.12,9.42-.11,4.63,0,9.26.27,13.88.09,3.16-.12,6.29-.87,9.44-1.24,4.65-.56,9.3-1,14-1.53C618.51,318.74,620.16,318.4,621.82,318.13Z"/><path class="cls-7" d="M482.81,306.31l-2.6,4.46c-.1.21-.21.43-.31.65-1,2.53-2.32,5-2.83,7.61a23.68,23.68,0,0,0,.09,7.37c.3,2.27,1.23,4.47,1.64,6.74a2.5,2.5,0,0,1-2.13,3,28.23,28.23,0,0,1-4,.25,10.57,10.57,0,0,1-2.08-1.77c-3.59-5.19-6.24-10.85-5.61-17.19.5-4.93,1.14-10,4.14-14.34a18.4,18.4,0,0,0,1.51-3.55,5.14,5.14,0,0,0,1.38-.71c.74-.74,1.33-1.63,2.08-2.38,9.72-9.8,19.52-19.53,29.17-29.4q7.62-7.8,14.82-16a37.38,37.38,0,0,0,8.65-17c1.73-8,.66-15.33-5-21.62-4.53-5-10.19-7.15-16.94-5.65-4.88,1.09-8.94,3.83-12.73,6.92-8,6.51-16.12,12.76-25.33,17.56-3.56,1.45-6.8.94-9.14-1.9a10,10,0,0,1-2.07-4.8,16.29,16.29,0,0,1,2-10.8c.67-1.14.75-2.6,1.37-3.78a9.62,9.62,0,0,1,2.39-3c.5-.39,1.6-.22,2.38-.08,1.2.23,2.36.66,3.54,1a11.86,11.86,0,0,0,6.61-2.5c5.33-4,10.93-7.64,16.42-11.42.05,1.34,1,1.5,2,1.3,1.93-.39,3.82-1,5.75-1.41a53.74,53.74,0,0,1,7.47-1.43,35.47,35.47,0,0,1,7.49.35,39.71,39.71,0,0,1,8,1.75c2.12.76,3.94,2.27,5.95,3.34a16.58,16.58,0,0,1,6.68,7c.94,1.7,2.58,3,3.91,4.51.12.54.22,1.09.37,1.62.87,2.93,2.35,5.83,2.48,8.79a76.69,76.69,0,0,1-.86,14.27c-.58,4-3,7.32-5.09,10.74a19,19,0,0,1-1.25,2.61c-1.79,2.05-3.68,4-5.64,6-3.12,3-6.45,5.85-9.46,9-4.73,4.92-9.39,9.91-13.8,15.11-1.06,1.25-2.44,2.95-1.86,5-.91.91-1.85,1.79-2.72,2.73-2.7,2.94-5.36,5.9-8,8.85l-.61.53q-3.41,4.92-6.82,9.85Z"/><path class="cls-8" d="M521.88,314.5c-.12-.86-.24-1.73-.35-2.59.15-.57.31-1.14.47-1.71,4.64-8.21,12.16-13.15,20.45-17.19a63.82,63.82,0,0,1,24.38-6.38c0,.43,0,.86,0,1.29,0,2.48.43,2.86,3,2.9,1.32,0,2.64,0,4,0,1.64-.07,2.8-.6,2.54-2.57a4.24,4.24,0,0,1,.42-1.55c9.15.29,17.67,3.08,25.7,7.05,6.36,3.15,12.2,7.22,16.49,13,1.71,2.32,2.84,4.77,2.3,7.71h-1.11L617.88,316h-2.26l-1.9,1.1-8.68.38-3,.74c-5.18.37-10.37,1-15.56,1.05-9.67.08-19.36,0-29-.39-6.3-.27-12.7.49-18.9-1.29a5.79,5.79,0,0,0-.93,0c-3.1-.39-6.22-.65-9.27-1.21A64.06,64.06,0,0,1,521.88,314.5Z"/><path class="cls-9" d="M313.84,331.48q2.94,3.79,5.86,7.6A62.93,62.93,0,0,0,335.14,353a78.64,78.64,0,0,0,20.71,9.48,111.44,111.44,0,0,0,19.5,3.58c8.93,1.05,17.85.67,26.75.49,6.81-.14,13.6-1.26,20.39-2s13.58-1.49,20.35-2.35c4.17-.52,8.31-1.24,12.47-1.87L472,357.8a30.32,30.32,0,0,1-3.76,4.28c-7.45,5.92-16.15,9.51-25.2,12.24a145.31,145.31,0,0,1-39.41,5.9c-11.68.22-23.4,0-35.07-.65a105.51,105.51,0,0,1-36.22-8.15c-8-3.42-16-7-19.9-15.44q0-3-.1-6c0-.62.07-1.24.11-1.86l.27-3.33c.16-2.47.33-4.94.49-7.42l.06-1.47v-.72c.09-.49.17-1,.26-1.49Z"/><path class="cls-10" d="M168.93,335.21a30.66,30.66,0,0,1,2.92,2.76c3,3.68,5.77,7.55,8.9,11.11a99.76,99.76,0,0,0,8,7.8,39.14,39.14,0,0,0,5.58,4.36c3.26,2,6,4.68,9.7,6.17s7.08,3.9,10.76,5.55c4.95,2.22,10,4.33,15.12,6.05s10.57,2.89,15.83,4.42c.73.2,1.24,1.08,1.86,1.65-.61.14-1.21.32-1.83.42a91.11,91.11,0,0,1-35-1c-4.56-1.06-9-2.69-13.48-4.06L192,378.09l-2.91-1.49-2.78-2.14-1.51-3c.23-2.2-1.29-3.54-2.69-4.78-2.32-2.06-4.83-3.89-8.24-3.72-.19-.38-.36-.77-.58-1.14-1.84-3-3.83-6-5.47-9.19a64.26,64.26,0,0,1-2.7-7c1.06-1.1.4-2.19.09-3.36s-1.61-2.23-.06-3.36C168.12,338.89,168.87,338.16,168.93,335.21Z"/><path class="cls-11" d="M392.2,459.85c.2-.29.35-.8.61-.85,1.72-.37,3.47-.64,5.2-.94.62-.11,1.25-.16,1.85-.33,3.18-.9,6.39-1.72,9.52-2.79,2.94-1,5.8-2.26,8.65-3.49,5.27-2.26,10.61-4.38,15.71-6.95a83.84,83.84,0,0,0,12-7.31,94.21,94.21,0,0,0,11.06-9.67c3.81-3.86,7.25-8.09,10.78-12.22,1.35-1.58,2.47-3.36,3.75-5a4,4,0,0,1,1.05-.69,4.26,4.26,0,0,0,2.42,4.86c.3.15.41.67.61,1-.28,2-.6,4.08-.8,6.14,0,.28.53.62.81.93a48,48,0,0,1-8.16,15.18c-2.56,1.26-5.17,2.44-7.68,3.8a5.26,5.26,0,0,0-3.08,4.71l-1.79,3.21c-3.35,1.87-6.7,3.73-10,5.62-.18.11-.24.41-.36.62a16.56,16.56,0,0,0-2.93.61,82.3,82.3,0,0,1-24.8,5.25A87.6,87.6,0,0,1,392.2,459.85Z"/><path class="cls-12" d="M312.48,356c3.94,8.48,11.94,12,19.9,15.44a105.51,105.51,0,0,0,36.22,8.15c11.67.63,23.39.87,35.07.65a145.31,145.31,0,0,0,39.41-5.9c9.05-2.73,17.75-6.32,25.2-12.24A30.32,30.32,0,0,0,472,357.8l.8-1.81,2.51.35a13.21,13.21,0,0,0,1.2,2c1.54,1.76,1.7,3,.36,5-2.17,3.14-5.36,5.14-8.61,7a46.77,46.77,0,0,1-7.41,3.49c-6.07,2.11-12.17,4.18-18.37,5.87a157.36,157.36,0,0,1-16.91,3.59c-6.69,1-13.44,1.77-20.19,2.29a135.37,135.37,0,0,1-15.47.34c-7.27-.25-14.54-.78-21.79-1.41-4.92-.43-9.82-1.17-14.7-1.9a51.26,51.26,0,0,1-5.41-1.42c-.43-.06-.87-.08-1.28-.18q-4.84-1.19-9.67-2.41l-8-3-1.86-.41-2.08-.8-4.3-1.82c-1.52-.87-3.06-1.72-4.57-2.63-2.92-1.76-5.92-3.42-7.91-6.31-1.56-2.26-1.43-3.92.6-5.82a23.28,23.28,0,0,1,2.39-1.75Z"/><path class="cls-13" d="M475.42,415.47c-.2-.35-.31-.87-.61-1a4.26,4.26,0,0,1-2.42-4.86c.71-1.39,1.47-2.75,2.14-4.16.42-.9-.33-1.55-1.53-1.32-4,.76-7.93,1.57-11.9,2.29a42.08,42.08,0,0,1-4.48.52c-7.18.53-14.37,1-21.55,1.54-13.4,1-26.82.36-40.22.27-8.86-.06-17.71-1-26.56-1.69-5.12-.39-10.26-.8-15.32-1.62-3.36-.55-6.6-1.82-9.89-2.78-.47-.13-.94-.29-1.41-.43.26-.82.52-1.63.77-2.44l1.25-.84,1.72-.48.76-.33.75-.1.75-.28,4.54-1.13,8.05-1.27c7.14-.52,14.28-1.07,21.42-1.56,2.82-.19,5.65-.33,8.48-.37,8.93-.15,17.86-.51,26.79-.29q17.42.42,34.82,1.69c7,.5,14,1.72,20.9,2.7a17.45,17.45,0,0,1,3.78,1.12c1.93.75,3.11,2,2.77,4.25-.18,1.17-.13,2.36,1.08,3.11-.15.18-.28.51-.46.53-2.81.42-3.15,2.56-3.54,4.72C476.05,412.66,475.72,414.06,475.42,415.47Zm-4.59-14c.11-.38.39-1,.29-1.09a4.53,4.53,0,0,0-1.71-.72c-4.2-.66-8.39-1.53-12.62-1.84-9.08-.66-18.18-1.41-27.28-1.43-17.54-.05-35.09.28-52.64.68-6.33.15-12.65.85-19,1.47a47.8,47.8,0,0,0-7.37,1.46c-1.46.39-1.47.95-.28,1.84a15.58,15.58,0,0,0,2.51.74c7.31.78,14.6,1.78,21.93,2.2a618.76,618.76,0,0,0,80.33-.5c4.56-.33,9.1-1.1,13.64-1.76A8,8,0,0,0,470.83,401.47Z"/><path class="cls-13" d="M168.93,335.21c-.06,3-.81,3.68-3.78,3.71-.11-3.3-.31-6.56-4.27-7.85l.11-.66a14.92,14.92,0,0,0,1-2.46,14.32,14.32,0,0,0,.13-2.71l.91-1a.18.18,0,0,0,.2,0l2.33-1.16,2.2-.4,4.58-1,5.24-.61,2.64-.38,8.33-.94,4.91-.4,7.94-.46,2.66-.22,17.75-.47h18.88l17.74.49,1.54.19,1.14,0,17.39,1.42,5.65.77,10.59,2c1,.4,2.1.76,3.12,1.21,1.93.85,1.35,2.51,1.27,4-2.41-.69-4.45.78-6.69,1.1-4.75.67-9.45,1.66-14.2,2.26-5.33.68-10.7,1.06-16,1.58-.44,0-.87.15-1.31.16-15,.13-30.06.33-45.09.33-6.19,0-12.39-.31-18.57-.73-6.69-.46-13.37-1.14-20-1.88-2.79-.31-5.53-1.09-8.3-1.55a6.29,6.29,0,0,0-2,.36c.17.53.32,1.08.53,1.6C167.9,332.73,168.42,334,168.93,335.21Zm1.59-8.18a26.51,26.51,0,0,0,3.49.76c10.38.88,20.76,2.24,31.16,2.43,18.73.33,37.47.13,56.2-.19,9.79-.17,19.6-.71,29.2-3l1.1-1.06c-.38-.35-.7-.87-1.15-1a19.84,19.84,0,0,0-4.15-1.14c-6.42-.69-12.85-1.46-19.29-1.84-8-.46-16.07-.79-24.1-.76q-21.67.08-43.34.71c-7.27.2-14.53.88-21.77,1.53a50.71,50.71,0,0,0-7.33,1.58c-.41.1-.72.59-1.07.9Z"/><path class="cls-14" d="M291.33,222.36c.4.44,1,.82,1.15,1.33,1.45,3.9,2.82,7.84,4.23,11.76,2.08,5.8,4.15,11.61,9.45,15.53,3.09,2.29,6.52,3.54,10.37,2.7,1.72-.37,3.27-1.46,4.91-2.21.38-.18.77-.34,1.16-.51.18.22.4.37.39.49q-.36,4.67-.76,9.31c0,.42-.18.84-.24,1.26-.89,6.8-1.76,13.59-2.68,20.38-.05.37-.4.69-.62,1l-2-1.92-5.31-3.58a44.76,44.76,0,0,1-8.62-7.51L300.12,267l-.75-1-4.17-7.87a.37.37,0,0,0-.06-.25c-.34-1.13-.67-2.26-1-3.4l-.84-2.89a6.7,6.7,0,0,0,.1-1.4c-.55-4.35-1.14-8.69-1.71-13-.07-.61-.14-1.23-.2-1.84l-.21-6.3c-.08-2.21-.17-4.43-.25-6.65Z"/><path class="cls-15" d="M475.42,415.47c.3-1.41.63-2.81.88-4.23.39-2.16.73-4.3,3.54-4.72.18,0,.31-.35.46-.53h.79l.33.27c2.86-.16,5.73-.34,8.59-.47a19.85,19.85,0,0,1,2,.1,6.23,6.23,0,0,0,1.68,1.1c4.63,1.2,8.25,3.31,10.17,8,2.73,6.74-.28,12.51-5.17,16.41a13.8,13.8,0,0,1-4.57,2.43c-3.65,1.08-7.45,1.68-11.09,2.79-1.8.55-3.38,1.8-5.06,2.74-4.84,1.32-9.67,2.62-14,5.24-2.23,1.36-4.32,2.86-5,5.58-2.23-.5-2.43-2.21-2.52-4a5.26,5.26,0,0,1,3.08-4.71c2.51-1.36,5.12-2.54,7.68-3.8,1.82-.39,3.66-.7,5.46-1.2,5.08-1.39,10.19-2.71,15.2-4.33,4.52-1.46,8.46-3.82,10.48-8.38,2.42-5.46-1.22-11.09-7.24-10.87-4.14.16-8.26.75-12.37,1.24-.41.05-.93.68-1.09,1.14-.82,2.39-1.53,4.81-2.28,7.22-.28-.31-.83-.65-.81-.93C474.82,419.55,475.14,417.51,475.42,415.47Z"/><path class="cls-15" d="M160.88,331.07c4,1.29,4.16,4.55,4.27,7.85-1.55,1.13-.21,2.29.06,3.36s1,2.26-.09,3.36c-.5-1.64-1-3.31-1.55-4.91-.22-.59-.78-1.42-1.28-1.48-4.29-.56-8.59-1.16-12.9-1.37a7,7,0,0,0-7.27,7c-.13,5,2.69,8.25,6.88,10.38a52.49,52.49,0,0,0,8.76,3.32c5.33,1.59,10.74,3,16.11,4.43,3.41-.17,5.92,1.66,8.24,3.72,1.4,1.24,2.92,2.58,2.69,4.78-.34,1.31-.1,3-2.3,3l-2.22-2.25c-4.37-4.66-10.39-5.89-16.23-7.49a5.17,5.17,0,0,0-.77-.78c-3.14-1.89-6.64-2.72-10.18-3.59s-7.39-1.6-10.42-3.92c-3.88-3-6.76-6.67-6.57-11.74.23-5.88,4.85-11.83,11.41-12.54.77-.08,1.44-1.09,2.16-1.66l3-.07,1.07.37.79.26Z"/><path class="cls-16" d="M324.93,182.41c4.53,2.09,9.4,2.66,14.3,3.48,9.44,1.6,18.93,1.9,28.44,2.52,17,1.1,34.09.85,51.11.51,11.2-.22,22.38-1.66,33.54-2.84a106.63,106.63,0,0,0,12.28-2.54,16.4,16.4,0,0,0,2.72-1.12l.41.29c-.09.27-.18.54-.26.81-1.59,2.18-4.26,2.43-6.5,2.84-7,1.28-14.1,2.15-21.18,3.07-3.35.44-6.74.7-10.12.91-4.19.27-8.39.53-12.58.56-12.35.07-24.69.2-37,0-9.91-.18-19.85-.21-29.7-1.72-5.32-.82-10.73-1.13-16.05-2a90.22,90.22,0,0,1-9.55-2.64C324.82,183.8,324.87,183.1,324.93,182.41Z"/><path class="cls-17" d="M615.62,316h2.26c1.13.06,2-.23,2.27-1.47h1.11c.19,1.22.37,2.43.56,3.64-1.66.27-3.31.61-5,.81-4.65.53-9.3,1-14,1.53-3.15.37-6.28,1.12-9.44,1.24-4.62.18-9.25-.08-13.88-.09-3.14,0-6.28.14-9.42.11-4.82-.06-9.64-.21-14.46-.35-.69,0-1.37-.17-2.06-.21-5.68-.35-11.36-.88-17-1-4.74-.07-9.19-1.55-13.82-2.09a9.35,9.35,0,0,0-1.58.08c.23-1.23.47-2.46.7-3.7a64.06,64.06,0,0,0,6.45,1.87c3,.56,6.17.82,9.27,1.21a5.79,5.79,0,0,1,.93,0c6.2,1.78,12.6,1,18.9,1.29,9.66.42,19.35.47,29,.39,5.19,0,10.38-.68,15.56-1.05l3-.74,8.68-.38Z"/><path class="cls-15" d="M389.57,141.72a8.48,8.48,0,0,0-.75-2c-3.67-5.37-1.65-11.6,4.51-13.8.17-.06.33-.16.5-.24l5.25.14c1.58,1,3.74,1.76,4.6,3.22,1.3,2.2,2.15,4.89,1.15,7.57-.61,1.65-1.51,3.2-2.28,4.8a5.81,5.81,0,0,0-1.76.4,8.42,8.42,0,0,1-9,.29A7,7,0,0,0,389.57,141.72Z"/><path class="cls-12" d="M535.52,357.66c1.45,1,2.87,2,4.33,2.9,10,6.44,21.18,8.39,32.89,8.26,9.74-.11,19.11-1.89,27.68-6.67,2.38-1.33,4.58-3,6.87-4.47,1.91,2,2,2.67-.2,4.46a60.82,60.82,0,0,1-5.08,3.41c-5,1.59-9.88,3.46-15,4.7a61.29,61.29,0,0,1-18.53,1.16,103.88,103.88,0,0,1-16-2c-4.6-1-9-3-13.4-4.69a11.48,11.48,0,0,1-3.22-2.17C533.78,360.7,533.76,360,535.52,357.66Z"/><path class="cls-10" d="M537.39,209.42c-1.33-1.49-3-2.81-3.91-4.51a16.58,16.58,0,0,0-6.68-7c-2-1.07-3.83-2.58-5.95-3.34a39.71,39.71,0,0,0-8-1.75,35.47,35.47,0,0,0-7.49-.35,53.74,53.74,0,0,0-7.47,1.43c-1.93.42-3.82,1-5.75,1.41-1,.2-1.94,0-2-1.3,3.86-1.54,7.62-3.42,11.6-4.56a30.9,30.9,0,0,1,23,2.46,3.08,3.08,0,0,0,.54.16c.64.47,1.27,1,1.91,1.41,2.11,1.49,4.28,2.89,6.32,4.47s3.63,3.13,5.44,4.7l.46.47,5.13,6.67c-2.08.93-3.06-1.1-4.6-1.65l-2.29-.85Z"/><path class="cls-10" d="M149.68,330.47c-.72.57-1.39,1.58-2.16,1.66-6.56.71-11.18,6.66-11.41,12.54-.19,5.07,2.69,8.78,6.57,11.74,3,2.32,6.81,3,10.42,3.92s7,1.7,10.18,3.59a5.17,5.17,0,0,1,.77.78l-9.82-1-.8-.59-2.25-.16-3.79-1-6.7-2.34L135,355c-.13-.7-.27-1.39-.4-2.08-.39-1.35-.78-2.7-1.18-4,.55-3.13.91-6.31,1.72-9.38.4-1.51,1.62-2.82,2.47-4.21l3-2.33,2.66-1.2,3.48-1.35Z"/><path class="cls-10" d="M478,439.41c1.68-.94,3.26-2.19,5.06-2.74,3.64-1.11,7.44-1.71,11.09-2.79a13.8,13.8,0,0,0,4.57-2.43c4.89-3.9,7.9-9.67,5.17-16.41-1.92-4.73-5.54-6.84-10.17-8a6.23,6.23,0,0,1-1.68-1.1c7.35-.46,12.62,4.13,14.37,10.74a34.28,34.28,0,0,1,1.1,5.92c.38,4.84-2.24,8.24-5.9,11.07a7.84,7.84,0,0,0-.65.64l-1,.48c-5.91,3-12.42,3.46-18.83,4.38C480.11,439.28,479.05,439.32,478,439.41Z"/><path class="cls-15" d="M567,286a23.65,23.65,0,0,1-1.63-4.8,5.8,5.8,0,0,1,3.31-5.68c2.94-1.14,5.85-.62,7.68,1.58a15.11,15.11,0,0,1,1.53,3c0,.25,0,.49,0,.74l-.42,2.59c-.3.49-.61,1-.92,1.47-1.73,1.69-3.75,2.69-6.25,2.17A30.37,30.37,0,0,1,567,286Z"/><path class="cls-7" d="M389.57,141.72a7,7,0,0,1,2.25.35,8.42,8.42,0,0,0,9-.29,5.81,5.81,0,0,1,1.76-.4c.11.24.21.48.31.72a38.41,38.41,0,0,0,0,3.87c.17,1.64-.71,2.29-2.14,2.32-3.26.07-6.53.13-9.79,0-.59,0-1.49-1.08-1.61-1.77a24.9,24.9,0,0,1-.09-4.41Z"/><path class="cls-7" d="M567,286a30.37,30.37,0,0,0,3.31,1.07c2.5.52,4.52-.48,6.25-2.17l.21,1.79a4.24,4.24,0,0,0-.42,1.55c.26,2-.9,2.5-2.54,2.57-1.32.05-2.64,0-4,0-2.56,0-3-.42-3-2.9,0-.43,0-.86,0-1.29C566.89,286.41,566.94,286.2,567,286Z"/><path class="cls-18" d="M182.5,374.44c2.2.08,2-1.65,2.3-3l1.51,3a5.16,5.16,0,0,1-.07,1.81c-.33.77-.79,1.81-1.43,2s-1.52-.55-2.3-.88l-.39-1.48C182.24,375.43,182.37,374.94,182.5,374.44Z"/><path class="cls-19" d="M204.09,318.61l-2.66.22Z"/><path class="cls-19" d="M165.59,323l-2.33,1.16Z"/><path class="cls-19" d="M163.06,324.2l-.91,1-.84-1.38Z"/><path class="cls-20" d="M402.87,466.6l3.4,0Z"/><path class="cls-21" d="M467.6,186.47c0-.49,0-1,0-1.45C467.63,185.5,467.62,186,467.6,186.47Z"/><path class="cls-19" d="M313.57,333.74c-.09.5-.17,1-.26,1.49C313.4,334.74,313.48,334.24,313.57,333.74Z"/><path class="cls-19" d="M260,318.82l-1.54-.19Z"/><path class="cls-19" d="M313.31,336l-.06,1.47Z"/><path class="cls-19" d="M153.77,330.77l-1.07-.37Z"/><path class="cls-19" d="M298.61,337l.06-1Z"/><path class="cls-19" d="M343.69,398.93l-1.25.84Z"/><path class="cls-19" d="M346.17,398.12l-.76.33Z"/><path class="cls-19" d="M347.67,397.74l-.75.28Z"/><path class="cls-19" d="M153.43,363.1l.8.59Z"/><path class="cls-22" d="M537.39,209.42l.27-2.13,2.29.85c1.54.55,2.52,2.58,4.6,1.65a22,22,0,0,1,4.51,13.27c0,4.22-.76,8.42-1.19,12.63l0,.18c-1.22,2.69-2.43,5.38-3.67,8.06-.38.83-.85,1.62-1.28,2.43l-.41.82-5.94,7.34L532.09,259l-.38.33c-4.32,3.47-8.62,7-13,10.39s-9,6.95-13.44,10.42l-3,2.39c-.58-2.1.8-3.8,1.86-5,4.41-5.2,9.07-10.19,13.8-15.11,3-3.12,6.34-5.94,9.46-9,2-1.91,3.85-3.9,5.64-6a19,19,0,0,0,1.25-2.61c2.07-3.42,4.51-6.77,5.09-10.74a76.69,76.69,0,0,0,.86-14.27c-.13-3-1.61-5.86-2.48-8.79C537.61,210.51,537.51,210,537.39,209.42Z"/><path class="cls-23" d="M500.73,286.75l-1.13,1.11Z"/><path class="cls-23" d="M542.84,270.43c0,.24,0,.48,0,.71l-.44,0,.09-.7Z"/><path class="cls-23" d="M499.6,287.86,498.46,289Z"/><path class="cls-6" d="M605,317.46l-3,.74Z"/><path class="cls-6" d="M620.15,314.5c-.25,1.24-1.14,1.53-2.27,1.47Z"/><path class="cls-6" d="M615.62,316l-1.9,1.1Z"/><path class="cls-24" d="M470.83,401.47a8,8,0,0,1-2.16,1c-4.54.66-9.08,1.43-13.64,1.76a618.76,618.76,0,0,1-80.33.5c-7.33-.42-14.62-1.42-21.93-2.2a15.58,15.58,0,0,1-2.51-.74,12.82,12.82,0,0,1,2.44-.72c4.44-.46,8.88-1,13.34-1.21,10.56-.43,21.13-.66,31.7-1l-1.94,1.14-.05.56,7.85,1.91v0c.28.35.48.9.84,1,1.73.58,5.86-1.26,6.62-2.9a3.41,3.41,0,0,0,.19-1.07c-2.89-1.62-4.28.94-6.1,2.26l-.25-.45,1.23-1.79-5.54-.71c2,0,4-.11,6-.1C428.06,398.9,449.52,398.61,470.83,401.47Z"/><path class="cls-25" d="M397.74,398.94c-10.57.31-21.14.54-31.7,1-4.46.18-8.9.75-13.34,1.21a12.82,12.82,0,0,0-2.44.72c-1.19-.89-1.18-1.45.28-1.84a47.8,47.8,0,0,1,7.37-1.46c6.31-.62,12.63-1.32,19-1.47,17.55-.4,35.1-.73,52.64-.68,9.1,0,18.2.77,27.28,1.43,4.23.31,8.42,1.18,12.62,1.84a4.53,4.53,0,0,1,1.71.72c.1.07-.18.71-.29,1.09-21.31-2.86-42.77-2.57-64.2-2.64-2,0-4,.06-6,.1Z"/><path class="cls-26" d="M290.57,327.06c-9.6,2.26-19.41,2.8-29.2,3-18.73.32-37.47.52-56.2.19-10.4-.19-20.78-1.55-31.16-2.43a26.51,26.51,0,0,1-3.49-.76c.28-.23.54-.63.87-.68a36.23,36.23,0,0,1,4.84-.72C188.6,325,201,324,213.35,323.94c18.8-.14,37.62.21,56.42.63,6.58.15,13.15,1.1,19.71,1.73C289.87,326.34,290.21,326.79,290.57,327.06Z"/><path class="cls-26" d="M397.74,398.94h2.86l5.54.71-1.23,1.79.25.45c1.82-1.32,3.21-3.88,6.1-2.26a3.41,3.41,0,0,1-.19,1.07c-.76,1.64-4.89,3.48-6.62,2.9-.36-.12-.56-.67-.84-1l.5-.3-.21-.2-.3.48-7.85-1.91.05-.56Z"/><path class="cls-24" d="M403.6,402.55l.3-.48.21.2-.5.3Z"/></g></g></svg>