<svg width="275" height="13" viewBox="0 0 275 13" fill="none" xmlns="http://www.w3.org/2000/svg">
<path d="M1.30114 6.0625V10H0.295455V1.27273H1.30114V4.47727H1.38636C1.53977 4.1392 1.76989 3.87074 2.0767 3.67188C2.38636 3.47017 2.7983 3.36932 3.3125 3.36932C3.75852 3.36932 4.14915 3.45881 4.48438 3.63778C4.8196 3.81392 5.07955 4.08523 5.2642 4.4517C5.4517 4.81534 5.54545 5.27841 5.54545 5.84091V10H4.53977V5.90909C4.53977 5.3892 4.40483 4.98722 4.13494 4.70312C3.8679 4.41619 3.49716 4.27273 3.02273 4.27273C2.69318 4.27273 2.39773 4.34233 2.13636 4.48153C1.87784 4.62074 1.6733 4.82386 1.52273 5.09091C1.375 5.35795 1.30114 5.68182 1.30114 6.0625ZM10.2319 3.45455V4.30682H6.83984V3.45455H10.2319ZM7.82848 1.88636H8.83416V8.125C8.83416 8.40909 8.87536 8.62216 8.95774 8.7642C9.04297 8.90341 9.15092 8.99716 9.28161 9.04545C9.41513 9.09091 9.55575 9.11364 9.70348 9.11364C9.81428 9.11364 9.90518 9.10795 9.97621 9.09659C10.0472 9.08239 10.104 9.07102 10.1467 9.0625L10.3512 9.96591C10.283 9.99148 10.1879 10.017 10.0657 10.0426C9.94354 10.071 9.78871 10.0852 9.60121 10.0852C9.31712 10.0852 9.03871 10.0241 8.76598 9.90199C8.49609 9.77983 8.27166 9.59375 8.09268 9.34375C7.91655 9.09375 7.82848 8.77841 7.82848 8.39773V1.88636ZM14.5913 3.45455V4.30682H11.1992V3.45455H14.5913ZM12.1879 1.88636H13.1935V8.125C13.1935 8.40909 13.2347 8.62216 13.3171 8.7642C13.4023 8.90341 13.5103 8.99716 13.641 9.04545C13.7745 9.09091 13.9151 9.11364 14.0629 9.11364C14.1737 9.11364 14.2646 9.10795 14.3356 9.09659C14.4066 9.08239 14.4634 9.07102 14.506 9.0625L14.7106 9.96591C14.6424 9.99148 14.5472 10.017 14.4251 10.0426C14.3029 10.071 14.1481 10.0852 13.9606 10.0852C13.6765 10.0852 13.3981 10.0241 13.1254 9.90199C12.8555 9.77983 12.631 9.59375 12.4521 9.34375C12.2759 9.09375 12.1879 8.77841 12.1879 8.39773V1.88636ZM16.104 12.4545V3.45455H17.0756V4.49432H17.195C17.2688 4.38068 17.3711 4.2358 17.5018 4.05966C17.6353 3.88068 17.8256 3.72159 18.0728 3.58239C18.3228 3.44034 18.6609 3.36932 19.087 3.36932C19.6381 3.36932 20.1239 3.5071 20.5444 3.78267C20.9648 4.05824 21.293 4.44886 21.5288 4.95455C21.7646 5.46023 21.8825 6.05682 21.8825 6.74432C21.8825 7.4375 21.7646 8.03835 21.5288 8.54688C21.293 9.05256 20.9663 9.4446 20.5487 9.72301C20.131 9.99858 19.6495 10.1364 19.104 10.1364C18.6836 10.1364 18.3469 10.0668 18.0941 9.92756C17.8413 9.78551 17.6467 9.625 17.5103 9.44602C17.3739 9.2642 17.2688 9.11364 17.195 8.99432H17.1097V12.4545H16.104ZM17.0927 6.72727C17.0927 7.22159 17.1651 7.65767 17.31 8.03551C17.4549 8.41051 17.6665 8.70455 17.945 8.91761C18.2234 9.12784 18.5643 9.23295 18.9677 9.23295C19.3881 9.23295 19.739 9.12216 20.0202 8.90057C20.3043 8.67614 20.5174 8.375 20.6594 7.99716C20.8043 7.61648 20.8768 7.19318 20.8768 6.72727C20.8768 6.26705 20.8058 5.85227 20.6637 5.48295C20.5245 5.1108 20.3129 4.81676 20.0288 4.60085C19.7475 4.3821 19.3938 4.27273 18.9677 4.27273C18.5586 4.27273 18.2148 4.37642 17.9364 4.58381C17.658 4.78835 17.4478 5.07528 17.3058 5.4446C17.1637 5.81108 17.0927 6.23864 17.0927 6.72727ZM28.0529 4.92045L27.1495 5.17614C27.0927 5.02557 27.0089 4.87926 26.8981 4.73722C26.7901 4.59233 26.6424 4.47301 26.4549 4.37926C26.2674 4.28551 26.0273 4.23864 25.7347 4.23864C25.3342 4.23864 25.0004 4.33097 24.7333 4.51562C24.4691 4.69744 24.337 4.92898 24.337 5.21023C24.337 5.46023 24.4279 5.65767 24.6097 5.80256C24.7915 5.94744 25.0756 6.06818 25.462 6.16477L26.4336 6.40341C27.0188 6.54545 27.4549 6.76278 27.7418 7.0554C28.0288 7.34517 28.1722 7.71875 28.1722 8.17614C28.1722 8.55114 28.0643 8.88636 27.8484 9.18182C27.6353 9.47727 27.337 9.71023 26.9535 9.88068C26.57 10.0511 26.1239 10.1364 25.6154 10.1364C24.9478 10.1364 24.3952 9.99148 23.9577 9.7017C23.5202 9.41193 23.2433 8.98864 23.1268 8.43182L24.0813 8.19318C24.1722 8.54545 24.3441 8.80966 24.5969 8.9858C24.8526 9.16193 25.1864 9.25 25.5984 9.25C26.0671 9.25 26.4393 9.15057 26.7148 8.9517C26.9933 8.75 27.1325 8.50852 27.1325 8.22727C27.1325 8 27.0529 7.80966 26.8938 7.65625C26.7347 7.5 26.4904 7.38352 26.1609 7.30682L25.07 7.05114C24.4705 6.90909 24.0302 6.68892 23.7489 6.39062C23.4705 6.08949 23.3313 5.71307 23.3313 5.26136C23.3313 4.89205 23.435 4.56534 23.6424 4.28125C23.8526 3.99716 24.1381 3.77415 24.4989 3.61222C24.8626 3.45028 25.2745 3.36932 25.7347 3.36932C26.3825 3.36932 26.891 3.51136 27.2603 3.79545C27.6325 4.07955 27.8967 4.45455 28.0529 4.92045ZM30.419 10.0682C30.2088 10.0682 30.0284 9.9929 29.8778 9.84233C29.7273 9.69176 29.652 9.51136 29.652 9.30114C29.652 9.09091 29.7273 8.91051 29.8778 8.75994C30.0284 8.60937 30.2088 8.53409 30.419 8.53409C30.6293 8.53409 30.8097 8.60937 30.9602 8.75994C31.1108 8.91051 31.1861 9.09091 31.1861 9.30114C31.1861 9.44034 31.1506 9.56818 31.0795 9.68466C31.0114 9.80114 30.919 9.89489 30.8026 9.96591C30.6889 10.0341 30.5611 10.0682 30.419 10.0682ZM30.419 5.21023C30.2088 5.21023 30.0284 5.13494 29.8778 4.98438C29.7273 4.83381 29.652 4.65341 29.652 4.44318C29.652 4.23295 29.7273 4.05256 29.8778 3.90199C30.0284 3.75142 30.2088 3.67614 30.419 3.67614C30.6293 3.67614 30.8097 3.75142 30.9602 3.90199C31.1108 4.05256 31.1861 4.23295 31.1861 4.44318C31.1861 4.58239 31.1506 4.71023 31.0795 4.8267C31.0114 4.94318 30.919 5.03693 30.8026 5.10795C30.6889 5.17614 30.5611 5.21023 30.419 5.21023ZM36.076 0.863636L33.2635 11.3125H32.343L35.1555 0.863636H36.076ZM40.3533 0.863636L37.5408 11.3125H36.6204L39.4329 0.863636H40.3533ZM43.0284 10L41.0341 3.45455H42.0909L43.5057 8.46591H43.5739L44.9716 3.45455H46.0455L47.4261 8.44886H47.4943L48.9091 3.45455H49.9659L47.9716 10H46.983L45.5511 4.97159H45.4489L44.017 10H43.0284ZM52.7784 10L50.7841 3.45455H51.8409L53.2557 8.46591H53.3239L54.7216 3.45455H55.7955L57.1761 8.44886H57.2443L58.6591 3.45455H59.7159L57.7216 10H56.733L55.3011 4.97159H55.1989L53.767 10H52.7784ZM62.5284 10L60.5341 3.45455H61.5909L63.0057 8.46591H63.0739L64.4716 3.45455H65.5455L66.9261 8.44886H66.9943L68.4091 3.45455H69.4659L67.4716 10H66.483L65.0511 4.97159H64.9489L63.517 10H62.5284ZM70.6378 10.0682C70.4276 10.0682 70.2472 9.9929 70.0966 9.84233C69.946 9.69176 69.8707 9.51136 69.8707 9.30114C69.8707 9.09091 69.946 8.91051 70.0966 8.75994C70.2472 8.60937 70.4276 8.53409 70.6378 8.53409C70.848 8.53409 71.0284 8.60937 71.179 8.75994C71.3295 8.91051 71.4048 9.09091 71.4048 9.30114C71.4048 9.44034 71.3693 9.56818 71.2983 9.68466C71.2301 9.80114 71.1378 9.89489 71.0213 9.96591C70.9077 10.0341 70.7798 10.0682 70.6378 10.0682ZM77.8459 4.92045L76.9425 5.17614C76.8857 5.02557 76.8018 4.87926 76.6911 4.73722C76.5831 4.59233 76.4354 4.47301 76.2479 4.37926C76.0604 4.28551 75.8203 4.23864 75.5277 4.23864C75.1271 4.23864 74.7933 4.33097 74.5263 4.51562C74.2621 4.69744 74.13 4.92898 74.13 5.21023C74.13 5.46023 74.2209 5.65767 74.4027 5.80256C74.5845 5.94744 74.8686 6.06818 75.255 6.16477L76.2266 6.40341C76.8118 6.54545 77.2479 6.76278 77.5348 7.0554C77.8217 7.34517 77.9652 7.71875 77.9652 8.17614C77.9652 8.55114 77.8572 8.88636 77.6413 9.18182C77.4283 9.47727 77.13 9.71023 76.7464 9.88068C76.3629 10.0511 75.9169 10.1364 75.4084 10.1364C74.7408 10.1364 74.1882 9.99148 73.7507 9.7017C73.3132 9.41193 73.0362 8.98864 72.9197 8.43182L73.8743 8.19318C73.9652 8.54545 74.1371 8.80966 74.3899 8.9858C74.6456 9.16193 74.9794 9.25 75.3913 9.25C75.8601 9.25 76.2322 9.15057 76.5078 8.9517C76.7862 8.75 76.9254 8.50852 76.9254 8.22727C76.9254 8 76.8459 7.80966 76.6868 7.65625C76.5277 7.5 76.2834 7.38352 75.9538 7.30682L74.8629 7.05114C74.2635 6.90909 73.8232 6.68892 73.5419 6.39062C73.2635 6.08949 73.1243 5.71307 73.1243 5.26136C73.1243 4.89205 73.228 4.56534 73.4354 4.28125C73.6456 3.99716 73.9311 3.77415 74.2919 3.61222C74.6555 3.45028 75.0675 3.36932 75.5277 3.36932C76.1754 3.36932 76.6839 3.51136 77.0533 3.79545C77.4254 4.07955 77.6896 4.45455 77.8459 4.92045ZM81.4052 10.1534C80.9904 10.1534 80.614 10.0753 80.2759 9.91903C79.9379 9.75994 79.6694 9.53125 79.4705 9.23295C79.2717 8.93182 79.1722 8.56818 79.1722 8.14205C79.1722 7.76705 79.2461 7.46307 79.3938 7.23011C79.5415 6.99432 79.739 6.80966 79.9862 6.67614C80.2333 6.54261 80.506 6.44318 80.8043 6.37784C81.1055 6.30966 81.408 6.25568 81.712 6.21591C82.1097 6.16477 82.4322 6.12642 82.6793 6.10085C82.9293 6.07244 83.1112 6.02557 83.2248 5.96023C83.3413 5.89489 83.3995 5.78125 83.3995 5.61932V5.58523C83.3995 5.16477 83.2844 4.83807 83.0543 4.60511C82.8271 4.37216 82.4819 4.25568 82.0188 4.25568C81.5387 4.25568 81.1623 4.3608 80.8896 4.57102C80.6168 4.78125 80.4251 5.00568 80.3143 5.24432L79.3597 4.90341C79.5302 4.50568 79.7575 4.19602 80.0415 3.97443C80.3285 3.75 80.641 3.59375 80.979 3.50568C81.32 3.41477 81.6552 3.36932 81.9847 3.36932C82.195 3.36932 82.4364 3.39489 82.7092 3.44602C82.9847 3.49432 83.2504 3.59517 83.506 3.74858C83.7646 3.90199 83.979 4.13352 84.1495 4.44318C84.32 4.75284 84.4052 5.16761 84.4052 5.6875V10H83.3995V9.11364H83.3484C83.2802 9.25568 83.1665 9.40767 83.0075 9.5696C82.8484 9.73153 82.6367 9.86932 82.3725 9.98295C82.1083 10.0966 81.7859 10.1534 81.4052 10.1534ZM81.5586 9.25C81.9563 9.25 82.2915 9.17188 82.5643 9.01562C82.8398 8.85938 83.0472 8.65767 83.1864 8.41051C83.3285 8.16335 83.3995 7.90341 83.3995 7.63068V6.71023C83.3569 6.76136 83.2631 6.80824 83.1183 6.85085C82.9762 6.89062 82.8114 6.92614 82.6239 6.95739C82.4393 6.9858 82.2589 7.01136 82.0827 7.03409C81.9094 7.05398 81.7688 7.07102 81.6609 7.08523C81.3995 7.11932 81.1552 7.17472 80.9279 7.25142C80.7035 7.32528 80.5217 7.4375 80.3825 7.58807C80.2461 7.7358 80.1779 7.9375 80.1779 8.19318C80.1779 8.54261 80.3072 8.80682 80.5657 8.9858C80.8271 9.16193 81.158 9.25 81.5586 9.25ZM87.2464 1.27273V10H86.2408V1.27273H87.2464ZM91.8327 10.1364C91.2021 10.1364 90.658 9.99716 90.2006 9.71875C89.7461 9.4375 89.3952 9.04545 89.1481 8.54261C88.9038 8.03693 88.7816 7.44886 88.7816 6.77841C88.7816 6.10795 88.9038 5.51705 89.1481 5.00568C89.3952 4.49148 89.739 4.09091 90.1793 3.80398C90.6225 3.5142 91.1396 3.36932 91.7305 3.36932C92.0714 3.36932 92.408 3.42614 92.7404 3.53977C93.0728 3.65341 93.3754 3.83807 93.6481 4.09375C93.9208 4.34659 94.1381 4.68182 94.3001 5.09943C94.462 5.51705 94.543 6.03125 94.543 6.64205V7.06818H89.4975V6.19886H93.5202C93.5202 5.82955 93.4464 5.5 93.2987 5.21023C93.1538 4.92045 92.9464 4.69176 92.6765 4.52415C92.4094 4.35653 92.0941 4.27273 91.7305 4.27273C91.3299 4.27273 90.9833 4.37216 90.6907 4.57102C90.4009 4.76705 90.1779 5.02273 90.0217 5.33807C89.8654 5.65341 89.7873 5.99148 89.7873 6.35227V6.93182C89.7873 7.42614 89.8725 7.84517 90.043 8.18892C90.2163 8.52983 90.4563 8.78977 90.7631 8.96875C91.07 9.14489 91.4265 9.23295 91.8327 9.23295C92.0969 9.23295 92.3356 9.19602 92.5487 9.12216C92.7646 9.04545 92.9506 8.93182 93.1069 8.78125C93.2631 8.62784 93.3839 8.4375 93.4691 8.21023L94.4407 8.48295C94.3384 8.8125 94.1665 9.10227 93.9251 9.35227C93.6836 9.59943 93.3853 9.79261 93.0302 9.93182C92.6751 10.0682 92.2759 10.1364 91.8327 10.1364ZM100.709 4.92045L99.8058 5.17614C99.7489 5.02557 99.6651 4.87926 99.5543 4.73722C99.4464 4.59233 99.2987 4.47301 99.1112 4.37926C98.9237 4.28551 98.6836 4.23864 98.391 4.23864C97.9904 4.23864 97.6566 4.33097 97.3896 4.51562C97.1254 4.69744 96.9933 4.92898 96.9933 5.21023C96.9933 5.46023 97.0842 5.65767 97.266 5.80256C97.4478 5.94744 97.7319 6.06818 98.1183 6.16477L99.0898 6.40341C99.6751 6.54545 100.111 6.76278 100.398 7.0554C100.685 7.34517 100.828 7.71875 100.828 8.17614C100.828 8.55114 100.721 8.88636 100.505 9.18182C100.292 9.47727 99.9933 9.71023 99.6097 9.88068C99.2262 10.0511 98.7802 10.1364 98.2717 10.1364C97.604 10.1364 97.0515 9.99148 96.614 9.7017C96.1765 9.41193 95.8995 8.98864 95.783 8.43182L96.7376 8.19318C96.8285 8.54545 97.0004 8.80966 97.2532 8.9858C97.5089 9.16193 97.8427 9.25 98.2546 9.25C98.7234 9.25 99.0955 9.15057 99.3711 8.9517C99.6495 8.75 99.7887 8.50852 99.7887 8.22727C99.7887 8 99.7092 7.80966 99.5501 7.65625C99.391 7.5 99.1467 7.38352 98.8171 7.30682L97.7262 7.05114C97.1268 6.90909 96.6864 6.68892 96.4052 6.39062C96.1268 6.08949 95.9876 5.71307 95.9876 5.26136C95.9876 4.89205 96.0913 4.56534 96.2987 4.28125C96.5089 3.99716 96.7944 3.77415 97.1552 3.61222C97.5188 3.45028 97.9308 3.36932 98.391 3.36932C99.0387 3.36932 99.5472 3.51136 99.9165 3.79545C100.289 4.07955 100.553 4.45455 100.709 4.92045ZM105.257 3.45455V4.30682H101.729V3.45455H105.257ZM102.786 10V2.55114C102.786 2.17614 102.874 1.86364 103.05 1.61364C103.226 1.36364 103.455 1.17614 103.736 1.05114C104.017 0.926136 104.314 0.863636 104.626 0.863636C104.874 0.863636 105.075 0.883522 105.232 0.923295C105.388 0.963068 105.504 1 105.581 1.03409L105.291 1.90341C105.24 1.88636 105.169 1.86506 105.078 1.83949C104.99 1.81392 104.874 1.80114 104.729 1.80114C104.396 1.80114 104.156 1.88494 104.009 2.05256C103.864 2.22017 103.791 2.46591 103.791 2.78977V10H102.786ZM109.056 10.1364C108.465 10.1364 107.947 9.99574 107.501 9.71449C107.058 9.43324 106.711 9.03977 106.461 8.53409C106.214 8.02841 106.09 7.4375 106.09 6.76136C106.09 6.07955 106.214 5.48437 106.461 4.97585C106.711 4.46733 107.058 4.07244 107.501 3.79119C107.947 3.50994 108.465 3.36932 109.056 3.36932C109.647 3.36932 110.164 3.50994 110.607 3.79119C111.053 4.07244 111.4 4.46733 111.647 4.97585C111.897 5.48437 112.022 6.07955 112.022 6.76136C112.022 7.4375 111.897 8.02841 111.647 8.53409C111.4 9.03977 111.053 9.43324 110.607 9.71449C110.164 9.99574 109.647 10.1364 109.056 10.1364ZM109.056 9.23295C109.505 9.23295 109.874 9.1179 110.164 8.88778C110.454 8.65767 110.668 8.35511 110.808 7.98011C110.947 7.60511 111.016 7.19886 111.016 6.76136C111.016 6.32386 110.947 5.91619 110.808 5.53835C110.668 5.16051 110.454 4.85511 110.164 4.62216C109.874 4.3892 109.505 4.27273 109.056 4.27273C108.607 4.27273 108.238 4.3892 107.948 4.62216C107.658 4.85511 107.444 5.16051 107.305 5.53835C107.165 5.91619 107.096 6.32386 107.096 6.76136C107.096 7.19886 107.165 7.60511 107.305 7.98011C107.444 8.35511 107.658 8.65767 107.948 8.88778C108.238 9.1179 108.607 9.23295 109.056 9.23295ZM113.557 10V3.45455H114.529V4.44318H114.597C114.716 4.11932 114.932 3.85653 115.245 3.65483C115.557 3.45312 115.909 3.35227 116.301 3.35227C116.375 3.35227 116.468 3.35369 116.578 3.35653C116.689 3.35937 116.773 3.36364 116.83 3.36932V4.39205C116.796 4.38352 116.718 4.37074 116.596 4.35369C116.476 4.33381 116.35 4.32386 116.216 4.32386C115.898 4.32386 115.614 4.39062 115.364 4.52415C115.117 4.65483 114.921 4.83665 114.776 5.0696C114.634 5.29972 114.563 5.5625 114.563 5.85795V10H113.557ZM120.482 10.1364C119.868 10.1364 119.34 9.99148 118.897 9.7017C118.453 9.41193 118.113 9.01278 117.874 8.50426C117.635 7.99574 117.516 7.41477 117.516 6.76136C117.516 6.09659 117.638 5.50994 117.882 5.00142C118.13 4.49006 118.473 4.09091 118.914 3.80398C119.357 3.5142 119.874 3.36932 120.465 3.36932C120.925 3.36932 121.34 3.45455 121.709 3.625C122.078 3.79545 122.381 4.03409 122.617 4.34091C122.853 4.64773 122.999 5.00568 123.056 5.41477H122.05C121.973 5.11648 121.803 4.85227 121.539 4.62216C121.277 4.3892 120.925 4.27273 120.482 4.27273C120.09 4.27273 119.746 4.375 119.451 4.57955C119.158 4.78125 118.929 5.06676 118.765 5.43608C118.603 5.80256 118.522 6.23295 118.522 6.72727C118.522 7.23295 118.601 7.6733 118.76 8.0483C118.922 8.4233 119.15 8.71449 119.442 8.92188C119.738 9.12926 120.084 9.23295 120.482 9.23295C120.743 9.23295 120.98 9.1875 121.194 9.09659C121.407 9.00568 121.587 8.875 121.735 8.70455C121.882 8.53409 121.988 8.32955 122.05 8.09091H123.056C122.999 8.47727 122.858 8.82528 122.634 9.13494C122.412 9.44176 122.118 9.68608 121.752 9.8679C121.388 10.0469 120.965 10.1364 120.482 10.1364ZM127.27 10.1364C126.64 10.1364 126.096 9.99716 125.638 9.71875C125.184 9.4375 124.833 9.04545 124.586 8.54261C124.341 8.03693 124.219 7.44886 124.219 6.77841C124.219 6.10795 124.341 5.51705 124.586 5.00568C124.833 4.49148 125.176 4.09091 125.617 3.80398C126.06 3.5142 126.577 3.36932 127.168 3.36932C127.509 3.36932 127.846 3.42614 128.178 3.53977C128.51 3.65341 128.813 3.83807 129.086 4.09375C129.358 4.34659 129.576 4.68182 129.738 5.09943C129.9 5.51705 129.98 6.03125 129.98 6.64205V7.06818H124.935V6.19886H128.958C128.958 5.82955 128.884 5.5 128.736 5.21023C128.591 4.92045 128.384 4.69176 128.114 4.52415C127.847 4.35653 127.532 4.27273 127.168 4.27273C126.767 4.27273 126.421 4.37216 126.128 4.57102C125.838 4.76705 125.615 5.02273 125.459 5.33807C125.303 5.65341 125.225 5.99148 125.225 6.35227V6.93182C125.225 7.42614 125.31 7.84517 125.48 8.18892C125.654 8.52983 125.894 8.78977 126.201 8.96875C126.507 9.14489 126.864 9.23295 127.27 9.23295C127.534 9.23295 127.773 9.19602 127.986 9.12216C128.202 9.04545 128.388 8.93182 128.544 8.78125C128.701 8.62784 128.821 8.4375 128.907 8.21023L129.878 8.48295C129.776 8.8125 129.604 9.10227 129.363 9.35227C129.121 9.59943 128.823 9.79261 128.468 9.93182C128.113 10.0682 127.713 10.1364 127.27 10.1364ZM132.703 1.27273V10H131.647V1.27273H132.703ZM135.692 6.0625V10H134.686V3.45455H135.658V4.47727H135.743C135.896 4.14489 136.129 3.87784 136.442 3.67614C136.754 3.47159 137.158 3.36932 137.652 3.36932C138.095 3.36932 138.483 3.46023 138.815 3.64205C139.148 3.82102 139.406 4.09375 139.591 4.46023C139.776 4.82386 139.868 5.28409 139.868 5.84091V10H138.862V5.90909C138.862 5.39489 138.729 4.99432 138.462 4.70739C138.195 4.41761 137.828 4.27273 137.362 4.27273C137.041 4.27273 136.754 4.34233 136.501 4.48153C136.251 4.62074 136.054 4.82386 135.909 5.09091C135.764 5.35795 135.692 5.68182 135.692 6.0625ZM144.552 3.45455V4.30682H141.16V3.45455H144.552ZM142.149 1.88636H143.154V8.125C143.154 8.40909 143.196 8.62216 143.278 8.7642C143.363 8.90341 143.471 8.99716 143.602 9.04545C143.735 9.09091 143.876 9.11364 144.024 9.11364C144.135 9.11364 144.225 9.10795 144.297 9.09659C144.368 9.08239 144.424 9.07102 144.467 9.0625L144.672 9.96591C144.603 9.99148 144.508 10.017 144.386 10.0426C144.264 10.071 144.109 10.0852 143.922 10.0852C143.637 10.0852 143.359 10.0241 143.086 9.90199C142.816 9.77983 142.592 9.59375 142.413 9.34375C142.237 9.09375 142.149 8.77841 142.149 8.39773V1.88636ZM148.739 10.1364C148.108 10.1364 147.564 9.99716 147.107 9.71875C146.652 9.4375 146.301 9.04545 146.054 8.54261C145.81 8.03693 145.688 7.44886 145.688 6.77841C145.688 6.10795 145.81 5.51705 146.054 5.00568C146.301 4.49148 146.645 4.09091 147.086 3.80398C147.529 3.5142 148.046 3.36932 148.637 3.36932C148.978 3.36932 149.314 3.42614 149.647 3.53977C149.979 3.65341 150.282 3.83807 150.554 4.09375C150.827 4.34659 151.044 4.68182 151.206 5.09943C151.368 5.51705 151.449 6.03125 151.449 6.64205V7.06818H146.404V6.19886H150.426C150.426 5.82955 150.353 5.5 150.205 5.21023C150.06 4.92045 149.853 4.69176 149.583 4.52415C149.316 4.35653 149 4.27273 148.637 4.27273C148.236 4.27273 147.89 4.37216 147.597 4.57102C147.307 4.76705 147.084 5.02273 146.928 5.33807C146.772 5.65341 146.694 5.99148 146.694 6.35227V6.93182C146.694 7.42614 146.779 7.84517 146.949 8.18892C147.123 8.52983 147.363 8.78977 147.669 8.96875C147.976 9.14489 148.333 9.23295 148.739 9.23295C149.003 9.23295 149.242 9.19602 149.455 9.12216C149.671 9.04545 149.857 8.93182 150.013 8.78125C150.169 8.62784 150.29 8.4375 150.375 8.21023L151.347 8.48295C151.245 8.8125 151.073 9.10227 150.831 9.35227C150.59 9.59943 150.292 9.79261 149.936 9.93182C149.581 10.0682 149.182 10.1364 148.739 10.1364ZM152.979 10V3.45455H153.951V4.44318H154.019C154.138 4.11932 154.354 3.85653 154.667 3.65483C154.979 3.45312 155.331 3.35227 155.723 3.35227C155.797 3.35227 155.89 3.35369 156 3.35653C156.111 3.35937 156.195 3.36364 156.252 3.36932V4.39205C156.218 4.38352 156.14 4.37074 156.017 4.35369C155.898 4.33381 155.772 4.32386 155.638 4.32386C155.32 4.32386 155.036 4.39062 154.786 4.52415C154.539 4.65483 154.343 4.83665 154.198 5.0696C154.056 5.29972 153.985 5.5625 153.985 5.85795V10H152.979ZM158.45 6.0625V10H157.444V3.45455H158.415V4.47727H158.501C158.654 4.14489 158.887 3.87784 159.2 3.67614C159.512 3.47159 159.915 3.36932 160.41 3.36932C160.853 3.36932 161.241 3.46023 161.573 3.64205C161.906 3.82102 162.164 4.09375 162.349 4.46023C162.533 4.82386 162.626 5.28409 162.626 5.84091V10H161.62V5.90909C161.62 5.39489 161.487 4.99432 161.219 4.70739C160.952 4.41761 160.586 4.27273 160.12 4.27273C159.799 4.27273 159.512 4.34233 159.259 4.48153C159.009 4.62074 158.812 4.82386 158.667 5.09091C158.522 5.35795 158.45 5.68182 158.45 6.0625ZM166.39 10.1534C165.975 10.1534 165.598 10.0753 165.26 9.91903C164.922 9.75994 164.654 9.53125 164.455 9.23295C164.256 8.93182 164.157 8.56818 164.157 8.14205C164.157 7.76705 164.23 7.46307 164.378 7.23011C164.526 6.99432 164.723 6.80966 164.971 6.67614C165.218 6.54261 165.49 6.44318 165.789 6.37784C166.09 6.30966 166.392 6.25568 166.696 6.21591C167.094 6.16477 167.417 6.12642 167.664 6.10085C167.914 6.07244 168.096 6.02557 168.209 5.96023C168.326 5.89489 168.384 5.78125 168.384 5.61932V5.58523C168.384 5.16477 168.269 4.83807 168.039 4.60511C167.811 4.37216 167.466 4.25568 167.003 4.25568C166.523 4.25568 166.147 4.3608 165.874 4.57102C165.601 4.78125 165.409 5.00568 165.299 5.24432L164.344 4.90341C164.515 4.50568 164.742 4.19602 165.026 3.97443C165.313 3.75 165.625 3.59375 165.963 3.50568C166.304 3.41477 166.64 3.36932 166.969 3.36932C167.179 3.36932 167.421 3.39489 167.694 3.44602C167.969 3.49432 168.235 3.59517 168.49 3.74858C168.749 3.90199 168.963 4.13352 169.134 4.44318C169.304 4.75284 169.39 5.16761 169.39 5.6875V10H168.384V9.11364H168.333C168.265 9.25568 168.151 9.40767 167.992 9.5696C167.833 9.73153 167.621 9.86932 167.357 9.98295C167.093 10.0966 166.77 10.1534 166.39 10.1534ZM166.543 9.25C166.941 9.25 167.276 9.17188 167.549 9.01562C167.824 8.85938 168.032 8.65767 168.171 8.41051C168.313 8.16335 168.384 7.90341 168.384 7.63068V6.71023C168.341 6.76136 168.248 6.80824 168.103 6.85085C167.961 6.89062 167.796 6.92614 167.608 6.95739C167.424 6.9858 167.243 7.01136 167.067 7.03409C166.894 7.05398 166.753 7.07102 166.645 7.08523C166.384 7.11932 166.14 7.17472 165.912 7.25142C165.688 7.32528 165.506 7.4375 165.367 7.58807C165.23 7.7358 165.162 7.9375 165.162 8.19318C165.162 8.54261 165.292 8.80682 165.55 8.9858C165.811 9.16193 166.142 9.25 166.543 9.25ZM172.231 1.27273V10H171.225V1.27273H172.231ZM174.806 10.0682C174.596 10.0682 174.415 9.9929 174.265 9.84233C174.114 9.69176 174.039 9.51136 174.039 9.30114C174.039 9.09091 174.114 8.91051 174.265 8.75994C174.415 8.60937 174.596 8.53409 174.806 8.53409C175.016 8.53409 175.196 8.60937 175.347 8.75994C175.498 8.91051 175.573 9.09091 175.573 9.30114C175.573 9.44034 175.537 9.56818 175.466 9.68466C175.398 9.80114 175.306 9.89489 175.189 9.96591C175.076 10.0341 174.948 10.0682 174.806 10.0682ZM177.514 10V1.27273H178.52V4.49432H178.605C178.679 4.38068 178.781 4.2358 178.912 4.05966C179.045 3.88068 179.235 3.72159 179.483 3.58239C179.733 3.44034 180.071 3.36932 180.497 3.36932C181.048 3.36932 181.534 3.5071 181.954 3.78267C182.375 4.05824 182.703 4.44886 182.939 4.95455C183.174 5.46023 183.292 6.05682 183.292 6.74432C183.292 7.4375 183.174 8.03835 182.939 8.54688C182.703 9.05256 182.376 9.4446 181.958 9.72301C181.541 9.99858 181.059 10.1364 180.514 10.1364C180.093 10.1364 179.757 10.0668 179.504 9.92756C179.251 9.78551 179.056 9.625 178.92 9.44602C178.784 9.2642 178.679 9.11364 178.605 8.99432H178.485V10H177.514ZM178.502 6.72727C178.502 7.22159 178.575 7.65767 178.72 8.03551C178.865 8.41051 179.076 8.70455 179.355 8.91761C179.633 9.12784 179.974 9.23295 180.377 9.23295C180.798 9.23295 181.149 9.12216 181.43 8.90057C181.714 8.67614 181.927 8.375 182.069 7.99716C182.214 7.61648 182.287 7.19318 182.287 6.72727C182.287 6.26705 182.216 5.85227 182.074 5.48295C181.934 5.1108 181.723 4.81676 181.439 4.60085C181.157 4.3821 180.804 4.27273 180.377 4.27273C179.968 4.27273 179.625 4.37642 179.346 4.58381C179.068 4.78835 178.858 5.07528 178.716 5.4446C178.574 5.81108 178.502 6.23864 178.502 6.72727ZM187.49 10.1364C186.899 10.1364 186.38 9.99574 185.934 9.71449C185.491 9.43324 185.145 9.03977 184.895 8.53409C184.647 8.02841 184.524 7.4375 184.524 6.76136C184.524 6.07955 184.647 5.48437 184.895 4.97585C185.145 4.46733 185.491 4.07244 185.934 3.79119C186.38 3.50994 186.899 3.36932 187.49 3.36932C188.081 3.36932 188.598 3.50994 189.041 3.79119C189.487 4.07244 189.833 4.46733 190.081 4.97585C190.331 5.48437 190.456 6.07955 190.456 6.76136C190.456 7.4375 190.331 8.02841 190.081 8.53409C189.833 9.03977 189.487 9.43324 189.041 9.71449C188.598 9.99574 188.081 10.1364 187.49 10.1364ZM187.49 9.23295C187.939 9.23295 188.308 9.1179 188.598 8.88778C188.887 8.65767 189.102 8.35511 189.241 7.98011C189.38 7.60511 189.45 7.19886 189.45 6.76136C189.45 6.32386 189.38 5.91619 189.241 5.53835C189.102 5.16051 188.887 4.85511 188.598 4.62216C188.308 4.3892 187.939 4.27273 187.49 4.27273C187.041 4.27273 186.672 4.3892 186.382 4.62216C186.092 4.85511 185.877 5.16051 185.738 5.53835C185.599 5.91619 185.529 6.32386 185.529 6.76136C185.529 7.19886 185.599 7.60511 185.738 7.98011C185.877 8.35511 186.092 8.65767 186.382 8.88778C186.672 9.1179 187.041 9.23295 187.49 9.23295ZM191.991 10V3.45455H192.962V4.44318H193.031C193.15 4.11932 193.366 3.85653 193.678 3.65483C193.991 3.45312 194.343 3.35227 194.735 3.35227C194.809 3.35227 194.901 3.35369 195.012 3.35653C195.123 3.35937 195.207 3.36364 195.263 3.36932V4.39205C195.229 4.38352 195.151 4.37074 195.029 4.35369C194.91 4.33381 194.783 4.32386 194.65 4.32386C194.332 4.32386 194.048 4.39062 193.798 4.52415C193.55 4.65483 193.354 4.83665 193.21 5.0696C193.067 5.29972 192.996 5.5625 192.996 5.85795V10H191.991ZM198.898 12.5909C198.413 12.5909 197.995 12.5284 197.646 12.4034C197.296 12.2812 197.005 12.1193 196.772 11.9176C196.542 11.7188 196.359 11.5057 196.222 11.2784L197.023 10.7159C197.114 10.8352 197.229 10.9716 197.369 11.125C197.508 11.2812 197.698 11.4162 197.94 11.5298C198.184 11.6463 198.504 11.7045 198.898 11.7045C199.427 11.7045 199.863 11.5767 200.207 11.321C200.55 11.0653 200.722 10.6648 200.722 10.1193V8.78977H200.637C200.563 8.90909 200.458 9.05682 200.322 9.23295C200.188 9.40625 199.995 9.56108 199.742 9.69744C199.492 9.83097 199.154 9.89773 198.728 9.89773C198.2 9.89773 197.725 9.77273 197.305 9.52273C196.887 9.27273 196.556 8.90909 196.312 8.43182C196.07 7.95455 195.95 7.375 195.95 6.69318C195.95 6.02273 196.067 5.43892 196.303 4.94176C196.539 4.44176 196.867 4.0554 197.288 3.78267C197.708 3.5071 198.194 3.36932 198.745 3.36932C199.171 3.36932 199.509 3.44034 199.759 3.58239C200.012 3.72159 200.205 3.88068 200.339 4.05966C200.475 4.2358 200.58 4.38068 200.654 4.49432H200.756V3.45455H201.728V10.1875C201.728 10.75 201.6 11.2074 201.344 11.5597C201.092 11.9148 200.751 12.1747 200.322 12.3395C199.896 12.5071 199.421 12.5909 198.898 12.5909ZM198.864 8.99432C199.268 8.99432 199.609 8.90199 199.887 8.71733C200.165 8.53267 200.377 8.26705 200.522 7.92045C200.667 7.57386 200.739 7.15909 200.739 6.67614C200.739 6.20455 200.668 5.78835 200.526 5.42756C200.384 5.06676 200.174 4.78409 199.896 4.57955C199.617 4.375 199.273 4.27273 198.864 4.27273C198.438 4.27273 198.083 4.38068 197.799 4.59659C197.518 4.8125 197.306 5.10227 197.164 5.46591C197.025 5.82955 196.955 6.23295 196.955 6.67614C196.955 7.13068 197.026 7.53267 197.168 7.8821C197.313 8.22869 197.526 8.50142 197.808 8.70028C198.092 8.89631 198.444 8.99432 198.864 8.99432ZM206.654 0.863636L203.842 11.3125H202.921L205.734 0.863636H206.654ZM208.852 1.27273V10H207.846V1.27273H208.852ZM212.62 10.1534C212.205 10.1534 211.829 10.0753 211.491 9.91903C211.153 9.75994 210.884 9.53125 210.685 9.23295C210.487 8.93182 210.387 8.56818 210.387 8.14205C210.387 7.76705 210.461 7.46307 210.609 7.23011C210.756 6.99432 210.954 6.80966 211.201 6.67614C211.448 6.54261 211.721 6.44318 212.019 6.37784C212.32 6.30966 212.623 6.25568 212.927 6.21591C213.325 6.16477 213.647 6.12642 213.894 6.10085C214.144 6.07244 214.326 6.02557 214.44 5.96023C214.556 5.89489 214.614 5.78125 214.614 5.61932V5.58523C214.614 5.16477 214.499 4.83807 214.269 4.60511C214.042 4.37216 213.697 4.25568 213.234 4.25568C212.754 4.25568 212.377 4.3608 212.104 4.57102C211.832 4.78125 211.64 5.00568 211.529 5.24432L210.575 4.90341C210.745 4.50568 210.972 4.19602 211.256 3.97443C211.543 3.75 211.856 3.59375 212.194 3.50568C212.535 3.41477 212.87 3.36932 213.2 3.36932C213.41 3.36932 213.651 3.39489 213.924 3.44602C214.2 3.49432 214.465 3.59517 214.721 3.74858C214.979 3.90199 215.194 4.13352 215.364 4.44318C215.535 4.75284 215.62 5.16761 215.62 5.6875V10H214.614V9.11364H214.563C214.495 9.25568 214.381 9.40767 214.222 9.5696C214.063 9.73153 213.852 9.86932 213.587 9.98295C213.323 10.0966 213.001 10.1534 212.62 10.1534ZM212.773 9.25C213.171 9.25 213.506 9.17188 213.779 9.01562C214.055 8.85938 214.262 8.65767 214.401 8.41051C214.543 8.16335 214.614 7.90341 214.614 7.63068V6.71023C214.572 6.76136 214.478 6.80824 214.333 6.85085C214.191 6.89062 214.026 6.92614 213.839 6.95739C213.654 6.9858 213.474 7.01136 213.298 7.03409C213.124 7.05398 212.984 7.07102 212.876 7.08523C212.614 7.11932 212.37 7.17472 212.143 7.25142C211.918 7.32528 211.737 7.4375 211.597 7.58807C211.461 7.7358 211.393 7.9375 211.393 8.19318C211.393 8.54261 211.522 8.80682 211.781 8.9858C212.042 9.16193 212.373 9.25 212.773 9.25ZM217.456 12.4545V3.45455H218.427V4.49432H218.547C218.62 4.38068 218.723 4.2358 218.853 4.05966C218.987 3.88068 219.177 3.72159 219.424 3.58239C219.674 3.44034 220.012 3.36932 220.439 3.36932C220.99 3.36932 221.475 3.5071 221.896 3.78267C222.316 4.05824 222.645 4.44886 222.88 4.95455C223.116 5.46023 223.234 6.05682 223.234 6.74432C223.234 7.4375 223.116 8.03835 222.88 8.54688C222.645 9.05256 222.318 9.4446 221.9 9.72301C221.483 9.99858 221.001 10.1364 220.456 10.1364C220.035 10.1364 219.699 10.0668 219.446 9.92756C219.193 9.78551 218.998 9.625 218.862 9.44602C218.725 9.2642 218.62 9.11364 218.547 8.99432H218.461V12.4545H217.456ZM218.444 6.72727C218.444 7.22159 218.517 7.65767 218.662 8.03551C218.806 8.41051 219.018 8.70455 219.297 8.91761C219.575 9.12784 219.916 9.23295 220.319 9.23295C220.74 9.23295 221.091 9.12216 221.372 8.90057C221.656 8.67614 221.869 8.375 222.011 7.99716C222.156 7.61648 222.228 7.19318 222.228 6.72727C222.228 6.26705 222.157 5.85227 222.015 5.48295C221.876 5.1108 221.664 4.81676 221.38 4.60085C221.099 4.3821 220.745 4.27273 220.319 4.27273C219.91 4.27273 219.566 4.37642 219.288 4.58381C219.01 4.78835 218.799 5.07528 218.657 5.4446C218.515 5.81108 218.444 6.23864 218.444 6.72727ZM227.615 3.45455V4.30682H224.223V3.45455H227.615ZM225.211 1.88636H226.217V8.125C226.217 8.40909 226.258 8.62216 226.341 8.7642C226.426 8.90341 226.534 8.99716 226.664 9.04545C226.798 9.09091 226.939 9.11364 227.086 9.11364C227.197 9.11364 227.288 9.10795 227.359 9.09659C227.43 9.08239 227.487 9.07102 227.529 9.0625L227.734 9.96591C227.666 9.99148 227.571 10.017 227.449 10.0426C227.326 10.071 227.172 10.0852 226.984 10.0852C226.7 10.0852 226.422 10.0241 226.149 9.90199C225.879 9.77983 225.654 9.59375 225.475 9.34375C225.299 9.09375 225.211 8.77841 225.211 8.39773V1.88636ZM231.716 10.1364C231.125 10.1364 230.607 9.99574 230.161 9.71449C229.718 9.43324 229.371 9.03977 229.121 8.53409C228.874 8.02841 228.75 7.4375 228.75 6.76136C228.75 6.07955 228.874 5.48437 229.121 4.97585C229.371 4.46733 229.718 4.07244 230.161 3.79119C230.607 3.50994 231.125 3.36932 231.716 3.36932C232.307 3.36932 232.824 3.50994 233.267 3.79119C233.713 4.07244 234.06 4.46733 234.307 4.97585C234.557 5.48437 234.682 6.07955 234.682 6.76136C234.682 7.4375 234.557 8.02841 234.307 8.53409C234.06 9.03977 233.713 9.43324 233.267 9.71449C232.824 9.99574 232.307 10.1364 231.716 10.1364ZM231.716 9.23295C232.165 9.23295 232.534 9.1179 232.824 8.88778C233.114 8.65767 233.328 8.35511 233.468 7.98011C233.607 7.60511 233.676 7.19886 233.676 6.76136C233.676 6.32386 233.607 5.91619 233.468 5.53835C233.328 5.16051 233.114 4.85511 232.824 4.62216C232.534 4.3892 232.165 4.27273 231.716 4.27273C231.267 4.27273 230.898 4.3892 230.608 4.62216C230.319 4.85511 230.104 5.16051 229.965 5.53835C229.826 5.91619 229.756 6.32386 229.756 6.76136C229.756 7.19886 229.826 7.60511 229.965 7.98011C230.104 8.35511 230.319 8.65767 230.608 8.88778C230.898 9.1179 231.267 9.23295 231.716 9.23295ZM236.217 12.4545V3.45455H237.189V4.49432H237.308C237.382 4.38068 237.484 4.2358 237.615 4.05966C237.749 3.88068 237.939 3.72159 238.186 3.58239C238.436 3.44034 238.774 3.36932 239.2 3.36932C239.751 3.36932 240.237 3.5071 240.658 3.78267C241.078 4.05824 241.406 4.44886 241.642 4.95455C241.878 5.46023 241.996 6.05682 241.996 6.74432C241.996 7.4375 241.878 8.03835 241.642 8.54688C241.406 9.05256 241.08 9.4446 240.662 9.72301C240.244 9.99858 239.763 10.1364 239.217 10.1364C238.797 10.1364 238.46 10.0668 238.207 9.92756C237.955 9.78551 237.76 9.625 237.624 9.44602C237.487 9.2642 237.382 9.11364 237.308 8.99432H237.223V12.4545H236.217ZM237.206 6.72727C237.206 7.22159 237.278 7.65767 237.423 8.03551C237.568 8.41051 237.78 8.70455 238.058 8.91761C238.337 9.12784 238.678 9.23295 239.081 9.23295C239.501 9.23295 239.852 9.12216 240.134 8.90057C240.418 8.67614 240.631 8.375 240.773 7.99716C240.918 7.61648 240.99 7.19318 240.99 6.72727C240.99 6.26705 240.919 5.85227 240.777 5.48295C240.638 5.1108 240.426 4.81676 240.142 4.60085C239.861 4.3821 239.507 4.27273 239.081 4.27273C238.672 4.27273 238.328 4.37642 238.05 4.58381C237.771 4.78835 237.561 5.07528 237.419 5.4446C237.277 5.81108 237.206 6.23864 237.206 6.72727ZM247.28 5.78977V6.72727H243.462V5.78977H247.28ZM250.055 1.27273V10H249.049V1.27273H250.055ZM254.556 10.1364C253.965 10.1364 253.447 9.99574 253.001 9.71449C252.558 9.43324 252.211 9.03977 251.961 8.53409C251.714 8.02841 251.59 7.4375 251.59 6.76136C251.59 6.07955 251.714 5.48437 251.961 4.97585C252.211 4.46733 252.558 4.07244 253.001 3.79119C253.447 3.50994 253.965 3.36932 254.556 3.36932C255.147 3.36932 255.664 3.50994 256.107 3.79119C256.553 4.07244 256.9 4.46733 257.147 4.97585C257.397 5.48437 257.522 6.07955 257.522 6.76136C257.522 7.4375 257.397 8.02841 257.147 8.53409C256.9 9.03977 256.553 9.43324 256.107 9.71449C255.664 9.99574 255.147 10.1364 254.556 10.1364ZM254.556 9.23295C255.005 9.23295 255.374 9.1179 255.664 8.88778C255.954 8.65767 256.168 8.35511 256.308 7.98011C256.447 7.60511 256.516 7.19886 256.516 6.76136C256.516 6.32386 256.447 5.91619 256.308 5.53835C256.168 5.16051 255.954 4.85511 255.664 4.62216C255.374 4.3892 255.005 4.27273 254.556 4.27273C254.107 4.27273 253.738 4.3892 253.448 4.62216C253.158 4.85511 252.944 5.16051 252.805 5.53835C252.665 5.91619 252.596 6.32386 252.596 6.76136C252.596 7.19886 252.665 7.60511 252.805 7.98011C252.944 8.35511 253.158 8.65767 253.448 8.88778C253.738 9.1179 254.107 9.23295 254.556 9.23295ZM261.699 12.5909C261.213 12.5909 260.796 12.5284 260.446 12.4034C260.097 12.2812 259.806 12.1193 259.573 11.9176C259.343 11.7188 259.159 11.5057 259.023 11.2784L259.824 10.7159C259.915 10.8352 260.03 10.9716 260.169 11.125C260.309 11.2812 260.499 11.4162 260.74 11.5298C260.985 11.6463 261.304 11.7045 261.699 11.7045C262.228 11.7045 262.664 11.5767 263.007 11.321C263.351 11.0653 263.523 10.6648 263.523 10.1193V8.78977H263.438C263.364 8.90909 263.259 9.05682 263.123 9.23295C262.989 9.40625 262.796 9.56108 262.543 9.69744C262.293 9.83097 261.955 9.89773 261.529 9.89773C261 9.89773 260.526 9.77273 260.105 9.52273C259.688 9.27273 259.357 8.90909 259.113 8.43182C258.871 7.95455 258.75 7.375 258.75 6.69318C258.75 6.02273 258.868 5.43892 259.104 4.94176C259.34 4.44176 259.668 4.0554 260.088 3.78267C260.509 3.5071 260.995 3.36932 261.546 3.36932C261.972 3.36932 262.31 3.44034 262.56 3.58239C262.813 3.72159 263.006 3.88068 263.14 4.05966C263.276 4.2358 263.381 4.38068 263.455 4.49432H263.557V3.45455H264.529V10.1875C264.529 10.75 264.401 11.2074 264.145 11.5597C263.892 11.9148 263.551 12.1747 263.123 12.3395C262.696 12.5071 262.222 12.5909 261.699 12.5909ZM261.665 8.99432C262.069 8.99432 262.409 8.90199 262.688 8.71733C262.966 8.53267 263.178 8.26705 263.323 7.92045C263.468 7.57386 263.54 7.15909 263.54 6.67614C263.54 6.20455 263.469 5.78835 263.327 5.42756C263.185 5.06676 262.975 4.78409 262.696 4.57955C262.418 4.375 262.074 4.27273 261.665 4.27273C261.239 4.27273 260.884 4.38068 260.6 4.59659C260.319 4.8125 260.107 5.10227 259.965 5.46591C259.826 5.82955 259.756 6.23295 259.756 6.67614C259.756 7.13068 259.827 7.53267 259.969 7.8821C260.114 8.22869 260.327 8.50142 260.608 8.70028C260.892 8.89631 261.245 8.99432 261.665 8.99432ZM266.37 10V3.45455H267.375V10H266.37ZM266.881 2.36364C266.685 2.36364 266.516 2.29688 266.374 2.16335C266.235 2.02983 266.165 1.86932 266.165 1.68182C266.165 1.49432 266.235 1.33381 266.374 1.20028C266.516 1.06676 266.685 1 266.881 1C267.077 1 267.245 1.06676 267.384 1.20028C267.526 1.33381 267.597 1.49432 267.597 1.68182C267.597 1.86932 267.526 2.02983 267.384 2.16335C267.245 2.29688 267.077 2.36364 266.881 2.36364ZM270.223 6.0625V10H269.217V3.45455H270.189V4.47727H270.274C270.428 4.14489 270.661 3.87784 270.973 3.67614C271.286 3.47159 271.689 3.36932 272.183 3.36932C272.626 3.36932 273.014 3.46023 273.347 3.64205C273.679 3.82102 273.938 4.09375 274.122 4.46023C274.307 4.82386 274.399 5.28409 274.399 5.84091V10H273.393V5.90909C273.393 5.39489 273.26 4.99432 272.993 4.70739C272.726 4.41761 272.359 4.27273 271.893 4.27273C271.572 4.27273 271.286 4.34233 271.033 4.48153C270.783 4.62074 270.585 4.82386 270.44 5.09091C270.295 5.35795 270.223 5.68182 270.223 6.0625Z" fill="#2380EC"/>
</svg>
