<svg xmlns="http://www.w3.org/2000/svg" viewBox="0 0 158.31 284.85"><defs><style>.cls-1,.cls-2,.cls-3{fill:none;stroke:#000;stroke-miterlimit:10;}.cls-1{stroke-width:3px;}.cls-2{stroke-width:9px;}.cls-3{stroke-width:2px;}</style></defs><g id="Layer_2" data-name="Layer 2"><g id="Layer_1-2" data-name="Layer 1"><g id="Locked_tea" data-name="Locked tea"><path class="cls-1" d="M.49,278.39a69.46,69.46,0,0,1,35,5"/><g id="Tea_bag" data-name="Tea bag"><line class="cls-1" x1="19.83" y1="146.08" x2="35.59" y2="115.69"/><line class="cls-1" x1="34.77" y1="116.8" x2="119.01" y2="107.19"/><line class="cls-1" x1="138.95" y1="134.29" x2="118.01" y2="107.18"/><path class="cls-1" d="M19.74,145.06q5.66,43.65,10.73,88.46,2.89,25.6,5.51,50.87"/><line class="cls-1" x1="138.54" y1="132.47" x2="156.83" y2="270.47"/><path class="cls-1" d="M34.49,283.39a562.76,562.76,0,0,1,67-11c19.8-2,38.3-2.87,55.25-2.94"/></g><line class="cls-1" x1="19.49" y1="146.39" x2="1.49" y2="279.39"/><line class="cls-1" x1="2.49" y1="278.39" x2="16.49" y2="263.39"/><line class="cls-1" x1="34.49" y1="282.39" x2="15.49" y2="262.39"/><line class="cls-1" x1="33.49" y1="261.39" x2="16.49" y2="263.39"/><line class="cls-1" x1="29.49" y1="128.39" x2="125.49" y2="117.39"/><line class="cls-2" x1="35.49" y1="109.39" x2="30.49" y2="34.39"/><line class="cls-2" x1="115.51" y1="101.97" x2="108.49" y2="43.39"/><path class="cls-2" d="M108.49,45.39a49.38,49.38,0,0,0-3-18c-.31-.86-3.43-9.16-8-14-13.66-14.46-53-11.38-64,10-4,7.72-3.3,16.09-2,22"/></g><path d="M112.13,219,83.5,223.1c.65-.09,1.65-9.6,1.8-10.63q.67-4.83,1.12-9.67c.09-1,.68-3.06,0-3.92-.51-.64-1.66-.5-2.36-.68-4.57-1.19-9.87-6-10.86-10.72-.85-4,1.16-8.27,4.38-10.8a18.37,18.37,0,0,1,11.53-3.47,18.41,18.41,0,0,1,9.35,2.35,11.26,11.26,0,0,1,5.46,7.69,11.75,11.75,0,0,1-1.83,7.76,23.93,23.93,0,0,1-5.53,5.92,13,13,0,0,1,3.31,4.46,76.27,76.27,0,0,0,9,13A16.27,16.27,0,0,1,112.13,219Z"/><path class="cls-3" d="M83.5,223.1,112.13,219a16.27,16.27,0,0,0-3.25-4.68,76.27,76.27,0,0,1-9-13,13,13,0,0,0-3.31-4.46,23.93,23.93,0,0,0,5.53-5.92,11.75,11.75,0,0,0,1.83-7.76,11.26,11.26,0,0,0-5.46-7.69,18.41,18.41,0,0,0-9.35-2.35,18.37,18.37,0,0,0-11.53,3.47c-3.22,2.53-5.23,6.8-4.38,10.8,1,4.68,6.29,9.53,10.86,10.72.7.18,1.85,0,2.36.68.68.86.09,2.93,0,3.92q-.45,4.84-1.12,9.67C85.15,213.5,84.15,223,83.5,223.1Z"/></g></g></svg>