<svg xmlns="http://www.w3.org/2000/svg" viewBox="0 0 220.84 226.32"><defs><style>.cls-1,.cls-3,.cls-5,.cls-6{fill:none;stroke-miterlimit:10;}.cls-1,.cls-3{stroke:#fff;}.cls-1,.cls-5,.cls-6{stroke-width:3px;}.cls-2{fill:#a9a453;}.cls-3{stroke-width:2px;}.cls-4{fill:#a39dcd;}.cls-5{stroke:#fdfefe;}.cls-6{stroke:#f9f9fa;}</style></defs><g id="Layer_2" data-name="Layer 2"><g id="Layer_1-2" data-name="Layer 1"><g id="Security"><path class="cls-1" d="M.33,219.86a69.46,69.46,0,0,1,35,5"/><path class="cls-2" d="M204.82,117.93a5.86,5.86,0,0,1,0,2.13,9.83,9.83,0,0,1-3.64,5.85,17.15,17.15,0,0,1-6.11,2.91c0-.11,0-.22,0-.33a5.27,5.27,0,0,1,1.26-3.7,23.43,23.43,0,0,1,3.05-2.84,7.46,7.46,0,0,0,2.42-3.4,5.43,5.43,0,0,0-.63-4.33c-.47.69-.95,1.39-1.46,2.06l-.41-.31a5,5,0,0,0,.62-1,4.62,4.62,0,0,0-.16-4.54,13.3,13.3,0,0,1,4.06,4.88A8.39,8.39,0,0,1,204.82,117.93Z"/><path class="cls-2" d="M199.23,116l.41.31a12.81,12.81,0,0,1-4.44,4.11,8.82,8.82,0,0,0-2.91,1.65,4.7,4.7,0,0,0-.74,4.14,10.93,10.93,0,0,0,1,2.58c.27.5.56,1,.84,1.46a22.49,22.49,0,0,0-3.56-2.89,16.54,16.54,0,0,1-2.1-1.92c-1.32-1.42-2.45-3.1-4.06-4.09-2.09-1.28-4.58-1.16-6.91-1a37.77,37.77,0,0,0,8,5.23,24.64,24.64,0,0,1,2.56,1.18,9,9,0,0,1,1.36,1,15.82,15.82,0,0,1,3.07,4.12c.16.29.77,1.1.68,1.43-.13.5-1,.19-1.3.14l-3.76-.62c-2.21-.37-4.62-.83-6.19-2.61-1.12-1.25-1.63-3-2.45-4.45a16.9,16.9,0,0,0-1.73-2.45c-1.54-1.85-3.49-3.61-5.75-3.73a20,20,0,0,1,10.4-.81,10,10,0,0,1,2.32.68c2.54,1.12,4.3,3.66,5.91,6.06-.16-1.62-.2-3.43.79-4.6a4.84,4.84,0,0,1,1.8-1.19c1.36-.58,2.78-1,4.09-1.68A8,8,0,0,0,199.23,116Z"/><path class="cls-3" d="M188.72,127.73a15.82,15.82,0,0,1,3.07,4.12c.16.29.77,1.1.68,1.43-.13.5-1,.19-1.3.14l-3.76-.62c-2.21-.37-4.62-.83-6.19-2.61-1.12-1.25-1.63-3-2.45-4.45a16.9,16.9,0,0,0-1.73-2.45c-1.54-1.85-3.49-3.61-5.75-3.73a20,20,0,0,1,10.4-.81,10,10,0,0,1,2.32.68c2.54,1.12,4.3,3.66,5.91,6.06-.16-1.62-.2-3.43.79-4.6a4.84,4.84,0,0,1,1.8-1.19c1.36-.58,2.78-1,4.09-1.68a8,8,0,0,0,2.63-2,5,5,0,0,0,.62-1,4.62,4.62,0,0,0-.16-4.54,13.3,13.3,0,0,1,4.06,4.88,8.39,8.39,0,0,1,1.07,2.57,5.86,5.86,0,0,1,0,2.13,9.83,9.83,0,0,1-3.64,5.85,17.15,17.15,0,0,1-6.11,2.91c0-.11,0-.22,0-.33a5.27,5.27,0,0,1,1.26-3.7,23.43,23.43,0,0,1,3.05-2.84,7.46,7.46,0,0,0,2.42-3.4,5.43,5.43,0,0,0-.63-4.33c-.47.69-.95,1.39-1.46,2.06a12.81,12.81,0,0,1-4.44,4.11,8.82,8.82,0,0,0-2.91,1.65,4.7,4.7,0,0,0-.74,4.14,10.93,10.93,0,0,0,1,2.58c.27.5.56,1,.84,1.46a22.49,22.49,0,0,0-3.56-2.89,16.54,16.54,0,0,1-2.1-1.92c-1.32-1.42-2.45-3.1-4.06-4.09-2.09-1.28-4.58-1.16-6.91-1a37.77,37.77,0,0,0,8,5.23,24.64,24.64,0,0,1,2.56,1.18A9,9,0,0,1,188.72,127.73Z"/><path class="cls-4" d="M10.52,156a2.67,2.67,0,0,1,.86-1.61,6.24,6.24,0,0,1,2.41-1.25c1.17-.39,2.5-1.13,3.61-.6,5.64,2.7,9.1,4.42,11,5.41,0,.22.06.43.08.65q1,8.16,1.88,16.37,1.57,14,3.07,27.86h-.05l-17,2,0,0-14,15-.84-.16L10.12,156Z"/><path class="cls-4" d="M146.51,135.31l10,75.6c-16.93.07-35.42.91-55.2,2.94a563.49,563.49,0,0,0-65.65,10.7q-1.12-10.81-2.3-21.71Q31.9,189,30.31,175q-.93-8.21-1.88-16.37c1.68.59,2.26.68.88-.12,6.61,1.06,12.37-4.24,16.93-9.14S56.45,139.08,63.08,140c8.57,1.15,13.81,12.3,22.44,11.85,5.87-.3,9.83-5.87,13.23-10.67s8.45-9.9,14.19-8.63c3.7.81,6.26,4,9,6.64,4,3.81,10.39,6.58,15,3.49,3-2,4.59-6.17,8.1-7.15Z"/><path class="cls-4" d="M35.68,224.55l-1.35.3v-1l-18-19,0,0,17-2h.05Q34.57,213.73,35.68,224.55Z"/><polyline class="cls-1" points="19.67 87.55 19.7 87.49 28.96 69.66 34.88 58.24 35.44 57.16"/><polyline class="cls-1" points="34.62 58.27 34.88 58.24 117.94 48.77 118.86 48.66"/><polyline class="cls-1" points="138.79 75.76 138.59 75.5 125.58 58.66 117.94 48.77 117.85 48.65"/><path class="cls-1" d="M19.58,86.52s0,.11,0,.16c0,.27.07.54.1.81q4.52,34.86,8.65,70.47c0,.22.06.43.08.65q1,8.16,1.88,16.37,1.57,14,3.07,27.86,1.18,10.89,2.3,21.71c0,.43.1.87.14,1.3"/><polyline class="cls-1" points="138.38 73.94 138.59 75.5 146.51 135.31 156.53 210.91 156.67 211.94"/><path class="cls-5" d="M34.33,224.85l1.35-.3a563.49,563.49,0,0,1,65.65-10.7c19.78-2,38.27-2.87,55.2-2.94h.05"/><polyline class="cls-6" points="19.49 86.69 10.12 155.96 1.49 219.69"/><polyline class="cls-1" points="16.33 204.85 16.31 204.88 2.33 219.85"/><polyline class="cls-1" points="34.33 223.85 16.31 204.88 15.33 203.85"/><line class="cls-1" x1="33.33" y1="202.85" x2="16.33" y2="204.85"/><line class="cls-1" x1="29.33" y1="69.85" x2="125.33" y2="58.85"/><path class="cls-1" d="M70.69,53.19a36.94,36.94,0,0,1,8-36,44.71,44.71,0,0,1,10.14-7.9,58.83,58.83,0,0,1,52.71-2.9c5.7,2.53,11.08,6.09,14.78,11.1,3.24,4.38,5,9.63,6.49,14.87a146.51,146.51,0,0,1,5.26,33.93c.39,10.85-.39,22,3.16,32.28,1,3,3.14,6.36,6.33,6.25"/><rect class="cls-1" x="166.33" y="101.86" width="45.99" height="41" transform="translate(-34.01 91.76) rotate(-25.07)"/><path class="cls-3" d="M10.59,156.86a1.88,1.88,0,0,1-.07-.85,2.67,2.67,0,0,1,.86-1.61,6.24,6.24,0,0,1,2.41-1.25c1.17-.39,2.5-1.13,3.61-.6,5.64,2.7,9.1,4.42,11,5.41.39.21.71.38,1,.53,1.38.8.8.71-.88.12-1.3-.45-3.25-1.21-5.46-2.1-.94-.37,1.24,1.61,2.06,2.19a3.23,3.23,0,0,0,2.84.59"/><path class="cls-3" d="M29.31,158.49c6.61,1.06,12.37-4.24,16.93-9.14S56.45,139.08,63.08,140c8.57,1.15,13.81,12.3,22.44,11.85,5.87-.3,9.83-5.87,13.23-10.67s8.45-9.9,14.19-8.63c3.7.81,6.26,4,9,6.64,4,3.81,10.39,6.58,15,3.49,3-2,4.59-6.17,8.1-7.15"/></g></g></g></svg>