<svg width="133" height="111" viewBox="0 0 133 111" fill="none" xmlns="http://www.w3.org/2000/svg">
<path fill-rule="evenodd" clip-rule="evenodd" d="M37.3482 1.90563C58.02 0.347607 78.7834 0.449833 99.4389 2.21132L111.888 3.27294C121.291 4.07485 128.922 11.2111 130.352 20.5395L131.137 25.6633C133.803 43.0506 133.553 60.7604 130.4 78.0658C128.845 86.6046 121.406 92.8099 112.727 92.8099H43.9079C42.3246 92.8099 40.766 93.2022 39.3713 93.9517L9.38859 110.065C7.6066 111.023 5.45246 110.973 3.7161 109.935C1.97973 108.897 0.916626 107.023 0.916626 105V39.7007C0.916626 19.9314 16.1534 3.50307 35.8667 2.01729L37.3482 1.90563ZM37.3333 39.8333C32.0406 39.8333 27.75 44.1239 27.75 49.4166C27.75 54.7094 32.0406 59 37.3333 59C42.626 59 46.9166 54.7094 46.9166 49.4166C46.9166 44.1239 42.626 39.8333 37.3333 39.8333ZM68 39.8333C62.7072 39.8333 58.4166 44.1239 58.4166 49.4166C58.4166 54.7094 62.7072 59 68 59C73.2927 59 77.5833 54.7094 77.5833 49.4166C77.5833 44.1239 73.2927 39.8333 68 39.8333ZM89.0833 49.4166C89.0833 44.1239 93.3739 39.8333 98.6666 39.8333C103.959 39.8333 108.25 44.1239 108.25 49.4166C108.25 54.7094 103.959 59 98.6666 59C93.3739 59 89.0833 54.7094 89.0833 49.4166Z" fill="black"/>
</svg>
