<svg width="786" height="52" viewBox="0 0 786 52" fill="none" xmlns="http://www.w3.org/2000/svg">
<rect width="786" height="52" fill="#A39EDA"/>
<path d="M728.667 22.5365L727.672 22.636L727.672 22.6392L728.667 22.5365ZM728.639 22.3073L729.618 22.1054L729.618 22.1054L728.639 22.3073ZM728.667 22.5365L729.662 22.437L729.662 22.4339L728.667 22.5365ZM728.72 22.9471L727.751 23.196L727.751 23.196L728.72 22.9471ZM730.197 23.559L730.706 24.4199L730.706 24.4199L730.197 23.559ZM730.525 23.3059L731.158 24.0799L731.159 24.0787L730.525 23.3059ZM730.525 23.3059L729.891 22.532L729.89 22.5332L730.525 23.3059ZM730.707 23.1639L730.157 22.3286L730.157 22.3286L730.707 23.1639ZM731.887 23.2227L732.517 22.4463L732.517 22.4463L731.887 23.2227ZM732.054 23.3822L731.347 24.0893L731.347 24.0893L732.054 23.3822ZM732.728 24.0564L732.021 24.7635L732.036 24.7788L732.052 24.7935L732.728 24.0564ZM732.728 24.0564L733.435 23.3493L733.42 23.3339L733.404 23.3192L732.728 24.0564ZM732.887 24.2234L732.111 24.8536L732.111 24.8536L732.887 24.2234ZM732.946 25.4034L733.781 25.9532L733.781 25.9532L732.946 25.4034ZM732.804 25.5855L732.03 24.9522L732.012 24.9743L731.995 24.9973L732.804 25.5855ZM732.804 25.5855L733.578 26.2187L733.596 26.1967L733.613 26.1737L732.804 25.5855ZM732.551 25.9131L731.69 25.4042L731.69 25.4042L732.551 25.9131ZM733.163 27.3905L732.914 28.359L732.914 28.359L733.163 27.3905ZM733.574 27.4431L733.474 28.4381L733.474 28.4381L733.574 27.4431ZM733.803 27.4714L734.005 26.492L734.005 26.492L733.803 27.4714ZM734.596 28.3474L733.601 28.4508L733.601 28.4508L734.596 28.3474ZM734.596 29.7625L735.59 29.8659L735.59 29.8658L734.596 29.7625ZM733.803 30.6386L734.005 31.618L734.005 31.618L733.803 30.6386ZM733.574 30.6669L733.673 31.6619L733.673 31.6619L733.574 30.6669ZM733.163 30.7195L732.915 29.7509L732.915 29.7509L733.163 30.7195ZM732.551 32.197L731.691 32.706L731.691 32.706L732.551 32.197ZM732.804 32.5242L732.03 33.1575L732.03 33.1575L732.804 32.5242ZM732.804 32.5243L732.03 33.1575L732.03 33.1575L732.804 32.5243ZM732.946 32.7061L732.111 33.256L732.111 33.256L732.946 32.7061ZM732.887 33.8863L732.111 33.256L732.111 33.256L732.887 33.8863ZM731.887 34.8869L732.517 35.6633L732.517 35.6633L731.887 34.8869ZM730.707 34.9458L731.257 34.1105L731.256 34.1105L730.707 34.9458ZM730.525 34.8037L731.158 34.0298L731.158 34.0298L730.525 34.8037ZM730.197 34.5506L730.706 33.6897L730.706 33.6897L730.197 34.5506ZM728.72 35.1625L729.688 35.4115L729.688 35.4114L728.72 35.1625ZM728.667 35.5733L729.662 35.6728L729.662 35.6728L728.667 35.5733ZM728.639 35.8028L729.618 36.0047L729.618 36.0047L728.639 35.8028ZM727.763 36.5955L727.659 35.6008L727.659 35.6008L727.763 36.5955ZM726.348 36.5955L726.244 37.5901L726.244 37.5901L726.348 36.5955ZM725.472 35.8027L724.492 36.0046L724.492 36.0046L725.472 35.8027ZM725.443 35.5735L726.438 35.474L726.438 35.474L725.443 35.5735ZM725.391 35.1628L726.359 34.9139L726.359 34.9139L725.391 35.1628ZM723.913 34.5509L723.404 33.69L723.404 33.69L723.913 34.5509ZM723.586 34.8041L724.219 35.578L724.219 35.578L723.586 34.8041ZM723.403 34.9461L723.953 35.7814L723.953 35.7814L723.403 34.9461ZM722.224 34.8873L722.854 34.1108L722.854 34.1108L722.224 34.8873ZM722.056 34.7278L721.349 35.4349L721.349 35.4349L722.056 34.7278ZM721.382 34.0536L720.675 34.7607L720.675 34.7607L721.382 34.0536ZM721.223 33.8866L720.446 34.5168L720.446 34.5168L721.223 33.8866ZM721.164 32.7066L720.329 32.1568L720.329 32.1568L721.164 32.7066ZM721.306 32.5245L722.08 33.1577L722.087 33.149L722.094 33.1401L721.306 32.5245ZM721.306 32.5245L720.532 31.8912L720.525 31.9L720.518 31.9088L721.306 32.5245ZM721.559 32.1969L720.698 31.688L721.559 32.1969ZM720.947 30.7195L720.698 31.688L720.698 31.688L720.947 30.7195ZM720.537 30.6669L720.437 31.6619L720.437 31.6619L720.537 30.6669ZM720.307 30.6386L720.106 31.618L720.106 31.618L720.307 30.6386ZM719.515 29.7626L720.509 29.6592L720.509 29.6592L719.515 29.7626ZM719.515 28.3473L718.52 28.2438L718.52 28.2438L719.515 28.3473ZM720.307 27.4714L720.105 26.492L720.105 26.492L720.307 27.4714ZM720.537 27.4431L720.448 26.4469L720.437 26.448L720.537 27.4431ZM720.537 27.4431L720.625 28.4392L720.636 28.4381L720.537 27.4431ZM720.948 27.3904L720.699 26.4219L720.699 26.4219L720.948 27.3904ZM721.56 25.9131L722.42 25.4044L722.42 25.4044L721.56 25.9131ZM721.306 25.5853L722.08 24.952L722.074 24.9451L721.306 25.5853ZM721.306 25.5853L720.532 26.2185L720.538 26.2255L721.306 25.5853ZM721.164 25.403L720.329 25.9527L720.329 25.9527L721.164 25.403ZM721.223 24.2232L721.999 24.8533L721.999 24.8533L721.223 24.2232ZM721.382 24.0559L720.675 23.3488L720.675 23.3488L721.382 24.0559ZM722.056 23.3819L722.764 24.089L722.764 24.089L722.056 23.3819ZM722.224 23.2224L721.593 22.4459L721.593 22.4459L722.224 23.2224ZM723.404 23.1635L723.953 22.3282L723.953 22.3282L723.404 23.1635ZM723.586 23.3056L724.244 22.5531L724.232 22.5422L724.219 22.5317L723.586 23.3056ZM723.586 23.3056L722.927 24.0582L722.94 24.0691L722.952 24.0796L723.586 23.3056ZM723.913 23.5587L723.404 24.4195L723.404 24.4195L723.913 23.5587ZM725.391 22.9467L726.359 23.1955L726.359 23.1955L725.391 22.9467ZM725.443 22.5364L726.438 22.6359L726.438 22.6359L725.443 22.5364ZM725.472 22.3074L726.451 22.5092L726.451 22.5092L725.472 22.3074ZM726.348 21.5145L726.451 22.5092L726.451 22.5092L726.348 21.5145ZM727.763 21.5145L727.659 22.5092L727.659 22.5092L727.763 21.5145ZM729.662 22.437C729.653 22.3422 729.642 22.2196 729.618 22.1054L727.659 22.5091C727.656 22.4953 727.657 22.4917 727.659 22.5142C727.662 22.539 727.666 22.5729 727.672 22.636L729.662 22.437ZM729.662 22.4339L729.662 22.4338L727.672 22.6392L727.672 22.6392L729.662 22.4339ZM729.688 22.6982C729.695 22.7265 729.694 22.7325 729.687 22.6772C729.681 22.6252 729.674 22.5539 729.662 22.437L727.672 22.636C727.69 22.8135 727.708 23.0281 727.751 23.196L729.688 22.6982ZM729.688 22.6982L729.688 22.6982L727.751 23.196C728.083 24.4862 729.559 25.0978 730.706 24.4199L729.688 22.6982ZM729.891 22.532C729.8 22.6063 729.745 22.6517 729.704 22.684C729.66 22.7183 729.663 22.7131 729.688 22.6982L730.706 24.4199C730.855 24.3317 731.02 24.1928 731.158 24.0799L729.891 22.532ZM729.89 22.5332L729.89 22.5332L731.159 24.0787L731.159 24.0786L729.89 22.5332ZM730.157 22.3286C730.059 22.3927 729.965 22.4717 729.891 22.532L731.158 24.0799C731.207 24.0397 731.233 24.0182 731.253 24.0027C731.271 23.9887 731.268 23.9914 731.256 23.9992L730.157 22.3286ZM732.517 22.4463C731.84 21.8969 730.885 21.8492 730.157 22.3286L731.256 23.9992L731.256 23.9992L732.517 22.4463ZM732.761 22.6751C732.693 22.6077 732.607 22.5198 732.517 22.4463L731.256 23.9992C731.246 23.9903 731.243 23.9873 731.26 24.003C731.278 24.0204 731.302 24.0445 731.347 24.0893L732.761 22.6751ZM733.435 23.3493L732.761 22.6751L731.347 24.0893L732.021 24.7635L733.435 23.3493ZM733.404 23.3192L733.404 23.3192L732.052 24.7935L732.052 24.7935L733.404 23.3192ZM733.664 23.5932C733.59 23.5027 733.502 23.4166 733.435 23.3493L732.021 24.7635C732.066 24.8083 732.09 24.8325 732.107 24.8504C732.123 24.8667 732.12 24.8646 732.111 24.8536L733.664 23.5932ZM733.781 25.9532C734.261 25.225 734.213 24.2701 733.664 23.5932L732.111 24.8536L732.111 24.8536L733.781 25.9532ZM733.578 26.2187C733.638 26.145 733.717 26.0506 733.781 25.9532L732.111 24.8536C732.119 24.8418 732.121 24.8394 732.107 24.8571C732.092 24.8768 732.07 24.9032 732.03 24.9522L733.578 26.2187ZM733.613 26.1737L733.613 26.1736L731.995 24.9973L731.995 24.9973L733.613 26.1737ZM733.412 26.4219C733.397 26.4471 733.392 26.4503 733.426 26.4064C733.458 26.3652 733.504 26.3096 733.578 26.2187L732.03 24.9523C731.917 25.0903 731.778 25.255 731.69 25.4042L733.412 26.4219ZM733.412 26.4219L733.412 26.4219L731.69 25.4042C731.012 26.551 731.624 28.0274 732.914 28.359L733.412 26.4219ZM733.673 26.4481C733.556 26.4364 733.485 26.4292 733.433 26.4228C733.378 26.4161 733.384 26.4147 733.412 26.4219L732.914 28.359C733.082 28.4021 733.297 28.4204 733.474 28.4381L733.673 26.4481ZM734.005 26.492C733.89 26.4685 733.768 26.4575 733.673 26.4481L733.474 28.4381C733.537 28.4444 733.571 28.4479 733.596 28.4508C733.618 28.4535 733.615 28.4537 733.601 28.4508L734.005 26.492ZM735.59 28.244C735.5 27.3768 734.859 26.668 734.005 26.492L733.601 28.4508L733.601 28.4508L735.59 28.244ZM735.601 28.5783C735.601 28.483 735.602 28.3599 735.59 28.244L733.601 28.4508C733.599 28.4368 733.6 28.4332 733.6 28.4558C733.601 28.4808 733.601 28.5149 733.601 28.5783H735.601ZM735.601 29.5318V28.5783H733.601V29.5318H735.601ZM735.59 29.8658C735.602 29.75 735.601 29.627 735.601 29.5318H733.601C733.601 29.5951 733.601 29.6292 733.6 29.6542C733.6 29.6768 733.599 29.6732 733.601 29.6592L735.59 29.8658ZM734.005 31.618C734.859 31.4421 735.5 30.7331 735.59 29.8659L733.601 29.6592L733.601 29.6592L734.005 31.618ZM733.673 31.6619C733.768 31.6524 733.89 31.6415 734.005 31.618L733.601 29.6592C733.615 29.6563 733.618 29.6565 733.596 29.6592C733.571 29.6621 733.537 29.6655 733.474 29.6718L733.673 31.6619ZM733.412 31.688C733.384 31.6953 733.378 31.6939 733.433 31.6871C733.485 31.6808 733.556 31.6736 733.673 31.6619L733.474 29.6718C733.297 29.6896 733.082 29.7078 732.915 29.7509L733.412 31.688ZM733.412 31.688L733.412 31.688L732.915 29.7509C731.624 30.0823 731.012 31.5591 731.691 32.706L733.412 31.688ZM733.578 31.891C733.504 31.8002 733.459 31.7447 733.426 31.7035C733.392 31.6596 733.397 31.6629 733.412 31.688L731.691 32.706C731.779 32.855 731.917 33.0195 732.03 33.1575L733.578 31.891ZM733.578 31.891L733.578 31.891L732.03 33.1575L732.03 33.1575L733.578 31.891ZM733.781 32.1562C733.717 32.059 733.638 31.9646 733.578 31.891L732.03 33.1575C732.07 33.2065 732.092 33.2329 732.107 33.2525C732.121 33.2702 732.119 33.2678 732.111 33.256L733.781 32.1562ZM733.664 34.5166C734.213 33.8396 734.261 32.8846 733.781 32.1562L732.111 33.256L732.111 33.256L733.664 34.5166ZM733.435 34.7603C733.502 34.693 733.59 34.607 733.664 34.5166L732.111 33.256C732.12 33.2451 732.123 33.2429 732.107 33.2592C732.09 33.2772 732.066 33.3013 732.021 33.3461L733.435 34.7603ZM732.761 35.4346L733.435 34.7603L732.021 33.3461L731.347 34.0204L732.761 35.4346ZM732.517 35.6633C732.607 35.5899 732.693 35.5019 732.761 35.4346L731.347 34.0204C731.302 34.0652 731.278 34.0893 731.26 34.1066C731.243 34.1223 731.246 34.1194 731.256 34.1105L732.517 35.6633ZM730.157 35.781C730.885 36.2604 731.84 36.2128 732.517 35.6633L731.257 34.1105L731.257 34.1105L730.157 35.781ZM729.891 35.5777C729.965 35.638 730.06 35.717 730.157 35.7811L731.256 34.1105C731.268 34.1182 731.271 34.1209 731.253 34.1069C731.233 34.0915 731.207 34.0699 731.158 34.0298L729.891 35.5777ZM729.688 35.4114C729.663 35.3966 729.66 35.3913 729.704 35.4257C729.745 35.4579 729.8 35.5033 729.891 35.5777L731.158 34.0298C731.02 33.9168 730.855 33.7779 730.706 33.6897L729.688 35.4114ZM729.688 35.4114L729.688 35.4114L730.706 33.6897C729.559 33.0119 728.083 33.6235 727.751 34.9137L729.688 35.4114ZM729.662 35.6728C729.674 35.5559 729.681 35.4845 729.687 35.4325C729.694 35.3771 729.695 35.3832 729.688 35.4115L727.751 34.9136C727.708 35.0815 727.69 35.2962 727.672 35.4738L729.662 35.6728ZM729.618 36.0047C729.642 35.8904 729.653 35.7677 729.662 35.6728L727.672 35.4738C727.666 35.537 727.662 35.571 727.659 35.5958C727.657 35.6183 727.656 35.6147 727.659 35.6008L729.618 36.0047ZM727.866 37.5901C728.733 37.4999 729.442 36.8585 729.618 36.0047L727.659 35.6008L727.659 35.6008L727.866 37.5901ZM727.532 37.6008C727.627 37.6008 727.75 37.6022 727.866 37.5901L727.659 35.6008C727.673 35.5994 727.677 35.5999 727.654 35.6003C727.629 35.6008 727.595 35.6008 727.532 35.6008V37.6008ZM726.578 37.6008H727.532V35.6008H726.578V37.6008ZM726.244 37.5901C726.36 37.6022 726.483 37.6008 726.578 37.6008V35.6008C726.515 35.6008 726.481 35.6008 726.456 35.6003C726.433 35.5999 726.437 35.5994 726.451 35.6008L726.244 37.5901ZM724.492 36.0046C724.668 36.8584 725.377 37.4999 726.244 37.5901L726.451 35.6008L726.451 35.6008L724.492 36.0046ZM724.448 35.673C724.458 35.7678 724.469 35.8904 724.492 36.0046L726.451 35.6008C726.454 35.6146 726.454 35.6183 726.451 35.5958C726.448 35.571 726.445 35.5371 726.438 35.474L724.448 35.673ZM724.422 35.4117C724.415 35.3835 724.416 35.3774 724.423 35.4328C724.429 35.4847 724.436 35.5561 724.448 35.673L726.438 35.474C726.42 35.2964 726.402 35.0818 726.359 34.9139L724.422 35.4117ZM724.422 35.4117L724.422 35.4117L726.359 34.9139C726.028 33.6238 724.551 33.0122 723.404 33.69L724.422 35.4117ZM724.219 35.578C724.31 35.5036 724.365 35.4582 724.407 35.426C724.45 35.3916 724.447 35.3969 724.422 35.4117L723.404 33.69C723.255 33.7782 723.09 33.9171 722.952 34.0301L724.219 35.578ZM723.953 35.7814C724.051 35.7173 724.145 35.6383 724.219 35.578L722.952 34.0301C722.903 34.0702 722.877 34.0918 722.857 34.1073C722.839 34.1213 722.842 34.1186 722.854 34.1108L723.953 35.7814ZM721.593 35.6637C722.27 36.2131 723.225 36.2607 723.953 35.7814L722.854 34.1108L722.854 34.1108L721.593 35.6637ZM721.349 35.4349C721.417 35.5022 721.503 35.5902 721.593 35.6637L722.854 34.1108C722.865 34.1197 722.867 34.1226 722.851 34.1069C722.833 34.0896 722.808 34.0655 722.764 34.0207L721.349 35.4349ZM720.675 34.7607L721.349 35.4349L722.764 34.0207L722.089 33.3465L720.675 34.7607ZM720.446 34.5168C720.52 34.6073 720.608 34.6934 720.675 34.7607L722.089 33.3465C722.045 33.3017 722.02 33.2775 722.003 33.2595C721.987 33.2433 721.99 33.2454 721.999 33.2564L720.446 34.5168ZM720.329 32.1568C719.849 32.885 719.897 33.8398 720.446 34.5168L721.999 33.2564L721.999 33.2564L720.329 32.1568ZM720.532 31.8913C720.472 31.965 720.393 32.0594 720.329 32.1568L721.999 33.2564C721.992 33.2682 721.989 33.2706 722.003 33.2528C722.018 33.2332 722.04 33.2068 722.08 33.1577L720.532 31.8913ZM720.518 31.9088L720.518 31.9089L722.094 33.1401L722.094 33.1401L720.518 31.9088ZM720.698 31.688C720.713 31.6629 720.718 31.6596 720.684 31.7036C720.652 31.7448 720.606 31.8003 720.532 31.8912L722.08 33.1577C722.193 33.0196 722.332 32.855 722.42 32.7058L720.698 31.688ZM720.698 31.688L720.698 31.688L722.42 32.7058C723.098 31.559 722.486 30.0825 721.196 29.751L720.698 31.688ZM720.437 31.6619C720.554 31.6736 720.625 31.6808 720.677 31.6871C720.733 31.6939 720.727 31.6953 720.698 31.688L721.196 29.751C721.028 29.7078 720.814 29.6896 720.636 29.6718L720.437 31.6619ZM720.106 31.618C720.22 31.6415 720.342 31.6524 720.437 31.6619L720.636 29.6718C720.573 29.6655 720.539 29.6621 720.514 29.6592C720.492 29.6565 720.495 29.6563 720.509 29.6592L720.106 31.618ZM718.52 29.866C718.61 30.7331 719.252 31.442 720.106 31.618L720.509 29.6592L720.509 29.6592L718.52 29.866ZM718.509 29.5317C718.509 29.6269 718.508 29.75 718.52 29.866L720.509 29.6592C720.511 29.6732 720.51 29.6768 720.51 29.6542C720.509 29.6292 720.509 29.5951 720.509 29.5317H718.509ZM718.509 28.5784V29.5317H720.509V28.5784H718.509ZM718.52 28.2438C718.508 28.3599 718.509 28.4831 718.509 28.5784H720.509C720.509 28.5149 720.509 28.4808 720.51 28.4558C720.51 28.4332 720.511 28.4368 720.509 28.4508L718.52 28.2438ZM720.105 26.492C719.252 26.668 718.61 27.3768 718.52 28.2438L720.509 28.4508L720.509 28.4508L720.105 26.492ZM720.437 26.448C720.342 26.4575 720.22 26.4685 720.105 26.492L720.509 28.4508C720.495 28.4537 720.492 28.4535 720.514 28.4508C720.539 28.4479 720.573 28.4444 720.636 28.4381L720.437 26.448ZM720.448 26.447L720.448 26.447L720.625 28.4392L720.625 28.4392L720.448 26.447ZM720.699 26.4219C720.727 26.4146 720.733 26.416 720.678 26.4228C720.626 26.4291 720.554 26.4363 720.437 26.448L720.636 28.4381C720.814 28.4204 721.029 28.4021 721.197 28.3589L720.699 26.4219ZM720.699 26.4219L720.699 26.4219L721.197 28.3589C722.487 28.0272 723.098 26.551 722.42 25.4044L720.699 26.4219ZM720.532 26.2185C720.607 26.3095 720.652 26.3651 720.684 26.4064C720.719 26.4503 720.713 26.4471 720.699 26.4219L722.42 25.4044C722.332 25.2551 722.193 25.0902 722.08 24.952L720.532 26.2185ZM720.538 26.2255L720.538 26.2255L722.074 24.9451L722.074 24.9451L720.538 26.2255ZM720.329 25.9527C720.393 26.0502 720.472 26.1447 720.532 26.2185L722.08 24.952C722.04 24.9029 722.018 24.8765 722.003 24.8568C721.989 24.839 721.992 24.8415 721.999 24.8533L720.329 25.9527ZM720.446 23.593C719.897 24.2699 719.849 25.2245 720.329 25.9527L721.999 24.8533L721.999 24.8533L720.446 23.593ZM720.675 23.3488C720.608 23.4162 720.52 23.5024 720.446 23.593L721.999 24.8533C721.99 24.8642 721.987 24.8664 722.003 24.8501C722.021 24.8321 722.045 24.8079 722.09 24.763L720.675 23.3488ZM721.349 22.6747L720.675 23.3488L722.09 24.763L722.764 24.089L721.349 22.6747ZM721.593 22.4459C721.503 22.5194 721.417 22.6074 721.349 22.6748L722.764 24.089C722.808 24.0441 722.833 24.02 722.851 24.0027C722.867 23.987 722.865 23.9899 722.854 23.9988L721.593 22.4459ZM723.953 22.3282C723.225 21.8489 722.27 21.8965 721.593 22.4459L722.854 23.9988L722.854 23.9988L723.953 22.3282ZM724.219 22.5317C724.145 22.4713 724.051 22.3923 723.953 22.3282L722.854 23.9988C722.842 23.9911 722.839 23.9884 722.857 24.0024C722.877 24.0178 722.903 24.0394 722.952 24.0796L724.219 22.5317ZM724.244 22.5531L724.244 22.5531L722.927 24.0582L722.927 24.0582L724.244 22.5531ZM724.422 22.6979C724.447 22.7128 724.45 22.718 724.407 22.6837C724.365 22.6514 724.31 22.606 724.219 22.5317L722.952 24.0796C723.09 24.1925 723.255 24.3313 723.404 24.4195L724.422 22.6979ZM724.422 22.6979L724.422 22.6979L723.404 24.4195C724.551 25.0976 726.028 24.4859 726.359 23.1955L724.422 22.6979ZM724.448 22.4369C724.437 22.5537 724.429 22.625 724.423 22.6769C724.416 22.7322 724.415 22.7262 724.422 22.6979L726.359 23.1955C726.402 23.0277 726.421 22.8133 726.438 22.6359L724.448 22.4369ZM724.492 22.1056C724.469 22.2197 724.458 22.3422 724.448 22.4369L726.438 22.6359C726.445 22.5729 726.448 22.5389 726.451 22.5142C726.454 22.4917 726.454 22.4954 726.451 22.5092L724.492 22.1056ZM726.244 20.5199C725.377 20.61 724.668 21.2516 724.492 22.1056L726.451 22.5092L726.451 22.5092L726.244 20.5199ZM726.578 20.5092C726.483 20.5092 726.36 20.5078 726.244 20.5199L726.451 22.5092C726.437 22.5106 726.433 22.5101 726.456 22.5097C726.481 22.5092 726.515 22.5092 726.578 22.5092V20.5092ZM727.532 20.5092H726.578V22.5092H727.532V20.5092ZM727.866 20.5199C727.75 20.5078 727.627 20.5092 727.532 20.5092V22.5092C727.595 22.5092 727.629 22.5092 727.654 22.5097C727.677 22.5101 727.673 22.5106 727.659 22.5092L727.866 20.5199ZM729.618 22.1054C729.442 21.2515 728.733 20.61 727.866 20.5199L727.659 22.5092L727.659 22.5092L729.618 22.1054ZM729.073 29.055C729.073 30.1697 728.17 31.0733 727.055 31.0733V33.0733C729.274 33.0733 731.073 31.2743 731.073 29.055H729.073ZM727.055 27.0367C728.17 27.0367 729.073 27.9403 729.073 29.055H731.073C731.073 26.8357 729.274 25.0367 727.055 25.0367V27.0367ZM725.037 29.055C725.037 27.9403 725.94 27.0367 727.055 27.0367V25.0367C724.836 25.0367 723.037 26.8357 723.037 29.055H725.037ZM727.055 31.0733C725.94 31.0733 725.037 30.1697 725.037 29.055H723.037C723.037 31.2743 724.836 33.0733 727.055 33.0733V31.0733Z" fill="#33363F"/>
<circle cx="702.055" cy="29.055" r="6.79125" stroke="#33363F" stroke-width="2"/>
<circle cx="702.055" cy="33.5825" r="0.377292" fill="#33363F" stroke="#33363F"/>
<path d="M702.055 32.0733V31.0027C702.055 30.2902 702.511 29.6576 703.187 29.4323V29.4323C703.863 29.207 704.319 28.5744 704.319 27.8619V27.4747C704.319 26.2637 703.337 25.2821 702.126 25.2821H702.055C700.805 25.2821 699.791 26.2956 699.791 27.5458V27.5458" stroke="#33363F" stroke-width="2"/>
<path d="M32.7729 24.2821H43.3371" stroke="#33363F" stroke-width="2" stroke-linecap="round"/>
<path d="M32.7729 28.055H43.3371" stroke="#33363F" stroke-width="2" stroke-linecap="round"/>
<path d="M32.7729 31.8279H43.3371" stroke="#33363F" stroke-width="2" stroke-linecap="round"/>
<path d="M190 13C190 11.3431 191.343 10 193 10H553C554.657 10 556 11.3431 556 13V44C556 45.6569 554.657 47 553 47H193C191.343 47 190 45.6569 190 44V13Z" fill="#B7B5E4"/>
<path d="M532.595 33.6376L527.044 33.6698" stroke="#33363F" stroke-width="2" stroke-linecap="round"/>
<path d="M529.397 29.1286L527.018 29.1424" stroke="#33363F" stroke-width="2" stroke-linecap="round"/>
<path d="M538.147 33.6053L535.768 33.6191" stroke="#33363F" stroke-width="2" stroke-linecap="round"/>
<path d="M538.094 24.5505L536.508 24.5597" stroke="#33363F" stroke-width="2" stroke-linecap="round"/>
<path d="M538.121 29.0779L532.569 29.1102" stroke="#33363F" stroke-width="2" stroke-linecap="round"/>
<path d="M529.406 30.6378L529.388 27.6195" stroke="#33363F" stroke-width="2" stroke-linecap="round"/>
<path d="M535.777 35.1283L535.759 32.11" stroke="#33363F" stroke-width="2" stroke-linecap="round"/>
<path d="M536.517 26.0688L536.499 23.0505" stroke="#33363F" stroke-width="2" stroke-linecap="round"/>
<path d="M533.336 24.5781L526.992 24.615" stroke="#33363F" stroke-width="2" stroke-linecap="round"/>
<path d="M229.83 26.4545C229.778 26.0227 229.571 25.6875 229.207 25.4489C228.844 25.2102 228.398 25.0909 227.869 25.0909C227.483 25.0909 227.145 25.1534 226.855 25.2784C226.568 25.4034 226.344 25.5753 226.182 25.794C226.023 26.0128 225.943 26.2614 225.943 26.5398C225.943 26.7727 225.999 26.973 226.109 27.1406C226.223 27.3054 226.368 27.4432 226.544 27.554C226.72 27.6619 226.905 27.7514 227.098 27.8224C227.291 27.8906 227.469 27.946 227.631 27.9886L228.517 28.2273C228.744 28.2869 228.997 28.3693 229.276 28.4744C229.557 28.5795 229.825 28.723 230.081 28.9048C230.339 29.0838 230.553 29.3139 230.72 29.5952C230.888 29.8764 230.972 30.2216 230.972 30.6307C230.972 31.1023 230.848 31.5284 230.601 31.9091C230.357 32.2898 229.999 32.5923 229.527 32.8168C229.058 33.0412 228.489 33.1534 227.818 33.1534C227.193 33.1534 226.652 33.0526 226.195 32.8509C225.74 32.6491 225.382 32.3679 225.121 32.0071C224.862 31.6463 224.716 31.2273 224.682 30.75H225.773C225.801 31.0795 225.912 31.3523 226.105 31.5682C226.301 31.7812 226.548 31.9403 226.847 32.0455C227.148 32.1477 227.472 32.1989 227.818 32.1989C228.222 32.1989 228.584 32.1335 228.905 32.0028C229.226 31.8693 229.48 31.6847 229.668 31.4489C229.855 31.2102 229.949 30.9318 229.949 30.6136C229.949 30.3239 229.868 30.0881 229.706 29.9062C229.544 29.7244 229.331 29.5767 229.067 29.4631C228.803 29.3494 228.517 29.25 228.21 29.1648L227.136 28.858C226.455 28.6619 225.915 28.3821 225.517 28.0185C225.119 27.6548 224.92 27.179 224.92 26.5909C224.92 26.1023 225.053 25.6761 225.317 25.3125C225.584 24.946 225.942 24.6619 226.391 24.4602C226.842 24.2557 227.347 24.1534 227.903 24.1534C228.466 24.1534 228.966 24.2543 229.403 24.456C229.841 24.6548 230.188 24.9276 230.443 25.2741C230.702 25.6207 230.838 26.0142 230.852 26.4545H229.83ZM235.317 33.1364C234.686 33.1364 234.142 32.9972 233.685 32.7188C233.23 32.4375 232.88 32.0455 232.632 31.5426C232.388 31.0369 232.266 30.4489 232.266 29.7784C232.266 29.108 232.388 28.517 232.632 28.0057C232.88 27.4915 233.223 27.0909 233.664 26.804C234.107 26.5142 234.624 26.3693 235.215 26.3693C235.556 26.3693 235.892 26.4261 236.225 26.5398C236.557 26.6534 236.86 26.8381 237.132 27.0938C237.405 27.3466 237.623 27.6818 237.784 28.0994C237.946 28.517 238.027 29.0312 238.027 29.642V30.0682H232.982V29.1989H237.005C237.005 28.8295 236.931 28.5 236.783 28.2102C236.638 27.9205 236.431 27.6918 236.161 27.5241C235.894 27.3565 235.578 27.2727 235.215 27.2727C234.814 27.2727 234.468 27.3722 234.175 27.571C233.885 27.767 233.662 28.0227 233.506 28.3381C233.35 28.6534 233.272 28.9915 233.272 29.3523V29.9318C233.272 30.4261 233.357 30.8452 233.527 31.1889C233.701 31.5298 233.941 31.7898 234.248 31.9688C234.554 32.1449 234.911 32.233 235.317 32.233C235.581 32.233 235.82 32.196 236.033 32.1222C236.249 32.0455 236.435 31.9318 236.591 31.7812C236.748 31.6278 236.868 31.4375 236.953 31.2102L237.925 31.483C237.823 31.8125 237.651 32.1023 237.409 32.3523C237.168 32.5994 236.87 32.7926 236.515 32.9318C236.159 33.0682 235.76 33.1364 235.317 33.1364ZM241.483 33.1534C241.069 33.1534 240.692 33.0753 240.354 32.919C240.016 32.7599 239.748 32.5312 239.549 32.233C239.35 31.9318 239.25 31.5682 239.25 31.142C239.25 30.767 239.324 30.4631 239.472 30.2301C239.62 29.9943 239.817 29.8097 240.064 29.6761C240.311 29.5426 240.584 29.4432 240.882 29.3778C241.184 29.3097 241.486 29.2557 241.79 29.2159C242.188 29.1648 242.51 29.1264 242.757 29.1009C243.007 29.0724 243.189 29.0256 243.303 28.9602C243.419 28.8949 243.478 28.7812 243.478 28.6193V28.5852C243.478 28.1648 243.363 27.8381 243.132 27.6051C242.905 27.3722 242.56 27.2557 242.097 27.2557C241.617 27.2557 241.24 27.3608 240.968 27.571C240.695 27.7812 240.503 28.0057 240.392 28.2443L239.438 27.9034C239.608 27.5057 239.836 27.196 240.12 26.9744C240.407 26.75 240.719 26.5937 241.057 26.5057C241.398 26.4148 241.733 26.3693 242.063 26.3693C242.273 26.3693 242.515 26.3949 242.787 26.446C243.063 26.4943 243.328 26.5952 243.584 26.7486C243.843 26.902 244.057 27.1335 244.228 27.4432C244.398 27.7528 244.483 28.1676 244.483 28.6875V33H243.478V32.1136H243.426C243.358 32.2557 243.245 32.4077 243.086 32.5696C242.926 32.7315 242.715 32.8693 242.451 32.983C242.186 33.0966 241.864 33.1534 241.483 33.1534ZM241.637 32.25C242.034 32.25 242.37 32.1719 242.642 32.0156C242.918 31.8594 243.125 31.6577 243.265 31.4105C243.407 31.1634 243.478 30.9034 243.478 30.6307V29.7102C243.435 29.7614 243.341 29.8082 243.196 29.8509C243.054 29.8906 242.89 29.9261 242.702 29.9574C242.517 29.9858 242.337 30.0114 242.161 30.0341C241.988 30.054 241.847 30.071 241.739 30.0852C241.478 30.1193 241.233 30.1747 241.006 30.2514C240.782 30.3253 240.6 30.4375 240.461 30.5881C240.324 30.7358 240.256 30.9375 240.256 31.1932C240.256 31.5426 240.385 31.8068 240.644 31.9858C240.905 32.1619 241.236 32.25 241.637 32.25ZM246.319 33V26.4545H247.29V27.4432H247.359C247.478 27.1193 247.694 26.8565 248.006 26.6548C248.319 26.4531 248.671 26.3523 249.063 26.3523C249.137 26.3523 249.229 26.3537 249.34 26.3565C249.451 26.3594 249.535 26.3636 249.592 26.3693V27.392C249.558 27.3835 249.479 27.3707 249.357 27.3537C249.238 27.3338 249.112 27.3239 248.978 27.3239C248.66 27.3239 248.376 27.3906 248.126 27.5241C247.879 27.6548 247.683 27.8366 247.538 28.0696C247.396 28.2997 247.325 28.5625 247.325 28.858V33H246.319ZM253.244 33.1364C252.63 33.1364 252.102 32.9915 251.658 32.7017C251.215 32.4119 250.874 32.0128 250.636 31.5043C250.397 30.9957 250.278 30.4148 250.278 29.7614C250.278 29.0966 250.4 28.5099 250.644 28.0014C250.891 27.4901 251.235 27.0909 251.675 26.804C252.119 26.5142 252.636 26.3693 253.227 26.3693C253.687 26.3693 254.102 26.4545 254.471 26.625C254.84 26.7955 255.143 27.0341 255.379 27.3409C255.614 27.6477 255.761 28.0057 255.817 28.4148H254.812C254.735 28.1165 254.565 27.8523 254.3 27.6222C254.039 27.3892 253.687 27.2727 253.244 27.2727C252.852 27.2727 252.508 27.375 252.212 27.5795C251.92 27.7812 251.691 28.0668 251.526 28.4361C251.364 28.8026 251.283 29.233 251.283 29.7273C251.283 30.233 251.363 30.6733 251.522 31.0483C251.684 31.4233 251.911 31.7145 252.204 31.9219C252.499 32.1293 252.846 32.233 253.244 32.233C253.505 32.233 253.742 32.1875 253.955 32.0966C254.168 32.0057 254.349 31.875 254.496 31.7045C254.644 31.5341 254.749 31.3295 254.812 31.0909H255.817C255.761 31.4773 255.62 31.8253 255.396 32.1349C255.174 32.4418 254.88 32.6861 254.513 32.8679C254.15 33.0469 253.727 33.1364 253.244 33.1364ZM258.293 29.0625V33H257.288V24.2727H258.293V27.4773H258.379C258.532 27.1392 258.762 26.8707 259.069 26.6719C259.379 26.4702 259.79 26.3693 260.305 26.3693C260.751 26.3693 261.141 26.4588 261.477 26.6378C261.812 26.8139 262.072 27.0852 262.256 27.4517C262.444 27.8153 262.538 28.2784 262.538 28.8409V33H261.532V28.9091C261.532 28.3892 261.397 27.9872 261.127 27.7031C260.86 27.4162 260.489 27.2727 260.015 27.2727C259.685 27.2727 259.39 27.3423 259.129 27.4815C258.87 27.6207 258.665 27.8239 258.515 28.0909C258.367 28.358 258.293 28.6818 258.293 29.0625ZM267.752 33V26.4545H268.758V33H267.752ZM268.264 25.3636C268.068 25.3636 267.899 25.2969 267.757 25.1634C267.618 25.0298 267.548 24.8693 267.548 24.6818C267.548 24.4943 267.618 24.3338 267.757 24.2003C267.899 24.0668 268.068 24 268.264 24C268.46 24 268.627 24.0668 268.767 24.2003C268.909 24.3338 268.98 24.4943 268.98 24.6818C268.98 24.8693 268.909 25.0298 268.767 25.1634C268.627 25.2969 268.46 25.3636 268.264 25.3636ZM271.606 29.0625V33H270.6V26.4545H271.572V27.4773H271.657C271.81 27.1449 272.043 26.8778 272.356 26.6761C272.668 26.4716 273.072 26.3693 273.566 26.3693C274.009 26.3693 274.397 26.4602 274.729 26.642C275.062 26.821 275.32 27.0938 275.505 27.4602C275.69 27.8239 275.782 28.2841 275.782 28.8409V33H274.776V28.9091C274.776 28.3949 274.643 27.9943 274.376 27.7074C274.109 27.4176 273.742 27.2727 273.276 27.2727C272.955 27.2727 272.668 27.3423 272.415 27.4815C272.165 27.6207 271.968 27.8239 271.823 28.0909C271.678 28.358 271.606 28.6818 271.606 29.0625ZM280.995 33V26.4545H281.966V27.4773H282.051C282.188 27.1278 282.408 26.8565 282.712 26.6634C283.016 26.4673 283.381 26.3693 283.807 26.3693C284.239 26.3693 284.598 26.4673 284.885 26.6634C285.175 26.8565 285.401 27.1278 285.563 27.4773H285.631C285.799 27.1392 286.05 26.8707 286.385 26.6719C286.721 26.4702 287.123 26.3693 287.591 26.3693C288.176 26.3693 288.655 26.5526 289.027 26.919C289.4 27.2827 289.586 27.8494 289.586 28.6193V33H288.58V28.6193C288.58 28.1364 288.448 27.7912 288.184 27.5838C287.919 27.3764 287.608 27.2727 287.25 27.2727C286.79 27.2727 286.434 27.4119 286.181 27.6903C285.928 27.9659 285.801 28.3153 285.801 28.7386V33H284.779V28.517C284.779 28.1449 284.658 27.8452 284.417 27.6179C284.175 27.3878 283.864 27.2727 283.483 27.2727C283.222 27.2727 282.978 27.3423 282.75 27.4815C282.526 27.6207 282.344 27.8139 282.205 28.0611C282.069 28.3054 282 28.5881 282 28.9091V33H280.995ZM293.35 33.1534C292.936 33.1534 292.559 33.0753 292.221 32.919C291.883 32.7599 291.615 32.5312 291.416 32.233C291.217 31.9318 291.118 31.5682 291.118 31.142C291.118 30.767 291.191 30.4631 291.339 30.2301C291.487 29.9943 291.684 29.8097 291.931 29.6761C292.179 29.5426 292.451 29.4432 292.75 29.3778C293.051 29.3097 293.353 29.2557 293.657 29.2159C294.055 29.1648 294.377 29.1264 294.625 29.1009C294.875 29.0724 295.056 29.0256 295.17 28.9602C295.287 28.8949 295.345 28.7812 295.345 28.6193V28.5852C295.345 28.1648 295.23 27.8381 295 27.6051C294.772 27.3722 294.427 27.2557 293.964 27.2557C293.484 27.2557 293.108 27.3608 292.835 27.571C292.562 27.7812 292.37 28.0057 292.26 28.2443L291.305 27.9034C291.475 27.5057 291.703 27.196 291.987 26.9744C292.274 26.75 292.586 26.5937 292.924 26.5057C293.265 26.4148 293.6 26.3693 293.93 26.3693C294.14 26.3693 294.382 26.3949 294.654 26.446C294.93 26.4943 295.196 26.5952 295.451 26.7486C295.71 26.902 295.924 27.1335 296.095 27.4432C296.265 27.7528 296.35 28.1676 296.35 28.6875V33H295.345V32.1136H295.294C295.225 32.2557 295.112 32.4077 294.953 32.5696C294.794 32.7315 294.582 32.8693 294.318 32.983C294.054 33.0966 293.731 33.1534 293.35 33.1534ZM293.504 32.25C293.902 32.25 294.237 32.1719 294.51 32.0156C294.785 31.8594 294.993 31.6577 295.132 31.4105C295.274 31.1634 295.345 30.9034 295.345 30.6307V29.7102C295.302 29.7614 295.208 29.8082 295.064 29.8509C294.922 29.8906 294.757 29.9261 294.569 29.9574C294.385 29.9858 294.204 30.0114 294.028 30.0341C293.855 30.054 293.714 30.071 293.606 30.0852C293.345 30.1193 293.1 30.1747 292.873 30.2514C292.649 30.3253 292.467 30.4375 292.328 30.5881C292.191 30.7358 292.123 30.9375 292.123 31.1932C292.123 31.5426 292.252 31.8068 292.511 31.9858C292.772 32.1619 293.103 32.25 293.504 32.25ZM298.186 33V26.4545H299.192V33H298.186ZM298.697 25.3636C298.501 25.3636 298.332 25.2969 298.19 25.1634C298.051 25.0298 297.982 24.8693 297.982 24.6818C297.982 24.4943 298.051 24.3338 298.19 24.2003C298.332 24.0668 298.501 24 298.697 24C298.893 24 299.061 24.0668 299.2 24.2003C299.342 24.3338 299.413 24.4943 299.413 24.6818C299.413 24.8693 299.342 25.0298 299.2 25.1634C299.061 25.2969 298.893 25.3636 298.697 25.3636ZM302.039 24.2727V33H301.034V24.2727H302.039Z" fill="#C8C8C8"/>
<circle cx="207.3" cy="28.3004" r="5.28208" stroke="#33363F" stroke-width="2"/>
<path d="M214.092 35.0917L211.828 32.8279" stroke="#33363F" stroke-width="2" stroke-linecap="round"/>
<ellipse cx="768" cy="29.5" rx="18" ry="17.5" fill="#B7B5E4"/>
<circle cx="768.055" cy="26.0367" r="3.01833" fill="#222222"/>
<path d="M762.969 33.3331C763.45 31.0501 765.722 29.8096 768.055 29.8096V29.8096C770.388 29.8096 772.66 31.0501 773.141 33.3331C773.195 33.5874 773.24 33.8478 773.273 34.1116C773.341 34.6501 772.897 35.0917 772.354 35.0917H763.756C763.213 35.0917 762.769 34.6501 762.837 34.1116C762.87 33.8478 762.915 33.5874 762.969 33.3331Z" fill="#222222"/>
</svg>
