<svg width="157" height="145" viewBox="0 0 157 145" fill="none" xmlns="http://www.w3.org/2000/svg">
<path d="M33.4933 31.5217C33.4933 14.1128 47.5516 0 64.8933 0C82.2351 0 96.2933 14.1128 96.2933 31.5217C96.2933 48.9307 82.2351 63.0435 64.8933 63.0435C47.5516 63.0435 33.4933 48.9307 33.4933 31.5217Z" fill="black"/>
<path d="M0 111.377C0 93.9678 14.0583 79.8551 31.4 79.8551H34.2542C35.799 79.8551 37.3341 80.1003 38.8026 80.5817L46.0499 82.9573C54.1008 85.5964 62.5644 86.5002 70.898 85.6687C72.2391 85.5349 73.2696 86.9334 72.7619 88.1866C70.3879 94.0473 69.08 100.457 69.08 107.174C69.08 117.7 72.2921 127.473 77.7858 135.558C78.5528 136.687 77.8157 138.273 76.4554 138.32C54.5187 139.079 32.5262 137.677 10.7955 134.115C4.57087 133.095 0 127.697 0 121.365V111.377Z" fill="black"/>
<path fill-rule="evenodd" clip-rule="evenodd" d="M81.64 107.174C81.64 115.343 84.2198 122.908 88.6061 129.091C91.0502 132.537 94.0552 135.553 97.4874 138.007C103.647 142.41 111.182 145 119.32 145C140.13 145 157 128.065 157 107.174C157 99.0045 154.42 91.44 150.034 85.2566C147.59 81.8112 144.585 78.7945 141.153 76.3409C134.993 71.9376 127.458 69.3478 119.32 69.3478C98.5099 69.3478 81.64 86.2831 81.64 107.174ZM119.32 132.391C114.661 132.391 110.299 131.118 106.559 128.9L140.962 94.3637C143.172 98.118 144.44 102.497 144.44 107.174C144.44 121.101 133.193 132.391 119.32 132.391ZM97.678 119.984L132.081 85.448C128.341 83.2296 123.979 81.9565 119.32 81.9565C105.447 81.9565 94.2 93.2467 94.2 107.174C94.2 111.851 95.4681 116.23 97.678 119.984Z" fill="black"/>
</svg>
