<svg width="2678" height="1782" viewBox="0 0 2678 1782" fill="none" xmlns="http://www.w3.org/2000/svg">
<g id="Illustration 12">
<g id="Background">
<g id="Background Object / Ladder">
<g id="Group 39">
<path id="Stroke 1" d="M2225.35 1464.51L2161.73 676.373" stroke="#CCE3FF" stroke-width="18"/>
<path id="Stroke 3" d="M1905.46 1464.51L1969.08 676.373" stroke="#CCE3FF" stroke-width="18"/>
<path id="Stroke 5" d="M2203.32 709.816H1934.74" stroke="#CCE3FF" stroke-width="18"/>
<path id="Stroke 7" d="M2221.56 882.367H1916.5" stroke="#CCE3FF" stroke-width="18"/>
<path id="Stroke 9" d="M2235.95 1089.12H1902.11" stroke="#CCE3FF" stroke-width="18"/>
<path id="Stroke 11" d="M2260.47 1275.66H1877.59" stroke="#CCE3FF" stroke-width="18"/>
<path id="Fill 14" fill-rule="evenodd" clip-rule="evenodd" d="M2011 1023.15H2099.24C2103.24 1023.15 2106.48 1019.91 2106.48 1015.92V877.323C2106.48 873.33 2103.24 870.093 2099.24 870.093H2011C2007 870.093 2003.76 873.33 2003.76 877.323V1015.92C2003.76 1019.91 2007 1023.15 2011 1023.15Z" fill="#CCE3FF"/>
<path id="Fill 16" fill-rule="evenodd" clip-rule="evenodd" d="M2069.95 1215.91H2158.19C2162.19 1215.91 2165.43 1212.68 2165.43 1208.68V1083.5C2165.43 1079.5 2162.19 1076.27 2158.19 1076.27H2069.95C2065.95 1076.27 2062.71 1079.5 2062.71 1083.5V1208.68C2062.71 1212.68 2065.95 1215.91 2069.95 1215.91Z" fill="#CCE3FF"/>
<path id="Stroke 18" d="M2248.11 1464.51L2184.49 676.373" stroke="#DCEEFF" stroke-width="30"/>
<path id="Stroke 20" d="M1928.22 1464.51L1991.84 676.373" stroke="#DCEEFF" stroke-width="30"/>
<path id="Stroke 22" d="M2222.29 709.816H1953.71" stroke="#DCEEFF" stroke-width="18"/>
<path id="Stroke 24" d="M2240.52 882.367H1935.47" stroke="#DCEEFF" stroke-width="18"/>
<path id="Stroke 26" d="M2254.92 1089.12H1921.07" stroke="#DCEEFF" stroke-width="18"/>
<path id="Stroke 28" d="M2279.43 1275.66H1896.56" stroke="#DCEEFF" stroke-width="18"/>
<path id="Fill 30" fill-rule="evenodd" clip-rule="evenodd" d="M2085.66 1173.41H2172.82C2177.12 1173.41 2180.6 1169.93 2180.6 1165.64V1084.04C2180.6 1079.75 2177.12 1076.27 2172.82 1076.27H2077.88V1165.64C2077.88 1169.93 2081.37 1173.41 2085.66 1173.41Z" fill="#ECF6FF"/>
<path id="Fill 32" fill-rule="evenodd" clip-rule="evenodd" d="M2180.6 1156.84H2077.88V1131.12H2180.6V1156.84Z" fill="#DCEEFF"/>
<path id="Fill 34" fill-rule="evenodd" clip-rule="evenodd" d="M2070.3 1076.27C2074.48 1076.27 2077.88 1079.66 2077.88 1083.85V1076.27H2070.3Z" fill="#ECF6FF"/>
<path id="Fill 35" fill-rule="evenodd" clip-rule="evenodd" d="M2026.71 976.566H2113.87C2118.17 976.566 2121.65 973.086 2121.65 968.793V877.865C2121.65 873.572 2118.17 870.093 2113.87 870.093H2018.93V968.793C2018.93 973.086 2022.42 976.566 2026.71 976.566Z" fill="#ECF6FF"/>
<path id="Fill 36" fill-rule="evenodd" clip-rule="evenodd" d="M2121.65 958.406H2018.93V946.621H2121.65V958.406Z" fill="#DCEEFF"/>
<path id="Fill 37" fill-rule="evenodd" clip-rule="evenodd" d="M2121.65 935.114H2018.93V923.329H2121.65V935.114Z" fill="#DCEEFF"/>
<path id="Fill 38" fill-rule="evenodd" clip-rule="evenodd" d="M2011.35 870.1C2015.53 870.1 2018.94 873.809 2018.94 878.405V870.1H2011.35Z" fill="#ECF6FF"/>
</g>
</g>
<g id="Background Object / Door / 1">
<g id="Group 24">
<path id="Fill 1" fill-rule="evenodd" clip-rule="evenodd" d="M1805.95 1464.39H1314.91V406.663H1805.95V1464.39Z" fill="#DCEEFF"/>
<path id="Fill 2" fill-rule="evenodd" clip-rule="evenodd" d="M1747.59 1464.39H1356.93V453.327H1747.59V1464.39Z" fill="#CCE3FF"/>
<path id="Fill 3" fill-rule="evenodd" clip-rule="evenodd" d="M1605.72 1357.24H1498.8V1115.17H1605.72V1357.24Z" fill="#DCEEFF"/>
<path id="Fill 4" fill-rule="evenodd" clip-rule="evenodd" d="M1605.72 794.643H1498.8V552.573H1605.72V794.643Z" fill="#DCEEFF"/>
<path id="Fill 5" fill-rule="evenodd" clip-rule="evenodd" d="M1605.72 1075.94H1498.8V833.872H1605.72V1075.94Z" fill="#DCEEFF"/>
<path id="Stroke 6" d="M1710.98 892.023H1639.1" stroke="#B6D4FF" stroke-width="14"/>
<path id="Fill 7" fill-rule="evenodd" clip-rule="evenodd" d="M1314.91 1464.39H1298.95V406.663H1314.91V1464.39Z" fill="#B6D4FF"/>
<path id="Fill 8" fill-rule="evenodd" clip-rule="evenodd" d="M1763.54 1464.39H1747.59V453.327H1763.54V1464.39Z" fill="#B6D4FF"/>
<path id="Fill 9" fill-rule="evenodd" clip-rule="evenodd" d="M1714.75 976.652C1724 976.652 1731.49 969.164 1731.49 959.927V883.588C1731.49 874.35 1724 866.862 1714.75 866.862C1705.51 866.862 1698.02 874.35 1698.02 883.588V959.927C1698.02 969.164 1705.51 976.652 1714.75 976.652Z" fill="#B6D4FF"/>
<path id="Fill 11" fill-rule="evenodd" clip-rule="evenodd" d="M1298.95 370.039C1298.95 235.147 1408.37 125.794 1543.34 125.794C1678.32 125.794 1787.73 235.147 1787.73 370.039H1298.95Z" fill="#B6D4FF"/>
<path id="Fill 14_2" fill-rule="evenodd" clip-rule="evenodd" d="M1317.17 368.522C1317.17 233.63 1426.59 124.276 1561.56 124.276C1696.53 124.276 1805.95 233.63 1805.95 368.522H1317.17Z" fill="#DCEEFF"/>
<path id="Fill 17" fill-rule="evenodd" clip-rule="evenodd" d="M1317.17 370.039C1317.17 235.147 1426.59 125.794 1561.56 125.794C1696.53 125.794 1805.95 235.147 1805.95 370.039H1317.17Z" fill="#DCEEFF"/>
<path id="Fill 19" fill-rule="evenodd" clip-rule="evenodd" d="M1381.25 329.087H1763.13C1743.35 237.291 1665.38 168.781 1572.19 168.781C1479.01 168.781 1401.04 237.291 1381.25 329.087Z" fill="#B6D4FF"/>
<path id="Fill 21" fill-rule="evenodd" clip-rule="evenodd" d="M1361.52 329.087H1743.4C1723.62 237.291 1645.64 168.781 1552.46 168.781C1459.27 168.781 1381.3 237.291 1361.52 329.087Z" fill="white"/>
</g>
</g>
<g id="Background Object / Pluteus / 3">
<g id="Group 29">
<path id="Fill 1_2" fill-rule="evenodd" clip-rule="evenodd" d="M850.383 469.485H741.989L727.351 323.26H835.745L850.383 469.485Z" fill="#DCEEFF"/>
<path id="Stroke 2" fill-rule="evenodd" clip-rule="evenodd" d="M850.383 469.485H741.989L727.351 323.26H835.745L850.383 469.485Z" stroke="#DCEEFF" stroke-width="5"/>
<path id="Fill 4_2" fill-rule="evenodd" clip-rule="evenodd" d="M856.234 469.485H745.823L731.184 323.26H841.596L856.234 469.485Z" fill="white"/>
<path id="Stroke 5_2" fill-rule="evenodd" clip-rule="evenodd" d="M856.234 469.485H745.823L731.184 323.26H841.596L856.234 469.485Z" stroke="#DCEEFF" stroke-width="5"/>
<path id="Fill 7_2" fill-rule="evenodd" clip-rule="evenodd" d="M835.087 450.178H763.105L752.332 342.567H824.315L835.087 450.178Z" fill="#DCEEFF"/>
<path id="Fill 8_2" fill-rule="evenodd" clip-rule="evenodd" d="M564.111 366.75L574.256 468.059H707.451L697.306 366.75H564.111Z" fill="#DCEEFF"/>
<path id="Stroke 9_2" fill-rule="evenodd" clip-rule="evenodd" d="M564.111 366.75L574.256 468.059H707.451L697.306 366.75H564.111Z" stroke="#DCEEFF" stroke-width="5"/>
<path id="Fill 10" fill-rule="evenodd" clip-rule="evenodd" d="M567.091 366.75L577.235 468.059H712.909L702.763 366.75H567.091Z" fill="white"/>
<path id="Stroke 11_2" fill-rule="evenodd" clip-rule="evenodd" d="M567.091 366.75L577.235 468.059H712.909L702.763 366.75H567.091Z" stroke="#DCEEFF" stroke-width="5"/>
<path id="Fill 12" fill-rule="evenodd" clip-rule="evenodd" d="M595.697 386.624L601.861 448.185H684.302L678.138 386.624H595.697Z" fill="#CCE3FF"/>
<path id="Fill 13" fill-rule="evenodd" clip-rule="evenodd" d="M1014.38 430.194C1014.38 437.948 1008.09 444.236 1000.33 444.236H873.984V416.15H1000.33C1008.09 416.15 1014.38 422.438 1014.38 430.194Z" fill="#CCE3FF"/>
<path id="Fill 15" fill-rule="evenodd" clip-rule="evenodd" d="M929.396 430.194C929.396 434.683 925.757 438.323 921.267 438.323H874.324C874.136 438.323 873.985 438.172 873.985 437.986V422.401C873.985 422.214 874.136 422.064 874.324 422.064H921.267C925.757 422.064 929.396 425.703 929.396 430.194Z" fill="#DCEEFF"/>
<path id="Fill 17_2" fill-rule="evenodd" clip-rule="evenodd" d="M1032.01 444.236V472.322H894.103C886.347 472.322 880.059 466.035 880.059 458.28C880.059 450.524 886.347 444.236 894.103 444.236H1032.01Z" fill="#CCE3FF"/>
<path id="Fill 19_2" fill-rule="evenodd" clip-rule="evenodd" d="M1032.01 450.228V466.331H975.308C970.862 466.331 967.257 462.726 967.257 458.28C967.257 453.832 970.862 450.228 975.308 450.228H1032.01Z" fill="#DCEEFF"/>
<path id="Fill 21_2" fill-rule="evenodd" clip-rule="evenodd" d="M1076.78 490.981H601.383V471.01H1076.78V490.981Z" fill="#DCEEFF"/>
<path id="Fill 23" fill-rule="evenodd" clip-rule="evenodd" d="M601.383 490.981H523.175V471.01H601.383V490.981Z" fill="#CCE3FF"/>
<path id="Fill 24" fill-rule="evenodd" clip-rule="evenodd" d="M960.915 490.98L923.789 549.224V490.98H960.915Z" fill="#B6D4FF"/>
<path id="Fill 25" fill-rule="evenodd" clip-rule="evenodd" d="M981.459 490.98L944.334 549.224H923.79L960.915 490.98H981.459Z" fill="#CCE3FF"/>
<path id="Fill 26" fill-rule="evenodd" clip-rule="evenodd" d="M688.627 490.98L651.502 549.224V490.98H688.627Z" fill="#B6D4FF"/>
<path id="Fill 27" fill-rule="evenodd" clip-rule="evenodd" d="M709.172 490.98L672.047 549.224H651.502L688.628 490.98H709.172Z" fill="#CCE3FF"/>
</g>
</g>
<g id="Background Object / Flower / 1">
<g id="Group 24_2">
<path id="Fill 1_3" fill-rule="evenodd" clip-rule="evenodd" d="M845.479 1011.51C845.479 1045.86 824.606 1073.7 798.858 1073.7C773.109 1073.7 752.236 1045.86 752.236 1011.51C752.236 977.17 773.109 949.33 798.858 949.33C824.606 949.33 845.479 977.17 845.479 1011.51Z" fill="#CCE3FF"/>
<path id="Stroke 3_2" d="M799.206 1338.12V1014.68" stroke="#DCEEFF" stroke-width="9"/>
<path id="Fill 5_2" fill-rule="evenodd" clip-rule="evenodd" d="M748.997 1102.86C771.013 1124.88 775.475 1156.13 758.963 1172.64C742.451 1189.16 711.218 1184.7 689.202 1162.68C667.187 1140.65 662.725 1109.41 679.236 1092.89C695.749 1076.37 726.981 1080.84 748.997 1102.86Z" fill="#CCE3FF"/>
<path id="Fill 8_3" fill-rule="evenodd" clip-rule="evenodd" d="M906.195 1148.11C923.948 1165.87 919.151 1199.46 895.48 1223.14C871.81 1246.82 838.229 1251.62 820.476 1233.86" fill="#CCE3FF"/>
<path id="Stroke 10" d="M882.278 1179.39L800.586 1261.35" stroke="#DCEEFF" stroke-width="9"/>
<path id="Stroke 12" d="M858.673 1101.02L798.973 1160.04" stroke="#DCEEFF" stroke-width="9"/>
<path id="Stroke 14" d="M736.984 1230.57L799.352 1293.66" stroke="#DCEEFF" stroke-width="9"/>
<path id="Stroke 16" d="M715.486 1129.58L798.858 1213.97" stroke="#DCEEFF" stroke-width="9"/>
<path id="Fill 18" fill-rule="evenodd" clip-rule="evenodd" d="M824.206 1449.2H774.207C735.803 1449.2 704.383 1417.77 704.383 1379.36V1313.63H894.03V1379.36C894.03 1417.77 862.61 1449.2 824.206 1449.2Z" fill="#ECF6FF"/>
<path id="Stroke 20_2" d="M894.03 1350.16H704.383" stroke="#DCEEFF" stroke-width="9"/>
<path id="Stroke 22_2" d="M894.03 1386.8H704.383" stroke="#DCEEFF" stroke-width="9"/>
</g>
</g>
<g id="Background Object / Flower / 3">
<g id="Group 16">
<path id="Fill 1_4" fill-rule="evenodd" clip-rule="evenodd" d="M1109.41 1016.64C1109.41 1016.64 1023.27 1206.82 1012.99 1413.6C1012.99 1413.6 1061.2 1204.06 1109.41 1016.64Z" fill="#DCEEFF"/>
<path id="Fill 3_2" fill-rule="evenodd" clip-rule="evenodd" d="M955.292 1162.79C955.292 1162.79 1017.29 1164.41 1026.73 1371.19C1026.73 1371.19 1000.27 1215.12 955.292 1162.79Z" fill="#DCEEFF"/>
<path id="Fill 5_3" fill-rule="evenodd" clip-rule="evenodd" d="M1018.6 954.666C1018.6 954.666 1054.79 1173.44 1019.17 1396.05C1019.17 1396.05 1021.29 1163.55 1018.6 954.666Z" fill="#DCEEFF"/>
<path id="Fill 8_4" fill-rule="evenodd" clip-rule="evenodd" d="M1067.42 1454.6H977.912C977.24 1454.6 976.57 1454.58 975.903 1454.56C935.089 1453.03 912.381 1401.39 935.497 1364.13L956.002 1331.08H1089.33L1109.84 1364.13C1132.95 1401.39 1110.24 1453.03 1069.43 1454.56C1068.76 1454.58 1068.09 1454.6 1067.42 1454.6Z" fill="#ECF6FF"/>
<path id="Stroke 11_3" d="M926.247 1407.09H1119.09" stroke="#B6D4FF" stroke-width="9"/>
<path id="Stroke 14_2" d="M930.723 1375.15H1115.23" stroke="#B6D4FF" stroke-width="9"/>
</g>
</g>
<g id="Background Object / Clock">
<g id="Group 14">
<path id="Fill 1_5" fill-rule="evenodd" clip-rule="evenodd" d="M2265.63 290.348C2265.63 345.228 2221.14 389.717 2166.26 389.717C2111.38 389.717 2066.89 345.228 2066.89 290.348C2066.89 235.467 2111.38 190.979 2166.26 190.979C2221.14 190.979 2265.63 235.467 2265.63 290.348Z" fill="#CCE3FF"/>
<path id="Fill 4_3" fill-rule="evenodd" clip-rule="evenodd" d="M2246.14 290.348C2246.14 345.228 2201.65 389.717 2146.77 389.717C2091.89 389.717 2047.41 345.228 2047.41 290.348C2047.41 235.467 2091.89 190.979 2146.77 190.979C2201.65 190.979 2246.14 235.467 2246.14 290.348Z" fill="#DCEEFF"/>
<path id="Fill 6" fill-rule="evenodd" clip-rule="evenodd" d="M2222.08 290.341C2222.08 329.129 2192.76 361.059 2155.09 365.197C2152.36 365.499 2149.59 365.649 2146.78 365.649C2105.19 365.649 2071.47 331.937 2071.47 290.341C2071.47 248.759 2105.19 215.046 2146.78 215.046C2149.59 215.046 2152.36 215.197 2155.09 215.499C2192.76 219.638 2222.08 251.568 2222.08 290.341Z" fill="#CCE3FF"/>
<path id="Fill 8_5" fill-rule="evenodd" clip-rule="evenodd" d="M2222.08 290.34C2222.08 329.129 2192.76 361.059 2155.09 365.197C2117.4 361.059 2088.09 329.129 2088.09 290.34C2088.09 251.568 2117.4 219.638 2155.09 215.499C2192.76 219.638 2222.08 251.568 2222.08 290.34Z" fill="#ECF6FF"/>
<path id="Stroke 10_2" d="M2150.04 248.473L2174.44 301.687" stroke="#CCE3FF" stroke-width="8"/>
<path id="Stroke 12_2" d="M2176.76 279.378L2123.32 337.472" stroke="#CCE3FF" stroke-width="8"/>
</g>
</g>
<g id="Background Object / Flower / 2">
<g id="Group 33">
<path id="Fill 1_6" fill-rule="evenodd" clip-rule="evenodd" d="M402.578 1210.99C406.054 1234.54 394.236 1254.63 394.236 1254.63C394.236 1254.63 376.781 1236.53 373.304 1212.98C369.828 1189.42 381.646 1169.33 381.646 1169.33C381.646 1169.33 399.101 1187.43 402.578 1210.99Z" fill="#E9F6FF"/>
<path id="Fill 3_3" fill-rule="evenodd" clip-rule="evenodd" d="M397.491 1226.37C413.038 1247.56 412.476 1269.19 412.476 1269.19C412.476 1269.19 386.704 1256.46 371.157 1235.28C355.609 1214.09 356.172 1192.46 356.172 1192.46C356.172 1192.46 381.943 1205.18 397.491 1226.37Z" fill="#E9F6FF"/>
<path id="Fill 5_4" fill-rule="evenodd" clip-rule="evenodd" d="M417.01 1213.55C412.881 1237.05 394.926 1254.92 394.926 1254.92C394.926 1254.92 383.668 1234.69 387.797 1211.18C391.926 1187.68 409.881 1169.81 409.881 1169.81C409.881 1169.81 421.139 1190.04 417.01 1213.55Z" fill="#E9F6FF"/>
<path id="Fill 7_3" fill-rule="evenodd" clip-rule="evenodd" d="M429.959 1230.58C416.947 1252.54 392.752 1266.62 392.752 1266.62C392.752 1266.62 389.652 1245.09 402.663 1223.13C415.674 1201.16 439.87 1187.08 439.87 1187.08C439.87 1187.08 442.969 1208.61 429.959 1230.58Z" fill="#E9F6FF"/>
<path id="Fill 9_2" fill-rule="evenodd" clip-rule="evenodd" d="M520.39 1300.66C520.39 1347.2 465.676 1384.93 398.181 1384.93C330.687 1384.93 275.972 1347.2 275.972 1300.66C275.972 1254.12 330.687 1216.39 398.181 1216.39C465.676 1216.39 520.39 1254.12 520.39 1300.66Z" fill="#CCE3FF"/>
<path id="Fill 11_2" fill-rule="evenodd" clip-rule="evenodd" d="M473.878 1450.89H334.874C313.541 1450.89 296.247 1433.57 296.247 1412.22V1405.56C296.247 1384.2 313.541 1366.89 334.874 1366.89H473.878C495.211 1366.89 512.506 1384.2 512.506 1405.56V1412.22C512.506 1433.57 495.211 1450.89 473.878 1450.89Z" fill="#DCEEFF"/>
<path id="Stroke 13" d="M328.347 1241.19L305.821 1223.71" stroke="#B6D4FF" stroke-width="9"/>
<path id="Stroke 15" d="M296.246 1331.61L275.972 1345.51" stroke="#B6D4FF" stroke-width="9"/>
<path id="Stroke 17" d="M355.17 1324.03L390.157 1329.71" stroke="#B6D4FF" stroke-width="9"/>
<path id="Stroke 19" d="M444.637 1238.35L465.762 1212.36" stroke="#B6D4FF" stroke-width="9"/>
<path id="Stroke 21" d="M483.221 1266.62L506.311 1251.9" stroke="#B6D4FF" stroke-width="9"/>
<path id="Stroke 23" d="M487.726 1342.66L509.689 1356.75" stroke="#B6D4FF" stroke-width="9"/>
<path id="Stroke 25" d="M365.326 1272.44L354.875 1248.25" stroke="white" stroke-width="9"/>
<path id="Stroke 27" d="M465.308 1298.81L440.192 1310.71" stroke="white" stroke-width="9"/>
<path id="Stroke 29" d="M343.818 1284.98L319.907 1269.15" stroke="white" stroke-width="9"/>
<path id="Stroke 31" d="M296.246 1400.45L339.495 1417.33L382.746 1400.45L425.995 1417.33L469.25 1400.45L512.505 1417.33" stroke="#B6D4FF" stroke-width="9"/>
</g>
</g>
<g id="Background Object / Pluteus / 4">
<g id="Group 7">
<path id="Fill 1_7" fill-rule="evenodd" clip-rule="evenodd" d="M1076.78 177.246H601.384V157.277H1076.78V177.246Z" fill="#DCEEFF"/>
<path id="Fill 2_2" fill-rule="evenodd" clip-rule="evenodd" d="M601.385 177.246H523.176V157.277H601.385V177.246Z" fill="#CCE3FF"/>
<path id="Fill 3_4" fill-rule="evenodd" clip-rule="evenodd" d="M960.914 177.246L923.79 235.49V177.246H960.914Z" fill="#B6D4FF"/>
<path id="Fill 4_4" fill-rule="evenodd" clip-rule="evenodd" d="M981.459 177.246L944.335 235.49H923.791L960.915 177.246H981.459Z" fill="#CCE3FF"/>
<path id="Fill 5_5" fill-rule="evenodd" clip-rule="evenodd" d="M688.628 177.246L651.503 235.49V177.246H688.628Z" fill="#B6D4FF"/>
<path id="Fill 6_2" fill-rule="evenodd" clip-rule="evenodd" d="M709.172 177.246L672.047 235.49H651.502L688.628 177.246H709.172Z" fill="#CCE3FF"/>
</g>
</g>
</g>
<g id="Person / Robot / 4">
<g id="Robot / Legs / 2">
<g id="Group 35">
<path id="Stroke 1_2" d="M1152.23 1291.2L1170.51 1460.6" stroke="#19141E" stroke-width="23" stroke-linecap="round"/>
<path id="Stroke 2_2" d="M1295.18 1291.2L1313.46 1460.6" stroke="#19141E" stroke-width="23" stroke-linecap="round"/>
<path id="Stroke 3_3" d="M1178.2 987.508L1152.91 1268.15" stroke="#19141E" stroke-width="23" stroke-linecap="round"/>
<path id="Stroke 8" d="M1308.72 985.382C1308.68 976.463 1301.46 969.269 1292.6 969.314C1283.74 969.359 1276.59 976.625 1276.63 985.544L1278.03 1265.48C1278.07 1274.4 1285.29 1281.59 1294.15 1281.54C1303.01 1281.5 1310.16 1274.23 1310.12 1265.31L1308.72 985.382Z" fill="#19141E"/>
<g id="Legs color">
<path id="Legs" fill-rule="evenodd" clip-rule="evenodd" d="M1326.81 976.012C1326.77 990.563 1319.69 1003.52 1308.85 1011.61L1308.72 985.382C1308.68 976.463 1301.46 969.269 1292.6 969.314C1283.74 969.359 1276.59 976.625 1276.63 985.544L1276.81 1020.34L1182.49 1020.03C1158.17 1019.94 1138.34 999.85 1138.42 975.374C1138.5 950.898 1158.47 930.939 1182.79 931.021L1282.75 931.359C1307.07 931.441 1326.9 951.534 1326.81 976.012ZM1232.59 1576.59L1236.07 1608.73C1243.4 1593.43 1257.36 1581.94 1274.2 1578.05L1254.85 1398.68C1253.85 1389.37 1260.53 1381.02 1269.78 1380.01L1341.27 1372.18C1350.53 1371.17 1358.83 1377.9 1359.84 1387.21L1380.26 1576.59L1386.4 1633.33L1388.24 1650.44H1082.82V1633.33C1082.83 1606.39 1101.5 1583.83 1126.53 1578.05L1107.18 1398.68C1106.17 1389.37 1112.86 1381.02 1122.11 1380.01L1193.59 1372.18C1202.86 1371.17 1211.16 1377.9 1212.16 1387.21L1232.59 1576.59ZM1258.09 1276.9C1258.09 1299.2 1276.05 1317.28 1298.2 1317.28C1320.35 1317.28 1338.32 1299.2 1338.32 1276.9C1338.32 1254.6 1320.35 1236.53 1298.2 1236.53C1276.05 1236.53 1258.09 1254.6 1258.09 1276.9ZM1150.69 1317.28C1128.54 1317.28 1110.58 1299.2 1110.58 1276.9C1110.58 1254.6 1128.54 1236.53 1150.69 1236.53C1172.85 1236.53 1190.81 1254.6 1190.81 1276.9C1190.81 1299.2 1172.85 1317.28 1150.69 1317.28Z" fill="#A39EDA"/>
</g>
<path id="Path" opacity="0.397182" fill-rule="evenodd" clip-rule="evenodd" d="M1230.6 1633.21C1230.61 1624.39 1232.61 1616.05 1236.17 1608.61L1232.7 1576.46L1212.27 1387.08C1211.27 1377.77 1202.96 1371.05 1193.7 1372.06L1122.21 1379.88C1112.96 1380.89 1106.28 1389.25 1107.29 1398.56L1126.64 1577.92C1101.61 1583.71 1082.94 1606.26 1082.93 1633.21V1650.31H1388.24L1386.4 1633.21H1230.6Z" fill="black"/>
<path id="Fill 23_2" opacity="0.401204" fill-rule="evenodd" clip-rule="evenodd" d="M1110.6 1276.82C1110.6 1299.12 1128.56 1317.2 1150.72 1317.2C1172.87 1317.2 1190.83 1299.12 1190.83 1276.82C1190.83 1254.52 1172.87 1236.45 1150.72 1236.45C1128.56 1236.45 1110.6 1254.52 1110.6 1276.82Z" fill="black"/>
<path id="Shape" opacity="0.596656" fill-rule="evenodd" clip-rule="evenodd" d="M1324.7 1410.3C1324.7 1416.74 1329.89 1421.96 1336.29 1421.96C1342.69 1421.96 1347.87 1416.74 1347.87 1410.3C1347.87 1403.86 1342.69 1398.64 1336.29 1398.64C1329.89 1398.64 1324.7 1403.86 1324.7 1410.3ZM1328.79 1448.34C1328.79 1454.78 1333.98 1460 1340.38 1460C1346.78 1460 1351.97 1454.78 1351.97 1448.34C1351.97 1441.89 1346.78 1436.67 1340.38 1436.67C1333.98 1436.67 1328.79 1441.89 1328.79 1448.34Z" fill="black"/>
<path id="Fill 25_2" opacity="0.396019" fill-rule="evenodd" clip-rule="evenodd" d="M1336.83 1592.32C1336.83 1600.8 1343.65 1607.67 1352.07 1607.67C1360.49 1607.67 1367.32 1600.8 1367.32 1592.32C1367.32 1583.85 1360.49 1576.98 1352.07 1576.98C1343.65 1576.98 1336.83 1583.85 1336.83 1592.32Z" fill="black"/>
</g>
</g>
<g id="Robot / Body / 1">
<g id="Group 18">
<path id="Stroke 1_3" d="M1139.08 901.009L1076.12 1036.96" stroke="#19141E" stroke-width="16" stroke-linecap="round"/>
<path id="Fill 8_6" fill-rule="evenodd" clip-rule="evenodd" d="M1262.14 931.021H1213.32V891.702H1262.14V931.021Z" fill="#19141E"/>
<path id="Stroke 12_3" d="M1375.72 1051.03L1362.22 902.816" stroke="#19141E" stroke-width="16" stroke-linecap="round"/>
<g id="Body color">
<path id="Body" fill-rule="evenodd" clip-rule="evenodd" d="M1323.23 893.438L1324.2 895.352C1332.84 912.423 1353.87 919.325 1370.94 910.691L1373.81 909.236C1390.88 900.601 1397.79 879.57 1389.15 862.498L1340.3 765.915C1333.73 752.92 1319.97 745.818 1306.25 746.975C1299.76 744.317 1292.67 742.85 1285.26 742.85H1190.2C1176.84 742.85 1164.54 747.613 1154.92 755.524C1142.22 758.337 1131.57 768.183 1128.45 781.635L1104.02 887.08C1099.71 905.715 1111.42 924.496 1130.06 928.814L1133.2 929.541C1150.95 933.654 1168.83 923.222 1174.22 906.117C1179.29 907.644 1184.65 908.465 1190.2 908.465H1285.26C1299.89 908.465 1313.26 902.748 1323.23 893.438ZM1063.12 1095.04L1078.83 1109.07C1079.55 1108.26 1080.69 1106.9 1082.1 1105.06C1084.42 1102.06 1086.72 1098.73 1088.89 1095.14C1094.73 1085.46 1098.52 1075.65 1099.19 1065.92C1100.08 1052.83 1095.04 1041.19 1083.55 1032.81C1072.04 1024.41 1060.05 1023.69 1049.79 1030.3C1042.47 1035.01 1036.83 1042.83 1032.19 1052.89C1029.85 1057.98 1027.91 1063.34 1026.33 1068.7C1025.78 1070.56 1025.31 1072.31 1024.92 1073.88C1024.68 1074.86 1024.51 1075.58 1024.42 1076.02L1045.03 1080.39C1045.07 1080.18 1045.19 1079.68 1045.37 1078.94C1045.69 1077.66 1046.08 1076.22 1046.54 1074.66C1047.85 1070.21 1049.45 1065.78 1051.32 1061.71C1054.44 1054.95 1057.93 1050.11 1061.2 1048.01C1063.91 1046.26 1066.46 1046.41 1071.13 1049.82C1076.6 1053.81 1078.59 1058.41 1078.17 1064.49C1077.78 1070.32 1075.11 1077.19 1070.85 1084.26C1069.12 1087.13 1067.26 1089.81 1065.41 1092.22C1064.77 1093.05 1064.18 1093.78 1063.66 1094.41C1063.54 1094.54 1063.45 1094.66 1063.36 1094.76C1063.24 1094.9 1063.16 1094.99 1063.12 1095.04ZM1418.21 1105.98L1397.18 1104.73C1397.19 1104.68 1397.2 1104.49 1397.21 1104.18C1397.28 1101.94 1397.23 1099.05 1396.99 1095.79C1396.63 1091.11 1395.91 1086.53 1394.77 1082.34C1391.36 1069.91 1385.5 1063.91 1375.4 1064.31C1366.69 1064.65 1364.52 1068.68 1366.1 1080.01C1366.71 1084.43 1368 1089.33 1369.76 1094.36C1370.69 1097.01 1371.68 1099.51 1372.68 1101.79C1373.02 1102.57 1373.33 1103.27 1373.61 1103.86C1373.77 1104.2 1373.87 1104.41 1373.91 1104.48L1355.04 1113.85C1354.68 1113.12 1354.09 1111.87 1353.37 1110.2C1352.18 1107.47 1350.99 1104.49 1349.88 1101.32C1347.69 1095.07 1346.07 1088.87 1345.24 1082.91C1343.91 1073.35 1344.67 1064.89 1348.45 1057.86C1353.31 1048.82 1362.39 1043.74 1374.57 1043.26C1396.18 1042.41 1409.37 1055.91 1415.08 1076.77C1417.77 1086.6 1418.52 1096.54 1418.26 1104.86C1418.24 1105.36 1418.22 1105.74 1418.21 1105.98Z" fill="#A39EDA"/>
</g>
<path id="Fill 11_3" fill-rule="evenodd" clip-rule="evenodd" d="M1236.65 854.183H1189.99C1180.72 854.183 1173.13 846.6 1173.13 837.332V809.968C1173.13 800.699 1180.72 793.116 1189.99 793.116H1236.65C1245.92 793.116 1253.5 800.699 1253.5 809.968V837.332C1253.5 846.6 1245.92 854.183 1236.65 854.183Z" fill="#19141E"/>
<g id="Overlay">
<path id="Shape_2" opacity="0.399182" fill-rule="evenodd" clip-rule="evenodd" d="M1340.44 766.126C1331.81 749.054 1310.78 742.152 1293.71 750.787L1290.83 752.242C1273.76 760.877 1266.86 781.908 1275.49 798.98L1324.35 895.563C1332.98 912.635 1354.01 919.537 1371.08 910.902L1373.96 909.447C1391.03 900.812 1397.93 879.781 1389.3 862.709L1340.44 766.126ZM1146.02 908.736C1151.29 905.505 1153.62 899.301 1152.18 893.607C1158.33 899.288 1165.75 903.61 1173.96 906.082C1168.57 923.187 1150.68 933.62 1132.93 929.507L1129.79 928.779C1111.16 924.461 1099.44 905.681 1103.76 887.045L1128.19 781.601C1131.3 768.148 1141.96 758.303 1154.65 755.489C1142.18 765.733 1134.2 781.257 1134.2 798.555V852.693C1134.2 864.372 1137.84 875.242 1144.04 884.225C1140.12 882.62 1135.5 882.842 1131.61 885.227C1125.12 889.206 1123.08 897.693 1127.06 904.185C1131.04 910.677 1139.53 912.714 1146.02 908.736ZM1079.08 1108.31L1063.36 1094.28C1063.39 1094.25 1063.45 1094.19 1063.53 1094.09C1063.57 1094.04 1063.63 1093.98 1063.68 1093.91C1063.75 1093.84 1063.82 1093.75 1063.9 1093.65C1064.42 1093.03 1065.01 1092.3 1065.65 1091.46C1067.51 1089.06 1069.37 1086.37 1071.09 1083.51C1075.36 1076.44 1078.02 1069.57 1078.42 1063.73C1078.83 1057.65 1076.84 1053.05 1071.38 1049.07C1066.71 1045.66 1064.15 1045.51 1061.44 1047.25C1058.18 1049.35 1054.68 1054.2 1051.57 1060.96C1049.69 1065.02 1048.09 1069.46 1046.78 1073.9C1046.32 1075.46 1045.93 1076.91 1045.61 1078.19C1045.43 1078.93 1045.32 1079.43 1045.27 1079.64L1024.66 1075.27C1024.76 1074.83 1024.92 1074.1 1025.17 1073.13C1025.56 1071.55 1026.02 1069.81 1026.58 1067.94C1028.16 1062.59 1030.1 1057.22 1032.44 1052.14C1037.08 1042.08 1042.72 1034.26 1050.03 1029.55C1060.3 1022.93 1072.29 1023.66 1083.79 1032.05C1095.29 1040.44 1100.32 1052.08 1099.43 1065.17C1098.77 1074.9 1094.97 1084.7 1089.13 1094.39C1086.97 1097.98 1084.66 1101.3 1082.35 1104.31C1080.93 1106.15 1079.8 1107.51 1079.08 1108.31ZM1351.33 862.965C1344.04 865.167 1339.92 872.861 1342.12 880.149C1344.32 887.437 1352.02 891.559 1359.3 889.358C1366.59 887.155 1370.72 879.462 1368.51 872.174C1366.31 864.885 1358.62 860.763 1351.33 862.965ZM1296.28 789.516C1294.07 782.228 1298.2 774.535 1305.49 772.332C1312.77 770.13 1320.47 774.253 1322.67 781.541C1324.87 788.829 1320.75 796.521 1313.46 798.725C1306.17 800.927 1298.48 796.804 1296.28 789.516ZM1418.2 1106.11L1397.17 1104.87C1397.18 1104.82 1397.18 1104.63 1397.19 1104.32C1397.27 1102.08 1397.22 1099.19 1396.98 1095.93C1396.62 1091.24 1395.9 1086.66 1394.76 1082.48C1391.35 1070.05 1385.49 1064.05 1375.38 1064.45C1366.68 1064.79 1364.51 1068.82 1366.09 1080.15C1366.7 1084.57 1367.99 1089.46 1369.75 1094.5C1370.68 1097.14 1371.67 1099.65 1372.67 1101.93C1373.01 1102.71 1373.32 1103.41 1373.6 1104C1373.76 1104.34 1373.86 1104.55 1373.9 1104.62L1355.03 1113.99C1354.66 1113.25 1354.08 1112.01 1353.35 1110.34C1352.17 1107.61 1350.98 1104.62 1349.87 1101.46C1347.68 1095.2 1346.06 1089.01 1345.23 1083.05C1343.89 1073.48 1344.66 1065.03 1348.44 1057.99C1353.3 1048.96 1362.38 1043.88 1374.56 1043.4C1396.17 1042.55 1409.36 1056.05 1415.07 1076.91C1417.76 1086.73 1418.51 1096.68 1418.25 1104.99C1418.23 1105.5 1418.21 1105.87 1418.2 1106.11Z" fill="black"/>
</g>
<g id="Overlay parts">
<path id="Shape_3" opacity="0.601772" fill-rule="evenodd" clip-rule="evenodd" d="M1342.16 880.119C1344.37 887.407 1352.06 891.528 1359.35 889.328C1366.64 887.124 1370.76 879.432 1368.56 872.144C1366.35 864.854 1358.66 860.733 1351.37 862.935C1344.08 865.137 1339.96 872.83 1342.16 880.119ZM1296.32 789.485C1298.52 796.773 1306.21 800.896 1313.5 798.694C1320.79 796.491 1324.91 788.798 1322.71 781.51C1320.51 774.222 1312.82 770.099 1305.53 772.301C1298.24 774.505 1294.12 782.197 1296.32 789.485ZM1127.07 904.267C1131.05 910.759 1139.54 912.797 1146.03 908.818C1152.52 904.84 1154.56 896.353 1150.58 889.861C1146.6 883.37 1138.11 881.332 1131.62 885.31C1125.13 889.288 1123.09 897.775 1127.07 904.267Z" fill="black"/>
</g>
</g>
</g>
<g id="Robot / Head / 1">
<g id="Group 23">
<path id="Fill 1_8" fill-rule="evenodd" clip-rule="evenodd" d="M1165.73 664.646H1146.98C1139.53 664.646 1133.43 658.546 1133.43 651.089C1133.43 643.634 1139.53 637.532 1146.98 637.532H1165.73C1173.19 637.532 1179.29 643.634 1179.29 651.089C1179.29 658.546 1173.19 664.646 1165.73 664.646Z" fill="#19141E"/>
<path id="Stroke 4" d="M1239.03 690.268C1236.2 682.607 1225.47 678.084 1215.06 680.166C1204.64 682.248 1198.5 690.147 1201.33 697.807L1215.6 736.455C1218.43 744.116 1219.38 746.312 1232.23 746.312C1237.67 746.312 1245.97 746.312 1250.66 746.312C1257.37 746.312 1259.43 741.975 1253.31 728.916L1239.03 690.268Z" fill="#19141E"/>
<g id="Face color">
<path id="Face" fill-rule="evenodd" clip-rule="evenodd" d="M1171.56 530.81C1179.61 530.81 1186.14 537.338 1186.14 545.391C1186.14 553.445 1179.61 559.975 1171.56 559.975C1163.5 559.975 1156.97 553.445 1156.97 545.391C1156.97 537.338 1163.5 530.81 1171.56 530.81ZM1281.41 668.318C1281.41 700.459 1255.12 726.756 1222.98 726.756H1217.36C1185.22 726.756 1158.92 700.459 1158.92 668.318V636.776C1158.92 604.635 1185.22 578.338 1217.36 578.338H1222.98C1255.12 578.338 1281.41 604.635 1281.41 636.776V668.318Z" fill="#A39EDA"/>
</g>
<path id="Path_2" d="M1177.42 558.75C1186.98 567.075 1192.42 576.282 1194.06 588.822C1194.36 591.129 1196.48 592.754 1198.79 592.452C1201.09 592.15 1202.72 590.035 1202.42 587.728C1200.52 573.287 1194.33 562.589 1183.87 553.206C1182.33 555.638 1180.08 557.58 1177.42 558.75Z" fill="#19141E"/>
<path id="Fill 12_2" fill-rule="evenodd" clip-rule="evenodd" d="M1201.03 640.875C1200.3 645.04 1203.08 649.011 1207.24 649.747C1211.41 650.483 1215.38 647.704 1216.11 643.539C1216.85 639.375 1214.07 635.402 1209.91 634.666C1205.74 633.931 1201.77 636.71 1201.03 640.875Z" fill="#19141E"/>
<path id="Fill 14_3" fill-rule="evenodd" clip-rule="evenodd" d="M1161.28 641.038C1160.54 645.203 1163.32 649.174 1167.49 649.91C1171.65 650.646 1175.62 647.867 1176.36 643.702C1177.1 639.538 1174.32 635.566 1170.15 634.83C1165.99 634.094 1162.02 636.874 1161.28 641.038Z" fill="#19141E"/>
<g id="Overlay_2">
<path id="Fill 16_2" opacity="0.403971" fill-rule="evenodd" clip-rule="evenodd" d="M1192.05 632.606L1172.72 663.267L1193.52 663.769L1192.05 632.606Z" fill="black"/>
</g>
<path id="Fill 18_2" fill-rule="evenodd" clip-rule="evenodd" d="M1289.59 661.744H1271.4V634.631H1289.59C1297.05 634.631 1303.15 640.733 1303.15 648.188C1303.15 655.644 1297.05 661.744 1289.59 661.744Z" fill="#19141E"/>
<path id="Stroke 21_2" d="M1195.97 678.074C1205.18 679.632 1213.78 674.378 1214.71 668.87" stroke="#19141E" stroke-width="4"/>
</g>
</g>
</g>
</g>
</svg>
