<svg width="87" height="87" viewBox="0 0 87 87" fill="none" xmlns="http://www.w3.org/2000/svg">
<circle cx="43.5" cy="43.5" r="41" stroke="black" stroke-width="5"/>
<path d="M40.2559 48.4746V47.1738C40.2559 46.377 40.3672 45.6738 40.5898 45.0645C40.8125 44.4434 41.1699 43.8574 41.6621 43.3066C42.1543 42.7441 42.8047 42.1699 43.6133 41.584C44.3398 41.0684 44.9199 40.6055 45.3535 40.1953C45.7988 39.7852 46.1211 39.3809 46.3203 38.9824C46.5312 38.5723 46.6367 38.1094 46.6367 37.5938C46.6367 36.832 46.3555 36.252 45.793 35.8535C45.2305 35.4551 44.4453 35.2559 43.4375 35.2559C42.4297 35.2559 41.4277 35.4141 40.4316 35.7305C39.4473 36.0469 38.4453 36.4629 37.4258 36.9785L35.5098 33.1289C36.6816 32.4727 37.9531 31.9453 39.3242 31.5469C40.6953 31.1367 42.1953 30.9316 43.8242 30.9316C46.332 30.9316 48.2715 31.5352 49.6426 32.7422C51.0254 33.9375 51.7168 35.4609 51.7168 37.3125C51.7168 38.2969 51.5586 39.1523 51.2422 39.8789C50.9375 40.5938 50.4688 41.2617 49.8359 41.8828C49.2148 42.4922 48.4355 43.1367 47.498 43.8164C46.7949 44.332 46.2559 44.7656 45.8809 45.1172C45.5059 45.4688 45.248 45.8203 45.1074 46.1719C44.9785 46.5117 44.9141 46.9277 44.9141 47.4199V48.4746H40.2559ZM39.6934 54.4863C39.6934 53.3848 39.9922 52.6113 40.5898 52.166C41.1992 51.7207 41.9316 51.498 42.7871 51.498C43.6191 51.498 44.334 51.7207 44.9316 52.166C45.541 52.6113 45.8457 53.3848 45.8457 54.4863C45.8457 55.541 45.541 56.3027 44.9316 56.7715C44.334 57.2402 43.6191 57.4746 42.7871 57.4746C41.9316 57.4746 41.1992 57.2402 40.5898 56.7715C39.9922 56.3027 39.6934 55.541 39.6934 54.4863Z" fill="black"/>
</svg>
