<svg width="608" height="39" viewBox="0 0 608 39" fill="none" xmlns="http://www.w3.org/2000/svg">
<rect width="608" height="39" fill="#ECEBEB"/>
<rect x="9.7" y="15.7" width="12.6" height="12.6" rx="1.3" fill="#ECEBEB" stroke="black" stroke-width="1.4"/>
<path d="M44.5235 17.9155C45.1069 16.4611 45.3986 15.7339 45.9002 15.7339C46.4018 15.7339 46.6935 16.4611 47.2769 17.9155L47.3041 17.9832C47.6337 18.8049 47.7985 19.2157 48.1344 19.4654C48.4702 19.7151 48.9111 19.7546 49.7929 19.8336L49.9523 19.8479C51.3954 19.9771 52.117 20.0417 52.2714 20.5008C52.4258 20.9599 51.8899 21.4474 50.8182 22.4225L50.4605 22.7479C49.918 23.2415 49.6467 23.4883 49.5203 23.8118C49.4967 23.8721 49.4771 23.9339 49.4616 23.9968C49.3785 24.334 49.4579 24.6921 49.6168 25.4081L49.6662 25.631C49.9582 26.947 50.1042 27.605 49.8493 27.8888C49.7541 27.9948 49.6303 28.0712 49.4927 28.1087C49.1247 28.2091 48.6022 27.7834 47.5573 26.9319C46.8711 26.3727 46.528 26.0932 46.1341 26.0303C45.9792 26.0055 45.8213 26.0055 45.6664 26.0303C45.2725 26.0932 44.9294 26.3727 44.2432 26.9319C43.1982 27.7834 42.6757 28.2091 42.3077 28.1087C42.1702 28.0712 42.0464 27.9948 41.9512 27.8888C41.6963 27.605 41.8423 26.947 42.1342 25.631L42.1837 25.4081C42.3426 24.6921 42.422 24.334 42.3389 23.9968C42.3234 23.9339 42.3038 23.8721 42.2802 23.8118C42.1538 23.4883 41.8825 23.2415 41.34 22.7479L40.9823 22.4225C39.9105 21.4474 39.3747 20.9599 39.5291 20.5008C39.6835 20.0417 40.405 19.9771 41.8482 19.8479L42.0076 19.8336C42.8894 19.7546 43.3302 19.7151 43.6661 19.4654C44.002 19.2157 44.1668 18.8049 44.4964 17.9832L44.5235 17.9155Z" stroke="#33363F" stroke-width="2"/>
<path d="M67.7585 27V18.2727H73.5369V19.794H69.6037V21.8736H73.1534V23.3949H69.6037V27H67.7585ZM78.5312 24.2131V20.4545H80.3466V27H78.6037V25.8111H78.5355C78.3878 26.1946 78.142 26.5028 77.7983 26.7358C77.4574 26.9687 77.0412 27.0852 76.5497 27.0852C76.1122 27.0852 75.7273 26.9858 75.3949 26.7869C75.0625 26.5881 74.8026 26.3054 74.6151 25.9389C74.4304 25.5724 74.3366 25.1335 74.3338 24.6222V20.4545H76.1491V24.2983C76.152 24.6847 76.2557 24.9901 76.4602 25.2145C76.6648 25.4389 76.9389 25.5511 77.2827 25.5511C77.5014 25.5511 77.706 25.5014 77.8963 25.402C78.0866 25.2997 78.2401 25.1491 78.3565 24.9503C78.4759 24.7514 78.5341 24.5057 78.5312 24.2131ZM85.2802 20.4545V21.8182H81.3384V20.4545H85.2802ZM82.2333 18.8864H84.0487V24.9886C84.0487 25.1562 84.0742 25.2869 84.1254 25.3807C84.1765 25.4716 84.2475 25.5355 84.3384 25.5724C84.4322 25.6094 84.5401 25.6278 84.6623 25.6278C84.7475 25.6278 84.8327 25.6207 84.918 25.6065C85.0032 25.5895 85.0685 25.5767 85.114 25.5682L85.3995 26.919C85.3086 26.9474 85.1808 26.9801 85.016 27.017C84.8512 27.0568 84.6509 27.081 84.4151 27.0895C83.9776 27.1065 83.5941 27.0483 83.2646 26.9148C82.9379 26.7812 82.6836 26.5739 82.5018 26.2926C82.32 26.0114 82.2305 25.6562 82.2333 25.2273V18.8864ZM90.6602 24.2131V20.4545H92.4755V27H90.7326V25.8111H90.6644C90.5167 26.1946 90.271 26.5028 89.9272 26.7358C89.5863 26.9687 89.1701 27.0852 88.6786 27.0852C88.2411 27.0852 87.8562 26.9858 87.5238 26.7869C87.1914 26.5881 86.9315 26.3054 86.744 25.9389C86.5593 25.5724 86.4656 25.1335 86.4627 24.6222V20.4545H88.2781V24.2983C88.2809 24.6847 88.3846 24.9901 88.5891 25.2145C88.7937 25.4389 89.0678 25.5511 89.4116 25.5511C89.6303 25.5511 89.8349 25.5014 90.0252 25.402C90.2156 25.2997 90.369 25.1491 90.4854 24.9503C90.6048 24.7514 90.663 24.5057 90.6602 24.2131ZM93.9276 27V20.4545H95.6875V21.5966H95.7557C95.875 21.1903 96.0753 20.8835 96.3565 20.6761C96.6378 20.4659 96.9616 20.3608 97.3281 20.3608C97.419 20.3608 97.517 20.3665 97.6222 20.3778C97.7273 20.3892 97.8196 20.4048 97.8991 20.4247V22.0355C97.8139 22.0099 97.696 21.9872 97.5455 21.9673C97.3949 21.9474 97.2571 21.9375 97.1321 21.9375C96.8651 21.9375 96.6264 21.9957 96.4162 22.1122C96.2088 22.2259 96.044 22.3849 95.9219 22.5895C95.8026 22.794 95.7429 23.0298 95.7429 23.2969V27H93.9276ZM101.516 27.1278C100.843 27.1278 100.263 26.9915 99.7773 26.7188C99.2944 26.4432 98.9222 26.054 98.6609 25.5511C98.3995 25.0455 98.2688 24.4474 98.2688 23.7571C98.2688 23.0838 98.3995 22.4929 98.6609 21.9844C98.9222 21.4759 99.2901 21.0795 99.7646 20.7955C100.242 20.5114 100.801 20.3693 101.444 20.3693C101.875 20.3693 102.277 20.4389 102.65 20.5781C103.025 20.7145 103.351 20.9205 103.63 21.196C103.911 21.4716 104.13 21.8182 104.286 22.2358C104.442 22.6506 104.52 23.1364 104.52 23.6932V24.1918H98.9933V23.0668H102.811C102.811 22.8054 102.755 22.5739 102.641 22.3722C102.527 22.1705 102.37 22.0128 102.168 21.8991C101.969 21.7827 101.738 21.7244 101.473 21.7244C101.198 21.7244 100.953 21.7884 100.74 21.9162C100.53 22.0412 100.365 22.2102 100.246 22.4233C100.127 22.6335 100.066 22.8679 100.063 23.1264V24.196C100.063 24.5199 100.123 24.7997 100.242 25.0355C100.364 25.2713 100.536 25.4531 100.757 25.581C100.979 25.7088 101.242 25.7727 101.546 25.7727C101.748 25.7727 101.932 25.7443 102.1 25.6875C102.267 25.6307 102.411 25.5455 102.53 25.4318C102.65 25.3182 102.74 25.179 102.803 25.0142L104.482 25.125C104.397 25.5284 104.222 25.8807 103.958 26.1818C103.696 26.4801 103.358 26.7131 102.944 26.8807C102.532 27.0455 102.056 27.1278 101.516 27.1278ZM105.739 27V18.2727H111.517V19.794H107.584V21.8736H111.134V23.3949H107.584V27H105.739ZM115.201 27.1278C114.539 27.1278 113.967 26.9872 113.484 26.706C113.004 26.4219 112.633 26.027 112.372 25.5213C112.11 25.0128 111.98 24.4233 111.98 23.7528C111.98 23.0767 112.11 22.4858 112.372 21.9801C112.633 21.4716 113.004 21.0767 113.484 20.7955C113.967 20.5114 114.539 20.3693 115.201 20.3693C115.863 20.3693 116.434 20.5114 116.914 20.7955C117.397 21.0767 117.77 21.4716 118.031 21.9801C118.292 22.4858 118.423 23.0767 118.423 23.7528C118.423 24.4233 118.292 25.0128 118.031 25.5213C117.77 26.027 117.397 26.4219 116.914 26.706C116.434 26.9872 115.863 27.1278 115.201 27.1278ZM115.21 25.7216C115.511 25.7216 115.762 25.6364 115.964 25.4659C116.166 25.2926 116.318 25.0568 116.42 24.7585C116.525 24.4602 116.578 24.1207 116.578 23.7401C116.578 23.3594 116.525 23.0199 116.42 22.7216C116.318 22.4233 116.166 22.1875 115.964 22.0142C115.762 21.8409 115.511 21.7543 115.21 21.7543C114.906 21.7543 114.65 21.8409 114.443 22.0142C114.238 22.1875 114.083 22.4233 113.978 22.7216C113.876 23.0199 113.825 23.3594 113.825 23.7401C113.825 24.1207 113.876 24.4602 113.978 24.7585C114.083 25.0568 114.238 25.2926 114.443 25.4659C114.65 25.6364 114.906 25.7216 115.21 25.7216ZM119.603 27V20.4545H121.363V21.5966H121.431C121.551 21.1903 121.751 20.8835 122.032 20.6761C122.314 20.4659 122.637 20.3608 123.004 20.3608C123.095 20.3608 123.193 20.3665 123.298 20.3778C123.403 20.3892 123.495 20.4048 123.575 20.4247V22.0355C123.49 22.0099 123.372 21.9872 123.221 21.9673C123.071 21.9474 122.933 21.9375 122.808 21.9375C122.541 21.9375 122.302 21.9957 122.092 22.1122C121.885 22.2259 121.72 22.3849 121.598 22.5895C121.478 22.794 121.419 23.0298 121.419 23.2969V27H119.603ZM127.166 27.1278C126.496 27.1278 125.919 26.9858 125.436 26.7017C124.956 26.4148 124.587 26.017 124.328 25.5085C124.072 25 123.945 24.4148 123.945 23.7528C123.945 23.0824 124.074 22.4943 124.332 21.9886C124.594 21.4801 124.964 21.0838 125.445 20.7997C125.925 20.5128 126.496 20.3693 127.158 20.3693C127.729 20.3693 128.229 20.473 128.658 20.6804C129.087 20.8878 129.426 21.179 129.676 21.554C129.926 21.929 130.064 22.3693 130.089 22.875H128.376C128.328 22.5483 128.2 22.2855 127.993 22.0866C127.788 21.8849 127.52 21.7841 127.188 21.7841C126.906 21.7841 126.661 21.8608 126.45 22.0142C126.243 22.1648 126.081 22.3849 125.964 22.6747C125.848 22.9645 125.79 23.3153 125.79 23.7273C125.79 24.1449 125.847 24.5 125.96 24.7926C126.077 25.0852 126.24 25.3082 126.45 25.4616C126.661 25.6151 126.906 25.6918 127.188 25.6918C127.395 25.6918 127.581 25.6491 127.746 25.5639C127.913 25.4787 128.051 25.3551 128.159 25.1932C128.27 25.0284 128.342 24.831 128.376 24.6009H130.089C130.061 25.1009 129.925 25.5412 129.68 25.9219C129.439 26.2997 129.105 26.5952 128.679 26.8082C128.253 27.0213 127.749 27.1278 127.166 27.1278ZM134.235 27.1278C133.561 27.1278 132.982 26.9915 132.496 26.7188C132.013 26.4432 131.641 26.054 131.38 25.5511C131.118 25.0455 130.988 24.4474 130.988 23.7571C130.988 23.0838 131.118 22.4929 131.38 21.9844C131.641 21.4759 132.009 21.0795 132.483 20.7955C132.961 20.5114 133.52 20.3693 134.162 20.3693C134.594 20.3693 134.996 20.4389 135.368 20.5781C135.743 20.7145 136.07 20.9205 136.348 21.196C136.63 21.4716 136.848 21.8182 137.005 22.2358C137.161 22.6506 137.239 23.1364 137.239 23.6932V24.1918H131.712V23.0668H135.53C135.53 22.8054 135.473 22.5739 135.36 22.3722C135.246 22.1705 135.088 22.0128 134.887 21.8991C134.688 21.7827 134.456 21.7244 134.192 21.7244C133.917 21.7244 133.672 21.7884 133.459 21.9162C133.249 22.0412 133.084 22.2102 132.965 22.4233C132.846 22.6335 132.784 22.8679 132.782 23.1264V24.196C132.782 24.5199 132.841 24.7997 132.961 25.0355C133.083 25.2713 133.255 25.4531 133.476 25.581C133.698 25.7088 133.961 25.7727 134.265 25.7727C134.466 25.7727 134.651 25.7443 134.819 25.6875C134.986 25.6307 135.13 25.5455 135.249 25.4318C135.368 25.3182 135.459 25.179 135.522 25.0142L137.201 25.125C137.115 25.5284 136.941 25.8807 136.676 26.1818C136.415 26.4801 136.077 26.7131 135.662 26.8807C135.25 27.0455 134.775 27.1278 134.235 27.1278Z" fill="black"/>
<path d="M158.604 18.2727V27H156.759V18.2727H158.604ZM161.903 23.2159V27H160.088V20.4545H161.818V21.6094H161.895C162.039 21.2287 162.282 20.9276 162.623 20.706C162.964 20.4815 163.377 20.3693 163.863 20.3693C164.318 20.3693 164.714 20.4688 165.052 20.6676C165.39 20.8665 165.653 21.1506 165.841 21.5199C166.028 21.8864 166.122 22.3239 166.122 22.8324V27H164.306V23.1562C164.309 22.7557 164.207 22.4432 164 22.2188C163.792 21.9915 163.507 21.8778 163.143 21.8778C162.899 21.8778 162.683 21.9304 162.495 22.0355C162.311 22.1406 162.166 22.294 162.061 22.4957C161.958 22.6946 161.906 22.9347 161.903 23.2159ZM173.42 20.4545L171.132 27H169.087L166.798 20.4545H168.716L170.075 25.1378H170.143L171.499 20.4545H173.42ZM174.349 27V20.4545H176.165V27H174.349ZM175.261 19.6108C174.991 19.6108 174.76 19.5213 174.567 19.3423C174.376 19.1605 174.281 18.9432 174.281 18.6903C174.281 18.4403 174.376 18.2259 174.567 18.0469C174.76 17.8651 174.991 17.7741 175.261 17.7741C175.531 17.7741 175.761 17.8651 175.952 18.0469C176.145 18.2259 176.241 18.4403 176.241 18.6903C176.241 18.9432 176.145 19.1605 175.952 19.3423C175.761 19.5213 175.531 19.6108 175.261 19.6108ZM181.1 20.4545V21.8182H177.159V20.4545H181.1ZM178.054 18.8864H179.869V24.9886C179.869 25.1562 179.895 25.2869 179.946 25.3807C179.997 25.4716 180.068 25.5355 180.159 25.5724C180.252 25.6094 180.36 25.6278 180.483 25.6278C180.568 25.6278 180.653 25.6207 180.738 25.6065C180.824 25.5895 180.889 25.5767 180.934 25.5682L181.22 26.919C181.129 26.9474 181.001 26.9801 180.836 27.017C180.672 27.0568 180.471 27.081 180.235 27.0895C179.798 27.1065 179.414 27.0483 179.085 26.9148C178.758 26.7812 178.504 26.5739 178.322 26.2926C178.14 26.0114 178.051 25.6562 178.054 25.2273V18.8864ZM184.15 27.1236C183.732 27.1236 183.36 27.0511 183.033 26.9062C182.706 26.7585 182.448 26.5412 182.257 26.2543C182.07 25.9645 181.976 25.6037 181.976 25.1719C181.976 24.8082 182.043 24.5028 182.176 24.2557C182.31 24.0085 182.492 23.8097 182.722 23.6591C182.952 23.5085 183.213 23.3949 183.506 23.3182C183.801 23.2415 184.111 23.1875 184.435 23.1562C184.816 23.1165 185.123 23.0795 185.355 23.0455C185.588 23.0085 185.757 22.9545 185.863 22.8835C185.968 22.8125 186.02 22.7074 186.02 22.5682V22.5426C186.02 22.2727 185.935 22.0639 185.765 21.9162C185.597 21.7685 185.358 21.6946 185.049 21.6946C184.722 21.6946 184.462 21.767 184.269 21.9119C184.076 22.054 183.948 22.233 183.885 22.4489L182.206 22.3125C182.292 21.9148 182.459 21.571 182.709 21.2812C182.959 20.9886 183.282 20.7642 183.676 20.608C184.074 20.4489 184.534 20.3693 185.057 20.3693C185.421 20.3693 185.769 20.4119 186.101 20.4972C186.436 20.5824 186.733 20.7145 186.992 20.8935C187.253 21.0724 187.459 21.3026 187.61 21.5838C187.76 21.8622 187.836 22.196 187.836 22.5852V27H186.114V26.0923H186.063C185.958 26.2969 185.817 26.4773 185.641 26.6335C185.465 26.7869 185.253 26.9077 185.006 26.9957C184.759 27.081 184.473 27.1236 184.15 27.1236ZM184.669 25.8707C184.936 25.8707 185.172 25.8182 185.377 25.7131C185.581 25.6051 185.742 25.4602 185.858 25.2784C185.975 25.0966 186.033 24.8906 186.033 24.6605V23.9659C185.976 24.0028 185.898 24.0369 185.799 24.0682C185.702 24.0966 185.593 24.1236 185.471 24.1491C185.348 24.1719 185.226 24.1932 185.104 24.2131C184.982 24.2301 184.871 24.2457 184.772 24.2599C184.559 24.2912 184.373 24.3409 184.213 24.4091C184.054 24.4773 183.931 24.5696 183.843 24.6861C183.755 24.7997 183.711 24.9418 183.711 25.1122C183.711 25.3594 183.8 25.5483 183.979 25.679C184.161 25.8068 184.391 25.8707 184.669 25.8707ZM192.725 20.4545V21.8182H188.784V20.4545H192.725ZM189.679 18.8864H191.494V24.9886C191.494 25.1562 191.52 25.2869 191.571 25.3807C191.622 25.4716 191.693 25.5355 191.784 25.5724C191.877 25.6094 191.985 25.6278 192.108 25.6278C192.193 25.6278 192.278 25.6207 192.363 25.6065C192.449 25.5895 192.514 25.5767 192.559 25.5682L192.845 26.919C192.754 26.9474 192.626 26.9801 192.461 27.017C192.297 27.0568 192.096 27.081 191.86 27.0895C191.423 27.1065 191.039 27.0483 190.71 26.9148C190.383 26.7812 190.129 26.5739 189.947 26.2926C189.765 26.0114 189.676 25.6562 189.679 25.2273V18.8864ZM193.908 27V20.4545H195.723V27H193.908ZM194.82 19.6108C194.55 19.6108 194.319 19.5213 194.125 19.3423C193.935 19.1605 193.84 18.9432 193.84 18.6903C193.84 18.4403 193.935 18.2259 194.125 18.0469C194.319 17.8651 194.55 17.7741 194.82 17.7741C195.09 17.7741 195.32 17.8651 195.51 18.0469C195.703 18.2259 195.8 18.4403 195.8 18.6903C195.8 18.9432 195.703 19.1605 195.51 19.3423C195.32 19.5213 195.09 19.6108 194.82 19.6108ZM200.135 27.1278C199.473 27.1278 198.901 26.9872 198.418 26.706C197.938 26.4219 197.567 26.027 197.305 25.5213C197.044 25.0128 196.913 24.4233 196.913 23.7528C196.913 23.0767 197.044 22.4858 197.305 21.9801C197.567 21.4716 197.938 21.0767 198.418 20.7955C198.901 20.5114 199.473 20.3693 200.135 20.3693C200.797 20.3693 201.368 20.5114 201.848 20.7955C202.331 21.0767 202.703 21.4716 202.964 21.9801C203.226 22.4858 203.357 23.0767 203.357 23.7528C203.357 24.4233 203.226 25.0128 202.964 25.5213C202.703 26.027 202.331 26.4219 201.848 26.706C201.368 26.9872 200.797 27.1278 200.135 27.1278ZM200.143 25.7216C200.445 25.7216 200.696 25.6364 200.898 25.4659C201.099 25.2926 201.251 25.0568 201.354 24.7585C201.459 24.4602 201.511 24.1207 201.511 23.7401C201.511 23.3594 201.459 23.0199 201.354 22.7216C201.251 22.4233 201.099 22.1875 200.898 22.0142C200.696 21.8409 200.445 21.7543 200.143 21.7543C199.839 21.7543 199.584 21.8409 199.376 22.0142C199.172 22.1875 199.017 22.4233 198.912 22.7216C198.81 23.0199 198.759 23.3594 198.759 23.7401C198.759 24.1207 198.81 24.4602 198.912 24.7585C199.017 25.0568 199.172 25.2926 199.376 25.4659C199.584 25.6364 199.839 25.7216 200.143 25.7216ZM206.352 23.2159V27H204.537V20.4545H206.267V21.6094H206.344C206.489 21.2287 206.732 20.9276 207.072 20.706C207.413 20.4815 207.827 20.3693 208.312 20.3693C208.767 20.3693 209.163 20.4688 209.501 20.6676C209.839 20.8665 210.102 21.1506 210.29 21.5199C210.477 21.8864 210.571 22.3239 210.571 22.8324V27H208.756V23.1562C208.759 22.7557 208.656 22.4432 208.449 22.2188C208.241 21.9915 207.956 21.8778 207.592 21.8778C207.348 21.8778 207.132 21.9304 206.945 22.0355C206.76 22.1406 206.615 22.294 206.51 22.4957C206.408 22.6946 206.355 22.9347 206.352 23.2159ZM213.063 27.1108C212.782 27.1108 212.54 27.0114 212.338 26.8125C212.14 26.6108 212.04 26.3693 212.04 26.0881C212.04 25.8097 212.14 25.571 212.338 25.3722C212.54 25.1733 212.782 25.0739 213.063 25.0739C213.336 25.0739 213.574 25.1733 213.779 25.3722C213.983 25.571 214.086 25.8097 214.086 26.0881C214.086 26.2756 214.037 26.4474 213.941 26.6037C213.847 26.7571 213.723 26.8807 213.57 26.9744C213.417 27.0653 213.248 27.1108 213.063 27.1108ZM213.063 22.5256C212.782 22.5256 212.54 22.4261 212.338 22.2273C212.14 22.0284 212.04 21.7869 212.04 21.5028C212.04 21.2244 212.14 20.9872 212.338 20.7912C212.54 20.5923 212.782 20.4929 213.063 20.4929C213.336 20.4929 213.574 20.5923 213.779 20.7912C213.983 20.9872 214.086 21.2244 214.086 21.5028C214.086 21.6932 214.037 21.8665 213.941 22.0227C213.847 22.1761 213.723 22.2983 213.57 22.3892C213.417 22.4801 213.248 22.5256 213.063 22.5256ZM221.481 27H218.387V18.2727H221.507C222.385 18.2727 223.14 18.4474 223.774 18.7969C224.407 19.1435 224.895 19.642 225.235 20.2926C225.579 20.9432 225.751 21.7216 225.751 22.6278C225.751 23.5369 225.579 24.3182 225.235 24.9716C224.895 25.625 224.404 26.1264 223.765 26.4759C223.129 26.8253 222.368 27 221.481 27ZM220.233 25.419H221.404C221.95 25.419 222.409 25.3224 222.781 25.1293C223.156 24.9332 223.437 24.6307 223.625 24.2216C223.815 23.8097 223.91 23.2784 223.91 22.6278C223.91 21.983 223.815 21.456 223.625 21.0469C223.437 20.6378 223.157 20.3366 222.785 20.1435C222.413 19.9503 221.954 19.8537 221.409 19.8537H220.233V25.419ZM230.067 27.1278C229.393 27.1278 228.814 26.9915 228.328 26.7188C227.845 26.4432 227.473 26.054 227.212 25.5511C226.95 25.0455 226.82 24.4474 226.82 23.7571C226.82 23.0838 226.95 22.4929 227.212 21.9844C227.473 21.4759 227.841 21.0795 228.315 20.7955C228.793 20.5114 229.352 20.3693 229.994 20.3693C230.426 20.3693 230.828 20.4389 231.2 20.5781C231.575 20.7145 231.902 20.9205 232.18 21.196C232.462 21.4716 232.68 21.8182 232.837 22.2358C232.993 22.6506 233.071 23.1364 233.071 23.6932V24.1918H227.544V23.0668H231.362C231.362 22.8054 231.305 22.5739 231.192 22.3722C231.078 22.1705 230.92 22.0128 230.719 21.8991C230.52 21.7827 230.288 21.7244 230.024 21.7244C229.749 21.7244 229.504 21.7884 229.291 21.9162C229.081 22.0412 228.916 22.2102 228.797 22.4233C228.678 22.6335 228.616 22.8679 228.614 23.1264V24.196C228.614 24.5199 228.673 24.7997 228.793 25.0355C228.915 25.2713 229.087 25.4531 229.308 25.581C229.53 25.7088 229.793 25.7727 230.097 25.7727C230.298 25.7727 230.483 25.7443 230.651 25.6875C230.818 25.6307 230.962 25.5455 231.081 25.4318C231.2 25.3182 231.291 25.179 231.354 25.0142L233.033 25.125C232.947 25.5284 232.773 25.8807 232.509 26.1818C232.247 26.4801 231.909 26.7131 231.494 26.8807C231.082 27.0455 230.607 27.1278 230.067 27.1278ZM234.256 27V20.4545H235.986V21.6094H236.062C236.199 21.2259 236.426 20.9233 236.744 20.7017C237.062 20.4801 237.443 20.3693 237.886 20.3693C238.335 20.3693 238.717 20.4815 239.033 20.706C239.348 20.9276 239.558 21.2287 239.663 21.6094H239.732C239.865 21.2344 240.107 20.9347 240.456 20.7102C240.808 20.483 241.224 20.3693 241.705 20.3693C242.315 20.3693 242.811 20.5639 243.192 20.9531C243.575 21.3395 243.767 21.8878 243.767 22.598V27H241.956V22.956C241.956 22.5923 241.859 22.3196 241.666 22.1378C241.473 21.956 241.232 21.8651 240.942 21.8651C240.612 21.8651 240.355 21.9702 240.17 22.1804C239.986 22.3878 239.893 22.6619 239.893 23.0028V27H238.134V22.9176C238.134 22.5966 238.041 22.3409 237.857 22.1506C237.675 21.9602 237.435 21.8651 237.136 21.8651C236.935 21.8651 236.753 21.9162 236.591 22.0185C236.432 22.1179 236.305 22.2585 236.212 22.4403C236.118 22.6193 236.071 22.8295 236.071 23.071V27H234.256ZM248.158 27.1278C247.496 27.1278 246.924 26.9872 246.441 26.706C245.961 26.4219 245.59 26.027 245.329 25.5213C245.067 25.0128 244.937 24.4233 244.937 23.7528C244.937 23.0767 245.067 22.4858 245.329 21.9801C245.59 21.4716 245.961 21.0767 246.441 20.7955C246.924 20.5114 247.496 20.3693 248.158 20.3693C248.82 20.3693 249.391 20.5114 249.871 20.7955C250.354 21.0767 250.727 21.4716 250.988 21.9801C251.249 22.4858 251.38 23.0767 251.38 23.7528C251.38 24.4233 251.249 25.0128 250.988 25.5213C250.727 26.027 250.354 26.4219 249.871 26.706C249.391 26.9872 248.82 27.1278 248.158 27.1278ZM248.167 25.7216C248.468 25.7216 248.719 25.6364 248.921 25.4659C249.123 25.2926 249.275 25.0568 249.377 24.7585C249.482 24.4602 249.535 24.1207 249.535 23.7401C249.535 23.3594 249.482 23.0199 249.377 22.7216C249.275 22.4233 249.123 22.1875 248.921 22.0142C248.719 21.8409 248.468 21.7543 248.167 21.7543C247.863 21.7543 247.607 21.8409 247.4 22.0142C247.195 22.1875 247.04 22.4233 246.935 22.7216C246.833 23.0199 246.782 23.3594 246.782 23.7401C246.782 24.1207 246.833 24.4602 246.935 24.7585C247.04 25.0568 247.195 25.2926 247.4 25.4659C247.607 25.6364 247.863 25.7216 248.167 25.7216ZM255.372 27V18.2727H258.815C259.477 18.2727 260.041 18.3991 260.507 18.652C260.973 18.902 261.328 19.25 261.572 19.696C261.819 20.1392 261.943 20.6506 261.943 21.2301C261.943 21.8097 261.818 22.321 261.568 22.7642C261.318 23.2074 260.956 23.5526 260.481 23.7997C260.01 24.0469 259.439 24.1705 258.768 24.1705H256.574V22.6918H258.47C258.825 22.6918 259.118 22.6307 259.348 22.5085C259.581 22.3835 259.754 22.2116 259.868 21.9929C259.984 21.7713 260.042 21.517 260.042 21.2301C260.042 20.9403 259.984 20.6875 259.868 20.4716C259.754 20.2528 259.581 20.0838 259.348 19.9645C259.115 19.8423 258.819 19.7812 258.461 19.7812H257.217V27H255.372ZM263.107 27V20.4545H264.867V21.5966H264.935C265.055 21.1903 265.255 20.8835 265.536 20.6761C265.817 20.4659 266.141 20.3608 266.508 20.3608C266.599 20.3608 266.697 20.3665 266.802 20.3778C266.907 20.3892 266.999 20.4048 267.079 20.4247V22.0355C266.994 22.0099 266.876 21.9872 266.725 21.9673C266.575 21.9474 266.437 21.9375 266.312 21.9375C266.045 21.9375 265.806 21.9957 265.596 22.1122C265.388 22.2259 265.224 22.3849 265.102 22.5895C264.982 22.794 264.923 23.0298 264.923 23.2969V27H263.107ZM270.696 27.1278C270.022 27.1278 269.443 26.9915 268.957 26.7188C268.474 26.4432 268.102 26.054 267.841 25.5511C267.579 25.0455 267.449 24.4474 267.449 23.7571C267.449 23.0838 267.579 22.4929 267.841 21.9844C268.102 21.4759 268.47 21.0795 268.944 20.7955C269.422 20.5114 269.981 20.3693 270.623 20.3693C271.055 20.3693 271.457 20.4389 271.829 20.5781C272.204 20.7145 272.531 20.9205 272.809 21.196C273.091 21.4716 273.309 21.8182 273.466 22.2358C273.622 22.6506 273.7 23.1364 273.7 23.6932V24.1918H268.173V23.0668H271.991C271.991 22.8054 271.934 22.5739 271.821 22.3722C271.707 22.1705 271.549 22.0128 271.348 21.8991C271.149 21.7827 270.917 21.7244 270.653 21.7244C270.377 21.7244 270.133 21.7884 269.92 21.9162C269.71 22.0412 269.545 22.2102 269.426 22.4233C269.306 22.6335 269.245 22.8679 269.243 23.1264V24.196C269.243 24.5199 269.302 24.7997 269.422 25.0355C269.544 25.2713 269.716 25.4531 269.937 25.581C270.159 25.7088 270.422 25.7727 270.725 25.7727C270.927 25.7727 271.112 25.7443 271.279 25.6875C271.447 25.6307 271.591 25.5455 271.71 25.4318C271.829 25.3182 271.92 25.179 271.983 25.0142L273.662 25.125C273.576 25.5284 273.402 25.8807 273.137 26.1818C272.876 26.4801 272.538 26.7131 272.123 26.8807C271.711 27.0455 271.235 27.1278 270.696 27.1278ZM274.885 29.4545V20.4545H276.674V21.554H276.755C276.835 21.3778 276.95 21.1989 277.1 21.017C277.254 20.8324 277.453 20.679 277.697 20.5568C277.944 20.4318 278.251 20.3693 278.618 20.3693C279.095 20.3693 279.535 20.4943 279.939 20.7443C280.342 20.9915 280.664 21.3651 280.906 21.8651C281.147 22.3622 281.268 22.9858 281.268 23.7358C281.268 24.4659 281.15 25.0824 280.914 25.5852C280.681 26.0852 280.363 26.4645 279.96 26.723C279.559 26.9787 279.11 27.1065 278.613 27.1065C278.261 27.1065 277.961 27.0483 277.714 26.9318C277.47 26.8153 277.27 26.669 277.113 26.4929C276.957 26.3139 276.838 26.1335 276.755 25.9517H276.7V29.4545H274.885ZM276.662 23.7273C276.662 24.1165 276.716 24.456 276.824 24.7457C276.931 25.0355 277.088 25.2614 277.292 25.4233C277.497 25.5824 277.745 25.6619 278.038 25.6619C278.333 25.6619 278.583 25.581 278.788 25.419C278.993 25.2543 279.147 25.027 279.252 24.7372C279.36 24.4446 279.414 24.108 279.414 23.7273C279.414 23.3494 279.362 23.017 279.257 22.7301C279.152 22.4432 278.997 22.2187 278.792 22.0568C278.588 21.8949 278.336 21.8139 278.038 21.8139C277.743 21.8139 277.493 21.892 277.288 22.0483C277.086 22.2045 276.931 22.4261 276.824 22.7131C276.716 23 276.662 23.3381 276.662 23.7273ZM290.859 28.2955C289.953 28.2955 289.146 28.1719 288.439 27.9247C287.732 27.6804 287.134 27.3224 286.645 26.8509C286.156 26.3764 285.784 25.7983 285.528 25.1165C285.273 24.4347 285.145 23.6591 285.145 22.7898C285.145 21.9318 285.273 21.1534 285.528 20.4545C285.787 19.7557 286.163 19.1562 286.658 18.6562C287.152 18.1534 287.756 17.767 288.469 17.4972C289.185 17.2273 290 17.0923 290.915 17.0923C291.761 17.0923 292.517 17.2159 293.182 17.4631C293.849 17.7102 294.415 18.0625 294.878 18.5199C295.344 18.9744 295.697 19.5156 295.939 20.1435C296.183 20.7685 296.304 21.4602 296.301 22.2188C296.304 22.7415 296.259 23.2216 296.165 23.6591C296.071 24.0966 295.923 24.4787 295.722 24.8054C295.523 25.1293 295.261 25.3864 294.938 25.5767C294.614 25.7642 294.222 25.8707 293.761 25.8963C293.432 25.9219 293.165 25.8977 292.96 25.8239C292.756 25.75 292.599 25.6406 292.491 25.4957C292.386 25.348 292.318 25.1761 292.287 24.9801H292.236C292.168 25.1506 292.034 25.3054 291.835 25.4446C291.636 25.581 291.393 25.6875 291.107 25.7642C290.822 25.8381 290.52 25.8651 290.199 25.8452C289.864 25.8253 289.545 25.7472 289.244 25.6108C288.946 25.4744 288.68 25.277 288.447 25.0185C288.217 24.7599 288.036 24.4403 287.902 24.0597C287.771 23.679 287.705 23.2386 287.702 22.7386C287.705 22.2443 287.774 21.8139 287.911 21.4474C288.05 21.081 288.233 20.7727 288.46 20.5227C288.69 20.2727 288.946 20.0767 289.227 19.9347C289.509 19.7926 289.791 19.7017 290.075 19.6619C290.396 19.6136 290.7 19.6136 290.987 19.6619C291.274 19.7102 291.516 19.7884 291.712 19.8963C291.911 20.0043 292.034 20.1207 292.082 20.2457H292.142V19.7685H293.476V23.9276C293.479 24.1236 293.523 24.2756 293.608 24.3835C293.693 24.4915 293.808 24.5455 293.953 24.5455C294.149 24.5455 294.313 24.4588 294.443 24.2855C294.577 24.1122 294.676 23.8466 294.741 23.4886C294.81 23.1307 294.844 22.6747 294.844 22.1207C294.844 21.5866 294.773 21.1179 294.631 20.7145C294.491 20.3082 294.295 19.9631 294.043 19.679C293.793 19.392 293.501 19.1591 293.169 18.9801C292.837 18.8011 292.476 18.6705 292.087 18.5881C291.7 18.5057 291.303 18.4645 290.893 18.4645C290.186 18.4645 289.568 18.5724 289.04 18.7884C288.511 19.0014 288.071 19.3011 287.719 19.6875C287.366 20.0739 287.102 20.527 286.926 21.0469C286.753 21.5639 286.665 22.1278 286.662 22.7386C286.665 23.4119 286.759 24.0085 286.943 24.5284C287.131 25.0455 287.406 25.4801 287.77 25.8324C288.134 26.1847 288.582 26.4517 289.116 26.6335C289.651 26.8153 290.264 26.9062 290.957 26.9062C291.284 26.9062 291.604 26.8835 291.916 26.8381C292.229 26.7898 292.511 26.733 292.764 26.6676C293.017 26.5994 293.22 26.5341 293.374 26.4716L293.795 27.7074C293.616 27.8097 293.374 27.9048 293.067 27.9929C292.763 28.0838 292.419 28.1563 292.036 28.2102C291.655 28.267 291.263 28.2955 290.859 28.2955ZM290.663 24.4432C291.01 24.4432 291.286 24.3764 291.49 24.2429C291.697 24.1094 291.845 23.9119 291.933 23.6506C292.024 23.3864 292.067 23.0611 292.061 22.6747C292.058 22.3338 292.014 22.0455 291.929 21.8097C291.847 21.571 291.703 21.3906 291.499 21.2685C291.297 21.1435 291.016 21.081 290.655 21.081C290.339 21.081 290.071 21.1477 289.849 21.2812C289.631 21.4148 289.463 21.6023 289.347 21.8438C289.233 22.0824 289.175 22.3636 289.172 22.6875C289.175 22.9886 289.223 23.2741 289.317 23.544C289.411 23.8111 289.565 24.0284 289.781 24.196C289.997 24.3608 290.291 24.4432 290.663 24.4432ZM302.395 27L299.898 18.2727H301.913L303.358 24.3366H303.43L305.024 18.2727H306.75L308.339 24.3494H308.416L309.861 18.2727H311.876L309.379 27H307.581L305.919 21.294H305.851L304.193 27H302.395ZM315.11 27.1278C314.436 27.1278 313.857 26.9915 313.371 26.7188C312.888 26.4432 312.516 26.054 312.255 25.5511C311.993 25.0455 311.863 24.4474 311.863 23.7571C311.863 23.0838 311.993 22.4929 312.255 21.9844C312.516 21.4759 312.884 21.0795 313.358 20.7955C313.836 20.5114 314.395 20.3693 315.037 20.3693C315.469 20.3693 315.871 20.4389 316.243 20.5781C316.618 20.7145 316.945 20.9205 317.223 21.196C317.505 21.4716 317.723 21.8182 317.88 22.2358C318.036 22.6506 318.114 23.1364 318.114 23.6932V24.1918H312.587V23.0668H316.405C316.405 22.8054 316.348 22.5739 316.235 22.3722C316.121 22.1705 315.963 22.0128 315.762 21.8991C315.563 21.7827 315.331 21.7244 315.067 21.7244C314.792 21.7244 314.547 21.7884 314.334 21.9162C314.124 22.0412 313.959 22.2102 313.84 22.4233C313.721 22.6335 313.659 22.8679 313.657 23.1264V24.196C313.657 24.5199 313.716 24.7997 313.836 25.0355C313.958 25.2713 314.13 25.4531 314.351 25.581C314.573 25.7088 314.836 25.7727 315.14 25.7727C315.341 25.7727 315.526 25.7443 315.694 25.6875C315.861 25.6307 316.005 25.5455 316.124 25.4318C316.243 25.3182 316.334 25.179 316.397 25.0142L318.076 25.125C317.99 25.5284 317.816 25.8807 317.551 26.1818C317.29 26.4801 316.952 26.7131 316.537 26.8807C316.125 27.0455 315.65 27.1278 315.11 27.1278ZM321.711 27.1065C321.213 27.1065 320.763 26.9787 320.36 26.723C319.959 26.4645 319.641 26.0852 319.405 25.5852C319.172 25.0824 319.056 24.4659 319.056 23.7358C319.056 22.9858 319.176 22.3622 319.418 21.8651C319.659 21.3651 319.98 20.9915 320.381 20.7443C320.784 20.4943 321.226 20.3693 321.706 20.3693C322.073 20.3693 322.378 20.4318 322.623 20.5568C322.87 20.679 323.069 20.8324 323.219 21.017C323.373 21.1989 323.489 21.3778 323.569 21.554H323.624V18.2727H325.435V27H323.645V25.9517H323.569C323.483 26.1335 323.363 26.3139 323.206 26.4929C323.053 26.669 322.853 26.8153 322.605 26.9318C322.361 27.0483 322.063 27.1065 321.711 27.1065ZM322.286 25.6619C322.578 25.6619 322.826 25.5824 323.027 25.4233C323.232 25.2614 323.388 25.0355 323.496 24.7457C323.607 24.456 323.662 24.1165 323.662 23.7273C323.662 23.3381 323.608 23 323.5 22.7131C323.392 22.4261 323.236 22.2045 323.032 22.0483C322.827 21.892 322.578 21.8139 322.286 21.8139C321.988 21.8139 321.736 21.8949 321.532 22.0568C321.327 22.2187 321.172 22.4432 321.067 22.7301C320.962 23.017 320.909 23.3494 320.909 23.7273C320.909 24.108 320.962 24.4446 321.067 24.7372C321.175 25.027 321.33 25.2543 321.532 25.419C321.736 25.581 321.988 25.6619 322.286 25.6619ZM331.243 27H329.266L332.279 18.2727H334.657L337.665 27H335.688L333.502 20.267H333.434L331.243 27ZM331.12 23.5696H335.79V25.0099H331.12V23.5696ZM342.879 24.2131V20.4545H344.694V27H342.951V25.8111H342.883C342.735 26.1946 342.49 26.5028 342.146 26.7358C341.805 26.9687 341.389 27.0852 340.897 27.0852C340.46 27.0852 340.075 26.9858 339.743 26.7869C339.41 26.5881 339.15 26.3054 338.963 25.9389C338.778 25.5724 338.684 25.1335 338.681 24.6222V20.4545H340.497V24.2983C340.5 24.6847 340.603 24.9901 340.808 25.2145C341.012 25.4389 341.287 25.5511 341.63 25.5511C341.849 25.5511 342.054 25.5014 342.244 25.402C342.434 25.2997 342.588 25.1491 342.704 24.9503C342.824 24.7514 342.882 24.5057 342.879 24.2131ZM349.095 29.5909C348.507 29.5909 348.003 29.5099 347.582 29.348C347.165 29.1889 346.832 28.9716 346.585 28.696C346.338 28.4205 346.178 28.1108 346.104 27.767L347.783 27.5412C347.834 27.6719 347.915 27.794 348.026 27.9077C348.136 28.0213 348.283 28.1122 348.464 28.1804C348.649 28.2514 348.874 28.2869 349.138 28.2869C349.533 28.2869 349.858 28.1903 350.114 27.9972C350.372 27.8068 350.501 27.4872 350.501 27.0384V25.8409H350.425C350.345 26.0227 350.226 26.1946 350.067 26.3565C349.908 26.5185 349.703 26.6506 349.453 26.7528C349.203 26.8551 348.905 26.9062 348.558 26.9062C348.067 26.9062 347.619 26.7926 347.216 26.5653C346.815 26.3352 346.496 25.9844 346.257 25.5128C346.021 25.0384 345.903 24.4389 345.903 23.7145C345.903 22.973 346.024 22.3537 346.266 21.8565C346.507 21.3594 346.828 20.9872 347.229 20.7401C347.632 20.4929 348.074 20.3693 348.554 20.3693C348.92 20.3693 349.227 20.4318 349.474 20.5568C349.722 20.679 349.92 20.8324 350.071 21.017C350.224 21.1989 350.342 21.3778 350.425 21.554H350.493V20.4545H352.295V27.0639C352.295 27.6207 352.159 28.0866 351.886 28.4616C351.614 28.8366 351.236 29.1179 350.753 29.3054C350.273 29.4957 349.72 29.5909 349.095 29.5909ZM349.134 25.5426C349.426 25.5426 349.673 25.4702 349.875 25.3253C350.08 25.1776 350.236 24.9673 350.344 24.6946C350.455 24.419 350.51 24.0895 350.51 23.706C350.51 23.3224 350.456 22.9901 350.348 22.7088C350.24 22.4247 350.084 22.2045 349.879 22.0483C349.675 21.892 349.426 21.8139 349.134 21.8139C348.835 21.8139 348.584 21.8949 348.379 22.0568C348.175 22.2159 348.02 22.4375 347.915 22.7216C347.81 23.0057 347.757 23.3338 347.757 23.706C347.757 24.0838 347.81 24.4105 347.915 24.6861C348.023 24.9588 348.178 25.1705 348.379 25.321C348.584 25.4687 348.835 25.5426 349.134 25.5426ZM360.297 18.2727V27H358.452V20.0241H358.401L356.402 21.277V19.6406L358.563 18.2727H360.297ZM362.717 27L366.335 19.8409V19.7812H362.12V18.2727H368.244V19.8026L364.621 27H362.717ZM369.998 25.8068L369.951 26.2756C369.914 26.6506 369.843 27.0241 369.738 27.3963C369.636 27.7713 369.528 28.1108 369.414 28.4148C369.304 28.7188 369.214 28.9574 369.146 29.1307H367.97C368.012 28.9631 368.071 28.7287 368.145 28.4276C368.218 28.1293 368.288 27.794 368.353 27.4219C368.419 27.0497 368.46 26.6705 368.477 26.2841L368.498 25.8068H369.998ZM374.008 27V25.6705L377.115 22.794C377.379 22.5384 377.6 22.3082 377.779 22.1037C377.961 21.8991 378.099 21.6989 378.193 21.5028C378.287 21.304 378.333 21.0895 378.333 20.8594C378.333 20.6037 378.275 20.3835 378.159 20.1989C378.042 20.0114 377.883 19.8679 377.681 19.7685C377.48 19.6662 377.251 19.6151 376.995 19.6151C376.728 19.6151 376.495 19.669 376.297 19.777C376.098 19.8849 375.944 20.0398 375.836 20.2415C375.728 20.4432 375.674 20.6832 375.674 20.9616H373.923C373.923 20.3906 374.052 19.8949 374.311 19.4744C374.569 19.054 374.931 18.7287 375.397 18.4986C375.863 18.2685 376.4 18.1534 377.008 18.1534C377.633 18.1534 378.177 18.2642 378.64 18.4858C379.106 18.7045 379.468 19.0085 379.727 19.3977C379.985 19.7869 380.115 20.233 380.115 20.7358C380.115 21.0653 380.049 21.3906 379.919 21.7116C379.791 22.0327 379.562 22.3892 379.233 22.7812C378.903 23.1705 378.439 23.6378 377.839 24.1832L376.565 25.4318V25.4915H380.23V27H374.008ZM384.989 27.1918C384.256 27.1889 383.625 27.0085 383.097 26.6506C382.571 26.2926 382.166 25.7741 381.882 25.0952C381.601 24.4162 381.462 23.5994 381.464 22.6449C381.464 21.6932 381.605 20.8821 381.886 20.2116C382.17 19.5412 382.575 19.0312 383.101 18.6818C383.629 18.3295 384.259 18.1534 384.989 18.1534C385.719 18.1534 386.347 18.3295 386.872 18.6818C387.401 19.0341 387.807 19.5455 388.091 20.2159C388.375 20.8835 388.516 21.6932 388.513 22.6449C388.513 23.6023 388.371 24.4205 388.087 25.0994C387.805 25.7784 387.402 26.2969 386.876 26.6548C386.351 27.0128 385.722 27.1918 384.989 27.1918ZM384.989 25.6619C385.489 25.6619 385.888 25.4105 386.186 24.9077C386.484 24.4048 386.632 23.6506 386.629 22.6449C386.629 21.983 386.561 21.4318 386.425 20.9915C386.291 20.5511 386.101 20.2202 385.854 19.9986C385.609 19.777 385.321 19.6662 384.989 19.6662C384.491 19.6662 384.094 19.9148 383.795 20.4119C383.497 20.9091 383.347 21.6534 383.344 22.6449C383.344 23.3153 383.411 23.875 383.544 24.3239C383.68 24.7699 383.872 25.1051 384.119 25.3295C384.366 25.5511 384.656 25.6619 384.989 25.6619ZM389.828 27V25.6705L392.935 22.794C393.199 22.5384 393.421 22.3082 393.6 22.1037C393.782 21.8991 393.919 21.6989 394.013 21.5028C394.107 21.304 394.154 21.0895 394.154 20.8594C394.154 20.6037 394.096 20.3835 393.979 20.1989C393.863 20.0114 393.703 19.8679 393.502 19.7685C393.3 19.6662 393.071 19.6151 392.816 19.6151C392.549 19.6151 392.316 19.669 392.117 19.777C391.918 19.8849 391.765 20.0398 391.657 20.2415C391.549 20.4432 391.495 20.6832 391.495 20.9616H389.743C389.743 20.3906 389.873 19.8949 390.131 19.4744C390.39 19.054 390.752 18.7287 391.218 18.4986C391.684 18.2685 392.221 18.1534 392.828 18.1534C393.453 18.1534 393.998 18.2642 394.461 18.4858C394.926 18.7045 395.289 19.0085 395.547 19.3977C395.806 19.7869 395.935 20.233 395.935 20.7358C395.935 21.0653 395.87 21.3906 395.739 21.7116C395.611 22.0327 395.382 22.3892 395.053 22.7812C394.723 23.1705 394.259 23.6378 393.659 24.1832L392.385 25.4318V25.4915H396.05V27H389.828ZM397.387 27V25.6705L400.494 22.794C400.758 22.5384 400.979 22.3082 401.158 22.1037C401.34 21.8991 401.478 21.6989 401.572 21.5028C401.665 21.304 401.712 21.0895 401.712 20.8594C401.712 20.6037 401.654 20.3835 401.538 20.1989C401.421 20.0114 401.262 19.8679 401.06 19.7685C400.859 19.6662 400.63 19.6151 400.374 19.6151C400.107 19.6151 399.874 19.669 399.675 19.777C399.477 19.8849 399.323 20.0398 399.215 20.2415C399.107 20.4432 399.053 20.6832 399.053 20.9616H397.302C397.302 20.3906 397.431 19.8949 397.69 19.4744C397.948 19.054 398.31 18.7287 398.776 18.4986C399.242 18.2685 399.779 18.1534 400.387 18.1534C401.012 18.1534 401.556 18.2642 402.019 18.4858C402.485 18.7045 402.847 19.0085 403.106 19.3977C403.364 19.7869 403.494 20.233 403.494 20.7358C403.494 21.0653 403.428 21.3906 403.298 21.7116C403.17 22.0327 402.941 22.3892 402.612 22.7812C402.282 23.1705 401.817 23.6378 401.218 24.1832L399.944 25.4318V25.4915H403.609V27H397.387ZM411.52 18.2727V27H409.675V20.0241H409.624L407.625 21.277V19.6406L409.786 18.2727H411.52ZM417.391 18.2727V27H415.546V20.0241H415.495L413.496 21.277V19.6406L415.657 18.2727H417.391ZM421.349 27.1236C420.931 27.1236 420.559 27.0511 420.232 26.9062C419.906 26.7585 419.647 26.5412 419.457 26.2543C419.269 25.9645 419.175 25.6037 419.175 25.1719C419.175 24.8082 419.242 24.5028 419.376 24.2557C419.509 24.0085 419.691 23.8097 419.921 23.6591C420.151 23.5085 420.413 23.3949 420.705 23.3182C421.001 23.2415 421.31 23.1875 421.634 23.1562C422.015 23.1165 422.322 23.0795 422.555 23.0455C422.788 23.0085 422.957 22.9545 423.062 22.8835C423.167 22.8125 423.219 22.7074 423.219 22.5682V22.5426C423.219 22.2727 423.134 22.0639 422.964 21.9162C422.796 21.7685 422.558 21.6946 422.248 21.6946C421.921 21.6946 421.661 21.767 421.468 21.9119C421.275 22.054 421.147 22.233 421.085 22.4489L419.406 22.3125C419.491 21.9148 419.658 21.571 419.908 21.2812C420.158 20.9886 420.481 20.7642 420.876 20.608C421.273 20.4489 421.734 20.3693 422.256 20.3693C422.62 20.3693 422.968 20.4119 423.3 20.4972C423.636 20.5824 423.933 20.7145 424.191 20.8935C424.452 21.0724 424.658 21.3026 424.809 21.5838C424.96 21.8622 425.035 22.196 425.035 22.5852V27H423.313V26.0923H423.262C423.157 26.2969 423.016 26.4773 422.84 26.6335C422.664 26.7869 422.452 26.9077 422.205 26.9957C421.958 27.081 421.673 27.1236 421.349 27.1236ZM421.869 25.8707C422.136 25.8707 422.371 25.8182 422.576 25.7131C422.781 25.6051 422.941 25.4602 423.058 25.2784C423.174 25.0966 423.232 24.8906 423.232 24.6605V23.9659C423.175 24.0028 423.097 24.0369 422.998 24.0682C422.901 24.0966 422.792 24.1236 422.67 24.1491C422.548 24.1719 422.425 24.1932 422.303 24.2131C422.181 24.2301 422.07 24.2457 421.971 24.2599C421.758 24.2912 421.572 24.3409 421.413 24.4091C421.254 24.4773 421.13 24.5696 421.042 24.6861C420.954 24.7997 420.91 24.9418 420.91 25.1122C420.91 25.3594 420.999 25.5483 421.178 25.679C421.36 25.8068 421.59 25.8707 421.869 25.8707ZM426.443 27V20.4545H428.173V21.6094H428.25C428.386 21.2259 428.614 20.9233 428.932 20.7017C429.25 20.4801 429.631 20.3693 430.074 20.3693C430.523 20.3693 430.905 20.4815 431.22 20.706C431.536 20.9276 431.746 21.2287 431.851 21.6094H431.919C432.053 21.2344 432.294 20.9347 432.643 20.7102C432.996 20.483 433.412 20.3693 433.892 20.3693C434.503 20.3693 434.999 20.5639 435.379 20.9531C435.763 21.3395 435.955 21.8878 435.955 22.598V27H434.143V22.956C434.143 22.5923 434.047 22.3196 433.854 22.1378C433.661 21.956 433.419 21.8651 433.129 21.8651C432.8 21.8651 432.543 21.9702 432.358 22.1804C432.173 22.3878 432.081 22.6619 432.081 23.0028V27H430.321V22.9176C430.321 22.5966 430.229 22.3409 430.044 22.1506C429.862 21.9602 429.622 21.8651 429.324 21.8651C429.122 21.8651 428.94 21.9162 428.778 22.0185C428.619 22.1179 428.493 22.2585 428.399 22.4403C428.305 22.6193 428.259 22.8295 428.259 23.071V27H426.443ZM441.467 22.696V24.1364H437.487V22.696H441.467ZM446.793 18.2727V27H444.948V20.0241H444.897L442.898 21.277V19.6406L445.059 18.2727H446.793ZM452.664 18.2727V27H450.819V20.0241H450.768L448.77 21.277V19.6406L450.93 18.2727H452.664ZM456.622 27.1236C456.205 27.1236 455.832 27.0511 455.506 26.9062C455.179 26.7585 454.92 26.5412 454.73 26.2543C454.543 25.9645 454.449 25.6037 454.449 25.1719C454.449 24.8082 454.516 24.5028 454.649 24.2557C454.783 24.0085 454.964 23.8097 455.195 23.6591C455.425 23.5085 455.686 23.3949 455.979 23.3182C456.274 23.2415 456.584 23.1875 456.908 23.1562C457.288 23.1165 457.595 23.0795 457.828 23.0455C458.061 23.0085 458.23 22.9545 458.335 22.8835C458.44 22.8125 458.493 22.7074 458.493 22.5682V22.5426C458.493 22.2727 458.408 22.0639 458.237 21.9162C458.07 21.7685 457.831 21.6946 457.521 21.6946C457.195 21.6946 456.935 21.767 456.741 21.9119C456.548 22.054 456.42 22.233 456.358 22.4489L454.679 22.3125C454.764 21.9148 454.932 21.571 455.182 21.2812C455.432 20.9886 455.754 20.7642 456.149 20.608C456.547 20.4489 457.007 20.3693 457.53 20.3693C457.893 20.3693 458.241 20.4119 458.574 20.4972C458.909 20.5824 459.206 20.7145 459.464 20.8935C459.726 21.0724 459.932 21.3026 460.082 21.5838C460.233 21.8622 460.308 22.196 460.308 22.5852V27H458.587V26.0923H458.536C458.43 26.2969 458.29 26.4773 458.114 26.6335C457.938 26.7869 457.726 26.9077 457.479 26.9957C457.232 27.081 456.946 27.1236 456.622 27.1236ZM457.142 25.8707C457.409 25.8707 457.645 25.8182 457.849 25.7131C458.054 25.6051 458.214 25.4602 458.331 25.2784C458.447 25.0966 458.506 24.8906 458.506 24.6605V23.9659C458.449 24.0028 458.371 24.0369 458.271 24.0682C458.175 24.0966 458.065 24.1236 457.943 24.1491C457.821 24.1719 457.699 24.1932 457.577 24.2131C457.455 24.2301 457.344 24.2457 457.244 24.2599C457.031 24.2912 456.845 24.3409 456.686 24.4091C456.527 24.4773 456.403 24.5696 456.315 24.6861C456.227 24.7997 456.183 24.9418 456.183 25.1122C456.183 25.3594 456.273 25.5483 456.452 25.679C456.634 25.8068 456.864 25.8707 457.142 25.8707ZM461.717 27V20.4545H463.447V21.6094H463.523C463.66 21.2259 463.887 20.9233 464.205 20.7017C464.523 20.4801 464.904 20.3693 465.347 20.3693C465.796 20.3693 466.178 20.4815 466.494 20.706C466.809 20.9276 467.019 21.2287 467.124 21.6094H467.192C467.326 21.2344 467.567 20.9347 467.917 20.7102C468.269 20.483 468.685 20.3693 469.165 20.3693C469.776 20.3693 470.272 20.5639 470.653 20.9531C471.036 21.3395 471.228 21.8878 471.228 22.598V27H469.417V22.956C469.417 22.5923 469.32 22.3196 469.127 22.1378C468.934 21.956 468.692 21.8651 468.403 21.8651C468.073 21.8651 467.816 21.9702 467.631 22.1804C467.447 22.3878 467.354 22.6619 467.354 23.0028V27H465.594V22.9176C465.594 22.5966 465.502 22.3409 465.317 22.1506C465.136 21.9602 464.896 21.8651 464.597 21.8651C464.396 21.8651 464.214 21.9162 464.052 22.0185C463.893 22.1179 463.766 22.2585 463.673 22.4403C463.579 22.6193 463.532 22.8295 463.532 23.071V27H461.717ZM473.062 23.5014C473.062 22.4446 473.203 21.4716 473.484 20.5824C473.768 19.6932 474.202 18.8693 474.784 18.1108H476.518C476.297 18.392 476.091 18.7358 475.901 19.142C475.71 19.5455 475.544 19.9886 475.402 20.4716C475.26 20.9545 475.149 21.4545 475.07 21.9716C474.99 22.4858 474.95 22.9957 474.95 23.5014C474.95 24.1747 475.018 24.8551 475.155 25.5426C475.294 26.2273 475.482 26.8636 475.717 27.4517C475.956 28.0398 476.223 28.5213 476.518 28.8963H474.784C474.202 28.1378 473.768 27.3139 473.484 26.4247C473.203 25.5355 473.062 24.5611 473.062 23.5014ZM477.606 27V18.2727H481.049C481.711 18.2727 482.275 18.3991 482.741 18.652C483.207 18.902 483.562 19.25 483.806 19.696C484.054 20.1392 484.177 20.6506 484.177 21.2301C484.177 21.8097 484.052 22.321 483.802 22.7642C483.552 23.2074 483.19 23.5526 482.716 23.7997C482.244 24.0469 481.673 24.1705 481.002 24.1705H478.808V22.6918H480.704C481.059 22.6918 481.352 22.6307 481.582 22.5085C481.815 22.3835 481.988 22.2116 482.102 21.9929C482.218 21.7713 482.277 21.517 482.277 21.2301C482.277 20.9403 482.218 20.6875 482.102 20.4716C481.988 20.2528 481.815 20.0838 481.582 19.9645C481.349 19.8423 481.054 19.7812 480.696 19.7812H479.451V27H477.606ZM488.469 27H485.376V18.2727H488.495C489.373 18.2727 490.129 18.4474 490.762 18.7969C491.396 19.1435 491.883 19.642 492.224 20.2926C492.567 20.9432 492.739 21.7216 492.739 22.6278C492.739 23.5369 492.567 24.3182 492.224 24.9716C491.883 25.625 491.393 26.1264 490.754 26.4759C490.117 26.8253 489.356 27 488.469 27ZM487.221 25.419H488.393C488.938 25.419 489.397 25.3224 489.769 25.1293C490.144 24.9332 490.425 24.6307 490.613 24.2216C490.803 23.8097 490.898 23.2784 490.898 22.6278C490.898 21.983 490.803 21.456 490.613 21.0469C490.425 20.6378 490.146 20.3366 489.773 20.1435C489.401 19.9503 488.942 19.8537 488.397 19.8537H487.221V25.419ZM493.375 19.794V18.2727H500.543V19.794H497.871V27H496.047V19.794H493.375ZM504.749 23.5014C504.749 24.5611 504.607 25.5355 504.323 26.4247C504.042 27.3139 503.61 28.1378 503.027 28.8963H501.293C501.515 28.6151 501.721 28.2713 501.911 27.8651C502.101 27.4588 502.267 27.0156 502.409 26.5355C502.551 26.0526 502.662 25.5526 502.742 25.0355C502.821 24.5185 502.861 24.0071 502.861 23.5014C502.861 22.8281 502.792 22.1491 502.652 21.4645C502.516 20.777 502.328 20.1406 502.09 19.5554C501.854 18.9673 501.588 18.4858 501.293 18.1108H503.027C503.61 18.8693 504.042 19.6932 504.323 20.5824C504.607 21.4716 504.749 22.4446 504.749 23.5014Z" fill="#1E1E1E"/>
<path d="M562.263 26H560.286L563.298 17.2727H565.676L568.685 26H566.707L564.521 19.267H564.453L562.263 26ZM562.139 22.5696H566.81V24.0099H562.139V22.5696ZM573.898 23.2131V19.4545H575.714V26H573.971V24.8111H573.903C573.755 25.1946 573.509 25.5028 573.165 25.7358C572.825 25.9687 572.408 26.0852 571.917 26.0852C571.479 26.0852 571.094 25.9858 570.762 25.7869C570.43 25.5881 570.17 25.3054 569.982 24.9389C569.798 24.5724 569.704 24.1335 569.701 23.6222V19.4545H571.516V23.2983C571.519 23.6847 571.623 23.9901 571.827 24.2145C572.032 24.4389 572.306 24.5511 572.65 24.5511C572.869 24.5511 573.073 24.5014 573.263 24.402C573.454 24.2997 573.607 24.1491 573.724 23.9503C573.843 23.7514 573.901 23.5057 573.898 23.2131ZM580.115 28.5909C579.527 28.5909 579.022 28.5099 578.602 28.348C578.184 28.1889 577.852 27.9716 577.605 27.696C577.358 27.4205 577.197 27.1108 577.123 26.767L578.802 26.5412C578.853 26.6719 578.934 26.794 579.045 26.9077C579.156 27.0213 579.302 27.1122 579.484 27.1804C579.669 27.2514 579.893 27.2869 580.157 27.2869C580.552 27.2869 580.877 27.1903 581.133 26.9972C581.392 26.8068 581.521 26.4872 581.521 26.0384V24.8409H581.444C581.365 25.0227 581.245 25.1946 581.086 25.3565C580.927 25.5185 580.723 25.6506 580.473 25.7528C580.223 25.8551 579.924 25.9062 579.578 25.9062C579.086 25.9062 578.639 25.7926 578.235 25.5653C577.835 25.3352 577.515 24.9844 577.277 24.5128C577.041 24.0384 576.923 23.4389 576.923 22.7145C576.923 21.973 577.044 21.3537 577.285 20.8565C577.527 20.3594 577.848 19.9872 578.248 19.7401C578.652 19.4929 579.093 19.3693 579.574 19.3693C579.94 19.3693 580.247 19.4318 580.494 19.5568C580.741 19.679 580.94 19.8324 581.091 20.017C581.244 20.1989 581.362 20.3778 581.444 20.554H581.512V19.4545H583.315V26.0639C583.315 26.6207 583.179 27.0866 582.906 27.4616C582.633 27.8366 582.255 28.1179 581.772 28.3054C581.292 28.4957 580.74 28.5909 580.115 28.5909ZM580.153 24.5426C580.446 24.5426 580.693 24.4702 580.895 24.3253C581.099 24.1776 581.255 23.9673 581.363 23.6946C581.474 23.419 581.529 23.0895 581.529 22.706C581.529 22.3224 581.475 21.9901 581.368 21.7088C581.26 21.4247 581.103 21.2045 580.899 21.0483C580.694 20.892 580.446 20.8139 580.153 20.8139C579.855 20.8139 579.603 20.8949 579.399 21.0568C579.194 21.2159 579.039 21.4375 578.934 21.7216C578.829 22.0057 578.777 22.3338 578.777 22.706C578.777 23.0838 578.829 23.4105 578.934 23.6861C579.042 23.9588 579.197 24.1705 579.399 24.321C579.603 24.4687 579.855 24.5426 580.153 24.5426ZM591.317 17.2727V26H589.472V19.0241H589.42L587.422 20.277V18.6406L589.582 17.2727H591.317ZM593.736 26L597.354 18.8409V18.7812H593.14V17.2727H599.263V18.8026L595.641 26H593.736Z" fill="black"/>
<line y1="38.5" x2="608" y2="38.5" stroke="#BBBBBB"/>
</svg>
