<svg width="119" height="42" viewBox="0 0 119 42" fill="none" xmlns="http://www.w3.org/2000/svg">
<path d="M0 5C0 2.23858 2.23858 0 5 0H114C116.761 0 119 2.23858 119 5V37C119 39.7614 116.761 42 114 42H5C2.23858 42 0 39.7614 0 37V5Z" fill="#B7B5E4"/>
<path d="M40.4091 26.1429V14.5065H44.3409C45.25 14.5065 45.9962 14.6618 46.5795 14.9724C47.1629 15.2792 47.5947 15.7016 47.875 16.2395C48.1553 16.7774 48.2955 17.3891 48.2955 18.0747C48.2955 18.7603 48.1553 19.3683 47.875 19.8986C47.5947 20.4289 47.1648 20.8455 46.5852 21.1486C46.0057 21.4478 45.2652 21.5974 44.3636 21.5974H41.1818V20.3247H44.3182C44.9394 20.3247 45.4394 20.2338 45.8182 20.052C46.2008 19.8702 46.4773 19.6126 46.6477 19.2792C46.822 18.9421 46.9091 18.5406 46.9091 18.0747C46.9091 17.6088 46.822 17.2016 46.6477 16.8531C46.4735 16.5046 46.1951 16.2357 45.8125 16.0463C45.4299 15.8531 44.9242 15.7565 44.2955 15.7565H41.8182V26.1429H40.4091ZM45.8864 20.9156L48.75 26.1429H47.1136L44.2955 20.9156H45.8864ZM54.027 26.3247C53.1861 26.3247 52.4607 26.1391 51.8509 25.7679C51.2448 25.3929 50.777 24.8702 50.4474 24.1997C50.1217 23.5255 49.9588 22.7414 49.9588 21.8474C49.9588 20.9535 50.1217 20.1656 50.4474 19.4838C50.777 18.7982 51.2353 18.2641 51.8224 17.8815C52.4134 17.4952 53.1027 17.302 53.8906 17.302C54.3452 17.302 54.794 17.3777 55.2372 17.5292C55.6804 17.6808 56.0838 17.927 56.4474 18.2679C56.8111 18.605 57.1009 19.052 57.3168 19.6088C57.5327 20.1656 57.6406 20.8512 57.6406 21.6656V22.2338H50.9134V21.0747H56.277C56.277 20.5823 56.1785 20.1429 55.9815 19.7565C55.7884 19.3702 55.5118 19.0652 55.152 18.8417C54.7959 18.6183 54.3755 18.5065 53.8906 18.5065C53.3565 18.5065 52.8944 18.6391 52.5043 18.9042C52.1179 19.1656 51.8205 19.5065 51.6122 19.927C51.4039 20.3474 51.2997 20.7982 51.2997 21.2792V22.052C51.2997 22.7111 51.4134 23.2698 51.6406 23.7281C51.8717 24.1827 52.1918 24.5292 52.6009 24.7679C53.0099 25.0027 53.4853 25.1202 54.027 25.1202C54.3793 25.1202 54.6974 25.0709 54.9815 24.9724C55.2694 24.8702 55.5175 24.7186 55.7259 24.5179C55.9342 24.3133 56.0952 24.0595 56.2088 23.7565L57.5043 24.1202C57.3679 24.5595 57.1387 24.9459 56.8168 25.2792C56.4948 25.6088 56.0971 25.8664 55.6236 26.052C55.1501 26.2338 54.6179 26.3247 54.027 26.3247ZM59.6804 29.4156V17.4156H60.9759V18.802H61.1349C61.2334 18.6505 61.3698 18.4573 61.544 18.2224C61.7221 17.9838 61.9759 17.7717 62.3054 17.5861C62.6387 17.3967 63.0895 17.302 63.6577 17.302C64.3925 17.302 65.0402 17.4857 65.6009 17.8531C66.1615 18.2205 66.599 18.7414 66.9134 19.4156C67.2277 20.0899 67.3849 20.8853 67.3849 21.802C67.3849 22.7262 67.2277 23.5274 66.9134 24.2054C66.599 24.8796 66.1634 25.4024 65.6065 25.7736C65.0497 26.141 64.4077 26.3247 63.6804 26.3247C63.1198 26.3247 62.6709 26.2319 62.3338 26.0463C61.9967 25.8569 61.7372 25.6429 61.5554 25.4042C61.3736 25.1618 61.2334 24.9611 61.1349 24.802H61.0213V29.4156H59.6804ZM60.9986 21.7792C60.9986 22.4383 61.0952 23.0198 61.2884 23.5236C61.4815 24.0236 61.7637 24.4156 62.1349 24.6997C62.5062 24.98 62.9607 25.1202 63.4986 25.1202C64.0592 25.1202 64.527 24.9724 64.902 24.677C65.2808 24.3777 65.5649 23.9762 65.7543 23.4724C65.9474 22.9649 66.044 22.4005 66.044 21.7792C66.044 21.1656 65.9493 20.6126 65.7599 20.1202C65.5743 19.6239 65.2921 19.2319 64.9134 18.944C64.5384 18.6524 64.0668 18.5065 63.4986 18.5065C62.9531 18.5065 62.4948 18.6448 62.1236 18.9213C61.7524 19.194 61.4721 19.5766 61.2827 20.069C61.0933 20.5577 60.9986 21.1277 60.9986 21.7792ZM70.7713 14.5065V26.1429H69.4304V14.5065H70.7713ZM74.0909 29.4156C73.8636 29.4156 73.661 29.3967 73.483 29.3588C73.3049 29.3247 73.1818 29.2906 73.1136 29.2565L73.4545 28.0747C73.7803 28.158 74.0682 28.1883 74.3182 28.1656C74.5682 28.1429 74.7898 28.0311 74.983 27.8304C75.1799 27.6334 75.3598 27.3133 75.5227 26.8702L75.7727 26.1883L72.5455 17.4156H74L76.4091 24.3702H76.5L78.9091 17.4156H80.3636L76.6591 27.4156C76.4924 27.8664 76.286 28.2395 76.0398 28.5349C75.7936 28.8342 75.5076 29.0558 75.1818 29.1997C74.8598 29.3436 74.4962 29.4156 74.0909 29.4156Z" fill="black"/>
</svg>
