<svg width="59" height="20" viewBox="0 0 59 20" fill="none" xmlns="http://www.w3.org/2000/svg">
<path d="M0 5C0 2.23858 2.23858 0 5 0H54C56.7614 0 59 2.23858 59 5V15C59 17.7614 56.7614 20 54 20H5C2.23858 20 0 17.7614 0 15V5Z" fill="#B7B5E4"/>
<path d="M19.3643 11V7H20.7158C21.0283 7 21.2848 7.05339 21.4854 7.16016C21.6859 7.26562 21.8343 7.41081 21.9307 7.5957C22.027 7.7806 22.0752 7.99089 22.0752 8.22656C22.0752 8.46224 22.027 8.67122 21.9307 8.85352C21.8343 9.03581 21.6865 9.17904 21.4873 9.2832C21.2881 9.38607 21.0335 9.4375 20.7236 9.4375H19.6299V9H20.708C20.9215 9 21.0934 8.96875 21.2236 8.90625C21.3551 8.84375 21.4502 8.75521 21.5088 8.64062C21.5687 8.52474 21.5986 8.38672 21.5986 8.22656C21.5986 8.06641 21.5687 7.92643 21.5088 7.80664C21.4489 7.68685 21.3532 7.5944 21.2217 7.5293C21.0902 7.46289 20.9163 7.42969 20.7002 7.42969H19.8486V11H19.3643ZM21.2471 9.20312L22.2314 11H21.6689L20.7002 9.20312H21.2471ZM24.0454 11.0625C23.7563 11.0625 23.507 10.9987 23.2974 10.8711C23.089 10.7422 22.9282 10.5625 22.8149 10.332C22.703 10.1003 22.647 9.83073 22.647 9.52344C22.647 9.21615 22.703 8.94531 22.8149 8.71094C22.9282 8.47526 23.0858 8.29167 23.2876 8.16016C23.4907 8.02734 23.7277 7.96094 23.9985 7.96094C24.1548 7.96094 24.3091 7.98698 24.4614 8.03906C24.6138 8.09115 24.7524 8.17578 24.8774 8.29297C25.0024 8.40885 25.1021 8.5625 25.1763 8.75391C25.2505 8.94531 25.2876 9.18099 25.2876 9.46094V9.65625H22.9751V9.25781H24.8188C24.8188 9.08854 24.785 8.9375 24.7173 8.80469C24.6509 8.67187 24.5558 8.56706 24.4321 8.49023C24.3097 8.41341 24.1652 8.375 23.9985 8.375C23.8149 8.375 23.6561 8.42057 23.522 8.51172C23.3892 8.60156 23.2869 8.71875 23.2153 8.86328C23.1437 9.00781 23.1079 9.16276 23.1079 9.32812V9.59375C23.1079 9.82031 23.147 10.0124 23.2251 10.1699C23.3045 10.3262 23.4146 10.4453 23.5552 10.5273C23.6958 10.6081 23.8592 10.6484 24.0454 10.6484C24.1665 10.6484 24.2759 10.6315 24.3735 10.5977C24.4725 10.5625 24.5578 10.5104 24.6294 10.4414C24.701 10.3711 24.7563 10.2839 24.7954 10.1797L25.2407 10.3047C25.1938 10.4557 25.1151 10.5885 25.0044 10.7031C24.8937 10.8164 24.757 10.9049 24.5942 10.9687C24.4315 11.0313 24.2485 11.0625 24.0454 11.0625ZM25.9888 12.125V8H26.4341V8.47656H26.4888C26.5226 8.42448 26.5695 8.35807 26.6294 8.27734C26.6906 8.19531 26.7778 8.1224 26.8911 8.05859C27.0057 7.99349 27.1606 7.96094 27.356 7.96094C27.6086 7.96094 27.8312 8.02409 28.0239 8.15039C28.2166 8.27669 28.367 8.45573 28.4751 8.6875C28.5832 8.91927 28.6372 9.19271 28.6372 9.50781C28.6372 9.82552 28.5832 10.1009 28.4751 10.334C28.367 10.5658 28.2173 10.7454 28.0259 10.873C27.8345 10.9993 27.6138 11.0625 27.3638 11.0625C27.1711 11.0625 27.0168 11.0306 26.9009 10.9668C26.785 10.9017 26.6958 10.8281 26.6333 10.7461C26.5708 10.6628 26.5226 10.5937 26.4888 10.5391H26.4497V12.125H25.9888ZM26.4419 9.5C26.4419 9.72656 26.4751 9.92643 26.5415 10.0996C26.6079 10.2715 26.7049 10.4062 26.8325 10.5039C26.9601 10.6003 27.1164 10.6484 27.3013 10.6484C27.494 10.6484 27.6548 10.5977 27.7837 10.4961C27.9139 10.3932 28.0116 10.2552 28.0767 10.082C28.1431 9.90755 28.1763 9.71354 28.1763 9.5C28.1763 9.28906 28.1437 9.09896 28.0786 8.92969C28.0148 8.75911 27.9178 8.62435 27.7876 8.52539C27.6587 8.42513 27.4966 8.375 27.3013 8.375C27.1138 8.375 26.9562 8.42253 26.8286 8.51758C26.701 8.61133 26.6047 8.74284 26.5396 8.91211C26.4744 9.08008 26.4419 9.27604 26.4419 9.5ZM30.5591 11.0625C30.2882 11.0625 30.0506 10.998 29.8462 10.8691C29.6431 10.7402 29.4842 10.5599 29.3696 10.3281C29.2563 10.0964 29.1997 9.82552 29.1997 9.51562C29.1997 9.20312 29.2563 8.93034 29.3696 8.69727C29.4842 8.46419 29.6431 8.2832 29.8462 8.1543C30.0506 8.02539 30.2882 7.96094 30.5591 7.96094C30.8299 7.96094 31.0669 8.02539 31.27 8.1543C31.4744 8.2832 31.6333 8.46419 31.7466 8.69727C31.8612 8.93034 31.9185 9.20312 31.9185 9.51562C31.9185 9.82552 31.8612 10.0964 31.7466 10.3281C31.6333 10.5599 31.4744 10.7402 31.27 10.8691C31.0669 10.998 30.8299 11.0625 30.5591 11.0625ZM30.5591 10.6484C30.7648 10.6484 30.9341 10.5957 31.0669 10.4902C31.1997 10.3848 31.298 10.2461 31.3618 10.0742C31.4256 9.90234 31.4575 9.71615 31.4575 9.51562C31.4575 9.3151 31.4256 9.12826 31.3618 8.95508C31.298 8.7819 31.1997 8.64193 31.0669 8.53516C30.9341 8.42839 30.7648 8.375 30.5591 8.375C30.3534 8.375 30.1841 8.42839 30.0513 8.53516C29.9185 8.64193 29.8201 8.7819 29.7563 8.95508C29.6925 9.12826 29.6606 9.3151 29.6606 9.51562C29.6606 9.71615 29.6925 9.90234 29.7563 10.0742C29.8201 10.2461 29.9185 10.3848 30.0513 10.4902C30.1841 10.5957 30.3534 10.6484 30.5591 10.6484ZM32.6221 11V8H33.0674V8.45312H33.0986C33.1533 8.30469 33.2523 8.18424 33.3955 8.0918C33.5387 7.99935 33.7002 7.95312 33.8799 7.95312C33.9137 7.95312 33.9561 7.95378 34.0068 7.95508C34.0576 7.95638 34.096 7.95833 34.1221 7.96094V8.42969C34.1064 8.42578 34.0706 8.41992 34.0146 8.41211C33.96 8.40299 33.902 8.39844 33.8408 8.39844C33.695 8.39844 33.5648 8.42904 33.4502 8.49023C33.3369 8.55013 33.2471 8.63346 33.1807 8.74023C33.1156 8.8457 33.083 8.96615 33.083 9.10156V11H32.6221ZM36.1611 8V8.39062H34.6064V8H36.1611ZM35.0596 7.28125H35.5205V10.1406C35.5205 10.2708 35.5394 10.3685 35.5771 10.4336C35.6162 10.4974 35.6657 10.5404 35.7256 10.5625C35.7868 10.5833 35.8512 10.5937 35.9189 10.5937C35.9697 10.5937 36.0114 10.5911 36.0439 10.5859C36.0765 10.5794 36.1025 10.5742 36.1221 10.5703L36.2158 10.9844C36.1846 10.9961 36.141 11.0078 36.085 11.0195C36.029 11.0326 35.958 11.0391 35.8721 11.0391C35.7419 11.0391 35.6143 11.0111 35.4893 10.9551C35.3656 10.8991 35.2627 10.8138 35.1807 10.6992C35.0999 10.5846 35.0596 10.4401 35.0596 10.2656V7.28125Z" fill="black"/>
</svg>
