<svg width="361" height="460" viewBox="0 0 361 460" fill="none" xmlns="http://www.w3.org/2000/svg">
<rect y="8.38916" width="354.124" height="451.611" fill="#408036" fill-opacity="0.5"/>
<rect x="6.87598" width="354.124" height="451.611" fill="#ECEBEB"/>
<path d="M142.545 39.6797C142.431 39.2822 142.27 38.931 142.064 38.6261C141.857 38.3157 141.603 38.0543 141.304 37.842C141.01 37.6242 140.672 37.4581 140.291 37.3438C139.915 37.2294 139.499 37.1722 139.042 37.1722C138.187 37.1722 137.435 37.3846 136.787 37.8093C136.145 38.234 135.644 38.852 135.284 39.6634C134.925 40.4692 134.745 41.4548 134.745 42.62C134.745 43.7853 134.922 44.7763 135.276 45.593C135.63 46.4098 136.131 47.0333 136.779 47.4634C137.427 47.8881 138.192 48.1005 139.074 48.1005C139.875 48.1005 140.558 47.9589 141.124 47.6758C141.696 47.3872 142.132 46.9815 142.431 46.4588C142.736 45.9361 142.888 45.3181 142.888 44.6048L143.607 44.7109H139.295V42.0483H146.294V44.1555C146.294 45.6257 145.984 46.889 145.363 47.9453C144.743 48.9962 143.888 49.8075 142.799 50.3793C141.71 50.9455 140.463 51.2287 139.058 51.2287C137.49 51.2287 136.112 50.8829 134.925 50.1914C133.738 49.4944 132.812 48.5062 132.148 47.2266C131.489 45.9415 131.16 44.4169 131.16 42.6527C131.16 41.2969 131.356 40.0881 131.748 39.0263C132.145 37.959 132.701 37.0552 133.414 36.3146C134.127 35.5741 134.958 35.0105 135.905 34.6239C136.853 34.2373 137.879 34.044 138.984 34.044C139.932 34.044 140.814 34.1829 141.631 34.4606C142.447 34.7328 143.172 35.1194 143.803 35.6204C144.44 36.1213 144.96 36.7176 145.363 37.4091C145.766 38.0952 146.025 38.852 146.139 39.6797H142.545ZM154.554 51.245C153.285 51.245 152.188 50.9755 151.262 50.4364C150.342 49.8919 149.632 49.1351 149.131 48.1658C148.63 47.1912 148.379 46.0613 148.379 44.7763C148.379 43.4804 148.63 42.3478 149.131 41.3786C149.632 40.4039 150.342 39.647 151.262 39.108C152.188 38.5634 153.285 38.2912 154.554 38.2912C155.823 38.2912 156.917 38.5634 157.837 39.108C158.763 39.647 159.476 40.4039 159.977 41.3786C160.478 42.3478 160.729 43.4804 160.729 44.7763C160.729 46.0613 160.478 47.1912 159.977 48.1658C159.476 49.1351 158.763 49.8919 157.837 50.4364C156.917 50.9755 155.823 51.245 154.554 51.245ZM154.57 48.5497C155.147 48.5497 155.629 48.3864 156.016 48.0597C156.402 47.7275 156.694 47.2756 156.89 46.7038C157.091 46.1321 157.192 45.4814 157.192 44.7518C157.192 44.0221 157.091 43.3714 156.89 42.7997C156.694 42.228 156.402 41.776 156.016 41.4439C155.629 41.1117 155.147 40.9457 154.57 40.9457C153.988 40.9457 153.498 41.1117 153.1 41.4439C152.708 41.776 152.411 42.228 152.21 42.7997C152.014 43.3714 151.916 44.0221 151.916 44.7518C151.916 45.4814 152.014 46.1321 152.21 46.7038C152.411 47.2756 152.708 47.7275 153.1 48.0597C153.498 48.3864 153.988 48.5497 154.57 48.5497ZM168.659 51.245C167.391 51.245 166.293 50.9755 165.368 50.4364C164.448 49.8919 163.737 49.1351 163.236 48.1658C162.735 47.1912 162.485 46.0613 162.485 44.7763C162.485 43.4804 162.735 42.3478 163.236 41.3786C163.737 40.4039 164.448 39.647 165.368 39.108C166.293 38.5634 167.391 38.2912 168.659 38.2912C169.928 38.2912 171.023 38.5634 171.943 39.108C172.868 39.647 173.582 40.4039 174.083 41.3786C174.584 42.3478 174.834 43.4804 174.834 44.7763C174.834 46.0613 174.584 47.1912 174.083 48.1658C173.582 49.1351 172.868 49.8919 171.943 50.4364C171.023 50.9755 169.928 51.245 168.659 51.245ZM168.676 48.5497C169.253 48.5497 169.735 48.3864 170.121 48.0597C170.508 47.7275 170.799 47.2756 170.995 46.7038C171.197 46.1321 171.297 45.4814 171.297 44.7518C171.297 44.0221 171.197 43.3714 170.995 42.7997C170.799 42.228 170.508 41.776 170.121 41.4439C169.735 41.1117 169.253 40.9457 168.676 40.9457C168.093 40.9457 167.603 41.1117 167.206 41.4439C166.813 41.776 166.517 42.228 166.315 42.7997C166.119 43.3714 166.021 44.0221 166.021 44.7518C166.021 45.4814 166.119 46.1321 166.315 46.7038C166.517 47.2756 166.813 47.7275 167.206 48.0597C167.603 48.3864 168.093 48.5497 168.676 48.5497ZM181.719 51.2042C180.766 51.2042 179.903 50.9592 179.13 50.4691C178.362 49.9736 177.753 49.2467 177.301 48.2884C176.854 47.3246 176.631 46.143 176.631 44.7436C176.631 43.3061 176.862 42.1109 177.325 41.158C177.788 40.1997 178.403 39.4837 179.171 39.0099C179.944 38.5308 180.791 38.2912 181.711 38.2912C182.414 38.2912 182.999 38.411 183.467 38.6506C183.941 38.8847 184.322 39.1787 184.611 39.5327C184.905 39.8812 185.128 40.2242 185.28 40.5618H185.387V34.2727H188.858V51H185.427V48.9908H185.28C185.117 49.3393 184.886 49.685 184.586 50.0281C184.292 50.3656 183.908 50.6461 183.435 50.8693C182.966 51.0926 182.395 51.2042 181.719 51.2042ZM182.822 48.4354C183.383 48.4354 183.857 48.2829 184.243 47.978C184.635 47.6676 184.935 47.2347 185.142 46.6793C185.354 46.1239 185.46 45.4732 185.46 44.7273C185.46 43.9813 185.357 43.3333 185.15 42.7834C184.943 42.2334 184.643 41.8087 184.251 41.5092C183.859 41.2098 183.383 41.06 182.822 41.06C182.25 41.06 181.768 41.2152 181.376 41.5256C180.984 41.8359 180.688 42.2661 180.486 42.8161C180.285 43.366 180.184 44.0031 180.184 44.7273C180.184 45.4569 180.285 46.1022 180.486 46.663C180.693 47.2184 180.99 47.654 181.376 47.9698C181.768 48.2802 182.25 48.4354 182.822 48.4354ZM203.805 34.2727H207.3V45.9361C207.3 47.0142 207.058 47.9508 206.573 48.7457C206.094 49.5407 205.427 50.1533 204.572 50.5835C203.717 51.0136 202.724 51.2287 201.591 51.2287C200.584 51.2287 199.669 51.0517 198.847 50.6978C198.03 50.3384 197.382 49.7939 196.903 49.0643C196.424 48.3292 196.187 47.4062 196.192 46.2955H199.713C199.724 46.7365 199.813 47.1149 199.982 47.4308C200.156 47.7411 200.393 47.9807 200.693 48.1495C200.998 48.3129 201.357 48.3945 201.771 48.3945C202.206 48.3945 202.574 48.302 202.873 48.1168C203.178 47.9263 203.41 47.6486 203.568 47.2837C203.726 46.9189 203.805 46.4697 203.805 45.9361V34.2727ZM215.827 51.245C214.559 51.245 213.461 50.9755 212.536 50.4364C211.616 49.8919 210.905 49.1351 210.404 48.1658C209.903 47.1912 209.653 46.0613 209.653 44.7763C209.653 43.4804 209.903 42.3478 210.404 41.3786C210.905 40.4039 211.616 39.647 212.536 39.108C213.461 38.5634 214.559 38.2912 215.827 38.2912C217.096 38.2912 218.19 38.5634 219.111 39.108C220.036 39.647 220.75 40.4039 221.251 41.3786C221.752 42.3478 222.002 43.4804 222.002 44.7763C222.002 46.0613 221.752 47.1912 221.251 48.1658C220.75 49.1351 220.036 49.8919 219.111 50.4364C218.19 50.9755 217.096 51.245 215.827 51.245ZM215.844 48.5497C216.421 48.5497 216.903 48.3864 217.289 48.0597C217.676 47.7275 217.967 47.2756 218.163 46.7038C218.365 46.1321 218.465 45.4814 218.465 44.7518C218.465 44.0221 218.365 43.3714 218.163 42.7997C217.967 42.228 217.676 41.776 217.289 41.4439C216.903 41.1117 216.421 40.9457 215.844 40.9457C215.261 40.9457 214.771 41.1117 214.373 41.4439C213.981 41.776 213.685 42.228 213.483 42.7997C213.287 43.3714 213.189 44.0221 213.189 44.7518C213.189 45.4814 213.287 46.1321 213.483 46.7038C213.685 47.2756 213.981 47.7275 214.373 48.0597C214.771 48.3864 215.261 48.5497 215.844 48.5497ZM224.33 51V34.2727H227.809V40.5618H227.915C228.068 40.2242 228.288 39.8812 228.577 39.5327C228.871 39.1787 229.252 38.8847 229.72 38.6506C230.194 38.411 230.782 38.2912 231.485 38.2912C232.399 38.2912 233.243 38.5308 234.017 39.0099C234.79 39.4837 235.408 40.1997 235.871 41.158C236.333 42.1109 236.565 43.3061 236.565 44.7436C236.565 46.143 236.339 47.3246 235.887 48.2884C235.44 49.2467 234.831 49.9736 234.057 50.4691C233.29 50.9592 232.429 51.2042 231.476 51.2042C230.801 51.2042 230.227 51.0926 229.753 50.8693C229.285 50.6461 228.901 50.3656 228.601 50.0281C228.302 49.685 228.073 49.3393 227.915 48.9908H227.76V51H224.33ZM227.736 44.7273C227.736 45.4732 227.839 46.1239 228.046 46.6793C228.253 47.2347 228.552 47.6676 228.945 47.978C229.337 48.2829 229.813 48.4354 230.374 48.4354C230.94 48.4354 231.419 48.2802 231.811 47.9698C232.203 47.654 232.5 47.2184 232.702 46.663C232.909 46.1022 233.012 45.4569 233.012 44.7273C233.012 44.0031 232.911 43.366 232.71 42.8161C232.508 42.2661 232.212 41.8359 231.82 41.5256C231.427 41.2152 230.946 41.06 230.374 41.06C229.808 41.06 229.328 41.2098 228.936 41.5092C228.55 41.8087 228.253 42.2334 228.046 42.7834C227.839 43.3333 227.736 43.9813 227.736 44.7273Z" fill="black"/>
<path d="M142.545 39.6797L141.584 39.9561L141.793 40.6797H142.545V39.6797ZM142.064 38.6261L141.231 39.1808L141.236 39.1876L142.064 38.6261ZM141.304 37.842L140.709 38.6455L140.717 38.6517L140.726 38.6577L141.304 37.842ZM140.291 37.3438L140 38.3004L140.004 38.3016L140.291 37.3438ZM136.787 37.8093L136.239 36.9729L136.236 36.9751L136.787 37.8093ZM135.284 39.6634L136.198 40.0706L136.199 40.0684L135.284 39.6634ZM136.779 47.4634L136.226 48.2966L136.231 48.2998L136.779 47.4634ZM141.124 47.6758L141.572 48.5702L141.575 48.5685L141.124 47.6758ZM142.431 46.4588L141.567 45.9549L141.563 45.9617L142.431 46.4588ZM142.888 44.6048L143.035 43.6155L141.888 43.4462V44.6048H142.888ZM143.607 44.7109V45.7109L143.753 43.7217L143.607 44.7109ZM139.295 44.7109H138.295V45.7109H139.295V44.7109ZM139.295 42.0483V41.0483H138.295V42.0483H139.295ZM146.294 42.0483H147.294V41.0483H146.294V42.0483ZM145.363 47.9453L146.224 48.4539L146.225 48.4519L145.363 47.9453ZM142.799 50.3793L143.26 51.2665L143.263 51.2647L142.799 50.3793ZM134.925 50.1914L134.419 51.0538L134.422 51.0555L134.925 50.1914ZM132.148 47.2266L131.258 47.6828L131.261 47.6873L132.148 47.2266ZM131.748 39.0263L130.811 38.6772L130.81 38.6799L131.748 39.0263ZM133.414 36.3146L134.134 37.0084H134.134L133.414 36.3146ZM135.905 34.6239L135.527 33.698L135.905 34.6239ZM141.631 34.4606L141.309 35.4074L141.314 35.4093L141.631 34.4606ZM143.803 35.6204L143.182 36.4039L143.185 36.4065L143.803 35.6204ZM145.363 37.4091L144.499 37.9125L144.501 37.9155L145.363 37.4091ZM146.139 39.6797V40.6797H147.287L147.13 39.5428L146.139 39.6797ZM143.506 39.4032C143.366 38.9165 143.164 38.4668 142.891 38.0646L141.236 39.1876C141.377 39.3951 141.496 39.6479 141.584 39.9561L143.506 39.4032ZM142.896 38.0714C142.622 37.6609 142.283 37.3105 141.882 37.0262L140.726 38.6577C140.924 38.7982 141.091 38.9705 141.232 39.1808L142.896 38.0714ZM141.899 37.0384C141.504 36.746 141.061 36.5306 140.579 36.3859L140.004 38.3016C140.284 38.3856 140.515 38.5023 140.709 38.6455L141.899 37.0384ZM140.582 36.3871C140.098 36.2397 139.582 36.1722 139.042 36.1722V38.1722C139.416 38.1722 139.733 38.2191 140 38.3004L140.582 36.3871ZM139.042 36.1722C138.013 36.1722 137.067 36.4305 136.239 36.973L137.335 38.6457C137.804 38.3386 138.361 38.1722 139.042 38.1722V36.1722ZM136.236 36.9751C135.411 37.5205 134.795 38.2994 134.37 39.2584L136.199 40.0684C136.493 39.4046 136.879 38.9475 137.339 38.6435L136.236 36.9751ZM134.371 39.2561C133.939 40.2242 133.745 41.3573 133.745 42.62H135.745C135.745 41.5523 135.911 40.7143 136.198 40.0706L134.371 39.2561ZM133.745 42.62C133.745 43.8818 133.936 45.016 134.359 45.9906L136.194 45.1954C135.908 44.5365 135.745 43.6888 135.745 42.62H133.745ZM134.359 45.9906C134.778 46.9584 135.395 47.7447 136.226 48.2965L137.332 46.6303C136.868 46.3219 136.482 45.8612 136.194 45.1954L134.359 45.9906ZM136.231 48.2998C137.064 48.8455 138.025 49.1005 139.074 49.1005V47.1005C138.359 47.1005 137.791 46.9307 137.327 46.6271L136.231 48.2998ZM139.074 49.1005C139.99 49.1005 140.835 48.9387 141.572 48.5702L140.677 46.7814C140.281 46.9792 139.759 47.1005 139.074 47.1005V49.1005ZM141.575 48.5685C142.31 48.1975 142.896 47.6594 143.299 46.9559L141.563 45.9617C141.368 46.3037 141.082 46.5768 140.674 46.7831L141.575 48.5685ZM143.295 46.9627C143.704 46.2617 143.888 45.4632 143.888 44.6048H141.888C141.888 45.1729 141.768 45.6105 141.567 45.9549L143.295 46.9627ZM142.742 45.594L143.461 45.7002L143.753 43.7217L143.035 43.6155L142.742 45.594ZM143.607 43.7109H139.295V45.7109H143.607V43.7109ZM140.295 44.7109V42.0483H138.295V44.7109H140.295ZM139.295 43.0483H146.294V41.0483H139.295V43.0483ZM145.294 42.0483V44.1555H147.294V42.0483H145.294ZM145.294 44.1555C145.294 45.4833 145.015 46.564 144.501 47.4387L146.225 48.4519C146.953 47.2139 147.294 45.7681 147.294 44.1555H145.294ZM144.502 47.4367C143.977 48.3264 143.26 49.0078 142.334 49.4939L143.263 51.2647C144.516 50.6073 145.508 49.6661 146.224 48.4539L144.502 47.4367ZM142.337 49.492C141.41 49.9742 140.325 50.2287 139.058 50.2287V52.2287C140.6 52.2287 142.009 51.9169 143.26 51.2665L142.337 49.492ZM139.058 50.2287C137.641 50.2287 136.442 49.9178 135.428 49.3273L134.422 51.0555C135.782 51.848 137.338 52.2287 139.058 52.2287V50.2287ZM135.431 49.3291C134.415 48.732 133.617 47.8866 133.036 46.7658L131.261 47.6873C132.007 49.1257 133.061 50.2568 134.419 51.0537L135.431 49.3291ZM133.038 46.7703C132.466 45.6544 132.16 44.2929 132.16 42.6527H130.16C130.16 44.5409 130.513 46.2287 131.258 47.6828L133.038 46.7703ZM132.16 42.6527C132.16 41.3923 132.342 40.304 132.686 39.3727L130.81 38.6799C130.37 39.8721 130.16 41.2014 130.16 42.6527H132.16ZM132.685 39.3753C133.04 38.4227 133.526 37.6399 134.134 37.0084L132.694 35.6209C131.876 36.4704 131.251 37.4953 130.811 38.6773L132.685 39.3753ZM134.134 37.0084C134.751 36.3677 135.465 35.8835 136.283 35.5498L135.527 33.698C134.45 34.1376 133.503 34.7805 132.694 35.6209L134.134 37.0084ZM136.283 35.5498C137.101 35.216 137.998 35.044 138.984 35.044V33.044C137.76 33.044 136.604 33.2587 135.527 33.698L136.283 35.5498ZM138.984 35.044C139.833 35.044 140.605 35.1682 141.309 35.4074L141.953 33.5138C141.022 33.1976 140.031 33.044 138.984 33.044V35.044ZM141.314 35.4093C142.028 35.6472 142.648 35.9801 143.182 36.4039L144.425 34.8369C143.696 34.2587 142.867 33.8185 141.947 33.5119L141.314 35.4093ZM143.185 36.4065C143.724 36.8305 144.161 37.3313 144.499 37.9125L146.227 36.9056C145.76 36.1039 145.156 35.4121 144.421 34.8343L143.185 36.4065ZM144.501 37.9155C144.834 38.4824 145.051 39.1127 145.149 39.8165L147.13 39.5428C146.998 38.5914 146.698 37.7079 146.226 36.9027L144.501 37.9155ZM146.139 38.6797H142.545V40.6797H146.139V38.6797ZM151.262 50.4364L150.753 51.2971L150.759 51.3006L151.262 50.4364ZM149.131 48.1658L148.241 48.623L148.242 48.625L149.131 48.1658ZM149.131 41.3786L150.019 41.8377L150.02 41.8357L149.131 41.3786ZM151.262 39.108L151.768 39.9708L151.769 39.9699L151.262 39.108ZM157.837 39.108L157.328 39.9686L157.334 39.9721L157.837 39.108ZM159.977 41.3786L159.088 41.8357L159.089 41.8377L159.977 41.3786ZM159.977 48.1658L160.866 48.625L160.867 48.623L159.977 48.1658ZM157.837 50.4364L158.343 51.2993L158.344 51.2984L157.837 50.4364ZM156.016 48.0597L156.661 48.8235L156.668 48.8182L156.016 48.0597ZM156.89 46.7038L155.947 46.3715L155.944 46.3795L156.89 46.7038ZM156.89 42.7997L155.944 43.1241L155.947 43.1321L156.89 42.7997ZM153.1 41.4439L152.459 40.6765L152.454 40.6809L153.1 41.4439ZM152.21 42.7997L151.267 42.4674L151.264 42.4754L152.21 42.7997ZM152.21 46.7038L151.264 47.0282L151.267 47.0362L152.21 46.7038ZM153.1 48.0597L152.454 48.8226L152.459 48.8275L152.465 48.8322L153.1 48.0597ZM154.554 50.245C153.429 50.245 152.512 50.0072 151.766 49.5723L150.759 51.3006C151.864 51.9438 153.141 52.245 154.554 52.245V50.245ZM151.772 49.5758C151.016 49.1289 150.436 48.5127 150.019 47.7067L148.242 48.625C148.828 49.7574 149.668 50.6549 150.753 51.2971L151.772 49.5758ZM150.02 47.7087C149.603 46.898 149.379 45.9297 149.379 44.7763H147.379C147.379 46.1929 147.656 47.4844 148.241 48.623L150.02 47.7087ZM149.379 44.7763C149.379 43.6103 149.604 42.6406 150.019 41.8377L148.242 40.9194C147.655 42.0549 147.379 43.3504 147.379 44.7763H149.379ZM150.02 41.8357C150.437 41.0251 151.016 40.4111 151.768 39.9708L150.757 38.2451C149.668 38.8829 148.826 39.7827 148.241 40.9214L150.02 41.8357ZM151.769 39.9699C152.516 39.531 153.431 39.2912 154.554 39.2912V37.2912C153.139 37.2912 151.86 37.5959 150.755 38.246L151.769 39.9699ZM154.554 39.2912C155.677 39.2912 156.589 39.531 157.328 39.9686L158.347 38.2473C157.246 37.5959 155.968 37.2912 154.554 37.2912V39.2912ZM157.334 39.9721C158.091 40.4128 158.672 41.0266 159.088 41.8357L160.867 40.9214C160.281 39.7811 159.435 38.8812 158.341 38.2438L157.334 39.9721ZM159.089 41.8377C159.504 42.6406 159.729 43.6103 159.729 44.7763H161.729C161.729 43.3504 161.452 42.0549 160.866 40.9194L159.089 41.8377ZM159.729 44.7763C159.729 45.9297 159.504 46.898 159.088 47.7087L160.867 48.623C161.452 47.4844 161.729 46.1929 161.729 44.7763H159.729ZM159.089 47.7067C158.673 48.5112 158.091 49.1272 157.33 49.5745L158.344 51.2984C159.435 50.6566 160.279 49.7589 160.866 48.625L159.089 47.7067ZM157.332 49.5736C156.592 50.0071 155.679 50.245 154.554 50.245V52.245C155.966 52.245 157.242 51.9439 158.343 51.2993L157.332 49.5736ZM154.57 49.5497C155.349 49.5497 156.069 49.3239 156.661 48.8235L155.37 47.2959C155.189 47.4488 154.946 47.5497 154.57 47.5497V49.5497ZM156.668 48.8182C157.212 48.3501 157.593 47.7368 157.836 47.0282L155.944 46.3795C155.795 46.8144 155.593 47.1049 155.364 47.3012L156.668 48.8182ZM157.833 47.0362C158.079 46.3385 158.192 45.5723 158.192 44.7518H156.192C156.192 45.3906 156.104 45.9258 155.947 46.3715L157.833 47.0362ZM158.192 44.7518C158.192 43.9313 158.079 43.1651 157.833 42.4674L155.947 43.1321C156.104 43.5778 156.192 44.113 156.192 44.7518H158.192ZM157.836 42.4754C157.593 41.7668 157.212 41.1534 156.668 40.6854L155.364 42.2024C155.593 42.3987 155.795 42.6892 155.944 43.124L157.836 42.4754ZM156.668 40.6854C156.076 40.1768 155.353 39.9457 154.57 39.9457V41.9457C154.942 41.9457 155.183 42.0467 155.364 42.2024L156.668 40.6854ZM154.57 39.9457C153.784 39.9457 153.059 40.1753 152.459 40.6765L153.741 42.2113C153.936 42.0482 154.191 41.9457 154.57 41.9457V39.9457ZM152.454 40.6809C151.904 41.1469 151.516 41.7586 151.267 42.4674L153.153 43.1321C153.306 42.6974 153.512 42.4052 153.746 42.2069L152.454 40.6809ZM151.264 42.4754C151.025 43.1706 150.916 43.9339 150.916 44.7518H152.916C152.916 44.1103 153.002 43.5723 153.156 43.124L151.264 42.4754ZM150.916 44.7518C150.916 45.5696 151.025 46.333 151.264 47.0282L153.156 46.3795C153.002 45.9312 152.916 45.3932 152.916 44.7518H150.916ZM151.267 47.0362C151.516 47.7449 151.904 48.3567 152.454 48.8226L153.746 47.2967C153.512 47.0983 153.306 46.8062 153.153 46.3715L151.267 47.0362ZM152.465 48.8322C153.065 49.3253 153.788 49.5497 154.57 49.5497V47.5497C154.187 47.5497 153.93 47.4474 153.735 47.2871L152.465 48.8322ZM165.368 50.4364L164.859 51.2971L164.865 51.3006L165.368 50.4364ZM163.236 48.1658L162.347 48.623L162.348 48.625L163.236 48.1658ZM163.236 41.3786L164.124 41.8377L164.125 41.8357L163.236 41.3786ZM165.368 39.108L165.873 39.9708L165.875 39.9699L165.368 39.108ZM171.943 39.108L171.433 39.9686L171.439 39.9721L171.943 39.108ZM174.083 41.3786L173.193 41.8357L173.194 41.8377L174.083 41.3786ZM174.083 48.1658L174.971 48.625L174.972 48.623L174.083 48.1658ZM171.943 50.4364L172.448 51.2993L172.45 51.2984L171.943 50.4364ZM170.121 48.0597L170.767 48.8235L170.773 48.8182L170.121 48.0597ZM170.995 46.7038L170.052 46.3715L170.049 46.3795L170.995 46.7038ZM170.995 42.7997L170.049 43.1241L170.052 43.1321L170.995 42.7997ZM167.206 41.4439L166.564 40.6765L166.559 40.6809L167.206 41.4439ZM166.315 42.7997L165.372 42.4674L165.369 42.4754L166.315 42.7997ZM166.315 46.7038L165.369 47.0282L165.372 47.0362L166.315 46.7038ZM167.206 48.0597L166.559 48.8226L166.565 48.8275L166.571 48.8322L167.206 48.0597ZM168.659 50.245C167.535 50.245 166.618 50.0072 165.871 49.5723L164.865 51.3006C165.969 51.9438 167.247 52.245 168.659 52.245V50.245ZM165.877 49.5758C165.122 49.1289 164.541 48.5127 164.124 47.7067L162.348 48.625C162.933 49.7574 163.773 50.6549 164.859 51.2971L165.877 49.5758ZM164.125 47.7087C163.709 46.898 163.485 45.9297 163.485 44.7763H161.485C161.485 46.1929 161.761 47.4844 162.347 48.623L164.125 47.7087ZM163.485 44.7763C163.485 43.6103 163.709 42.6406 164.124 41.8377L162.348 40.9194C161.761 42.0549 161.485 43.3504 161.485 44.7763H163.485ZM164.125 41.8357C164.542 41.0251 165.122 40.4111 165.873 39.9708L164.862 38.2451C163.774 38.8829 162.932 39.7827 162.347 40.9214L164.125 41.8357ZM165.875 39.9699C166.621 39.531 167.536 39.2912 168.659 39.2912V37.2912C167.245 37.2912 165.966 37.5959 164.861 38.246L165.875 39.9699ZM168.659 39.2912C169.783 39.2912 170.694 39.531 171.433 39.9686L172.452 38.2473C171.351 37.5959 170.074 37.2912 168.659 37.2912V39.2912ZM171.439 39.9721C172.196 40.4128 172.777 41.0266 173.193 41.8357L174.972 40.9214C174.386 39.7811 173.541 38.8812 172.446 38.2438L171.439 39.9721ZM173.194 41.8377C173.609 42.6406 173.834 43.6103 173.834 44.7763H175.834C175.834 43.3504 175.558 42.0549 174.971 40.9194L173.194 41.8377ZM173.834 44.7763C173.834 45.9297 173.61 46.898 173.193 47.7087L174.972 48.623C175.557 47.4844 175.834 46.1929 175.834 44.7763H173.834ZM173.194 47.7067C172.778 48.5112 172.196 49.1272 171.436 49.5745L172.45 51.2984C173.541 50.6566 174.385 49.7589 174.971 48.625L173.194 47.7067ZM171.437 49.5736C170.697 50.0071 169.784 50.245 168.659 50.245V52.245C170.072 52.245 171.348 51.9439 172.448 51.2993L171.437 49.5736ZM168.676 49.5497C169.454 49.5497 170.175 49.3239 170.767 48.8235L169.476 47.2959C169.295 47.4488 169.052 47.5497 168.676 47.5497V49.5497ZM170.773 48.8182C171.318 48.3501 171.698 47.7368 171.941 47.0282L170.049 46.3795C169.9 46.8144 169.698 47.1049 169.47 47.3012L170.773 48.8182ZM171.938 47.0362C172.184 46.3385 172.297 45.5723 172.297 44.7518H170.297C170.297 45.3906 170.209 45.9258 170.052 46.3715L171.938 47.0362ZM172.297 44.7518C172.297 43.9313 172.184 43.1651 171.938 42.4674L170.052 43.1321C170.209 43.5778 170.297 44.113 170.297 44.7518H172.297ZM171.941 42.4754C171.698 41.7668 171.318 41.1534 170.773 40.6854L169.47 42.2024C169.698 42.3987 169.9 42.6892 170.049 43.124L171.941 42.4754ZM170.773 40.6854C170.181 40.1768 169.458 39.9457 168.676 39.9457V41.9457C169.047 41.9457 169.288 42.0467 169.47 42.2024L170.773 40.6854ZM168.676 39.9457C167.89 39.9457 167.164 40.1753 166.564 40.6765L167.847 42.2113C168.042 42.0482 168.296 41.9457 168.676 41.9457V39.9457ZM166.559 40.6809C166.009 41.1469 165.622 41.7586 165.372 42.4674L167.258 43.1321C167.412 42.6974 167.618 42.4052 167.852 42.2069L166.559 40.6809ZM165.369 42.4754C165.131 43.1706 165.021 43.9339 165.021 44.7518H167.021C167.021 44.1103 167.108 43.5723 167.261 43.124L165.369 42.4754ZM165.021 44.7518C165.021 45.5696 165.131 46.333 165.369 47.0282L167.261 46.3795C167.108 45.9312 167.021 45.3932 167.021 44.7518H165.021ZM165.372 47.0362C165.622 47.7449 166.009 48.3567 166.559 48.8226L167.852 47.2967C167.618 47.0983 167.412 46.8062 167.258 46.3715L165.372 47.0362ZM166.571 48.8322C167.171 49.3253 167.894 49.5497 168.676 49.5497V47.5497C168.292 47.5497 168.035 47.4474 167.84 47.2871L166.571 48.8322ZM179.13 50.4691L178.588 51.3093L178.595 51.3137L179.13 50.4691ZM177.301 48.2884L176.393 48.7087L176.396 48.7149L177.301 48.2884ZM177.325 41.158L178.225 41.5949L178.226 41.5929L177.325 41.158ZM179.171 39.0099L179.696 39.861L179.698 39.86L179.171 39.0099ZM183.467 38.6506L183.012 39.5409L183.024 39.547L183.467 38.6506ZM184.611 39.5327L183.836 40.1646L183.841 40.1711L183.846 40.1775L184.611 39.5327ZM185.28 40.5618L184.369 40.9734L184.635 41.5618H185.28V40.5618ZM185.387 40.5618V41.5618H186.387V40.5618H185.387ZM185.387 34.2727V33.2727H184.387V34.2727H185.387ZM188.858 34.2727H189.858V33.2727H188.858V34.2727ZM188.858 51V52H189.858V51H188.858ZM185.427 51H184.427V52H185.427V51ZM185.427 48.9908H186.427V47.9908H185.427V48.9908ZM185.28 48.9908V47.9908H184.645L184.375 48.5663L185.28 48.9908ZM184.586 50.0281L183.833 49.3704L183.832 49.3713L184.586 50.0281ZM183.435 50.8693L183.008 49.9647L183.004 49.9667L183.435 50.8693ZM184.243 47.978L184.862 48.7631L184.864 48.762L184.243 47.978ZM185.142 46.6793L184.208 46.3222L184.205 46.3302L185.142 46.6793ZM185.15 42.7834L186.086 42.4312V42.4312L185.15 42.7834ZM181.376 41.5256L180.756 40.7415L181.376 41.5256ZM180.486 46.663L179.545 47.0011L179.549 47.0121L180.486 46.663ZM181.376 47.9698L180.744 48.7443L180.75 48.7491L180.756 48.7539L181.376 47.9698ZM181.719 50.2042C180.948 50.2042 180.272 50.0088 179.666 49.6245L178.595 51.3137C179.535 51.9096 180.585 52.2042 181.719 52.2042V50.2042ZM179.673 49.6289C179.085 49.25 178.59 48.6786 178.205 47.8618L176.396 48.7149C176.915 49.8148 177.64 50.6972 178.588 51.3093L179.673 49.6289ZM178.208 47.868C177.839 47.0708 177.631 46.0418 177.631 44.7436H175.631C175.631 46.2442 175.87 47.5784 176.393 48.7087L178.208 47.868ZM177.631 44.7436C177.631 43.4062 177.847 42.3721 178.225 41.5949L176.426 40.7211C175.877 41.8498 175.631 43.206 175.631 44.7436H177.631ZM178.226 41.5929C178.621 40.7749 179.118 40.2178 179.696 39.861L178.646 38.1589C177.689 38.7496 176.955 39.6245 176.425 40.7231L178.226 41.5929ZM179.698 39.86C180.311 39.48 180.975 39.2912 181.711 39.2912V37.2912C180.607 37.2912 179.578 37.5815 178.644 38.1599L179.698 39.86ZM181.711 39.2912C182.306 39.2912 182.724 39.3934 183.012 39.5408L183.923 37.7603C183.274 37.4285 182.521 37.2912 181.711 37.2912V39.2912ZM183.024 39.547C183.39 39.7277 183.651 39.9377 183.836 40.1646L185.386 38.9007C184.994 38.4198 184.492 38.0417 183.91 37.7541L183.024 39.547ZM183.846 40.1775C184.094 40.471 184.262 40.7367 184.369 40.9734L186.192 40.1502C185.994 39.7117 185.715 39.2913 185.375 38.8878L183.846 40.1775ZM185.28 41.5618H185.387V39.5618H185.28V41.5618ZM186.387 40.5618V34.2727H184.387V40.5618H186.387ZM185.387 35.2727H188.858V33.2727H185.387V35.2727ZM187.858 34.2727V51H189.858V34.2727H187.858ZM188.858 50H185.427V52H188.858V50ZM186.427 51V48.9908H184.427V51H186.427ZM185.427 47.9908H185.28V49.9908H185.427V47.9908ZM184.375 48.5663C184.258 48.8166 184.082 49.0852 183.833 49.3704L185.34 50.6857C185.689 50.2849 185.977 49.8619 186.186 49.4152L184.375 48.5663ZM183.832 49.3713C183.643 49.5883 183.378 49.7906 183.008 49.9647L183.861 51.7739C184.439 51.5015 184.941 51.143 185.34 50.6848L183.832 49.3713ZM183.004 49.9667C182.705 50.1095 182.289 50.2042 181.719 50.2042V52.2042C182.5 52.2042 183.228 52.0756 183.865 51.772L183.004 49.9667ZM182.822 49.4354C183.575 49.4354 184.275 49.2263 184.862 48.7631L183.624 47.1928C183.438 47.3395 183.191 47.4354 182.822 47.4354V49.4354ZM184.864 48.762C185.424 48.3188 185.82 47.723 186.079 47.0284L184.205 46.3302C184.049 46.7465 183.847 47.0164 183.622 47.1939L184.864 48.762ZM186.076 47.0365C186.341 46.3421 186.46 45.5655 186.46 44.7273H184.46C184.46 45.381 184.367 45.9057 184.208 46.3222L186.076 47.0365ZM186.46 44.7273C186.46 43.892 186.345 43.1195 186.086 42.4312L184.214 43.1355C184.369 43.5471 184.46 44.0706 184.46 44.7273H186.46ZM186.086 42.4312C185.826 41.7397 185.426 41.1479 184.858 40.7146L183.644 42.3039C183.861 42.4695 184.06 42.7271 184.214 43.1355L186.086 42.4312ZM184.858 40.7146C184.269 40.264 183.571 40.06 182.822 40.06V42.06C183.195 42.06 183.45 42.1555 183.644 42.3039L184.858 40.7146ZM182.822 40.06C182.059 40.06 181.349 40.2716 180.756 40.7415L181.997 42.3096C182.188 42.1588 182.442 42.06 182.822 42.06V40.06ZM180.756 40.7415C180.196 41.1848 179.801 41.779 179.547 42.4721L181.425 43.16C181.574 42.7532 181.773 42.4871 181.997 42.3096L180.756 40.7415ZM179.547 42.4721C179.297 43.1548 179.184 43.9125 179.184 44.7273H181.184C181.184 44.0937 181.272 43.5772 181.425 43.16L179.547 42.4721ZM179.184 44.7273C179.184 45.5472 179.297 46.3105 179.545 47.0011L181.427 46.3249C181.272 45.8938 181.184 45.3666 181.184 44.7273H179.184ZM179.549 47.0121C179.806 47.7025 180.196 48.2968 180.744 48.7443L182.009 47.1954C181.784 47.0112 181.58 46.7343 181.423 46.3139L179.549 47.0121ZM180.756 48.7539C181.349 49.2238 182.059 49.4354 182.822 49.4354V47.4354C182.442 47.4354 182.188 47.3366 181.997 47.1858L180.756 48.7539ZM203.805 34.2727V33.2727H202.805V34.2727H203.805ZM207.3 34.2727H208.3V33.2727H207.3V34.2727ZM206.573 48.7457L205.72 48.2252L205.717 48.2295L206.573 48.7457ZM204.572 50.5835L204.123 49.6902L204.572 50.5835ZM198.847 50.6978L198.444 51.6131L198.451 51.6163L198.847 50.6978ZM196.903 49.0643L196.065 49.6104L196.067 49.6132L196.903 49.0643ZM196.192 46.2955V45.2955H195.197L195.192 46.2906L196.192 46.2955ZM199.713 46.2955L200.712 46.2708L200.688 45.2955H199.713V46.2955ZM199.982 47.4308L199.1 47.9021L199.105 47.9113L199.11 47.9203L199.982 47.4308ZM200.693 48.1495L200.202 49.0207L200.211 49.0259L200.221 49.031L200.693 48.1495ZM202.873 48.1168L203.399 48.9674L203.403 48.9648L202.873 48.1168ZM203.568 47.2837L204.485 47.681L203.568 47.2837ZM203.805 35.2727H207.3V33.2727H203.805V35.2727ZM206.3 34.2727V45.9361H208.3V34.2727H206.3ZM206.3 45.9361C206.3 46.8601 206.094 47.6105 205.72 48.2252L207.427 49.2662C208.022 48.2911 208.3 47.1683 208.3 45.9361H206.3ZM205.717 48.2295C205.338 48.8577 204.815 49.342 204.123 49.6902L205.022 51.4767C206.04 50.9646 206.85 50.2237 207.43 49.262L205.717 48.2295ZM204.123 49.6902C203.431 50.0384 202.596 50.2287 201.591 50.2287V52.2287C202.851 52.2287 204.004 51.9888 205.022 51.4767L204.123 49.6902ZM201.591 50.2287C200.703 50.2287 199.925 50.0731 199.242 49.7793L198.451 51.6163C199.413 52.0303 200.465 52.2287 201.591 52.2287V50.2287ZM199.25 49.7825C198.605 49.499 198.11 49.0798 197.739 48.5153L196.067 49.6132C196.655 50.508 197.455 51.1778 198.444 51.6131L199.25 49.7825ZM197.741 48.5182C197.393 47.9856 197.188 47.2674 197.192 46.3004L195.192 46.2906C195.186 47.5451 195.454 48.6728 196.065 49.6104L197.741 48.5182ZM196.192 47.2955H199.713V45.2955H196.192V47.2955ZM198.713 46.3201C198.727 46.8817 198.843 47.4204 199.1 47.9021L200.864 46.9594C200.784 46.8095 200.72 46.5913 200.712 46.2708L198.713 46.3201ZM199.11 47.9203C199.371 48.3844 199.737 48.7587 200.202 49.0207L201.184 47.2784C201.05 47.2028 200.942 47.0978 200.854 46.9412L199.11 47.9203ZM200.221 49.031C200.697 49.286 201.224 49.3945 201.771 49.3945V47.3945C201.49 47.3945 201.299 47.3397 201.165 47.268L200.221 49.031ZM201.771 49.3945C202.348 49.3945 202.908 49.271 203.399 48.9674L202.348 47.2662C202.24 47.3329 202.065 47.3945 201.771 47.3945V49.3945ZM203.403 48.9648C203.898 48.6555 204.256 48.2114 204.485 47.681L202.65 46.8865C202.564 47.0857 202.458 47.197 202.343 47.2688L203.403 48.9648ZM204.485 47.681C204.713 47.1557 204.805 46.5621 204.805 45.9361H202.805C202.805 46.3773 202.738 46.6821 202.65 46.8865L204.485 47.681ZM204.805 45.9361V34.2727H202.805V45.9361H204.805ZM212.536 50.4364L212.027 51.2971L212.033 51.3006L212.536 50.4364ZM210.404 48.1658L209.515 48.623L209.516 48.625L210.404 48.1658ZM210.404 41.3786L211.292 41.8377L211.293 41.8357L210.404 41.3786ZM212.536 39.108L213.041 39.9708L213.043 39.9699L212.536 39.108ZM219.111 39.108L218.601 39.9686L218.607 39.9721L219.111 39.108ZM221.251 41.3786L220.361 41.8357L220.362 41.8377L221.251 41.3786ZM221.251 48.1658L222.139 48.625L222.14 48.623L221.251 48.1658ZM219.111 50.4364L219.616 51.2993L219.618 51.2984L219.111 50.4364ZM217.289 48.0597L217.935 48.8235L217.941 48.8182L217.289 48.0597ZM218.163 46.7038L217.22 46.3715L217.217 46.3795L218.163 46.7038ZM218.163 42.7997L217.217 43.1241L217.22 43.1321L218.163 42.7997ZM214.373 41.4439L213.732 40.6765L213.727 40.6809L214.373 41.4439ZM213.483 42.7997L212.54 42.4674L212.537 42.4754L213.483 42.7997ZM213.483 46.7038L212.537 47.0282L212.54 47.0362L213.483 46.7038ZM214.373 48.0597L213.727 48.8226L213.733 48.8275L213.739 48.8322L214.373 48.0597ZM215.827 50.245C214.703 50.245 213.786 50.0072 213.039 49.5723L212.033 51.3006C213.137 51.9438 214.415 52.245 215.827 52.245V50.245ZM213.045 49.5758C212.29 49.1289 211.709 48.5127 211.292 47.7067L209.516 48.625C210.101 49.7574 210.941 50.6549 212.027 51.2971L213.045 49.5758ZM211.293 47.7087C210.877 46.898 210.653 45.9297 210.653 44.7763H208.653C208.653 46.1929 208.929 47.4844 209.515 48.623L211.293 47.7087ZM210.653 44.7763C210.653 43.6103 210.877 42.6406 211.292 41.8377L209.516 40.9194C208.929 42.0549 208.653 43.3504 208.653 44.7763H210.653ZM211.293 41.8357C211.71 41.0251 212.29 40.4111 213.041 39.9708L212.03 38.2451C210.941 38.8829 210.1 39.7827 209.515 40.9214L211.293 41.8357ZM213.043 39.9699C213.789 39.531 214.704 39.2912 215.827 39.2912V37.2912C214.413 37.2912 213.134 37.5959 212.029 38.246L213.043 39.9699ZM215.827 39.2912C216.951 39.2912 217.862 39.531 218.601 39.9686L219.62 38.2473C218.519 37.5959 217.242 37.2912 215.827 37.2912V39.2912ZM218.607 39.9721C219.364 40.4128 219.945 41.0266 220.361 41.8357L222.14 40.9214C221.554 39.7811 220.709 38.8812 219.614 38.2438L218.607 39.9721ZM220.362 41.8377C220.777 42.6406 221.002 43.6103 221.002 44.7763H223.002C223.002 43.3504 222.726 42.0549 222.139 40.9194L220.362 41.8377ZM221.002 44.7763C221.002 45.9297 220.778 46.898 220.361 47.7087L222.14 48.623C222.725 47.4844 223.002 46.1929 223.002 44.7763H221.002ZM220.362 47.7067C219.946 48.5112 219.364 49.1272 218.604 49.5745L219.618 51.2984C220.709 50.6566 221.553 49.7589 222.139 48.625L220.362 47.7067ZM218.605 49.5736C217.865 50.0071 216.952 50.245 215.827 50.245V52.245C217.24 52.245 218.516 51.9439 219.616 51.2993L218.605 49.5736ZM215.844 49.5497C216.622 49.5497 217.343 49.3239 217.935 48.8235L216.644 47.2959C216.463 47.4488 216.22 47.5497 215.844 47.5497V49.5497ZM217.941 48.8182C218.486 48.3501 218.866 47.7368 219.109 47.0282L217.217 46.3795C217.068 46.8144 216.866 47.1049 216.638 47.3012L217.941 48.8182ZM219.106 47.0362C219.352 46.3385 219.465 45.5723 219.465 44.7518H217.465C217.465 45.3906 217.377 45.9258 217.22 46.3715L219.106 47.0362ZM219.465 44.7518C219.465 43.9313 219.352 43.1651 219.106 42.4674L217.22 43.1321C217.377 43.5778 217.465 44.113 217.465 44.7518H219.465ZM219.109 42.4754C218.866 41.7668 218.486 41.1534 217.941 40.6854L216.638 42.2024C216.866 42.3987 217.068 42.6892 217.217 43.124L219.109 42.4754ZM217.941 40.6854C217.349 40.1768 216.626 39.9457 215.844 39.9457V41.9457C216.215 41.9457 216.456 42.0467 216.638 42.2024L217.941 40.6854ZM215.844 39.9457C215.058 39.9457 214.332 40.1753 213.732 40.6765L215.015 42.2113C215.21 42.0482 215.464 41.9457 215.844 41.9457V39.9457ZM213.727 40.6809C213.177 41.1469 212.79 41.7586 212.54 42.4674L214.426 43.1321C214.58 42.6974 214.786 42.4052 215.02 42.2069L213.727 40.6809ZM212.537 42.4754C212.299 43.1706 212.189 43.9339 212.189 44.7518H214.189C214.189 44.1103 214.275 43.5723 214.429 43.124L212.537 42.4754ZM212.189 44.7518C212.189 45.5696 212.299 46.333 212.537 47.0282L214.429 46.3795C214.275 45.9312 214.189 45.3932 214.189 44.7518H212.189ZM212.54 47.0362C212.79 47.7449 213.177 48.3567 213.727 48.8226L215.02 47.2967C214.786 47.0983 214.58 46.8062 214.426 46.3715L212.54 47.0362ZM213.739 48.8322C214.339 49.3253 215.062 49.5497 215.844 49.5497V47.5497C215.46 47.5497 215.203 47.4474 215.008 47.2871L213.739 48.8322ZM224.33 51H223.33V52H224.33V51ZM224.33 34.2727V33.2727H223.33V34.2727H224.33ZM227.809 34.2727H228.809V33.2727H227.809V34.2727ZM227.809 40.5618H226.809V41.5618H227.809V40.5618ZM227.915 40.5618V41.5618H228.561L228.827 40.9734L227.915 40.5618ZM228.577 39.5327L227.808 38.8936L227.807 38.8949L228.577 39.5327ZM229.72 38.6506L230.168 39.545L230.172 39.5429L229.72 38.6506ZM234.017 39.0099L233.49 39.86L233.494 39.8626L234.017 39.0099ZM235.871 41.158L234.97 41.5929L234.971 41.5949L235.871 41.158ZM235.887 48.2884L234.982 47.8638L234.981 47.866L235.887 48.2884ZM234.057 50.4691L234.595 51.312L234.597 51.3111L234.057 50.4691ZM229.753 50.8693L229.323 51.772L229.327 51.7739L229.753 50.8693ZM228.601 50.0281L227.848 50.6857L227.853 50.6917L228.601 50.0281ZM227.915 48.9908L228.826 48.578L228.56 47.9908H227.915V48.9908ZM227.76 48.9908V47.9908H226.76V48.9908H227.76ZM227.76 51V52H228.76V51H227.76ZM228.945 47.978L228.324 48.7621L228.331 48.7673L228.945 47.978ZM231.811 47.9698L232.432 48.7539L232.439 48.7486L231.811 47.9698ZM232.702 46.663L231.763 46.3169L231.762 46.322L232.702 46.663ZM232.71 42.8161L233.649 42.4721V42.4721L232.71 42.8161ZM231.82 41.5256L232.44 40.7415L231.82 41.5256ZM228.936 41.5092L228.329 40.7145L228.324 40.7187L228.936 41.5092ZM228.046 42.7834L227.11 42.4312V42.4312L228.046 42.7834ZM225.33 51V34.2727H223.33V51H225.33ZM224.33 35.2727H227.809V33.2727H224.33V35.2727ZM226.809 34.2727V40.5618H228.809V34.2727H226.809ZM227.809 41.5618H227.915V39.5618H227.809V41.5618ZM228.827 40.9734C228.935 40.7328 229.103 40.4648 229.347 40.1705L227.807 38.8949C227.473 39.2975 227.2 39.7156 227.004 40.1502L228.827 40.9734ZM229.346 40.1717C229.54 39.938 229.806 39.7257 230.168 39.545L229.273 37.7561C228.698 38.0437 228.202 38.4195 227.808 38.8937L229.346 40.1717ZM230.172 39.5429C230.468 39.3932 230.89 39.2912 231.485 39.2912V37.2912C230.674 37.2912 229.921 37.4288 229.269 37.7582L230.172 39.5429ZM231.485 39.2912C232.214 39.2912 232.876 39.4794 233.49 39.86L234.543 38.1599C233.611 37.5821 232.584 37.2912 231.485 37.2912V39.2912ZM233.494 39.8626C234.077 40.2199 234.576 40.7767 234.97 41.5929L236.771 40.7231C236.24 39.6227 235.502 38.7475 234.539 38.1573L233.494 39.8626ZM234.971 41.5949C235.349 42.3721 235.565 43.4062 235.565 44.7436H237.565C237.565 43.206 237.318 41.8498 236.77 40.7211L234.971 41.5949ZM235.565 44.7436C235.565 46.0404 235.355 47.0678 234.982 47.8638L236.792 48.7129C237.323 47.5814 237.565 46.2456 237.565 44.7436H235.565ZM234.981 47.866C234.602 48.6791 234.108 49.2487 233.518 49.6272L234.597 51.3111C235.553 50.6985 236.279 49.8143 236.793 48.7107L234.981 47.866ZM233.519 49.6262C232.92 50.0088 232.248 50.2042 231.476 50.2042V52.2042C232.611 52.2042 233.659 51.9095 234.595 51.312L233.519 49.6262ZM231.476 50.2042C230.908 50.2042 230.487 50.1097 230.179 49.9647L229.327 51.7739C229.967 52.0754 230.695 52.2042 231.476 52.2042V50.2042ZM230.183 49.9667C229.818 49.7925 229.548 49.588 229.35 49.3644L227.853 50.6917C228.254 51.1433 228.752 51.4997 229.323 51.772L230.183 49.9667ZM229.355 49.3704C229.108 49.0873 228.937 48.8226 228.826 48.578L227.005 49.4035C227.21 49.8559 227.496 50.2827 227.848 50.6857L229.355 49.3704ZM227.915 47.9908H227.76V49.9908H227.915V47.9908ZM226.76 48.9908V51H228.76V48.9908H226.76ZM227.76 50H224.33V52H227.76V50ZM226.736 44.7273C226.736 45.5629 226.851 46.3367 227.109 47.0284L228.983 46.3302C228.827 45.9112 228.736 45.3836 228.736 44.7273H226.736ZM227.109 47.0284C227.368 47.723 227.764 48.3188 228.324 48.762L229.565 47.1939C229.341 47.0164 229.138 46.7465 228.983 46.3302L227.109 47.0284ZM228.331 48.7673C228.921 49.2263 229.621 49.4354 230.374 49.4354V47.4354C230.005 47.4354 229.753 47.3396 229.558 47.1886L228.331 48.7673ZM230.374 49.4354C231.134 49.4354 231.84 49.2224 232.432 48.7539L231.191 47.1858C230.998 47.3379 230.746 47.4354 230.374 47.4354V49.4354ZM232.439 48.7486C232.996 48.2996 233.389 47.701 233.642 47.004L231.762 46.322C231.611 46.7358 231.411 47.0084 231.184 47.1911L232.439 48.7486ZM233.64 47.0091C233.896 46.316 234.012 45.5498 234.012 44.7273H232.012C232.012 45.364 231.922 45.8883 231.763 46.3169L233.64 47.0091ZM234.012 44.7273C234.012 43.9125 233.899 43.1548 233.649 42.4721L231.771 43.16C231.924 43.5772 232.012 44.0937 232.012 44.7273H234.012ZM233.649 42.4721C233.395 41.779 233 41.1848 232.44 40.7415L231.199 42.3096C231.423 42.4871 231.622 42.7532 231.771 43.16L233.649 42.4721ZM232.44 40.7415C231.847 40.2716 231.137 40.06 230.374 40.06V42.06C230.754 42.06 231.008 42.1588 231.199 42.3096L232.44 40.7415ZM230.374 40.06C229.622 40.06 228.921 40.2627 228.329 40.7146L229.543 42.3039C229.736 42.1568 229.993 42.06 230.374 42.06V40.06ZM228.324 40.7187C227.764 41.1525 227.369 41.7432 227.11 42.4312L228.982 43.1355C229.137 42.7237 229.336 42.4649 229.549 42.2998L228.324 40.7187ZM227.11 42.4312C226.851 43.1195 226.736 43.892 226.736 44.7273H228.736C228.736 44.0706 228.827 43.5471 228.982 43.1355L227.11 42.4312Z" fill="#408036" fill-opacity="0.5"/>
<path d="M12 441.738C12.389 441.699 12.7824 441.699 13.1714 441.738C13.649 441.782 14.1168 441.88 14.5612 442.03" stroke="black" stroke-width="0.25" stroke-miterlimit="10"/>
<path d="M26.974 435.792C26.9848 435.834 26.9848 435.876 26.974 435.917C26.9355 436.052 26.8402 436.172 26.7048 436.256C26.5723 436.337 26.4214 436.396 26.261 436.429C26.2576 436.348 26.2914 436.27 26.3556 436.209C26.4257 436.151 26.5011 436.097 26.5811 436.048C26.6612 435.995 26.7217 435.925 26.7558 435.846C26.7704 435.804 26.774 435.76 26.7665 435.717C26.759 435.674 26.7404 435.633 26.7121 435.596L26.6029 435.715C26.62 435.699 26.6346 435.681 26.6466 435.662C26.6753 435.621 26.6905 435.575 26.6905 435.528C26.6905 435.481 26.6753 435.435 26.6466 435.394C26.7702 435.47 26.8719 435.568 26.9449 435.679C26.9604 435.716 26.9702 435.754 26.974 435.792Z" fill="#A9A454"/>
<path d="M26.0213 436.607C26.0213 436.607 26.0795 436.667 26.0723 436.691C26.065 436.714 25.9995 436.691 25.9777 436.691L25.7012 436.655C25.5335 436.647 25.3741 436.593 25.2501 436.5C25.1757 436.422 25.1145 436.336 25.0682 436.245C25.0329 436.194 24.9915 436.146 24.9445 436.102C24.8955 436.044 24.833 435.995 24.7605 435.957C24.6881 435.919 24.6071 435.894 24.5225 435.882C24.757 435.819 25.0063 435.803 25.2501 435.834L25.4247 435.876C25.6034 435.96 25.7516 436.081 25.854 436.227C25.831 436.135 25.8518 436.039 25.9122 435.959C25.9495 435.93 25.9942 435.908 26.0431 435.894C26.145 435.858 26.2469 435.834 26.3488 435.793C26.422 435.765 26.4867 435.725 26.5379 435.674V435.674C26.4551 435.772 26.3455 435.854 26.2178 435.912C26.1389 435.933 26.0651 435.965 25.9995 436.007C25.9682 436.041 25.9472 436.081 25.9384 436.124C25.9295 436.166 25.933 436.21 25.9486 436.251C25.9652 436.302 25.9896 436.352 26.0213 436.399L26.0868 436.488C26.0061 436.425 25.9184 436.367 25.8249 436.316C25.7692 436.285 25.718 436.249 25.6721 436.209C25.5858 436.118 25.4855 436.036 25.3737 435.965C25.2145 435.906 25.0369 435.887 24.8644 435.912C25.0474 436.029 25.2449 436.131 25.4538 436.215L25.643 436.28L25.7375 436.34C25.8547 436.411 25.9515 436.502 26.0213 436.607V436.607Z" fill="#A9A454"/>
<path d="M25.7958 436.363C25.8888 436.432 25.9653 436.515 26.0213 436.607C26.0213 436.607 26.0795 436.667 26.0723 436.69C26.065 436.714 25.9995 436.69 25.9777 436.69L25.7012 436.655C25.5335 436.647 25.3741 436.593 25.2501 436.5C25.1757 436.422 25.1145 436.336 25.0682 436.244C25.0329 436.194 24.9915 436.146 24.9445 436.102C24.8955 436.044 24.833 435.995 24.7605 435.957C24.6881 435.919 24.6071 435.894 24.5225 435.882C24.757 435.819 25.0063 435.803 25.2501 435.834L25.4247 435.876C25.6034 435.959 25.7516 436.08 25.854 436.227C25.831 436.135 25.8518 436.039 25.9122 435.959C25.9495 435.93 25.9942 435.907 26.0431 435.894C26.145 435.858 26.2469 435.834 26.3488 435.793C26.422 435.765 26.4867 435.724 26.5379 435.674C26.5549 435.657 26.5696 435.639 26.5816 435.62C26.6103 435.579 26.6254 435.533 26.6254 435.486C26.6254 435.439 26.6103 435.393 26.5816 435.353C26.7051 435.429 26.8069 435.526 26.8799 435.638C26.9146 435.684 26.9393 435.734 26.9527 435.787C26.9635 435.828 26.9635 435.87 26.9527 435.911C26.9141 436.047 26.8188 436.167 26.6834 436.25C26.5509 436.331 26.4 436.39 26.2396 436.423C26.2363 436.342 26.27 436.264 26.3342 436.203C26.4043 436.145 26.4797 436.091 26.5597 436.042C26.6398 435.989 26.7003 435.919 26.7344 435.84C26.749 435.798 26.7527 435.754 26.7451 435.711C26.7376 435.668 26.7191 435.627 26.6907 435.59L26.5816 435.709C26.4988 435.808 26.3892 435.889 26.2614 435.947C26.1825 435.968 26.1087 436.001 26.0431 436.042C26.0118 436.077 25.9909 436.117 25.982 436.159C25.9732 436.202 25.9767 436.245 25.9922 436.286C26.0089 436.338 26.0333 436.388 26.065 436.435L26.1305 436.524C26.0497 436.46 25.9621 436.402 25.8685 436.351C25.8129 436.321 25.7616 436.285 25.7157 436.244C25.6294 436.153 25.5292 436.071 25.4174 436.001C25.2582 435.941 25.0806 435.922 24.9081 435.947C25.0911 436.065 25.2886 436.166 25.4974 436.25L25.6866 436.316L25.7958 436.363Z" stroke="black" stroke-width="0.25" stroke-miterlimit="10"/>
<path d="M22.703 436.809L23.4306 441.215C22.1936 441.215 20.8403 441.269 19.3851 441.388C17.7716 441.509 16.1681 441.708 14.5829 441.982L14.4083 440.716C14.3355 440.175 14.2628 439.634 14.1827 439.093L14.0518 438.135C14.1682 438.171 14.2118 438.177 14.11 438.135C14.3541 438.132 14.5937 438.081 14.8098 437.988C15.0258 437.896 15.2123 437.763 15.3542 437.6C15.4954 437.439 15.6794 437.306 15.8923 437.212C16.1053 437.117 16.3416 437.063 16.5838 437.053C17.2168 437.125 17.5952 437.773 18.2282 437.743C18.6575 437.743 18.9558 437.404 19.1959 437.148C19.436 436.893 19.8144 436.554 20.2364 436.643C20.4938 436.724 20.7218 436.857 20.8985 437.029C21.0307 437.155 21.2085 437.243 21.4061 437.281C21.6037 437.318 21.8108 437.303 21.9972 437.238C22.2227 437.119 22.3319 436.875 22.5938 436.815L22.703 436.809Z" fill="#D3CFE2"/>
<path d="M14.5902 442.012H14.4883V441.952L13.1641 440.846L14.4083 440.733L14.5902 442.012Z" fill="#D3CFE2"/>
<path d="M14.0587 438.165L14.1897 439.122C14.2697 439.663 14.3425 440.204 14.4153 440.745L13.171 440.858L12.1524 441.732H12.0869L12.7199 438.016C12.7269 437.979 12.7502 437.945 12.7854 437.921C12.8355 437.886 12.8955 437.861 12.96 437.85C13.0474 437.85 13.1419 437.779 13.222 437.814C13.6367 437.969 13.8914 438.07 14.0296 438.129C14.035 438.143 14.0451 438.156 14.0587 438.165V438.165Z" fill="#D3CFE2"/>
<path d="M13.4111 434.021L14.0951 432.98L14.5244 432.314L14.568 432.249" stroke="black" stroke-width="0.25" stroke-miterlimit="10"/>
<path d="M14.5029 432.314H14.5248L20.6148 431.761L20.6803 431.755" stroke="black" stroke-width="0.25" stroke-miterlimit="10"/>
<path d="M22.1354 433.337L22.1208 433.319L21.1677 432.338L20.6147 431.761L20.6074 431.755" stroke="black" stroke-width="0.25" stroke-miterlimit="10"/>
<path d="M13.4047 433.961C13.4016 433.977 13.4016 433.993 13.4047 434.009C13.623 435.365 13.834 436.734 14.0377 438.117C14.0343 438.129 14.0343 438.141 14.0377 438.153L14.1687 439.11C14.2487 439.651 14.3215 440.193 14.3942 440.734L14.5688 442C14.5688 442 14.5688 442.048 14.5688 442.071" stroke="black" stroke-width="0.25" stroke-miterlimit="10"/>
<path d="M22.1064 433.23L22.121 433.319L22.7031 436.809L23.438 441.215L23.4452 441.275" stroke="black" stroke-width="0.25" stroke-miterlimit="10"/>
<path d="M14.4883 442.03H14.5901C16.1753 441.755 17.7788 441.557 19.3923 441.435C20.8475 441.316 22.2009 441.269 23.4378 441.263" stroke="black" stroke-width="0.25" stroke-miterlimit="10"/>
<path d="M13.397 433.973L12.7131 438.01L12.0801 441.726" stroke="black" stroke-width="0.25" stroke-miterlimit="10"/>
<path d="M13.1719 440.864H13.1646L12.1387 441.738" stroke="black" stroke-width="0.25" stroke-miterlimit="10"/>
<path d="M14.4888 441.97L13.1646 440.864L13.0918 440.805" stroke="black" stroke-width="0.25" stroke-miterlimit="10"/>
<path d="M14.4155 440.746L13.1641 440.865" stroke="black" stroke-width="0.25" stroke-miterlimit="10"/>
<path d="M14.1172 432.992L21.1531 432.35" stroke="black" stroke-width="0.25" stroke-miterlimit="10"/>
<path d="M17.1512 432.017C17.0112 431.657 16.9914 431.272 17.0937 430.903C17.196 430.534 17.4168 430.194 17.7333 429.918C17.9482 429.738 18.1932 429.584 18.4609 429.46C19.0453 429.191 19.6979 429.035 20.368 429.005C21.0381 428.975 21.7075 429.072 22.3244 429.288C22.747 429.426 23.12 429.649 23.4086 429.936C23.6303 430.199 23.7907 430.493 23.8815 430.804C24.1082 431.449 24.2377 432.114 24.2671 432.784C24.2269 433.416 24.3054 434.05 24.5 434.663C24.5727 434.841 24.7328 435.037 24.9656 435.032" stroke="black" stroke-width="0.25" stroke-miterlimit="10"/>
<path d="M23.6777 435.537L26.7337 434.401L27.9997 436.566L24.951 437.701L23.6777 435.537Z" stroke="black" stroke-width="0.25" stroke-miterlimit="10"/>
<path d="M12.7494 438.07C12.7463 438.054 12.7463 438.038 12.7494 438.022C12.7564 437.985 12.7796 437.951 12.8149 437.927C12.865 437.892 12.925 437.867 12.9895 437.856C13.0768 437.856 13.1714 437.784 13.2515 437.82C13.6662 437.975 13.9209 438.076 14.0591 438.135L14.1246 438.165C14.2264 438.212 14.1828 438.207 14.0664 438.165C13.95 438.123 13.8263 438.094 13.6662 438.04C13.5061 437.987 13.7535 438.135 13.8117 438.171C13.8413 438.189 13.8757 438.202 13.9122 438.208C13.9488 438.215 13.9865 438.214 14.0227 438.207" stroke="black" stroke-width="0.25" stroke-miterlimit="10"/>
<path d="M14.1172 438.159C14.3613 438.155 14.601 438.105 14.817 438.012C15.033 437.919 15.2195 437.786 15.3614 437.624C15.5026 437.463 15.6866 437.33 15.8995 437.235C16.1125 437.14 16.3489 437.086 16.591 437.077C17.224 437.148 17.6024 437.796 18.2354 437.766C18.6647 437.766 18.963 437.427 19.2031 437.172C19.4432 436.916 19.8216 436.577 20.2436 436.666C20.5011 436.747 20.729 436.88 20.9057 437.053C21.0379 437.179 21.2158 437.267 21.4133 437.304C21.6109 437.341 21.818 437.326 22.0044 437.261C22.23 437.142 22.3391 436.898 22.601 436.839" stroke="black" stroke-width="0.25" stroke-miterlimit="10"/>
<path d="M29.5455 130.227V127.727H47V130.227H39.6818V151H36.8636V130.227H29.5455ZM53.6676 140.5V151H50.9858V127.727H53.6676V136.273H53.8949C54.304 135.371 54.9176 134.655 55.7358 134.125C56.5616 133.587 57.66 133.318 59.0312 133.318C60.2206 133.318 61.2623 133.557 62.1562 134.034C63.0502 134.504 63.7434 135.227 64.2358 136.205C64.7358 137.174 64.9858 138.409 64.9858 139.909V151H62.304V140.091C62.304 138.705 61.9441 137.633 61.2244 136.875C60.5123 136.11 59.5237 135.727 58.2585 135.727C57.3797 135.727 56.5919 135.913 55.8949 136.284C55.2055 136.655 54.66 137.197 54.2585 137.909C53.8646 138.621 53.6676 139.485 53.6676 140.5ZM69.892 151V133.545H72.5739V151H69.892ZM71.2557 130.636C70.733 130.636 70.2822 130.458 69.9034 130.102C69.5322 129.746 69.3466 129.318 69.3466 128.818C69.3466 128.318 69.5322 127.89 69.9034 127.534C70.2822 127.178 70.733 127 71.2557 127C71.7784 127 72.2254 127.178 72.5966 127.534C72.9754 127.89 73.1648 128.318 73.1648 128.818C73.1648 129.318 72.9754 129.746 72.5966 130.102C72.2254 130.458 71.7784 130.636 71.2557 130.636ZM89.8494 137.455L87.4403 138.136C87.2888 137.735 87.0653 137.345 86.7699 136.966C86.482 136.58 86.0881 136.261 85.5881 136.011C85.0881 135.761 84.4479 135.636 83.6676 135.636C82.5994 135.636 81.7093 135.883 80.9972 136.375C80.2926 136.86 79.9403 137.477 79.9403 138.227C79.9403 138.894 80.1828 139.42 80.6676 139.807C81.1525 140.193 81.91 140.515 82.9403 140.773L85.5312 141.409C87.0919 141.788 88.2547 142.367 89.0199 143.148C89.785 143.92 90.1676 144.917 90.1676 146.136C90.1676 147.136 89.8797 148.03 89.304 148.818C88.7358 149.606 87.9403 150.227 86.9176 150.682C85.8949 151.136 84.7055 151.364 83.3494 151.364C81.5691 151.364 80.0956 150.977 78.929 150.205C77.7623 149.432 77.0237 148.303 76.7131 146.818L79.2585 146.182C79.5009 147.121 79.9593 147.826 80.6335 148.295C81.3153 148.765 82.2055 149 83.304 149C84.554 149 85.5464 148.735 86.2812 148.205C87.0237 147.667 87.3949 147.023 87.3949 146.273C87.3949 145.667 87.1828 145.159 86.7585 144.75C86.3343 144.333 85.6828 144.023 84.804 143.818L81.8949 143.136C80.2964 142.758 79.1222 142.17 78.3722 141.375C77.6297 140.572 77.2585 139.568 77.2585 138.364C77.2585 137.379 77.535 136.508 78.0881 135.75C78.6487 134.992 79.41 134.398 80.3722 133.966C81.3419 133.534 82.4403 133.318 83.6676 133.318C85.3949 133.318 86.7509 133.697 87.7358 134.455C88.7282 135.212 89.4328 136.212 89.8494 137.455ZM103.205 151V133.545H105.886V151H103.205ZM104.568 130.636C104.045 130.636 103.595 130.458 103.216 130.102C102.845 129.746 102.659 129.318 102.659 128.818C102.659 128.318 102.845 127.89 103.216 127.534C103.595 127.178 104.045 127 104.568 127C105.091 127 105.538 127.178 105.909 127.534C106.288 127.89 106.477 128.318 106.477 128.818C106.477 129.318 106.288 129.746 105.909 130.102C105.538 130.458 105.091 130.636 104.568 130.636ZM123.162 137.455L120.753 138.136C120.601 137.735 120.378 137.345 120.082 136.966C119.795 136.58 119.401 136.261 118.901 136.011C118.401 135.761 117.76 135.636 116.98 135.636C115.912 135.636 115.022 135.883 114.31 136.375C113.605 136.86 113.253 137.477 113.253 138.227C113.253 138.894 113.495 139.42 113.98 139.807C114.465 140.193 115.223 140.515 116.253 140.773L118.844 141.409C120.404 141.788 121.567 142.367 122.332 143.148C123.098 143.92 123.48 144.917 123.48 146.136C123.48 147.136 123.192 148.03 122.616 148.818C122.048 149.606 121.253 150.227 120.23 150.682C119.207 151.136 118.018 151.364 116.662 151.364C114.882 151.364 113.408 150.977 112.241 150.205C111.075 149.432 110.336 148.303 110.026 146.818L112.571 146.182C112.813 147.121 113.272 147.826 113.946 148.295C114.628 148.765 115.518 149 116.616 149C117.866 149 118.859 148.735 119.594 148.205C120.336 147.667 120.707 147.023 120.707 146.273C120.707 145.667 120.495 145.159 120.071 144.75C119.647 144.333 118.995 144.023 118.116 143.818L115.207 143.136C113.609 142.758 112.435 142.17 111.685 141.375C110.942 140.572 110.571 139.568 110.571 138.364C110.571 137.379 110.848 136.508 111.401 135.75C111.961 134.992 112.723 134.398 113.685 133.966C114.654 133.534 115.753 133.318 116.98 133.318C118.707 133.318 120.063 133.697 121.048 134.455C122.041 135.212 122.745 136.212 123.162 137.455ZM140.472 151L135.153 133.545H137.972L141.744 146.909H141.926L145.653 133.545H148.517L152.199 146.864H152.381L156.153 133.545H158.972L153.653 151H151.017L147.199 137.591H146.926L143.108 151H140.472ZM165.199 140.5V151H162.517V127.727H165.199V136.273H165.426C165.835 135.371 166.449 134.655 167.267 134.125C168.093 133.587 169.191 133.318 170.562 133.318C171.752 133.318 172.794 133.557 173.688 134.034C174.581 134.504 175.275 135.227 175.767 136.205C176.267 137.174 176.517 138.409 176.517 139.909V151H173.835V140.091C173.835 138.705 173.475 137.633 172.756 136.875C172.044 136.11 171.055 135.727 169.79 135.727C168.911 135.727 168.123 135.913 167.426 136.284C166.737 136.655 166.191 137.197 165.79 137.909C165.396 138.621 165.199 139.485 165.199 140.5ZM182.526 157.545C182.071 157.545 181.666 157.508 181.31 157.432C180.954 157.364 180.707 157.295 180.571 157.227L181.253 154.864C181.904 155.03 182.48 155.091 182.98 155.045C183.48 155 183.923 154.777 184.31 154.375C184.704 153.981 185.063 153.341 185.389 152.455L185.889 151.091L179.435 133.545H182.344L187.162 147.455H187.344L192.162 133.545H195.071L187.662 153.545C187.329 154.447 186.916 155.193 186.423 155.784C185.931 156.383 185.359 156.826 184.707 157.114C184.063 157.402 183.336 157.545 182.526 157.545ZM209.338 157.545C208.884 157.545 208.478 157.508 208.122 157.432C207.766 157.364 207.52 157.295 207.384 157.227L208.065 154.864C208.717 155.03 209.293 155.091 209.793 155.045C210.293 155 210.736 154.777 211.122 154.375C211.516 153.981 211.876 153.341 212.202 152.455L212.702 151.091L206.247 133.545H209.156L213.974 147.455H214.156L218.974 133.545H221.884L214.474 153.545C214.141 154.447 213.728 155.193 213.236 155.784C212.743 156.383 212.171 156.826 211.52 157.114C210.876 157.402 210.149 157.545 209.338 157.545ZM231.889 151.364C230.313 151.364 228.931 150.989 227.741 150.239C226.56 149.489 225.635 148.439 224.969 147.091C224.31 145.742 223.98 144.167 223.98 142.364C223.98 140.545 224.31 138.958 224.969 137.602C225.635 136.246 226.56 135.193 227.741 134.443C228.931 133.693 230.313 133.318 231.889 133.318C233.465 133.318 234.844 133.693 236.026 134.443C237.215 135.193 238.139 136.246 238.798 137.602C239.465 138.958 239.798 140.545 239.798 142.364C239.798 144.167 239.465 145.742 238.798 147.091C238.139 148.439 237.215 149.489 236.026 150.239C234.844 150.989 233.465 151.364 231.889 151.364ZM231.889 148.955C233.086 148.955 234.071 148.648 234.844 148.034C235.616 147.42 236.188 146.614 236.56 145.614C236.931 144.614 237.116 143.53 237.116 142.364C237.116 141.197 236.931 140.11 236.56 139.102C236.188 138.095 235.616 137.28 234.844 136.659C234.071 136.038 233.086 135.727 231.889 135.727C230.692 135.727 229.707 136.038 228.935 136.659C228.162 137.28 227.59 138.095 227.219 139.102C226.848 140.11 226.662 141.197 226.662 142.364C226.662 143.53 226.848 144.614 227.219 145.614C227.59 146.614 228.162 147.42 228.935 148.034C229.707 148.648 230.692 148.955 231.889 148.955ZM254.892 143.864V133.545H257.574V151H254.892V148.045H254.71C254.301 148.932 253.665 149.686 252.801 150.307C251.938 150.92 250.847 151.227 249.528 151.227C248.438 151.227 247.468 150.989 246.619 150.511C245.771 150.027 245.104 149.299 244.619 148.33C244.134 147.352 243.892 146.121 243.892 144.636V133.545H246.574V144.455C246.574 145.727 246.93 146.742 247.642 147.5C248.362 148.258 249.278 148.636 250.392 148.636C251.059 148.636 251.737 148.466 252.426 148.125C253.123 147.784 253.706 147.261 254.176 146.557C254.653 145.852 254.892 144.955 254.892 143.864ZM276.622 151.409C275.516 151.409 274.512 151.201 273.611 150.784C272.709 150.36 271.993 149.75 271.463 148.955C270.933 148.152 270.668 147.182 270.668 146.045C270.668 145.045 270.865 144.235 271.259 143.614C271.652 142.985 272.179 142.492 272.838 142.136C273.497 141.78 274.224 141.515 275.02 141.341C275.823 141.159 276.63 141.015 277.44 140.909C278.501 140.773 279.361 140.67 280.02 140.602C280.687 140.527 281.171 140.402 281.474 140.227C281.785 140.053 281.94 139.75 281.94 139.318V139.227C281.94 138.106 281.634 137.235 281.02 136.614C280.414 135.992 279.493 135.682 278.259 135.682C276.978 135.682 275.974 135.962 275.247 136.523C274.52 137.083 274.009 137.682 273.713 138.318L271.168 137.409C271.622 136.348 272.228 135.523 272.986 134.932C273.751 134.333 274.584 133.917 275.486 133.682C276.395 133.439 277.289 133.318 278.168 133.318C278.728 133.318 279.372 133.386 280.099 133.523C280.834 133.652 281.543 133.92 282.224 134.33C282.914 134.739 283.486 135.356 283.94 136.182C284.395 137.008 284.622 138.114 284.622 139.5V151H281.94V148.636H281.804C281.622 149.015 281.319 149.42 280.895 149.852C280.471 150.284 279.906 150.652 279.202 150.955C278.497 151.258 277.637 151.409 276.622 151.409ZM277.031 149C278.092 149 278.986 148.792 279.713 148.375C280.448 147.958 281.001 147.42 281.372 146.761C281.751 146.102 281.94 145.409 281.94 144.682V142.227C281.827 142.364 281.577 142.489 281.19 142.602C280.812 142.708 280.372 142.803 279.872 142.886C279.38 142.962 278.899 143.03 278.429 143.091C277.967 143.144 277.592 143.189 277.304 143.227C276.607 143.318 275.955 143.466 275.349 143.67C274.751 143.867 274.266 144.167 273.895 144.568C273.531 144.962 273.349 145.5 273.349 146.182C273.349 147.114 273.694 147.818 274.384 148.295C275.08 148.765 275.963 149 277.031 149ZM289.517 151V133.545H292.108V136.182H292.29C292.608 135.318 293.184 134.617 294.017 134.08C294.85 133.542 295.79 133.273 296.835 133.273C297.032 133.273 297.278 133.277 297.574 133.284C297.869 133.292 298.093 133.303 298.244 133.318V136.045C298.153 136.023 297.945 135.989 297.619 135.943C297.301 135.89 296.964 135.864 296.608 135.864C295.759 135.864 295.002 136.042 294.335 136.398C293.676 136.746 293.153 137.231 292.767 137.852C292.388 138.466 292.199 139.167 292.199 139.955V151H289.517ZM308.21 151.364C306.528 151.364 305.078 150.992 303.858 150.25C302.646 149.5 301.71 148.455 301.051 147.114C300.4 145.765 300.074 144.197 300.074 142.409C300.074 140.621 300.4 139.045 301.051 137.682C301.71 136.311 302.627 135.242 303.801 134.477C304.983 133.705 306.362 133.318 307.938 133.318C308.847 133.318 309.744 133.47 310.631 133.773C311.517 134.076 312.324 134.568 313.051 135.25C313.778 135.924 314.358 136.818 314.79 137.932C315.222 139.045 315.438 140.417 315.438 142.045V143.182H301.983V140.864H312.71C312.71 139.879 312.513 139 312.119 138.227C311.733 137.455 311.18 136.845 310.46 136.398C309.748 135.951 308.907 135.727 307.938 135.727C306.869 135.727 305.945 135.992 305.165 136.523C304.392 137.045 303.797 137.727 303.381 138.568C302.964 139.409 302.756 140.311 302.756 141.273V142.818C302.756 144.136 302.983 145.254 303.438 146.17C303.9 147.08 304.54 147.773 305.358 148.25C306.176 148.72 307.127 148.955 308.21 148.955C308.915 148.955 309.551 148.856 310.119 148.659C310.695 148.455 311.191 148.152 311.608 147.75C312.025 147.341 312.347 146.833 312.574 146.227L315.165 146.955C314.892 147.833 314.434 148.606 313.79 149.273C313.146 149.932 312.35 150.447 311.403 150.818C310.456 151.182 309.392 151.364 308.21 151.364ZM30.8182 190V166.727H38.6818C40.5 166.727 41.9924 167.038 43.1591 167.659C44.3258 168.273 45.1894 169.117 45.75 170.193C46.3106 171.269 46.5909 172.492 46.5909 173.864C46.5909 175.235 46.3106 176.451 45.75 177.511C45.1894 178.572 44.3295 179.405 43.1705 180.011C42.0114 180.61 40.5303 180.909 38.7273 180.909H32.3636V178.364H38.6364C39.8788 178.364 40.8788 178.182 41.6364 177.818C42.4015 177.455 42.9545 176.939 43.2955 176.273C43.6439 175.598 43.8182 174.795 43.8182 173.864C43.8182 172.932 43.6439 172.117 43.2955 171.42C42.947 170.723 42.3902 170.186 41.625 169.807C40.8598 169.42 39.8485 169.227 38.5909 169.227H33.6364V190H30.8182ZM41.7727 179.545L47.5 190H44.2273L38.5909 179.545H41.7727ZM54.1051 166.727V190H51.2869V166.727H54.1051ZM75.6648 174C75.4148 173.235 75.0852 172.549 74.6761 171.943C74.2746 171.33 73.7936 170.807 73.233 170.375C72.6799 169.943 72.0511 169.614 71.3466 169.386C70.642 169.159 69.8693 169.045 69.0284 169.045C67.6496 169.045 66.3958 169.402 65.267 170.114C64.1383 170.826 63.2405 171.875 62.5739 173.261C61.9072 174.648 61.5739 176.348 61.5739 178.364C61.5739 180.379 61.911 182.08 62.5852 183.466C63.2595 184.852 64.1723 185.902 65.3239 186.614C66.4754 187.326 67.7708 187.682 69.2102 187.682C70.5436 187.682 71.7178 187.398 72.733 186.83C73.7557 186.254 74.5511 185.443 75.1193 184.398C75.6951 183.345 75.983 182.106 75.983 180.682L76.8466 180.864H69.8466V178.364H78.7102V180.864C78.7102 182.78 78.3011 184.447 77.483 185.864C76.6723 187.28 75.5511 188.379 74.1193 189.159C72.6951 189.932 71.0587 190.318 69.2102 190.318C67.1496 190.318 65.339 189.833 63.7784 188.864C62.2254 187.894 61.0133 186.515 60.142 184.727C59.2784 182.939 58.8466 180.818 58.8466 178.364C58.8466 176.523 59.0928 174.867 59.5852 173.398C60.0852 171.92 60.7898 170.663 61.6989 169.625C62.608 168.587 63.6837 167.792 64.9261 167.239C66.1686 166.686 67.536 166.409 69.0284 166.409C70.2557 166.409 71.3996 166.595 72.4602 166.966C73.5284 167.33 74.4792 167.848 75.3125 168.523C76.1534 169.189 76.8542 169.989 77.4148 170.92C77.9754 171.845 78.3617 172.871 78.5739 174H75.6648ZM83.5369 190V166.727H86.3551V177.091H98.7642V166.727H101.582V190H98.7642V179.591H86.3551V190H83.5369ZM105.952 169.227V166.727H123.406V169.227H116.088V190H113.27V169.227H105.952ZM130.938 166.727L130.71 183.455H128.074L127.847 166.727H130.938ZM129.392 190.182C128.831 190.182 128.35 189.981 127.949 189.58C127.547 189.178 127.347 188.697 127.347 188.136C127.347 187.576 127.547 187.095 127.949 186.693C128.35 186.292 128.831 186.091 129.392 186.091C129.953 186.091 130.434 186.292 130.835 186.693C131.237 187.095 131.438 187.576 131.438 188.136C131.438 188.508 131.343 188.848 131.153 189.159C130.972 189.47 130.725 189.72 130.415 189.909C130.112 190.091 129.771 190.182 129.392 190.182ZM139.844 166.727L139.616 183.455H136.98L136.753 166.727H139.844ZM138.298 190.182C137.738 190.182 137.257 189.981 136.855 189.58C136.454 189.178 136.253 188.697 136.253 188.136C136.253 187.576 136.454 187.095 136.855 186.693C137.257 186.292 137.738 186.091 138.298 186.091C138.859 186.091 139.34 186.292 139.741 186.693C140.143 187.095 140.344 187.576 140.344 188.136C140.344 188.508 140.249 188.848 140.06 189.159C139.878 189.47 139.632 189.72 139.321 189.909C139.018 190.091 138.677 190.182 138.298 190.182Z" fill="black"/>
<circle cx="102.5" cy="46.5" r="13.125" stroke="#33363F" stroke-width="2"/>
<path d="M96.6663 46.5L101.041 50.875L108.333 42.125" stroke="#33363F" stroke-width="2"/>
<rect x="255" y="411" width="70" height="22" rx="11" fill="#B7B5E4"/>
<path d="M284.387 418V426H282.926L279.445 420.965H279.387V426H277.695V418H279.18L282.633 423.031H282.703V418H284.387ZM288.487 426.117C287.87 426.117 287.339 425.992 286.894 425.742C286.451 425.49 286.11 425.133 285.87 424.672C285.631 424.208 285.511 423.66 285.511 423.027C285.511 422.41 285.631 421.868 285.87 421.402C286.11 420.936 286.447 420.573 286.882 420.312C287.319 420.052 287.832 419.922 288.421 419.922C288.817 419.922 289.185 419.986 289.526 420.113C289.87 420.238 290.17 420.427 290.425 420.68C290.683 420.932 290.883 421.25 291.026 421.633C291.17 422.013 291.241 422.458 291.241 422.969V423.426H286.175V422.395H289.675C289.675 422.155 289.623 421.943 289.519 421.758C289.414 421.573 289.27 421.428 289.085 421.324C288.903 421.217 288.69 421.164 288.448 421.164C288.196 421.164 287.972 421.223 287.776 421.34C287.584 421.454 287.433 421.609 287.323 421.805C287.214 421.997 287.158 422.212 287.155 422.449V423.43C287.155 423.727 287.21 423.983 287.319 424.199C287.431 424.415 287.589 424.582 287.792 424.699C287.995 424.816 288.236 424.875 288.515 424.875C288.7 424.875 288.869 424.849 289.022 424.797C289.176 424.745 289.308 424.667 289.417 424.562C289.526 424.458 289.61 424.331 289.667 424.18L291.206 424.281C291.128 424.651 290.968 424.974 290.726 425.25C290.486 425.523 290.176 425.737 289.796 425.891C289.418 426.042 288.982 426.117 288.487 426.117ZM293.61 420L294.712 422.098L295.841 420H297.548L295.81 423L297.595 426H295.896L294.712 423.926L293.548 426H291.829L293.61 423L291.892 420H293.61ZM301.728 420V421.25H298.114V420H301.728ZM298.935 418.562H300.599V424.156C300.599 424.31 300.622 424.43 300.669 424.516C300.716 424.599 300.781 424.658 300.864 424.691C300.95 424.725 301.049 424.742 301.161 424.742C301.239 424.742 301.317 424.736 301.396 424.723C301.474 424.707 301.534 424.695 301.575 424.687L301.837 425.926C301.754 425.952 301.636 425.982 301.485 426.016C301.334 426.052 301.151 426.074 300.935 426.082C300.534 426.098 300.182 426.044 299.88 425.922C299.58 425.799 299.347 425.609 299.181 425.352C299.014 425.094 298.932 424.768 298.935 424.375V418.562Z" fill="white"/>
</svg>
