<svg width="171" height="48" viewBox="0 0 171 48" fill="none" xmlns="http://www.w3.org/2000/svg">
<path d="M52.2282 35.1455C49.482 33.6319 46.135 34.038 43.88 35.9331L40.4554 34.0441V24.7101C40.4554 23.7441 39.9127 22.8458 39.0339 22.3659L30.2464 17.5481V13.4195C33.1023 12.4966 35.157 9.92467 35.157 6.89127C35.157 3.08261 31.9199 0 27.9202 0C23.9206 0 20.6834 3.08261 20.6834 6.89127C20.6834 9.92467 22.7382 12.4966 25.5941 13.4195V17.5481L16.8066 22.3659C15.9278 22.8458 15.3851 23.7441 15.3851 24.7101V34.038L11.9605 35.9269C9.70547 34.0318 6.35199 33.6257 3.61234 35.1393C0.155478 37.0468 -1.0205 41.2554 0.963158 44.5472C2.95328 47.839 7.35351 48.9711 10.7975 47.0699C13.5436 45.5562 14.8488 42.5782 14.2608 39.7602L17.4075 38.0189L26.4923 43.0028C26.9317 43.2427 27.4227 43.3658 27.9138 43.3658C28.4049 43.3658 28.8959 43.2427 29.3353 43.0028L38.4136 38.0251L41.5603 39.7663C40.9723 42.5782 42.284 45.5624 45.0237 47.076C48.4676 48.9773 52.8743 47.8513 54.858 44.5533C56.8481 41.2554 55.6721 37.0468 52.2282 35.1455ZM8.74272 43.6611C8.39176 43.8547 8.00407 43.9803 7.60196 44.0306C7.19984 44.0809 6.79125 44.055 6.39969 43.9543C6.00814 43.8537 5.64135 43.6803 5.32045 43.4441C4.99955 43.208 4.73086 42.9137 4.52987 42.5782C3.67696 41.1692 4.18095 39.3602 5.66062 38.5481C6.01157 38.3545 6.39927 38.229 6.80138 38.1786C7.2035 38.1283 7.61209 38.1542 8.00365 38.2549C8.3952 38.3555 8.76199 38.5289 9.08289 38.7651C9.40379 39.0013 9.67247 39.2955 9.87347 39.631C10.7264 41.04 10.2224 42.849 8.74272 43.6611ZM24.8123 6.89127C24.8289 6.11842 25.1629 5.38254 25.7427 4.84155C26.3226 4.30055 27.102 3.99755 27.9138 3.99755C28.7256 3.99755 29.505 4.30055 30.0848 4.84155C30.6647 5.38254 30.9987 6.11842 31.0153 6.89127C30.9987 7.66413 30.6647 8.4 30.0848 8.941C29.505 9.48199 28.7256 9.785 27.9138 9.785C27.102 9.785 26.3226 9.48199 25.7427 8.941C25.1629 8.4 24.8289 7.66413 24.8123 6.89127ZM35.7967 34.3456L27.9138 38.6711L20.0308 34.3456V25.7069L27.9138 21.3814L35.7967 25.7069V34.3456ZM51.2977 42.5844C50.4448 43.9934 48.5581 44.4795 47.0849 43.6673C45.6116 42.8551 45.1012 41.0462 45.9541 39.6371C46.807 38.2281 48.6938 37.742 50.167 38.5542C51.6466 39.3664 52.1506 41.1692 51.2977 42.5844Z" fill="#A39EDA"/>
<path d="M92.3101 38H85.5767L74.7075 19.0986H74.5537C74.5993 19.8848 74.6392 20.6766 74.6733 21.4741C74.7075 22.2716 74.7417 23.0692 74.7759 23.8667C74.8101 24.6528 74.8442 25.4447 74.8784 26.2422V38H70.1445V13.0146H76.8267L87.6787 31.728H87.7983C87.7756 30.9533 87.7471 30.1842 87.7129 29.4209C87.6787 28.6576 87.6445 27.8942 87.6104 27.1309C87.5876 26.3675 87.5648 25.6042 87.542 24.8408V13.0146H92.3101V38ZM106.033 18.5005C108.597 18.5005 110.562 19.0588 111.929 20.1753C113.296 21.2918 113.98 22.9894 113.98 25.2681V38H110.34L109.332 35.4023H109.195C108.648 36.0859 108.09 36.6442 107.52 37.0771C106.95 37.5101 106.295 37.8291 105.555 38.0342C104.814 38.2393 103.914 38.3418 102.854 38.3418C101.727 38.3418 100.713 38.1253 99.8125 37.6924C98.9238 37.2594 98.2231 36.5986 97.7104 35.71C97.1978 34.8099 96.9414 33.6706 96.9414 32.292C96.9414 30.264 97.6535 28.7715 99.0776 27.8145C100.502 26.846 102.638 26.3105 105.486 26.208L108.802 26.1055V25.2681C108.802 24.2655 108.54 23.5306 108.016 23.0635C107.492 22.5964 106.762 22.3628 105.828 22.3628C104.905 22.3628 104 22.4938 103.111 22.7559C102.222 23.0179 101.333 23.3483 100.445 23.7471L98.7188 20.2266C99.7327 19.6911 100.866 19.2695 102.12 18.9619C103.384 18.6543 104.689 18.5005 106.033 18.5005ZM108.802 29.1475L106.785 29.2158C105.099 29.2614 103.925 29.5633 103.265 30.1216C102.615 30.6799 102.291 31.4147 102.291 32.3262C102.291 33.1237 102.524 33.6934 102.991 34.0352C103.458 34.3656 104.068 34.5308 104.82 34.5308C105.936 34.5308 106.876 34.2004 107.64 33.5396C108.414 32.8787 108.802 31.9388 108.802 30.7197V29.1475ZM141.802 18.5347C143.967 18.5347 145.602 19.0929 146.707 20.2095C147.824 21.3146 148.382 23.092 148.382 25.5415V38H143.152V26.8403C143.152 25.4731 142.919 24.4421 142.452 23.7471C141.985 23.0521 141.261 22.7046 140.281 22.7046C138.903 22.7046 137.923 23.2002 137.342 24.1914C136.761 25.1712 136.47 26.5783 136.47 28.4126V38H131.258V26.8403C131.258 25.9289 131.155 25.1655 130.95 24.5503C130.745 23.9351 130.432 23.4736 130.01 23.166C129.589 22.8584 129.048 22.7046 128.387 22.7046C127.418 22.7046 126.655 22.9495 126.097 23.4395C125.55 23.918 125.157 24.63 124.917 25.5757C124.69 26.5099 124.576 27.6549 124.576 29.0107V38H119.363V18.8936H123.345L124.046 21.3374H124.336C124.724 20.6766 125.208 20.1411 125.789 19.731C126.382 19.3208 127.031 19.0189 127.737 18.8252C128.444 18.6315 129.161 18.5347 129.891 18.5347C131.292 18.5347 132.477 18.7625 133.445 19.2183C134.425 19.674 135.177 20.3804 135.701 21.3374H136.163C136.732 20.3576 137.535 19.6455 138.572 19.2012C139.62 18.7568 140.697 18.5347 141.802 18.5347ZM161.626 18.5347C163.392 18.5347 164.913 18.8765 166.189 19.5601C167.465 20.2323 168.451 21.2121 169.146 22.4995C169.841 23.7869 170.188 25.3592 170.188 27.2163V29.7456H157.867C157.924 31.2153 158.362 32.3717 159.183 33.2148C160.014 34.0465 161.165 34.4624 162.635 34.4624C163.854 34.4624 164.97 34.3371 165.984 34.0864C166.998 33.8358 168.041 33.4598 169.112 32.9585V36.9917C168.166 37.4588 167.175 37.8006 166.138 38.0171C165.113 38.2336 163.865 38.3418 162.396 38.3418C160.481 38.3418 158.784 37.9886 157.303 37.2822C155.833 36.5758 154.677 35.4992 153.833 34.0522C153.002 32.6053 152.586 30.7824 152.586 28.5835C152.586 26.3504 152.962 24.4933 153.714 23.0122C154.477 21.5197 155.537 20.4032 156.893 19.6626C158.248 18.9106 159.826 18.5347 161.626 18.5347ZM161.661 22.2432C160.647 22.2432 159.804 22.5679 159.131 23.2173C158.471 23.8667 158.089 24.8864 157.986 26.2764H165.301C165.289 25.5016 165.147 24.8123 164.874 24.2085C164.611 23.6047 164.213 23.1261 163.677 22.7729C163.153 22.4198 162.481 22.2432 161.661 22.2432Z" fill="black"/>
</svg>
