<svg width="608" height="39" viewBox="0 0 608 39" fill="none" xmlns="http://www.w3.org/2000/svg">
<rect width="608" height="39" fill="#ECEBEB"/>
<rect x="9.7" y="15.7" width="12.6" height="12.6" rx="1.3" fill="#ECEBEB" stroke="black" stroke-width="1.4"/>
<path d="M44.5235 17.9155C45.1069 16.4611 45.3986 15.7339 45.9002 15.7339C46.4018 15.7339 46.6935 16.4611 47.2769 17.9155L47.3041 17.9832C47.6337 18.8049 47.7985 19.2157 48.1344 19.4654C48.4702 19.7151 48.9111 19.7546 49.7929 19.8336L49.9523 19.8479C51.3954 19.9771 52.117 20.0417 52.2714 20.5008C52.4258 20.9599 51.8899 21.4474 50.8182 22.4225L50.4605 22.7479C49.918 23.2415 49.6467 23.4883 49.5203 23.8118C49.4967 23.8721 49.4771 23.9339 49.4616 23.9968C49.3785 24.334 49.4579 24.6921 49.6168 25.4081L49.6662 25.631C49.9582 26.947 50.1042 27.605 49.8493 27.8888C49.7541 27.9948 49.6303 28.0712 49.4927 28.1087C49.1247 28.2091 48.6022 27.7834 47.5573 26.9319C46.8711 26.3727 46.528 26.0932 46.1341 26.0303C45.9792 26.0055 45.8213 26.0055 45.6664 26.0303C45.2725 26.0932 44.9294 26.3727 44.2432 26.9319C43.1982 27.7834 42.6757 28.2091 42.3077 28.1087C42.1702 28.0712 42.0464 27.9948 41.9512 27.8888C41.6963 27.605 41.8423 26.947 42.1342 25.631L42.1837 25.4081C42.3426 24.6921 42.422 24.334 42.3389 23.9968C42.3234 23.9339 42.3038 23.8721 42.2802 23.8118C42.1538 23.4883 41.8825 23.2415 41.34 22.7479L40.9823 22.4225C39.9105 21.4474 39.3747 20.9599 39.5291 20.5008C39.6835 20.0417 40.405 19.9771 41.8482 19.8479L42.0076 19.8336C42.8894 19.7546 43.3302 19.7151 43.6661 19.4654C44.002 19.2157 44.1668 18.8049 44.4964 17.9832L44.5235 17.9155Z" stroke="#33363F" stroke-width="2"/>
<path d="M67.7585 27V18.2727H73.5369V19.794H69.6037V21.8736H73.1534V23.3949H69.6037V27H67.7585ZM78.5312 24.2131V20.4545H80.3466V27H78.6037V25.8111H78.5355C78.3878 26.1946 78.142 26.5028 77.7983 26.7358C77.4574 26.9687 77.0412 27.0852 76.5497 27.0852C76.1122 27.0852 75.7273 26.9858 75.3949 26.7869C75.0625 26.5881 74.8026 26.3054 74.6151 25.9389C74.4304 25.5724 74.3366 25.1335 74.3338 24.6222V20.4545H76.1491V24.2983C76.152 24.6847 76.2557 24.9901 76.4602 25.2145C76.6648 25.4389 76.9389 25.5511 77.2827 25.5511C77.5014 25.5511 77.706 25.5014 77.8963 25.402C78.0866 25.2997 78.2401 25.1491 78.3565 24.9503C78.4759 24.7514 78.5341 24.5057 78.5312 24.2131ZM85.2802 20.4545V21.8182H81.3384V20.4545H85.2802ZM82.2333 18.8864H84.0487V24.9886C84.0487 25.1562 84.0742 25.2869 84.1254 25.3807C84.1765 25.4716 84.2475 25.5355 84.3384 25.5724C84.4322 25.6094 84.5401 25.6278 84.6623 25.6278C84.7475 25.6278 84.8327 25.6207 84.918 25.6065C85.0032 25.5895 85.0685 25.5767 85.114 25.5682L85.3995 26.919C85.3086 26.9474 85.1808 26.9801 85.016 27.017C84.8512 27.0568 84.6509 27.081 84.4151 27.0895C83.9776 27.1065 83.5941 27.0483 83.2646 26.9148C82.9379 26.7812 82.6836 26.5739 82.5018 26.2926C82.32 26.0114 82.2305 25.6562 82.2333 25.2273V18.8864ZM90.6602 24.2131V20.4545H92.4755V27H90.7326V25.8111H90.6644C90.5167 26.1946 90.271 26.5028 89.9272 26.7358C89.5863 26.9687 89.1701 27.0852 88.6786 27.0852C88.2411 27.0852 87.8562 26.9858 87.5238 26.7869C87.1914 26.5881 86.9315 26.3054 86.744 25.9389C86.5593 25.5724 86.4656 25.1335 86.4627 24.6222V20.4545H88.2781V24.2983C88.2809 24.6847 88.3846 24.9901 88.5891 25.2145C88.7937 25.4389 89.0678 25.5511 89.4116 25.5511C89.6303 25.5511 89.8349 25.5014 90.0252 25.402C90.2156 25.2997 90.369 25.1491 90.4854 24.9503C90.6048 24.7514 90.663 24.5057 90.6602 24.2131ZM93.9276 27V20.4545H95.6875V21.5966H95.7557C95.875 21.1903 96.0753 20.8835 96.3565 20.6761C96.6378 20.4659 96.9616 20.3608 97.3281 20.3608C97.419 20.3608 97.517 20.3665 97.6222 20.3778C97.7273 20.3892 97.8196 20.4048 97.8991 20.4247V22.0355C97.8139 22.0099 97.696 21.9872 97.5455 21.9673C97.3949 21.9474 97.2571 21.9375 97.1321 21.9375C96.8651 21.9375 96.6264 21.9957 96.4162 22.1122C96.2088 22.2259 96.044 22.3849 95.9219 22.5895C95.8026 22.794 95.7429 23.0298 95.7429 23.2969V27H93.9276ZM101.516 27.1278C100.843 27.1278 100.263 26.9915 99.7773 26.7188C99.2944 26.4432 98.9222 26.054 98.6609 25.5511C98.3995 25.0455 98.2688 24.4474 98.2688 23.7571C98.2688 23.0838 98.3995 22.4929 98.6609 21.9844C98.9222 21.4759 99.2901 21.0795 99.7646 20.7955C100.242 20.5114 100.801 20.3693 101.444 20.3693C101.875 20.3693 102.277 20.4389 102.65 20.5781C103.025 20.7145 103.351 20.9205 103.63 21.196C103.911 21.4716 104.13 21.8182 104.286 22.2358C104.442 22.6506 104.52 23.1364 104.52 23.6932V24.1918H98.9933V23.0668H102.811C102.811 22.8054 102.755 22.5739 102.641 22.3722C102.527 22.1705 102.37 22.0128 102.168 21.8991C101.969 21.7827 101.738 21.7244 101.473 21.7244C101.198 21.7244 100.953 21.7884 100.74 21.9162C100.53 22.0412 100.365 22.2102 100.246 22.4233C100.127 22.6335 100.066 22.8679 100.063 23.1264V24.196C100.063 24.5199 100.123 24.7997 100.242 25.0355C100.364 25.2713 100.536 25.4531 100.757 25.581C100.979 25.7088 101.242 25.7727 101.546 25.7727C101.748 25.7727 101.932 25.7443 102.1 25.6875C102.267 25.6307 102.411 25.5455 102.53 25.4318C102.65 25.3182 102.74 25.179 102.803 25.0142L104.482 25.125C104.397 25.5284 104.222 25.8807 103.958 26.1818C103.696 26.4801 103.358 26.7131 102.944 26.8807C102.532 27.0455 102.056 27.1278 101.516 27.1278ZM105.739 27V18.2727H111.517V19.794H107.584V21.8736H111.134V23.3949H107.584V27H105.739ZM115.201 27.1278C114.539 27.1278 113.967 26.9872 113.484 26.706C113.004 26.4219 112.633 26.027 112.372 25.5213C112.11 25.0128 111.98 24.4233 111.98 23.7528C111.98 23.0767 112.11 22.4858 112.372 21.9801C112.633 21.4716 113.004 21.0767 113.484 20.7955C113.967 20.5114 114.539 20.3693 115.201 20.3693C115.863 20.3693 116.434 20.5114 116.914 20.7955C117.397 21.0767 117.77 21.4716 118.031 21.9801C118.292 22.4858 118.423 23.0767 118.423 23.7528C118.423 24.4233 118.292 25.0128 118.031 25.5213C117.77 26.027 117.397 26.4219 116.914 26.706C116.434 26.9872 115.863 27.1278 115.201 27.1278ZM115.21 25.7216C115.511 25.7216 115.762 25.6364 115.964 25.4659C116.166 25.2926 116.318 25.0568 116.42 24.7585C116.525 24.4602 116.578 24.1207 116.578 23.7401C116.578 23.3594 116.525 23.0199 116.42 22.7216C116.318 22.4233 116.166 22.1875 115.964 22.0142C115.762 21.8409 115.511 21.7543 115.21 21.7543C114.906 21.7543 114.65 21.8409 114.443 22.0142C114.238 22.1875 114.083 22.4233 113.978 22.7216C113.876 23.0199 113.825 23.3594 113.825 23.7401C113.825 24.1207 113.876 24.4602 113.978 24.7585C114.083 25.0568 114.238 25.2926 114.443 25.4659C114.65 25.6364 114.906 25.7216 115.21 25.7216ZM119.603 27V20.4545H121.363V21.5966H121.431C121.551 21.1903 121.751 20.8835 122.032 20.6761C122.314 20.4659 122.637 20.3608 123.004 20.3608C123.095 20.3608 123.193 20.3665 123.298 20.3778C123.403 20.3892 123.495 20.4048 123.575 20.4247V22.0355C123.49 22.0099 123.372 21.9872 123.221 21.9673C123.071 21.9474 122.933 21.9375 122.808 21.9375C122.541 21.9375 122.302 21.9957 122.092 22.1122C121.885 22.2259 121.72 22.3849 121.598 22.5895C121.478 22.794 121.419 23.0298 121.419 23.2969V27H119.603ZM127.166 27.1278C126.496 27.1278 125.919 26.9858 125.436 26.7017C124.956 26.4148 124.587 26.017 124.328 25.5085C124.072 25 123.945 24.4148 123.945 23.7528C123.945 23.0824 124.074 22.4943 124.332 21.9886C124.594 21.4801 124.964 21.0838 125.445 20.7997C125.925 20.5128 126.496 20.3693 127.158 20.3693C127.729 20.3693 128.229 20.473 128.658 20.6804C129.087 20.8878 129.426 21.179 129.676 21.554C129.926 21.929 130.064 22.3693 130.089 22.875H128.376C128.328 22.5483 128.2 22.2855 127.993 22.0866C127.788 21.8849 127.52 21.7841 127.188 21.7841C126.906 21.7841 126.661 21.8608 126.45 22.0142C126.243 22.1648 126.081 22.3849 125.964 22.6747C125.848 22.9645 125.79 23.3153 125.79 23.7273C125.79 24.1449 125.847 24.5 125.96 24.7926C126.077 25.0852 126.24 25.3082 126.45 25.4616C126.661 25.6151 126.906 25.6918 127.188 25.6918C127.395 25.6918 127.581 25.6491 127.746 25.5639C127.913 25.4787 128.051 25.3551 128.159 25.1932C128.27 25.0284 128.342 24.831 128.376 24.6009H130.089C130.061 25.1009 129.925 25.5412 129.68 25.9219C129.439 26.2997 129.105 26.5952 128.679 26.8082C128.253 27.0213 127.749 27.1278 127.166 27.1278ZM134.235 27.1278C133.561 27.1278 132.982 26.9915 132.496 26.7188C132.013 26.4432 131.641 26.054 131.38 25.5511C131.118 25.0455 130.988 24.4474 130.988 23.7571C130.988 23.0838 131.118 22.4929 131.38 21.9844C131.641 21.4759 132.009 21.0795 132.483 20.7955C132.961 20.5114 133.52 20.3693 134.162 20.3693C134.594 20.3693 134.996 20.4389 135.368 20.5781C135.743 20.7145 136.07 20.9205 136.348 21.196C136.63 21.4716 136.848 21.8182 137.005 22.2358C137.161 22.6506 137.239 23.1364 137.239 23.6932V24.1918H131.712V23.0668H135.53C135.53 22.8054 135.473 22.5739 135.36 22.3722C135.246 22.1705 135.088 22.0128 134.887 21.8991C134.688 21.7827 134.456 21.7244 134.192 21.7244C133.917 21.7244 133.672 21.7884 133.459 21.9162C133.249 22.0412 133.084 22.2102 132.965 22.4233C132.846 22.6335 132.784 22.8679 132.782 23.1264V24.196C132.782 24.5199 132.841 24.7997 132.961 25.0355C133.083 25.2713 133.255 25.4531 133.476 25.581C133.698 25.7088 133.961 25.7727 134.265 25.7727C134.466 25.7727 134.651 25.7443 134.819 25.6875C134.986 25.6307 135.13 25.5455 135.249 25.4318C135.368 25.3182 135.459 25.179 135.522 25.0142L137.201 25.125C137.115 25.5284 136.941 25.8807 136.676 26.1818C136.415 26.4801 136.077 26.7131 135.662 26.8807C135.25 27.0455 134.775 27.1278 134.235 27.1278Z" fill="black"/>
<path d="M149.247 18.2727H151.314L153.304 22.0312H153.389L155.379 18.2727H157.446L154.263 23.9148V27H152.43V23.9148L149.247 18.2727ZM160.006 27.1278C159.344 27.1278 158.772 26.9872 158.289 26.706C157.809 26.4219 157.438 26.027 157.176 25.5213C156.915 25.0128 156.784 24.4233 156.784 23.7528C156.784 23.0767 156.915 22.4858 157.176 21.9801C157.438 21.4716 157.809 21.0767 158.289 20.7955C158.772 20.5114 159.344 20.3693 160.006 20.3693C160.668 20.3693 161.239 20.5114 161.719 20.7955C162.202 21.0767 162.574 21.4716 162.836 21.9801C163.097 22.4858 163.228 23.0767 163.228 23.7528C163.228 24.4233 163.097 25.0128 162.836 25.5213C162.574 26.027 162.202 26.4219 161.719 26.706C161.239 26.9872 160.668 27.1278 160.006 27.1278ZM160.015 25.7216C160.316 25.7216 160.567 25.6364 160.769 25.4659C160.971 25.2926 161.123 25.0568 161.225 24.7585C161.33 24.4602 161.382 24.1207 161.382 23.7401C161.382 23.3594 161.33 23.0199 161.225 22.7216C161.123 22.4233 160.971 22.1875 160.769 22.0142C160.567 21.8409 160.316 21.7543 160.015 21.7543C159.711 21.7543 159.455 21.8409 159.248 22.0142C159.043 22.1875 158.888 22.4233 158.783 22.7216C158.681 23.0199 158.63 23.3594 158.63 23.7401C158.63 24.1207 158.681 24.4602 158.783 24.7585C158.888 25.0568 159.043 25.2926 159.248 25.4659C159.455 25.6364 159.711 25.7216 160.015 25.7216ZM168.605 24.2131V20.4545H170.421V27H168.678V25.8111H168.61C168.462 26.1946 168.216 26.5028 167.873 26.7358C167.532 26.9687 167.115 27.0852 166.624 27.0852C166.186 27.0852 165.801 26.9858 165.469 26.7869C165.137 26.5881 164.877 26.3054 164.689 25.9389C164.505 25.5724 164.411 25.1335 164.408 24.6222V20.4545H166.223V24.2983C166.226 24.6847 166.33 24.9901 166.534 25.2145C166.739 25.4389 167.013 25.5511 167.357 25.5511C167.576 25.5511 167.78 25.5014 167.971 25.402C168.161 25.2997 168.314 25.1491 168.431 24.9503C168.55 24.7514 168.608 24.5057 168.605 24.2131ZM171.873 27V20.4545H173.633V21.5966H173.701C173.82 21.1903 174.021 20.8835 174.302 20.6761C174.583 20.4659 174.907 20.3608 175.273 20.3608C175.364 20.3608 175.462 20.3665 175.567 20.3778C175.673 20.3892 175.765 20.4048 175.844 20.4247V22.0355C175.759 22.0099 175.641 21.9872 175.491 21.9673C175.34 21.9474 175.202 21.9375 175.077 21.9375C174.81 21.9375 174.572 21.9957 174.362 22.1122C174.154 22.2259 173.989 22.3849 173.867 22.5895C173.748 22.794 173.688 23.0298 173.688 23.2969V27H171.873ZM181.376 18.2727V27H179.56V18.2727H181.376ZM184.696 27.1236C184.279 27.1236 183.907 27.0511 183.58 26.9062C183.253 26.7585 182.995 26.5412 182.804 26.2543C182.617 25.9645 182.523 25.6037 182.523 25.1719C182.523 24.8082 182.59 24.5028 182.723 24.2557C182.857 24.0085 183.039 23.8097 183.269 23.6591C183.499 23.5085 183.76 23.3949 184.053 23.3182C184.348 23.2415 184.658 23.1875 184.982 23.1562C185.363 23.1165 185.669 23.0795 185.902 23.0455C186.135 23.0085 186.304 22.9545 186.409 22.8835C186.515 22.8125 186.567 22.7074 186.567 22.5682V22.5426C186.567 22.2727 186.482 22.0639 186.311 21.9162C186.144 21.7685 185.905 21.6946 185.596 21.6946C185.269 21.6946 185.009 21.767 184.816 21.9119C184.623 22.054 184.495 22.233 184.432 22.4489L182.753 22.3125C182.838 21.9148 183.006 21.571 183.256 21.2812C183.506 20.9886 183.828 20.7642 184.223 20.608C184.621 20.4489 185.081 20.3693 185.604 20.3693C185.968 20.3693 186.316 20.4119 186.648 20.4972C186.983 20.5824 187.28 20.7145 187.539 20.8935C187.8 21.0724 188.006 21.3026 188.157 21.5838C188.307 21.8622 188.382 22.196 188.382 22.5852V27H186.661V26.0923H186.61C186.505 26.2969 186.364 26.4773 186.188 26.6335C186.012 26.7869 185.8 26.9077 185.553 26.9957C185.306 27.081 185.02 27.1236 184.696 27.1236ZM185.216 25.8707C185.483 25.8707 185.719 25.8182 185.924 25.7131C186.128 25.6051 186.289 25.4602 186.405 25.2784C186.522 25.0966 186.58 24.8906 186.58 24.6605V23.9659C186.523 24.0028 186.445 24.0369 186.346 24.0682C186.249 24.0966 186.14 24.1236 186.017 24.1491C185.895 24.1719 185.773 24.1932 185.651 24.2131C185.529 24.2301 185.418 24.2457 185.319 24.2599C185.105 24.2912 184.919 24.3409 184.76 24.4091C184.601 24.4773 184.478 24.5696 184.39 24.6861C184.301 24.7997 184.257 24.9418 184.257 25.1122C184.257 25.3594 184.347 25.5483 184.526 25.679C184.708 25.8068 184.938 25.8707 185.216 25.8707ZM189.791 29.4545V20.4545H191.581V21.554H191.662C191.741 21.3778 191.856 21.1989 192.007 21.017C192.16 20.8324 192.359 20.679 192.603 20.5568C192.85 20.4318 193.157 20.3693 193.524 20.3693C194.001 20.3693 194.441 20.4943 194.845 20.7443C195.248 20.9915 195.571 21.3651 195.812 21.8651C196.054 22.3622 196.174 22.9858 196.174 23.7358C196.174 24.4659 196.056 25.0824 195.821 25.5852C195.588 26.0852 195.27 26.4645 194.866 26.723C194.466 26.9787 194.017 27.1065 193.52 27.1065C193.167 27.1065 192.868 27.0483 192.62 26.9318C192.376 26.8153 192.176 26.669 192.02 26.4929C191.863 26.3139 191.744 26.1335 191.662 25.9517H191.606V29.4545H189.791ZM191.568 23.7273C191.568 24.1165 191.622 24.456 191.73 24.7457C191.838 25.0355 191.994 25.2614 192.199 25.4233C192.403 25.5824 192.652 25.6619 192.944 25.6619C193.24 25.6619 193.49 25.581 193.694 25.419C193.899 25.2543 194.054 25.027 194.159 24.7372C194.267 24.4446 194.321 24.108 194.321 23.7273C194.321 23.3494 194.268 23.017 194.163 22.7301C194.058 22.4432 193.903 22.2187 193.699 22.0568C193.494 21.8949 193.243 21.8139 192.944 21.8139C192.649 21.8139 192.399 21.892 192.194 22.0483C191.993 22.2045 191.838 22.4261 191.73 22.7131C191.622 23 191.568 23.3381 191.568 23.7273ZM200.866 20.4545V21.8182H196.924V20.4545H200.866ZM197.819 18.8864H199.635V24.9886C199.635 25.1562 199.66 25.2869 199.711 25.3807C199.762 25.4716 199.833 25.5355 199.924 25.5724C200.018 25.6094 200.126 25.6278 200.248 25.6278C200.333 25.6278 200.419 25.6207 200.504 25.6065C200.589 25.5895 200.654 25.5767 200.7 25.5682L200.985 26.919C200.895 26.9474 200.767 26.9801 200.602 27.017C200.437 27.0568 200.237 27.081 200.001 27.0895C199.564 27.1065 199.18 27.0483 198.85 26.9148C198.524 26.7812 198.27 26.5739 198.088 26.2926C197.906 26.0114 197.816 25.6562 197.819 25.2273V18.8864ZM204.936 27.1278C204.274 27.1278 203.701 26.9872 203.218 26.706C202.738 26.4219 202.368 26.027 202.106 25.5213C201.845 25.0128 201.714 24.4233 201.714 23.7528C201.714 23.0767 201.845 22.4858 202.106 21.9801C202.368 21.4716 202.738 21.0767 203.218 20.7955C203.701 20.5114 204.274 20.3693 204.936 20.3693C205.598 20.3693 206.169 20.5114 206.649 20.7955C207.132 21.0767 207.504 21.4716 207.765 21.9801C208.027 22.4858 208.157 23.0767 208.157 23.7528C208.157 24.4233 208.027 25.0128 207.765 25.5213C207.504 26.027 207.132 26.4219 206.649 26.706C206.169 26.9872 205.598 27.1278 204.936 27.1278ZM204.944 25.7216C205.245 25.7216 205.497 25.6364 205.699 25.4659C205.9 25.2926 206.052 25.0568 206.154 24.7585C206.26 24.4602 206.312 24.1207 206.312 23.7401C206.312 23.3594 206.26 23.0199 206.154 22.7216C206.052 22.4233 205.9 22.1875 205.699 22.0142C205.497 21.8409 205.245 21.7543 204.944 21.7543C204.64 21.7543 204.385 21.8409 204.177 22.0142C203.973 22.1875 203.818 22.4233 203.713 22.7216C203.61 23.0199 203.559 23.3594 203.559 23.7401C203.559 24.1207 203.61 24.4602 203.713 24.7585C203.818 25.0568 203.973 25.2926 204.177 25.4659C204.385 25.6364 204.64 25.7216 204.944 25.7216ZM209.338 29.4545V20.4545H211.127V21.554H211.208C211.288 21.3778 211.403 21.1989 211.554 21.017C211.707 20.8324 211.906 20.679 212.15 20.5568C212.397 20.4318 212.704 20.3693 213.071 20.3693C213.548 20.3693 213.988 20.4943 214.392 20.7443C214.795 20.9915 215.118 21.3651 215.359 21.8651C215.6 22.3622 215.721 22.9858 215.721 23.7358C215.721 24.4659 215.603 25.0824 215.368 25.5852C215.135 26.0852 214.816 26.4645 214.413 26.723C214.012 26.9787 213.564 27.1065 213.066 27.1065C212.714 27.1065 212.414 27.0483 212.167 26.9318C211.923 26.8153 211.723 26.669 211.566 26.4929C211.41 26.3139 211.291 26.1335 211.208 25.9517H211.153V29.4545H209.338ZM211.115 23.7273C211.115 24.1165 211.169 24.456 211.277 24.7457C211.385 25.0355 211.541 25.2614 211.745 25.4233C211.95 25.5824 212.199 25.6619 212.491 25.6619C212.787 25.6619 213.037 25.581 213.241 25.419C213.446 25.2543 213.6 25.027 213.706 24.7372C213.814 24.4446 213.868 24.108 213.868 23.7273C213.868 23.3494 213.815 23.017 213.71 22.7301C213.605 22.4432 213.45 22.2187 213.245 22.0568C213.041 21.8949 212.789 21.8139 212.491 21.8139C212.196 21.8139 211.946 21.892 211.741 22.0483C211.539 22.2045 211.385 22.4261 211.277 22.7131C211.169 23 211.115 23.3381 211.115 23.7273ZM221 27L219.219 20.4545H221.055L222.07 24.8523H222.129L223.186 20.4545H224.989L226.062 24.8267H226.118L227.115 20.4545H228.947L227.17 27H225.249L224.124 22.8835H224.043L222.918 27H221ZM229.916 27V20.4545H231.731V27H229.916ZM230.828 19.6108C230.558 19.6108 230.326 19.5213 230.133 19.3423C229.943 19.1605 229.848 18.9432 229.848 18.6903C229.848 18.4403 229.943 18.2259 230.133 18.0469C230.326 17.8651 230.558 17.7741 230.828 17.7741C231.098 17.7741 231.328 17.8651 231.518 18.0469C231.711 18.2259 231.808 18.4403 231.808 18.6903C231.808 18.9432 231.711 19.1605 231.518 19.3423C231.328 19.5213 231.098 19.6108 230.828 19.6108ZM235.001 18.2727V27H233.185V18.2727H235.001ZM238.27 18.2727V27H236.455V18.2727H238.27ZM247.948 22.321L246.286 22.4233C246.257 22.2812 246.196 22.1534 246.103 22.0398C246.009 21.9233 245.885 21.831 245.732 21.7628C245.581 21.6918 245.401 21.6562 245.191 21.6562C244.909 21.6562 244.672 21.7159 244.479 21.8352C244.286 21.9517 244.189 22.108 244.189 22.304C244.189 22.4602 244.252 22.5923 244.377 22.7003C244.502 22.8082 244.716 22.8949 245.02 22.9602L246.205 23.1989C246.841 23.3295 247.316 23.5398 247.628 23.8295C247.941 24.1193 248.097 24.5 248.097 24.9716C248.097 25.4006 247.971 25.777 247.718 26.1009C247.468 26.4247 247.124 26.6776 246.686 26.8594C246.252 27.0384 245.75 27.1278 245.182 27.1278C244.316 27.1278 243.625 26.9474 243.111 26.5866C242.6 26.223 242.3 25.7287 242.212 25.1037L243.998 25.0099C244.051 25.2741 244.182 25.4759 244.39 25.6151C244.597 25.7514 244.863 25.8196 245.186 25.8196C245.505 25.8196 245.76 25.7585 245.953 25.6364C246.15 25.5114 246.249 25.3509 246.252 25.1548C246.249 24.9901 246.179 24.8551 246.043 24.75C245.907 24.642 245.696 24.5597 245.412 24.5028L244.279 24.277C243.64 24.1491 243.164 23.9276 242.851 23.6122C242.542 23.2969 242.387 22.8949 242.387 22.4062C242.387 21.9858 242.5 21.6236 242.728 21.3196C242.958 21.0156 243.28 20.7812 243.695 20.6165C244.113 20.4517 244.601 20.3693 245.161 20.3693C245.988 20.3693 246.638 20.544 247.113 20.8935C247.59 21.2429 247.868 21.7187 247.948 22.321ZM251.055 23.2159V27H249.24V18.2727H251.004V21.6094H251.081C251.229 21.223 251.467 20.9205 251.797 20.7017C252.126 20.4801 252.54 20.3693 253.037 20.3693C253.491 20.3693 253.888 20.4688 254.226 20.6676C254.567 20.8636 254.831 21.1463 255.018 21.5156C255.209 21.8821 255.303 22.321 255.3 22.8324V27H253.484V23.1562C253.487 22.7528 253.385 22.4389 253.178 22.2145C252.973 21.9901 252.686 21.8778 252.317 21.8778C252.07 21.8778 251.851 21.9304 251.661 22.0355C251.473 22.1406 251.325 22.294 251.217 22.4957C251.112 22.6946 251.058 22.9347 251.055 23.2159ZM260.926 24.2131V20.4545H262.741V27H260.998V25.8111H260.93C260.782 26.1946 260.537 26.5028 260.193 26.7358C259.852 26.9687 259.436 27.0852 258.944 27.0852C258.507 27.0852 258.122 26.9858 257.789 26.7869C257.457 26.5881 257.197 26.3054 257.01 25.9389C256.825 25.5724 256.731 25.1335 256.728 24.6222V20.4545H258.544V24.2983C258.547 24.6847 258.65 24.9901 258.855 25.2145C259.059 25.4389 259.333 25.5511 259.677 25.5511C259.896 25.5511 260.1 25.5014 260.291 25.402C260.481 25.2997 260.635 25.1491 260.751 24.9503C260.87 24.7514 260.929 24.5057 260.926 24.2131ZM267.675 20.4545V21.8182H263.733V20.4545H267.675ZM264.628 18.8864H266.443V24.9886C266.443 25.1562 266.469 25.2869 266.52 25.3807C266.571 25.4716 266.642 25.5355 266.733 25.5724C266.827 25.6094 266.935 25.6278 267.057 25.6278C267.142 25.6278 267.227 25.6207 267.312 25.6065C267.398 25.5895 267.463 25.5767 267.509 25.5682L267.794 26.919C267.703 26.9474 267.575 26.9801 267.411 27.017C267.246 27.0568 267.045 27.081 266.81 27.0895C266.372 27.1065 265.989 27.0483 265.659 26.9148C265.332 26.7812 265.078 26.5739 264.896 26.2926C264.714 26.0114 264.625 25.6562 264.628 25.2273V18.8864ZM274.047 27.1065C273.549 27.1065 273.099 26.9787 272.696 26.723C272.295 26.4645 271.977 26.0852 271.741 25.5852C271.508 25.0824 271.392 24.4659 271.392 23.7358C271.392 22.9858 271.512 22.3622 271.754 21.8651C271.995 21.3651 272.316 20.9915 272.717 20.7443C273.12 20.4943 273.562 20.3693 274.042 20.3693C274.409 20.3693 274.714 20.4318 274.958 20.5568C275.206 20.679 275.404 20.8324 275.555 21.017C275.708 21.1989 275.825 21.3778 275.904 21.554H275.96V18.2727H277.771V27H275.981V25.9517H275.904C275.819 26.1335 275.699 26.3139 275.542 26.4929C275.389 26.669 275.189 26.8153 274.941 26.9318C274.697 27.0483 274.399 27.1065 274.047 27.1065ZM274.622 25.6619C274.914 25.6619 275.162 25.5824 275.363 25.4233C275.568 25.2614 275.724 25.0355 275.832 24.7457C275.943 24.456 275.998 24.1165 275.998 23.7273C275.998 23.3381 275.944 23 275.836 22.7131C275.728 22.4261 275.572 22.2045 275.368 22.0483C275.163 21.892 274.914 21.8139 274.622 21.8139C274.324 21.8139 274.072 21.8949 273.868 22.0568C273.663 22.2187 273.508 22.4432 273.403 22.7301C273.298 23.017 273.245 23.3494 273.245 23.7273C273.245 24.108 273.298 24.4446 273.403 24.7372C273.511 25.027 273.666 25.2543 273.868 25.419C274.072 25.581 274.324 25.6619 274.622 25.6619ZM282.221 27.1278C281.559 27.1278 280.987 26.9872 280.504 26.706C280.023 26.4219 279.653 26.027 279.391 25.5213C279.13 25.0128 278.999 24.4233 278.999 23.7528C278.999 23.0767 279.13 22.4858 279.391 21.9801C279.653 21.4716 280.023 21.0767 280.504 20.7955C280.987 20.5114 281.559 20.3693 282.221 20.3693C282.883 20.3693 283.454 20.5114 283.934 20.7955C284.417 21.0767 284.789 21.4716 285.05 21.9801C285.312 22.4858 285.442 23.0767 285.442 23.7528C285.442 24.4233 285.312 25.0128 285.05 25.5213C284.789 26.027 284.417 26.4219 283.934 26.706C283.454 26.9872 282.883 27.1278 282.221 27.1278ZM282.229 25.7216C282.531 25.7216 282.782 25.6364 282.984 25.4659C283.185 25.2926 283.337 25.0568 283.44 24.7585C283.545 24.4602 283.597 24.1207 283.597 23.7401C283.597 23.3594 283.545 23.0199 283.44 22.7216C283.337 22.4233 283.185 22.1875 282.984 22.0142C282.782 21.8409 282.531 21.7543 282.229 21.7543C281.925 21.7543 281.67 21.8409 281.462 22.0142C281.258 22.1875 281.103 22.4233 280.998 22.7216C280.896 23.0199 280.844 23.3594 280.844 23.7401C280.844 24.1207 280.896 24.4602 280.998 24.7585C281.103 25.0568 281.258 25.2926 281.462 25.4659C281.67 25.6364 281.925 25.7216 282.229 25.7216ZM287.75 27L285.969 20.4545H287.805L288.82 24.8523H288.879L289.936 20.4545H291.739L292.812 24.8267H292.868L293.865 20.4545H295.697L293.92 27H291.999L290.874 22.8835H290.793L289.668 27H287.75ZM298.481 23.2159V27H296.666V20.4545H298.396V21.6094H298.473C298.618 21.2287 298.86 20.9276 299.201 20.706C299.542 20.4815 299.956 20.3693 300.441 20.3693C300.896 20.3693 301.292 20.4688 301.63 20.6676C301.968 20.8665 302.231 21.1506 302.419 21.5199C302.606 21.8864 302.7 22.3239 302.7 22.8324V27H300.885V23.1562C300.887 22.7557 300.785 22.4432 300.578 22.2188C300.37 21.9915 300.085 21.8778 299.721 21.8778C299.477 21.8778 299.261 21.9304 299.074 22.0355C298.889 22.1406 298.744 22.294 298.639 22.4957C298.537 22.6946 298.484 22.9347 298.481 23.2159ZM306.908 27V20.4545H308.723V27H306.908ZM307.82 19.6108C307.55 19.6108 307.319 19.5213 307.125 19.3423C306.935 19.1605 306.84 18.9432 306.84 18.6903C306.84 18.4403 306.935 18.2259 307.125 18.0469C307.319 17.8651 307.55 17.7741 307.82 17.7741C308.09 17.7741 308.32 17.8651 308.51 18.0469C308.703 18.2259 308.8 18.4403 308.8 18.6903C308.8 18.9432 308.703 19.1605 308.51 19.3423C308.32 19.5213 308.09 19.6108 307.82 19.6108ZM311.993 23.2159V27H310.178V20.4545H311.908V21.6094H311.984C312.129 21.2287 312.372 20.9276 312.713 20.706C313.054 20.4815 313.467 20.3693 313.953 20.3693C314.408 20.3693 314.804 20.4688 315.142 20.6676C315.48 20.8665 315.743 21.1506 315.93 21.5199C316.118 21.8864 316.212 22.3239 316.212 22.8324V27H314.396V23.1562C314.399 22.7557 314.297 22.4432 314.089 22.2188C313.882 21.9915 313.597 21.8778 313.233 21.8778C312.989 21.8778 312.773 21.9304 312.585 22.0355C312.401 22.1406 312.256 22.294 312.151 22.4957C312.048 22.6946 311.996 22.9347 311.993 23.2159ZM323.629 27.1193C322.992 27.1193 322.425 27.0099 321.928 26.7912C321.434 26.5696 321.043 26.2656 320.756 25.8793C320.472 25.4901 320.326 25.0412 320.317 24.5327H322.175C322.187 24.7457 322.256 24.9332 322.384 25.0952C322.515 25.2543 322.688 25.3778 322.904 25.4659C323.12 25.554 323.363 25.598 323.633 25.598C323.914 25.598 324.163 25.5483 324.379 25.4489C324.594 25.3494 324.763 25.2116 324.886 25.0355C325.008 24.8594 325.069 24.6562 325.069 24.4261C325.069 24.1932 325.004 23.9872 324.873 23.8082C324.745 23.6264 324.56 23.4844 324.319 23.3821C324.08 23.2798 323.796 23.2287 323.467 23.2287H322.653V21.8736H323.467C323.745 21.8736 323.991 21.8253 324.204 21.7287C324.42 21.6321 324.587 21.4986 324.707 21.3281C324.826 21.1548 324.886 20.9531 324.886 20.723C324.886 20.5043 324.833 20.3125 324.728 20.1477C324.626 19.9801 324.481 19.8494 324.293 19.7557C324.109 19.6619 323.893 19.6151 323.646 19.6151C323.396 19.6151 323.167 19.6605 322.96 19.7514C322.752 19.8395 322.586 19.9659 322.461 20.1307C322.336 20.2955 322.269 20.4886 322.261 20.7102H320.492C320.501 20.2074 320.644 19.7642 320.923 19.3807C321.201 18.9972 321.576 18.6974 322.048 18.4815C322.522 18.2628 323.058 18.1534 323.654 18.1534C324.256 18.1534 324.783 18.2628 325.235 18.4815C325.687 18.7003 326.038 18.9957 326.288 19.3679C326.54 19.7372 326.665 20.152 326.663 20.6122C326.665 21.1009 326.513 21.5085 326.207 21.8352C325.903 22.1619 325.506 22.3693 325.018 22.4574V22.5256C325.66 22.608 326.148 22.831 326.484 23.1946C326.822 23.5554 326.989 24.0071 326.987 24.5497C326.989 25.0469 326.846 25.4886 326.556 25.875C326.269 26.2614 325.873 26.5653 325.367 26.7869C324.862 27.0085 324.282 27.1193 323.629 27.1193ZM331.662 27.1193C331.213 27.1165 330.78 27.0412 330.363 26.8935C329.948 26.7457 329.576 26.5057 329.246 26.1733C328.917 25.8409 328.655 25.4006 328.462 24.8523C328.272 24.304 328.176 23.6307 328.176 22.8324C328.179 22.0994 328.263 21.4446 328.428 20.8679C328.596 20.2884 328.834 19.7969 329.144 19.3935C329.456 18.9901 329.83 18.6832 330.265 18.473C330.699 18.2599 331.186 18.1534 331.726 18.1534C332.309 18.1534 332.823 18.267 333.269 18.4943C333.715 18.7187 334.073 19.0241 334.343 19.4105C334.615 19.7969 334.78 20.2301 334.837 20.7102H333.017C332.946 20.4062 332.797 20.1676 332.57 19.9943C332.343 19.821 332.061 19.7344 331.726 19.7344C331.158 19.7344 330.726 19.9815 330.431 20.4759C330.138 20.9702 329.989 21.642 329.983 22.4915H330.043C330.174 22.233 330.35 22.0128 330.571 21.831C330.796 21.6463 331.05 21.5057 331.334 21.4091C331.621 21.3097 331.924 21.2599 332.242 21.2599C332.759 21.2599 333.219 21.3821 333.623 21.6264C334.026 21.8679 334.344 22.2003 334.577 22.6236C334.81 23.0469 334.926 23.5312 334.926 24.0767C334.926 24.6676 334.789 25.1932 334.513 25.6534C334.24 26.1136 333.858 26.4744 333.367 26.7358C332.878 26.9943 332.31 27.1222 331.662 27.1193ZM331.654 25.6705C331.938 25.6705 332.192 25.6023 332.417 25.4659C332.641 25.3295 332.817 25.1449 332.945 24.9119C333.073 24.679 333.137 24.4176 333.137 24.1278C333.137 23.8381 333.073 23.5781 332.945 23.348C332.82 23.1179 332.647 22.9347 332.425 22.7983C332.203 22.6619 331.951 22.5938 331.667 22.5938C331.453 22.5938 331.256 22.6335 331.074 22.7131C330.895 22.7926 330.738 22.9034 330.601 23.0455C330.468 23.1875 330.363 23.3523 330.286 23.5398C330.209 23.7244 330.171 23.9219 330.171 24.1321C330.171 24.4134 330.235 24.6705 330.363 24.9034C330.493 25.1364 330.669 25.3224 330.891 25.4616C331.115 25.6009 331.37 25.6705 331.654 25.6705ZM340.844 23.2159V27H339.029V18.2727H340.793V21.6094H340.87C341.018 21.223 341.256 20.9205 341.586 20.7017C341.915 20.4801 342.329 20.3693 342.826 20.3693C343.281 20.3693 343.677 20.4688 344.015 20.6676C344.356 20.8636 344.62 21.1463 344.808 21.5156C344.998 21.8821 345.092 22.321 345.089 22.8324V27H343.273V23.1562C343.276 22.7528 343.174 22.4389 342.967 22.2145C342.762 21.9901 342.475 21.8778 342.106 21.8778C341.859 21.8778 341.64 21.9304 341.45 22.0355C341.262 22.1406 341.114 22.294 341.006 22.4957C340.901 22.6946 340.847 22.9347 340.844 23.2159ZM349.475 27.1278C348.813 27.1278 348.24 26.9872 347.757 26.706C347.277 26.4219 346.907 26.027 346.645 25.5213C346.384 25.0128 346.253 24.4233 346.253 23.7528C346.253 23.0767 346.384 22.4858 346.645 21.9801C346.907 21.4716 347.277 21.0767 347.757 20.7955C348.24 20.5114 348.813 20.3693 349.475 20.3693C350.137 20.3693 350.708 20.5114 351.188 20.7955C351.671 21.0767 352.043 21.4716 352.304 21.9801C352.566 22.4858 352.696 23.0767 352.696 23.7528C352.696 24.4233 352.566 25.0128 352.304 25.5213C352.043 26.027 351.671 26.4219 351.188 26.706C350.708 26.9872 350.137 27.1278 349.475 27.1278ZM349.483 25.7216C349.784 25.7216 350.036 25.6364 350.238 25.4659C350.439 25.2926 350.591 25.0568 350.694 24.7585C350.799 24.4602 350.851 24.1207 350.851 23.7401C350.851 23.3594 350.799 23.0199 350.694 22.7216C350.591 22.4233 350.439 22.1875 350.238 22.0142C350.036 21.8409 349.784 21.7543 349.483 21.7543C349.179 21.7543 348.924 21.8409 348.716 22.0142C348.512 22.1875 348.357 22.4233 348.252 22.7216C348.15 23.0199 348.098 23.3594 348.098 23.7401C348.098 24.1207 348.15 24.4602 348.252 24.7585C348.357 25.0568 348.512 25.2926 348.716 25.4659C348.924 25.6364 349.179 25.7216 349.483 25.7216ZM358.074 24.2131V20.4545H359.89V27H358.147V25.8111H358.078C357.931 26.1946 357.685 26.5028 357.341 26.7358C357 26.9687 356.584 27.0852 356.093 27.0852C355.655 27.0852 355.27 26.9858 354.938 26.7869C354.605 26.5881 354.346 26.3054 354.158 25.9389C353.973 25.5724 353.88 25.1335 353.877 24.6222V20.4545H355.692V24.2983C355.695 24.6847 355.799 24.9901 356.003 25.2145C356.208 25.4389 356.482 25.5511 356.826 25.5511C357.044 25.5511 357.249 25.5014 357.439 25.402C357.63 25.2997 357.783 25.1491 357.9 24.9503C358.019 24.7514 358.077 24.5057 358.074 24.2131ZM361.342 27V20.4545H363.102V21.5966H363.17C363.289 21.1903 363.489 20.8835 363.771 20.6761C364.052 20.4659 364.376 20.3608 364.742 20.3608C364.833 20.3608 364.931 20.3665 365.036 20.3778C365.141 20.3892 365.234 20.4048 365.313 20.4247V22.0355C365.228 22.0099 365.11 21.9872 364.96 21.9673C364.809 21.9474 364.671 21.9375 364.546 21.9375C364.279 21.9375 364.04 21.9957 363.83 22.1122C363.623 22.2259 363.458 22.3849 363.336 22.5895C363.217 22.794 363.157 23.0298 363.157 23.2969V27H361.342ZM371.698 22.321L370.036 22.4233C370.007 22.2812 369.946 22.1534 369.853 22.0398C369.759 21.9233 369.635 21.831 369.482 21.7628C369.331 21.6918 369.151 21.6562 368.941 21.6562C368.659 21.6562 368.422 21.7159 368.229 21.8352C368.036 21.9517 367.939 22.108 367.939 22.304C367.939 22.4602 368.002 22.5923 368.127 22.7003C368.252 22.8082 368.466 22.8949 368.77 22.9602L369.955 23.1989C370.591 23.3295 371.066 23.5398 371.378 23.8295C371.691 24.1193 371.847 24.5 371.847 24.9716C371.847 25.4006 371.721 25.777 371.468 26.1009C371.218 26.4247 370.874 26.6776 370.436 26.8594C370.002 27.0384 369.5 27.1278 368.932 27.1278C368.066 27.1278 367.375 26.9474 366.861 26.5866C366.35 26.223 366.05 25.7287 365.962 25.1037L367.748 25.0099C367.801 25.2741 367.932 25.4759 368.14 25.6151C368.347 25.7514 368.613 25.8196 368.936 25.8196C369.255 25.8196 369.51 25.7585 369.703 25.6364C369.9 25.5114 369.999 25.3509 370.002 25.1548C369.999 24.9901 369.929 24.8551 369.793 24.75C369.657 24.642 369.446 24.5597 369.162 24.5028L368.029 24.277C367.39 24.1491 366.914 23.9276 366.601 23.6122C366.292 23.2969 366.137 22.8949 366.137 22.4062C366.137 21.9858 366.25 21.6236 366.478 21.3196C366.708 21.0156 367.03 20.7812 367.445 20.6165C367.863 20.4517 368.351 20.3693 368.911 20.3693C369.738 20.3693 370.388 20.544 370.863 20.8935C371.34 21.2429 371.618 21.7187 371.698 22.321ZM379.965 24.2131V20.4545H381.78V27H380.037V25.8111H379.969C379.821 26.1946 379.576 26.5028 379.232 26.7358C378.891 26.9687 378.475 27.0852 377.983 27.0852C377.546 27.0852 377.161 26.9858 376.828 26.7869C376.496 26.5881 376.236 26.3054 376.049 25.9389C375.864 25.5724 375.77 25.1335 375.767 24.6222V20.4545H377.583V24.2983C377.586 24.6847 377.689 24.9901 377.894 25.2145C378.098 25.4389 378.373 25.5511 378.716 25.5511C378.935 25.5511 379.14 25.5014 379.33 25.402C379.52 25.2997 379.674 25.1491 379.79 24.9503C379.909 24.7514 379.968 24.5057 379.965 24.2131ZM385.048 23.2159V27H383.232V20.4545H384.962V21.6094H385.039C385.184 21.2287 385.427 20.9276 385.768 20.706C386.109 20.4815 386.522 20.3693 387.008 20.3693C387.462 20.3693 387.859 20.4688 388.197 20.6676C388.535 20.8665 388.798 21.1506 388.985 21.5199C389.173 21.8864 389.266 22.3239 389.266 22.8324V27H387.451V23.1562C387.454 22.7557 387.352 22.4432 387.144 22.2188C386.937 21.9915 386.651 21.8778 386.288 21.8778C386.043 21.8778 385.827 21.9304 385.64 22.0355C385.455 22.1406 385.31 22.294 385.205 22.4957C385.103 22.6946 385.05 22.9347 385.048 23.2159ZM392.512 18.2727V27H390.697V18.2727H392.512ZM396.95 27.1278C396.276 27.1278 395.697 26.9915 395.211 26.7188C394.728 26.4432 394.356 26.054 394.094 25.5511C393.833 25.0455 393.702 24.4474 393.702 23.7571C393.702 23.0838 393.833 22.4929 394.094 21.9844C394.356 21.4759 394.724 21.0795 395.198 20.7955C395.675 20.5114 396.235 20.3693 396.877 20.3693C397.309 20.3693 397.711 20.4389 398.083 20.5781C398.458 20.7145 398.785 20.9205 399.063 21.196C399.344 21.4716 399.563 21.8182 399.719 22.2358C399.876 22.6506 399.954 23.1364 399.954 23.6932V24.1918H394.427V23.0668H398.245C398.245 22.8054 398.188 22.5739 398.075 22.3722C397.961 22.1705 397.803 22.0128 397.602 21.8991C397.403 21.7827 397.171 21.7244 396.907 21.7244C396.631 21.7244 396.387 21.7884 396.174 21.9162C395.964 22.0412 395.799 22.2102 395.68 22.4233C395.56 22.6335 395.499 22.8679 395.496 23.1264V24.196C395.496 24.5199 395.556 24.7997 395.675 25.0355C395.798 25.2713 395.969 25.4531 396.191 25.581C396.413 25.7088 396.675 25.7727 396.979 25.7727C397.181 25.7727 397.366 25.7443 397.533 25.6875C397.701 25.6307 397.844 25.5455 397.964 25.4318C398.083 25.3182 398.174 25.179 398.237 25.0142L399.915 25.125C399.83 25.5284 399.656 25.8807 399.391 26.1818C399.13 26.4801 398.792 26.7131 398.377 26.8807C397.965 27.0455 397.489 27.1278 396.95 27.1278ZM406.585 22.321L404.923 22.4233C404.894 22.2812 404.833 22.1534 404.739 22.0398C404.646 21.9233 404.522 21.831 404.369 21.7628C404.218 21.6918 404.038 21.6562 403.827 21.6562C403.546 21.6562 403.309 21.7159 403.116 21.8352C402.923 21.9517 402.826 22.108 402.826 22.304C402.826 22.4602 402.888 22.5923 403.013 22.7003C403.138 22.8082 403.353 22.8949 403.657 22.9602L404.842 23.1989C405.478 23.3295 405.952 23.5398 406.265 23.8295C406.577 24.1193 406.734 24.5 406.734 24.9716C406.734 25.4006 406.607 25.777 406.354 26.1009C406.104 26.4247 405.761 26.6776 405.323 26.8594C404.888 27.0384 404.387 27.1278 403.819 27.1278C402.952 27.1278 402.262 26.9474 401.748 26.5866C401.237 26.223 400.937 25.7287 400.849 25.1037L402.634 25.0099C402.688 25.2741 402.819 25.4759 403.026 25.6151C403.234 25.7514 403.499 25.8196 403.823 25.8196C404.141 25.8196 404.397 25.7585 404.59 25.6364C404.786 25.5114 404.886 25.3509 404.888 25.1548C404.886 24.9901 404.816 24.8551 404.68 24.75C404.543 24.642 404.333 24.5597 404.049 24.5028L402.915 24.277C402.276 24.1491 401.8 23.9276 401.488 23.6122C401.178 23.2969 401.023 22.8949 401.023 22.4062C401.023 21.9858 401.137 21.6236 401.364 21.3196C401.594 21.0156 401.917 20.7812 402.332 20.6165C402.749 20.4517 403.238 20.3693 403.798 20.3693C404.624 20.3693 405.275 20.544 405.749 20.8935C406.227 21.2429 406.505 21.7187 406.585 22.321ZM413.323 22.321L411.661 22.4233C411.632 22.2812 411.571 22.1534 411.478 22.0398C411.384 21.9233 411.26 21.831 411.107 21.7628C410.956 21.6918 410.776 21.6562 410.566 21.6562C410.284 21.6562 410.047 21.7159 409.854 21.8352C409.661 21.9517 409.564 22.108 409.564 22.304C409.564 22.4602 409.627 22.5923 409.752 22.7003C409.877 22.8082 410.091 22.8949 410.395 22.9602L411.58 23.1989C412.216 23.3295 412.691 23.5398 413.003 23.8295C413.316 24.1193 413.472 24.5 413.472 24.9716C413.472 25.4006 413.346 25.777 413.093 26.1009C412.843 26.4247 412.499 26.6776 412.061 26.8594C411.627 27.0384 411.125 27.1278 410.557 27.1278C409.691 27.1278 409 26.9474 408.486 26.5866C407.975 26.223 407.675 25.7287 407.587 25.1037L409.373 25.0099C409.426 25.2741 409.557 25.4759 409.765 25.6151C409.972 25.7514 410.238 25.8196 410.561 25.8196C410.88 25.8196 411.135 25.7585 411.328 25.6364C411.525 25.5114 411.624 25.3509 411.627 25.1548C411.624 24.9901 411.554 24.8551 411.418 24.75C411.282 24.642 411.071 24.5597 410.787 24.5028L409.654 24.277C409.015 24.1491 408.539 23.9276 408.226 23.6122C407.917 23.2969 407.762 22.8949 407.762 22.4062C407.762 21.9858 407.875 21.6236 408.103 21.3196C408.333 21.0156 408.655 20.7812 409.07 20.6165C409.488 20.4517 409.976 20.3693 410.536 20.3693C411.363 20.3693 412.013 20.544 412.488 20.8935C412.965 21.2429 413.243 21.7187 413.323 22.321ZM418.513 29.4545C418.283 29.4545 418.067 29.4361 417.865 29.3991C417.667 29.3651 417.502 29.321 417.371 29.267L417.78 27.9119C417.993 27.9773 418.185 28.0128 418.355 28.0185C418.529 28.0241 418.678 27.9844 418.803 27.8991C418.931 27.8139 419.034 27.669 419.114 27.4645L419.221 27.1875L416.873 20.4545H418.782L420.137 25.2614H420.205L421.573 20.4545H423.495L420.951 27.7074C420.828 28.0597 420.662 28.3665 420.452 28.6278C420.245 28.892 419.982 29.0952 419.664 29.2372C419.346 29.3821 418.962 29.4545 418.513 29.4545ZM427.17 27.1278C426.508 27.1278 425.936 26.9872 425.453 26.706C424.973 26.4219 424.602 26.027 424.341 25.5213C424.079 25.0128 423.949 24.4233 423.949 23.7528C423.949 23.0767 424.079 22.4858 424.341 21.9801C424.602 21.4716 424.973 21.0767 425.453 20.7955C425.936 20.5114 426.508 20.3693 427.17 20.3693C427.832 20.3693 428.403 20.5114 428.883 20.7955C429.366 21.0767 429.738 21.4716 430 21.9801C430.261 22.4858 430.392 23.0767 430.392 23.7528C430.392 24.4233 430.261 25.0128 430 25.5213C429.738 26.027 429.366 26.4219 428.883 26.706C428.403 26.9872 427.832 27.1278 427.17 27.1278ZM427.179 25.7216C427.48 25.7216 427.731 25.6364 427.933 25.4659C428.135 25.2926 428.287 25.0568 428.389 24.7585C428.494 24.4602 428.547 24.1207 428.547 23.7401C428.547 23.3594 428.494 23.0199 428.389 22.7216C428.287 22.4233 428.135 22.1875 427.933 22.0142C427.731 21.8409 427.48 21.7543 427.179 21.7543C426.875 21.7543 426.619 21.8409 426.412 22.0142C426.207 22.1875 426.052 22.4233 425.947 22.7216C425.845 23.0199 425.794 23.3594 425.794 23.7401C425.794 24.1207 425.845 24.4602 425.947 24.7585C426.052 25.0568 426.207 25.2926 426.412 25.4659C426.619 25.6364 426.875 25.7216 427.179 25.7216ZM435.77 24.2131V20.4545H437.585V27H435.842V25.8111H435.774C435.626 26.1946 435.38 26.5028 435.037 26.7358C434.696 26.9687 434.279 27.0852 433.788 27.0852C433.35 27.0852 432.966 26.9858 432.633 26.7869C432.301 26.5881 432.041 26.3054 431.853 25.9389C431.669 25.5724 431.575 25.1335 431.572 24.6222V20.4545H433.387V24.2983C433.39 24.6847 433.494 24.9901 433.699 25.2145C433.903 25.4389 434.177 25.5511 434.521 25.5511C434.74 25.5511 434.944 25.5014 435.135 25.402C435.325 25.2997 435.478 25.1491 435.595 24.9503C435.714 24.7514 435.772 24.5057 435.77 24.2131ZM444.763 29.5909C444.175 29.5909 443.671 29.5099 443.25 29.348C442.833 29.1889 442.5 28.9716 442.253 28.696C442.006 28.4205 441.846 28.1108 441.772 27.767L443.451 27.5412C443.502 27.6719 443.583 27.794 443.694 27.9077C443.804 28.0213 443.951 28.1122 444.132 28.1804C444.317 28.2514 444.542 28.2869 444.806 28.2869C445.201 28.2869 445.526 28.1903 445.782 27.9972C446.04 27.8068 446.169 27.4872 446.169 27.0384V25.8409H446.093C446.013 26.0227 445.894 26.1946 445.735 26.3565C445.576 26.5185 445.371 26.6506 445.121 26.7528C444.871 26.8551 444.573 26.9062 444.226 26.9062C443.735 26.9062 443.287 26.7926 442.884 26.5653C442.483 26.3352 442.164 25.9844 441.925 25.5128C441.689 25.0384 441.571 24.4389 441.571 23.7145C441.571 22.973 441.692 22.3537 441.934 21.8565C442.175 21.3594 442.496 20.9872 442.897 20.7401C443.3 20.4929 443.742 20.3693 444.222 20.3693C444.588 20.3693 444.895 20.4318 445.142 20.5568C445.39 20.679 445.588 20.8324 445.739 21.017C445.892 21.1989 446.01 21.3778 446.093 21.554H446.161V20.4545H447.963V27.0639C447.963 27.6207 447.827 28.0866 447.554 28.4616C447.282 28.8366 446.904 29.1179 446.421 29.3054C445.941 29.4957 445.388 29.5909 444.763 29.5909ZM444.801 25.5426C445.094 25.5426 445.341 25.4702 445.543 25.3253C445.748 25.1776 445.904 24.9673 446.012 24.6946C446.123 24.419 446.178 24.0895 446.178 23.706C446.178 23.3224 446.124 22.9901 446.016 22.7088C445.908 22.4247 445.752 22.2045 445.547 22.0483C445.343 21.892 445.094 21.8139 444.801 21.8139C444.503 21.8139 444.252 21.8949 444.047 22.0568C443.843 22.2159 443.688 22.4375 443.583 22.7216C443.478 23.0057 443.425 23.3338 443.425 23.706C443.425 24.0838 443.478 24.4105 443.583 24.6861C443.691 24.9588 443.846 25.1705 444.047 25.321C444.252 25.4687 444.503 25.5426 444.801 25.5426ZM449.408 27V20.4545H451.223V27H449.408ZM450.32 19.6108C450.05 19.6108 449.819 19.5213 449.625 19.3423C449.435 19.1605 449.34 18.9432 449.34 18.6903C449.34 18.4403 449.435 18.2259 449.625 18.0469C449.819 17.8651 450.05 17.7741 450.32 17.7741C450.59 17.7741 450.82 17.8651 451.01 18.0469C451.203 18.2259 451.3 18.4403 451.3 18.6903C451.3 18.9432 451.203 19.1605 451.01 19.3423C450.82 19.5213 450.59 19.6108 450.32 19.6108ZM458.78 20.4545L456.491 27H454.446L452.158 20.4545H454.075L455.435 25.1378H455.503L456.858 20.4545H458.78ZM462.481 27.1278C461.808 27.1278 461.228 26.9915 460.742 26.7188C460.259 26.4432 459.887 26.054 459.626 25.5511C459.364 25.0455 459.234 24.4474 459.234 23.7571C459.234 23.0838 459.364 22.4929 459.626 21.9844C459.887 21.4759 460.255 21.0795 460.729 20.7955C461.207 20.5114 461.766 20.3693 462.408 20.3693C462.84 20.3693 463.242 20.4389 463.614 20.5781C463.989 20.7145 464.316 20.9205 464.594 21.196C464.876 21.4716 465.094 21.8182 465.251 22.2358C465.407 22.6506 465.485 23.1364 465.485 23.6932V24.1918H459.958V23.0668H463.776C463.776 22.8054 463.719 22.5739 463.606 22.3722C463.492 22.1705 463.335 22.0128 463.133 21.8991C462.934 21.7827 462.702 21.7244 462.438 21.7244C462.163 21.7244 461.918 21.7884 461.705 21.9162C461.495 22.0412 461.33 22.2102 461.211 22.4233C461.092 22.6335 461.031 22.8679 461.028 23.1264V24.196C461.028 24.5199 461.087 24.7997 461.207 25.0355C461.329 25.2713 461.501 25.4531 461.722 25.581C461.944 25.7088 462.207 25.7727 462.511 25.7727C462.712 25.7727 462.897 25.7443 463.065 25.6875C463.232 25.6307 463.376 25.5455 463.495 25.4318C463.614 25.3182 463.705 25.179 463.768 25.0142L465.447 25.125C465.362 25.5284 465.187 25.8807 464.923 26.1818C464.661 26.4801 464.323 26.7131 463.908 26.8807C463.496 27.0455 463.021 27.1278 462.481 27.1278ZM470.568 29.4545C470.338 29.4545 470.122 29.4361 469.92 29.3991C469.721 29.3651 469.556 29.321 469.426 29.267L469.835 27.9119C470.048 27.9773 470.24 28.0128 470.41 28.0185C470.583 28.0241 470.733 27.9844 470.858 27.8991C470.985 27.8139 471.089 27.669 471.169 27.4645L471.275 27.1875L468.927 20.4545H470.836L472.191 25.2614H472.26L473.627 20.4545H475.549L473.005 27.7074C472.883 28.0597 472.717 28.3665 472.507 28.6278C472.299 28.892 472.037 29.0952 471.718 29.2372C471.4 29.3821 471.017 29.4545 470.568 29.4545ZM479.225 27.1278C478.563 27.1278 477.99 26.9872 477.507 26.706C477.027 26.4219 476.657 26.027 476.395 25.5213C476.134 25.0128 476.003 24.4233 476.003 23.7528C476.003 23.0767 476.134 22.4858 476.395 21.9801C476.657 21.4716 477.027 21.0767 477.507 20.7955C477.99 20.5114 478.563 20.3693 479.225 20.3693C479.887 20.3693 480.458 20.5114 480.938 20.7955C481.421 21.0767 481.793 21.4716 482.054 21.9801C482.316 22.4858 482.446 23.0767 482.446 23.7528C482.446 24.4233 482.316 25.0128 482.054 25.5213C481.793 26.027 481.421 26.4219 480.938 26.706C480.458 26.9872 479.887 27.1278 479.225 27.1278ZM479.233 25.7216C479.534 25.7216 479.786 25.6364 479.988 25.4659C480.189 25.2926 480.341 25.0568 480.444 24.7585C480.549 24.4602 480.601 24.1207 480.601 23.7401C480.601 23.3594 480.549 23.0199 480.444 22.7216C480.341 22.4233 480.189 22.1875 479.988 22.0142C479.786 21.8409 479.534 21.7543 479.233 21.7543C478.929 21.7543 478.674 21.8409 478.466 22.0142C478.262 22.1875 478.107 22.4233 478.002 22.7216C477.9 23.0199 477.848 23.3594 477.848 23.7401C477.848 24.1207 477.9 24.4602 478.002 24.7585C478.107 25.0568 478.262 25.2926 478.466 25.4659C478.674 25.6364 478.929 25.7216 479.233 25.7216ZM487.824 24.2131V20.4545H489.64V27H487.897V25.8111H487.828C487.681 26.1946 487.435 26.5028 487.091 26.7358C486.75 26.9687 486.334 27.0852 485.843 27.0852C485.405 27.0852 485.02 26.9858 484.688 26.7869C484.355 26.5881 484.096 26.3054 483.908 25.9389C483.723 25.5724 483.63 25.1335 483.627 24.6222V20.4545H485.442V24.2983C485.445 24.6847 485.549 24.9901 485.753 25.2145C485.958 25.4389 486.232 25.5511 486.576 25.5511C486.794 25.5511 486.999 25.5014 487.189 25.402C487.38 25.2997 487.533 25.1491 487.65 24.9503C487.769 24.7514 487.827 24.5057 487.824 24.2131ZM491.092 27V20.4545H492.852V21.5966H492.92C493.039 21.1903 493.239 20.8835 493.521 20.6761C493.802 20.4659 494.126 20.3608 494.492 20.3608C494.583 20.3608 494.681 20.3665 494.786 20.3778C494.891 20.3892 494.984 20.4048 495.063 20.4247V22.0355C494.978 22.0099 494.86 21.9872 494.71 21.9673C494.559 21.9474 494.421 21.9375 494.296 21.9375C494.029 21.9375 493.79 21.9957 493.58 22.1122C493.373 22.2259 493.208 22.3849 493.086 22.5895C492.967 22.794 492.907 23.0298 492.907 23.2969V27H491.092ZM496.313 27.1108C496.032 27.1108 495.79 27.0114 495.588 26.8125C495.39 26.6108 495.29 26.3693 495.29 26.0881C495.29 25.8097 495.39 25.571 495.588 25.3722C495.79 25.1733 496.032 25.0739 496.313 25.0739C496.586 25.0739 496.824 25.1733 497.029 25.3722C497.233 25.571 497.336 25.8097 497.336 26.0881C497.336 26.2756 497.287 26.4474 497.191 26.6037C497.097 26.7571 496.973 26.8807 496.82 26.9744C496.667 27.0653 496.498 27.1108 496.313 27.1108ZM499.887 27.1108C499.606 27.1108 499.364 27.0114 499.163 26.8125C498.964 26.6108 498.864 26.3693 498.864 26.0881C498.864 25.8097 498.964 25.571 499.163 25.3722C499.364 25.1733 499.606 25.0739 499.887 25.0739C500.16 25.0739 500.398 25.1733 500.603 25.3722C500.808 25.571 500.91 25.8097 500.91 26.0881C500.91 26.2756 500.862 26.4474 500.765 26.6037C500.671 26.7571 500.548 26.8807 500.394 26.9744C500.241 27.0653 500.072 27.1108 499.887 27.1108ZM503.461 27.1108C503.18 27.1108 502.939 27.0114 502.737 26.8125C502.538 26.6108 502.439 26.3693 502.439 26.0881C502.439 25.8097 502.538 25.571 502.737 25.3722C502.939 25.1733 503.18 25.0739 503.461 25.0739C503.734 25.0739 503.973 25.1733 504.177 25.3722C504.382 25.571 504.484 25.8097 504.484 26.0881C504.484 26.2756 504.436 26.4474 504.339 26.6037C504.245 26.7571 504.122 26.8807 503.968 26.9744C503.815 27.0653 503.646 27.1108 503.461 27.1108Z" fill="#1E1E1E"/>
<path d="M562.263 26H560.286L563.298 17.2727H565.676L568.685 26H566.707L564.521 19.267H564.453L562.263 26ZM562.139 22.5696H566.81V24.0099H562.139V22.5696ZM573.898 23.2131V19.4545H575.714V26H573.971V24.8111H573.903C573.755 25.1946 573.509 25.5028 573.165 25.7358C572.825 25.9687 572.408 26.0852 571.917 26.0852C571.479 26.0852 571.094 25.9858 570.762 25.7869C570.43 25.5881 570.17 25.3054 569.982 24.9389C569.798 24.5724 569.704 24.1335 569.701 23.6222V19.4545H571.516V23.2983C571.519 23.6847 571.623 23.9901 571.827 24.2145C572.032 24.4389 572.306 24.5511 572.65 24.5511C572.869 24.5511 573.073 24.5014 573.263 24.402C573.454 24.2997 573.607 24.1491 573.724 23.9503C573.843 23.7514 573.901 23.5057 573.898 23.2131ZM580.115 28.5909C579.527 28.5909 579.022 28.5099 578.602 28.348C578.184 28.1889 577.852 27.9716 577.605 27.696C577.358 27.4205 577.197 27.1108 577.123 26.767L578.802 26.5412C578.853 26.6719 578.934 26.794 579.045 26.9077C579.156 27.0213 579.302 27.1122 579.484 27.1804C579.669 27.2514 579.893 27.2869 580.157 27.2869C580.552 27.2869 580.877 27.1903 581.133 26.9972C581.392 26.8068 581.521 26.4872 581.521 26.0384V24.8409H581.444C581.365 25.0227 581.245 25.1946 581.086 25.3565C580.927 25.5185 580.723 25.6506 580.473 25.7528C580.223 25.8551 579.924 25.9062 579.578 25.9062C579.086 25.9062 578.639 25.7926 578.235 25.5653C577.835 25.3352 577.515 24.9844 577.277 24.5128C577.041 24.0384 576.923 23.4389 576.923 22.7145C576.923 21.973 577.044 21.3537 577.285 20.8565C577.527 20.3594 577.848 19.9872 578.248 19.7401C578.652 19.4929 579.093 19.3693 579.574 19.3693C579.94 19.3693 580.247 19.4318 580.494 19.5568C580.741 19.679 580.94 19.8324 581.091 20.017C581.244 20.1989 581.362 20.3778 581.444 20.554H581.512V19.4545H583.315V26.0639C583.315 26.6207 583.179 27.0866 582.906 27.4616C582.633 27.8366 582.255 28.1179 581.772 28.3054C581.292 28.4957 580.74 28.5909 580.115 28.5909ZM580.153 24.5426C580.446 24.5426 580.693 24.4702 580.895 24.3253C581.099 24.1776 581.255 23.9673 581.363 23.6946C581.474 23.419 581.529 23.0895 581.529 22.706C581.529 22.3224 581.475 21.9901 581.368 21.7088C581.26 21.4247 581.103 21.2045 580.899 21.0483C580.694 20.892 580.446 20.8139 580.153 20.8139C579.855 20.8139 579.603 20.8949 579.399 21.0568C579.194 21.2159 579.039 21.4375 578.934 21.7216C578.829 22.0057 578.777 22.3338 578.777 22.706C578.777 23.0838 578.829 23.4105 578.934 23.6861C579.042 23.9588 579.197 24.1705 579.399 24.321C579.603 24.4687 579.855 24.5426 580.153 24.5426ZM591.317 17.2727V26H589.472V19.0241H589.42L587.422 20.277V18.6406L589.582 17.2727H591.317ZM593.736 26L597.354 18.8409V18.7812H593.14V17.2727H599.263V18.8026L595.641 26H593.736Z" fill="black"/>
<line y1="38.5" x2="608" y2="38.5" stroke="#BBBBBB"/>
</svg>
