<svg version="1.1" viewBox="0.0 0.0 960.0 540.0" fill="none" stroke="none" stroke-linecap="square" stroke-miterlimit="10" xmlns:xlink="http://www.w3.org/1999/xlink" xmlns="http://www.w3.org/2000/svg"><clipPath id="g1478f75718d_0_5.0"><path d="m0 0l960.0 0l0 540.0l-960.0 0l0 -540.0z" clip-rule="nonzero"/></clipPath><g clip-path="url(#g1478f75718d_0_5.0)"><path fill="#ffffff" d="m0 0l960.0 0l0 540.0l-960.0 0z" fill-rule="evenodd"/><path fill="#e4d8ff" d="m481.95303 62.828808c-17.981323 0 -36.109222 1.5206337 -54.894196 5.8036995c-47.717316 10.848518 -93.53903 33.180824 -133.39548 65.884476c-53.819366 44.18744 -112.79057 112.144455 -137.59946 184.72948c-9.353424 27.118408 -14.368454 59.50299 -1.7612457 84.70697c13.962936 27.75943 44.329163 37.009705 71.71275 39.243225c7.245285 0.58639526 14.480804 0.8508606 21.713882 0.8508606c52.053238 0 103.84511 -13.763306 155.74202 -21.74878c35.740356 -5.461609 71.77872 -8.180939 107.81464 -8.180939c51.305725 0 102.60419 5.5133667 153.01343 16.476868c20.96643 4.636627 43.320312 9.830933 64.65558 9.830933c19.77185 0 38.66925 -4.461273 54.776917 -17.965881c33.077698 -27.756561 35.518066 -74.65756 28.33142 -116.93344c-7.184265 -42.43109 -24.67212 -70.50961 -42.431152 -106.7202c-10.437988 -21.37796 -22.774048 -40.838593 -37.279297 -57.74951c-16.674438 -19.302544 -36.331482 -35.253372 -58.700073 -46.10189c-34.162292 -16.749947 -71.44403 -22.335182 -108.18103 -25.844994c-28.717346 -2.7020721 -55.94702 -6.2808723 -83.51871 -6.2808723z" fill-rule="evenodd"/><path fill="#e4d8ff" d="m482.09958 62.889175c-18.030151 0 -36.197144 1.4372711 -55.04074 5.743332c-47.717316 10.848518 -93.53903 33.180824 -133.39548 65.884476c-53.819366 44.18744 -112.79057 112.144455 -137.59946 184.72948c-5.4229736 15.634613 -9.353424 32.861755 -9.216629 49.453613c0 12.443878 2.166748 24.407715 7.4553833 35.253357c13.962936 27.75943 44.329163 37.009705 71.71275 39.243225c7.186661 0.4800415 14.505234 0.7991333 21.69191 0.7991333c52.05568 0 103.84267 -13.720184 155.76399 -21.697052c35.789215 -5.4213867 71.84955 -8.134949 108.04425 -8.134949c51.24469 0 102.3526 5.4242554 152.78381 16.430878c21.010376 4.6280212 43.378906 9.891296 64.79968 9.891296c19.657043 0 38.50067 -4.467041 54.632812 -18.026245c23.587524 -19.782593 31.585205 -49.453583 31.585205 -80.08182c0 -12.282928 -1.2189941 -24.726807 -3.2537842 -36.851624c-7.184265 -42.43109 -24.67212 -70.50961 -42.431152 -106.7202c-10.437988 -21.37796 -22.774048 -40.838593 -37.279297 -57.74951c-16.674438 -19.302544 -36.331482 -35.253372 -58.700073 -46.10189c-34.162292 -16.749947 -71.44403 -22.335182 -108.18103 -25.844994c-28.739319 -2.7106934 -55.854218 -6.2205048 -83.37216 -6.2205048z" fill-rule="evenodd"/><path fill="#000000" fill-opacity="0.0" d="m304.9116 473.81366l118.96063 32.15747" fill-rule="evenodd"/><path stroke="#3d3d3d" stroke-width="1.0" stroke-linejoin="round" stroke-linecap="butt" d="m304.9116 473.81366l118.96063 32.15747" fill-rule="evenodd"/><path fill="#000000" fill-opacity="0.0" d="m163.9982 504.73752l140.91339 -33.102356" fill-rule="evenodd"/><path stroke="#3d3d3d" stroke-width="1.0" stroke-linejoin="round" stroke-linecap="butt" d="m163.9982 504.73752l140.91339 -33.102356" fill-rule="evenodd"/><path fill="#000000" fill-opacity="0.0" d="m27.250168 462.78217l139.84251 41.165344" fill-rule="evenodd"/><path stroke="#3d3d3d" stroke-width="1.0" stroke-linejoin="round" stroke-linecap="butt" d="m27.250168 462.78217l139.84251 41.165344" fill-rule="evenodd"/><path fill="#000000" fill-opacity="0.0" d="m-0.72096115 419.27036l28.755905 42.740143" fill-rule="evenodd"/><path stroke="#3d3d3d" stroke-width="1.0" stroke-linejoin="round" stroke-linecap="butt" d="m-0.72096115 419.27036l28.755905 42.740143" fill-rule="evenodd"/><path fill="#ab8fdc" d="m164.74886 474.34122c16.614166 0 30.070862 13.456696 30.070862 30.013123c0 16.61679 -13.456696 30.070831 -30.070862 30.070831c-16.61679 0 -30.070862 -13.454041 -30.070862 -30.070831c0 -16.556427 13.454071 -30.013123 30.070862 -30.013123z" fill-rule="evenodd"/><path fill="#3d3d3d" d="m164.74886 474.81104c-8.191605 0 -15.564301 3.2755737 -20.887146 8.658783c-5.383194 5.3228455 -8.658783 12.753265 -8.658783 20.884521c0 8.19162 3.275589 15.561676 8.658783 20.944855c5.3228455 5.322876 12.695541 8.658813 20.887146 8.658813c8.18898 0 15.561676 -3.3359375 20.94226 -8.658813c5.3254547 -5.3831787 8.658783 -12.753235 8.658783 -20.944855c0 -8.131256 -3.3333282 -15.561676 -8.658783 -20.884521c-5.3805847 -5.383209 -12.753281 -8.658783 -20.94226 -8.658783zm0 -0.994751c16.847763 0 30.538055 13.690277 30.538055 30.538055c0 16.908112 -13.690292 30.59842 -30.538055 30.59842c-16.850388 0 -30.54068 -13.690308 -30.54068 -30.59842c0 -16.847778 13.690292 -30.538055 30.54068 -30.538055z" fill-rule="evenodd"/><path fill="#ffffff" d="m164.74886 481.9475c12.401581 0 22.46457 10.005249 22.46457 22.40683c0 12.404205 -10.062988 22.467194 -22.46457 22.467194c-12.404205 0 -22.467194 -10.062988 -22.467194 -22.467194c0 -12.401581 10.062988 -22.40683 22.467194 -22.40683z" fill-rule="evenodd"/><path fill="#3d3d3d" d="m164.74886 482.4147c-6.086609 0 -11.527557 2.45932 -15.503937 6.4356995c-3.979004 3.979004 -6.4356995 9.477692 -6.4356995 15.503937c0 6.0839844 2.4566956 11.585297 6.4356995 15.561676c3.9763794 3.979004 9.417328 6.435669 15.503937 6.435669c6.0839844 0 11.582672 -2.456665 15.561676 -6.435669c3.979004 -3.9763794 6.4356995 -9.477692 6.4356995 -15.561676c0 -6.026245 -2.4566956 -11.524933 -6.4356995 -15.503937c-3.979004 -3.9763794 -9.477692 -6.4356995 -15.561676 -6.4356995zm0 -0.994751c12.695541 0 22.931763 10.299194 22.931763 22.934387c0 12.695526 -10.236221 22.992096 -22.931763 22.992096c-12.637802 0 -22.934387 -10.29657 -22.934387 -22.992096c0 -12.635193 10.296585 -22.934387 22.934387 -22.934387z" fill-rule="evenodd"/><path fill="#ab8fdc" d="m164.74886 490.19684c7.8398895 0 14.215225 6.37796 14.215225 14.157501c0 7.8398743 -6.3753357 14.217865 -14.215225 14.217865c-7.8398895 0 -14.16011 -6.3779907 -14.16011 -14.217865c0 -7.779541 6.320221 -14.157501 14.16011 -14.157501z" fill-rule="evenodd"/><path fill="#3d3d3d" d="m164.74886 490.66403c-3.8031464 0 -7.1968536 1.5223083 -9.653549 4.036743c-2.5170593 2.45932 -4.036743 5.9107666 -4.036743 9.653564c0 3.803131 1.5196838 7.2545776 4.036743 9.711273c2.4566956 2.4593506 5.850403 3.979004 9.653549 3.979004c3.8005219 0 7.194229 -1.5196533 9.711288 -3.979004c2.4566956 -2.4566956 3.979004 -5.908142 3.979004 -9.711273c0 -3.7427979 -1.5223083 -7.1942444 -3.979004 -9.653564c-2.5170593 -2.5144348 -5.9107666 -4.036743 -9.711288 -4.036743zm0 -0.9343872c8.131226 0 14.682419 6.5512085 14.682419 14.624695c0 8.13382 -6.551193 14.685028 -14.682419 14.685028c-8.073486 0 -14.685043 -6.5512085 -14.685043 -14.685028c0 -8.073486 6.611557 -14.624695 14.685043 -14.624695z" fill-rule="evenodd"/><path fill="#ffffff" d="m303.79086 456.21915c8.191589 0 14.803131 6.6115723 14.803131 14.800537c0 8.249359 -6.6115417 14.860901 -14.803131 14.860901c-8.249359 0 -14.858276 -6.6115417 -14.858276 -14.860901c0 -8.188965 6.608917 -14.800537 14.858276 -14.800537z" fill-rule="evenodd"/><path fill="#3d3d3d" d="m303.79086 456.68634c-3.9763794 0 -7.5459595 1.5800781 -10.178497 4.212616c-2.5747986 2.5747986 -4.2125854 6.2020874 -4.2125854 10.120728c0 3.979004 1.6377869 7.6062927 4.2125854 10.181091c2.6325378 2.5722046 6.202118 4.212616 10.178497 4.212616c3.9212341 0 7.5485535 -1.6404114 10.123352 -4.212616c2.6325378 -2.5747986 4.209961 -6.2020874 4.209961 -10.181091c0 -3.9186401 -1.5774231 -7.545929 -4.209961 -10.120728c-2.5747986 -2.6325378 -6.202118 -4.212616 -10.123352 -4.212616zm0 -0.994751c8.425171 0 15.328064 6.902893 15.328064 15.3280945c0 8.482941 -6.902893 15.388458 -15.328064 15.388458c-8.482941 0 -15.3280945 -6.9055176 -15.3280945 -15.388458c0 -8.425201 6.845154 -15.3280945 15.3280945 -15.3280945z" fill-rule="evenodd"/><path fill="#ab8fdc" d="m303.79086 462.7126c4.5643005 0 8.309692 3.7454224 8.309692 8.307098c0 4.62204 -3.7453918 8.307098 -8.309692 8.307098c-4.6220703 0 -8.307098 -3.6850586 -8.307098 -8.307098c0 -4.561676 3.685028 -8.307098 8.307098 -8.307098z" fill-rule="evenodd"/><path fill="#3d3d3d" d="m303.79086 463.24014c-2.1627502 0 -4.152252 0.87664795 -5.5564575 2.2808533c-1.4041748 1.4042053 -2.2808228 3.3333435 -2.2808228 5.4986877c0 2.1653442 0.87664795 4.154846 2.2808228 5.5590515c1.4042053 1.4042053 3.3937073 2.2808533 5.5564575 2.2808533c2.1653442 0 4.097107 -0.87664795 5.5013123 -2.2808533c1.4041748 -1.4042053 2.2808228 -3.3937073 2.2808228 -5.5590515c0 -2.1653442 -0.87664795 -4.0944824 -2.2808228 -5.4986877c-1.4042053 -1.4042053 -3.335968 -2.2808533 -5.5013123 -2.2808533zm0 -0.994751c4.8556213 0 8.776886 3.9186401 8.776886 8.774292c0 4.855652 -3.9212646 8.834656 -8.776886 8.834656c-4.855652 0 -8.832031 -3.979004 -8.832031 -8.834656c0 -4.855652 3.9763794 -8.774292 8.832031 -8.774292z" fill-rule="evenodd"/><path fill="#ffffff" d="m27.171427 453.54855c4.797901 0 8.716536 3.8609009 8.716536 8.658783c0 4.7979126 -3.9186344 8.716553 -8.716536 8.716553c-4.7978992 0 -8.716536 -3.9186401 -8.716536 -8.716553c0 -4.797882 3.9186363 -8.658783 8.716536 -8.658783z" fill-rule="evenodd"/><path fill="#3d3d3d" d="m27.171427 454.01837c-2.28084 0 -4.328083 0.9343872 -5.79265 2.3963318c-1.5196857 1.5223083 -2.3989506 3.5695496 -2.3989506 5.792633c0 2.2834778 0.87926483 4.330719 2.3989506 5.850403c1.4645672 1.4619446 3.5118103 2.3989563 5.79265 2.3989563c2.28084 0 4.328085 -0.9370117 5.79265 -2.3989563c1.5196877 -1.5196838 2.3989525 -3.566925 2.3989525 -5.850403c0 -2.2230835 -0.87926483 -4.2703247 -2.3989525 -5.792633c-1.4645653 -1.4619446 -3.5118103 -2.3963318 -5.79265 -2.3963318zm0 -0.994751c5.089239 0 9.186354 4.1522217 9.186354 9.183716c0 5.089264 -4.0971146 9.186371 -9.186354 9.186371c-5.089239 0 -9.186352 -4.097107 -9.186352 -9.186371c0 -5.031494 4.0971127 -9.183716 9.186352 -9.183716z" fill-rule="evenodd"/><path fill="#ab8fdc" d="m27.171427 457.3517c2.6902885 0 4.8556423 2.1653442 4.8556423 4.8556213c0 2.6929321 -2.1653538 4.9160156 -4.8556423 4.9160156c-2.6902885 0 -4.8556423 -2.2230835 -4.8556423 -4.9160156c0 -2.690277 2.1653538 -4.8556213 4.8556423 -4.8556213z" fill-rule="evenodd"/><path fill="#3d3d3d" d="m27.171427 457.8189c-1.2283459 0 -2.28084 0.5275574 -3.0997372 1.2886963c-0.81889725 0.8189087 -1.2887135 1.9291382 -1.2887135 3.0997314c0 1.228363 0.4698162 2.341217 1.2887135 3.1023865c0.81889725 0.8188782 1.8713913 1.2860718 3.0997372 1.2860718c1.2283478 0 2.28084 -0.4671936 3.0997372 -1.2860718c0.81889915 -0.76116943 1.2887154 -1.8740234 1.2887154 -3.1023865c0 -1.1705933 -0.4698162 -2.2808228 -1.2887154 -3.0997314c-0.81889725 -0.7611389 -1.8713894 -1.2886963 -3.0997372 -1.2886963zm0 -0.9343872c2.984253 0 5.3832035 2.3989563 5.3832035 5.322815c0 2.984253 -2.3989506 5.383209 -5.3832035 5.383209c-2.984251 0 -5.3832016 -2.3989563 -5.3832016 -5.383209c0 -2.9238586 2.3989506 -5.322815 5.3832016 -5.322815z" fill-rule="evenodd"/><path fill="#ab8fdc" d="m422.02124 489.24744c8.370209 0 15.149689 6.77948 15.149689 15.120605c0 8.371521 -6.77948 15.149719 -15.149689 15.149719c-8.3715515 0 -15.149689 -6.7781982 -15.149689 -15.149719c0 -8.3411255 6.778137 -15.120605 15.149689 -15.120605z" fill-rule="evenodd"/><path fill="#3d3d3d" d="m422.02124 489.4841c-4.1269226 0 -7.841278 1.650238 -10.522919 4.3623047c-2.7120667 2.6816406 -4.3623047 6.42511 -4.3623047 10.521606c0 4.126953 1.650238 7.8399963 4.3623047 10.552032c2.6816406 2.6816406 6.395996 4.3623047 10.522919 4.3623047c4.1256104 0 7.8399963 -1.6806641 10.55072 -4.3623047c2.682953 -2.7120361 4.3623047 -6.4250793 4.3623047 -10.552032c0 -4.0964966 -1.6793518 -7.839966 -4.3623047 -10.521606c-2.7107239 -2.7120667 -6.42511 -4.3623047 -10.55072 -4.3623047zm0 -0.50115967c8.487915 0 15.385071 6.8971863 15.385071 15.385071c0 8.518341 -6.897156 15.415497 -15.385071 15.415497c-8.489227 0 -15.386383 -6.897156 -15.386383 -15.415497c0 -8.4878845 6.897156 -15.385071 15.386383 -15.385071z" fill-rule="evenodd"/><path fill="#ffffff" d="m422.02106 493.07965c6.247925 0 11.317657 5.0406494 11.317657 11.288574c0 6.249237 -5.0697327 11.31897 -11.317657 11.31897c-6.249237 0 -11.31897 -5.0697327 -11.31897 -11.31897c0 -6.247925 5.0697327 -11.288574 11.31897 -11.288574z" fill-rule="evenodd"/><path fill="#3d3d3d" d="m422.02106 493.31503c-3.0664368 0 -5.8075867 1.2389832 -7.8108826 3.242279c-2.0046082 2.0046387 -3.2423096 4.774872 -3.2423096 7.8108826c0 3.0651245 1.2377014 5.8367004 3.2423096 7.8399963c2.003296 2.0046387 4.744446 3.2423096 7.8108826 3.2423096c3.0651245 0 5.8353577 -1.2376709 7.8399963 -3.2423096c2.0046082 -2.003296 3.242279 -4.774872 3.242279 -7.8399963c0 -3.0360107 -1.2376709 -5.806244 -3.242279 -7.8108826c-2.0046387 -2.003296 -4.774872 -3.242279 -7.8399963 -3.242279zm0 -0.50115967c6.3960266 0 11.55304 5.1887207 11.55304 11.554321c0 6.3960266 -5.157013 11.583466 -11.55304 11.583466c-6.366913 0 -11.554321 -5.187439 -11.554321 -11.583466c0 -6.3656006 5.1874084 -11.554321 11.554321 -11.554321z" fill-rule="evenodd"/><path fill="#ab8fdc" d="m422.02084 497.23587c3.9497375 0 7.1616516 3.2132263 7.1616516 7.132538c0 3.9497375 -3.211914 7.162964 -7.1616516 7.162964c-3.9497375 0 -7.13385 -3.2132263 -7.13385 -7.162964c0 -3.9193115 3.1841125 -7.132538 7.13385 -7.132538z" fill-rule="evenodd"/><path fill="#3d3d3d" d="m422.02087 497.47125c-1.9160461 0 -3.6257935 0.76693726 -4.8634644 2.0336914c-1.2680969 1.2390137 -2.033722 2.9778442 -2.033722 4.8634644c0 1.9160156 0.765625 3.6548767 2.033722 4.8925476c1.2376709 1.2390137 2.9474182 2.0046082 4.8634644 2.0046082c1.9147034 0 3.6244507 -0.7655945 4.8925476 -2.0046082c1.2376709 -1.2376709 2.0046082 -2.976532 2.0046082 -4.8925476c0 -1.8856201 -0.76693726 -3.6244507 -2.0046082 -4.8634644c-1.2680969 -1.2667542 -2.9778442 -2.0336914 -4.8925476 -2.0336914zm0 -0.47076416c4.0964966 0 7.397003 3.3005066 7.397003 7.36792c0 4.0978394 -3.3005066 7.3983154 -7.397003 7.3983154c-4.067444 0 -7.398346 -3.300476 -7.398346 -7.3983154c0 -4.0674133 3.330902 -7.36792 7.398346 -7.36792z" fill-rule="evenodd"/><path fill="#3d3d3d" d="m43.809223 436.3176l0 0c0 -0.7827759 -0.6345558 -1.4173279 -1.4173241 -1.4173279l0 0c-0.37589645 0 -0.7363968 0.14932251 -1.0021973 0.41513062c-0.26580048 0.2657776 -0.4151268 0.62628174 -0.4151268 1.0021973l0 0c0 0.78274536 0.63455963 1.4172974 1.4173241 1.4172974l0 0c0.78276825 0 1.4173241 -0.634552 1.4173241 -1.4172974z" fill-rule="evenodd"/><path fill="#3d3d3d" d="m36.039536 436.3176l0 0c0 -0.7827759 -0.6345558 -1.4173279 -1.4173241 -1.4173279l0 0c-0.37589645 0 -0.7363968 0.14932251 -1.0021973 0.41513062c-0.26580048 0.2657776 -0.415123 0.62628174 -0.415123 1.0021973l0 0c0 0.78274536 0.6345558 1.4172974 1.4173203 1.4172974l0 0c0.78276825 0 1.4173241 -0.634552 1.4173241 -1.4172974z" fill-rule="evenodd"/><path fill="#3d3d3d" d="m28.269848 436.3176l0 0c0 -0.7827759 -0.6345558 -1.4173279 -1.4173222 -1.4173279l0 0c-0.37589645 0 -0.7363987 0.14932251 -1.0021992 0.41513062c-0.26579857 0.2657776 -0.415123 0.62628174 -0.415123 1.0021973l0 0c0 0.78274536 0.6345558 1.4172974 1.4173222 1.4172974l0 0c0.78276634 0 1.4173222 -0.634552 1.4173222 -1.4172974z" fill-rule="evenodd"/><path fill="#000000" fill-opacity="0.0" d="m787.3543 47.380577l-157.95276 -23.590551" fill-rule="evenodd"/><path stroke="#3d3d3d" stroke-width="1.0" stroke-linejoin="round" stroke-linecap="butt" d="m787.3543 47.380577l-157.95276 -23.590551" fill-rule="evenodd"/><path fill="#000000" fill-opacity="0.0" d="m875.84515 126.115486l-87.08661 -78.04724" fill-rule="evenodd"/><path stroke="#3d3d3d" stroke-width="1.0" stroke-linejoin="round" stroke-linecap="butt" d="m875.84515 126.115486l-87.08661 -78.04724" fill-rule="evenodd"/><path fill="#000000" fill-opacity="0.0" d="m960.15485 -0.69553804l-83.62201 124.72441" fill-rule="evenodd"/><path stroke="#3d3d3d" stroke-width="1.0" stroke-linejoin="round" stroke-linecap="butt" d="m960.15485 -0.69553804l-83.62201 124.72441" fill-rule="evenodd"/><path fill="#ab8fdc" d="m877.1837 109.74016c-16.614136 0 -30.070862 13.456696 -30.070862 30.013123c0 16.61679 13.456726 30.070862 30.070862 30.070862c16.616821 0 30.070862 -13.454071 30.070862 -30.070862c0 -16.556427 -13.454041 -30.013123 -30.070862 -30.013123z" fill-rule="evenodd"/><path fill="#3d3d3d" d="m877.1837 110.20998c8.191589 0 15.564331 3.275589 20.887146 8.658791c5.3831787 5.322838 8.658813 12.753273 8.658813 20.884514c0 8.191605 -3.2756348 15.561676 -8.658813 20.944885c-5.322815 5.32283 -12.695557 8.658783 -20.887146 8.658783c-8.188965 0 -15.5616455 -3.3359528 -20.94226 -8.658783c-5.3254395 -5.383209 -8.658752 -12.753281 -8.658752 -20.944885c0 -8.131241 3.333313 -15.561676 8.658752 -20.884514c5.380615 -5.3832016 12.753296 -8.658791 20.94226 -8.658791zm0 -0.994751c-16.847778 0 -30.538025 13.690285 -30.538025 30.538055c0 16.908142 13.690247 30.59842 30.538025 30.59842c16.850403 0 30.54071 -13.690277 30.54071 -30.59842c0 -16.84777 -13.690308 -30.538055 -30.54071 -30.538055z" fill-rule="evenodd"/><path fill="#ffffff" d="m877.1837 117.34646c-12.40155 0 -22.464539 10.005249 -22.464539 22.406822c0 12.404205 10.062988 22.467194 22.464539 22.467194c12.404236 0 22.467224 -10.062988 22.467224 -22.467194c0 -12.401573 -10.062988 -22.406822 -22.467224 -22.406822z" fill-rule="evenodd"/><path fill="#3d3d3d" d="m877.1837 117.81365c6.086609 0 11.527588 2.4593124 15.503967 6.435692c3.979004 3.979004 6.435669 9.477692 6.435669 15.503937c0 6.0839844 -2.456665 11.585297 -6.435669 15.561676c-3.9763794 3.979004 -9.417358 6.4356995 -15.503967 6.4356995c-6.0839844 0 -11.582642 -2.4566956 -15.5616455 -6.4356995c-3.979004 -3.9763794 -6.43573 -9.477692 -6.43573 -15.561676c0 -6.026245 2.456726 -11.524933 6.43573 -15.503937c3.979004 -3.9763794 9.477661 -6.435692 15.5616455 -6.435692zm0 -0.994751c-12.695557 0 -22.931763 10.29921 -22.931763 22.93438c0 12.695541 10.236206 22.992126 22.931763 22.992126c12.637817 0 22.934387 -10.296585 22.934387 -22.992126c0 -12.63517 -10.29657 -22.93438 -22.934387 -22.93438z" fill-rule="evenodd"/><path fill="#ab8fdc" d="m877.1837 125.5958c-7.839905 0 -14.21521 6.3779526 -14.21521 14.157478c0 7.8398895 6.375305 14.21785 14.21521 14.21785c7.839905 0 14.160095 -6.37796 14.160095 -14.21785c0 -7.7795258 -6.3201904 -14.157478 -14.160095 -14.157478z" fill-rule="evenodd"/><path fill="#3d3d3d" d="m877.1837 126.062996c3.8031616 0 7.1968384 1.5223083 9.653564 4.0367355c2.5170288 2.45932 4.036743 5.9107666 4.036743 9.653549c0 3.8031464 -1.5197144 7.254593 -4.036743 9.711288c-2.456726 2.45932 -5.850403 3.979004 -9.653564 3.979004c-3.800537 0 -7.194214 -1.5196838 -9.711304 -3.979004c-2.456665 -2.4566956 -3.979004 -5.908142 -3.979004 -9.711288c0 -3.7427826 1.5223389 -7.194229 3.979004 -9.653549c2.5170898 -2.5144272 5.9107666 -4.0367355 9.711304 -4.0367355zm0 -0.9343872c-8.131226 0 -14.682373 6.5511856 -14.682373 14.624672c0 8.133865 6.5511475 14.685043 14.682373 14.685043c8.073486 0 14.685059 -6.551178 14.685059 -14.685043c0 -8.073486 -6.6115723 -14.624672 -14.685059 -14.624672z" fill-rule="evenodd"/><path fill="#ffffff" d="m787.30444 33.732285c-8.191589 0 -14.803101 6.6115494 -14.803101 14.800526c0 8.249344 6.611511 14.860889 14.803101 14.860889c8.24939 0 14.858276 -6.6115456 14.858276 -14.860889c0 -8.188976 -6.6088867 -14.800526 -14.858276 -14.800526z" fill-rule="evenodd"/><path fill="#3d3d3d" d="m787.30444 34.199474c3.9763794 0 7.5459595 1.5800514 10.178467 4.2126007c2.574829 2.5748024 4.2126465 6.202099 4.2126465 10.120735c0 3.979 -1.6378174 7.6062965 -4.2126465 10.181099c-2.6325073 2.5721817 -6.2020874 4.2126007 -10.178467 4.2126007c-3.9212646 0 -7.548523 -1.640419 -10.123352 -4.2126007c-2.6325073 -2.5748024 -4.209961 -6.202099 -4.209961 -10.181099c0 -3.9186363 1.5774536 -7.545933 4.209961 -10.120735c2.574829 -2.6325493 6.2020874 -4.2126007 10.123352 -4.2126007zm0 -0.994751c-8.425171 0 -15.328064 6.9028893 -15.328064 15.328087c0 8.482937 6.902893 15.388451 15.328064 15.388451c8.482971 0 15.328125 -6.905514 15.328125 -15.388451c0 -8.425198 -6.845154 -15.328087 -15.328125 -15.328087z" fill-rule="evenodd"/><path fill="#ab8fdc" d="m787.30444 40.225723c-4.56427 0 -8.309692 3.745407 -8.309692 8.307087c0 4.6220436 3.7454224 8.307083 8.309692 8.307083c4.6220703 0 8.307129 -3.6850395 8.307129 -8.307083c0 -4.56168 -3.6850586 -8.307087 -8.307129 -8.307087z" fill-rule="evenodd"/><path fill="#3d3d3d" d="m787.30444 40.75328c2.1627197 0 4.1522217 0.8766403 5.5564575 2.2808418c1.4041748 1.4041977 2.2808228 3.333332 2.2808228 5.4986877c0 2.1653519 -0.87664795 4.154854 -2.2808228 5.5590515c-1.4042358 1.4042015 -3.3937378 2.2808418 -5.5564575 2.2808418c-2.1653442 0 -4.097107 -0.8766403 -5.5012817 -2.2808418c-1.4042358 -1.4041977 -2.2808228 -3.3936996 -2.2808228 -5.5590515c0 -2.1653557 0.8765869 -4.09449 2.2808228 -5.4986877c1.4041748 -1.4042015 3.3359375 -2.2808418 5.5012817 -2.2808418zm0 -0.994751c-4.855652 0 -8.776855 3.9186363 -8.776855 8.774281c0 4.8556404 3.9212036 8.834644 8.776855 8.834644c4.855652 0 8.832031 -3.979004 8.832031 -8.834644c0 -4.855644 -3.9763794 -8.774281 -8.832031 -8.774281z" fill-rule="evenodd"/><path fill="#ffffff" d="m932.26245 34.257217c-4.7979126 0 -8.716492 3.8608932 -8.716492 8.658794c0 4.7978973 3.918579 8.716534 8.716492 8.716534c4.7979126 0 8.716553 -3.9186363 8.716553 -8.716534c0 -4.797901 -3.9186401 -8.658794 -8.716553 -8.658794z" fill-rule="evenodd"/><path fill="#3d3d3d" d="m932.26245 34.727036c2.2808838 0 4.328125 0.9343834 5.7926636 2.3963242c1.5197144 1.5223083 2.3989258 3.5695534 2.3989258 5.792652c0 2.2834625 -0.8792114 4.3307076 -2.3989258 5.8503914c-1.4645386 1.4619446 -3.5117798 2.3989525 -5.7926636 2.3989525c-2.2808228 0 -4.328064 -0.9370079 -5.7926636 -2.3989525c-1.5196533 -1.5196838 -2.3989258 -3.5669289 -2.3989258 -5.8503914c0 -2.2230988 0.87927246 -4.270344 2.3989258 -5.792652c1.4645996 -1.4619408 3.5118408 -2.3963242 5.7926636 -2.3963242zm0 -0.994751c-5.0892334 0 -9.18634 4.1522293 -9.18634 9.183727c0 5.089237 4.097107 9.186352 9.18634 9.186352c5.0892334 0 9.18634 -4.0971146 9.18634 -9.186352c0 -5.031498 -4.097107 -9.183727 -9.18634 -9.183727z" fill-rule="evenodd"/><path fill="#ab8fdc" d="m932.26245 38.060368c-2.6902466 0 -4.855652 2.1653557 -4.855652 4.855644c0 2.692913 2.1654053 4.916008 4.855652 4.916008c2.6903076 0 4.855652 -2.223095 4.855652 -4.916008c0 -2.6902885 -2.1653442 -4.855644 -4.855652 -4.855644z" fill-rule="evenodd"/><path fill="#3d3d3d" d="m932.26245 38.527557c1.2283325 0 2.2808838 0.5275612 3.0997314 1.2887154c0.8189087 0.81889725 1.2887573 1.9291344 1.2887573 3.099739c0 1.228344 -0.46984863 2.3412056 -1.2887573 3.1023598c-0.81884766 0.81889725 -1.8713989 1.2860909 -3.0997314 1.2860909c-1.2283325 0 -2.2808228 -0.4671936 -3.0997314 -1.2860909c-0.8189087 -0.7611542 -1.2886963 -1.8740158 -1.2886963 -3.1023598c0 -1.1706047 0.4697876 -2.2808418 1.2886963 -3.099739c0.8189087 -0.7611542 1.8713989 -1.2887154 3.0997314 -1.2887154zm0 -0.9343834c-2.984253 0 -5.3831787 2.3989525 -5.3831787 5.322838c0 2.984249 2.3989258 5.3832016 5.3831787 5.3832016c2.984253 0 5.3832397 -2.3989525 5.3832397 -5.3832016c0 -2.9238853 -2.3989868 -5.322838 -5.3832397 -5.322838z" fill-rule="evenodd"/><path fill="#ab8fdc" d="m627.1502 7.2133036c-8.370239 0 -15.149719 6.779482 -15.149719 15.120612c0 8.371542 6.77948 15.1497 15.149719 15.1497c8.371521 0 15.149658 -6.778158 15.149658 -15.1497c0 -8.34113 -6.778137 -15.120612 -15.149658 -15.120612z" fill-rule="evenodd"/><path fill="#3d3d3d" d="m627.15015 7.449984c4.126953 0 7.8413086 1.6502423 10.522949 4.3622994c2.7120972 2.6816444 4.3623047 6.425103 4.3623047 10.521619c0 4.1269283 -1.6502075 7.8399734 -4.3623047 10.552031c-2.6816406 2.6816444 -6.395996 4.362301 -10.522949 4.362301c-4.1255493 0 -7.839966 -1.6806564 -10.550659 -4.362301c-2.6829834 -2.712057 -4.3623047 -6.425102 -4.3623047 -10.552031c0 -4.0965157 1.6793213 -7.8399744 4.3623047 -10.521619c2.7106934 -2.712057 6.42511 -4.3622994 10.550659 -4.3622994zm0 -0.5011554c-8.487854 0 -15.385071 6.897167 -15.385071 15.385074c0 8.51832 6.897217 15.415487 15.385071 15.415487c8.489258 0 15.386414 -6.897167 15.386414 -15.415487c0 -8.487906 -6.897156 -15.385074 -15.386414 -15.385074z" fill-rule="evenodd"/><path fill="#ffffff" d="m627.1504 11.045543c-6.247925 0 -11.317688 5.0406446 -11.317688 11.288558c0 6.249235 5.069763 11.318972 11.317688 11.318972c6.2492065 0 11.31897 -5.0697365 11.31897 -11.318972c0 -6.2479134 -5.069763 -11.288558 -11.31897 -11.288558z" fill-rule="evenodd"/><path fill="#3d3d3d" d="m627.1504 11.280901c3.0664062 0 5.807556 1.2390041 7.810852 3.242303c2.0046387 2.0046225 3.2423096 4.7748613 3.2423096 7.8108835c0 3.065113 -1.2376709 5.8366756 -3.2423096 7.8399734c-2.003296 2.0046234 -4.744446 3.2423058 -7.810852 3.2423058c-3.0651245 0 -5.835388 -1.2376823 -7.840027 -3.2423058c-2.0045776 -2.0032978 -3.2423096 -4.7748604 -3.2423096 -7.8399734c0 -3.0360222 1.2377319 -5.806261 3.2423096 -7.8108835c2.0046387 -2.0032988 4.7749023 -3.242303 7.840027 -3.242303zm0 -0.50115585c-6.396057 0 -11.55304 5.1887436 -11.55304 11.554342c0 6.3960114 5.1569824 11.583431 11.55304 11.583431c6.3668823 0 11.554321 -5.18742 11.554321 -11.583431c0 -6.3655987 -5.187439 -11.554342 -11.554321 -11.554342z" fill-rule="evenodd"/><path fill="#ab8fdc" d="m627.1506 15.201762c-3.949768 0 -7.161621 3.213212 -7.161621 7.132539c0 3.9497395 3.211853 7.1629524 7.161621 7.1629524c3.949768 0 7.13385 -3.213213 7.13385 -7.1629524c0 -3.9193268 -3.184082 -7.132539 -7.13385 -7.132539z" fill-rule="evenodd"/><path fill="#3d3d3d" d="m627.1506 15.437122c1.9160156 0 3.6257324 0.76693916 4.8634644 2.0337124c1.2680664 1.2390041 2.0336914 2.9778423 2.0336914 4.863455c0 1.9160271 -0.765625 3.6548634 -2.0336914 4.8925457c-1.2377319 1.2390041 -2.9474487 2.0046215 -4.8634644 2.0046215c-1.9147339 0 -3.6244507 -0.7656174 -4.892578 -2.0046215c-1.2376709 -1.2376823 -2.0045776 -2.9765186 -2.0045776 -4.8925457c0 -1.8856125 0.76690674 -3.6244507 2.0045776 -4.863455c1.2681274 -1.2667732 2.9778442 -2.0337124 4.892578 -2.0337124zm0 -0.47074223c-4.0965576 0 -7.3970337 3.3004847 -7.3970337 7.3679094c0 4.0978374 3.300476 7.398323 7.3970337 7.398323c4.067383 0 7.3983154 -3.3004856 7.3983154 -7.398323c0 -4.067425 -3.3309326 -7.3679094 -7.3983154 -7.3679094z" fill-rule="evenodd"/><path fill="#3d3d3d" d="m891.3438 19.356955l0 0c0 -0.78276443 0.6345825 -1.4173222 1.4173584 -1.4173222l0 0c0.3758545 0 0.73638916 0.14932442 1.0021973 0.4151249c0.2658081 0.26579857 0.4151001 0.6263008 0.4151001 1.0021973l0 0c0 0.78276634 -0.6345215 1.4173241 -1.4172974 1.4173241l0 0c-0.7827759 0 -1.4173584 -0.6345577 -1.4173584 -1.4173241z" fill-rule="evenodd"/><path fill="#3d3d3d" d="m899.1135 19.356955l0 0c0 -0.78276443 0.6345215 -1.4173222 1.4172974 -1.4173222l0 0c0.37591553 0 0.73638916 0.14932442 1.0021973 0.4151249c0.2658081 0.26579857 0.41516113 0.6263008 0.41516113 1.0021973l0 0c0 0.78276634 -0.6345825 1.4173241 -1.4173584 1.4173241l0 0c-0.7827759 0 -1.4172974 -0.6345577 -1.4172974 -1.4173241z" fill-rule="evenodd"/><path fill="#3d3d3d" d="m906.8832 19.356955l0 0c0 -0.78276443 0.6345825 -1.4173222 1.4173584 -1.4173222l0 0c0.37591553 0 0.73638916 0.14932442 1.0021973 0.4151249c0.2658081 0.26579857 0.4151001 0.6263008 0.4151001 1.0021973l0 0c0 0.78276634 -0.6345215 1.4173241 -1.4172974 1.4173241l0 0c-0.7827759 0 -1.4173584 -0.6345577 -1.4173584 -1.4173241z" fill-rule="evenodd"/><path fill="#3d3d3d" d="m911.11285 175.48557l0 0c0 -0.7827606 0.6345825 -1.4173279 1.4173584 -1.4173279l0 0c0.3758545 0 0.73638916 0.14932251 1.0021973 0.41513062c0.26574707 0.26579285 0.4151001 0.626297 0.4151001 1.0021973l0 0c0 0.7827606 -0.6345825 1.4173279 -1.4172974 1.4173279l0 0c-0.7827759 0 -1.4173584 -0.63456726 -1.4173584 -1.4173279z" fill-rule="evenodd"/><path fill="#3d3d3d" d="m918.88257 175.48557l0 0c0 -0.7827606 0.6345215 -1.4173279 1.4172974 -1.4173279l0 0c0.37591553 0 0.73638916 0.14932251 1.0021973 0.41513062c0.2658081 0.26579285 0.41516113 0.626297 0.41516113 1.0021973l0 0c0 0.7827606 -0.6345825 1.4173279 -1.4173584 1.4173279l0 0c-0.7827759 0 -1.4172974 -0.63456726 -1.4172974 -1.4173279z" fill-rule="evenodd"/><path fill="#3d3d3d" d="m926.6522 175.48557l0 0c0 -0.7827606 0.6345825 -1.4173279 1.4173584 -1.4173279l0 0c0.3758545 0 0.73638916 0.14932251 1.0021973 0.41513062c0.2658081 0.26579285 0.4151001 0.626297 0.4151001 1.0021973l0 0c0 0.7827606 -0.6345825 1.4173279 -1.4172974 1.4173279l0 0c-0.7827759 0 -1.4173584 -0.63456726 -1.4173584 -1.4173279z" fill-rule="evenodd"/><path fill="#000000" fill-opacity="0.0" d="m275.52 170.15779l409.9213 0l0 199.68504l-409.9213 0z" fill-rule="evenodd"/></g></svg>