<svg version="1.1" viewBox="0.0 0.0 960.0 540.0" fill="none" stroke="none" stroke-linecap="square" stroke-miterlimit="10" xmlns:xlink="http://www.w3.org/1999/xlink" xmlns="http://www.w3.org/2000/svg"><clipPath id="g1478f75718d_0_0.0"><path d="m0 0l960.0 0l0 540.0l-960.0 0l0 -540.0z" clip-rule="nonzero"/></clipPath><g clip-path="url(#g1478f75718d_0_0.0)"><path fill="#ffffff" d="m0 0l960.0 0l0 540.0l-960.0 0z" fill-rule="evenodd"/><path fill="#000000" fill-opacity="0.0" d="m61.989502 455.70602l127.33858 44.37796" fill-rule="evenodd"/><path stroke="#3d3d3d" stroke-width="1.0" stroke-linejoin="round" stroke-linecap="butt" d="m61.989502 455.70602l127.33858 44.37796" fill-rule="evenodd"/><path fill="#000000" fill-opacity="0.0" d="m0.8372703 523.5591l61.165356 -68.69293" fill-rule="evenodd"/><path stroke="#3d3d3d" stroke-width="1.0" stroke-linejoin="round" stroke-linecap="butt" d="m0.8372703 523.5591l61.165356 -68.69293" fill-rule="evenodd"/><path fill="#ffffff" d="m60.65354 439.76904c8.191605 0 14.803154 6.6115417 14.803154 14.800507c0 8.249359 -6.6115494 14.860901 -14.803154 14.860901c-8.249344 0 -14.858265 -6.6115417 -14.858265 -14.860901c0 -8.188965 6.608921 -14.800507 14.858265 -14.800507z" fill-rule="evenodd"/><path fill="#3d3d3d" d="m60.65354 440.2362c-3.9763756 0 -7.545929 1.5800781 -10.178474 4.212616c-2.5748062 2.5747986 -4.2126007 6.2020874 -4.2126007 10.120728c0 3.979004 1.6377945 7.6062927 4.2126007 10.181122c2.6325455 2.572174 6.202099 4.2125854 10.178474 4.2125854c3.9212646 0 7.548561 -1.6404114 10.12336 -4.2125854c2.6325455 -2.574829 4.209976 -6.202118 4.209976 -10.181122c0 -3.9186401 -1.5774307 -7.545929 -4.209976 -10.120728c-2.5747986 -2.6325378 -6.202095 -4.212616 -10.12336 -4.212616zm0 -0.994751c8.425201 0 15.328087 6.902893 15.328087 15.3280945c0 8.482941 -6.9028854 15.388458 -15.328087 15.388458c-8.482937 0 -15.328083 -6.9055176 -15.328083 -15.388458c0 -8.425201 6.845146 -15.3280945 15.328083 -15.3280945z" fill-rule="evenodd"/><path fill="#ab8fdc" d="m60.65354 446.26248c4.564308 0 8.309715 3.7453918 8.309715 8.307068c0 4.62204 -3.745407 8.307098 -8.309715 8.307098c-4.6220436 0 -8.307083 -3.6850586 -8.307083 -8.307098c0 -4.561676 3.6850395 -8.307068 8.307083 -8.307068z" fill-rule="evenodd"/><path fill="#3d3d3d" d="m60.65354 446.79004c-2.1627274 0 -4.1522293 0.87661743 -5.556427 2.2808228c-1.4042015 1.4042053 -2.2808418 3.3333435 -2.2808418 5.4986877c0 2.1653442 0.8766403 4.154846 2.2808418 5.5590515c1.4041977 1.4042053 3.3936996 2.2808533 5.556427 2.2808533c2.1653557 0 4.0971146 -0.87664795 5.5013123 -2.2808533c1.4041977 -1.4042053 2.280838 -3.3937073 2.280838 -5.5590515c0 -2.1653442 -0.8766403 -4.0944824 -2.280838 -5.4986877c-1.4041977 -1.4042053 -3.3359566 -2.2808228 -5.5013123 -2.2808228zm0 -0.994751c4.855644 0 8.776901 3.9186096 8.776901 8.774261c0 4.855652 -3.921257 8.834656 -8.776901 8.834656c-4.8556404 0 -8.83202 -3.979004 -8.83202 -8.834656c0 -4.855652 3.9763794 -8.774261 8.83202 -8.774261z" fill-rule="evenodd"/><path fill="#ab8fdc" d="m188.26976 484.9456c8.370224 0 15.149704 6.77948 15.149704 15.120605c0 8.3715515 -6.77948 15.149689 -15.149704 15.149689c-8.371536 0 -15.149704 -6.778137 -15.149704 -15.149689c0 -8.3411255 6.7781677 -15.120605 15.149704 -15.120605z" fill-rule="evenodd"/><path fill="#3d3d3d" d="m188.26978 485.18228c-4.126938 0 -7.8412933 1.650238 -10.522949 4.362274c-2.7120514 2.6816711 -4.3622894 6.42511 -4.3622894 10.521637c0 4.1269226 1.650238 7.839966 4.3622894 10.552032c2.681656 2.6816406 6.3960114 4.3623047 10.522949 4.3623047c4.1256104 0 7.839966 -1.6806641 10.550705 -4.3623047c2.6829681 -2.7120667 4.3623047 -6.42511 4.3623047 -10.552032c0 -4.096527 -1.6793365 -7.839966 -4.3623047 -10.521637c-2.7107391 -2.7120361 -6.4250946 -4.362274 -10.550705 -4.362274zm0 -0.50115967c8.4879 0 15.385071 6.897156 15.385071 15.385071c0 8.518311 -6.897171 15.415497 -15.385071 15.415497c-8.489227 0 -15.386398 -6.8971863 -15.386398 -15.415497c0 -8.487915 6.897171 -15.385071 15.386398 -15.385071z" fill-rule="evenodd"/><path fill="#ffffff" d="m188.26958 488.77783c6.2479095 0 11.317642 5.0406494 11.317642 11.288544c0 6.249237 -5.0697327 11.31897 -11.317642 11.31897c-6.249237 0 -11.31897 -5.0697327 -11.31897 -11.31897c0 -6.2478943 5.0697327 -11.288544 11.31897 -11.288544z" fill-rule="evenodd"/><path fill="#3d3d3d" d="m188.26959 489.01318c-3.0664368 0 -5.8075867 1.2390137 -7.8108826 3.2423096c-2.0046234 2.0046082 -3.2423096 4.7748413 -3.2423096 7.8108826c0 3.065094 1.2376862 5.83667 3.2423096 7.839966c2.003296 2.0046387 4.744446 3.2423096 7.8108826 3.2423096c3.0651093 0 5.8353424 -1.2376709 7.839966 -3.2423096c2.0046234 -2.003296 3.2423096 -4.774872 3.2423096 -7.839966c0 -3.0360413 -1.2376862 -5.8062744 -3.2423096 -7.8108826c-2.0046234 -2.003296 -4.7748566 -3.2423096 -7.839966 -3.2423096zm0 -0.50115967c6.3960114 0 11.553009 5.188751 11.553009 11.554352c0 6.395996 -5.1569977 11.583435 -11.553009 11.583435c-6.366928 0 -11.554352 -5.187439 -11.554352 -11.583435c0 -6.3656006 5.1874237 -11.554352 11.554352 -11.554352z" fill-rule="evenodd"/><path fill="#ab8fdc" d="m188.26938 492.93405c3.9497375 0 7.161621 3.2131958 7.161621 7.132538c0 3.9497375 -3.2118835 7.1629333 -7.161621 7.1629333c-3.9497375 0 -7.1338654 -3.2131958 -7.1338654 -7.1629333c0 -3.919342 3.1841278 -7.132538 7.1338654 -7.132538z" fill-rule="evenodd"/><path fill="#3d3d3d" d="m188.2694 493.1694c-1.9160309 0 -3.6257782 0.76693726 -4.8634644 2.033722c-1.2680969 1.2389832 -2.0337067 2.9778442 -2.0337067 4.863434c0 1.9160461 0.76560974 3.6548767 2.0337067 4.8925476c1.2376862 1.2390137 2.9474335 2.0046387 4.8634644 2.0046387c1.9147034 0 3.6244507 -0.765625 4.8925323 -2.0046387c1.2376862 -1.2376709 2.0046234 -2.9765015 2.0046234 -4.8925476c0 -1.8855896 -0.76693726 -3.6244507 -2.0046234 -4.863434c-1.2680817 -1.2667847 -2.977829 -2.033722 -4.8925323 -2.033722zm0 -0.47073364c4.096512 0 7.396988 3.300476 7.396988 7.3678894c0 4.0978394 -3.300476 7.398346 -7.396988 7.398346c-4.0674286 0 -7.3983307 -3.3005066 -7.3983307 -7.398346c0 -4.0674133 3.330902 -7.3678894 7.3983307 -7.3678894z" fill-rule="evenodd"/><path fill="#000000" fill-opacity="0.0" d="m877.06824 87.95801l-121.480286 -56.97638" fill-rule="evenodd"/><path stroke="#3d3d3d" stroke-width="1.0" stroke-linejoin="round" stroke-linecap="butt" d="m877.06824 87.95801l-121.480286 -56.97638" fill-rule="evenodd"/><path fill="#000000" fill-opacity="0.0" d="m960.15485 -0.69553804l-83.08661 87.81103" fill-rule="evenodd"/><path stroke="#3d3d3d" stroke-width="1.0" stroke-linejoin="round" stroke-linecap="butt" d="m960.15485 -0.69553804l-83.08661 87.81103" fill-rule="evenodd"/><path fill="#ab8fdc" d="m877.1837 55.84777c-16.614136 0 -30.070862 13.456688 -30.070862 30.013123c0 16.616798 13.456726 30.070862 30.070862 30.070862c16.616821 0 30.070862 -13.454063 30.070862 -30.070862c0 -16.556435 -13.454041 -30.013123 -30.070862 -30.013123z" fill-rule="evenodd"/><path fill="#3d3d3d" d="m877.1837 56.317585c8.191589 0 15.564331 3.275589 20.887146 8.658794c5.3831787 5.32283 8.658813 12.753281 8.658813 20.884514c0 8.191597 -3.2756348 15.561676 -8.658813 20.944878c-5.322815 5.322838 -12.695557 8.658798 -20.887146 8.658798c-8.188965 0 -15.5616455 -3.3359604 -20.94226 -8.658798c-5.3254395 -5.3832016 -8.658752 -12.753281 -8.658752 -20.944878c0 -8.131233 3.333313 -15.561684 8.658752 -20.884514c5.380615 -5.3832054 12.753296 -8.658794 20.94226 -8.658794zm0 -0.994751c-16.847778 0 -30.538025 13.690289 -30.538025 30.53806c0 16.908134 13.690247 30.598427 30.538025 30.598427c16.850403 0 30.54071 -13.690292 30.54071 -30.598427c0 -16.84777 -13.690308 -30.53806 -30.54071 -30.53806z" fill-rule="evenodd"/><path fill="#ffffff" d="m877.1837 63.454067c-12.40155 0 -22.464539 10.005253 -22.464539 22.406826c0 12.404198 10.062988 22.467194 22.464539 22.467194c12.404236 0 22.467224 -10.062996 22.467224 -22.467194c0 -12.401573 -10.062988 -22.406826 -22.467224 -22.406826z" fill-rule="evenodd"/><path fill="#3d3d3d" d="m877.1837 63.92126c6.086609 0 11.527588 2.4593163 15.503967 6.4356956c3.979004 3.979004 6.435669 9.477692 6.435669 15.503937c0 6.083992 -2.456665 11.585304 -6.435669 15.561676c-3.9763794 3.979004 -9.417358 6.4356995 -15.503967 6.4356995c-6.0839844 0 -11.582642 -2.4566956 -15.5616455 -6.4356995c-3.979004 -3.9763718 -6.43573 -9.477684 -6.43573 -15.561676c0 -6.026245 2.456726 -11.524933 6.43573 -15.503937c3.979004 -3.9763794 9.477661 -6.4356956 15.5616455 -6.4356956zm0 -0.994751c-12.695557 0 -22.931763 10.299213 -22.931763 22.934383c0 12.695534 10.236206 22.992126 22.931763 22.992126c12.637817 0 22.934387 -10.296593 22.934387 -22.992126c0 -12.63517 -10.29657 -22.934383 -22.934387 -22.934383z" fill-rule="evenodd"/><path fill="#ab8fdc" d="m877.1837 71.703415c-7.839905 0 -14.21521 6.3779526 -14.21521 14.157478c0 7.839897 6.375305 14.21785 14.21521 14.21785c7.839905 0 14.160095 -6.3779526 14.160095 -14.21785c0 -7.7795258 -6.3201904 -14.157478 -14.160095 -14.157478z" fill-rule="evenodd"/><path fill="#3d3d3d" d="m877.1837 72.1706c3.8031616 0 7.1968384 1.522316 9.653564 4.036751c2.5170288 2.4593124 4.036743 5.910759 4.036743 9.653542c0 3.8031464 -1.5197144 7.254593 -4.036743 9.711288c-2.456726 2.4593124 -5.850403 3.9789963 -9.653564 3.9789963c-3.800537 0 -7.194214 -1.5196838 -9.711304 -3.9789963c-2.456665 -2.4566956 -3.979004 -5.908142 -3.979004 -9.711288c0 -3.7427826 1.5223389 -7.194229 3.979004 -9.653542c2.5170898 -2.5144348 5.9107666 -4.036751 9.711304 -4.036751zm0 -0.9343796c-8.131226 0 -14.682373 6.551178 -14.682373 14.624672c0 8.133858 6.5511475 14.685036 14.682373 14.685036c8.073486 0 14.685059 -6.551178 14.685059 -14.685036c0 -8.073494 -6.6115723 -14.624672 -14.685059 -14.624672z" fill-rule="evenodd"/><path fill="#ffffff" d="m753.7953 18.467192c-8.191589 0 -14.803162 6.6115494 -14.803162 14.800524c0 8.249344 6.6115723 14.860893 14.803162 14.860893c8.249329 0 14.858276 -6.6115494 14.858276 -14.860893c0 -8.188974 -6.6089478 -14.800524 -14.858276 -14.800524z" fill-rule="evenodd"/><path fill="#3d3d3d" d="m753.7953 18.934383c3.9763794 0 7.5458984 1.5800514 10.178467 4.212599c2.574829 2.5748024 4.2125854 6.202099 4.2125854 10.120733c0 3.979004 -1.6377563 7.6063004 -4.2125854 10.181103c-2.6325684 2.572178 -6.2020874 4.2126007 -10.178467 4.2126007c-3.9212646 0 -7.548584 -1.6404228 -10.123352 -4.2126007c-2.6325684 -2.5748024 -4.210022 -6.202099 -4.210022 -10.181103c0 -3.9186344 1.5774536 -7.545931 4.210022 -10.120733c2.574768 -2.6325474 6.2020874 -4.212599 10.123352 -4.212599zm0 -0.994751c-8.425232 0 -15.328125 6.9028873 -15.328125 15.328083c0 8.482941 6.902893 15.388451 15.328125 15.388451c8.48291 0 15.328064 -6.90551 15.328064 -15.388451c0 -8.425196 -6.845154 -15.328083 -15.328064 -15.328083z" fill-rule="evenodd"/><path fill="#ab8fdc" d="m753.7953 24.96063c-4.564331 0 -8.309753 3.745407 -8.309753 8.307085c0 4.6220474 3.7454224 8.307087 8.309753 8.307087c4.6220093 0 8.307068 -3.6850395 8.307068 -8.307087c0 -4.561678 -3.6850586 -8.307085 -8.307068 -8.307085z" fill-rule="evenodd"/><path fill="#3d3d3d" d="m753.7953 25.48819c2.1627197 0 4.1522217 0.8766403 5.5563965 2.28084c1.4042358 1.4041996 2.2808838 3.333332 2.2808838 5.498686c0 2.1653557 -0.87664795 4.1548576 -2.2808838 5.5590553c-1.4041748 1.4042015 -3.3936768 2.2808418 -5.5563965 2.2808418c-2.1653442 0 -4.097107 -0.8766403 -5.501343 -2.2808418c-1.4041748 -1.4041977 -2.2808228 -3.3936996 -2.2808228 -5.5590553c0 -2.1653538 0.87664795 -4.094486 2.2808228 -5.498686c1.4042358 -1.4041996 3.3359985 -2.28084 5.501343 -2.28084zm0 -0.994751c-4.855652 0 -8.7769165 3.9186344 -8.7769165 8.774277c0 4.855644 3.9212646 8.834648 8.7769165 8.834648c4.855652 0 8.832031 -3.979004 8.832031 -8.834648c0 -4.8556423 -3.9763794 -8.774277 -8.832031 -8.774277z" fill-rule="evenodd"/><path fill="#ffffff" d="m928.6562 24.637794c-4.7979126 0 -8.716553 3.8608932 -8.716553 8.658794c0 4.797901 3.9186401 8.716534 8.716553 8.716534c4.7978516 0 8.716492 -3.9186325 8.716492 -8.716534c0 -4.797901 -3.9186401 -8.658794 -8.716492 -8.658794z" fill-rule="evenodd"/><path fill="#3d3d3d" d="m928.6562 25.10761c2.2808228 0 4.328064 0.9343834 5.7926025 2.396326c1.5197144 1.5223103 2.3989868 3.5695534 2.3989868 5.792652c0 2.2834625 -0.87927246 4.3307076 -2.3989868 5.8503914c-1.4645386 1.4619446 -3.5117798 2.3989525 -5.7926025 2.3989525c-2.2808838 0 -4.328125 -0.9370079 -5.7926636 -2.3989525c-1.5197144 -1.5196838 -2.3989868 -3.5669289 -2.3989868 -5.8503914c0 -2.2230988 0.87927246 -4.270342 2.3989868 -5.792652c1.4645386 -1.4619427 3.5117798 -2.396326 5.7926636 -2.396326zm0 -0.99474907c-5.0892334 0 -9.186401 4.1522293 -9.186401 9.183727c0 5.089237 4.097168 9.186352 9.186401 9.186352c5.0892334 0 9.18634 -4.0971146 9.18634 -9.186352c0 -5.031498 -4.097107 -9.183727 -9.18634 -9.183727z" fill-rule="evenodd"/><path fill="#ab8fdc" d="m928.6562 28.440945c-2.6903076 0 -4.855652 2.1653538 -4.855652 4.855644c0 2.692913 2.1653442 4.916008 4.855652 4.916008c2.6902466 0 4.855652 -2.223095 4.855652 -4.916008c0 -2.6902905 -2.1654053 -4.855644 -4.855652 -4.855644z" fill-rule="evenodd"/><path fill="#3d3d3d" d="m928.6562 28.908136c1.2283325 0 2.2808228 0.5275593 3.0997314 1.2887135c0.8189087 0.81889915 1.2886963 1.9291344 1.2886963 3.099739c0 1.228344 -0.4697876 2.3412056 -1.2886963 3.1023598c-0.8189087 0.81889725 -1.8713989 1.2860909 -3.0997314 1.2860909c-1.2283936 0 -2.2808838 -0.4671936 -3.0997314 -1.2860909c-0.8189087 -0.7611542 -1.2887573 -1.8740158 -1.2887573 -3.1023598c0 -1.1706047 0.46984863 -2.28084 1.2887573 -3.099739c0.81884766 -0.7611542 1.8713379 -1.2887135 3.0997314 -1.2887135zm0 -0.9343834c-2.984253 0 -5.3832397 2.3989506 -5.3832397 5.322836c0 2.984249 2.3989868 5.3832016 5.3832397 5.3832016c2.984253 0 5.3831787 -2.3989525 5.3831787 -5.3832016c0 -2.9238853 -2.3989258 -5.322836 -5.3831787 -5.322836z" fill-rule="evenodd"/><path fill="#3d3d3d" d="m891.3438 19.356955l0 0c0 -0.78276443 0.6345825 -1.4173222 1.4173584 -1.4173222l0 0c0.3758545 0 0.73638916 0.14932442 1.0021973 0.4151249c0.2658081 0.26579857 0.4151001 0.6263008 0.4151001 1.0021973l0 0c0 0.78276634 -0.6345215 1.4173241 -1.4172974 1.4173241l0 0c-0.7827759 0 -1.4173584 -0.6345577 -1.4173584 -1.4173241z" fill-rule="evenodd"/><path fill="#3d3d3d" d="m899.1135 19.356955l0 0c0 -0.78276443 0.6345215 -1.4173222 1.4172974 -1.4173222l0 0c0.37591553 0 0.73638916 0.14932442 1.0021973 0.4151249c0.2658081 0.26579857 0.41516113 0.6263008 0.41516113 1.0021973l0 0c0 0.78276634 -0.6345825 1.4173241 -1.4173584 1.4173241l0 0c-0.7827759 0 -1.4172974 -0.6345577 -1.4172974 -1.4173241z" fill-rule="evenodd"/><path fill="#3d3d3d" d="m906.8832 19.356955l0 0c0 -0.78276443 0.6345825 -1.4173222 1.4173584 -1.4173222l0 0c0.37591553 0 0.73638916 0.14932442 1.0021973 0.4151249c0.2658081 0.26579857 0.4151001 0.6263008 0.4151001 1.0021973l0 0c0 0.78276634 -0.6345215 1.4173241 -1.4172974 1.4173241l0 0c-0.7827759 0 -1.4173584 -0.6345577 -1.4173584 -1.4173241z" fill-rule="evenodd"/><path fill="#3d3d3d" d="m831.11285 119.485565l0 0c0 -0.78276825 0.6345825 -1.4173203 1.4173584 -1.4173203l0 0c0.3758545 0 0.73638916 0.14932251 1.0021973 0.415123c0.26574707 0.26580048 0.4151001 0.626297 0.4151001 1.0021973l0 0c0 0.78276825 -0.6345825 1.4173203 -1.4172974 1.4173203l0 0c-0.7827759 0 -1.4173584 -0.634552 -1.4173584 -1.4173203z" fill-rule="evenodd"/><path fill="#3d3d3d" d="m838.88257 119.485565l0 0c0 -0.78276825 0.6345215 -1.4173203 1.4172974 -1.4173203l0 0c0.37591553 0 0.73638916 0.14932251 1.0021973 0.415123c0.2658081 0.26580048 0.41516113 0.626297 0.41516113 1.0021973l0 0c0 0.78276825 -0.6345825 1.4173203 -1.4173584 1.4173203l0 0c-0.7827759 0 -1.4172974 -0.634552 -1.4172974 -1.4173203z" fill-rule="evenodd"/><path fill="#3d3d3d" d="m846.6522 119.485565l0 0c0 -0.78276825 0.6345825 -1.4173203 1.4173584 -1.4173203l0 0c0.3758545 0 0.73638916 0.14932251 1.0021973 0.415123c0.2658081 0.26580048 0.4151001 0.626297 0.4151001 1.0021973l0 0c0 0.78276825 -0.6345825 1.4173203 -1.4172974 1.4173203l0 0c-0.7827759 0 -1.4173584 -0.634552 -1.4173584 -1.4173203z" fill-rule="evenodd"/><path fill="#000000" fill-opacity="0.0" d="m117.80052 204.48l292.7874 0l0 143.05513l-292.7874 0z" fill-rule="evenodd"/><path fill="#000000" fill-opacity="0.0" d="m220.53543 36.48l519.3701 0l0 61.44882l-519.3701 0z" fill-rule="evenodd"/></g></svg>