<svg version="1.1" viewBox="0.0 0.0 960.0 540.0" fill="none" stroke="none" stroke-linecap="square" stroke-miterlimit="10" xmlns:xlink="http://www.w3.org/1999/xlink" xmlns="http://www.w3.org/2000/svg"><clipPath id="g1478f75718d_0_5.0"><path d="m0 0l960.0 0l0 540.0l-960.0 0l0 -540.0z" clip-rule="nonzero"/></clipPath><g clip-path="url(#g1478f75718d_0_5.0)"><path fill="#ffffff" d="m0 0l960.0 0l0 540.0l-960.0 0z" fill-rule="evenodd"/><path fill="#000000" fill-opacity="0.0" d="m884.0184 542.3307l0 -262.61417" fill-rule="evenodd"/><path stroke="#3d3d3d" stroke-width="1.0" stroke-linejoin="round" stroke-linecap="butt" d="m884.0184 542.3307l0 -262.61417" fill-rule="evenodd"/><path fill="#ab8fdc" d="m884.01575 451.1496c-16.614197 0 -30.070862 13.456696 -30.070862 30.013123c0 16.616821 13.456665 30.070862 30.070862 30.070862c16.616821 0 30.070862 -13.454041 30.070862 -30.070862c0 -16.556427 -13.454041 -30.013123 -30.070862 -30.013123z" fill-rule="evenodd"/><path fill="#3d3d3d" d="m884.01575 451.61942c8.191589 0 15.564331 3.2756042 20.887146 8.658813c5.3831787 5.322815 8.658813 12.753265 8.658813 20.884491c0 8.19162 -3.2756348 15.561676 -8.658813 20.944885c-5.322815 5.3228455 -12.695557 8.658813 -20.887146 8.658813c-8.188965 0 -15.561707 -3.335968 -20.94226 -8.658813c-5.3254395 -5.383209 -8.658813 -12.753265 -8.658813 -20.944885c0 -8.131226 3.333374 -15.561676 8.658813 -20.884491c5.380554 -5.383209 12.753296 -8.658813 20.94226 -8.658813zm0 -0.994751c-16.847778 0 -30.538086 13.690308 -30.538086 30.538055c0 16.908142 13.690308 30.59845 30.538086 30.59845c16.850403 0 30.54071 -13.690308 30.54071 -30.59845c0 -16.847748 -13.690308 -30.538055 -30.54071 -30.538055z" fill-rule="evenodd"/><path fill="#ffffff" d="m884.01575 458.75592c-12.40155 0 -22.464539 10.005249 -22.464539 22.4068c0 12.404205 10.062988 22.467194 22.464539 22.467194c12.404175 0 22.467163 -10.062988 22.467163 -22.467194c0 -12.40155 -10.062988 -22.4068 -22.467163 -22.4068z" fill-rule="evenodd"/><path fill="#3d3d3d" d="m884.01575 459.22308c6.086609 0 11.527588 2.45932 15.503967 6.4356995c3.9789429 3.979004 6.435669 9.477692 6.435669 15.503937c0 6.0839844 -2.456726 11.585297 -6.435669 15.561676c-3.9763794 3.979004 -9.417358 6.4356995 -15.503967 6.4356995c-6.0839844 0 -11.582703 -2.4566956 -15.561707 -6.4356995c-3.979004 -3.9763794 -6.435669 -9.477692 -6.435669 -15.561676c0 -6.026245 2.456665 -11.524933 6.435669 -15.503937c3.979004 -3.9763794 9.477722 -6.4356995 15.561707 -6.4356995zm0 -0.994751c-12.695557 0 -22.931763 10.299225 -22.931763 22.934387c0 12.695557 10.236206 22.992126 22.931763 22.992126c12.637817 0 22.934387 -10.29657 22.934387 -22.992126c0 -12.635162 -10.29657 -22.934387 -22.934387 -22.934387z" fill-rule="evenodd"/><path fill="#ab8fdc" d="m884.01575 467.00525c-7.839905 0 -14.21521 6.37796 -14.21521 14.157471c0 7.839905 6.375305 14.217865 14.21521 14.217865c7.839905 0 14.160095 -6.37796 14.160095 -14.217865c0 -7.7795105 -6.3201904 -14.157471 -14.160095 -14.157471z" fill-rule="evenodd"/><path fill="#3d3d3d" d="m884.01575 467.47244c3.8031616 0 7.1968384 1.5223083 9.653564 4.036743c2.5170288 2.45932 4.036743 5.9107666 4.036743 9.653534c0 3.8031616 -1.5197144 7.254608 -4.036743 9.711304c-2.456726 2.45932 -5.850403 3.979004 -9.653564 3.979004c-3.800537 0 -7.194214 -1.5196838 -9.711304 -3.979004c-2.456665 -2.4566956 -3.979004 -5.908142 -3.979004 -9.711304c0 -3.7427673 1.5223389 -7.194214 3.979004 -9.653534c2.5170898 -2.5144348 5.9107666 -4.036743 9.711304 -4.036743zm0 -0.9343872c-8.131226 0 -14.682434 6.551178 -14.682434 14.624664c0 8.133881 6.5512085 14.685059 14.682434 14.685059c8.073486 0 14.685059 -6.551178 14.685059 -14.685059c0 -8.073486 -6.6115723 -14.624664 -14.685059 -14.624664z" fill-rule="evenodd"/><path fill="#ffffff" d="m884.0171 391.14172c-8.19165 0 -14.803162 6.6115723 -14.803162 14.800537c0 8.249329 6.611511 14.860901 14.803162 14.860901c8.249329 0 14.858215 -6.6115723 14.858215 -14.860901c0 -8.188965 -6.6088867 -14.800537 -14.858215 -14.800537z" fill-rule="evenodd"/><path fill="#3d3d3d" d="m884.0171 391.60892c3.9763184 0 7.5458984 1.5800476 10.178467 4.212616c2.574768 2.5747986 4.2125854 6.2020874 4.2125854 10.120728c0 3.979004 -1.6378174 7.6062927 -4.2125854 10.181091c-2.6325684 2.572174 -6.2021484 4.212616 -10.178467 4.212616c-3.9212646 0 -7.548584 -1.6404419 -10.123413 -4.212616c-2.6325073 -2.5747986 -4.209961 -6.2020874 -4.209961 -10.181091c0 -3.9186401 1.5774536 -7.545929 4.209961 -10.120728c2.574829 -2.6325684 6.2021484 -4.212616 10.123413 -4.212616zm0 -0.994751c-8.425232 0 -15.328125 6.902893 -15.328125 15.3280945c0 8.482941 6.902893 15.388458 15.328125 15.388458c8.48291 0 15.328064 -6.9055176 15.328064 -15.388458c0 -8.425201 -6.845154 -15.3280945 -15.328064 -15.3280945z" fill-rule="evenodd"/><path fill="#ab8fdc" d="m884.0171 397.63516c-4.564331 0 -8.309753 3.7454224 -8.309753 8.307098c0 4.62204 3.7454224 8.307068 8.309753 8.307068c4.6220093 0 8.307068 -3.685028 8.307068 -8.307068c0 -4.561676 -3.6850586 -8.307098 -8.307068 -8.307098z" fill-rule="evenodd"/><path fill="#3d3d3d" d="m884.0171 398.16272c2.1627197 0 4.1522217 0.87664795 5.5563965 2.2808533c1.4041748 1.4042053 2.2808228 3.3333435 2.2808228 5.4986877c0 2.1653442 -0.87664795 4.154846 -2.2808228 5.5590515c-1.4041748 1.4042053 -3.3936768 2.2808533 -5.5563965 2.2808533c-2.1654053 0 -4.097168 -0.87664795 -5.501343 -2.2808533c-1.4041748 -1.4042053 -2.2808228 -3.3937073 -2.2808228 -5.5590515c0 -2.1653442 0.87664795 -4.0944824 2.2808228 -5.4986877c1.4041748 -1.4042053 3.3359375 -2.2808533 5.501343 -2.2808533zm0 -0.994751c-4.855652 0 -8.7769165 3.9186401 -8.7769165 8.774292c0 4.855652 3.9212646 8.834656 8.7769165 8.834656c4.855591 0 8.83197 -3.979004 8.83197 -8.834656c0 -4.855652 -3.9763794 -8.774292 -8.83197 -8.774292z" fill-rule="evenodd"/><path fill="#ffffff" d="m884.0171 337.7953c-4.7979126 0 -8.716553 3.8608704 -8.716553 8.658783c0 4.7979126 3.9186401 8.716522 8.716553 8.716522c4.7978516 0 8.716492 -3.9186096 8.716492 -8.716522c0 -4.7979126 -3.9186401 -8.658783 -8.716492 -8.658783z" fill-rule="evenodd"/><path fill="#3d3d3d" d="m884.0171 338.2651c2.2808228 0 4.328064 0.9343567 5.7926025 2.3963013c1.5197144 1.5223083 2.3989868 3.5695496 2.3989868 5.7926636c0 2.2834473 -0.87927246 4.330719 -2.3989868 5.850403c-1.4645386 1.4619446 -3.5117798 2.3989258 -5.7926025 2.3989258c-2.2808838 0 -4.328125 -0.9369812 -5.7926636 -2.3989258c-1.5197144 -1.5196838 -2.3989868 -3.5669556 -2.3989868 -5.850403c0 -2.223114 0.87927246 -4.270355 2.3989868 -5.7926636c1.4645386 -1.4619446 3.5117798 -2.3963013 5.7926636 -2.3963013zm0 -0.994751c-5.0892944 0 -9.186401 4.1522217 -9.186401 9.183716c0 5.0892334 4.097107 9.18634 9.186401 9.18634c5.0892334 0 9.18634 -4.097107 9.18634 -9.18634c0 -5.031494 -4.097107 -9.183716 -9.18634 -9.183716z" fill-rule="evenodd"/><path fill="#ab8fdc" d="m884.0171 341.59842c-2.6903076 0 -4.855652 2.1653748 -4.855652 4.855652c0 2.6929016 2.1653442 4.9160156 4.855652 4.9160156c2.6902466 0 4.855591 -2.223114 4.855591 -4.9160156c0 -2.690277 -2.1653442 -4.855652 -4.855591 -4.855652z" fill-rule="evenodd"/><path fill="#3d3d3d" d="m884.0171 342.0656c1.2283325 0 2.2808228 0.5275574 3.0997314 1.2887268c0.81884766 0.8188782 1.2886963 1.9291382 1.2886963 3.0997314c0 1.2283325 -0.46984863 2.341217 -1.2886963 3.102356c-0.8189087 0.8189087 -1.8713989 1.2861023 -3.0997314 1.2861023c-1.2283936 0 -2.2808838 -0.4671936 -3.0997925 -1.2861023c-0.81884766 -0.7611389 -1.2886963 -1.8740234 -1.2886963 -3.102356c0 -1.1705933 0.46984863 -2.2808533 1.2886963 -3.0997314c0.8189087 -0.76116943 1.8713989 -1.2887268 3.0997925 -1.2887268zm0 -0.9343872c-2.984253 0 -5.3832397 2.3989563 -5.3832397 5.3228455c0 2.984253 2.3989868 5.383209 5.3832397 5.383209c2.984253 0 5.3831787 -2.3989563 5.3831787 -5.383209c0 -2.9238892 -2.3989258 -5.3228455 -5.3831787 -5.3228455z" fill-rule="evenodd"/><path fill="#000000" fill-opacity="0.0" d="m75.98163 0.06430446l0 262.61417" fill-rule="evenodd"/><path stroke="#3d3d3d" stroke-width="1.0" stroke-linejoin="round" stroke-linecap="butt" d="m75.98163 0.06430446l0 262.61417" fill-rule="evenodd"/><path fill="#ab8fdc" d="m75.98425 91.24541c16.614174 0 30.070862 -13.456696 30.070862 -30.013123c0 -16.616798 -13.456688 -30.070868 -30.070862 -30.070868c-16.616798 0 -30.070866 13.454069 -30.070866 30.070868c0 16.556427 13.454067 30.013123 30.070866 30.013123z" fill-rule="evenodd"/><path fill="#3d3d3d" d="m75.98425 90.77559c-8.191605 0 -15.564304 -3.275589 -20.887138 -8.658791c-5.3832054 -5.322838 -8.658794 -12.753281 -8.658794 -20.884514c0 -8.191601 3.275589 -15.56168 8.658794 -20.944881c5.322834 -5.322838 12.695534 -8.658794 20.887138 -8.658794c8.188972 0 15.561676 3.3359566 20.942253 8.658794c5.3254623 5.3832016 8.658798 12.753281 8.658798 20.944881c0 8.131233 -3.3333359 15.561676 -8.658798 20.884514c-5.380577 5.3832016 -12.753281 8.658791 -20.942253 8.658791zm0 0.994751c16.84777 0 30.538055 -13.690285 30.538055 -30.538055c0 -16.908138 -13.690285 -30.598427 -30.538055 -30.598427c-16.850395 0 -30.540684 13.690289 -30.540684 30.598427c0 16.84777 13.690289 30.538055 30.540684 30.538055z" fill-rule="evenodd"/><path fill="#ffffff" d="m75.98425 83.63911c12.401573 0 22.46457 -10.005249 22.46457 -22.406822c0 -12.4042015 -10.062996 -22.467194 -22.46457 -22.467194c-12.4042015 0 -22.467194 10.062992 -22.467194 22.467194c0 12.401573 10.062992 22.406822 22.467194 22.406822z" fill-rule="evenodd"/><path fill="#3d3d3d" d="m75.98425 83.17191c-6.0866165 0 -11.527557 -2.4593124 -15.503937 -6.435692c-3.979004 -3.979004 -6.4356956 -9.477692 -6.4356956 -15.503937c0 -6.083992 2.4566917 -11.585304 6.4356956 -15.56168c3.9763794 -3.979004 9.41732 -6.4356956 15.503937 -6.4356956c6.083992 0 11.58268 2.4566917 15.561676 6.4356956c3.979004 3.9763756 6.4356995 9.477688 6.4356995 15.56168c0 6.026245 -2.4566956 11.524933 -6.4356995 15.503937c-3.9789963 3.9763794 -9.477684 6.435692 -15.561676 6.435692zm0 0.994751c12.695534 0 22.931755 -10.29921 22.931755 -22.93438c0 -12.695538 -10.236221 -22.992126 -22.931755 -22.992126c-12.6377945 0 -22.934383 10.296589 -22.934383 22.992126c0 12.63517 10.296589 22.93438 22.934383 22.93438z" fill-rule="evenodd"/><path fill="#ab8fdc" d="m75.98425 75.38976c7.839897 0 14.215225 -6.3779526 14.215225 -14.157478c0 -7.839897 -6.375328 -14.21785 -14.215225 -14.21785c-7.839897 0 -14.160107 6.3779526 -14.160107 14.21785c0 7.7795258 6.3202095 14.157478 14.160107 14.157478z" fill-rule="evenodd"/><path fill="#3d3d3d" d="m75.98425 74.92257c-3.803154 0 -7.1968536 -1.5223083 -9.653542 -4.036743c-2.5170631 -2.45932 -4.036747 -5.910759 -4.036747 -9.653542c0 -3.8031502 1.5196838 -7.254593 4.036747 -9.711288c2.456688 -2.4593163 5.8503876 -3.979 9.653542 -3.979c3.8005219 0 7.1942215 1.5196838 9.711288 3.979c2.456688 2.4566956 3.9789963 5.9081383 3.9789963 9.711288c0 3.7427826 -1.5223083 7.1942215 -3.9789963 9.653542c-2.517067 2.5144348 -5.9107666 4.036743 -9.711288 4.036743zm0 0.9343872c8.131233 0 14.682411 -6.5511856 14.682411 -14.624672c0 -8.133858 -6.551178 -14.6850395 -14.682411 -14.6850395c-8.073494 0 -14.6850395 6.551182 -14.6850395 14.6850395c0 8.073486 6.6115456 14.624672 14.6850395 14.624672z" fill-rule="evenodd"/><path fill="#ffffff" d="m75.98294 151.25328c8.191597 0 14.803146 -6.6115417 14.803146 -14.800522c0 -8.249344 -6.6115494 -14.860893 -14.803146 -14.860893c-8.249344 0 -14.858269 6.6115494 -14.858269 14.860893c0 8.18898 6.608925 14.800522 14.858269 14.800522z" fill-rule="evenodd"/><path fill="#3d3d3d" d="m75.98294 150.78609c-3.9763794 0 -7.5459366 -1.5800476 -10.178482 -4.2126007c-2.5747986 -2.5747986 -4.212597 -6.2021027 -4.212597 -10.120728c0 -3.979004 1.6377983 -7.606308 4.212597 -10.181107c2.6325455 -2.572174 6.2021027 -4.2126007 10.178482 -4.2126007c3.921257 0 7.5485535 1.6404266 10.12336 4.2126007c2.6325455 2.5747986 4.209976 6.2021027 4.209976 10.181107c0 3.9186249 -1.5774307 7.545929 -4.209976 10.120728c-2.5748062 2.632553 -6.2021027 4.2126007 -10.12336 4.2126007zm0 0.994751c8.425194 0 15.328079 -6.902878 15.328079 -15.328079c0 -8.482941 -6.9028854 -15.388451 -15.328079 -15.388451c-8.482941 0 -15.328087 6.90551 -15.328087 15.388451c0 8.425201 6.845146 15.328079 15.328087 15.328079z" fill-rule="evenodd"/><path fill="#ab8fdc" d="m75.98294 144.75984c4.5643005 0 8.309708 -3.745407 8.309708 -8.307083c0 -4.622055 -3.745407 -8.307083 -8.309708 -8.307083c-4.6220474 0 -8.307091 3.685028 -8.307091 8.307083c0 4.561676 3.6850433 8.307083 8.307091 8.307083z" fill-rule="evenodd"/><path fill="#3d3d3d" d="m75.98294 144.23228c-2.1627274 0 -4.1522293 -0.87664795 -5.5564346 -2.280838c-1.4041977 -1.4042053 -2.280838 -3.3333435 -2.280838 -5.4986877c0 -2.1653595 0.8766403 -4.1548615 2.280838 -5.5590515c1.4042053 -1.4042053 3.3937073 -2.2808533 5.5564346 -2.2808533c2.1653519 0 4.0971146 0.87664795 5.5013123 2.2808533c1.4041977 1.4041901 2.280838 3.393692 2.280838 5.5590515c0 2.1653442 -0.8766403 4.0944824 -2.280838 5.4986877c-1.4041977 1.4041901 -3.3359604 2.280838 -5.5013123 2.280838zm0 0.994751c4.855644 0 8.776901 -3.9186401 8.776901 -8.774277c0 -4.855652 -3.921257 -8.834648 -8.776901 -8.834648c-4.855644 0 -8.832024 3.9789963 -8.832024 8.834648c0 4.8556366 3.9763794 8.774277 8.832024 8.774277z" fill-rule="evenodd"/><path fill="#ffffff" d="m75.98294 204.59973c4.7978973 0 8.716537 -3.8608856 8.716537 -8.658783c0 -4.7978973 -3.9186401 -8.716537 -8.716537 -8.716537c-4.797905 0 -8.716537 3.9186401 -8.716537 8.716537c0 4.7978973 3.9186325 8.658783 8.716537 8.658783z" fill-rule="evenodd"/><path fill="#3d3d3d" d="m75.98294 204.12993c-2.280838 0 -4.328087 -0.9343872 -5.7926483 -2.3963318c-1.5196915 -1.5223083 -2.3989563 -3.5695496 -2.3989563 -5.7926483c0 -2.2834625 0.87926483 -4.330719 2.3989563 -5.850403c1.4645615 -1.4619293 3.5118103 -2.398941 5.7926483 -2.398941c2.280838 0 4.328079 0.9370117 5.7926483 2.398941c1.5196838 1.5196838 2.3989487 3.5669403 2.3989487 5.850403c0 2.2230988 -0.87926483 4.27034 -2.3989487 5.7926483c-1.4645691 1.4619446 -3.5118103 2.3963318 -5.7926483 2.3963318zm0 0.9947357c5.089241 0 9.186348 -4.1522217 9.186348 -9.183716c0 -5.0892487 -4.097107 -9.186356 -9.186348 -9.186356c-5.089241 0 -9.186356 4.097107 -9.186356 9.186356c0 5.031494 4.0971146 9.183716 9.186356 9.183716z" fill-rule="evenodd"/><path fill="#ab8fdc" d="m75.98294 200.79659c2.6902847 0 4.855644 -2.1653442 4.855644 -4.8556366c0 -2.6929169 -2.1653595 -4.9160156 -4.855644 -4.9160156c-2.6902924 0 -4.855644 2.2230988 -4.855644 4.9160156c0 2.6902924 2.1653519 4.8556366 4.855644 4.8556366z" fill-rule="evenodd"/><path fill="#3d3d3d" d="m75.98294 200.32939c-1.2283478 0 -2.280838 -0.5275574 -3.099739 -1.2887115c-0.81889343 -0.81889343 -1.2887115 -1.9291382 -1.2887115 -3.0997314c0 -1.2283478 0.46981812 -2.341217 1.2887115 -3.1023712c0.81890106 -0.81889343 1.8713913 -1.286087 3.099739 -1.286087c1.2283478 0 2.280838 0.4671936 3.099739 1.286087c0.81889343 0.7611542 1.2887115 1.8740234 1.2887115 3.1023712c0 1.1705933 -0.46981812 2.280838 -1.2887115 3.0997314c-0.81890106 0.7611542 -1.8713913 1.2887115 -3.099739 1.2887115zm0 0.9343872c2.984253 0 5.3832016 -2.3989563 5.3832016 -5.32283c0 -2.984253 -2.3989487 -5.383209 -5.3832016 -5.383209c-2.984253 0 -5.3832016 2.3989563 -5.3832016 5.383209c0 2.923874 2.3989487 5.32283 5.3832016 5.32283z" fill-rule="evenodd"/><path fill="#3d3d3d" d="m45.44357 211.7231l0 0c0 -0.7827606 0.6345558 -1.4173279 1.4173241 -1.4173279l0 0c0.37589645 0 0.7363968 0.14932251 1.0021973 0.41513062c0.26580048 0.26579285 0.415123 0.626297 0.415123 1.0021973l0 0c0 0.7827606 -0.6345558 1.4173279 -1.4173203 1.4173279l0 0c-0.78276825 0 -1.4173241 -0.63456726 -1.4173241 -1.4173279z" fill-rule="evenodd"/><path fill="#3d3d3d" d="m53.213257 211.7231l0 0c0 -0.7827606 0.6345558 -1.4173279 1.4173241 -1.4173279l0 0c0.37589645 0 0.7363968 0.14932251 1.0021973 0.41513062c0.26580048 0.26579285 0.415123 0.626297 0.415123 1.0021973l0 0c0 0.7827606 -0.6345558 1.4173279 -1.4173203 1.4173279l0 0c-0.78276825 0 -1.4173241 -0.63456726 -1.4173241 -1.4173279z" fill-rule="evenodd"/><path fill="#3d3d3d" d="m60.982944 211.7231l0 0c0 -0.7827606 0.6345558 -1.4173279 1.4173203 -1.4173279l0 0c0.37590027 0 0.7364006 0.14932251 1.0022011 0.41513062c0.26580048 0.26579285 0.415123 0.626297 0.415123 1.0021973l0 0c0 0.7827606 -0.6345558 1.4173279 -1.4173241 1.4173279l0 0c-0.78276443 0 -1.4173203 -0.63456726 -1.4173203 -1.4173279z" fill-rule="evenodd"/><path fill="#3d3d3d" d="m82.74016 23.305775l0 0c0 -0.78276634 0.63455963 -1.4173241 1.4173203 -1.4173241l0 0c0.37590027 0 0.7364044 0.14932632 1.0021973 0.4151249c0.26580048 0.26580048 0.41513062 0.6263008 0.41513062 1.0021992l0 0c0 0.78276443 -0.63455963 1.4173222 -1.4173279 1.4173222l0 0c-0.7827606 0 -1.4173203 -0.6345577 -1.4173203 -1.4173222z" fill-rule="evenodd"/><path fill="#3d3d3d" d="m90.50984 23.305775l0 0c0 -0.78276634 0.63455963 -1.4173241 1.4173279 -1.4173241l0 0c0.37589264 0 0.7363968 0.14932632 1.0021973 0.4151249c0.26580048 0.26580048 0.415123 0.6263008 0.415123 1.0021992l0 0c0 0.78276443 -0.63455963 1.4173222 -1.4173203 1.4173222l0 0c-0.78276825 0 -1.4173279 -0.6345577 -1.4173279 -1.4173222z" fill-rule="evenodd"/><path fill="#3d3d3d" d="m98.27953 23.305775l0 0c0 -0.78276634 0.634552 -1.4173241 1.4173203 -1.4173241l0 0c0.37590027 0 0.7363968 0.14932632 1.0021973 0.4151249c0.26580048 0.26580048 0.415123 0.6263008 0.415123 1.0021992l0 0c0 0.78276443 -0.634552 1.4173222 -1.4173203 1.4173222l0 0c-0.78276825 0 -1.4173203 -0.6345577 -1.4173203 -1.4173222z" fill-rule="evenodd"/><path fill="#3d3d3d" d="m853.47504 525.16797l0 0c0 -0.7827759 0.6345825 -1.4172974 1.4173584 -1.4172974l0 0c0.37591553 0 0.73638916 0.14929199 1.0021973 0.4151001c0.2658081 0.2658081 0.4151001 0.62628174 0.4151001 1.0021973l0 0c0 0.7827759 -0.6345215 1.4173584 -1.4172974 1.4173584l0 0c-0.7827759 0 -1.4173584 -0.6345825 -1.4173584 -1.4173584z" fill-rule="evenodd"/><path fill="#3d3d3d" d="m861.24475 525.16797l0 0c0 -0.7827759 0.6345825 -1.4172974 1.4172974 -1.4172974l0 0c0.37591553 0 0.7364502 0.14929199 1.0021973 0.4151001c0.2658081 0.2658081 0.41516113 0.62628174 0.41516113 1.0021973l0 0c0 0.7827759 -0.6345825 1.4173584 -1.4173584 1.4173584l0 0c-0.78271484 0 -1.4172974 -0.6345825 -1.4172974 -1.4173584z" fill-rule="evenodd"/><path fill="#3d3d3d" d="m869.01447 525.16797l0 0c0 -0.7827759 0.6345215 -1.4172974 1.4172974 -1.4172974l0 0c0.37591553 0 0.73638916 0.14929199 1.0021973 0.4151001c0.2658081 0.2658081 0.4151001 0.62628174 0.4151001 1.0021973l0 0c0 0.7827759 -0.6345215 1.4173584 -1.4172974 1.4173584l0 0c-0.7827759 0 -1.4172974 -0.6345825 -1.4172974 -1.4173584z" fill-rule="evenodd"/><path fill="#3d3d3d" d="m892.1312 361.46194l0 0c0 -0.7827759 0.6345825 -1.4173279 1.4173584 -1.4173279l0 0c0.3758545 0 0.73638916 0.14932251 1.0021973 0.41513062c0.26574707 0.2658081 0.4151001 0.62631226 0.4151001 1.0021973l0 0c0 0.7827759 -0.6345825 1.4173279 -1.4172974 1.4173279l0 0c-0.7827759 0 -1.4173584 -0.634552 -1.4173584 -1.4173279z" fill-rule="evenodd"/><path fill="#3d3d3d" d="m899.90094 361.46194l0 0c0 -0.7827759 0.6345215 -1.4173279 1.4172974 -1.4173279l0 0c0.37591553 0 0.73638916 0.14932251 1.0021973 0.41513062c0.2658081 0.2658081 0.41516113 0.62631226 0.41516113 1.0021973l0 0c0 0.7827759 -0.6345825 1.4173279 -1.4173584 1.4173279l0 0c-0.7827759 0 -1.4172974 -0.634552 -1.4172974 -1.4173279z" fill-rule="evenodd"/><path fill="#3d3d3d" d="m907.6706 361.46194l0 0c0 -0.7827759 0.6345825 -1.4173279 1.4173584 -1.4173279l0 0c0.3758545 0 0.73638916 0.14932251 1.0021973 0.41513062c0.2658081 0.2658081 0.4151001 0.62631226 0.4151001 1.0021973l0 0c0 0.7827759 -0.6345825 1.4173279 -1.4172974 1.4173279l0 0c-0.7827759 0 -1.4173584 -0.634552 -1.4173584 -1.4173279z" fill-rule="evenodd"/><path fill="#000000" fill-opacity="0.0" d="m882.6483 0l0 226.86613" fill-rule="evenodd"/><path stroke="#3d3d3d" stroke-width="1.0" stroke-linejoin="round" stroke-linecap="butt" d="m882.6483 0l0 226.86613" fill-rule="evenodd"/><path fill="#000000" fill-opacity="0.0" d="m75.3832 313.4524l0 226.86615" fill-rule="evenodd"/><path stroke="#3d3d3d" stroke-width="1.0" stroke-linejoin="round" stroke-linecap="butt" d="m75.3832 313.4524l0 226.86615" fill-rule="evenodd"/><path fill="#3d3d3d" d="m70.53281 486.51837l0 0c0 -2.6788025 2.1716003 -4.850403 4.850395 -4.850403l0 0c1.2864075 0 2.5201187 0.51104736 3.4297485 1.4206543c0.9096222 0.90963745 1.4206467 2.143341 1.4206467 3.4297485l0 0c0 2.6788025 -2.1715927 4.850403 -4.850395 4.850403l0 0c-2.6787949 0 -4.850395 -2.1716003 -4.850395 -4.850403z" fill-rule="evenodd"/><path stroke="#3d3d3d" stroke-width="1.0" stroke-linejoin="round" stroke-linecap="butt" d="m70.53281 486.51837l0 0c0 -2.6788025 2.1716003 -4.850403 4.850395 -4.850403l0 0c1.2864075 0 2.5201187 0.51104736 3.4297485 1.4206543c0.9096222 0.90963745 1.4206467 2.143341 1.4206467 3.4297485l0 0c0 2.6788025 -2.1715927 4.850403 -4.850395 4.850403l0 0c-2.6787949 0 -4.850395 -2.1716003 -4.850395 -4.850403z" fill-rule="evenodd"/><path fill="#3d3d3d" d="m70.53281 418.53412l0 0c0 -2.6788025 2.1716003 -4.850403 4.850395 -4.850403l0 0c1.2864075 0 2.5201187 0.51104736 3.4297485 1.4206543c0.9096222 0.90963745 1.4206467 2.143341 1.4206467 3.4297485l0 0c0 2.6788025 -2.1715927 4.850403 -4.850395 4.850403l0 0c-2.6787949 0 -4.850395 -2.1716003 -4.850395 -4.850403z" fill-rule="evenodd"/><path stroke="#3d3d3d" stroke-width="1.0" stroke-linejoin="round" stroke-linecap="butt" d="m70.53281 418.53412l0 0c0 -2.6788025 2.1716003 -4.850403 4.850395 -4.850403l0 0c1.2864075 0 2.5201187 0.51104736 3.4297485 1.4206543c0.9096222 0.90963745 1.4206467 2.143341 1.4206467 3.4297485l0 0c0 2.6788025 -2.1715927 4.850403 -4.850395 4.850403l0 0c-2.6787949 0 -4.850395 -2.1716003 -4.850395 -4.850403z" fill-rule="evenodd"/><path fill="#3d3d3d" d="m877.7979 157.44882l0 0c0 -2.6788025 2.1715698 -4.850403 4.850403 -4.850403l0 0c1.286377 0 2.5200806 0.5110321 3.4297485 1.4206543c0.90960693 0.9096222 1.4205933 2.143341 1.4205933 3.4297485l0 0c0 2.6788025 -2.1715698 4.8503876 -4.850342 4.8503876l0 0c-2.678833 0 -4.850403 -2.171585 -4.850403 -4.8503876z" fill-rule="evenodd"/><path stroke="#3d3d3d" stroke-width="1.0" stroke-linejoin="round" stroke-linecap="butt" d="m877.7979 157.44882l0 0c0 -2.6788025 2.1715698 -4.850403 4.850403 -4.850403l0 0c1.286377 0 2.5200806 0.5110321 3.4297485 1.4206543c0.90960693 0.9096222 1.4205933 2.143341 1.4205933 3.4297485l0 0c0 2.6788025 -2.1715698 4.8503876 -4.850342 4.8503876l0 0c-2.678833 0 -4.850403 -2.171585 -4.850403 -4.8503876z" fill-rule="evenodd"/><path fill="#3d3d3d" d="m877.7979 29.509186l0 0c0 -2.6787987 2.1715698 -4.8503933 4.850403 -4.8503933l0 0c1.286377 0 2.5200806 0.51102257 3.4297485 1.4206467c0.90960693 0.909626 1.4205933 2.143343 1.4205933 3.4297466l0 0c0 2.6787987 -2.1715698 4.850395 -4.850342 4.850395l0 0c-2.678833 0 -4.850403 -2.1715965 -4.850403 -4.850395z" fill-rule="evenodd"/><path stroke="#3d3d3d" stroke-width="1.0" stroke-linejoin="round" stroke-linecap="butt" d="m877.7979 29.509186l0 0c0 -2.6787987 2.1715698 -4.8503933 4.850403 -4.8503933l0 0c1.286377 0 2.5200806 0.51102257 3.4297485 1.4206467c0.90960693 0.909626 1.4205933 2.143343 1.4205933 3.4297466l0 0c0 2.6787987 -2.1715698 4.850395 -4.850342 4.850395l0 0c-2.678833 0 -4.850403 -2.1715965 -4.850403 -4.850395z" fill-rule="evenodd"/><path fill="#000000" fill-opacity="0.0" d="m265.92 35.52l429.13382 0l0 60.47244l-429.13382 0z" fill-rule="evenodd"/><path fill="#000000" fill-opacity="0.0" d="m197.51706 130.9029l223.9685 0l0 370.01575l-223.9685 0z" fill-rule="evenodd"/><path fill="#000000" fill-opacity="0.0" d="m443.07874 130.9029l325.44885 0l0 370.01575l-325.44885 0z" fill-rule="evenodd"/></g></svg>