<svg version="1.1" viewBox="0.0 0.0 960.0 540.0" fill="none" stroke="none" stroke-linecap="square" stroke-miterlimit="10" xmlns:xlink="http://www.w3.org/1999/xlink" xmlns="http://www.w3.org/2000/svg"><clipPath id="g1478f75718d_0_5.0"><path d="m0 0l960.0 0l0 540.0l-960.0 0l0 -540.0z" clip-rule="nonzero"/></clipPath><g clip-path="url(#g1478f75718d_0_5.0)"><path fill="#ffffff" d="m0 0l960.0 0l0 540.0l-960.0 0z" fill-rule="evenodd"/><path fill="#000000" fill-opacity="0.0" d="m838.78296 305.63254l-32.15747 118.96063" fill-rule="evenodd"/><path stroke="#1a2e35" stroke-width="1.0" stroke-linejoin="round" stroke-linecap="butt" d="m838.78296 305.63254l-32.15747 118.96063" fill-rule="evenodd"/><path fill="#000000" fill-opacity="0.0" d="m807.8591 164.71916l33.102356 140.91338" fill-rule="evenodd"/><path stroke="#1a2e35" stroke-width="1.0" stroke-linejoin="round" stroke-linecap="butt" d="m807.8591 164.71916l33.102356 140.91338" fill-rule="evenodd"/><path fill="#000000" fill-opacity="0.0" d="m849.81445 27.971128l-41.165344 139.84251" fill-rule="evenodd"/><path stroke="#1a2e35" stroke-width="1.0" stroke-linejoin="round" stroke-linecap="butt" d="m849.81445 27.971128l-41.165344 139.84251" fill-rule="evenodd"/><path fill="#000000" fill-opacity="0.0" d="m893.3263 0l-42.740173 28.755905" fill-rule="evenodd"/><path stroke="#1a2e35" stroke-width="1.0" stroke-linejoin="round" stroke-linecap="butt" d="m893.3263 0l-42.740173 28.755905" fill-rule="evenodd"/><path fill="#ab8fdc" d="m838.25543 165.46982c0 16.614166 -13.456726 30.070862 -30.013123 30.070862c-16.616821 0 -30.070862 -13.456696 -30.070862 -30.070862c0 -16.616806 13.454041 -30.070862 30.070862 -30.070862c16.556396 0 30.013123 13.454056 30.013123 30.070862z" fill-rule="evenodd"/><path fill="#3d3d3d" d="m837.7856 165.46982c0 -8.191605 -3.2755737 -15.564301 -8.658752 -20.887146c-5.322876 -5.383194 -12.753296 -8.658783 -20.884521 -8.658783c-8.191589 0 -15.561707 3.275589 -20.944885 8.658783c-5.322876 5.3228455 -8.658813 12.695541 -8.658813 20.887146c0 8.18898 3.3359375 15.561676 8.658813 20.94226c5.3831787 5.3254547 12.753296 8.658783 20.944885 8.658783c8.131226 0 15.5616455 -3.3333282 20.884521 -8.658783c5.3831787 -5.3805847 8.658752 -12.753281 8.658752 -20.94226zm0.994751 0c0 16.847763 -13.690247 30.538055 -30.538025 30.538055c-16.908142 0 -30.59845 -13.690292 -30.59845 -30.538055c0 -16.850403 13.690308 -30.54068 30.59845 -30.54068c16.847778 0 30.538025 13.690277 30.538025 30.54068z" fill-rule="evenodd"/><path fill="#ffffff" d="m830.6491 165.46982c0 12.401566 -10.005249 22.46457 -22.4068 22.46457c-12.404236 0 -22.467224 -10.063004 -22.467224 -22.46457c0 -12.404205 10.062988 -22.467194 22.467224 -22.467194c12.40155 0 22.4068 10.062988 22.4068 22.467194z" fill-rule="evenodd"/><path fill="#3d3d3d" d="m830.18195 165.46982c0 -6.086609 -2.4593506 -11.527557 -6.43573 -15.503937c-3.979004 -3.979004 -9.477661 -6.4356995 -15.503906 -6.4356995c-6.0839844 0 -11.585327 2.4566956 -15.561707 6.4356995c-3.979004 3.9763794 -6.435669 9.417328 -6.435669 15.503937c0 6.0839844 2.456665 11.582672 6.435669 15.561676c3.9763794 3.979004 9.477722 6.4356995 15.561707 6.4356995c6.026245 0 11.524902 -2.4566956 15.503906 -6.4356995c3.9763794 -3.979004 6.43573 -9.477692 6.43573 -15.561676zm0.994751 0c0 12.695541 -10.299255 22.931763 -22.934387 22.931763c-12.695557 0 -22.992126 -10.236221 -22.992126 -22.931763c0 -12.637802 10.29657 -22.934387 22.992126 -22.934387c12.635132 0 22.934387 10.296585 22.934387 22.934387z" fill-rule="evenodd"/><path fill="#ab8fdc" d="m822.3998 165.46982c0 7.8398895 -6.3779297 14.215225 -14.157471 14.215225c-7.839905 0 -14.217834 -6.3753357 -14.217834 -14.215225c0 -7.8398895 6.3779297 -14.16011 14.217834 -14.16011c7.779541 0 14.157471 6.320221 14.157471 14.16011z" fill-rule="evenodd"/><path fill="#3d3d3d" d="m821.93256 165.46982c0 -3.8031464 -1.5222778 -7.1968536 -4.036743 -9.653549c-2.4592896 -2.5170593 -5.9107666 -4.036743 -9.653503 -4.036743c-3.8031616 0 -7.2546387 1.5196838 -9.711304 4.036743c-2.4592896 2.4566956 -3.979004 5.850403 -3.979004 9.653549c0 3.8005219 1.5197144 7.194229 3.979004 9.711288c2.456665 2.4566956 5.908142 3.979004 9.711304 3.979004c3.7427368 0 7.194214 -1.5223083 9.653503 -3.979004c2.5144653 -2.5170593 4.036743 -5.9107666 4.036743 -9.711288zm0.9343872 0c0 8.131226 -6.5511475 14.682419 -14.624634 14.682419c-8.13385 0 -14.685059 -6.551193 -14.685059 -14.682419c0 -8.073486 6.5512085 -14.685043 14.685059 -14.685043c8.073486 0 14.624634 6.611557 14.624634 14.685043z" fill-rule="evenodd"/><path fill="#ffffff" d="m856.37744 304.5118c0 8.191589 -6.611511 14.803162 -14.800476 14.803162c-8.24939 0 -14.860901 -6.6115723 -14.860901 -14.803162c0 -8.249329 6.611511 -14.858276 14.860901 -14.858276c8.188965 0 14.800476 6.6089478 14.800476 14.858276z" fill-rule="evenodd"/><path fill="#3d3d3d" d="m855.9103 304.5118c0 -3.9763794 -1.5800781 -7.545929 -4.2125854 -10.178467c-2.574829 -2.5747986 -6.2021484 -4.212616 -10.120728 -4.212616c-3.979004 0 -7.6063232 1.6378174 -10.181152 4.212616c-2.5721436 2.6325378 -4.2125854 6.2020874 -4.2125854 10.178467c0 3.9212646 1.6404419 7.5485535 4.2125854 10.123352c2.574829 2.6325684 6.2021484 4.2099915 10.181152 4.2099915c3.918579 0 7.5458984 -1.5774231 10.120728 -4.2099915c2.6325073 -2.5747986 4.2125854 -6.2020874 4.2125854 -10.123352zm0.994751 0c0 8.425201 -6.902893 15.3280945 -15.328064 15.3280945c-8.482971 0 -15.388489 -6.902893 -15.388489 -15.3280945c0 -8.482941 6.9055176 -15.3280945 15.388489 -15.3280945c8.425171 0 15.328064 6.845154 15.328064 15.3280945z" fill-rule="evenodd"/><path fill="#ab8fdc" d="m849.88403 304.5118c0 4.5643005 -3.7454224 8.309723 -8.307068 8.309723c-4.6220703 0 -8.307129 -3.7454224 -8.307129 -8.309723c0 -4.62204 3.6850586 -8.307098 8.307129 -8.307098c4.5616455 0 8.307068 3.6850586 8.307068 8.307098z" fill-rule="evenodd"/><path fill="#3d3d3d" d="m849.35645 304.5118c0 -2.1627197 -0.87664795 -4.1522217 -2.2808228 -5.556427c-1.4041748 -1.4042053 -3.333313 -2.2808533 -5.498657 -2.2808533c-2.1654053 0 -4.154907 0.87664795 -5.559082 2.2808533c-1.4041748 1.4042053 -2.2808228 3.3937073 -2.2808228 5.556427c0 2.1653442 0.87664795 4.097107 2.2808228 5.5013123c1.4041748 1.4042053 3.3936768 2.2808533 5.559082 2.2808533c2.1653442 0 4.0944824 -0.87664795 5.498657 -2.2808533c1.4041748 -1.4042053 2.2808228 -3.335968 2.2808228 -5.5013123zm0.994751 0c0 4.855652 -3.9186401 8.7769165 -8.774231 8.7769165c-4.855652 0 -8.834656 -3.9212646 -8.834656 -8.7769165c0 -4.855652 3.979004 -8.832031 8.834656 -8.832031c4.855591 0 8.774231 3.9763794 8.774231 8.832031z" fill-rule="evenodd"/><path fill="#ffffff" d="m859.0481 27.89239c0 4.7978992 -3.8609009 8.716536 -8.658813 8.716536c-4.7979126 0 -8.716553 -3.9186363 -8.716553 -8.716536c0 -4.797901 3.9186401 -8.716536 8.716553 -8.716536c4.7979126 0 8.658813 3.9186344 8.658813 8.716536z" fill-rule="evenodd"/><path fill="#3d3d3d" d="m858.57825 27.89239c0 -2.28084 -0.9343872 -4.328085 -2.3963013 -5.792652c-1.5223389 -1.5196838 -3.56958 -2.3989506 -5.7926636 -2.3989506c-2.2834473 0 -4.3306885 0.87926674 -5.850403 2.3989506c-1.4619141 1.4645672 -2.3989258 3.5118122 -2.3989258 5.792652c0 2.28084 0.9370117 4.328085 2.3989258 5.79265c1.5197144 1.5196838 3.5669556 2.3989487 5.850403 2.3989487c2.2230835 0 4.2703247 -0.87926483 5.7926636 -2.3989487c1.4619141 -1.4645653 2.3963013 -3.5118103 2.3963013 -5.79265zm0.994751 0c0 5.089239 -4.1522217 9.18635 -9.183716 9.18635c-5.0892334 0 -9.18634 -4.0971107 -9.18634 -9.18635c0 -5.089239 4.097107 -9.186352 9.18634 -9.186352c5.031494 0 9.183716 4.0971127 9.183716 9.186352z" fill-rule="evenodd"/><path fill="#ab8fdc" d="m855.24493 27.89239c0 2.6902885 -2.1653442 4.8556423 -4.855652 4.8556423c-2.6929321 0 -4.9160156 -2.1653538 -4.9160156 -4.8556423c0 -2.6902905 2.2230835 -4.855644 4.9160156 -4.855644c2.6903076 0 4.855652 2.1653538 4.855652 4.855644z" fill-rule="evenodd"/><path fill="#3d3d3d" d="m854.7777 27.89239c0 -1.2283478 -0.52752686 -2.28084 -1.2886963 -3.099739c-0.8189087 -0.81889725 -1.9291382 -1.2887135 -3.0997314 -1.2887135c-1.2283325 0 -2.3411865 0.4698162 -3.102356 1.2887135c-0.8189087 0.81889915 -1.2861328 1.8713913 -1.2861328 3.099739c0 1.2283459 0.46722412 2.28084 1.2861328 3.0997372c0.76116943 0.81889725 1.8740234 1.2887115 3.102356 1.2887115c1.1705933 0 2.2808228 -0.4698143 3.0997314 -1.2887115c0.76116943 -0.81889725 1.2886963 -1.8713913 1.2886963 -3.0997372zm0.9343872 0c0 2.984251 -2.3989258 5.3831997 -5.322815 5.3831997c-2.984253 0 -5.3832397 -2.3989487 -5.3832397 -5.3831997c0 -2.984253 2.3989868 -5.3832035 5.3832397 -5.3832035c2.9238892 0 5.322815 2.3989506 5.322815 5.3832035z" fill-rule="evenodd"/><path fill="#ab8fdc" d="m823.3492 422.7422c0 8.370239 -6.77948 15.149719 -15.120605 15.149719c-8.371521 0 -15.149719 -6.77948 -15.149719 -15.149719c0 -8.371521 6.7781982 -15.149689 15.149719 -15.149689c8.3411255 0 15.120605 6.7781677 15.120605 15.149689z" fill-rule="evenodd"/><path fill="#3d3d3d" d="m823.11255 422.74222c0 -4.1269226 -1.6502686 -7.8413086 -4.3623047 -10.522949c-2.6816406 -2.7120667 -6.42511 -4.3623047 -10.5216675 -4.3623047c-4.126892 0 -7.839966 1.650238 -10.552002 4.3623047c-2.6816406 2.6816406 -4.3623047 6.3960266 -4.3623047 10.522949c0 4.1256104 1.6806641 7.839966 4.3623047 10.55069c2.7120361 2.6829834 6.42511 4.3623047 10.552002 4.3623047c4.0965576 0 7.840027 -1.6793213 10.5216675 -4.3623047c2.7120361 -2.7107239 4.3623047 -6.4250793 4.3623047 -10.55069zm0.50109863 0c0 8.487915 -6.897156 15.385071 -15.385071 15.385071c-8.518311 0 -15.415466 -6.897156 -15.415466 -15.385071c0 -8.489227 6.897156 -15.386414 15.415466 -15.386414c8.487915 0 15.385071 6.8971863 15.385071 15.386414z" fill-rule="evenodd"/><path fill="#ffffff" d="m819.51697 422.742c0 6.247925 -5.0406494 11.317657 -11.288574 11.317657c-6.2492065 0 -11.31897 -5.0697327 -11.31897 -11.317657c0 -6.249237 5.069763 -11.31897 11.31897 -11.31897c6.247925 0 11.288574 5.0697327 11.288574 11.31897z" fill-rule="evenodd"/><path fill="#3d3d3d" d="m819.2816 422.74203c0 -3.0664368 -1.2390137 -5.8075867 -3.2423096 -7.8108826c-2.0046387 -2.0046387 -4.7748413 -3.2423096 -7.810913 -3.2423096c-3.0650635 0 -5.83667 1.2376709 -7.839966 3.2423096c-2.0045776 2.003296 -3.2423096 4.744446 -3.2423096 7.8108826c0 3.065094 1.2377319 5.8353577 3.2423096 7.839966c2.003296 2.0046082 4.7749023 3.2423096 7.839966 3.2423096c3.0360718 0 5.8062744 -1.2377014 7.810913 -3.2423096c2.003296 -2.0046082 3.2423096 -4.774872 3.2423096 -7.839966zm0.50115967 0c0 6.395996 -5.1887817 11.553009 -11.554382 11.553009c-6.395996 0 -11.583435 -5.157013 -11.583435 -11.553009c0 -6.366913 5.187439 -11.554352 11.583435 -11.554352c6.3656006 0 11.554382 5.187439 11.554382 11.554352z" fill-rule="evenodd"/><path fill="#ab8fdc" d="m815.3607 422.74182c0 3.9497375 -3.2131958 7.161621 -7.1325073 7.161621c-3.949768 0 -7.162964 -3.2118835 -7.162964 -7.161621c0 -3.9497375 3.2131958 -7.1338806 7.162964 -7.1338806c3.9193115 0 7.1325073 3.184143 7.1325073 7.1338806z" fill-rule="evenodd"/><path fill="#3d3d3d" d="m815.12537 422.74182c0 -1.9160156 -0.76690674 -3.625763 -2.0336914 -4.8634644c-1.2390137 -1.2680664 -2.9778442 -2.0336914 -4.8634644 -2.0336914c-1.9160156 0 -3.6548462 0.765625 -4.892517 2.0336914c-1.2390137 1.2377014 -2.0046387 2.9474487 -2.0046387 4.8634644c0 1.9147034 0.765625 3.6244507 2.0046387 4.8925476c1.2376709 1.2377014 2.9765015 2.0046387 4.892517 2.0046387c1.8856201 0 3.6244507 -0.76693726 4.8634644 -2.0046387c1.2667847 -1.2680969 2.0336914 -2.9778442 2.0336914 -4.8925476zm0.47076416 0c0 4.096527 -3.300476 7.397003 -7.36792 7.397003c-4.0978394 0 -7.3983154 -3.300476 -7.3983154 -7.397003c0 -4.0674133 3.300476 -7.3983154 7.3983154 -7.3983154c4.067444 0 7.36792 3.330902 7.36792 7.3983154z" fill-rule="evenodd"/><path fill="#595959" d="m876.27905 44.53018l0 0c0.7827759 0 1.4172974 -0.6345558 1.4172974 -1.4173203l0 0c0 -0.37589645 -0.14929199 -0.7364006 -0.4151001 -1.0022011c-0.2658081 -0.26579666 -0.6263428 -0.415123 -1.0021973 -0.415123l0 0c-0.7827759 0 -1.4173584 0.6345558 -1.4173584 1.4173241l0 0c0 0.78276443 0.6345825 1.4173203 1.4173584 1.4173203z" fill-rule="evenodd"/><path fill="#595959" d="m876.27905 36.760498l0 0c0.7827759 0 1.4172974 -0.63455963 1.4172974 -1.4173241l0 0c0 -0.37589645 -0.14929199 -0.7364006 -0.4151001 -1.0021973c-0.2658081 -0.26580048 -0.6263428 -0.4151268 -1.0021973 -0.4151268l0 0c-0.7827759 0 -1.4173584 0.63455963 -1.4173584 1.4173241l0 0c0 0.78276443 0.6345825 1.4173241 1.4173584 1.4173241z" fill-rule="evenodd"/><path fill="#595959" d="m876.27905 28.99081l0 0c0.7827759 0 1.4172974 -0.6345577 1.4172974 -1.4173241l0 0c0 -0.37589645 -0.14929199 -0.7363987 -0.4151001 -1.0021973c-0.2658081 -0.26580048 -0.6263428 -0.4151249 -1.0021973 -0.4151249l0 0c-0.7827759 0 -1.4173584 0.6345577 -1.4173584 1.4173222l0 0c0 0.78276634 0.6345825 1.4173241 1.4173584 1.4173241z" fill-rule="evenodd"/><path fill="#000000" fill-opacity="0.0" d="m172.18898 367.19946l-13.228348 -175.59055" fill-rule="evenodd"/><path stroke="#1a2e35" stroke-width="1.0" stroke-linejoin="round" stroke-linecap="butt" d="m172.18898 367.19946l-13.228348 -175.59055" fill-rule="evenodd"/><path fill="#000000" fill-opacity="0.0" d="m93.45407 455.69028l78.04724 -87.08661" fill-rule="evenodd"/><path stroke="#1a2e35" stroke-width="1.0" stroke-linejoin="round" stroke-linecap="butt" d="m93.45407 455.69028l78.04724 -87.08661" fill-rule="evenodd"/><path fill="#000000" fill-opacity="0.0" d="m220.26509 540.0l-124.72441 -83.62204" fill-rule="evenodd"/><path stroke="#1a2e35" stroke-width="1.0" stroke-linejoin="round" stroke-linecap="butt" d="m220.26509 540.0l-124.72441 -83.62204" fill-rule="evenodd"/><path fill="#ab8fdc" d="m125.8294 457.02887c0 -16.614166 -13.456696 -30.070862 -30.013123 -30.070862c-16.616798 0 -30.07087 13.456696 -30.07087 30.070862c0 16.61679 13.454071 30.070862 30.07087 30.070862c16.556427 0 30.013123 -13.454071 30.013123 -30.070862z" fill-rule="evenodd"/><path fill="#3d3d3d" d="m125.35958 457.02887c0 8.191589 -3.275589 15.564301 -8.658791 20.887146c-5.322838 5.383209 -12.753281 8.658783 -20.884514 8.658783c-8.191605 0 -15.561684 -3.2755737 -20.944885 -8.658783c-5.322838 -5.3228455 -8.658791 -12.695557 -8.658791 -20.887146c0 -8.188965 3.3359528 -15.561676 8.658791 -20.94226c5.3832016 -5.3254395 12.753281 -8.658783 20.944885 -8.658783c8.131233 0 15.561676 3.3333435 20.884514 8.658783c5.3832016 5.3805847 8.658791 12.753296 8.658791 20.94226zm0.994751 0c0 -16.847778 -13.690292 -30.538055 -30.538055 -30.538055c-16.908142 0 -30.598427 13.690277 -30.598427 30.538055c0 16.850403 13.690285 30.54068 30.598427 30.54068c16.847763 0 30.538055 -13.690277 30.538055 -30.54068z" fill-rule="evenodd"/><path fill="#ffffff" d="m118.2231 457.02887c0 -12.401581 -10.005249 -22.46457 -22.406822 -22.46457c-12.404205 0 -22.467194 10.062988 -22.467194 22.46457c0 12.404205 10.062988 22.467194 22.467194 22.467194c12.401573 0 22.406822 -10.062988 22.406822 -22.467194z" fill-rule="evenodd"/><path fill="#3d3d3d" d="m117.755905 457.02887c0 6.086609 -2.45932 11.527557 -6.435692 15.503937c-3.979004 3.979004 -9.477692 6.4356995 -15.503937 6.4356995c-6.083992 0 -11.585304 -2.4566956 -15.561684 -6.4356995c-3.979004 -3.9763794 -6.435692 -9.417328 -6.435692 -15.503937c0 -6.0839844 2.456688 -11.582672 6.435692 -15.561676c3.9763794 -3.979004 9.477692 -6.4356995 15.561684 -6.4356995c6.026245 0 11.524933 2.4566956 15.503937 6.4356995c3.9763718 3.979004 6.435692 9.477692 6.435692 15.561676zm0.994751 0c0 -12.695526 -10.29921 -22.931763 -22.93438 -22.931763c-12.695541 0 -22.992126 10.236237 -22.992126 22.931763c0 12.637787 10.296585 22.934387 22.992126 22.934387c12.63517 0 22.93438 -10.2966 22.93438 -22.934387z" fill-rule="evenodd"/><path fill="#ab8fdc" d="m109.973755 457.02887c0 -7.839905 -6.3779526 -14.21521 -14.157478 -14.21521c-7.839897 0 -14.21785 6.375305 -14.21785 14.21521c0 7.839905 6.3779526 14.160095 14.21785 14.160095c7.7795258 0 14.157478 -6.3201904 14.157478 -14.160095z" fill-rule="evenodd"/><path fill="#3d3d3d" d="m109.50656 457.02887c0 3.8031616 -1.5223083 7.1968384 -4.036743 9.653534c-2.45932 2.5170593 -5.9107666 4.036743 -9.653542 4.036743c-3.803154 0 -7.2546005 -1.5196838 -9.711288 -4.036743c-2.45932 -2.4566956 -3.979004 -5.8503723 -3.979004 -9.653534c0 -3.800537 1.5196838 -7.194214 3.979004 -9.711273c2.456688 -2.4566956 5.9081345 -3.979004 9.711288 -3.979004c3.742775 0 7.1942215 1.5223083 9.653542 3.979004c2.5144348 2.5170593 4.036743 5.910736 4.036743 9.711273zm0.9343872 0c0 -8.131226 -6.5511856 -14.682404 -14.624672 -14.682404c-8.133865 0 -14.685043 6.551178 -14.685043 14.682404c0 8.073486 6.551178 14.685028 14.685043 14.685028c8.073486 0 14.624672 -6.6115417 14.624672 -14.685028z" fill-rule="evenodd"/><path fill="#ffffff" d="m185.83727 367.1496c0 -8.191589 -6.6115417 -14.803131 -14.800522 -14.803131c-8.249344 0 -14.860886 6.6115417 -14.860886 14.803131c0 8.249359 6.6115417 14.858276 14.860886 14.858276c8.18898 0 14.800522 -6.608917 14.800522 -14.858276z" fill-rule="evenodd"/><path fill="#3d3d3d" d="m185.37007 367.1496c0 3.9763794 -1.5800476 7.545929 -4.2125854 10.178497c-2.5748138 2.5747986 -6.2021027 4.2125854 -10.120743 4.2125854c-3.979004 0 -7.6062927 -1.6377869 -10.181107 -4.2125854c-2.572174 -2.6325684 -4.2125854 -6.202118 -4.2125854 -10.178497c0 -3.9212646 1.6404114 -7.5485535 4.2125854 -10.123352c2.5748138 -2.6325378 6.2021027 -4.209961 10.181107 -4.209961c3.9186401 0 7.545929 1.5774231 10.120743 4.209961c2.6325378 2.5747986 4.2125854 6.2020874 4.2125854 10.123352zm0.994751 0c0 -8.425201 -6.902878 -15.328064 -15.328079 -15.328064c-8.482941 0 -15.388443 6.9028625 -15.388443 15.328064c0 8.482941 6.9055023 15.3280945 15.388443 15.3280945c8.425201 0 15.328079 -6.845154 15.328079 -15.3280945z" fill-rule="evenodd"/><path fill="#ab8fdc" d="m179.34383 367.1496c0 -4.5643005 -3.745407 -8.309692 -8.307083 -8.309692c-4.62204 0 -8.307083 3.7453918 -8.307083 8.309692c0 4.6220703 3.6850433 8.307098 8.307083 8.307098c4.561676 0 8.307083 -3.685028 8.307083 -8.307098z" fill-rule="evenodd"/><path fill="#3d3d3d" d="m178.81627 367.1496c0 2.1627502 -0.8766327 4.152252 -2.280838 5.556427c-1.4041901 1.4042053 -3.3333282 2.2808533 -5.4986877 2.2808533c-2.1653595 0 -4.154846 -0.87664795 -5.5590515 -2.2808533c-1.4042053 -1.4041748 -2.280838 -3.3936768 -2.280838 -5.556427c0 -2.1653442 0.8766327 -4.097107 2.280838 -5.5013123c1.4042053 -1.4042053 3.393692 -2.2808228 5.5590515 -2.2808228c2.1653595 0 4.0944977 0.87661743 5.4986877 2.2808228c1.4042053 1.4042053 2.280838 3.335968 2.280838 5.5013123zm0.994751 0c0 -4.8556213 -3.9186249 -8.776886 -8.774277 -8.776886c-4.8556366 0 -8.8346405 3.9212646 -8.8346405 8.776886c0 4.855652 3.979004 8.832031 8.8346405 8.832031c4.855652 0 8.774277 -3.9763794 8.774277 -8.832031z" fill-rule="evenodd"/><path fill="#ffffff" d="m185.31233 512.1076c0 -4.797882 -3.8608856 -8.716522 -8.658783 -8.716522c-4.7979126 0 -8.716537 3.9186401 -8.716537 8.716522c0 4.7979126 3.9186249 8.716553 8.716537 8.716553c4.7978973 0 8.658783 -3.9186401 8.658783 -8.716553z" fill-rule="evenodd"/><path fill="#3d3d3d" d="m184.84251 512.1076c0 2.2808228 -0.93437195 4.328064 -2.3963165 5.7926636c-1.5223083 1.5196533 -3.5695496 2.3989258 -5.7926483 2.3989258c-2.2834778 0 -4.330719 -0.87927246 -5.850403 -2.3989258c-1.4619446 -1.4645996 -2.398941 -3.5118408 -2.398941 -5.7926636c0 -2.2808228 0.93699646 -4.328064 2.398941 -5.792633c1.5196838 -1.5196838 3.566925 -2.3989563 5.850403 -2.3989563c2.2230988 0 4.27034 0.87927246 5.7926483 2.3989563c1.4619446 1.4645691 2.3963165 3.5118103 2.3963165 5.792633zm0.994751 0c0 -5.0892334 -4.1522217 -9.18634 -9.183716 -9.18634c-5.0892487 0 -9.186356 4.097107 -9.186356 9.18634c0 5.0892334 4.097107 9.18634 9.186356 9.18634c5.031494 0 9.183716 -4.097107 9.183716 -9.18634z" fill-rule="evenodd"/><path fill="#ab8fdc" d="m181.50919 512.1076c0 -2.690277 -2.1653595 -4.8556213 -4.8556366 -4.8556213c-2.6929169 0 -4.9160156 2.1653442 -4.9160156 4.8556213c0 2.6903076 2.2230988 4.855652 4.9160156 4.855652c2.690277 0 4.8556366 -2.1653442 4.8556366 -4.855652z" fill-rule="evenodd"/><path fill="#3d3d3d" d="m181.04199 512.1076c0 1.2283325 -0.5275574 2.2808228 -1.2887115 3.0997314c-0.81889343 0.8189087 -1.9291382 1.2886963 -3.0997314 1.2886963c-1.2283478 0 -2.341217 -0.4697876 -3.1023712 -1.2886963c-0.81889343 -0.8189087 -1.286087 -1.8713989 -1.286087 -3.0997314c0 -1.2283325 0.4671936 -2.2808228 1.286087 -3.0997314c0.7611542 -0.8189087 1.8740234 -1.2887268 3.1023712 -1.2887268c1.1705933 0 2.280838 0.46981812 3.0997314 1.2887268c0.7611542 0.8189087 1.2887115 1.8713989 1.2887115 3.0997314zm0.9343872 0c0 -2.984253 -2.3989563 -5.383209 -5.32283 -5.383209c-2.984253 0 -5.383209 2.3989563 -5.383209 5.383209c0 2.984253 2.3989563 5.3831787 5.383209 5.3831787c2.923874 0 5.32283 -2.3989258 5.32283 -5.3831787z" fill-rule="evenodd"/><path fill="#ab8fdc" d="m174.86543 192.43103c0 -8.370224 -6.77948 -15.149704 -15.120605 -15.149704c-8.3715515 0 -15.149704 6.77948 -15.149704 15.149704c0 8.371536 6.7781525 15.149704 15.149704 15.149704c8.3411255 0 15.120605 -6.7781677 15.120605 -15.149704z" fill-rule="evenodd"/><path fill="#3d3d3d" d="m174.62875 192.43102c0 4.1269226 -1.650238 7.8412933 -4.3623047 10.522934c-2.6816406 2.7120667 -6.4250946 4.3623047 -10.521606 4.3623047c-4.126938 0 -7.839981 -1.650238 -10.552032 -4.3623047c-2.6816406 -2.6816406 -4.3623047 -6.3960114 -4.3623047 -10.522934c0 -4.1256104 1.6806641 -7.839981 4.3623047 -10.550705c2.7120514 -2.6829681 6.4250946 -4.3623047 10.552032 -4.3623047c4.096512 0 7.839966 1.6793365 10.521606 4.3623047c2.7120667 2.7107239 4.3623047 6.4250946 4.3623047 10.550705zm0.50115967 0c0 -8.4879 -6.897171 -15.385071 -15.385071 -15.385071c-8.518326 0 -15.415497 6.897171 -15.415497 15.385071c0 8.489227 6.897171 15.386398 15.415497 15.386398c8.4879 0 15.385071 -6.897171 15.385071 -15.386398z" fill-rule="evenodd"/><path fill="#ffffff" d="m171.0332 192.43121c0 -6.2479095 -5.0406494 -11.317657 -11.288559 -11.317657c-6.249237 0 -11.31897 5.069748 -11.31897 11.317657c0 6.249237 5.0697327 11.31897 11.31897 11.31897c6.2479095 0 11.288559 -5.0697327 11.288559 -11.31897z" fill-rule="evenodd"/><path fill="#3d3d3d" d="m170.79784 192.4312c0 3.0664368 -1.2389984 5.8075867 -3.2422943 7.8108826c-2.0046234 2.0046234 -4.774872 3.2423096 -7.8108826 3.2423096c-3.0651245 0 -5.836685 -1.2376862 -7.839981 -3.2423096c-2.0046234 -2.003296 -3.2423096 -4.744446 -3.2423096 -7.8108826c0 -3.0651093 1.2376862 -5.8353577 3.2423096 -7.839966c2.003296 -2.0046234 4.7748566 -3.2423096 7.839981 -3.2423096c3.0360107 0 5.806259 1.2376862 7.8108826 3.2423096c2.003296 2.0046082 3.2422943 4.7748566 3.2422943 7.839966zm0.50115967 0c0 -6.3960114 -5.188751 -11.553024 -11.554337 -11.553024c-6.3960114 0 -11.583435 5.157013 -11.583435 11.553024c0 6.366928 5.1874237 11.554352 11.583435 11.554352c6.3655853 0 11.554337 -5.1874237 11.554337 -11.554352z" fill-rule="evenodd"/><path fill="#ab8fdc" d="m166.87698 192.43141c0 -3.9497375 -3.213211 -7.161621 -7.132538 -7.161621c-3.9497528 0 -7.162964 3.2118835 -7.162964 7.161621c0 3.9497375 3.213211 7.1338654 7.162964 7.1338654c3.9193268 0 7.132538 -3.1841278 7.132538 -7.1338654z" fill-rule="evenodd"/><path fill="#3d3d3d" d="m166.64162 192.4314c0 1.9160309 -0.76693726 3.6257782 -2.0337067 4.8634644c-1.2390137 1.2680969 -2.9778442 2.0337067 -4.8634644 2.0337067c-1.9160156 0 -3.6548615 -0.76560974 -4.8925476 -2.0337067c-1.2389984 -1.2376862 -2.0046082 -2.9474335 -2.0046082 -4.8634644c0 -1.9147034 0.76560974 -3.6244507 2.0046082 -4.8925476c1.2376862 -1.2376709 2.976532 -2.0046082 4.8925476 -2.0046082c1.8856201 0 3.6244507 0.76693726 4.8634644 2.0046082c1.2667694 1.2680969 2.0337067 2.9778442 2.0337067 4.8925476zm0.4707489 0c0 -4.096512 -3.3004913 -7.397003 -7.36792 -7.397003c-4.0978394 0 -7.3983154 3.3004913 -7.3983154 7.397003c0 4.0674286 3.300476 7.3983307 7.3983154 7.3983307c4.0674286 0 7.36792 -3.330902 7.36792 -7.3983307z" fill-rule="evenodd"/><path fill="#595959" d="m187.78215 151.32545l0 0c0.7827606 0 1.4173279 0.63456726 1.4173279 1.4173279l0 0c0 0.37590027 -0.14932251 0.7364044 -0.41513062 1.0021973c-0.26579285 0.26579285 -0.626297 0.41513062 -1.0021973 0.41513062l0 0c-0.7827606 0 -1.4173279 -0.63456726 -1.4173279 -1.4173279l0 0c0 -0.7827606 0.63456726 -1.4173279 1.4173279 -1.4173279z" fill-rule="evenodd"/><path fill="#595959" d="m187.78215 159.09515l0 0c0.7827606 0 1.4173279 0.634552 1.4173279 1.4173126l0 0c0 0.37590027 -0.14932251 0.7364044 -0.41513062 1.0021973c-0.26579285 0.2658081 -0.626297 0.41513062 -1.0021973 0.41513062l0 0c-0.7827606 0 -1.4173279 -0.634552 -1.4173279 -1.4173279l0 0c0 -0.7827606 0.63456726 -1.4173126 1.4173279 -1.4173126z" fill-rule="evenodd"/><path fill="#595959" d="m187.78215 166.86484l0 0c0.7827606 0 1.4173279 0.634552 1.4173279 1.4173126l0 0c0 0.37590027 -0.14932251 0.7364044 -0.41513062 1.0021973c-0.26579285 0.2658081 -0.626297 0.41513062 -1.0021973 0.41513062l0 0c-0.7827606 0 -1.4173279 -0.634552 -1.4173279 -1.4173279l0 0c0 -0.7827606 0.63456726 -1.4173126 1.4173279 -1.4173126z" fill-rule="evenodd"/><path fill="#595959" d="m200.2126 471.18896l0 0c0.7827606 0 1.4173279 0.6345825 1.4173279 1.4173279l0 0c0 0.37591553 -0.14933777 0.7364197 -0.41513062 1.0021973c-0.2658081 0.2658081 -0.626297 0.41513062 -1.0021973 0.41513062l0 0c-0.7827606 0 -1.4173279 -0.634552 -1.4173279 -1.4173279l0 0c0 -0.78274536 0.63456726 -1.4173279 1.4173279 -1.4173279z" fill-rule="evenodd"/><path fill="#595959" d="m200.2126 478.95865l0 0c0.7827606 0 1.4173279 0.6345825 1.4173279 1.4173279l0 0c0 0.37591553 -0.14933777 0.7364197 -0.41513062 1.0021973c-0.2658081 0.2658081 -0.626297 0.41513062 -1.0021973 0.41513062l0 0c-0.7827606 0 -1.4173279 -0.634552 -1.4173279 -1.4173279l0 0c0 -0.78274536 0.63456726 -1.4173279 1.4173279 -1.4173279z" fill-rule="evenodd"/><path fill="#595959" d="m200.2126 486.72836l0 0c0.7827606 0 1.4173279 0.634552 1.4173279 1.4172974l0 0c0 0.37591553 -0.14933777 0.7364197 -0.41513062 1.0021973c-0.2658081 0.2658081 -0.626297 0.41513062 -1.0021973 0.41513062l0 0c-0.7827606 0 -1.4173279 -0.634552 -1.4173279 -1.4173279l0 0c0 -0.78274536 0.63456726 -1.4172974 1.4173279 -1.4172974z" fill-rule="evenodd"/><path fill="#595959" d="m52.08399 426.958l0 0c0.78276825 0 1.4173241 0.634552 1.4173241 1.4173279l0 0c0 0.375885 -0.14932632 0.73638916 -0.415123 1.0021973c-0.26580048 0.2658081 -0.6263008 0.41513062 -1.0022011 0.41513062l0 0c-0.78276443 0 -1.4173203 -0.6345825 -1.4173203 -1.4173279l0 0c0 -0.7827759 0.6345558 -1.4173279 1.4173203 -1.4173279z" fill-rule="evenodd"/><path fill="#595959" d="m52.08399 434.7277l0 0c0.78276825 0 1.4173241 0.634552 1.4173241 1.4173279l0 0c0 0.375885 -0.14932632 0.73638916 -0.415123 1.0021973c-0.26580048 0.2658081 -0.6263008 0.41513062 -1.0022011 0.41513062l0 0c-0.78276443 0 -1.4173203 -0.634552 -1.4173203 -1.4173279l0 0c0 -0.7827759 0.6345558 -1.4173279 1.4173203 -1.4173279z" fill-rule="evenodd"/><path fill="#595959" d="m52.08399 442.49738l0 0c0.78276825 0 1.4173241 0.634552 1.4173241 1.4173279l0 0c0 0.375885 -0.14932632 0.73638916 -0.415123 1.0021973c-0.26580048 0.2658081 -0.6263008 0.41513062 -1.0022011 0.41513062l0 0c-0.78276443 0 -1.4173203 -0.634552 -1.4173203 -1.4173279l0 0c0 -0.7827759 0.6345558 -1.4173279 1.4173203 -1.4173279z" fill-rule="evenodd"/></g></svg>