<svg width="123" height="162" viewBox="0 0 123 162" fill="none" xmlns="http://www.w3.org/2000/svg">
<path fill-rule="evenodd" clip-rule="evenodd" d="M22.0502 46.8463L24.9335 72.7799L19.0987 73.2454C10.9622 73.8945 4.31836 80.007 2.9994 88.057C-0.040489 106.61 -0.0404893 125.534 2.9994 144.088C4.31836 152.138 10.9622 158.25 19.0987 158.899L31.6732 159.903C51.5261 161.486 71.4739 161.486 91.3269 159.903L103.901 158.899C112.038 158.25 118.682 152.138 120.001 144.088C123.041 125.534 123.041 106.61 120.001 88.057C118.682 80.007 112.038 73.8945 103.901 73.2454L98.0657 72.7798L100.949 46.8463C101.289 43.7891 101.289 40.7037 100.949 37.6465L100.758 35.9255C98.7281 17.6705 84.3679 3.22642 66.1148 1.08035C63.0486 0.719841 59.9506 0.719841 56.8844 1.08035C38.6313 3.22642 24.2711 17.6705 22.2415 35.9255L22.0502 37.6465C21.7103 40.7037 21.7103 43.7891 22.0502 46.8463ZM64.6418 13.5931C62.5542 13.3476 60.445 13.3476 58.3574 13.5931C45.9301 15.0542 36.1532 24.8882 34.7714 37.3169L34.58 39.0379C34.3429 41.1703 34.3429 43.3225 34.58 45.455L37.5116 71.8222C53.4872 70.7983 69.512 70.7982 85.4877 71.8221L88.4192 45.455C88.6563 43.3225 88.6563 41.1703 88.4192 39.0379L88.2279 37.3169C86.846 24.8882 77.0691 15.0542 64.6418 13.5931ZM61.4998 103.473C54.5372 103.473 48.8928 109.114 48.8928 116.072C48.8928 123.031 54.5372 128.671 61.4998 128.671C68.4624 128.671 74.1068 123.031 74.1068 116.072C74.1068 109.114 68.4624 103.473 61.4998 103.473Z" fill="#0E131F"/>
</svg>
