<svg width="178" height="491" viewBox="0 0 178 491" fill="none" xmlns="http://www.w3.org/2000/svg">
<rect width="178" height="491" fill="#A39EDA"/>
<path d="M161.795 283.006V273.631H163.386V283.006H161.795ZM157.903 279.114V277.523H167.278V279.114H157.903Z" fill="white"/>
<path d="M4.40909 285V273.364H5.81818V283.75H11.2273V285H4.40909ZM15.7955 285.205C15.2424 285.205 14.7405 285.1 14.2898 284.892C13.839 284.68 13.4811 284.375 13.2159 283.977C12.9508 283.576 12.8182 283.091 12.8182 282.523C12.8182 282.023 12.9167 281.617 13.1136 281.307C13.3106 280.992 13.5739 280.746 13.9034 280.568C14.233 280.39 14.5966 280.258 14.9943 280.17C15.3958 280.08 15.7992 280.008 16.2045 279.955C16.7348 279.886 17.1648 279.835 17.4943 279.801C17.8277 279.763 18.0701 279.701 18.2216 279.614C18.3769 279.527 18.4545 279.375 18.4545 279.159V279.114C18.4545 278.553 18.3011 278.117 17.9943 277.807C17.6913 277.496 17.2311 277.341 16.6136 277.341C15.9735 277.341 15.4716 277.481 15.108 277.761C14.7443 278.042 14.4886 278.341 14.3409 278.659L13.0682 278.205C13.2955 277.674 13.5985 277.261 13.9773 276.966C14.3598 276.667 14.7765 276.458 15.2273 276.341C15.6818 276.22 16.1288 276.159 16.5682 276.159C16.8485 276.159 17.1705 276.193 17.5341 276.261C17.9015 276.326 18.2557 276.46 18.5966 276.665C18.9413 276.869 19.2273 277.178 19.4545 277.591C19.6818 278.004 19.7955 278.557 19.7955 279.25V285H18.4545V283.818H18.3864C18.2955 284.008 18.1439 284.21 17.9318 284.426C17.7197 284.642 17.4375 284.826 17.0852 284.977C16.733 285.129 16.303 285.205 15.7955 285.205ZM16 284C16.5303 284 16.9773 283.896 17.3409 283.688C17.7083 283.479 17.9848 283.21 18.1705 282.881C18.3598 282.551 18.4545 282.205 18.4545 281.841V280.614C18.3977 280.682 18.2727 280.744 18.0795 280.801C17.8902 280.854 17.6705 280.902 17.4205 280.943C17.1742 280.981 16.9337 281.015 16.6989 281.045C16.4678 281.072 16.2803 281.095 16.1364 281.114C15.7879 281.159 15.4621 281.233 15.1591 281.335C14.8598 281.434 14.6174 281.583 14.4318 281.784C14.25 281.981 14.1591 282.25 14.1591 282.591C14.1591 283.057 14.3314 283.409 14.6761 283.648C15.0246 283.883 15.4659 284 16 284ZM22.4247 285V273.364H23.7656V277.659H23.8793C23.9777 277.508 24.1141 277.314 24.2884 277.08C24.4664 276.841 24.7202 276.629 25.0497 276.443C25.383 276.254 25.8338 276.159 26.402 276.159C27.1368 276.159 27.7846 276.343 28.3452 276.71C28.9058 277.078 29.3433 277.598 29.6577 278.273C29.9721 278.947 30.1293 279.742 30.1293 280.659C30.1293 281.583 29.9721 282.384 29.6577 283.062C29.3433 283.737 28.9077 284.259 28.3509 284.631C27.794 284.998 27.152 285.182 26.4247 285.182C25.8641 285.182 25.4152 285.089 25.0781 284.903C24.741 284.714 24.4815 284.5 24.2997 284.261C24.1179 284.019 23.9777 283.818 23.8793 283.659H23.7202V285H22.4247ZM23.7429 280.636C23.7429 281.295 23.8395 281.877 24.0327 282.381C24.2259 282.881 24.508 283.273 24.8793 283.557C25.2505 283.837 25.705 283.977 26.2429 283.977C26.8035 283.977 27.2713 283.83 27.6463 283.534C28.0251 283.235 28.3092 282.833 28.4986 282.33C28.6918 281.822 28.7884 281.258 28.7884 280.636C28.7884 280.023 28.6937 279.47 28.5043 278.977C28.3187 278.481 28.0365 278.089 27.6577 277.801C27.2827 277.509 26.8111 277.364 26.2429 277.364C25.6974 277.364 25.2391 277.502 24.8679 277.778C24.4967 278.051 24.2164 278.434 24.027 278.926C23.8376 279.415 23.7429 279.985 23.7429 280.636ZM35.8395 285.182C34.9986 285.182 34.2732 284.996 33.6634 284.625C33.0573 284.25 32.5895 283.727 32.2599 283.057C31.9342 282.383 31.7713 281.598 31.7713 280.705C31.7713 279.811 31.9342 279.023 32.2599 278.341C32.5895 277.655 33.0478 277.121 33.6349 276.739C34.2259 276.352 34.9152 276.159 35.7031 276.159C36.1577 276.159 36.6065 276.235 37.0497 276.386C37.4929 276.538 37.8963 276.784 38.2599 277.125C38.6236 277.462 38.9134 277.909 39.1293 278.466C39.3452 279.023 39.4531 279.708 39.4531 280.523V281.091H32.7259V279.932H38.0895C38.0895 279.439 37.991 279 37.794 278.614C37.6009 278.227 37.3243 277.922 36.9645 277.699C36.6084 277.475 36.188 277.364 35.7031 277.364C35.169 277.364 34.7069 277.496 34.3168 277.761C33.9304 278.023 33.633 278.364 33.4247 278.784C33.2164 279.205 33.1122 279.655 33.1122 280.136V280.909C33.1122 281.568 33.2259 282.127 33.4531 282.585C33.6842 283.04 34.0043 283.386 34.4134 283.625C34.8224 283.86 35.2978 283.977 35.8395 283.977C36.1918 283.977 36.5099 283.928 36.794 283.83C37.0819 283.727 37.33 283.576 37.5384 283.375C37.7467 283.17 37.9077 282.917 38.0213 282.614L39.3168 282.977C39.1804 283.417 38.9512 283.803 38.6293 284.136C38.3073 284.466 37.9096 284.723 37.4361 284.909C36.9626 285.091 36.4304 285.182 35.8395 285.182ZM42.8338 273.364V285H41.4929V273.364H42.8338ZM51.4716 278.227L50.267 278.568C50.1913 278.367 50.0795 278.172 49.9318 277.983C49.7879 277.79 49.5909 277.631 49.3409 277.506C49.0909 277.381 48.7708 277.318 48.3807 277.318C47.8466 277.318 47.4015 277.441 47.0455 277.688C46.6932 277.93 46.517 278.239 46.517 278.614C46.517 278.947 46.6383 279.21 46.8807 279.403C47.1231 279.597 47.5019 279.758 48.017 279.886L49.3125 280.205C50.0928 280.394 50.6742 280.684 51.0568 281.074C51.4394 281.46 51.6307 281.958 51.6307 282.568C51.6307 283.068 51.4867 283.515 51.1989 283.909C50.9148 284.303 50.517 284.614 50.0057 284.841C49.4943 285.068 48.8996 285.182 48.2216 285.182C47.3314 285.182 46.5947 284.989 46.0114 284.602C45.428 284.216 45.0587 283.652 44.9034 282.909L46.1761 282.591C46.2973 283.061 46.5265 283.413 46.8636 283.648C47.2045 283.883 47.6496 284 48.1989 284C48.8239 284 49.3201 283.867 49.6875 283.602C50.0587 283.333 50.2443 283.011 50.2443 282.636C50.2443 282.333 50.1383 282.08 49.9261 281.875C49.714 281.667 49.3883 281.511 48.9489 281.409L47.4943 281.068C46.6951 280.879 46.108 280.585 45.733 280.188C45.3617 279.786 45.1761 279.284 45.1761 278.682C45.1761 278.189 45.3144 277.754 45.5909 277.375C45.8712 276.996 46.2519 276.699 46.733 276.483C47.2178 276.267 47.767 276.159 48.3807 276.159C49.2443 276.159 49.9223 276.348 50.4148 276.727C50.911 277.106 51.2633 277.606 51.4716 278.227Z" fill="white"/>
<rect width="113" height="48" rx="6" fill="#B7B5E4"/>
<path d="M40.0795 23H39.0227C38.9602 22.696 38.8509 22.429 38.6946 22.1989C38.5412 21.9688 38.3537 21.7756 38.1321 21.6193C37.9134 21.4602 37.6705 21.3409 37.4034 21.2614C37.1364 21.1818 36.858 21.142 36.5682 21.142C36.0398 21.142 35.5611 21.2756 35.1321 21.5426C34.706 21.8097 34.3665 22.2031 34.1136 22.723C33.8636 23.2429 33.7386 23.8807 33.7386 24.6364C33.7386 25.392 33.8636 26.0298 34.1136 26.5497C34.3665 27.0696 34.706 27.4631 35.1321 27.7301C35.5611 27.9972 36.0398 28.1307 36.5682 28.1307C36.858 28.1307 37.1364 28.0909 37.4034 28.0114C37.6705 27.9318 37.9134 27.8139 38.1321 27.6577C38.3537 27.4986 38.5412 27.304 38.6946 27.0739C38.8509 26.8409 38.9602 26.5739 39.0227 26.2727H40.0795C40 26.7187 39.8551 27.1179 39.6449 27.4702C39.4347 27.8224 39.1733 28.1222 38.8608 28.3693C38.5483 28.6136 38.1974 28.7997 37.8082 28.9276C37.4219 29.0554 37.0085 29.1193 36.5682 29.1193C35.8239 29.1193 35.1619 28.9375 34.5824 28.5739C34.0028 28.2102 33.5469 27.6932 33.2145 27.0227C32.8821 26.3523 32.7159 25.5568 32.7159 24.6364C32.7159 23.7159 32.8821 22.9205 33.2145 22.25C33.5469 21.5795 34.0028 21.0625 34.5824 20.6989C35.1619 20.3352 35.8239 20.1534 36.5682 20.1534C37.0085 20.1534 37.4219 20.2173 37.8082 20.3452C38.1974 20.473 38.5483 20.6605 38.8608 20.9077C39.1733 21.152 39.4347 21.4503 39.6449 21.8026C39.8551 22.152 40 22.5511 40.0795 23ZM44.31 29.1364C43.7191 29.1364 43.2006 28.9957 42.7546 28.7145C42.3114 28.4332 41.9648 28.0398 41.7148 27.5341C41.4677 27.0284 41.3441 26.4375 41.3441 25.7614C41.3441 25.0795 41.4677 24.4844 41.7148 23.9759C41.9648 23.4673 42.3114 23.0724 42.7546 22.7912C43.2006 22.5099 43.7191 22.3693 44.31 22.3693C44.9009 22.3693 45.418 22.5099 45.8612 22.7912C46.3072 23.0724 46.6538 23.4673 46.9009 23.9759C47.1509 24.4844 47.2759 25.0795 47.2759 25.7614C47.2759 26.4375 47.1509 27.0284 46.9009 27.5341C46.6538 28.0398 46.3072 28.4332 45.8612 28.7145C45.418 28.9957 44.9009 29.1364 44.31 29.1364ZM44.31 28.233C44.7589 28.233 45.1282 28.1179 45.418 27.8878C45.7077 27.6577 45.9222 27.3551 46.0614 26.9801C46.2006 26.6051 46.2702 26.1989 46.2702 25.7614C46.2702 25.3239 46.2006 24.9162 46.0614 24.5384C45.9222 24.1605 45.7077 23.8551 45.418 23.6222C45.1282 23.3892 44.7589 23.2727 44.31 23.2727C43.8612 23.2727 43.4918 23.3892 43.2021 23.6222C42.9123 23.8551 42.6978 24.1605 42.5586 24.5384C42.4194 24.9162 42.3498 25.3239 42.3498 25.7614C42.3498 26.1989 42.4194 26.6051 42.5586 26.9801C42.6978 27.3551 42.9123 27.6577 43.2021 27.8878C43.4918 28.1179 43.8612 28.233 44.31 28.233ZM48.8111 29V22.4545H49.7827V23.4773H49.8679C50.0043 23.1278 50.2244 22.8565 50.5284 22.6634C50.8324 22.4673 51.1974 22.3693 51.6236 22.3693C52.0554 22.3693 52.4148 22.4673 52.7017 22.6634C52.9915 22.8565 53.2173 23.1278 53.3793 23.4773H53.4474C53.6151 23.1392 53.8665 22.8707 54.2017 22.6719C54.5369 22.4702 54.9389 22.3693 55.4077 22.3693C55.9929 22.3693 56.4716 22.5526 56.8438 22.919C57.2159 23.2827 57.402 23.8494 57.402 24.6193V29H56.3963V24.6193C56.3963 24.1364 56.2642 23.7912 56 23.5838C55.7358 23.3764 55.4247 23.2727 55.0668 23.2727C54.6065 23.2727 54.25 23.4119 53.9972 23.6903C53.7443 23.9659 53.6179 24.3153 53.6179 24.7386V29H52.5952V24.517C52.5952 24.1449 52.4744 23.8452 52.233 23.6179C51.9915 23.3878 51.6804 23.2727 51.2997 23.2727C51.0384 23.2727 50.794 23.3423 50.5668 23.4815C50.3423 23.6207 50.1605 23.8139 50.0213 24.0611C49.8849 24.3054 49.8168 24.5881 49.8168 24.9091V29H48.8111ZM59.2408 31.4545V22.4545H60.2124V23.4943H60.3317C60.4055 23.3807 60.5078 23.2358 60.6385 23.0597C60.772 22.8807 60.9624 22.7216 61.2095 22.5824C61.4595 22.4403 61.7976 22.3693 62.2237 22.3693C62.7749 22.3693 63.2607 22.5071 63.6811 22.7827C64.1016 23.0582 64.4297 23.4489 64.6655 23.9545C64.9013 24.4602 65.0192 25.0568 65.0192 25.7443C65.0192 26.4375 64.9013 27.0384 64.6655 27.5469C64.4297 28.0526 64.103 28.4446 63.6854 28.723C63.2678 28.9986 62.7862 29.1364 62.2408 29.1364C61.8203 29.1364 61.4837 29.0668 61.2308 28.9276C60.978 28.7855 60.7834 28.625 60.647 28.446C60.5107 28.2642 60.4055 28.1136 60.3317 27.9943H60.2464V31.4545H59.2408ZM60.2294 25.7273C60.2294 26.2216 60.3018 26.6577 60.4467 27.0355C60.5916 27.4105 60.8033 27.7045 61.0817 27.9176C61.3601 28.1278 61.701 28.233 62.1044 28.233C62.5249 28.233 62.8757 28.1222 63.157 27.9006C63.4411 27.6761 63.6541 27.375 63.7962 26.9972C63.9411 26.6165 64.0135 26.1932 64.0135 25.7273C64.0135 25.267 63.9425 24.8523 63.8004 24.483C63.6612 24.1108 63.4496 23.8168 63.1655 23.6009C62.8842 23.3821 62.5305 23.2727 62.1044 23.2727C61.6953 23.2727 61.3516 23.3764 61.0732 23.5838C60.7947 23.7884 60.5845 24.0753 60.4425 24.4446C60.3004 24.8111 60.2294 25.2386 60.2294 25.7273ZM69.2124 29.1364C68.6214 29.1364 68.103 28.9957 67.657 28.7145C67.2138 28.4332 66.8672 28.0398 66.6172 27.5341C66.37 27.0284 66.2464 26.4375 66.2464 25.7614C66.2464 25.0795 66.37 24.4844 66.6172 23.9759C66.8672 23.4673 67.2138 23.0724 67.657 22.7912C68.103 22.5099 68.6214 22.3693 69.2124 22.3693C69.8033 22.3693 70.3203 22.5099 70.7635 22.7912C71.2095 23.0724 71.5561 23.4673 71.8033 23.9759C72.0533 24.4844 72.1783 25.0795 72.1783 25.7614C72.1783 26.4375 72.0533 27.0284 71.8033 27.5341C71.5561 28.0398 71.2095 28.4332 70.7635 28.7145C70.3203 28.9957 69.8033 29.1364 69.2124 29.1364ZM69.2124 28.233C69.6612 28.233 70.0305 28.1179 70.3203 27.8878C70.6101 27.6577 70.8246 27.3551 70.9638 26.9801C71.103 26.6051 71.1726 26.1989 71.1726 25.7614C71.1726 25.3239 71.103 24.9162 70.9638 24.5384C70.8246 24.1605 70.6101 23.8551 70.3203 23.6222C70.0305 23.3892 69.6612 23.2727 69.2124 23.2727C68.7635 23.2727 68.3942 23.3892 68.1044 23.6222C67.8146 23.8551 67.6001 24.1605 67.4609 24.5384C67.3217 24.9162 67.2521 25.3239 67.2521 25.7614C67.2521 26.1989 67.3217 26.6051 67.4609 26.9801C67.6001 27.3551 67.8146 27.6577 68.1044 27.8878C68.3942 28.1179 68.7635 28.233 69.2124 28.233ZM78.3498 23.9205L77.4464 24.1761C77.3896 24.0256 77.3058 23.8793 77.195 23.7372C77.087 23.5923 76.9393 23.473 76.7518 23.3793C76.5643 23.2855 76.3242 23.2386 76.0316 23.2386C75.631 23.2386 75.2972 23.331 75.0302 23.5156C74.766 23.6974 74.6339 23.929 74.6339 24.2102C74.6339 24.4602 74.7248 24.6577 74.9066 24.8026C75.0884 24.9474 75.3725 25.0682 75.7589 25.1648L76.7305 25.4034C77.3157 25.5455 77.7518 25.7628 78.0387 26.0554C78.3256 26.3452 78.4691 26.7187 78.4691 27.1761C78.4691 27.5511 78.3612 27.8864 78.1452 28.1818C77.9322 28.4773 77.6339 28.7102 77.2504 28.8807C76.8668 29.0511 76.4208 29.1364 75.9123 29.1364C75.2447 29.1364 74.6921 28.9915 74.2546 28.7017C73.8171 28.4119 73.5401 27.9886 73.4237 27.4318L74.3782 27.1932C74.4691 27.5455 74.641 27.8097 74.8938 27.9858C75.1495 28.1619 75.4833 28.25 75.8952 28.25C76.364 28.25 76.7362 28.1506 77.0117 27.9517C77.2901 27.75 77.4293 27.5085 77.4293 27.2273C77.4293 27 77.3498 26.8097 77.1907 26.6562C77.0316 26.5 76.7873 26.3835 76.4577 26.3068L75.3668 26.0511C74.7674 25.9091 74.3271 25.6889 74.0458 25.3906C73.7674 25.0895 73.6282 24.7131 73.6282 24.2614C73.6282 23.892 73.7319 23.5653 73.9393 23.2812C74.1495 22.9972 74.435 22.7741 74.7958 22.6122C75.1594 22.4503 75.5714 22.3693 76.0316 22.3693C76.6793 22.3693 77.1879 22.5114 77.5572 22.7955C77.9293 23.0795 78.1935 23.4545 78.3498 23.9205ZM82.7273 29.1364C82.0966 29.1364 81.5526 28.9972 81.0952 28.7188C80.6406 28.4375 80.2898 28.0455 80.0426 27.5426C79.7983 27.0369 79.6761 26.4489 79.6761 25.7784C79.6761 25.108 79.7983 24.517 80.0426 24.0057C80.2898 23.4915 80.6335 23.0909 81.0739 22.804C81.517 22.5142 82.0341 22.3693 82.625 22.3693C82.9659 22.3693 83.3026 22.4261 83.6349 22.5398C83.9673 22.6534 84.2699 22.8381 84.5426 23.0938C84.8153 23.3466 85.0327 23.6818 85.1946 24.0994C85.3565 24.517 85.4375 25.0312 85.4375 25.642V26.0682H80.392V25.1989H84.4148C84.4148 24.8295 84.3409 24.5 84.1932 24.2102C84.0483 23.9205 83.8409 23.6918 83.571 23.5241C83.304 23.3565 82.9886 23.2727 82.625 23.2727C82.2244 23.2727 81.8778 23.3722 81.5852 23.571C81.2955 23.767 81.0724 24.0227 80.9162 24.3381C80.7599 24.6534 80.6818 24.9915 80.6818 25.3523V25.9318C80.6818 26.4261 80.767 26.8452 80.9375 27.1889C81.1108 27.5298 81.3509 27.7898 81.6577 27.9688C81.9645 28.1449 82.321 28.233 82.7273 28.233C82.9915 28.233 83.2301 28.196 83.4432 28.1222C83.6591 28.0455 83.8452 27.9318 84.0014 27.7812C84.1577 27.6278 84.2784 27.4375 84.3636 27.2102L85.3352 27.483C85.233 27.8125 85.0611 28.1023 84.8196 28.3523C84.5781 28.5994 84.2798 28.7926 83.9247 28.9318C83.5696 29.0682 83.1705 29.1364 82.7273 29.1364Z" fill="white"/>
<mask id="path-6-outside-1_81_442" maskUnits="userSpaceOnUse" x="7" y="16" width="17" height="17" fill="black">
<rect fill="white" x="7" y="16" width="17" height="17"/>
<path d="M17.5858 19.4142L10.3917 26.6083C10.1971 26.8029 10.0997 26.9003 10.0328 27.0186C9.96579 27.1368 9.93241 27.2704 9.86564 27.5374L9.20211 30.1915C9.11186 30.5526 9.06673 30.7331 9.16682 30.8332C9.2669 30.9333 9.44742 30.8881 9.80844 30.7979L9.80845 30.7979L12.4626 30.1344C12.7296 30.0676 12.8632 30.0342 12.9814 29.9672C13.0997 29.9003 13.1971 29.8029 13.3917 29.6083L20.5858 22.4142L20.5858 22.4142C21.2525 21.7475 21.5858 21.4142 21.5858 21C21.5858 20.5858 21.2525 20.2525 20.5858 19.5858L20.4142 19.4142C19.7475 18.7475 19.4142 18.4142 19 18.4142C18.5858 18.4142 18.2525 18.7475 17.5858 19.4142Z"/>
</mask>
<path d="M10.3917 26.6083L11.8059 28.0225L11.8059 28.0225L10.3917 26.6083ZM17.5858 19.4142L16.1716 18L16.1716 18L17.5858 19.4142ZM20.4142 19.4142L19 20.8284L19 20.8284L20.4142 19.4142ZM20.5858 19.5858L22 18.1716L22 18.1716L20.5858 19.5858ZM20.5858 22.4142L22 23.8284L22 23.8284L20.5858 22.4142ZM13.3917 29.6083L11.9775 28.1941L11.9775 28.1941L13.3917 29.6083ZM9.86564 27.5374L11.8059 28.0225L11.8059 28.0225L9.86564 27.5374ZM9.20211 30.1915L7.26183 29.7065L7.26183 29.7065L9.20211 30.1915ZM9.80845 30.7979L9.32338 28.8576L9.23624 28.8794L9.15141 28.9089L9.80845 30.7979ZM12.4626 30.1344L11.9775 28.1941L11.9775 28.1941L12.4626 30.1344ZM9.16682 30.8332L10.581 29.419L10.581 29.419L9.16682 30.8332ZM9.80844 30.7979L10.2935 32.7382L10.3806 32.7164L10.4655 32.6869L9.80844 30.7979ZM12.9814 29.9672L11.9961 28.2268L11.996 28.2268L12.9814 29.9672ZM20.5858 22.4142L22 23.8284L22 23.8284L20.5858 22.4142ZM10.0328 27.0186L8.29236 26.0332L8.29236 26.0332L10.0328 27.0186ZM11.8059 28.0225L19 20.8284L16.1716 18L8.9775 25.1941L11.8059 28.0225ZM19 20.8284L19.1716 21L22 18.1716L21.8284 18L19 20.8284ZM19.1716 21L11.9775 28.1941L14.8059 31.0225L22 23.8284L19.1716 21ZM7.92536 27.0524L7.26183 29.7065L11.1424 30.6766L11.8059 28.0225L7.92536 27.0524ZM10.2935 32.7382L12.9476 32.0746L11.9775 28.1941L9.32338 28.8576L10.2935 32.7382ZM7.26183 29.7065C7.233 29.8218 7.15055 30.1296 7.12259 30.4155C7.0922 30.7261 7.06509 31.5599 7.7526 32.2474L10.581 29.419C10.8467 29.6847 10.9991 30.0005 11.0664 30.2928C11.1251 30.5478 11.1097 30.7429 11.1036 30.8049C11.097 30.8724 11.0879 30.904 11.097 30.8631C11.1054 30.8253 11.1179 30.7747 11.1424 30.6766L7.26183 29.7065ZM9.15141 28.9089L9.1514 28.9089L10.4655 32.6869L10.4655 32.6869L9.15141 28.9089ZM9.32338 28.8576C9.22531 28.8821 9.17467 28.8946 9.13694 28.903C9.09595 28.9121 9.12762 28.903 9.19506 28.8964C9.25712 28.8903 9.45223 28.8749 9.70717 28.9336C9.99955 29.0009 10.3154 29.1533 10.581 29.419L7.7526 32.2474C8.44011 32.9349 9.27387 32.9078 9.58449 32.8774C9.87039 32.8494 10.1782 32.767 10.2935 32.7382L9.32338 28.8576ZM11.9775 28.1941C11.9528 28.2188 11.9317 28.2399 11.9121 28.2593C11.8927 28.2787 11.8767 28.2945 11.8629 28.308C11.8492 28.3215 11.8391 28.3312 11.8317 28.3382C11.8281 28.3416 11.8255 28.3441 11.8236 28.3458C11.8218 28.3475 11.8209 28.3483 11.8209 28.3482C11.8209 28.3482 11.822 28.3473 11.8239 28.3456C11.8259 28.3439 11.8289 28.3413 11.8329 28.338C11.8409 28.3314 11.8529 28.3216 11.8687 28.3098C11.8845 28.2979 11.9036 28.2843 11.9256 28.2699C11.9478 28.2553 11.9713 28.2408 11.9961 28.2268L13.9668 31.7076C14.376 31.476 14.6864 31.1421 14.8059 31.0225L11.9775 28.1941ZM12.9476 32.0746C13.1117 32.0336 13.5577 31.9393 13.9669 31.7076L11.996 28.2268C12.0208 28.2128 12.0453 28.2001 12.0692 28.1886C12.0929 28.1772 12.1144 28.1678 12.1328 28.1603C12.151 28.1529 12.1655 28.1475 12.1753 28.1441C12.1802 28.1424 12.1839 28.1412 12.1864 28.1404C12.1889 28.1395 12.1902 28.1391 12.1903 28.1391C12.1903 28.1391 12.1892 28.1395 12.1868 28.1402C12.1843 28.1409 12.1808 28.1419 12.1761 28.1432C12.1663 28.1459 12.1528 28.1496 12.1341 28.1544C12.1155 28.1593 12.0937 28.1649 12.0671 28.1716C12.0403 28.1784 12.0114 28.1856 11.9775 28.1941L12.9476 32.0746ZM19.1716 21C19.3435 21.1719 19.4698 21.2984 19.5738 21.4078C19.6786 21.518 19.7263 21.5752 19.7457 21.6007C19.7644 21.6252 19.7226 21.5764 19.6774 21.4678C19.6254 21.3433 19.5858 21.181 19.5858 21H23.5858C23.5858 20.1798 23.2282 19.5707 22.9258 19.1744C22.6586 18.8242 22.2934 18.4649 22 18.1716L19.1716 21ZM22 23.8284L22 23.8284L19.1716 21L19.1716 21L22 23.8284ZM22 23.8284C22.2934 23.5351 22.6586 23.1758 22.9258 22.8256C23.2282 22.4292 23.5858 21.8202 23.5858 21H19.5858C19.5858 20.819 19.6254 20.6567 19.6774 20.5322C19.7226 20.4236 19.7644 20.3748 19.7457 20.3993C19.7263 20.4248 19.6786 20.482 19.5738 20.5922C19.4698 20.7016 19.3435 20.8281 19.1716 21L22 23.8284ZM19 20.8284C19.1719 20.6565 19.2984 20.5302 19.4078 20.4262C19.518 20.3214 19.5752 20.2737 19.6007 20.2543C19.6252 20.2356 19.5764 20.2774 19.4678 20.3226C19.3433 20.3746 19.181 20.4142 19 20.4142V16.4142C18.1798 16.4142 17.5707 16.7718 17.1744 17.0742C16.8242 17.3414 16.4649 17.7066 16.1716 18L19 20.8284ZM21.8284 18C21.5351 17.7066 21.1758 17.3414 20.8256 17.0742C20.4293 16.7718 19.8202 16.4142 19 16.4142V20.4142C18.819 20.4142 18.6567 20.3746 18.5322 20.3226C18.4236 20.2774 18.3748 20.2356 18.3993 20.2543C18.4248 20.2737 18.482 20.3214 18.5922 20.4262C18.7016 20.5302 18.8281 20.6565 19 20.8284L21.8284 18ZM8.9775 25.1941C8.85793 25.3136 8.52401 25.624 8.29236 26.0332L11.7732 28.0039C11.7592 28.0287 11.7447 28.0522 11.7301 28.0744C11.7157 28.0964 11.7021 28.1155 11.6902 28.1313C11.6784 28.1471 11.6686 28.1591 11.662 28.1671C11.6587 28.1711 11.6561 28.1741 11.6544 28.1761C11.6527 28.178 11.6518 28.1791 11.6518 28.1791C11.6517 28.1791 11.6525 28.1782 11.6542 28.1764C11.6559 28.1745 11.6584 28.1719 11.6618 28.1683C11.6688 28.1609 11.6785 28.1508 11.692 28.1371C11.7055 28.1233 11.7213 28.1073 11.7407 28.0879C11.7601 28.0683 11.7812 28.0472 11.8059 28.0225L8.9775 25.1941ZM11.8059 28.0225C11.8144 27.9886 11.8216 27.9597 11.8284 27.9329C11.8351 27.9063 11.8407 27.8845 11.8456 27.8659C11.8504 27.8472 11.8541 27.8337 11.8568 27.8239C11.8581 27.8192 11.8591 27.8157 11.8598 27.8132C11.8605 27.8108 11.8609 27.8097 11.8609 27.8097C11.8609 27.8098 11.8605 27.8111 11.8596 27.8136C11.8588 27.8161 11.8576 27.8198 11.8559 27.8247C11.8525 27.8345 11.8471 27.849 11.8397 27.8672C11.8322 27.8856 11.8228 27.9071 11.8114 27.9308C11.7999 27.9547 11.7872 27.9792 11.7732 28.0039L8.29236 26.0332C8.06071 26.4423 7.96637 26.8883 7.92536 27.0524L11.8059 28.0225Z" fill="#33363F" mask="url(#path-6-outside-1_81_442)"/>
<path d="M16.5 19.5L19.5 17.5L22.5 20.5L20.5 23.5L16.5 19.5Z" fill="#33363F"/>
<path fill-rule="evenodd" clip-rule="evenodd" d="M6.22548 88.608C6.2251 88.8059 6.2251 89.0114 6.2251 89.2251V90.5751C6.2251 93.4035 6.2251 94.8177 7.10378 95.6964C7.98246 96.5751 9.39667 96.5751 12.2251 96.5751H13.5751C16.4035 96.5751 17.8177 96.5751 18.6964 95.6964C19.5751 94.8177 19.5751 93.4035 19.5751 90.5751V89.2251C19.5751 89.0114 19.5751 88.8058 19.5747 88.6079C19.5741 88.6997 19.5723 88.7623 19.5673 88.8182C19.4818 89.7834 18.7167 90.5485 17.7516 90.634C17.6635 90.6418 17.559 90.6418 17.3501 90.6418H16.8491C16.5988 90.6418 16.4737 90.6418 16.3628 90.6673C16.1009 90.7278 15.8743 90.891 15.7342 91.1204C15.6748 91.2175 15.6353 91.3363 15.5561 91.5737L15.4959 91.7543C15.3588 92.1655 15.2903 92.3711 15.1605 92.5211C15.0584 92.6391 14.9302 92.7315 14.786 92.7911C14.6027 92.8668 14.3859 92.8668 13.9524 92.8668H11.8478C11.4143 92.8668 11.1975 92.8668 11.0142 92.7911C10.87 92.7315 10.7417 92.6391 10.6397 92.5211C10.5099 92.3711 10.4413 92.1655 10.3043 91.7543L10.3043 91.7543L10.2441 91.5737C10.1649 91.3363 10.1254 91.2175 10.066 91.1204C9.92588 90.891 9.69932 90.7278 9.43742 90.6673C9.3265 90.6418 9.20135 90.6418 8.95105 90.6418H8.4501C8.24115 90.6418 8.13668 90.6418 8.04861 90.634C7.08345 90.5485 6.3184 89.7834 6.2329 88.8182C6.22794 88.7623 6.22614 88.6997 6.22548 88.608Z" fill="#222222"/>
<path d="M6.2251 87.225C6.2251 85.3394 6.2251 84.3966 6.81088 83.8108C7.39667 83.225 8.33948 83.225 10.2251 83.225H15.5751C17.4607 83.225 18.4035 83.225 18.9893 83.8108C19.5751 84.3966 19.5751 85.3394 19.5751 87.225V92.575C19.5751 94.4606 19.5751 95.4034 18.9893 95.9892C18.4035 96.575 17.4607 96.575 15.5751 96.575H10.2251C8.33948 96.575 7.39667 96.575 6.81088 95.9892C6.2251 95.4034 6.2251 94.4606 6.2251 92.575V87.225Z" stroke="#222222" stroke-width="2"/>
<path d="M140.504 84.2727V93H138.659V86.0241H138.608L136.609 87.277V85.6406L138.77 84.2727H140.504ZM144.1 91.8068L144.053 92.2756C144.016 92.6506 143.945 93.0241 143.84 93.3963C143.738 93.7713 143.63 94.1108 143.516 94.4148C143.405 94.7188 143.316 94.9574 143.248 95.1307H142.071C142.114 94.9631 142.172 94.7287 142.246 94.4276C142.32 94.1293 142.39 93.794 142.455 93.4219C142.52 93.0497 142.561 92.6705 142.578 92.2841L142.6 91.8068H144.1ZM148.687 93.1193C148.051 93.1193 147.484 93.0099 146.987 92.7912C146.493 92.5696 146.102 92.2656 145.815 91.8793C145.531 91.4901 145.385 91.0412 145.376 90.5327H147.234C147.245 90.7457 147.315 90.9332 147.443 91.0952C147.574 91.2543 147.747 91.3778 147.963 91.4659C148.179 91.554 148.422 91.598 148.691 91.598C148.973 91.598 149.221 91.5483 149.437 91.4489C149.653 91.3494 149.822 91.2116 149.944 91.0355C150.066 90.8594 150.127 90.6562 150.127 90.4261C150.127 90.1932 150.062 89.9872 149.931 89.8082C149.804 89.6264 149.619 89.4844 149.377 89.3821C149.139 89.2798 148.855 89.2287 148.525 89.2287H147.711V87.8736H148.525C148.804 87.8736 149.049 87.8253 149.262 87.7287C149.478 87.6321 149.646 87.4986 149.765 87.3281C149.885 87.1548 149.944 86.9531 149.944 86.723C149.944 86.5043 149.892 86.3125 149.787 86.1477C149.684 85.9801 149.539 85.8494 149.352 85.7557C149.167 85.6619 148.951 85.6151 148.704 85.6151C148.454 85.6151 148.225 85.6605 148.018 85.7514C147.811 85.8395 147.645 85.9659 147.52 86.1307C147.395 86.2955 147.328 86.4886 147.319 86.7102H145.551C145.559 86.2074 145.703 85.7642 145.981 85.3807C146.26 84.9972 146.635 84.6974 147.106 84.4815C147.581 84.2628 148.116 84.1534 148.713 84.1534C149.315 84.1534 149.842 84.2628 150.294 84.4815C150.745 84.7003 151.096 84.9957 151.346 85.3679C151.599 85.7372 151.724 86.152 151.721 86.6122C151.724 87.1009 151.572 87.5085 151.265 87.8352C150.961 88.1619 150.565 88.3693 150.076 88.4574V88.5256C150.718 88.608 151.207 88.831 151.542 89.1946C151.88 89.5554 152.048 90.0071 152.045 90.5497C152.048 91.0469 151.904 91.4886 151.615 91.875C151.328 92.2614 150.931 92.5653 150.426 92.7869C149.92 93.0085 149.341 93.1193 148.687 93.1193ZM156.793 93.1918C156.06 93.1889 155.43 93.0085 154.901 92.6506C154.376 92.2926 153.971 91.7741 153.687 91.0952C153.406 90.4162 153.266 89.5994 153.269 88.6449C153.269 87.6932 153.41 86.8821 153.691 86.2116C153.975 85.5412 154.38 85.0312 154.906 84.6818C155.434 84.3295 156.063 84.1534 156.793 84.1534C157.523 84.1534 158.151 84.3295 158.677 84.6818C159.205 85.0341 159.612 85.5455 159.896 86.2159C160.18 86.8835 160.32 87.6932 160.317 88.6449C160.317 89.6023 160.175 90.4205 159.891 91.0994C159.61 91.7784 159.207 92.2969 158.681 92.6548C158.156 93.0128 157.526 93.1918 156.793 93.1918ZM156.793 91.6619C157.293 91.6619 157.692 91.4105 157.991 90.9077C158.289 90.4048 158.437 89.6506 158.434 88.6449C158.434 87.983 158.366 87.4318 158.229 86.9915C158.096 86.5511 157.906 86.2202 157.658 85.9986C157.414 85.777 157.126 85.6662 156.793 85.6662C156.296 85.6662 155.898 85.9148 155.6 86.4119C155.302 86.9091 155.151 87.6534 155.148 88.6449C155.148 89.3153 155.215 89.875 155.349 90.3239C155.485 90.7699 155.677 91.1051 155.924 91.3295C156.171 91.5511 156.461 91.6619 156.793 91.6619ZM165.055 93.1918C164.322 93.1889 163.691 93.0085 163.163 92.6506C162.637 92.2926 162.233 91.7741 161.949 91.0952C161.667 90.4162 161.528 89.5994 161.531 88.6449C161.531 87.6932 161.672 86.8821 161.953 86.2116C162.237 85.5412 162.642 85.0312 163.167 84.6818C163.696 84.3295 164.325 84.1534 165.055 84.1534C165.785 84.1534 166.413 84.3295 166.939 84.6818C167.467 85.0341 167.873 85.5455 168.157 86.2159C168.441 86.8835 168.582 87.6932 168.579 88.6449C168.579 89.6023 168.437 90.4205 168.153 91.0994C167.872 91.7784 167.468 92.2969 166.943 92.6548C166.417 93.0128 165.788 93.1918 165.055 93.1918ZM165.055 91.6619C165.555 91.6619 165.954 91.4105 166.252 90.9077C166.551 90.4048 166.699 89.6506 166.696 88.6449C166.696 87.983 166.627 87.4318 166.491 86.9915C166.358 86.5511 166.167 86.2202 165.92 85.9986C165.676 85.777 165.387 85.6662 165.055 85.6662C164.558 85.6662 164.16 85.9148 163.862 86.4119C163.564 86.9091 163.413 87.6534 163.41 88.6449C163.41 89.3153 163.477 89.875 163.61 90.3239C163.747 90.7699 163.939 91.1051 164.186 91.3295C164.433 91.5511 164.723 91.6619 165.055 91.6619Z" fill="white"/>
<path d="M54.6037 84.2727V93H52.7585V84.2727H54.6037ZM57.9031 89.2159V93H56.0877V86.4545H57.8178V87.6094H57.8945C58.0394 87.2287 58.2823 86.9276 58.6232 86.706C58.9641 86.4815 59.3775 86.3693 59.8633 86.3693C60.3178 86.3693 60.7141 86.4688 61.0522 86.6676C61.3903 86.8665 61.6531 87.1506 61.8406 87.5199C62.0281 87.8864 62.1218 88.3239 62.1218 88.8324V93H60.3065V89.1562C60.3093 88.7557 60.207 88.4432 59.9996 88.2188C59.7923 87.9915 59.5067 87.8778 59.1431 87.8778C58.8988 87.8778 58.6829 87.9304 58.4954 88.0355C58.3107 88.1406 58.1658 88.294 58.0607 88.4957C57.9585 88.6946 57.9059 88.9347 57.9031 89.2159ZM63.5866 93V84.2727H65.402V87.554H65.4574C65.5369 87.3778 65.652 87.1989 65.8026 87.017C65.956 86.8324 66.1548 86.679 66.3991 86.5568C66.6463 86.4318 66.9531 86.3693 67.3196 86.3693C67.7969 86.3693 68.2372 86.4943 68.6406 86.7443C69.044 86.9915 69.3665 87.3651 69.608 87.8651C69.8494 88.3622 69.9702 88.9858 69.9702 89.7358C69.9702 90.4659 69.8523 91.0824 69.6165 91.5852C69.3835 92.0852 69.0653 92.4645 68.6619 92.723C68.2614 92.9787 67.8125 93.1065 67.3153 93.1065C66.9631 93.1065 66.6634 93.0483 66.4162 92.9318C66.1719 92.8153 65.9716 92.669 65.8153 92.4929C65.6591 92.3139 65.5398 92.1335 65.4574 91.9517H65.3764V93H63.5866ZM65.3636 89.7273C65.3636 90.1165 65.4176 90.456 65.5256 90.7457C65.6335 91.0355 65.7898 91.2614 65.9943 91.4233C66.1989 91.5824 66.4474 91.6619 66.7401 91.6619C67.0355 91.6619 67.2855 91.581 67.4901 91.419C67.6946 91.2543 67.8494 91.027 67.9545 90.7372C68.0625 90.4446 68.1165 90.108 68.1165 89.7273C68.1165 89.3494 68.0639 89.017 67.9588 88.7301C67.8537 88.4432 67.6989 88.2187 67.4943 88.0568C67.2898 87.8949 67.0384 87.8139 66.7401 87.8139C66.4446 87.8139 66.1946 87.892 65.9901 88.0483C65.7884 88.2045 65.6335 88.4261 65.5256 88.7131C65.4176 89 65.3636 89.3381 65.3636 89.7273ZM74.1388 93.1278C73.4769 93.1278 72.9045 92.9872 72.4215 92.706C71.9414 92.4219 71.5707 92.027 71.3093 91.5213C71.0479 91.0128 70.9173 90.4233 70.9173 89.7528C70.9173 89.0767 71.0479 88.4858 71.3093 87.9801C71.5707 87.4716 71.9414 87.0767 72.4215 86.7955C72.9045 86.5114 73.4769 86.3693 74.1388 86.3693C74.8008 86.3693 75.3718 86.5114 75.8519 86.7955C76.3349 87.0767 76.707 87.4716 76.9684 87.9801C77.2298 88.4858 77.3604 89.0767 77.3604 89.7528C77.3604 90.4233 77.2298 91.0128 76.9684 91.5213C76.707 92.027 76.3349 92.4219 75.8519 92.706C75.3718 92.9872 74.8008 93.1278 74.1388 93.1278ZM74.1474 91.7216C74.4485 91.7216 74.6999 91.6364 74.9016 91.4659C75.1033 91.2926 75.2553 91.0568 75.3576 90.7585C75.4627 90.4602 75.5153 90.1207 75.5153 89.7401C75.5153 89.3594 75.4627 89.0199 75.3576 88.7216C75.2553 88.4233 75.1033 88.1875 74.9016 88.0142C74.6999 87.8409 74.4485 87.7543 74.1474 87.7543C73.8434 87.7543 73.5877 87.8409 73.3803 88.0142C73.1758 88.1875 73.021 88.4233 72.9158 88.7216C72.8136 89.0199 72.7624 89.3594 72.7624 89.7401C72.7624 90.1207 72.8136 90.4602 72.9158 90.7585C73.021 91.0568 73.1758 91.2926 73.3803 91.4659C73.5877 91.6364 73.8434 91.7216 74.1474 91.7216ZM79.8235 86.4545L81.0252 88.7429L82.2567 86.4545H84.119L82.2227 89.7273L84.1701 93H82.3164L81.0252 90.7372L79.7553 93H77.8803L79.8235 89.7273L77.9485 86.4545H79.8235Z" fill="white"/>
<path d="M11.5233 117.915C12.1067 116.461 12.3984 115.734 12.9 115.734C13.4016 115.734 13.6933 116.461 14.2767 117.915L14.3039 117.983C14.6335 118.805 14.7982 119.216 15.1341 119.465C15.47 119.715 15.9109 119.755 16.7926 119.834L16.9521 119.848C18.3952 119.977 19.1168 120.042 19.2712 120.501C19.4256 120.96 18.8897 121.447 17.818 122.422L17.4603 122.748C16.9177 123.241 16.6465 123.488 16.52 123.812C16.4965 123.872 16.4768 123.934 16.4613 123.997C16.3782 124.334 16.4577 124.692 16.6165 125.408L16.666 125.631C16.958 126.947 17.104 127.605 16.8491 127.889C16.7538 127.995 16.63 128.071 16.4925 128.109C16.1245 128.209 15.602 127.783 14.557 126.932C13.8709 126.373 13.5278 126.093 13.1339 126.03C12.9789 126.006 12.821 126.006 12.6661 126.03C12.2722 126.093 11.9291 126.373 11.243 126.932C10.198 127.783 9.6755 128.209 9.30748 128.109C9.16996 128.071 9.04617 127.995 8.95092 127.889C8.69603 127.605 8.84202 126.947 9.13399 125.631L9.18344 125.408C9.34231 124.692 9.42175 124.334 9.33864 123.997C9.32314 123.934 9.30353 123.872 9.27995 123.812C9.15351 123.488 8.88225 123.241 8.33971 122.748L7.98202 122.422C6.91028 121.447 6.37441 120.96 6.52881 120.501C6.68321 120.042 7.40478 119.977 8.84792 119.848L9.00734 119.834C9.88912 119.755 10.33 119.715 10.6659 119.465C11.0017 119.216 11.1665 118.805 11.4961 117.983L11.5233 117.915Z" stroke="#33363F" stroke-width="2"/>
<path d="M57.8295 121.455C57.7784 121.023 57.571 120.688 57.2074 120.449C56.8438 120.21 56.3977 120.091 55.8693 120.091C55.483 120.091 55.1449 120.153 54.8551 120.278C54.5682 120.403 54.3438 120.575 54.1818 120.794C54.0227 121.013 53.9432 121.261 53.9432 121.54C53.9432 121.773 53.9986 121.973 54.1094 122.141C54.223 122.305 54.3679 122.443 54.544 122.554C54.7202 122.662 54.9048 122.751 55.098 122.822C55.2912 122.891 55.4688 122.946 55.6307 122.989L56.517 123.227C56.7443 123.287 56.9972 123.369 57.2756 123.474C57.5568 123.58 57.8253 123.723 58.081 123.905C58.3395 124.084 58.5526 124.314 58.7202 124.595C58.8878 124.876 58.9716 125.222 58.9716 125.631C58.9716 126.102 58.848 126.528 58.6009 126.909C58.3565 127.29 57.9986 127.592 57.527 127.817C57.0582 128.041 56.4886 128.153 55.8182 128.153C55.1932 128.153 54.652 128.053 54.1946 127.851C53.7401 127.649 53.3821 127.368 53.1207 127.007C52.8622 126.646 52.7159 126.227 52.6818 125.75H53.7727C53.8011 126.08 53.9119 126.352 54.1051 126.568C54.3011 126.781 54.5483 126.94 54.8466 127.045C55.1477 127.148 55.4716 127.199 55.8182 127.199C56.2216 127.199 56.5838 127.134 56.9048 127.003C57.2259 126.869 57.4801 126.685 57.6676 126.449C57.8551 126.21 57.9489 125.932 57.9489 125.614C57.9489 125.324 57.8679 125.088 57.706 124.906C57.544 124.724 57.331 124.577 57.0668 124.463C56.8026 124.349 56.517 124.25 56.2102 124.165L55.1364 123.858C54.4545 123.662 53.9148 123.382 53.517 123.018C53.1193 122.655 52.9205 122.179 52.9205 121.591C52.9205 121.102 53.0526 120.676 53.3168 120.312C53.5838 119.946 53.9418 119.662 54.3906 119.46C54.8423 119.256 55.3466 119.153 55.9034 119.153C56.4659 119.153 56.9659 119.254 57.4034 119.456C57.8409 119.655 58.1875 119.928 58.4432 120.274C58.7017 120.621 58.8381 121.014 58.8523 121.455H57.8295ZM63.4194 121.455V122.307H60.0273V121.455H63.4194ZM61.016 119.886H62.0217V126.125C62.0217 126.409 62.0629 126.622 62.1452 126.764C62.2305 126.903 62.3384 126.997 62.4691 127.045C62.6026 127.091 62.7433 127.114 62.891 127.114C63.0018 127.114 63.0927 127.108 63.1637 127.097C63.2347 127.082 63.2915 127.071 63.3342 127.062L63.5387 127.966C63.4705 127.991 63.3754 128.017 63.2532 128.043C63.131 128.071 62.9762 128.085 62.7887 128.085C62.5046 128.085 62.2262 128.024 61.9535 127.902C61.6836 127.78 61.4592 127.594 61.2802 127.344C61.104 127.094 61.016 126.778 61.016 126.398V119.886ZM66.8583 128.153C66.4435 128.153 66.0671 128.075 65.729 127.919C65.391 127.76 65.1225 127.531 64.9237 127.233C64.7248 126.932 64.6254 126.568 64.6254 126.142C64.6254 125.767 64.6992 125.463 64.8469 125.23C64.9947 124.994 65.1921 124.81 65.4393 124.676C65.6864 124.543 65.9592 124.443 66.2575 124.378C66.5586 124.31 66.8612 124.256 67.1651 124.216C67.5629 124.165 67.8853 124.126 68.1325 124.101C68.3825 124.072 68.5643 124.026 68.6779 123.96C68.7944 123.895 68.8526 123.781 68.8526 123.619V123.585C68.8526 123.165 68.7376 122.838 68.5075 122.605C68.2802 122.372 67.935 122.256 67.4719 122.256C66.9918 122.256 66.6154 122.361 66.3427 122.571C66.07 122.781 65.8782 123.006 65.7674 123.244L64.8129 122.903C64.9833 122.506 65.2106 122.196 65.4947 121.974C65.7816 121.75 66.0941 121.594 66.4322 121.506C66.7731 121.415 67.1083 121.369 67.4379 121.369C67.6481 121.369 67.8896 121.395 68.1623 121.446C68.4379 121.494 68.7035 121.595 68.9592 121.749C69.2177 121.902 69.4322 122.134 69.6026 122.443C69.7731 122.753 69.8583 123.168 69.8583 123.688V128H68.8526V127.114H68.8015C68.7333 127.256 68.6197 127.408 68.4606 127.57C68.3015 127.732 68.0898 127.869 67.8256 127.983C67.5614 128.097 67.239 128.153 66.8583 128.153ZM67.0117 127.25C67.4094 127.25 67.7447 127.172 68.0174 127.016C68.293 126.859 68.5004 126.658 68.6396 126.411C68.7816 126.163 68.8526 125.903 68.8526 125.631V124.71C68.81 124.761 68.7163 124.808 68.5714 124.851C68.4293 124.891 68.2646 124.926 68.0771 124.957C67.8924 124.986 67.712 125.011 67.5359 125.034C67.3626 125.054 67.2219 125.071 67.114 125.085C66.8526 125.119 66.6083 125.175 66.381 125.251C66.1566 125.325 65.9748 125.437 65.8356 125.588C65.6992 125.736 65.631 125.937 65.631 126.193C65.631 126.543 65.7603 126.807 66.0188 126.986C66.2802 127.162 66.6112 127.25 67.0117 127.25ZM71.6939 128V121.455H72.6655V122.443H72.7337C72.853 122.119 73.0689 121.857 73.3814 121.655C73.6939 121.453 74.0462 121.352 74.4382 121.352C74.5121 121.352 74.6044 121.354 74.7152 121.357C74.826 121.359 74.9098 121.364 74.9666 121.369V122.392C74.9325 122.384 74.8544 122.371 74.7322 122.354C74.6129 122.334 74.4865 122.324 74.353 122.324C74.0348 122.324 73.7507 122.391 73.5007 122.524C73.2536 122.655 73.0575 122.837 72.9126 123.07C72.7706 123.3 72.6996 123.562 72.6996 123.858V128H71.6939ZM76.1587 128V121.455H77.1303V122.443H77.1985C77.3178 122.119 77.5337 121.857 77.8462 121.655C78.1587 121.453 78.511 121.352 78.9031 121.352C78.9769 121.352 79.0692 121.354 79.18 121.357C79.2908 121.359 79.3746 121.364 79.4315 121.369V122.392C79.3974 122.384 79.3192 122.371 79.1971 122.354C79.0778 122.334 78.9513 122.324 78.8178 122.324C78.4996 122.324 78.2156 122.391 77.9656 122.524C77.7184 122.655 77.5224 122.837 77.3775 123.07C77.2354 123.3 77.1644 123.562 77.1644 123.858V128H76.1587ZM83.1687 128.136C82.538 128.136 81.994 127.997 81.5366 127.719C81.082 127.438 80.7312 127.045 80.484 126.543C80.2397 126.037 80.1175 125.449 80.1175 124.778C80.1175 124.108 80.2397 123.517 80.484 123.006C80.7312 122.491 81.0749 122.091 81.5153 121.804C81.9585 121.514 82.4755 121.369 83.0664 121.369C83.4073 121.369 83.744 121.426 84.0763 121.54C84.4087 121.653 84.7113 121.838 84.984 122.094C85.2567 122.347 85.4741 122.682 85.636 123.099C85.7979 123.517 85.8789 124.031 85.8789 124.642V125.068H80.8335V124.199H84.8562C84.8562 123.83 84.7823 123.5 84.6346 123.21C84.4897 122.92 84.2823 122.692 84.0124 122.524C83.7454 122.357 83.43 122.273 83.0664 122.273C82.6658 122.273 82.3192 122.372 82.0266 122.571C81.7369 122.767 81.5138 123.023 81.3576 123.338C81.2013 123.653 81.1232 123.991 81.1232 124.352V124.932C81.1232 125.426 81.2085 125.845 81.3789 126.189C81.5522 126.53 81.7923 126.79 82.0991 126.969C82.4059 127.145 82.7624 127.233 83.1687 127.233C83.4329 127.233 83.6715 127.196 83.8846 127.122C84.1005 127.045 84.2866 126.932 84.4428 126.781C84.5991 126.628 84.7198 126.437 84.805 126.21L85.7766 126.483C85.6744 126.812 85.5025 127.102 85.261 127.352C85.0195 127.599 84.7212 127.793 84.3661 127.932C84.011 128.068 83.6119 128.136 83.1687 128.136ZM89.8803 128.136C89.3349 128.136 88.8533 127.999 88.4357 127.723C88.0181 127.445 87.6914 127.053 87.4556 126.547C87.2198 126.038 87.1019 125.438 87.1019 124.744C87.1019 124.057 87.2198 123.46 87.4556 122.955C87.6914 122.449 88.0195 122.058 88.44 121.783C88.8604 121.507 89.3462 121.369 89.8974 121.369C90.3235 121.369 90.6602 121.44 90.9073 121.582C91.1573 121.722 91.3477 121.881 91.4783 122.06C91.6119 122.236 91.7156 122.381 91.7894 122.494H91.8746V119.273H92.8803V128H91.9087V126.994H91.7894C91.7156 127.114 91.6104 127.264 91.4741 127.446C91.3377 127.625 91.1431 127.786 90.8903 127.928C90.6374 128.067 90.3008 128.136 89.8803 128.136ZM90.0167 127.233C90.4201 127.233 90.761 127.128 91.0394 126.918C91.3178 126.705 91.5295 126.411 91.6744 126.036C91.8192 125.658 91.8917 125.222 91.8917 124.727C91.8917 124.239 91.8207 123.811 91.6786 123.445C91.5366 123.075 91.3263 122.788 91.0479 122.584C90.7695 122.376 90.4258 122.273 90.0167 122.273C89.5906 122.273 89.2354 122.382 88.9513 122.601C88.6701 122.817 88.4585 123.111 88.3164 123.483C88.1772 123.852 88.1076 124.267 88.1076 124.727C88.1076 125.193 88.1786 125.616 88.3207 125.997C88.4656 126.375 88.6786 126.676 88.9599 126.901C89.244 127.122 89.5962 127.233 90.0167 127.233Z" fill="white"/>
<path d="M16.4784 176.168L12.5095 174.431C10.5344 173.567 9.5469 173.135 9.07482 173.514C8.99003 173.582 8.91689 173.663 8.85829 173.755C8.53204 174.265 9.06684 175.2 10.1364 177.072C10.3769 177.493 10.4971 177.703 10.5126 177.933C10.5156 177.977 10.5156 178.023 10.5126 178.067C10.4971 178.297 10.3769 178.507 10.1364 178.928C9.06684 180.8 8.53204 181.735 8.85829 182.245C8.91689 182.337 8.99003 182.418 9.07482 182.486C9.5469 182.865 10.5345 182.433 12.5095 181.569L16.4784 179.832C18.2739 179.047 19.1717 178.654 19.1717 178C19.1717 177.346 18.2739 176.953 16.4784 176.168Z" stroke="#33363F" stroke-width="2"/>
<path d="M57.8295 176.455C57.7784 176.023 57.571 175.688 57.2074 175.449C56.8438 175.21 56.3977 175.091 55.8693 175.091C55.483 175.091 55.1449 175.153 54.8551 175.278C54.5682 175.403 54.3438 175.575 54.1818 175.794C54.0227 176.013 53.9432 176.261 53.9432 176.54C53.9432 176.773 53.9986 176.973 54.1094 177.141C54.223 177.305 54.3679 177.443 54.544 177.554C54.7202 177.662 54.9048 177.751 55.098 177.822C55.2912 177.891 55.4688 177.946 55.6307 177.989L56.517 178.227C56.7443 178.287 56.9972 178.369 57.2756 178.474C57.5568 178.58 57.8253 178.723 58.081 178.905C58.3395 179.084 58.5526 179.314 58.7202 179.595C58.8878 179.876 58.9716 180.222 58.9716 180.631C58.9716 181.102 58.848 181.528 58.6009 181.909C58.3565 182.29 57.9986 182.592 57.527 182.817C57.0582 183.041 56.4886 183.153 55.8182 183.153C55.1932 183.153 54.652 183.053 54.1946 182.851C53.7401 182.649 53.3821 182.368 53.1207 182.007C52.8622 181.646 52.7159 181.227 52.6818 180.75H53.7727C53.8011 181.08 53.9119 181.352 54.1051 181.568C54.3011 181.781 54.5483 181.94 54.8466 182.045C55.1477 182.148 55.4716 182.199 55.8182 182.199C56.2216 182.199 56.5838 182.134 56.9048 182.003C57.2259 181.869 57.4801 181.685 57.6676 181.449C57.8551 181.21 57.9489 180.932 57.9489 180.614C57.9489 180.324 57.8679 180.088 57.706 179.906C57.544 179.724 57.331 179.577 57.0668 179.463C56.8026 179.349 56.517 179.25 56.2102 179.165L55.1364 178.858C54.4545 178.662 53.9148 178.382 53.517 178.018C53.1193 177.655 52.9205 177.179 52.9205 176.591C52.9205 176.102 53.0526 175.676 53.3168 175.312C53.5838 174.946 53.9418 174.662 54.3906 174.46C54.8423 174.256 55.3466 174.153 55.9034 174.153C56.4659 174.153 56.9659 174.254 57.4034 174.456C57.8409 174.655 58.1875 174.928 58.4432 175.274C58.7017 175.621 58.8381 176.014 58.8523 176.455H57.8295ZM63.3171 183.136C62.6864 183.136 62.1424 182.997 61.685 182.719C61.2305 182.438 60.8796 182.045 60.6325 181.543C60.3881 181.037 60.266 180.449 60.266 179.778C60.266 179.108 60.3881 178.517 60.6325 178.006C60.8796 177.491 61.2234 177.091 61.6637 176.804C62.1069 176.514 62.6239 176.369 63.2148 176.369C63.5558 176.369 63.8924 176.426 64.2248 176.54C64.5572 176.653 64.8597 176.838 65.1325 177.094C65.4052 177.347 65.6225 177.682 65.7844 178.099C65.9464 178.517 66.0273 179.031 66.0273 179.642V180.068H60.9819V179.199H65.0046C65.0046 178.83 64.9308 178.5 64.783 178.21C64.6381 177.92 64.4308 177.692 64.1609 177.524C63.8938 177.357 63.5785 177.273 63.2148 177.273C62.8143 177.273 62.4677 177.372 62.1751 177.571C61.8853 177.767 61.6623 178.023 61.506 178.338C61.3498 178.653 61.2717 178.991 61.2717 179.352V179.932C61.2717 180.426 61.3569 180.845 61.5273 181.189C61.7006 181.53 61.9407 181.79 62.2475 181.969C62.5543 182.145 62.9109 182.233 63.3171 182.233C63.5813 182.233 63.82 182.196 64.033 182.122C64.2489 182.045 64.435 181.932 64.5913 181.781C64.7475 181.628 64.8683 181.437 64.9535 181.21L65.9251 181.483C65.8228 181.812 65.6509 182.102 65.4094 182.352C65.168 182.599 64.8697 182.793 64.5146 182.932C64.1594 183.068 63.7603 183.136 63.3171 183.136ZM68.5629 179.062V183H67.5572V176.455H68.5288V177.477H68.614C68.7674 177.145 69.0004 176.878 69.3129 176.676C69.6254 176.472 70.0288 176.369 70.5231 176.369C70.9663 176.369 71.354 176.46 71.6864 176.642C72.0188 176.821 72.2773 177.094 72.462 177.46C72.6467 177.824 72.739 178.284 72.739 178.841V183H71.7333V178.909C71.7333 178.395 71.5998 177.994 71.3327 177.707C71.0657 177.418 70.6992 177.273 70.2333 177.273C69.9123 177.273 69.6254 177.342 69.3725 177.482C69.1225 177.621 68.9251 177.824 68.7802 178.091C68.6353 178.358 68.5629 178.682 68.5629 179.062ZM77.4233 176.455V177.307H74.0312V176.455H77.4233ZM75.0199 174.886H76.0256V181.125C76.0256 181.409 76.0668 181.622 76.1491 181.764C76.2344 181.903 76.3423 181.997 76.473 182.045C76.6065 182.091 76.7472 182.114 76.8949 182.114C77.0057 182.114 77.0966 182.108 77.1676 182.097C77.2386 182.082 77.2955 182.071 77.3381 182.062L77.5426 182.966C77.4744 182.991 77.3793 183.017 77.2571 183.043C77.1349 183.071 76.9801 183.085 76.7926 183.085C76.5085 183.085 76.2301 183.024 75.9574 182.902C75.6875 182.78 75.4631 182.594 75.2841 182.344C75.108 182.094 75.0199 181.778 75.0199 181.398V174.886Z" fill="white"/>
<path d="M13 237.5L13.7071 238.207L13 238.914L12.2929 238.207L13 237.5ZM18.7071 233.207L13.7071 238.207L12.2929 236.793L17.2929 231.793L18.7071 233.207ZM12.2929 238.207L7.29289 233.207L8.70711 231.793L13.7071 236.793L12.2929 238.207Z" fill="#33363F"/>
<path d="M53.0568 230.273H54.3182L57.2841 237.517H57.3864L60.3523 230.273H61.6136V239H60.625V232.369H60.5398L57.8125 239H56.858L54.1307 232.369H54.0455V239H53.0568V230.273ZM66.2553 239.136C65.6644 239.136 65.146 238.996 64.6999 238.714C64.2567 238.433 63.9102 238.04 63.6602 237.534C63.413 237.028 63.2894 236.437 63.2894 235.761C63.2894 235.08 63.413 234.484 63.6602 233.976C63.9102 233.467 64.2567 233.072 64.6999 232.791C65.146 232.51 65.6644 232.369 66.2553 232.369C66.8462 232.369 67.3633 232.51 67.8065 232.791C68.2525 233.072 68.5991 233.467 68.8462 233.976C69.0962 234.484 69.2212 235.08 69.2212 235.761C69.2212 236.437 69.0962 237.028 68.8462 237.534C68.5991 238.04 68.2525 238.433 67.8065 238.714C67.3633 238.996 66.8462 239.136 66.2553 239.136ZM66.2553 238.233C66.7042 238.233 67.0735 238.118 67.3633 237.888C67.6531 237.658 67.8675 237.355 68.0067 236.98C68.146 236.605 68.2156 236.199 68.2156 235.761C68.2156 235.324 68.146 234.916 68.0067 234.538C67.8675 234.161 67.6531 233.855 67.3633 233.622C67.0735 233.389 66.7042 233.273 66.2553 233.273C65.8065 233.273 65.4371 233.389 65.1474 233.622C64.8576 233.855 64.6431 234.161 64.5039 234.538C64.3647 234.916 64.2951 235.324 64.2951 235.761C64.2951 236.199 64.3647 236.605 64.5039 236.98C64.6431 237.355 64.8576 237.658 65.1474 237.888C65.4371 238.118 65.8065 238.233 66.2553 238.233ZM70.7564 239V232.455H71.728V233.443H71.7962C71.9155 233.119 72.1314 232.857 72.4439 232.655C72.7564 232.453 73.1087 232.352 73.5007 232.352C73.5746 232.352 73.6669 232.354 73.7777 232.357C73.8885 232.359 73.9723 232.364 74.0291 232.369V233.392C73.995 233.384 73.9169 233.371 73.7947 233.354C73.6754 233.334 73.549 233.324 73.4155 233.324C73.0973 233.324 72.8132 233.391 72.5632 233.524C72.3161 233.655 72.12 233.837 71.9751 234.07C71.8331 234.3 71.7621 234.562 71.7621 234.858V239H70.7564ZM77.7663 239.136C77.1357 239.136 76.5916 238.997 76.1342 238.719C75.6797 238.438 75.3288 238.045 75.0817 237.543C74.8374 237.037 74.7152 236.449 74.7152 235.778C74.7152 235.108 74.8374 234.517 75.0817 234.006C75.3288 233.491 75.6726 233.091 76.1129 232.804C76.5561 232.514 77.0732 232.369 77.6641 232.369C78.005 232.369 78.3416 232.426 78.674 232.54C79.0064 232.653 79.3089 232.838 79.5817 233.094C79.8544 233.347 80.0717 233.682 80.2337 234.099C80.3956 234.517 80.4766 235.031 80.4766 235.642V236.068H75.4311V235.199H79.4538C79.4538 234.83 79.38 234.5 79.2322 234.21C79.0874 233.92 78.88 233.692 78.6101 233.524C78.343 233.357 78.0277 233.273 77.6641 233.273C77.2635 233.273 76.9169 233.372 76.6243 233.571C76.3345 233.767 76.1115 234.023 75.9553 234.338C75.799 234.653 75.7209 234.991 75.7209 235.352V235.932C75.7209 236.426 75.8061 236.845 75.9766 237.189C76.1499 237.53 76.3899 237.79 76.6967 237.969C77.0036 238.145 77.3601 238.233 77.7663 238.233C78.0305 238.233 78.2692 238.196 78.4822 238.122C78.6982 238.045 78.8842 237.932 79.0405 237.781C79.1967 237.628 79.3175 237.437 79.4027 237.21L80.3743 237.483C80.272 237.812 80.1001 238.102 79.8587 238.352C79.6172 238.599 79.3189 238.793 78.9638 238.932C78.6087 239.068 78.2095 239.136 77.7663 239.136Z" fill="white"/>
<circle cx="12.8999" cy="149.9" r="6.93333" stroke="#33363F" stroke-width="2"/>
<path d="M16.2374 149.9H13.1499C13.0118 149.9 12.8999 149.788 12.8999 149.65V147.304" stroke="#33363F" stroke-width="2" stroke-linecap="round"/>
<path d="M57.8295 148.455C57.7784 148.023 57.571 147.688 57.2074 147.449C56.8438 147.21 56.3977 147.091 55.8693 147.091C55.483 147.091 55.1449 147.153 54.8551 147.278C54.5682 147.403 54.3438 147.575 54.1818 147.794C54.0227 148.013 53.9432 148.261 53.9432 148.54C53.9432 148.773 53.9986 148.973 54.1094 149.141C54.223 149.305 54.3679 149.443 54.544 149.554C54.7202 149.662 54.9048 149.751 55.098 149.822C55.2912 149.891 55.4688 149.946 55.6307 149.989L56.517 150.227C56.7443 150.287 56.9972 150.369 57.2756 150.474C57.5568 150.58 57.8253 150.723 58.081 150.905C58.3395 151.084 58.5526 151.314 58.7202 151.595C58.8878 151.876 58.9716 152.222 58.9716 152.631C58.9716 153.102 58.848 153.528 58.6009 153.909C58.3565 154.29 57.9986 154.592 57.527 154.817C57.0582 155.041 56.4886 155.153 55.8182 155.153C55.1932 155.153 54.652 155.053 54.1946 154.851C53.7401 154.649 53.3821 154.368 53.1207 154.007C52.8622 153.646 52.7159 153.227 52.6818 152.75H53.7727C53.8011 153.08 53.9119 153.352 54.1051 153.568C54.3011 153.781 54.5483 153.94 54.8466 154.045C55.1477 154.148 55.4716 154.199 55.8182 154.199C56.2216 154.199 56.5838 154.134 56.9048 154.003C57.2259 153.869 57.4801 153.685 57.6676 153.449C57.8551 153.21 57.9489 152.932 57.9489 152.614C57.9489 152.324 57.8679 152.088 57.706 151.906C57.544 151.724 57.331 151.577 57.0668 151.463C56.8026 151.349 56.517 151.25 56.2102 151.165L55.1364 150.858C54.4545 150.662 53.9148 150.382 53.517 150.018C53.1193 149.655 52.9205 149.179 52.9205 148.591C52.9205 148.102 53.0526 147.676 53.3168 147.312C53.5838 146.946 53.9418 146.662 54.3906 146.46C54.8423 146.256 55.3466 146.153 55.9034 146.153C56.4659 146.153 56.9659 146.254 57.4034 146.456C57.8409 146.655 58.1875 146.928 58.4432 147.274C58.7017 147.621 58.8381 148.014 58.8523 148.455H57.8295ZM61.5785 151.062V155H60.5728V148.455H61.5444V149.477H61.6296C61.783 149.145 62.016 148.878 62.3285 148.676C62.641 148.472 63.0444 148.369 63.5387 148.369C63.9819 148.369 64.3697 148.46 64.7021 148.642C65.0344 148.821 65.293 149.094 65.4776 149.46C65.6623 149.824 65.7546 150.284 65.7546 150.841V155H64.7489V150.909C64.7489 150.395 64.6154 149.994 64.3484 149.707C64.0813 149.418 63.7148 149.273 63.2489 149.273C62.9279 149.273 62.641 149.342 62.3881 149.482C62.1381 149.621 61.9407 149.824 61.7958 150.091C61.6509 150.358 61.5785 150.682 61.5785 151.062ZM70.2514 155.136C69.6605 155.136 69.142 154.996 68.696 154.714C68.2528 154.433 67.9062 154.04 67.6562 153.534C67.4091 153.028 67.2855 152.437 67.2855 151.761C67.2855 151.08 67.4091 150.484 67.6562 149.976C67.9062 149.467 68.2528 149.072 68.696 148.791C69.142 148.51 69.6605 148.369 70.2514 148.369C70.8423 148.369 71.3594 148.51 71.8026 148.791C72.2486 149.072 72.5952 149.467 72.8423 149.976C73.0923 150.484 73.2173 151.08 73.2173 151.761C73.2173 152.437 73.0923 153.028 72.8423 153.534C72.5952 154.04 72.2486 154.433 71.8026 154.714C71.3594 154.996 70.8423 155.136 70.2514 155.136ZM70.2514 154.233C70.7003 154.233 71.0696 154.118 71.3594 153.888C71.6491 153.658 71.8636 153.355 72.0028 152.98C72.142 152.605 72.2116 152.199 72.2116 151.761C72.2116 151.324 72.142 150.916 72.0028 150.538C71.8636 150.161 71.6491 149.855 71.3594 149.622C71.0696 149.389 70.7003 149.273 70.2514 149.273C69.8026 149.273 69.4332 149.389 69.1435 149.622C68.8537 149.855 68.6392 150.161 68.5 150.538C68.3608 150.916 68.2912 151.324 68.2912 151.761C68.2912 152.199 68.3608 152.605 68.5 152.98C68.6392 153.355 68.8537 153.658 69.1435 153.888C69.4332 154.118 69.8026 154.233 70.2514 154.233ZM77.4116 155.136C76.8207 155.136 76.3022 154.996 75.8562 154.714C75.413 154.433 75.0664 154.04 74.8164 153.534C74.5692 153.028 74.4457 152.437 74.4457 151.761C74.4457 151.08 74.5692 150.484 74.8164 149.976C75.0664 149.467 75.413 149.072 75.8562 148.791C76.3022 148.51 76.8207 148.369 77.4116 148.369C78.0025 148.369 78.5195 148.51 78.9627 148.791C79.4087 149.072 79.7553 149.467 80.0025 149.976C80.2525 150.484 80.3775 151.08 80.3775 151.761C80.3775 152.437 80.2525 153.028 80.0025 153.534C79.7553 154.04 79.4087 154.433 78.9627 154.714C78.5195 154.996 78.0025 155.136 77.4116 155.136ZM77.4116 154.233C77.8604 154.233 78.2298 154.118 78.5195 153.888C78.8093 153.658 79.0238 153.355 79.163 152.98C79.3022 152.605 79.3718 152.199 79.3718 151.761C79.3718 151.324 79.3022 150.916 79.163 150.538C79.0238 150.161 78.8093 149.855 78.5195 149.622C78.2298 149.389 77.8604 149.273 77.4116 149.273C76.9627 149.273 76.5934 149.389 76.3036 149.622C76.0138 149.855 75.7994 150.161 75.6602 150.538C75.521 150.916 75.4513 151.324 75.4513 151.761C75.4513 152.199 75.521 152.605 75.6602 152.98C75.7994 153.355 76.0138 153.658 76.3036 153.888C76.5934 154.118 76.9627 154.233 77.4116 154.233ZM81.7251 155V154.233L85.4411 149.46V149.392H81.8445V148.455H86.7365V149.256L83.1229 153.994V154.062H86.8558V155H81.7251ZM90.9616 155.136C90.331 155.136 89.7869 154.997 89.3295 154.719C88.875 154.438 88.5241 154.045 88.277 153.543C88.0327 153.037 87.9105 152.449 87.9105 151.778C87.9105 151.108 88.0327 150.517 88.277 150.006C88.5241 149.491 88.8679 149.091 89.3082 148.804C89.7514 148.514 90.2685 148.369 90.8594 148.369C91.2003 148.369 91.5369 148.426 91.8693 148.54C92.2017 148.653 92.5043 148.838 92.777 149.094C93.0497 149.347 93.267 149.682 93.429 150.099C93.5909 150.517 93.6719 151.031 93.6719 151.642V152.068H88.6264V151.199H92.6491C92.6491 150.83 92.5753 150.5 92.4276 150.21C92.2827 149.92 92.0753 149.692 91.8054 149.524C91.5384 149.357 91.223 149.273 90.8594 149.273C90.4588 149.273 90.1122 149.372 89.8196 149.571C89.5298 149.767 89.3068 150.023 89.1506 150.338C88.9943 150.653 88.9162 150.991 88.9162 151.352V151.932C88.9162 152.426 89.0014 152.845 89.1719 153.189C89.3452 153.53 89.5852 153.79 89.892 153.969C90.1989 154.145 90.5554 154.233 90.9616 154.233C91.2259 154.233 91.4645 154.196 91.6776 154.122C91.8935 154.045 92.0795 153.932 92.2358 153.781C92.392 153.628 92.5128 153.437 92.598 153.21L93.5696 153.483C93.4673 153.812 93.2955 154.102 93.054 154.352C92.8125 154.599 92.5142 154.793 92.1591 154.932C91.804 155.068 91.4048 155.136 90.9616 155.136ZM97.6733 155.136C97.1278 155.136 96.6463 154.999 96.2287 154.723C95.8111 154.445 95.4844 154.053 95.2486 153.547C95.0128 153.038 94.8949 152.438 94.8949 151.744C94.8949 151.057 95.0128 150.46 95.2486 149.955C95.4844 149.449 95.8125 149.058 96.233 148.783C96.6534 148.507 97.1392 148.369 97.6903 148.369C98.1165 148.369 98.4531 148.44 98.7003 148.582C98.9503 148.722 99.1406 148.881 99.2713 149.06C99.4048 149.236 99.5085 149.381 99.5824 149.494H99.6676V146.273H100.673V155H99.7017V153.994H99.5824C99.5085 154.114 99.4034 154.264 99.267 154.446C99.1307 154.625 98.9361 154.786 98.6832 154.928C98.4304 155.067 98.0938 155.136 97.6733 155.136ZM97.8097 154.233C98.2131 154.233 98.554 154.128 98.8324 153.918C99.1108 153.705 99.3224 153.411 99.4673 153.036C99.6122 152.658 99.6847 152.222 99.6847 151.727C99.6847 151.239 99.6136 150.811 99.4716 150.445C99.3295 150.075 99.1193 149.788 98.8409 149.584C98.5625 149.376 98.2188 149.273 97.8097 149.273C97.3835 149.273 97.0284 149.382 96.7443 149.601C96.4631 149.817 96.2514 150.111 96.1094 150.483C95.9702 150.852 95.9006 151.267 95.9006 151.727C95.9006 152.193 95.9716 152.616 96.1136 152.997C96.2585 153.375 96.4716 153.676 96.7528 153.901C97.0369 154.122 97.3892 154.233 97.8097 154.233Z" fill="white"/>
<path d="M55.75 211H53.0568V202.273H55.8693C56.7159 202.273 57.4403 202.447 58.0426 202.797C58.6449 203.143 59.1065 203.642 59.4276 204.293C59.7486 204.94 59.9091 205.716 59.9091 206.619C59.9091 207.528 59.7472 208.311 59.4233 208.967C59.0994 209.621 58.6278 210.124 58.0085 210.476C57.3892 210.825 56.6364 211 55.75 211ZM54.1136 210.062H55.6818C56.4034 210.062 57.0014 209.923 57.4759 209.645C57.9503 209.366 58.304 208.97 58.5369 208.456C58.7699 207.942 58.8864 207.33 58.8864 206.619C58.8864 205.915 58.7713 205.308 58.5412 204.8C58.3111 204.288 57.9673 203.896 57.5099 203.624C57.0526 203.348 56.483 203.21 55.8011 203.21H54.1136V210.062ZM61.5455 211V204.455H62.517V205.443H62.5852C62.7045 205.119 62.9205 204.857 63.233 204.655C63.5455 204.453 63.8977 204.352 64.2898 204.352C64.3636 204.352 64.456 204.354 64.5668 204.357C64.6776 204.359 64.7614 204.364 64.8182 204.369V205.392C64.7841 205.384 64.706 205.371 64.5838 205.354C64.4645 205.334 64.3381 205.324 64.2045 205.324C63.8864 205.324 63.6023 205.391 63.3523 205.524C63.1051 205.655 62.9091 205.837 62.7642 206.07C62.6222 206.3 62.5511 206.562 62.5511 206.858V211H61.5455ZM67.9364 211.153C67.5217 211.153 67.1452 211.075 66.8072 210.919C66.4691 210.76 66.2006 210.531 66.0018 210.233C65.8029 209.932 65.7035 209.568 65.7035 209.142C65.7035 208.767 65.7773 208.463 65.9251 208.23C66.0728 207.994 66.2702 207.81 66.5174 207.676C66.7646 207.543 67.0373 207.443 67.3356 207.378C67.6367 207.31 67.9393 207.256 68.2433 207.216C68.641 207.165 68.9634 207.126 69.2106 207.101C69.4606 207.072 69.6424 207.026 69.756 206.96C69.8725 206.895 69.9308 206.781 69.9308 206.619V206.585C69.9308 206.165 69.8157 205.838 69.5856 205.605C69.3583 205.372 69.0131 205.256 68.5501 205.256C68.07 205.256 67.6935 205.361 67.4208 205.571C67.1481 205.781 66.9563 206.006 66.8455 206.244L65.891 205.903C66.0614 205.506 66.2887 205.196 66.5728 204.974C66.8597 204.75 67.1722 204.594 67.5103 204.506C67.8512 204.415 68.1864 204.369 68.516 204.369C68.7262 204.369 68.9677 204.395 69.2404 204.446C69.516 204.494 69.7816 204.595 70.0373 204.749C70.2958 204.902 70.5103 205.134 70.6808 205.443C70.8512 205.753 70.9364 206.168 70.9364 206.688V211H69.9308V210.114H69.8796C69.8114 210.256 69.6978 210.408 69.5387 210.57C69.3796 210.732 69.168 210.869 68.9038 210.983C68.6396 211.097 68.3171 211.153 67.9364 211.153ZM68.0898 210.25C68.4876 210.25 68.8228 210.172 69.0955 210.016C69.3711 209.859 69.5785 209.658 69.7177 209.411C69.8597 209.163 69.9308 208.903 69.9308 208.631V207.71C69.8881 207.761 69.7944 207.808 69.6495 207.851C69.5075 207.891 69.3427 207.926 69.1552 207.957C68.9705 207.986 68.7901 208.011 68.614 208.034C68.4407 208.054 68.3001 208.071 68.1921 208.085C67.9308 208.119 67.6864 208.175 67.4592 208.251C67.2347 208.325 67.0529 208.437 66.9137 208.588C66.7773 208.736 66.7092 208.937 66.7092 209.193C66.7092 209.543 66.8384 209.807 67.0969 209.986C67.3583 210.162 67.6893 210.25 68.0898 210.25ZM75.6868 204.455V205.307H72.1584V204.455H75.6868ZM73.2152 211V203.551C73.2152 203.176 73.3033 202.864 73.4794 202.614C73.6555 202.364 73.8842 202.176 74.1655 202.051C74.4467 201.926 74.7436 201.864 75.0561 201.864C75.3033 201.864 75.505 201.884 75.6612 201.923C75.8175 201.963 75.9339 202 76.0107 202.034L75.7209 202.903C75.6697 202.886 75.5987 202.865 75.5078 202.839C75.4197 202.814 75.3033 202.801 75.1584 202.801C74.826 202.801 74.5859 202.885 74.4382 203.053C74.2933 203.22 74.2209 203.466 74.2209 203.79V211H73.2152ZM79.9428 204.455V205.307H76.5508V204.455H79.9428ZM77.5394 202.886H78.5451V209.125C78.5451 209.409 78.5863 209.622 78.6687 209.764C78.7539 209.903 78.8619 209.997 78.9925 210.045C79.1261 210.091 79.2667 210.114 79.4144 210.114C79.5252 210.114 79.6161 210.108 79.6871 210.097C79.7582 210.082 79.815 210.071 79.8576 210.062L80.0621 210.966C79.994 210.991 79.8988 211.017 79.7766 211.043C79.6545 211.071 79.4996 211.085 79.3121 211.085C79.0281 211.085 78.7496 211.024 78.4769 210.902C78.207 210.78 77.9826 210.594 77.8036 210.344C77.6275 210.094 77.5394 209.778 77.5394 209.398V202.886Z" fill="white"/>
<path d="M162.631 211.119C162.131 211.119 161.68 211.02 161.28 210.821C160.879 210.622 160.558 210.349 160.317 210.003C160.075 209.656 159.943 209.261 159.92 208.818H160.943C160.983 209.213 161.162 209.54 161.48 209.798C161.801 210.054 162.185 210.182 162.631 210.182C162.989 210.182 163.307 210.098 163.585 209.93C163.866 209.763 164.087 209.533 164.246 209.24C164.408 208.945 164.489 208.611 164.489 208.239C164.489 207.858 164.405 207.518 164.237 207.22C164.072 206.919 163.845 206.682 163.555 206.509C163.266 206.335 162.935 206.247 162.562 206.244C162.295 206.241 162.021 206.283 161.74 206.368C161.459 206.45 161.227 206.557 161.045 206.688L160.057 206.568L160.585 202.273H165.119V203.21H161.472L161.165 205.784H161.216C161.395 205.642 161.619 205.524 161.889 205.43C162.159 205.337 162.44 205.29 162.733 205.29C163.267 205.29 163.743 205.418 164.161 205.673C164.581 205.926 164.911 206.273 165.149 206.713C165.391 207.153 165.511 207.656 165.511 208.222C165.511 208.778 165.386 209.276 165.136 209.713C164.889 210.148 164.548 210.491 164.114 210.744C163.679 210.994 163.185 211.119 162.631 211.119Z" fill="white"/>
<path d="M13.8787 200.25H10.75C9.33579 200.25 8.62868 200.25 8.18934 200.689C7.75 201.129 7.75 201.836 7.75 203.25V210.75C7.75 212.164 7.75 212.871 8.18934 213.311C8.62868 213.75 9.33579 213.75 10.75 213.75H15.25C16.6642 213.75 17.3713 213.75 17.8107 213.311C18.25 212.871 18.25 212.164 18.25 210.75V204.621C18.25 204.315 18.25 204.161 18.1929 204.024C18.1358 203.886 18.0274 203.777 17.8107 203.561L14.9393 200.689C14.7226 200.473 14.6142 200.364 14.4764 200.307C14.3385 200.25 14.1852 200.25 13.8787 200.25Z" stroke="#33363F" stroke-width="2"/>
<path d="M13.75 200.25V203.25C13.75 203.957 13.75 204.311 13.9697 204.53C14.1893 204.75 14.5429 204.75 15.25 204.75H18.25" stroke="#33363F" stroke-width="2"/>
</svg>
