<svg width="91" height="44" viewBox="0 0 91 44" fill="none" xmlns="http://www.w3.org/2000/svg">
<rect width="91" height="44" rx="4" fill="white"/>
<rect x="0.5" y="0.5" width="90" height="43" rx="3.5" stroke="#CBCBCB" stroke-opacity="0.5"/>
<path d="M14.4851 15.9341H17.2407L19.8942 20.9455H20.0078L22.6612 15.9341H25.4169L21.1726 23.4569V27.5705H18.7294V23.4569L14.4851 15.9341ZM28.8643 27.741C27.9666 27.741 27.1939 27.5591 26.5461 27.1955C25.9022 26.8281 25.406 26.3091 25.0575 25.6387C24.709 24.9644 24.5348 24.1671 24.5348 23.2466C24.5348 22.3489 24.709 21.561 25.0575 20.883C25.406 20.205 25.8965 19.6766 26.5291 19.2978C27.1655 18.919 27.9117 18.7296 28.7677 18.7296C29.3435 18.7296 29.8795 18.8224 30.3757 19.008C30.8757 19.1898 31.3113 19.4644 31.6825 19.8319C32.0575 20.1993 32.3492 20.6614 32.5575 21.2182C32.7658 21.7713 32.87 22.419 32.87 23.1614V23.8262H25.5007V22.3262H30.5916C30.5916 21.9777 30.5158 21.669 30.3643 21.4C30.2128 21.1311 30.0026 20.9209 29.7336 20.7694C29.4685 20.6141 29.1598 20.5364 28.8075 20.5364C28.4401 20.5364 28.1143 20.6216 27.8302 20.7921C27.5499 20.9588 27.3302 21.1841 27.1711 21.4682C27.0121 21.7485 26.9306 22.061 26.9268 22.4057V23.8319C26.9268 24.2637 27.0064 24.6368 27.1655 24.9512C27.3283 25.2656 27.5575 25.508 27.853 25.6785C28.1484 25.8489 28.4988 25.9341 28.9041 25.9341C29.173 25.9341 29.4192 25.8963 29.6427 25.8205C29.8662 25.7447 30.0575 25.6311 30.2166 25.4796C30.3757 25.3281 30.4969 25.1425 30.5802 24.9228L32.8189 25.0705C32.7052 25.6084 32.4723 26.0781 32.12 26.4796C31.7715 26.8773 31.3208 27.1879 30.7677 27.4114C30.2185 27.6311 29.584 27.741 28.8643 27.741ZM41.7109 21.3319L39.495 21.4682C39.4571 21.2788 39.3757 21.1084 39.2507 20.9569C39.1257 20.8016 38.9609 20.6784 38.7564 20.5875C38.5556 20.4928 38.3151 20.4455 38.0348 20.4455C37.6598 20.4455 37.3435 20.525 37.0859 20.6841C36.8283 20.8394 36.6996 21.0478 36.6996 21.3091C36.6996 21.5175 36.7829 21.6936 36.9496 21.8375C37.1162 21.9815 37.4022 22.097 37.8075 22.1841L39.3871 22.5023C40.2355 22.6766 40.8681 22.9569 41.2848 23.3432C41.7014 23.7296 41.9098 24.2372 41.9098 24.866C41.9098 25.4379 41.7412 25.9398 41.4041 26.3716C41.0708 26.8035 40.6124 27.1406 40.0291 27.383C39.4496 27.6216 38.781 27.741 38.0234 27.741C36.8681 27.741 35.9477 27.5004 35.2621 27.0194C34.5802 26.5345 34.1806 25.8754 34.0632 25.0421L36.4439 24.9171C36.5158 25.2694 36.6901 25.5383 36.9666 25.7239C37.2431 25.9057 37.5973 25.9966 38.0291 25.9966C38.4533 25.9966 38.7942 25.9152 39.0518 25.7523C39.3132 25.5856 39.4458 25.3716 39.4496 25.1103C39.4458 24.8906 39.353 24.7106 39.1711 24.5705C38.9893 24.4266 38.709 24.3167 38.3302 24.241L36.8189 23.9398C35.9666 23.7694 35.3321 23.4739 34.9155 23.0535C34.5026 22.633 34.2961 22.097 34.2961 21.4455C34.2961 20.8849 34.4477 20.4019 34.7507 19.9966C35.0575 19.5913 35.4874 19.2788 36.0405 19.0591C36.5973 18.8394 37.2488 18.7296 37.995 18.7296C39.0973 18.7296 39.9647 18.9625 40.5973 19.4284C41.2336 19.8944 41.6049 20.5288 41.7109 21.3319Z" fill="#888888"/>
<line x1="55.1" x2="55.1" y2="44" stroke="#B3B3B3"/>
<path d="M72.8001 25.1716L69.3297 20.4319L76.3347 20.483L72.8001 25.1716Z" fill="#B3B3B3"/>
</svg>
