<svg width="45" height="21" viewBox="0 0 45 21" fill="none" xmlns="http://www.w3.org/2000/svg">
<rect width="45" height="21" rx="4" fill="white"/>
<rect x="0.5" y="0.5" width="44" height="20" rx="3.5" stroke="#CBCBCB" stroke-opacity="0.5"/>
<path d="M7.16477 8.18133H8.54261L9.86932 10.687H9.92614L11.2528 8.18133H12.6307L10.5085 11.9427V13.9995H9.28693V11.9427L7.16477 8.18133ZM14.3544 14.0847C13.9055 14.0847 13.5192 13.9938 13.1953 13.812C12.8733 13.6283 12.6252 13.3688 12.451 13.0336C12.2768 12.6965 12.1896 12.2978 12.1896 11.8376C12.1896 11.3887 12.2768 10.9948 12.451 10.6558C12.6252 10.3167 12.8705 10.0525 13.1868 9.86315C13.505 9.67375 13.8781 9.57906 14.3061 9.57906C14.594 9.57906 14.862 9.62546 15.1101 9.71826C15.3601 9.80917 15.5779 9.94648 15.7635 10.1302C15.951 10.3139 16.0968 10.545 16.201 10.8234C16.3052 11.0999 16.3572 11.4238 16.3572 11.795V12.1274H12.6726V11.3774H15.218C15.218 11.2031 15.1802 11.0488 15.1044 10.9143C15.0286 10.7798 14.9235 10.6747 14.7891 10.5989C14.6565 10.5213 14.5021 10.4825 14.326 10.4825C14.1423 10.4825 13.9794 10.5251 13.8374 10.6103C13.6972 10.6936 13.5874 10.8063 13.5078 10.9484C13.4283 11.0885 13.3875 11.2448 13.3857 11.4171V12.1302C13.3857 12.3461 13.4254 12.5327 13.505 12.6899C13.5864 12.847 13.701 12.9683 13.8487 13.0535C13.9964 13.1387 14.1716 13.1813 14.3743 13.1813C14.5088 13.1813 14.6319 13.1624 14.7436 13.1245C14.8554 13.0866 14.951 13.0298 15.0305 12.9541C15.1101 12.8783 15.1707 12.7855 15.2124 12.6756L16.3317 12.7495C16.2749 13.0185 16.1584 13.2533 15.9822 13.4541C15.808 13.6529 15.5826 13.8082 15.3061 13.92C15.0315 14.0298 14.7143 14.0847 14.3544 14.0847ZM20.7777 10.8802L19.6697 10.9484C19.6508 10.8537 19.6101 10.7685 19.5476 10.6927C19.4851 10.615 19.4027 10.5535 19.3004 10.508C19.2 10.4607 19.0798 10.437 18.9396 10.437C18.7521 10.437 18.594 10.4768 18.4652 10.5563C18.3364 10.634 18.272 10.7381 18.272 10.8688C18.272 10.973 18.3137 11.0611 18.397 11.133C18.4804 11.205 18.6233 11.2628 18.826 11.3063L19.6158 11.4654C20.04 11.5525 20.3563 11.6927 20.5646 11.8859C20.773 12.0791 20.8771 12.3328 20.8771 12.6472C20.8771 12.9332 20.7929 13.1842 20.6243 13.4001C20.4576 13.616 20.2285 13.7845 19.9368 13.9058C19.647 14.0251 19.3127 14.0847 18.9339 14.0847C18.3563 14.0847 17.8961 13.9645 17.5533 13.7239C17.2124 13.4815 17.0125 13.152 16.9538 12.7353L18.1442 12.6728C18.1802 12.8489 18.2673 12.9834 18.4055 13.0762C18.5438 13.1671 18.7209 13.2126 18.9368 13.2126C19.1489 13.2126 19.3194 13.1719 19.4482 13.0904C19.5788 13.0071 19.6451 12.9001 19.647 12.7694C19.6451 12.6595 19.5987 12.5696 19.5078 12.4995C19.4169 12.4275 19.2768 12.3726 19.0874 12.3347L18.3317 12.1842C17.9055 12.0989 17.5883 11.9512 17.38 11.741C17.1735 11.5308 17.0703 11.2628 17.0703 10.937C17.0703 10.6567 17.1461 10.4152 17.2976 10.2126C17.451 10.0099 17.666 9.85368 17.9425 9.74383C18.2209 9.63398 18.5466 9.57906 18.9197 9.57906C19.4709 9.57906 19.9046 9.69553 20.2209 9.92849C20.5391 10.1614 20.7247 10.4787 20.7777 10.8802Z" fill="#888888"/>
<line x1="27.5" x2="27.5" y2="21" stroke="#B3B3B3"/>
<path d="M36 12.0137L34.2839 9.75157L37.7479 9.776L36 12.0137Z" fill="#B3B3B3"/>
</svg>
